<?xml version="1.0" encoding="utf-8"?>
<!-- Generated by IcoMoon.io -->
<!DOCTYPE svg PUBLIC "-//W3C//DTD SVG 1.1//EN" "http://www.w3.org/Graphics/SVG/1.1/DTD/svg11.dtd">
<svg version="1.1" xmlns="http://www.w3.org/2000/svg" xmlns:xlink="http://www.w3.org/1999/xlink" width="32" height="32" viewBox="0 0 32 32">
<path  d="M15.721 31.778c-1.458 0-2.825-0.564-3.849-1.588l-10.143-10.143c-1.036-1.035-1.599-2.418-1.588-3.892 0.012-1.471 0.595-2.858 1.642-3.905l10.305-10.305c1.060-1.059 2.462-1.642 3.949-1.642 1.458 0 2.825 0.564 3.848 1.588l10.143 10.143c2.135 2.134 2.11 5.633-0.055 7.798l-10.304 10.305c-1.059 1.059-2.461 1.643-3.949 1.643zM16.038 1.582c-1.146 0-2.227 0.45-3.044 1.267l-10.305 10.305c-0.808 0.808-1.259 1.877-1.268 3.010-0.009 1.129 0.422 2.187 1.213 2.978l10.143 10.143c0.782 0.782 1.828 1.213 2.944 1.213 1.146 0 2.227-0.45 3.044-1.268l10.305-10.305c1.666-1.666 1.69-4.352 0.055-5.988l-10.143-10.143c-0.782-0.782-1.828-1.213-2.943-1.213z"></path>
<path  d="M10.933 23.407c-0.155 0-0.31-0.049-0.44-0.143-0.231-0.168-0.347-0.451-0.299-0.734l0.856-4.989-3.624-3.532c-0.204-0.199-0.279-0.497-0.19-0.768 0.088-0.272 0.324-0.47 0.605-0.51l5.011-0.728 2.24-4.54c0.126-0.256 0.387-0.418 0.673-0.418 0.284 0 0.545 0.162 0.673 0.418l2.239 4.54 5.011 0.728c0.281 0.040 0.516 0.238 0.604 0.51s0.016 0.568-0.192 0.768l-3.622 3.533 0.856 4.989c0.047 0.281-0.068 0.566-0.299 0.732-0.231 0.168-0.537 0.19-0.789 0.058l-4.48-2.356-4.48 2.356c-0.113 0.057-0.232 0.085-0.352 0.085zM15.763 19.369c0.12 0 0.239 0.028 0.349 0.087l3.486 1.833-0.665-3.881c-0.042-0.244 0.038-0.491 0.214-0.663l2.82-2.749-3.898-0.565c-0.244-0.036-0.456-0.189-0.565-0.411l-1.741-3.531-1.743 3.531c-0.109 0.221-0.32 0.375-0.565 0.411l-3.896 0.565 2.82 2.749c0.177 0.172 0.258 0.42 0.215 0.663l-0.667 3.881 3.486-1.833c0.11-0.058 0.229-0.087 0.348-0.087z"></path>
</svg>
