<svg width="32" height="32" viewBox="0 0 32 32" xmlns="http://www.w3.org/2000/svg"><title>40163839-1DB6-46D5-A697-0935211FFA0A</title><path d="M24.6 9.503A2.099 2.099 0 0 0 22.497 7.4H8.503A2.099 2.099 0 0 0 6.4 9.503v13.994c0 1.164.937 2.103 2.103 2.103h13.994a2.099 2.099 0 0 0 2.103-2.103V9.503zm1.4 0v13.994A3.499 3.499 0 0 1 22.497 27H8.503A3.499 3.499 0 0 1 5 23.497V9.503A3.499 3.499 0 0 1 8.503 6h13.994A3.499 3.499 0 0 1 26 9.503zm-13.104 9.52H11.42L9.932 15.05l-.118 4.876H8.568l.254-7.356h1.453l1.883 5.05 1.882-5.05h1.454l.254 7.356H14.5l-.117-4.876-1.488 3.974zm10.08.902h-1.493l-1.74-2.527H18.32v2.527h-1.276v-7.356h2.85c1.511 0 2.21.65 2.21 1.906v1.007c0 .859-.318 1.436-1.005 1.72l1.876 2.723zm-3.114-3.698c.76 0 .966-.164.966-.735v-1.006c0-.576-.2-.735-.966-.735H18.32v2.476h1.542z" fill-rule="nonzero" /></svg>