<svg width="32" height="32" viewBox="0 0 32 32" xmlns="http://www.w3.org/2000/svg"><title>29F8D52A-011B-4676-A266-3E8EA0F7F4BF</title><path d="M24.6 9.503A2.099 2.099 0 0 0 22.497 7.4H8.503A2.099 2.099 0 0 0 6.4 9.503v13.994c0 1.164.937 2.103 2.103 2.103h13.994a2.099 2.099 0 0 0 2.103-2.103V9.503zm1.4 0v13.994A3.499 3.499 0 0 1 22.497 27H8.503A3.499 3.499 0 0 1 5 23.497V9.503A3.499 3.499 0 0 1 8.503 6h13.994A3.499 3.499 0 0 1 26 9.503zm-7.29 9.473a.749.749 0 1 0 1.069 1.05l3.47-3.532-3.472-3.516a.749.749 0 0 0-1.065 1.053l2.435 2.465-2.437 2.48zm-6.462-4.947a.749.749 0 1 0-1.069-1.05l-3.47 3.533 3.472 3.515a.749.749 0 0 0 1.065-1.052l-2.435-2.466 2.437-2.48zm-3.43 3.201l13.438.015.002-1.497-13.437-.016-.002 1.498z" fill-rule="nonzero" /></svg>