<?xml version="1.0" encoding="utf-8"?>
<!-- Generated by IcoMoon.io -->
<!DOCTYPE svg PUBLIC "-//W3C//DTD SVG 1.1//EN" "http://www.w3.org/Graphics/SVG/1.1/DTD/svg11.dtd">
<svg version="1.1" xmlns="http://www.w3.org/2000/svg" xmlns:xlink="http://www.w3.org/1999/xlink" width="32" height="32" viewBox="0 0 32 32">
<path  d="M24.887 32h-18.014c-3.701 0-6.712-3.055-6.712-6.809v-18.302c0-3.755 3.011-6.809 6.712-6.809h18.014c3.701 0 6.712 3.054 6.712 6.809v18.302c-0 3.755-3.012 6.809-6.712 6.809zM6.872 1.36c-2.996 0-5.432 2.48-5.432 5.529v18.302c0 3.049 2.437 5.529 5.432 5.529h18.014c2.995 0 5.432-2.481 5.432-5.529l0-18.302c0-3.049-2.437-5.529-5.432-5.529h-18.014z"></path>
<path  d="M16.271 20.041c0.065 0.196 0.106 0.353 0.123 0.467 0.016 0.114-0.006 0.201-0.066 0.258s-0.167 0.093-0.319 0.107c-0.154 0.013-0.364 0.020-0.631 0.020-0.279 0-0.495-0.004-0.651-0.012s-0.274-0.025-0.356-0.050c-0.082-0.024-0.14-0.058-0.172-0.102s-0.060-0.101-0.082-0.172l-0.713-2.128h-3.978l-0.671 2.072c-0.023 0.076-0.051 0.14-0.087 0.193s-0.092 0.092-0.171 0.122c-0.080 0.031-0.192 0.051-0.337 0.061s-0.335 0.016-0.569 0.016c-0.25 0-0.446-0.007-0.588-0.024s-0.24-0.056-0.294-0.119c-0.056-0.062-0.074-0.151-0.058-0.265s0.058-0.268 0.123-0.459l3.266-9.398c0.033-0.093 0.071-0.168 0.114-0.226s0.113-0.1 0.209-0.131c0.096-0.030 0.228-0.049 0.397-0.057s0.393-0.013 0.671-0.013c0.322 0 0.578 0.004 0.769 0.013s0.34 0.027 0.446 0.057c0.107 0.030 0.183 0.075 0.23 0.135s0.084 0.142 0.118 0.246l3.275 9.389zM11.408 12.272h-0.009l-1.498 4.502h3.004l-1.497-4.502z"></path>
<path  d="M24.882 19.238c0 0.137-0.004 0.252-0.012 0.348s-0.020 0.177-0.036 0.246c-0.017 0.068-0.038 0.127-0.066 0.176s-0.071 0.105-0.13 0.168c-0.060 0.063-0.177 0.142-0.348 0.242-0.173 0.098-0.382 0.192-0.631 0.281-0.248 0.091-0.532 0.166-0.851 0.226s-0.664 0.090-1.036 0.090c-0.726 0-1.38-0.112-1.965-0.335-0.583-0.224-1.080-0.558-1.489-1.003s-0.723-1-0.941-1.666-0.328-1.441-0.328-2.324c0-0.9 0.121-1.7 0.361-2.399s0.576-1.285 1.007-1.76c0.431-0.475 0.948-0.835 1.551-1.080s1.268-0.368 1.994-0.368c0.294 0 0.578 0.025 0.851 0.074s0.525 0.114 0.756 0.192c0.233 0.079 0.441 0.171 0.628 0.275 0.184 0.103 0.315 0.192 0.388 0.266s0.124 0.135 0.152 0.184c0.027 0.049 0.048 0.112 0.065 0.188 0.016 0.077 0.029 0.167 0.036 0.27s0.012 0.232 0.012 0.385c0 0.164-0.005 0.303-0.016 0.418s-0.031 0.207-0.058 0.278-0.060 0.123-0.098 0.156c-0.038 0.033-0.083 0.049-0.131 0.049-0.083 0-0.187-0.048-0.312-0.143s-0.287-0.202-0.487-0.319c-0.2-0.117-0.437-0.224-0.713-0.319s-0.605-0.143-0.986-0.143c-0.421 0-0.796 0.086-1.126 0.258s-0.611 0.418-0.844 0.737c-0.232 0.319-0.408 0.706-0.528 1.158s-0.18 0.963-0.18 1.531c0 0.622 0.063 1.161 0.193 1.617 0.127 0.456 0.312 0.831 0.548 1.126s0.524 0.514 0.86 0.659c0.336 0.145 0.713 0.218 1.134 0.218 0.381 0 0.713-0.045 0.991-0.136s0.516-0.19 0.716-0.298c0.199-0.11 0.363-0.208 0.49-0.296 0.129-0.087 0.229-0.131 0.299-0.131 0.055 0 0.1 0.011 0.132 0.033s0.060 0.065 0.081 0.131c0.022 0.065 0.038 0.156 0.050 0.274s0.016 0.275 0.016 0.471z"></path>
</svg>
