<svg width="32" height="32" viewBox="0 0 32 32" xmlns="http://www.w3.org/2000/svg"><title>6FE42265-BD67-4EE7-901B-404B3ACEBE56</title><path d="M25.6 9.503A2.099 2.099 0 0 0 23.497 7.4H9.503A2.099 2.099 0 0 0 7.4 9.503v13.994c0 1.164.937 2.103 2.103 2.103h13.994a2.099 2.099 0 0 0 2.103-2.103V9.503zm1.4 0v13.994A3.499 3.499 0 0 1 23.497 27H9.503A3.499 3.499 0 0 1 6 23.497V9.503A3.499 3.499 0 0 1 9.503 6h13.994A3.499 3.499 0 0 1 27 9.503zm-12.24 3.799c-1.19 0-2.149-.978-2.149-2.177s.96-2.176 2.15-2.176 2.15.977 2.15 2.176c0 1.199-.96 2.177-2.15 2.177zm0-1.5c.356 0 .65-.3.65-.677a.663.663 0 0 0-.65-.676c-.355 0-.649.3-.649.676 0 .377.294.676.65.676zm6.554 10.624a.75.75 0 0 0 1.07-1.051l-2.879-2.935a.75.75 0 0 0-.535-.224h-3.416v-3.477a.75.75 0 1 0-1.5 0v4.227c0 .414.335.75.75.75h3.851l2.659 2.71zM14.797 16.5h4.197a.75.75 0 0 0 0-1.5h-4.197a.75.75 0 1 0 0 1.5zm-3.367-.092a4.88 4.88 0 0 0 .02 5.485 4.69 4.69 0 0 0 6.608 1.183 4.774 4.774 0 0 0 1.475-1.706 4.89 4.89 0 0 0 .524-1.831.75.75 0 0 0-1.495-.124 3.39 3.39 0 0 1-.363 1.269 3.274 3.274 0 0 1-1.012 1.171c-1.462 1.043-3.474.682-4.5-.812a3.38 3.38 0 0 1-.014-3.795.75.75 0 1 0-1.243-.84z" fill-rule="nonzero" /></svg>