<svg width="32" height="32" viewBox="0 0 32 32" xmlns="http://www.w3.org/2000/svg"><title>22C5A416-0697-4C2F-8666-95383644FDCB</title><path d="M16.5 28C10.149 28 5 22.851 5 16.5S10.149 5 16.5 5 28 10.149 28 16.5 22.851 28 16.5 28zm0-1.533c5.504 0 9.967-4.463 9.967-9.967 0-5.504-4.463-9.967-9.967-9.967-5.504 0-9.967 4.463-9.967 9.967 0 5.504 4.463 9.967 9.967 9.967zm2.944-16.1h.086c2.538 0 4.602 2.204 4.636 4.89a4.962 4.962 0 0 1-.194 1.46c-.253 1.274-1.7 2.928-4.325 5.077-1.005.828-1.822 1.444-2.438 1.835a1.147 1.147 0 0 1-1.283-.044l-.187-.13c-.55-.382-.907-.633-1.327-.936l-.14-.102a31.586 31.586 0 0 1-.746-.555c-2.762-2.15-4.176-3.696-4.462-4.96a4.933 4.933 0 0 1-.23-1.453c-.017-1.376.502-2.705 1.432-3.652a4.458 4.458 0 0 1 3.174-1.357c1.122 0 2.175.385 3.01 1.093a4.544 4.544 0 0 1 2.994-1.166zm-2.264 2.547l-.7.796-.562-.605-.16-.172c-.6-.646-1.42-1-2.315-1a2.964 2.964 0 0 0-2.112.911c-.647.659-1.016 1.603-1.004 2.586.004.36.06.721.173 1.071.2.877 1.45 2.241 3.941 4.181.197.152.435.33.708.527l.136.099c.411.296.763.543 1.307.922.55-.35 1.254-.886 2.108-1.59 2.357-1.93 3.647-3.403 3.823-4.278.105-.358.155-.717.15-1.086-.024-1.894-1.45-3.416-3.138-3.416h-.074a3.062 3.062 0 0 0-2.28 1.054z" fill-rule="nonzero" /></svg>