<svg width="32" height="32" viewBox="0 0 32 32" xmlns="http://www.w3.org/2000/svg"><title>CCD35D30-F3D7-45F0-BF67-CEF6BC6D606F</title><path d="M25.6 9.503A2.099 2.099 0 0 0 23.497 7.4H9.503A2.099 2.099 0 0 0 7.4 9.503v13.994c0 1.164.937 2.103 2.103 2.103h13.994a2.099 2.099 0 0 0 2.103-2.103V9.503zm1.4 0v13.994A3.499 3.499 0 0 1 23.497 27H9.503A3.499 3.499 0 0 1 6 23.497V9.503A3.499 3.499 0 0 1 9.503 6h13.994A3.499 3.499 0 0 1 27 9.503zM16.502 19.756l.346.18 3.251 1.691-.687-3.96.287-.276 2.611-2.518-4.007-.576-.176-.352-1.626-3.26-1.803 3.612-.39.056-3.62.52 2.9 2.794-.068.392-.62 3.57 3.602-1.873zm2.97-6.482l-.566-.408.39.056.175.352zm-6.476 9.986h-.309c-.28 0-.554-.088-.785-.253a1.334 1.334 0 0 1-.538-1.311l.608-3.5-2.574-2.48a1.329 1.329 0 0 1-.342-1.374 1.339 1.339 0 0 1 1.084-.908l3.566-.512 1.591-3.19a1.348 1.348 0 0 1 2.407 0l1.591 3.19 3.564.512c.505.07.927.423 1.085.908.16.488.026 1.022-.344 1.373l-2.571 2.48.608 3.505a1.331 1.331 0 0 1-.538 1.306 1.35 1.35 0 0 1-1.408.102l-3.19-1.659-3.2 1.665a1.389 1.389 0 0 1-.256.097l-.05.049z" fill-rule="nonzero" /></svg>