<svg width="32" height="32" viewBox="0 0 32 32" xmlns="http://www.w3.org/2000/svg"><title>7FB1D783-C9C7-444E-B01A-45F779F5D5FB</title><path d="M14.05 6.203a3.466 3.466 0 0 1 4.9 0l7.847 7.847a3.466 3.466 0 0 1 0 4.9l-7.847 7.847a3.466 3.466 0 0 1-4.9 0L6.203 18.95a3.466 3.466 0 0 1 0-4.9l7.847-7.847zM6.953 14.8a2.405 2.405 0 0 0 0 3.4l7.847 7.847a2.405 2.405 0 0 0 3.4 0l7.847-7.847a2.405 2.405 0 0 0 0-3.4L18.2 6.953a2.405 2.405 0 0 0-3.4 0L6.953 14.8zm12.13-8.73l7.847 7.846a3.654 3.654 0 0 1 0 5.168l-7.846 7.846a3.654 3.654 0 0 1-5.168 0L6.07 19.084a3.654 3.654 0 0 1 0-5.168l7.846-7.846a3.654 3.654 0 0 1 5.168 0zM7.087 18.067l7.847 7.847c.865.865 2.269.865 3.134 0l7.847-7.847a2.217 2.217 0 0 0 0-3.134l-7.847-7.847a2.217 2.217 0 0 0-3.134 0l-7.847 7.847a2.217 2.217 0 0 0 0 3.134zm11.928-1.89c.255 0 .49.135.62.354l2.055 3.482a.719.719 0 1 1-1.237.731l-1.848-3.129h-4.43a.719.719 0 0 1-.64-.392l-2.101-4.13a.719.719 0 0 1 1.28-.652l1.902 3.737h4.4z" fill-rule="nonzero" /></svg>