<?xml version="1.0" encoding="utf-8"?>
<!-- Generated by IcoMoon.io -->
<!DOCTYPE svg PUBLIC "-//W3C//DTD SVG 1.1//EN" "http://www.w3.org/Graphics/SVG/1.1/DTD/svg11.dtd">
<svg version="1.1" xmlns="http://www.w3.org/2000/svg" xmlns:xlink="http://www.w3.org/1999/xlink" width="32" height="32" viewBox="0 0 32 32">
<path  d="M24.887 32h-18.014c-3.701 0-6.712-3.055-6.712-6.809v-18.302c0-3.755 3.011-6.809 6.712-6.809h18.014c3.701 0 6.712 3.054 6.712 6.809v18.302c-0 3.755-3.012 6.809-6.712 6.809zM6.872 1.36c-2.996 0-5.432 2.48-5.432 5.529v18.302c0 3.049 2.437 5.529 5.432 5.529h18.014c2.995 0 5.432-2.481 5.432-5.529l0-18.302c0-3.049-2.437-5.529-5.432-5.529h-18.014z"></path>
<path  d="M12.988 9.809c1.527 0 2.775-1.245 2.775-2.774 0-1.531-1.248-2.776-2.775-2.776-1.532 0-2.775 1.245-2.775 2.776 0 1.529 1.243 2.774 2.775 2.774zM12.988 6.189c0.461 0 0.844 0.379 0.845 0.846 0 0.466-0.38 0.845-0.845 0.845-0.467 0-0.846-0.379-0.846-0.845 0-0.467 0.379-0.846 0.846-0.846z"></path>
<path  d="M24.382 24.192l-3.579-6.176c-0.183-0.314-0.52-0.51-0.884-0.51h-5.865v-1.945c0.023 0.002 0.045 0.007 0.068 0.007h5.114c0.565 0 1.021-0.457 1.021-1.022s-0.456-1.022-1.021-1.022h-5.114c-0.023 0-0.045 0.005-0.068 0.007v-1.716c0-0.593-0.459-1.073-1.021-1.073-0.566 0-1.023 0.481-1.023 1.073v6.438c0 0.045 0.007 0.087 0.012 0.131-0.007 0.047-0.014 0.095-0.014 0.144 0 0.567 0.456 1.023 1.024 1.023h6.096c-0.014 0.068-0.021 0.137-0.021 0.208 0 0.44-0.058 0.877-0.171 1.298-0.585 2.196-2.58 3.727-4.855 3.727-2.774 0-5.028-2.254-5.028-5.025 0-1.12 0.359-2.181 1.044-3.067 0.345-0.444 0.264-1.090-0.182-1.434s-1.090-0.263-1.436 0.184c-0.962 1.246-1.471 2.738-1.471 4.317 0 3.9 3.172 7.073 7.073 7.073 3.038 0 5.719-1.949 6.692-4.793l1.842 3.176c0.188 0.327 0.531 0.51 0.886 0.51 0.175 0 0.348-0.042 0.511-0.137 0.488-0.284 0.655-0.907 0.372-1.397z"></path>
</svg>
