<?xml version="1.0" encoding="utf-8"?>
<!-- Generated by IcoMoon.io -->
<!DOCTYPE svg PUBLIC "-//W3C//DTD SVG 1.1//EN" "http://www.w3.org/Graphics/SVG/1.1/DTD/svg11.dtd">
<svg version="1.1" xmlns="http://www.w3.org/2000/svg" xmlns:xlink="http://www.w3.org/1999/xlink" width="32" height="32" viewBox="0 0 32 32">
<path  d="M15.721 31.778c-1.458 0-2.825-0.564-3.849-1.588l-10.143-10.143c-1.036-1.035-1.599-2.418-1.588-3.892 0.012-1.471 0.595-2.858 1.642-3.905l10.305-10.305c1.060-1.059 2.462-1.642 3.949-1.642 1.458 0 2.825 0.564 3.848 1.588l10.143 10.143c2.135 2.134 2.11 5.633-0.055 7.798l-10.304 10.305c-1.059 1.059-2.461 1.643-3.949 1.643zM16.038 1.582c-1.146 0-2.227 0.45-3.044 1.267l-10.305 10.305c-0.808 0.808-1.259 1.877-1.268 3.010-0.009 1.129 0.422 2.187 1.213 2.978l10.143 10.143c0.782 0.782 1.828 1.213 2.944 1.213 1.146 0 2.227-0.45 3.044-1.268l10.305-10.305c1.666-1.666 1.69-4.352 0.055-5.988l-10.143-10.143c-0.782-0.782-1.828-1.213-2.943-1.213z"></path>
<path  d="M21.6 10.347c0-0.186 0.092-0.37 0.274-0.513 0.369-0.284 0.964-0.284 1.335 0 2.206 1.694 3.42 3.953 3.422 6.351 0 0.003 0 0.003 0 0.005 0 2.396-1.214 4.652-3.42 6.348-0.37 0.285-0.964 0.285-1.336 0-0.366-0.282-0.366-0.74 0-1.023 1.852-1.422 2.873-3.313 2.873-5.324v0c0-2.017-1.022-3.91-2.877-5.332-0.179-0.141-0.272-0.327-0.272-0.512v0z"></path>
<path  d="M18.738 12.907c0-0.187 0.094-0.37 0.276-0.514 0.368-0.282 0.965-0.282 1.335 0 2.72 2.093 2.72 5.498 0.002 7.587-0.368 0.283-0.964 0.283-1.335 0-0.367-0.283-0.367-0.74 0-1.022 1.985-1.528 1.985-4.013-0.002-5.54-0.182-0.141-0.276-0.326-0.276-0.511v0z"></path>
<path  d="M9.929 22.028c0 0.186-0.090 0.369-0.276 0.513-0.366 0.283-0.963 0.283-1.331 0-2.21-1.696-3.426-3.953-3.426-6.35 0-0.003 0-0.003 0-0.005 0-2.398 1.215-4.653 3.423-6.35 0.366-0.283 0.964-0.283 1.333 0 0.366 0.283 0.366 0.742 0 1.023-1.851 1.423-2.872 3.314-2.872 5.327v0c0 2.016 1.020 3.909 2.873 5.331 0.184 0.141 0.276 0.325 0.276 0.511v0z"></path>
<path  d="M12.791 19.469c0 0.186-0.093 0.369-0.276 0.513-0.367 0.283-0.964 0.283-1.333 0-2.722-2.092-2.722-5.495-0.002-7.587 0.366-0.283 0.964-0.283 1.333 0s0.367 0.741 0 1.023c-1.987 1.527-1.985 4.013 0.002 5.541 0.183 0.139 0.276 0.325 0.276 0.509v0z"></path>
</svg>
