<svg width="32" height="32" viewBox="0 0 32 32" xmlns="http://www.w3.org/2000/svg"><title>FDE0836C-62E2-4FE2-9627-224E5D09CF46</title><path d="M11.815 20.264h-1.337l2.543-7.528h1.52l2.543 7.528h-1.337l-.59-1.716h-2.762l-.58 1.716zm1.966-6.047l-1.014 3.143h2.027l-1.013-3.143zm8.63 4.838v1.209h-4.405v-7.528h1.305v6.319h3.1zM27 9.503v13.994A3.499 3.499 0 0 1 23.497 27H9.503A3.499 3.499 0 0 1 6 23.497V9.503A3.499 3.499 0 0 1 9.503 6h13.994A3.499 3.499 0 0 1 27 9.503zm-1.4 0A2.099 2.099 0 0 0 23.497 7.4H9.503A2.099 2.099 0 0 0 7.4 9.503v13.994c0 1.164.937 2.103 2.103 2.103h13.994a2.099 2.099 0 0 0 2.103-2.103V9.503z" fill-rule="nonzero" /></svg>