<svg width="32" height="32" viewBox="0 0 32 32" xmlns="http://www.w3.org/2000/svg"><title>E6879AB3-7536-456C-A683-609A096C4F82</title><path d="M24.6 9.503A2.099 2.099 0 0 0 22.497 7.4H8.503A2.099 2.099 0 0 0 6.4 9.503v13.994c0 1.164.937 2.103 2.103 2.103h13.994a2.099 2.099 0 0 0 2.103-2.103V9.503zm1.4 0v13.994A3.499 3.499 0 0 1 22.497 27H8.503A3.499 3.499 0 0 1 5 23.497V9.503A3.499 3.499 0 0 1 8.503 6h13.994A3.499 3.499 0 0 1 26 9.503zm-15.984 1.898a6.479 6.479 0 0 0-1.323 1.225 6.238 6.238 0 0 0-.94 1.587 6.903 6.903 0 0 0-.493 2.626c0 2.782 1.334 4.76 2.847 5.554a.776.776 0 0 0 1.054-.345.807.807 0 0 0-.338-1.076c-.33-.173-.783-.577-1.153-1.126-.533-.79-.844-1.785-.844-3.007 0-.752.132-1.419.374-2.013.18-.441.417-.833.699-1.18.331-.408.61-.647 1.015-.936a.81.81 0 0 0 .193-1.112.773.773 0 0 0-1.09-.197zm2.296 1.598c-.35.249-.608.47-.913.846a4.327 4.327 0 0 0-.65 1.1c-.219.534-.356 1.267-.356 1.937 0 1.915.95 3.339 2.01 3.896a.776.776 0 0 0 1.054-.345.807.807 0 0 0-.338-1.077c-.563-.295-1.16-1.19-1.16-2.474 0-.464.098-.988.235-1.324.106-.26.245-.49.411-.694.196-.24.36-.382.604-.556a.81.81 0 0 0 .193-1.112.773.773 0 0 0-1.09-.197zm7.813-.289c.404.289.683.528 1.015.936.282.347.518.739.698 1.18a5.28 5.28 0 0 1 .374 2.013c0 1.222-.31 2.217-.844 3.007-.37.549-.823.953-1.153 1.126a.807.807 0 0 0-.338 1.076.776.776 0 0 0 1.055.345c1.512-.794 2.846-2.772 2.846-5.554 0-.963-.173-1.839-.494-2.626a6.238 6.238 0 0 0-.939-1.587 6.34 6.34 0 0 0-1.323-1.225.773.773 0 0 0-1.09.197.81.81 0 0 0 .193 1.112zm-2.35 1.598c.244.174.408.315.604.556.166.205.305.435.411.694.137.336.236.86.236 1.324 0 1.283-.598 2.18-1.16 2.474a.807.807 0 0 0-.338 1.077.776.776 0 0 0 1.054.345c1.06-.557 2.01-1.981 2.01-3.896 0-.67-.138-1.403-.356-1.937a4.327 4.327 0 0 0-.65-1.1 4.226 4.226 0 0 0-.913-.846.773.773 0 0 0-1.091.197.81.81 0 0 0 .193 1.112z" fill-rule="nonzero" /></svg>