<svg width="36" height="36" viewBox="0 0 36 36" xmlns="http://www.w3.org/2000/svg"><title>1BA579AA-EB98-4DCE-8C7B-D4E1E773E616</title><path d="M15 25.059h6.005V18H15v7.059zM13 17c0-.553.456-1.001.996-1.001h8.013c.55 0 .996.447.996 1v9.058c0 .553-.456 1-.996 1h-8.013a.998.998 0 0 1-.996-1V17zM9 29.027h18.043V14H9v15.027zm-2-16.03c0-.551.44-.997 1.004-.997H28.04c.555 0 1.004.452 1.004.996v17.035c0 .55-.44.996-1.004.996H8.004A1.004 1.004 0 0 1 7 30.03V12.996zM7.197 10l-.682 2.028h22.737l-.879-2.12a.996.996 0 0 1-.417.092H7.197zm.674-2h19.71l-.828-2H8.543l-.672 2zM6.789 4.943C6.965 4.423 7.545 4 8.105 4H27.09c.55 0 1.166.406 1.381.925l3.39 8.177c.212.511-.064.926-.614.926H4.729c-.551 0-.853-.431-.68-.944l2.74-8.14z" fill-rule="nonzero" fill="#26B8FF"/></svg>