<svg width="36" height="36" viewBox="0 0 36 36" xmlns="http://www.w3.org/2000/svg"><title>F393BA8F-94AD-4EAC-AD9B-39653105F1C8</title><path d="M28 27.827v-2h2v-8.825H7v8.825h2v2H6.006A1.01 1.01 0 0 1 5 26.82V16.008a1 1 0 0 1 .993-1.006h3.01l.011-2.737c0-.045.003-.092.007-.14a.978.978 0 0 1 .248-.886c.12-.265.276-.509.447-.683l5.747-5.844c.219-.223.56-.422.916-.552a.972.972 0 0 1 .658-.152 1.65 1.65 0 0 1 .133-.006h9.82c.558 0 1.01.447 1.01.999v10.001h3.007c.548 0 .993.456.993 1.006V26.82c0 .556-.453 1.007-.996 1.007H28zM11.012 12.92l-.008 2.081H26v-9h-8.08v5.919a1 1 0 0 1-1 1h-5.908zm4.909-2V7.416l-3.506 3.505h3.506zM9 24a1 1 0 0 1 .995-.999h17.01a1 1 0 0 1 .995 1v6.427a1 1 0 0 1-.995 1H9.995a1 1 0 0 1-.995-1v-6.427zm2 5.428h15v-4.427H11v4.427zm4-8.427a1 1 0 0 1 0-2h7.458a1 1 0 1 1 0 2H15z" fill-rule="nonzero" fill="#26B8FF"/></svg>