<svg width="36" height="36" viewBox="0 0 36 36" xmlns="http://www.w3.org/2000/svg"><title>C0F878A9-8DC0-47D3-B49E-56D911621C81</title><path d="M15.406 20.395c-.064-3.083.412-3.69 3.083-5.273a.877.877 0 0 1 .1-.051c-.12-2.703-.101-3.584.106-4.271.295-.979 1.065-1.77 1.972-1.756 1.1.017 1.75 1.07 1.954 2.82.107.92.29 1.932.502 2.892a3.678 3.678 0 0 1 1.847.486c.676.38 1.063.794 2.426 2.423.347.415.57.675.798.925.14.153.27.29.395.413 1.248 1.23 1.459 1.95 1.356 3.747-.124 2.178-.067 4.287.206 4.712.686 1.068-.9 2.538-3.316 4.04-2.538 1.575-4.534 2.147-5.237.586-.435-.967-.992-1.423-2.393-2.136-.882-.448-.718-.364-.982-.51-1.582-.873-4.687-3.53-5.16-4.462-.439-.865-1.65-2.453-2.13-2.716-.91-.498-.964-1.694-.226-2.41.7-.68 1.859-.766 3.182-.216.669.278 1.147.514 1.517.757zm1.582 1.576c.432.315.943.568 1.29.592.345.023.538-.232.538-1.44 0-.888-.03-1.896-.093-3.25l-.04-.842c-1.674 1.022-1.638 1.308-1.504 4.357a.866.866 0 0 1-.19.583zM8.01 26.008v1.996h2.008c.414-.003.878.58.88.994.002.414-.466 1-.88 1.002h-3.27a.75.75 0 0 1-.754-.762V26.04c.007-.414.596-.822 1.01-.815.414.006 1.013.368 1.006.782zM27.887 9.992V7.996H25.88c-.414.003-.878-.58-.88-.993-.002-.415.466-1 .88-1.003h3.27a.75.75 0 0 1 .754.762V9.96c-.007.414-.596.822-1.01.816-.414-.007-1.013-.368-1.007-.783zm-3.622 8.848a.794.794 0 0 1-.991 1.242c-.872-.696-1.947-4.508-2.318-7.698-.115-.991-.313-1.311-.329-1.312-.034 0-.252.225-.354.561-.153.509-.133 1.709.041 5.224.023.444.037.75.052 1.058a69.74 69.74 0 0 1 .091 3.205c0 1.983-.818 3.065-2.212 2.971-.811-.054-1.682-.528-2.367-1.101a2.909 2.909 0 0 1-.555-.62l-.034-.048c-.322-.464-.596-.676-1.776-1.166-.62-.258-1.036-.277-1.249-.185.819.602 1.972 2.144 2.48 3.145.282.557 3.05 2.925 4.321 3.627.23.127.08.049.899.466 1.644.837 2.43 1.479 3.033 2.82.015.033 1.238-.318 2.758-1.262.789-.49 1.55-1.058 2.075-1.545.198-.184.353-.348.453-.475-.385-.98-.412-2.822-.28-5.15.076-1.313.002-1.563-.835-2.39-.141-.138-.286-.29-.439-.457a28.148 28.148 0 0 1-.814-.942c-1.132-1.354-1.497-1.745-1.896-1.969a2.06 2.06 0 0 0-.6-.225c.327 1.185.655 2.074.846 2.226z" fill-rule="nonzero" fill="#26B8FF"/></svg>