<svg width="36" height="36" viewBox="0 0 36 36" xmlns="http://www.w3.org/2000/svg"><title>D3A50CCD-4257-4AD7-A291-4F318992F88C</title><path d="M7 10.007v16.986A.992.992 0 0 0 7.99 28h19.02c.541 0 .99-.45.99-1.007V10.007A.992.992 0 0 0 27.01 9H7.99C7.45 9 7 9.45 7 10.007zm-2 0A3.002 3.002 0 0 1 7.99 7h19.02A2.992 2.992 0 0 1 30 10.007v16.986A3.002 3.002 0 0 1 27.01 30H7.99A2.992 2.992 0 0 1 5 26.993V10.007zM28 23v-4h-4.003c-.547 0-.997.45-.997 1.002v1.996A.996.996 0 0 0 23.997 23H28zm-7-2.998A3.003 3.003 0 0 1 23.997 17H30v8h-6.003A2.996 2.996 0 0 1 21 21.998v-1.996zm-14-5.01v12.015a1 1 0 0 0 .99.993h19.02c.543 0 .99-.446.99-.993V14.993a1 1 0 0 0-.99-.993H7.99a.995.995 0 0 0-.99.993zm-2 0A2.995 2.995 0 0 1 7.99 12h19.02A3 3 0 0 1 30 14.993v12.014A2.995 2.995 0 0 1 27.01 30H7.99A3 3 0 0 1 5 27.007V14.993z" fill-rule="nonzero" fill="#26B8FF"/></svg>