<?xml version="1.0" encoding="utf-8"?>
<!-- Generated by IcoMoon.io -->
<!DOCTYPE svg PUBLIC "-//W3C//DTD SVG 1.1//EN" "http://www.w3.org/Graphics/SVG/1.1/DTD/svg11.dtd">
<svg version="1.1" xmlns="http://www.w3.org/2000/svg" xmlns:xlink="http://www.w3.org/1999/xlink" width="32" height="32" viewBox="0 0 32 32">
<path  d="M21.875 14.417v-7.044c0-0.217-0.176-0.392-0.392-0.392h-7.242c-0.026 0-0.052 0.003-0.077 0.008-0.079 0.015-0.149 0.055-0.203 0.11l-4.196 4.197c-0.056 0.054-0.096 0.125-0.111 0.204-0.004 0.020-0.005 0.041-0.006 0.062-0 0.005-0.001 0.010-0.001 0.014v2.84h-3.088v8.823h2.454v-0.977h-0.84c-0.359 0-0.651-0.315-0.651-0.704v-5.455c0-0.388 0.292-0.704 0.651-0.704h15.179c0.359 0 0.651 0.315 0.651 0.704v5.455c0 0.388-0.291 0.704-0.651 0.704h-0.842v0.977h2.452v-8.823h-3.085zM13.849 8.318v2.866h-2.866l2.866-2.866zM21.091 14.417h-10.662v-2.449h3.812c0.216 0 0.392-0.175 0.392-0.392v-3.812h6.458v6.653z"></path>
<path  d="M21.483 19.934h-11.446c-0.217 0-0.392 0.176-0.392 0.392v3.874c0 0.217 0.174 0.392 0.392 0.392h11.446c0.216 0 0.392-0.175 0.392-0.392v-3.874c-0-0.216-0.176-0.392-0.392-0.392zM21.091 23.808h-10.662v-3.091h10.662v3.091z"></path>
<path  d="M20.9 17.882c0-0.405-0.328-0.733-0.734-0.733s-0.732 0.328-0.732 0.733c0 0.405 0.327 0.733 0.732 0.733s0.734-0.328 0.734-0.733z"></path>
<path  d="M18.1 18.257c0.216 0 0.392-0.174 0.392-0.391s-0.176-0.392-0.392-0.392h-4.819c-0.216 0-0.392 0.176-0.392 0.392s0.176 0.391 0.392 0.391h4.819z"></path>
</svg>
