<?xml version="1.0" encoding="utf-8"?>
<!-- Generated by IcoMoon.io -->
<!DOCTYPE svg PUBLIC "-//W3C//DTD SVG 1.1//EN" "http://www.w3.org/Graphics/SVG/1.1/DTD/svg11.dtd">
<svg version="1.1" xmlns="http://www.w3.org/2000/svg" xmlns:xlink="http://www.w3.org/1999/xlink" width="26" height="32" viewBox="0 0 26 32">
<path fill="#10bab5" d="M17.94 0.974c6.648 2.723 9.829 10.318 7.107 16.966s-10.318 9.829-16.966 7.107c-6.648-2.723-9.829-10.318-7.107-16.966s10.318-9.829 16.966-7.107z"></path>
<path fill="#2aada7" opacity="0.800000011920929" d="M15.919 5.525l2.993 2.704 7.026 6.242c0 2.961-3.667 11.549-12.71 11.549l-1.453-1.671-3.686-4.379 2.32-9.822-0.139-4.13 5.649-0.493z"></path>
<path fill="#f1f0f0" opacity="0.00952000036120415" d="M22.227 30.699c0 0.696-4.127 1.26-9.217 1.26s-9.217-0.564-9.217-1.26c0-0.696 4.127-1.26 9.217-1.26s9.217 0.564 9.217 1.26z"></path>
<path fill="#eae9e9" opacity="0.0190400007224083" d="M21.928 30.699c0 0.673-3.992 1.219-8.917 1.219s-8.917-0.546-8.917-1.219c0-0.673 3.992-1.219 8.917-1.219s8.917 0.546 8.917 1.219z"></path>
<path fill="#e3e2e2" opacity="0.028580001422464862" d="M21.628 30.699c0 0.651-3.858 1.178-8.618 1.178s-8.618-0.527-8.618-1.178c0-0.651 3.858-1.178 8.618-1.178s8.618 0.527 8.618 1.178z"></path>
<path fill="#dcdbdc" opacity="0.03810000178366901" d="M21.329 30.699c0 0.628-3.724 1.137-8.319 1.137s-8.319-0.509-8.319-1.137c0-0.628 3.724-1.137 8.319-1.137s8.319 0.509 8.319 1.137z"></path>
<path fill="#d6d5d5" opacity="0.047620002144873164" d="M21.029 30.699c0 0.605-3.59 1.096-8.019 1.096s-8.019-0.491-8.019-1.096c0-0.605 3.59-1.096 8.019-1.096s8.019 0.491 8.019 1.096z"></path>
<path fill="#d0cfcf" opacity="0.05713999952584503" d="M20.73 30.699c0 0.583-3.456 1.055-7.72 1.055s-7.72-0.472-7.72-1.055c0-0.583 3.456-1.055 7.72-1.055s7.72 0.472 7.72 1.055z"></path>
<path fill="#cac9c9" opacity="0.06665999988704918" d="M20.431 30.699c0 0.56-3.322 1.014-7.42 1.014s-7.42-0.454-7.42-1.014c0-0.56 3.322-1.014 7.42-1.014s7.42 0.454 7.42 1.014z"></path>
<path fill="#c5c3c3" opacity="0.07620000356733803" d="M20.131 30.699c0 0.538-3.188 0.973-7.121 0.973s-7.121-0.436-7.121-0.973c0-0.538 3.188-0.973 7.121-0.973s7.121 0.436 7.121 0.973z"></path>
<path fill="#bfbebe" opacity="0.08572000392854218" d="M19.832 30.699c0 0.515-3.054 0.932-6.821 0.932s-6.821-0.417-6.821-0.932c0-0.515 3.054-0.932 6.821-0.932s6.821 0.417 6.821 0.932z"></path>
<path fill="#bab8b8" opacity="0.09524000428974633" d="M19.532 30.699c0 0.492-2.92 0.891-6.522 0.891s-6.522-0.399-6.522-0.891c0-0.492 2.92-0.891 6.522-0.891s6.522 0.399 6.522 0.891z"></path>
<path fill="#b4b3b3" opacity="0.10476000465095048" d="M19.233 30.699c0 0.47-2.786 0.851-6.223 0.851s-6.223-0.381-6.223-0.851c0-0.47 2.786-0.851 6.223-0.851s6.223 0.381 6.223 0.851z"></path>
<path fill="#afaeae" opacity="0.11427999905169006" d="M18.933 30.699c0 0.447-2.652 0.81-5.923 0.81s-5.923-0.362-5.923-0.81c0-0.447 2.652-0.81 5.923-0.81s5.923 0.362 5.923 0.81z"></path>
<path fill="#aaa8a9" opacity="0.12380000537335878" d="M18.634 30.699c0 0.424-2.518 0.769-5.624 0.769s-5.624-0.344-5.624-0.769c0-0.424 2.518-0.769 5.624-0.769s5.624 0.344 5.624 0.769z"></path>
<path fill="#a5a3a4" opacity="0.13334000309318306" d="M18.335 30.699c0 0.402-2.384 0.728-5.324 0.728s-5.324-0.326-5.324-0.728c0-0.402 2.384-0.728 5.324-0.728s5.324 0.326 5.324 0.728z"></path>
<path fill="#a09f9f" opacity="0.14285999749392264" d="M18.035 30.699c0 0.379-2.25 0.687-5.025 0.687s-5.025-0.308-5.025-0.687c0-0.379 2.25-0.687 5.025-0.687s5.025 0.308 5.025 0.687z"></path>
<path fill="#9b9a9a" opacity="0.15238000381559136" d="M17.736 30.699c0 0.357-2.116 0.646-4.726 0.646s-4.726-0.289-4.726-0.646c0-0.357 2.116-0.646 4.726-0.646s4.726 0.289 4.726 0.646z"></path>
<path fill="#969595" opacity="0.16189999821633094" d="M17.436 30.699c0 0.334-1.982 0.605-4.426 0.605s-4.426-0.271-4.426-0.605c0-0.334 1.982-0.605 4.426-0.605s4.426 0.271 4.426 0.605z"></path>
<path fill="#919191" opacity="0.17142000453799966" d="M17.137 30.699c0 0.311-1.848 0.564-4.127 0.564s-4.127-0.253-4.127-0.564c0-0.311 1.848-0.564 4.127-0.564s4.127 0.253 4.127 0.564z"></path>
<path fill="#8d8c8c" opacity="0.18096000225782394" d="M16.837 30.699c0 0.289-1.713 0.523-3.827 0.523s-3.827-0.234-3.827-0.523c0-0.289 1.713-0.523 3.827-0.523s3.827 0.234 3.827 0.523z"></path>
<path fill="#888" opacity="0.19048000857949265" d="M16.538 30.699c0 0.266-1.579 0.482-3.528 0.482s-3.528-0.216-3.528-0.482c0-0.266 1.579-0.482 3.528-0.482s3.528 0.216 3.528 0.482z"></path>
<path fill="#848484" opacity="0.20000000298023224" d="M16.239 30.699c0 0.244-1.445 0.441-3.228 0.441s-3.228-0.198-3.228-0.441c0-0.244 1.445-0.441 3.228-0.441s3.228 0.198 3.228 0.441z"></path>
<path fill="#339b91" d="M17.807 10.855h-1.121v-4.225c0-0.61-0.495-1.105-1.106-1.105h-4.159c-0.611 0-1.106 0.495-1.106 1.105v4.225h-1.12c-0.611 0-1.106 0.495-1.106 1.105v7.637c0 0.61 0.495 1.105 1.106 1.105h8.612c0.61 0 1.105-0.495 1.105-1.105v-7.637c0-0.61-0.495-1.105-1.105-1.105zM11.128 7.249c0-0.449 0.369-0.814 0.823-0.814h3.099c0.454 0 0.823 0.365 0.823 0.814v3.606h-4.745v-3.606z"></path>
<path fill="#28817c" d="M17.391 10.439h-1.121v-4.225c0-0.61-0.495-1.105-1.106-1.105h-4.159c-0.611 0-1.106 0.495-1.106 1.105v4.225h-1.12c-0.611 0-1.106 0.495-1.106 1.105v7.637c0 0.61 0.495 1.105 1.106 1.105h8.612c0.61 0 1.105-0.495 1.105-1.105v-7.637c0-0.61-0.495-1.105-1.105-1.105zM10.712 6.833c0-0.449 0.369-0.814 0.823-0.814h3.099c0.454 0 0.823 0.365 0.823 0.814v3.606h-4.745v-3.606z"></path>
<path fill="#fff" d="M9.899 10.439h6.428v9.848h-6.428v-9.848z"></path>
<path fill="#d8dad8" d="M13.995 14.613c0-0.503-0.408-0.91-0.91-0.91s-0.91 0.408-0.91 0.91c0 0.338 0.193 0.621 0.465 0.778l-0.465 1.634h1.821l-0.466-1.634c0.273-0.157 0.466-0.439 0.466-0.778z"></path>
</svg>
