<?xml version="1.0" encoding="utf-8"?>
<!-- Generated by IcoMoon.io -->
<!DOCTYPE svg PUBLIC "-//W3C//DTD SVG 1.1//EN" "http://www.w3.org/Graphics/SVG/1.1/DTD/svg11.dtd">
<svg version="1.1" xmlns="http://www.w3.org/2000/svg" xmlns:xlink="http://www.w3.org/1999/xlink" width="27" height="32" viewBox="0 0 27 32">
<path fill="#ae5744" d="M18.543 1.007c6.871 2.814 10.16 10.665 7.346 17.537s-10.665 10.16-17.537 7.346c-6.871-2.814-10.16-10.665-7.346-17.537s10.665-10.16 17.537-7.346z"></path>
<path fill="#9c4336" d="M16.454 5.711l1.263 0.427 9.12 7.901c0.161 4.087-3.818 13.39-14.681 12.799l-6.722-5.915 0.021-0.28 2.72-10.153 2.439-4.269 5.839-0.51z"></path>
<path fill="#f1f0f0" opacity="0.00952000036120415" d="M22.974 30.656c0 0.719-4.265 1.302-9.527 1.302s-9.527-0.583-9.527-1.302c0-0.719 4.265-1.302 9.527-1.302s9.527 0.583 9.527 1.302z"></path>
<path fill="#eae9e9" opacity="0.0190400007224083" d="M22.665 30.656c0 0.696-4.127 1.26-9.217 1.26s-9.217-0.564-9.217-1.26c0-0.696 4.127-1.26 9.217-1.26s9.217 0.564 9.217 1.26z"></path>
<path fill="#e3e2e2" opacity="0.028580001422464862" d="M22.355 30.656c0 0.672-3.988 1.218-8.908 1.218s-8.908-0.545-8.908-1.218c0-0.672 3.988-1.218 8.908-1.218s8.908 0.545 8.908 1.218z"></path>
<path fill="#dcdbdc" opacity="0.03810000178366901" d="M22.046 30.656c0 0.649-3.85 1.175-8.598 1.175s-8.598-0.526-8.598-1.175c0-0.649 3.85-1.175 8.598-1.175s8.598 0.526 8.598 1.175z"></path>
<path fill="#d6d5d5" opacity="0.047620002144873164" d="M21.737 30.656c0 0.626-3.711 1.133-8.289 1.133s-8.289-0.507-8.289-1.133c0-0.626 3.711-1.133 8.289-1.133s8.289 0.507 8.289 1.133z"></path>
<path fill="#d0cfcf" opacity="0.05713999952584503" d="M21.427 30.656c0 0.602-3.573 1.091-7.979 1.091s-7.979-0.488-7.979-1.091c0-0.602 3.572-1.091 7.979-1.091s7.979 0.488 7.979 1.091z"></path>
<path fill="#cac9c9" opacity="0.06665999988704918" d="M21.118 30.656c0 0.579-3.434 1.048-7.67 1.048s-7.67-0.469-7.67-1.048c0-0.579 3.434-1.048 7.67-1.048s7.67 0.469 7.67 1.048z"></path>
<path fill="#c5c3c3" opacity="0.07620000356733803" d="M20.808 30.656c0 0.556-3.295 1.006-7.36 1.006s-7.36-0.45-7.36-1.006c0-0.556 3.295-1.006 7.36-1.006s7.36 0.45 7.36 1.006z"></path>
<path fill="#bfbebe" opacity="0.08572000392854218" d="M20.499 30.656c0 0.532-3.157 0.964-7.051 0.964s-7.051-0.431-7.051-0.964c0-0.532 3.157-0.964 7.051-0.964s7.051 0.431 7.051 0.964z"></path>
<path fill="#bab8b8" opacity="0.09524000428974633" d="M20.189 30.656c0 0.509-3.018 0.921-6.741 0.921s-6.741-0.413-6.741-0.921c0-0.509 3.018-0.921 6.741-0.921s6.741 0.413 6.741 0.921z"></path>
<path fill="#b4b3b3" opacity="0.10476000465095048" d="M19.88 30.656c0 0.485-2.88 0.879-6.432 0.879s-6.432-0.394-6.432-0.879c0-0.485 2.88-0.879 6.432-0.879s6.432 0.394 6.432 0.879z"></path>
<path fill="#afaeae" opacity="0.11427999905169006" d="M19.57 30.656c0 0.462-2.741 0.837-6.122 0.837s-6.122-0.375-6.122-0.837c0-0.462 2.741-0.837 6.122-0.837s6.122 0.375 6.122 0.837z"></path>
<path fill="#aaa8a9" opacity="0.12380000537335878" d="M19.261 30.656c0 0.439-2.602 0.794-5.813 0.794s-5.813-0.356-5.813-0.794c0-0.439 2.603-0.794 5.813-0.794s5.813 0.356 5.813 0.794z"></path>
<path fill="#a5a3a4" opacity="0.13334000309318306" d="M18.951 30.656c0 0.415-2.464 0.752-5.503 0.752s-5.503-0.337-5.503-0.752c0-0.415 2.464-0.752 5.503-0.752s5.503 0.337 5.503 0.752z"></path>
<path fill="#a09f9f" opacity="0.14285999749392264" d="M18.642 30.656c0 0.392-2.325 0.71-5.194 0.71s-5.194-0.318-5.194-0.71c0-0.392 2.325-0.71 5.194-0.71s5.194 0.318 5.194 0.71z"></path>
<path fill="#9b9a9a" opacity="0.15238000381559136" d="M18.332 30.656c0 0.369-2.187 0.668-4.884 0.668s-4.884-0.299-4.884-0.668c0-0.369 2.187-0.668 4.884-0.668s4.884 0.299 4.884 0.668z"></path>
<path fill="#969595" opacity="0.16189999821633094" d="M18.023 30.656c0 0.345-2.048 0.625-4.575 0.625s-4.575-0.28-4.575-0.625c0-0.345 2.048-0.625 4.575-0.625s4.575 0.28 4.575 0.625z"></path>
<path fill="#919191" opacity="0.17142000453799966" d="M17.713 30.656c0 0.322-1.91 0.583-4.265 0.583s-4.265-0.261-4.265-0.583c0-0.322 1.91-0.583 4.265-0.583s4.265 0.261 4.265 0.583z"></path>
<path fill="#8d8c8c" opacity="0.18096000225782394" d="M17.404 30.656c0 0.299-1.771 0.541-3.956 0.541s-3.956-0.242-3.956-0.541c0-0.299 1.771-0.541 3.956-0.541s3.956 0.242 3.956 0.541z"></path>
<path fill="#888" opacity="0.19048000857949265" d="M17.094 30.656c0 0.275-1.633 0.498-3.646 0.498s-3.646-0.223-3.646-0.498c0-0.275 1.633-0.498 3.646-0.498s3.646 0.223 3.646 0.498z"></path>
<path fill="#848484" opacity="0.20000000298023224" d="M16.785 30.656c0 0.252-1.494 0.456-3.337 0.456s-3.337-0.204-3.337-0.456c0-0.252 1.494-0.456 3.337-0.456s3.337 0.204 3.337 0.456z"></path>
<path fill="#339b91" d="M22.032 20.947h0.003v-8.46c0-0.002 0-0.003 0-0.005s-0-0.003-0-0.005v-0.016h-0.001c-0.014-0.665-0.68-1.202-1.503-1.202-0.324 0-0.622 0.084-0.868 0.226v-0.263c0.013-0.154 0.025-0.309 0.025-0.467 0-2.992-1.577-5.322-4.738-5.465-0.014-0-0.479-0.037-0.957-0.037s-0.97 0.037-0.984 0.037c-3.193 0.088-4.82 2.447-4.82 5.465 0 0.157 0.011 0.312 0.024 0.467v0.172c-0.244-0.138-0.54-0.22-0.86-0.22-0.829 0-1.502 0.547-1.503 1.222h-0v8.485h0.004c-0.001 0.011-0.004 0.021-0.004 0.032 0 0.015 0.003 0.029 0.005 0.044-0.002 0.020-0.005 0.041-0.005 0.062 0 0.525 0.673 0.951 1.503 0.951s1.504-0.426 1.504-0.951c0-0.021-0.003-0.041-0.005-0.062 0.002-0.015 0.005-0.029 0.005-0.044 0-0.011-0.002-0.021-0.004-0.032h0.003v-1.632c0.956 0.461 2.875 0.767 5.089 0.767 2.219 0 4.133-0.3 5.080-0.759v1.69h0.004c-0.001 0.011-0.004 0.021-0.004 0.032 0 0.015 0.003 0.029 0.005 0.043-0.002 0.020-0.005 0.041-0.005 0.061 0 0.526 0.674 0.952 1.504 0.952 0.832 0 1.504-0.426 1.504-0.952 0-0.021-0.003-0.041-0.005-0.061 0.002-0.014 0.005-0.029 0.005-0.043 0-0.011-0.002-0.021-0.003-0.032z"></path>
<path fill="#7d2720" d="M5.42 20.588c0-0.527 0.673-0.953 1.503-0.953s1.504 0.426 1.504 0.953c0 0.525-0.673 0.951-1.504 0.951s-1.503-0.426-1.503-0.951z"></path>
<path fill="#676767" d="M19.257 10.325c0-2.992-1.577-5.322-4.738-5.465-0.014-0-0.479-0.037-0.957-0.037s-0.969 0.037-0.983 0.037c-3.193 0.088-4.821 2.447-4.821 5.465 0 0.157 0.011 0.312 0.025 0.467v7.573h11.45v-7.573c0.013-0.154 0.024-0.309 0.024-0.467z"></path>
<path fill="#dddedd" d="M19.257 12.874c0-2.997-1.635-5.318-4.796-5.498-0.012-0.001-0.517-0.056-1.001-0.056-0.468 0-0.859 0.042-0.87 0.042-3.161 0.125-4.832 2.494-4.832 5.512 0 0.157 0.011 0.312 0.025 0.466v4.891h11.45v-4.891c0.013-0.153 0.024-0.309 0.024-0.466z"></path>
<path fill="#eeeeed" d="M18.597 20.653c0-0.526 0.674-0.952 1.504-0.952 0.832 0 1.504 0.426 1.504 0.952s-0.673 0.952-1.504 0.952c-0.83-0-1.504-0.426-1.504-0.952z"></path>
<path fill="#676767" d="M8.427 11.974c0-0.003 0-0.005 0-0.008 0-0.676-0.673-1.224-1.504-1.224-0.829 0-1.502 0.547-1.503 1.222h-0v8.485h0.004c-0.001 0.011-0.004 0.021-0.004 0.032 0 0.374 0.673 0.677 1.503 0.677s1.504-0.302 1.504-0.677c0-0.011-0.002-0.021-0.004-0.032h0.003v-8.476z"></path>
<path fill="#afb2b2" d="M21.605 20.517v-8.46c0-0.002 0-0.003 0-0.005s-0-0.003-0-0.005v-0.016h-0.001c-0.014-0.665-0.68-1.202-1.503-1.202-0.822 0-1.489 0.537-1.502 1.202h-0.001v8.486h0.004c-0.001 0.011-0.004 0.021-0.004 0.032 0 0.374 0.674 0.678 1.504 0.678 0.832 0 1.504-0.304 1.504-0.678 0-0.011-0.002-0.021-0.004-0.032h0.003z"></path>
<path fill="#afb2b2" d="M13.551 14.528c-3.014 0-5.494 0.519-5.77 1.749v1.278h0.001c0.097 1.052 2.625 1.855 5.732 1.855 3.127 0 5.653-0.794 5.717-1.855v0-1.278c-0.313-1.207-2.699-1.749-5.68-1.749z"></path>
<path fill="#dddedd" d="M19.233 17.236c-0.312-0.906-2.699-1.312-5.68-1.312-3.014 0-5.499 0.392-5.776 1.315v0 0.178l0.006 0.73v0.047h0.001c0.097 0.789 2.625 1.391 5.732 1.391 3.127 0 5.652-0.595 5.716-1.391v0-0.958h0z"></path>
</svg>
