<?xml version="1.0" encoding="utf-8"?>
<!-- Generated by IcoMoon.io -->
<!DOCTYPE svg PUBLIC "-//W3C//DTD SVG 1.1//EN" "http://www.w3.org/Graphics/SVG/1.1/DTD/svg11.dtd">
<svg version="1.1" xmlns="http://www.w3.org/2000/svg" xmlns:xlink="http://www.w3.org/1999/xlink" width="27" height="32" viewBox="0 0 27 32">
<path fill="#10bab5" d="M18.543 1.007c6.871 2.814 10.16 10.665 7.346 17.537s-10.665 10.16-17.537 7.346c-6.871-2.814-10.16-10.665-7.346-17.537s10.665-10.16 17.537-7.346z"></path>
<path fill="#2aada7" opacity="0.800000011920929" d="M9.898 14.684l-0.338 1.742-2.889 4.711 2.635 2.097 3.363 2.689 1.423 0.914c5.378-0.215 13.121-4.571 12.745-14.358l-3.173-2.366-8.443-5.915z"></path>
<path fill="#f1f0f0" opacity="0.00952000036120415" d="M22.974 30.656c0 0.719-4.265 1.302-9.527 1.302s-9.527-0.583-9.527-1.302c0-0.719 4.265-1.302 9.527-1.302s9.527 0.583 9.527 1.302z"></path>
<path fill="#eae9e9" opacity="0.0190400007224083" d="M22.665 30.656c0 0.696-4.127 1.26-9.217 1.26s-9.217-0.564-9.217-1.26c0-0.696 4.127-1.26 9.217-1.26s9.217 0.564 9.217 1.26z"></path>
<path fill="#e3e2e2" opacity="0.028580001422464862" d="M22.355 30.656c0 0.672-3.988 1.218-8.908 1.218s-8.908-0.545-8.908-1.218c0-0.672 3.988-1.218 8.908-1.218s8.908 0.545 8.908 1.218z"></path>
<path fill="#dcdbdc" opacity="0.03810000178366901" d="M22.046 30.656c0 0.649-3.85 1.175-8.598 1.175s-8.598-0.526-8.598-1.175c0-0.649 3.85-1.175 8.598-1.175s8.598 0.526 8.598 1.175z"></path>
<path fill="#d6d5d5" opacity="0.047620002144873164" d="M21.736 30.656c0 0.626-3.711 1.133-8.289 1.133s-8.289-0.507-8.289-1.133c0-0.626 3.711-1.133 8.289-1.133s8.289 0.507 8.289 1.133z"></path>
<path fill="#d0cfcf" opacity="0.05713999952584503" d="M21.427 30.656c0 0.602-3.573 1.091-7.979 1.091s-7.979-0.488-7.979-1.091c0-0.602 3.573-1.091 7.979-1.091s7.979 0.488 7.979 1.091z"></path>
<path fill="#cac9c9" opacity="0.06665999988704918" d="M21.118 30.656c0 0.579-3.434 1.048-7.67 1.048s-7.67-0.469-7.67-1.048c0-0.579 3.434-1.048 7.67-1.048s7.67 0.469 7.67 1.048z"></path>
<path fill="#c5c3c3" opacity="0.07620000356733803" d="M20.808 30.656c0 0.556-3.295 1.006-7.36 1.006s-7.36-0.45-7.36-1.006c0-0.556 3.295-1.006 7.36-1.006s7.36 0.45 7.36 1.006z"></path>
<path fill="#bfbebe" opacity="0.08572000392854218" d="M20.499 30.656c0 0.532-3.157 0.964-7.051 0.964s-7.051-0.431-7.051-0.964c0-0.532 3.157-0.964 7.051-0.964s7.051 0.431 7.051 0.964z"></path>
<path fill="#bab8b8" opacity="0.09524000428974633" d="M20.189 30.656c0 0.509-3.018 0.921-6.741 0.921s-6.741-0.413-6.741-0.921c0-0.509 3.018-0.921 6.741-0.921s6.741 0.413 6.741 0.921z"></path>
<path fill="#b4b3b3" opacity="0.10476000465095048" d="M19.88 30.656c0 0.485-2.88 0.879-6.432 0.879s-6.432-0.394-6.432-0.879c0-0.485 2.88-0.879 6.432-0.879s6.432 0.394 6.432 0.879z"></path>
<path fill="#afaeae" opacity="0.11427999905169006" d="M19.57 30.656c0 0.462-2.741 0.837-6.122 0.837s-6.122-0.375-6.122-0.837c0-0.462 2.741-0.837 6.122-0.837s6.122 0.375 6.122 0.837z"></path>
<path fill="#aaa8a9" opacity="0.12380000537335878" d="M19.261 30.656c0 0.439-2.603 0.794-5.813 0.794s-5.813-0.356-5.813-0.794c0-0.439 2.603-0.794 5.813-0.794s5.813 0.356 5.813 0.794z"></path>
<path fill="#a5a3a4" opacity="0.13334000309318306" d="M18.951 30.656c0 0.415-2.464 0.752-5.503 0.752s-5.503-0.337-5.503-0.752c0-0.415 2.464-0.752 5.503-0.752s5.503 0.337 5.503 0.752z"></path>
<path fill="#a09f9f" opacity="0.14285999749392264" d="M18.642 30.656c0 0.392-2.325 0.71-5.194 0.71s-5.194-0.318-5.194-0.71c0-0.392 2.325-0.71 5.194-0.71s5.194 0.318 5.194 0.71z"></path>
<path fill="#9b9a9a" opacity="0.15238000381559136" d="M18.332 30.656c0 0.369-2.187 0.668-4.884 0.668s-4.884-0.299-4.884-0.668c0-0.369 2.187-0.668 4.884-0.668s4.884 0.299 4.884 0.668z"></path>
<path fill="#969595" opacity="0.16189999821633094" d="M18.023 30.656c0 0.345-2.048 0.625-4.575 0.625s-4.575-0.28-4.575-0.625c0-0.345 2.048-0.625 4.575-0.625s4.575 0.28 4.575 0.625z"></path>
<path fill="#919191" opacity="0.17142000453799966" d="M17.713 30.656c0 0.322-1.91 0.583-4.265 0.583s-4.265-0.261-4.265-0.583c0-0.322 1.91-0.583 4.265-0.583s4.265 0.261 4.265 0.583z"></path>
<path fill="#8d8c8c" opacity="0.18096000225782394" d="M17.404 30.656c0 0.299-1.771 0.541-3.956 0.541s-3.956-0.242-3.956-0.541c0-0.299 1.771-0.541 3.956-0.541s3.956 0.242 3.956 0.541z"></path>
<path fill="#888" opacity="0.19048000857949265" d="M17.094 30.656c0 0.275-1.633 0.498-3.646 0.498s-3.646-0.223-3.646-0.498c0-0.275 1.633-0.498 3.646-0.498s3.646 0.223 3.646 0.498z"></path>
<path fill="#848484" opacity="0.20000000298023224" d="M16.785 30.656c0 0.252-1.494 0.456-3.337 0.456s-3.337-0.204-3.337-0.456c0-0.252 1.494-0.456 3.337-0.456s3.337 0.204 3.337 0.456z"></path>
<path fill="#b7a575" d="M8.844 12.922c0 0 3.155-1.829 3.991-3.919 0.871-2.177 0.508-3.338 0.943-4.064s1.814-0.798 2.177-0.145 0.871 1.161 0.145 4.934c0 0 1.085 1.497 4.28 1.161 1.379-0.145 2.541 2.395 0.8 3.266 0 0 1.669 1.596-0.219 2.539 0 0 1.017 1.815-1.306 2.104 0 0 1.017 2.032-1.958 1.814 0 0-6.303-0.845-7.682-0.264l-1.171-7.427z"></path>
<path fill="#feebb4" d="M8.383 12.603c0 0 3.155-1.829 3.991-3.918 0.871-2.177 0.508-3.338 0.943-4.064s1.814-0.798 2.177-0.145c0.363 0.653 0.871 1.161 0.145 4.934 0 0 1.085 1.497 4.28 1.161 1.379-0.145 2.541 2.395 0.799 3.266 0 0 1.669 1.597-0.219 2.539 0 0 1.017 1.815-1.306 2.104 0 0 1.017 2.032-1.958 1.815 0 0-5.588-0.871-6.966-0.29l-1.887-7.402z"></path>
<path fill="#ae544c" d="M10.098 19.004c0.18 1.019-0.401 1.973-1.296 2.131l-1.081 0.191c-0.896 0.158-1.768-0.54-1.947-1.558l-0.999-5.657c-0.179-1.019 0.401-1.973 1.296-2.131l1.081-0.191c0.896-0.158 1.767 0.54 1.947 1.559l0.999 5.657z"></path>
<path fill="#cd7664" d="M10.62 18.858c0.18 1.019-0.401 1.973-1.296 2.131l-1.081 0.191c-0.896 0.158-1.767-0.54-1.947-1.558l-0.999-5.657c-0.179-1.019 0.401-1.973 1.296-2.131l1.081-0.191c0.896-0.158 1.767 0.54 1.947 1.559l0.998 5.657z"></path>
</svg>
