<?xml version="1.0" encoding="utf-8"?>
<!-- Generated by IcoMoon.io -->
<!DOCTYPE svg PUBLIC "-//W3C//DTD SVG 1.1//EN" "http://www.w3.org/Graphics/SVG/1.1/DTD/svg11.dtd">
<svg version="1.1" xmlns="http://www.w3.org/2000/svg" xmlns:xlink="http://www.w3.org/1999/xlink" width="26" height="32" viewBox="0 0 26 32">
<path fill="#1bb3b3" d="M17.939 0.974c6.648 2.722 9.83 10.318 7.107 16.966s-10.318 9.83-16.966 7.107c-6.648-2.722-9.83-10.318-7.107-16.966s10.318-9.83 16.966-7.107z"></path>
<path fill="#29a9a6" opacity="0.8" d="M13.57 18.646l-4.457 3.671 2.138 2.397 1.128 1.298c7.453 0.257 10.911-4.814 11.683-6.144l-3.452-3.607-5.909-6.669z"></path>
<path fill="#19a29b" opacity="0.6" d="M11.82 7.458l10.727 11.668 1.128 1.298c1.119-1.535 1.548-2.744 2.005-4.469l-3.404-3.62-7.576-8.023z"></path>
<path fill="#f7f6f7" opacity="0.00952" d="M22.227 30.699c0 0.696-4.127 1.26-9.217 1.26s-9.217-0.564-9.217-1.26c0-0.696 4.127-1.26 9.217-1.26s9.217 0.564 9.217 1.26z"></path>
<path fill="#f1f0f1" opacity="0.01904" d="M21.928 30.699c0 0.673-3.992 1.219-8.917 1.219s-8.917-0.546-8.917-1.219c0-0.673 3.992-1.219 8.917-1.219s8.917 0.546 8.917 1.219z"></path>
<path fill="#ebeaeb" opacity="0.02858" d="M21.628 30.699c0 0.651-3.858 1.178-8.618 1.178s-8.618-0.527-8.618-1.178c0-0.651 3.858-1.178 8.618-1.178s8.618 0.527 8.618 1.178z"></path>
<path fill="#e6e4e5" opacity="0.0381" d="M21.329 30.699c0 0.628-3.724 1.137-8.319 1.137s-8.319-0.509-8.319-1.137c0-0.628 3.724-1.137 8.319-1.137s8.319 0.509 8.319 1.137z"></path>
<path fill="#e0dedf" opacity="0.04762" d="M21.029 30.699c0 0.605-3.59 1.096-8.019 1.096s-8.019-0.491-8.019-1.096c0-0.605 3.59-1.096 8.019-1.096s8.019 0.491 8.019 1.096z"></path>
<path fill="#dbd9d9" opacity="0.05714" d="M20.73 30.699c0 0.583-3.456 1.055-7.72 1.055s-7.72-0.472-7.72-1.055c0-0.583 3.456-1.055 7.72-1.055s7.72 0.472 7.72 1.055z"></path>
<path fill="#d6d3d3" opacity="0.06666" d="M20.43 30.699c0 0.56-3.322 1.014-7.42 1.014s-7.42-0.454-7.42-1.014c0-0.56 3.322-1.014 7.42-1.014s7.42 0.454 7.42 1.014z"></path>
<path fill="#d0cdcd" opacity="0.0762" d="M20.131 30.699c0 0.538-3.188 0.973-7.121 0.973s-7.121-0.436-7.121-0.973c0-0.538 3.188-0.973 7.121-0.973s7.121 0.436 7.121 0.973z"></path>
<path fill="#cbc8c8" opacity="0.08572" d="M19.832 30.699c0 0.515-3.054 0.932-6.821 0.932s-6.821-0.417-6.821-0.932c0-0.515 3.054-0.932 6.821-0.932s6.821 0.417 6.821 0.932z"></path>
<path fill="#c6c2c2" opacity="0.09524" d="M19.532 30.699c0 0.492-2.92 0.891-6.522 0.891s-6.522-0.399-6.522-0.891c0-0.492 2.92-0.891 6.522-0.891s6.522 0.399 6.522 0.891z"></path>
<path fill="#c1bdbc" opacity="0.10476000000000002" d="M19.233 30.699c0 0.47-2.786 0.851-6.223 0.851s-6.223-0.381-6.223-0.851c0-0.47 2.786-0.851 6.223-0.851s6.223 0.381 6.223 0.851z"></path>
<path fill="#bbb7b7" opacity="0.11428" d="M18.933 30.699c0 0.447-2.652 0.81-5.923 0.81s-5.923-0.362-5.923-0.81c0-0.447 2.652-0.81 5.923-0.81s5.923 0.362 5.923 0.81z"></path>
<path fill="#b6b2b1" opacity="0.12380000000000001" d="M18.634 30.699c0 0.424-2.518 0.769-5.624 0.769s-5.624-0.344-5.624-0.769c0-0.424 2.518-0.769 5.624-0.769s5.624 0.344 5.624 0.769z"></path>
<path fill="#b1acac" opacity="0.13334" d="M18.334 30.699c0 0.402-2.384 0.728-5.324 0.728s-5.324-0.326-5.324-0.728c0-0.402 2.384-0.728 5.324-0.728s5.324 0.326 5.324 0.728z"></path>
<path fill="#aba7a6" opacity="0.14286000000000001" d="M18.035 30.699c0 0.379-2.25 0.687-5.025 0.687s-5.025-0.308-5.025-0.687c0-0.379 2.25-0.687 5.025-0.687s5.025 0.308 5.025 0.687z"></path>
<path fill="#a6a2a1" opacity="0.15238000000000002" d="M17.736 30.699c0 0.357-2.116 0.646-4.726 0.646s-4.726-0.289-4.726-0.646c0-0.357 2.116-0.646 4.726-0.646s4.726 0.289 4.726 0.646z"></path>
<path fill="#a19d9c" opacity="0.16190000000000002" d="M17.436 30.699c0 0.334-1.982 0.605-4.426 0.605s-4.426-0.271-4.426-0.605c0-0.334 1.982-0.605 4.426-0.605s4.426 0.271 4.426 0.605z"></path>
<path fill="#9b9896" opacity="0.17142000000000002" d="M17.137 30.699c0 0.311-1.848 0.564-4.127 0.564s-4.127-0.253-4.127-0.564c0-0.311 1.848-0.564 4.127-0.564s4.127 0.253 4.127 0.564z"></path>
<path fill="#969291" opacity="0.18096" d="M16.837 30.699c0 0.289-1.714 0.523-3.827 0.523s-3.827-0.234-3.827-0.523c0-0.289 1.714-0.523 3.827-0.523s3.827 0.234 3.827 0.523z"></path>
<path fill="#918e8c" opacity="0.19048" d="M16.538 30.699c0 0.266-1.579 0.482-3.528 0.482s-3.528-0.216-3.528-0.482c0-0.266 1.579-0.482 3.528-0.482s3.528 0.216 3.528 0.482z"></path>
<path fill="#8c8987" opacity="0.2" d="M16.239 30.699c0 0.244-1.445 0.441-3.228 0.441s-3.228-0.198-3.228-0.441c0-0.244 1.445-0.441 3.228-0.441s3.228 0.198 3.228 0.441z"></path>
<path fill="#257f7c" d="M17.422 22.727h-7.899l0-2.382h2.415l-0-7.947h-1.983c-0.309 0-0.36-0.077-0.36-0.361l-0-1.674c0-0.284 0.052-0.361 0.361-0.361l4.893-0c0.309 0 0.361 0.077 0.361 0.36l0 9.982h2.213v2.382z"></path>
<path fill="#fff" d="M17.012 22.317h-7.899l0-2.382h2.415l-0-7.947h-1.983c-0.309 0-0.36-0.077-0.36-0.361l-0-1.673c0-0.284 0.052-0.361 0.361-0.361l4.893-0c0.309 0 0.361 0.077 0.361 0.361l0 9.982h2.212v2.382z"></path>
<path fill="#257f7c" d="M15.672 6.204c0 1.173-0.951 2.124-2.124 2.124s-2.124-0.951-2.124-2.124c0-1.173 0.951-2.124 2.124-2.124s2.124 0.951 2.124 2.124z"></path>
<path fill="#fff" d="M15.263 5.795c0 1.173-0.951 2.124-2.124 2.124s-2.124-0.951-2.124-2.124c0-1.173 0.951-2.124 2.124-2.124s2.124 0.951 2.124 2.124z"></path>
</svg>
