<?xml version="1.0" encoding="UTF-8"?>
<svg width="40px" height="40px" viewBox="0 0 40 40" version="1.1" xmlns="http://www.w3.org/2000/svg" xmlns:xlink="http://www.w3.org/1999/xlink">
    <!-- Generator: sketchtool 42 (36781) - http://www.bohemiancoding.com/sketch -->
    <title>B82D52E6-4DB6-4DFB-90E7-0501860A2269</title>
    <desc>Created with sketchtool.</desc>
    <defs></defs>
    <g id="Home" stroke="none" stroke-width="1" fill="none" fill-rule="evenodd">
        <g id="cinemas--Mobile-Portrait" transform="translate(-10.000000, -10.000000)">
            <g id="header">
                <g id="logo" transform="translate(10.000000, 10.000000)">
                    <path d="M34.5575565,11.2352596 L31.562019,0.0330391837 L0.163161905,8.47188 L3.15973333,19.678231 L3.16076735,19.6823616 C5.03853605,20.0675412 6.63505306,21.47608 7.16550204,23.4577412 C7.69491701,25.4394024 7.01557007,27.4603045 5.58242721,28.735631 L5.58346122,28.7407943 L8.58003265,39.9471453 L39.9809578,31.5083045 L36.9843864,20.3081494 C35.0962776,19.9301984 33.4894204,18.517529 32.9579374,16.5276065 C32.4264544,14.5376841 33.1120054,12.5095535 34.5575565,11.2352596" id="Fill-3" fill="#FF7300"></path>
                    <path d="M24.1260136,9.77808286 C24.1249796,12.0788339 22.2947755,13.9427727 20.0375238,13.94174 C17.7792381,13.94174 15.951102,12.0757359 15.951102,9.7749849 C15.9521361,7.47423388 17.7823401,5.6102951 20.0406259,5.6102951 C22.2978776,5.61132776 24.1260136,7.47733184 24.1260136,9.77808286 Z M23.792751,15.7001416 L23.7813769,33.5774314 L18.2039075,33.5753661 C17.0830367,33.5433539 16.2889143,32.676958 16.2889143,31.4542967 L16.2847782,15.6939457 L23.792751,15.7001416 Z" id="Combined-Shape" fill="#FFFFFF"></path>
                </g>
            </g>
        </g>
    </g>
</svg>