<?xml version="1.0" encoding="utf-8"?>
<!-- Generator: Adobe Illustrator 20.1.0, SVG Export Plug-In . SVG Version: 6.00 Build 0)  -->
<svg version="1.1" id="Camada_1" xmlns="http://www.w3.org/2000/svg" xmlns:xlink="http://www.w3.org/1999/xlink" x="0px" y="0px"
	 viewBox="0 0 155 50" style="enable-background:new 0 0 155 50;" xml:space="preserve">
<style type="text/css">
	.st0{fill:#124079;}
	.st1{fill:#585A62;}
	.st2{fill:#85BDCF;}
	.st3{fill:#2AA0BF;}
</style>
<path class="st0" d="M50.6,23.4l2.7-3.2c1.7,1.4,3.6,2.1,5.6,2.1c1.3,0,2-0.4,2-1.2v0c0-0.7-0.6-1.1-2.9-1.7
	c-3.7-0.8-6.6-1.9-6.6-5.5v0c0-3.2,2.6-5.6,6.7-5.6c3,0,5.3,0.8,7.2,2.3L62.9,14c-1.6-1.1-3.3-1.7-4.9-1.7c-1.2,0-1.7,0.5-1.7,1.1v0
	c0,0.8,0.6,1.1,3,1.7c4,0.9,6.5,2.2,6.5,5.4v0c0,3.6-2.8,5.7-7,5.7C55.7,26.3,52.8,25.3,50.6,23.4z"/>
<path class="st0" d="M71.9,12.8h-5.2V8.6h15.2v4.2h-5.2V26h-4.8V12.8z"/>
<path class="st0" d="M87.8,8.4h4.6L99.9,26h-5.2l-1.3-3.1h-6.7L85.5,26h-5.1L87.8,8.4z M92,19.1l-1.9-4.9l-2,4.9H92z"/>
<path class="st0" d="M103.6,12.8h-5.2V8.6h15.2v4.2h-5.2V26h-4.8V12.8z"/>
<path class="st0" d="M115.5,18.3V8.6h4.9v9.7c0,2.5,1.3,3.7,3.2,3.7c1.9,0,3.2-1.1,3.2-3.6V8.6h4.9v9.6c0,5.6-3.2,8.1-8.1,8.1
	S115.5,23.8,115.5,18.3z"/>
<path class="st0" d="M134.5,8.6h5.1l4.1,6.7l4.1-6.7h5.1V26h-4.8V16l-4.4,6.8h-0.1l-4.4-6.8V26h-4.7V8.6z"/>
<path class="st1" d="M52,33.4c-1,0-1.7-0.8-1.7-1.8v0c0-1,0.7-1.8,1.8-1.8c0.6,0,1,0.2,1.4,0.6l-0.2,0.2c-0.3-0.3-0.7-0.5-1.2-0.5
	c-0.8,0-1.5,0.7-1.5,1.6v0c0,0.9,0.6,1.6,1.5,1.6c0.5,0,0.9-0.2,1.2-0.5l0.2,0.2C53.1,33.1,52.7,33.4,52,33.4z"/>
<path class="st1" d="M57.5,33.4c-1.1,0-1.8-0.8-1.8-1.8v0c0-1,0.7-1.8,1.8-1.8c1.1,0,1.8,0.8,1.8,1.8c0,0,0,0,0,0
	C59.2,32.5,58.5,33.4,57.5,33.4z M59,31.6c0-0.9-0.6-1.6-1.5-1.6c-0.9,0-1.5,0.7-1.5,1.6v0c0,0.9,0.6,1.6,1.5,1.6
	C58.3,33.2,59,32.5,59,31.6L59,31.6z"/>
<path class="st1" d="M64.5,33.3l-1.1-1.5h-1.1v1.5h-0.3v-3.5h1.5c0.8,0,1.3,0.4,1.3,1v0c0,0.6-0.4,0.9-1,1l1.2,1.5H64.5z M64.4,30.8
	c0-0.5-0.4-0.8-1-0.8h-1.2v1.6h1.2C64,31.6,64.4,31.3,64.4,30.8L64.4,30.8z"/>
<path class="st1" d="M69.9,33.3l-1.1-1.5h-1.1v1.5h-0.3v-3.5h1.5c0.8,0,1.3,0.4,1.3,1v0c0,0.6-0.4,0.9-1,1l1.2,1.5H69.9z M69.8,30.8
	c0-0.5-0.4-0.8-1-0.8h-1.2v1.6h1.2C69.4,31.6,69.8,31.3,69.8,30.8L69.8,30.8z"/>
<path class="st1" d="M72.8,33.3v-3.5h2.5v0.2h-2.2v1.4h2v0.2h-2v1.4h2.3v0.2H72.8z"/>
<path class="st1" d="M79.2,30.1v3.3h-0.3v-3.3h-1.2v-0.2h2.7v0.2H79.2z"/>
<path class="st1" d="M84.3,33.4c-1.1,0-1.8-0.8-1.8-1.8v0c0-1,0.7-1.8,1.8-1.8c1.1,0,1.8,0.8,1.8,1.8c0,0,0,0,0,0
	C86.1,32.5,85.4,33.4,84.3,33.4z M85.8,31.6c0-0.9-0.6-1.6-1.5-1.6c-0.9,0-1.5,0.7-1.5,1.6v0c0,0.9,0.6,1.6,1.5,1.6
	C85.2,33.2,85.8,32.5,85.8,31.6L85.8,31.6z"/>
<path class="st1" d="M91.3,33.3l-1.1-1.5h-1.1v1.5h-0.3v-3.5h1.5c0.8,0,1.3,0.4,1.3,1v0c0,0.6-0.4,0.9-1,1l1.2,1.5H91.3z M91.3,30.8
	c0-0.5-0.4-0.8-1-0.8h-1.2v1.6h1.2C90.8,31.6,91.3,31.3,91.3,30.8L91.3,30.8z"/>
<path class="st1" d="M97.2,33.3l-0.4-1h-2.1l-0.4,1h-0.3l1.6-3.5h0.3l1.6,3.5H97.2z M95.7,30.1l-0.9,2h1.8L95.7,30.1z"/>
<path class="st1" d="M104.5,33.3h-1.2v-3.5h1.2c1.1,0,1.9,0.8,1.9,1.7v0C106.4,32.6,105.6,33.3,104.5,33.3z M106.1,31.6
	c0-0.8-0.6-1.5-1.6-1.5h-0.9v3h0.9C105.5,33.1,106.1,32.4,106.1,31.6L106.1,31.6z"/>
<path class="st1" d="M109.1,33.3v-3.5h2.5v0.2h-2.2v1.4h2v0.2h-2v1.4h2.3v0.2H109.1z"/>
<path class="st1" d="M118.7,33.4c-0.6,0-1-0.2-1.4-0.6l0.2-0.2c0.4,0.4,0.7,0.5,1.3,0.5c0.5,0,0.9-0.3,0.9-0.7v0
	c0-0.4-0.2-0.6-1-0.7c-0.8-0.2-1.2-0.5-1.2-1v0c0-0.5,0.5-0.9,1.1-0.9c0.5,0,0.8,0.1,1.2,0.4l-0.2,0.2c-0.3-0.3-0.7-0.4-1-0.4
	c-0.5,0-0.9,0.3-0.9,0.7v0c0,0.4,0.2,0.6,1,0.8c0.8,0.2,1.2,0.5,1.2,1v0C119.9,33,119.4,33.4,118.7,33.4z"/>
<path class="st1" d="M122.5,33.3v-3.5h2.5v0.2h-2.2v1.4h2v0.2h-2v1.4h2.3v0.2H122.5z"/>
<path class="st1" d="M129.3,33.4c-1.1,0-1.8-0.8-1.8-1.8v0c0-0.9,0.7-1.8,1.7-1.8c0.6,0,0.9,0.2,1.3,0.5l-0.2,0.2
	c-0.3-0.2-0.6-0.4-1.1-0.4c-0.9,0-1.4,0.7-1.4,1.6v0c0,0.9,0.6,1.6,1.5,1.6c0.4,0,0.9-0.2,1.1-0.4v-1h-1.2v-0.2h1.4v1.4
	C130.4,33.1,129.9,33.4,129.3,33.4z"/>
<path class="st1" d="M134.8,33.4c-0.8,0-1.4-0.5-1.4-1.5v-2.1h0.3v2c0,0.8,0.4,1.3,1.2,1.3c0.7,0,1.2-0.4,1.2-1.3v-2.1h0.3v2
	C136.3,32.9,135.7,33.4,134.8,33.4z"/>
<path class="st1" d="M141.6,33.3l-1.1-1.5h-1.1v1.5h-0.3v-3.5h1.5c0.8,0,1.3,0.4,1.3,1v0c0,0.6-0.4,0.9-1,1l1.2,1.5H141.6z
	 M141.5,30.8c0-0.5-0.4-0.8-1-0.8h-1.2v1.6h1.2C141.1,31.6,141.5,31.3,141.5,30.8L141.5,30.8z"/>
<path class="st1" d="M146.1,33.4c-1.1,0-1.8-0.8-1.8-1.8v0c0-1,0.7-1.8,1.8-1.8c1.1,0,1.8,0.8,1.8,1.8c0,0,0,0,0,0
	C147.9,32.5,147.2,33.4,146.1,33.4z M147.6,31.6c0-0.9-0.6-1.6-1.5-1.6c-0.9,0-1.5,0.7-1.5,1.6v0c0,0.9,0.6,1.6,1.5,1.6
	C147,33.2,147.6,32.5,147.6,31.6L147.6,31.6z"/>
<path class="st1" d="M151.7,33.4c-0.6,0-1-0.2-1.4-0.6l0.2-0.2c0.4,0.4,0.7,0.5,1.3,0.5c0.5,0,0.9-0.3,0.9-0.7v0
	c0-0.4-0.2-0.6-1-0.7c-0.8-0.2-1.2-0.5-1.2-1v0c0-0.5,0.5-0.9,1.1-0.9c0.5,0,0.8,0.1,1.2,0.4l-0.2,0.2c-0.3-0.3-0.7-0.4-1-0.4
	c-0.5,0-0.9,0.3-0.9,0.7v0c0,0.4,0.2,0.6,1,0.8c0.8,0.2,1.2,0.5,1.2,1v0C152.9,33,152.4,33.4,151.7,33.4z"/>
<g>
	<path class="st2" d="M41.7,33.5v-29c0-1.1-0.9-1.9-1.9-1.9H22.3v28.2l0,0v2.7l0,0V49c0.2,0,0.4,0,0.8-0.1c0,0,15-7.4,18-13.2
		L22.4,16.9v-2.7L41.7,33.5z"/>
</g>
<g>
	<path d="M23.1,48.9c-0.4,0.1-0.6,0.1-0.8,0.1C22.5,49,22.7,48.9,23.1,48.9z"/>
	<path class="st3" d="M23.1,48.9c-0.4,0.1-0.6,0.1-0.8,0.1C22.5,49,22.7,48.9,23.1,48.9z"/>
</g>
<g>
	<path class="st3" d="M22.3,2.6H4.9C3.9,2.6,3,3.5,3,4.5v6.9l19.3,19.3V2.6z"/>
</g>
<g>
	<path class="st3" d="M22.3,33.5L3,14.2v19.7c0,5.8,18.5,15,18.5,15c0.4,0.1,0.6,0.1,0.8,0.1V33.5z"/>
</g>
</svg>
