<?xml version="1.0" encoding="utf-8"?>
<!-- Generator: Adobe Illustrator 20.0.0, SVG Export Plug-In . SVG Version: 6.00 Build 0)  -->
<svg version="1.1" id="Layer_1" xmlns="http://www.w3.org/2000/svg" xmlns:xlink="http://www.w3.org/1999/xlink" x="0px" y="0px"
	 viewBox="0 0 245 147.667" enable-background="new 0 0 245 147.667" xml:space="preserve">
<g>
	<g>
		<path fill="none" d="M94.254,82.389c-1.205,5.442,1.305,12.495,6.473,19.325c0.973-5.697,1.219-12.265,0.663-19.499l14.789-1.122
			c1.061,13.951-0.455,24.517-3.168,32.518c3.383,2.467,7.119,4.7,11.14,6.554l3.092-51.486
			C105.568,68.865,95.842,75.177,94.254,82.389z"/>
		<path fill="#5C2D91" d="M142.939,54.581l3.17-52.722l-14.782-0.878l-3.204,52.892c-9.729-0.005-18.091,1.073-25.072,3.209
			C86.715,62.098,81.37,71.897,79.754,79.199c-2.367,10.799,2.005,23.594,12.014,35.073c0.936,1.072,1.923,2.114,2.936,3.139
			c-1.831,2.479-3.999,4.378-6.481,5.614c-5.225,2.589-11.211,1.604-16.031-2.652c-7.654-6.735-12.85-22.439-4.551-46.314
			l-9.434-9.445l-21.715,7.611l-7.391-60.075l-14.716,1.823l7.781,63.273l-20.78,7.283l4.908,14.012l17.726-6.218l5.502,44.74
			l14.723-1.821l-5.898-47.944l11.509-4.037c-1.528,8.261-1.706,16.036-0.478,23.29c1.744,10.357,6.225,18.982,13.01,24.954
			c5.784,5.107,12.767,7.756,19.741,7.783c4.314,0.019,8.632-0.961,12.695-3.007c2.88-1.431,7.196-4.245,11.222-9.418
			c6.999,4.793,14.824,8.547,22.849,10.861l9.458-6.688l3.708-61.635c3.816,0.354,7.868,0.867,7.825,0.901l2.277-14.647
			C151.826,55.556,147.279,54.981,142.939,54.581z M124.15,120.165c-4.021-1.854-7.757-4.087-11.14-6.554
			c2.713-8.001,4.23-18.568,3.168-32.518l-14.789,1.122c0.556,7.234,0.31,13.803-0.663,19.499
			c-5.168-6.83-7.678-13.883-6.473-19.325c1.589-7.212,11.314-13.524,32.988-13.71L124.15,120.165z"/>
	</g>
	<path fill="#EF4123" d="M226.868,91.165c-5.24-3.751-10.666-7.65-10.853-11.337c-0.405-8.628,14.69-13.177,14.851-13.225
		l-3.988-14.293c-8.766,2.431-22.709,9.788-25.286,22.832c-0.489-2.056-1.041-4.126-1.675-6.209l-14.188,4.322
		c7.194,23.601,2.282,40.869-5.8,47.516c-1.901,1.582-5.729,3.917-9.861,1.733c-6.197-3.296-12.569-16.578-10.062-43.123
		l-14.764-1.407c-2.752,29.138,3.768,50.12,17.884,57.632c3.308,1.733,6.845,2.62,10.366,2.634
		c5.489,0.028,11.027-2.027,15.887-6.026c6.688-5.513,11.483-14.344,13.523-24.867c1.087-5.577,1.391-11.598,0.937-17.896
		c3.362,5.875,9.313,10.136,14.398,13.777c6.608,4.717,10.921,8.096,10.739,11.631c-0.582,11.953-20.276,17.332-20.465,17.383
		l3.588,14.366c1.257-0.299,30.572-7.902,31.698-31.05C244.37,103.702,234.673,96.761,226.868,91.165z"/>
</g>
</svg>
