<?xml version="1.0" encoding="utf-8"?>
<!-- Generator: Adobe Illustrator 20.0.0, SVG Export Plug-In . SVG Version: 6.00 Build 0)  -->
<svg version="1.1" id="Calque_1" xmlns="http://www.w3.org/2000/svg" xmlns:xlink="http://www.w3.org/1999/xlink" x="0px" y="0px"
	 viewBox="0 0 181.667 87.149" enable-background="new 0 0 181.667 87.149" xml:space="preserve">
<g>
	<path fill="none" d="M112.483,39.806c0-1.276-0.976-1.788-1.997-1.788h-3.505v3.808h2.948
		C111.414,41.826,112.483,40.92,112.483,39.806z"/>
	<polygon fill="none" points="148.006,44.703 153.137,44.703 150.56,39.156 	"/>
	<path fill="none" d="M176.743,38.945c1.074,0,1.944-0.87,1.944-1.944c0-1.074-0.87-1.944-1.944-1.944
		c-1.074,0-1.944,0.871-1.944,1.944C174.798,38.075,175.668,38.945,176.743,38.945z M176.807,35.898
		c0.276,0,0.531,0.083,0.744,0.264v0.277c-0.204-0.222-0.449-0.347-0.754-0.347c-0.504,0-0.883,0.43-0.883,0.915
		c0,0.486,0.374,0.925,0.878,0.925c0.306,0,0.592-0.148,0.786-0.384v0.282c-0.217,0.189-0.49,0.296-0.777,0.296
		c-0.633,0-1.095-0.495-1.095-1.119C175.706,36.388,176.178,35.898,176.807,35.898z"/>
	<path fill="#FFFFFF" d="M96.521,28.947c0.578-0.29,1.477,0.141,1.477,0.141s1.739-0.549,0.288-0.505
		c-1.444,0.043-1.46-1.136-2.472-0.919c-1.012,0.216-0.837-0.87-1.573-0.886c-0.545-0.013-1.316-0.269-1.573,0.116
		c-0.42,0.629,0.487-0.267,1.429,0.534c1.333,1.134,1.229,0.361,2.022,1.011C96.633,28.859,96.214,29.1,96.521,28.947z"/>
	<path fill="#FFFFFF" d="M112.078,65.018c2.564-2.615,1.64-3.205,3.413-4.152c1.871-1.002,2.045,0.084,2.671-0.729
		c1.432-1.863,0.929-1.744,1.524-2.93l0.422-0.656c0,0,0.899-0.771,0.578-1.201c-0.321-0.428,0.054-1.072,0.054-1.072H97.326
		l2.608,2.277c0.575,0.23,1.295,0.805,1.626,1.684c0.783,2.072-0.379,0.391-0.379,3.525c0,2.879-0.814,2.414-0.814,2.414
		s-0.174,3.402-1.935,5.496c-1.12,1.125-0.25,2.057-0.25,2.057s-0.378,0.213-0.928,2.682c-0.179,0.801,0.847,2.033,1.733,1.725
		c0.665-0.231-1.615-0.451,0.855-1.492c0.954-0.402,0.175-1.162,0.175-1.162s1.604-0.125,2.506-2.545
		c1.595,0.23,1.003-0.744,4.284-1.453c0.87-0.188,1.054-0.447,0.945-1.264C107.646,67.402,108.825,68.338,112.078,65.018z"/>
	<path fill="#FFFFFF" d="M104.323,30.366c-0.209-0.104-0.364-0.234-0.625-0.208l0.104,0.521
		C104.01,30.679,104.296,30.627,104.323,30.366z"/>
	<path fill="#FFFFFF" d="M99.43,30.158c0.261-0.078,0.469,0.234,0.521,0.417c0.781-0.625,1.666-0.443,2.498-0.625
		c-0.832-0.338-1.535-1.015-2.498-1.041c-1.249,0.025-0.104,0.65-0.832,1.249H99.43z"/>
	<path fill="#FFFFFF" d="M78.84,5.859c-0.146,0.127-0.235,0.245-0.244,0.346c-1.157,0.725-0.759,1.555-1.337,1.747
		c-0.999,0.333-2.089,3.386-2.089,3.386s0.622,0.416-1.319,2.59c-1.6,1.792-2.071,4.501-2.071,4.501s1.056,1.933,0.856,4.162
		c-0.152,1.699-0.224,0.439,0.514,1.669c0.434,0.722,0.903,3.238,1.188,2.258c0.546-1.873-0.996-3.606-0.739-5.469
		c0.056,0.234,0.59-0.738,0.569,0.141c-0.056,2.3,2.834,6.731,2.834,6.731s-1.08,1.097,0.048,1.097l-0.286,0.681
		c0,0,0.835-0.049,1.376,0.393c0.541,0.442,1.006,0.987,1.501,0.987c1.126,0,8.304,0,8.304,0s0.589-2.519,1.072-2.948
		c0.482-0.429-0.965,0-1.394-0.429c-0.429-0.429-0.697,0.375-0.911,0.804c-0.215,0.43-0.482,1.18-1.126,1.394
		c-0.643,0.214-2.193,0.322-2.514,0.322c-0.322,0-1.289-1.833-1.289-1.833c-0.856-1.384-0.216-3.11,0.757-4.789
		c0.715-1.234,2.617-1.778,4.279-1.131c1.86-1.469,2.308,0.111,3.955-0.603c2.167-0.939,0.956,2.49,3.051,3.357
		c0.866-2.311-1.977-4.048-0.192-5.136c1.273-0.777,2.235-1.259,2.755-2.298c0.743-1.484,1.032-2.568,1.606-2.763
		c1.321-0.449,1.036-1.706,1.036-1.706s1.407,0.411,2.498-0.615c-0.834-0.449-2.054-0.836-1.732-1.735
		c0.377-1.058,3.211,1.092,4.045-0.642c-1.684-0.735-3.401-2.328-4.431-2.696c-0.705,0.771-1.146,0.461-2.056-0.258
		c-1.54-1.219-1.668-0.062-2.631-0.898c-0.77,1.542,0.39,1.419,0.742,1.806c0.99,1.085-0.999-0.971-0.807,1.79
		c0.05,0.716-1.011,0.85-1.799-0.705c-0.409-0.809-3.68-0.639-4.174-1.413c0.452-0.9,4.302-4.109,10.211-3.339
		c-0.178-0.07-0.36-0.133-0.541-0.197c15.593,2.325,28.329,12.785,33.191,26.646C126.247,14.148,111.64,1.052,91.755,1.052
		c-21.393,0-34.193,12.919-39.604,29.645C56.406,18.951,66.334,9.699,78.84,5.859z"/>
	<path fill="#FFFFFF" d="M91.785,83.168c-18.281,0-33.826-11.078-39.543-26.523c5.495,16.582,19.171,29.451,39.514,29.451
		c19.185,0,34.319-13.043,39.705-29.815C125.854,71.916,110.208,83.168,91.785,83.168z"/>
	<path fill="#FFFFFF" d="M14.641,35.952v8.566c0,1.927-1.277,2.74-3.181,2.74c-1.904,0-3.181-0.812-3.181-2.74v-8.566l0.975-1.161
		H2.732l0.975,1.161v8.706c0,4.272,2.391,5.92,7.754,5.92s7.754-1.648,7.754-5.92v-8.706l0.975-1.161h-6.523L14.641,35.952z"/>
	<polygon fill="#FFFFFF" points="38.307,35.952 38.307,43.753 30.413,34.792 25.469,34.792 26.444,35.952 26.444,49.115 
		25.469,50.276 30.971,50.276 29.996,49.115 29.996,41.176 38.377,50.276 41.859,50.276 41.859,35.952 42.834,34.792 37.332,34.792 
			"/>
	<polygon fill="#FFFFFF" points="48.942,50.276 55.512,50.276 54.537,49.115 54.537,35.952 55.512,34.792 48.942,34.792 
		49.917,35.952 49.917,49.115 	"/>
	<polygon fill="#FFFFFF" points="59.441,34.792 66.661,50.276 69.888,50.276 77.178,34.792 71.653,34.792 72.628,35.952 
		68.727,44.472 64.967,35.952 65.942,34.792 	"/>
	<polygon fill="#FFFFFF" points="94.466,38.018 95.626,38.993 95.626,34.792 81.047,34.792 82.022,35.952 82.022,49.115 
		81.047,50.276 95.626,50.276 95.626,46.074 94.466,47.049 86.549,47.049 86.549,44.077 91.564,44.077 92.701,45.053 92.701,40.015 
		91.564,40.99 86.549,40.99 86.549,38.018 	"/>
	<path fill="#FFFFFF" d="M102.453,35.952v13.163l-0.975,1.16h6.477l-0.975-1.16v-4.389h1.95l2.972,4.389l-0.975,1.16h6.896
		l-4.202-6.106c2.065-0.835,3.505-2.438,3.505-4.689c0-2.577-1.578-4.689-5.989-4.689h-9.657L102.453,35.952z M106.981,38.018h3.505
		c1.021,0,1.997,0.511,1.997,1.788c0,1.114-1.068,2.02-2.554,2.02h-2.948V38.018z"/>
	<path fill="#FFFFFF" d="M132.605,40.99c-1.857-0.58-4.48-0.998-4.48-2.229c0-0.604,0.72-1.021,1.973-1.021
		c1.672,0,4.411,0.696,6.547,1.718v-5.177l-1.23,1.184c-1.3-0.534-3.552-1.091-5.107-1.091c-5.27,0-6.964,2.322-6.964,4.434
		c0,2.878,1.903,4.132,4.898,5.177c2.229,0.766,4.295,0.836,4.295,2.113c0,1.09-1.277,1.23-1.928,1.23
		c-1.647,0-4.573-0.58-7.173-2.275v5.734l1.23-1.348c1.207,0.465,3.923,1.254,6.151,1.254c4.574,0,6.617-2.02,6.617-4.945
		C137.434,43.288,135.46,41.919,132.605,40.99z"/>
	<path fill="#FFFFFF" d="M147.751,34.792l0.557,1.161l-6.895,14.323h5.688l-0.975-1.16l0.766-1.625h7.383l0.743,1.625l-0.976,1.16
		h6.547l-7.614-15.484H147.751z M148.006,44.703l2.554-5.547l2.577,5.547H148.006z"/>
	<polygon fill="#FFFFFF" points="177.774,47.049 170.323,47.049 170.323,35.952 171.297,34.792 164.82,34.792 165.795,35.952 
		165.795,49.115 164.82,50.276 178.935,50.276 178.935,46.074 	"/>
	<path fill="#FFFFFF" d="M176.743,39.146c1.185,0,2.145-0.96,2.145-2.145c0-1.185-0.96-2.145-2.145-2.145
		c-1.185,0-2.145,0.96-2.145,2.145C174.598,38.185,175.558,39.146,176.743,39.146z M176.743,35.056c1.074,0,1.944,0.871,1.944,1.944
		c0,1.074-0.87,1.944-1.944,1.944c-1.074,0-1.944-0.87-1.944-1.944C174.798,35.927,175.668,35.056,176.743,35.056z"/>
	<path fill="#FFFFFF" d="M176.801,38.126c0.287,0,0.561-0.107,0.777-0.296v-0.282c-0.194,0.236-0.481,0.384-0.786,0.384
		c-0.504,0-0.878-0.439-0.878-0.925c0-0.485,0.379-0.915,0.883-0.915c0.305,0,0.55,0.125,0.754,0.347v-0.277
		c-0.213-0.18-0.468-0.264-0.744-0.264c-0.629,0-1.101,0.49-1.101,1.109C175.706,37.631,176.168,38.126,176.801,38.126z"/>
</g>
</svg>
