<svg id="Layer_1" data-name="Layer 1" xmlns="http://www.w3.org/2000/svg" width="700.7611" height="322.0495" viewBox="0 0 700.7611 322.0495">
  <defs>
    <style>
      .lls-1 {
        fill: none;
      }

      .lls-2 {
        fill: #fff;
      }

      .lls-3 {
        fill: #f07423;
      }
    </style>
  </defs>
  <title>ingresso-new-logo-branco2</title>
  <g>
    <path class="lls-1" d="M248.6617,700.7259l0.0005-.0007a17.2008,17.2008,0,0,0,1.5229-2.0275,17.2043,17.2043,0,0,1-1.5231,2.0276Z" transform="translate(-111.2389 -423.2519)"/>
    <path class="lls-2" d="M120.7584,635.4093a9.579,9.579,0,0,0,0,19.1577,9.65,9.65,0,0,0,9.6392-9.6392A9.4775,9.4775,0,0,0,120.7584,635.4093Z" transform="translate(-111.2389 -423.2519)"/>
    <rect class="lls-2" x="1.7611" y="236.7481" width="16" height="59"/>
    <path class="lls-2" d="M176.1978,658.379c-6.1943-.46-15.1978,1.8882-20.1978,5.7666V660H140v59h16V680.7814c0-3.5308,6.8546-6.7814,12.8839-6.7814H168.99c4.3354,0,6.9433.5267,8.4179,2.0272,1.6187,1.647,1.5917,4.0286,1.5917,7.2615V711.35a7.6846,7.6846,0,0,0,7.4869,7.65H196V677.3971C196,665.7272,189.1133,659.3282,176.1978,658.379Z" transform="translate(-111.2389 -423.2519)"/>
    <path class="lls-2" d="M295,664.6652V660H279v59h16V681.2189c3-3.4,9.0579-7.2905,13.9949-7.2905a20.62,20.62,0,0,1,4.2486.3491L314,674.4122V658h-0.6112C305.6979,658,299,660.6,295,664.6652Z" transform="translate(-111.2389 -423.2519)"/>
    <path class="lls-2" d="M348.5651,658.3776c-17.4238,0-30.563,13.2944-30.563,30.9238,0,18.2793,12.9639,31.0459,31.5254,31.0459,9.6025,0,18.6753-3.0615,24.2686-8.19l0.3184-.292-7.4307-10.9492-0.4272.4131c-3.74,3.6182-10.3994,5.5851-15.0449,5.5851-8.47,0-14.7329-4.9139-16.123-11.9139h35.52a8.1473,8.1473,0,0,0,5.2983-2.2775,7.1463,7.1463,0,0,0,2.1372-5.2711C376.7208,669.8117,365.15,658.3776,348.5651,658.3776ZM334.941,683a13.1815,13.1815,0,0,1,13.624-11.3853c9.209,0,13.1792,6.3853,13.8755,11.3853h-27.5Z" transform="translate(-111.2389 -423.2519)"/>
    <path class="lls-2" d="M409.3448,681.4845c-5.9131-1.188-10.583-2.1265-10.583-4.93,0-3.0337,3.5527-5.1523,8.64-5.1523,7.2334,0,13.6689,3.3062,16.8379,6.5825l0.4648,0.48,6.6729-11.7773-0.3359-.2661a37.6507,37.6507,0,0,0-23.64-8.0444c-11.709,0-24.3105,5.8765-24.3105,18.7783,0,14.3008,13.3408,16.9834,23.0811,18.9424,6.32,1.2705,11.3125,2.2744,11.3125,5.59,0,3.58-3.3682,5.6328-9.2412,5.6328-7.374,0-15.6738-4.0811-19.7393-7.9209l-0.4531-.4277-7.1426,11.9482,0.2988,0.2754c6.22,5.73,16.0566,9.1514,26.3135,9.1514,15.6455,0,25.7549-7.4658,25.7549-19.02C433.2755,686.2926,419.4445,683.5133,409.3448,681.4845Z" transform="translate(-111.2389 -423.2519)"/>
    <path class="lls-2" d="M465.5157,681.4845c-5.9131-1.188-10.583-2.1265-10.583-4.93,0-3.0337,3.5527-5.1523,8.6406-5.1523,7.2354,0,13.67,3.3062,16.8369,6.5825l0.4648,0.48,6.6748-11.7773-0.3359-.2661a37.6554,37.6554,0,0,0-23.6406-8.0444c-11.709,0-24.3105,5.8765-24.3105,18.7783,0,14.3008,13.34,16.9834,23.0811,18.9424,6.3193,1.2705,11.3115,2.2744,11.3115,5.59,0,3.58-3.3682,5.6328-9.24,5.6328-7.376,0-15.6748-4.0811-19.7383-7.9209l-0.4531-.4277L437.0812,710.92l0.2988,0.2754c6.2178,5.7314,16.0547,9.1523,26.3135,9.1523,15.6445,0,25.7529-7.4658,25.7529-19.02C489.4464,686.2926,475.6154,683.5133,465.5157,681.4845Z" transform="translate(-111.2389 -423.2519)"/>
    <path class="lls-2" d="M576.0939,699.7457a10.24,10.24,0,1,0,10.2422,10.2393A10.3774,10.3774,0,0,0,576.0939,699.7457Z" transform="translate(-111.2389 -423.2519)"/>
    <path class="lls-2" d="M627.0841,672.9659A13.6454,13.6454,0,0,1,638.9376,679l0.3291,0.4858,10.7295-10.083-0.26-.3564c-2.8975-3.9844-9.7881-10.6685-23.374-10.6685-18.1279,0-31.2852,13.0054-31.2852,30.9238,0,17.9893,13.1572,31.0459,31.2852,31.0459,13.5088,0,20.4434-6.76,23.374-10.79l0.26-.3564-10.7236-10.0781-0.3311.4746a13.9,13.9,0,0,1-11.8574,6.1611c-8.98,0-15.252-6.7676-15.252-16.457C611.8322,679.5309,617.9611,672.9659,627.0841,672.9659Z" transform="translate(-111.2389 -423.2519)"/>
    <path class="lls-2" d="M794.6075,658.3776c-8.6426,0-16.02,2.9683-19.7187,7.8066-2.13-5.459-7.1294-7.8066-16.3267-7.8066-8.2754,0-15.5621,2.94-18.5621,6.0137V660H724v59h16.2179l-0.1-38.3654c1.2227-3.45,6.831-7.6444,11.6738-7.6444,5.4131,0,8.2079,2.923,8.2079,8.736v29.708A7.69,7.69,0,0,0,767.34,719h8.9541l-0.1-38.3356c1.5293-3.123,6.2285-7.6742,11.6357-7.6742,5.4141,0,8.17,2.923,8.17,8.736v29.708c0,4.9033,4.8419,7.5658,7.4484,7.5658H812V676.4347C812,664.6217,806.1075,658.3776,794.6075,658.3776Z" transform="translate(-111.2389 -423.2519)"/>
    <path class="lls-2" d="M526.86,657.9659c-18.4512,0-31.8428,12.8994-31.8428,30.6724,0,17.7754,13.3916,30.6768,31.8428,30.6768,18.3945,0,31.7461-12.9014,31.7461-30.6768C558.6066,670.8654,545.255,657.9659,526.86,657.9659ZM544,689.6588c-1,3.8262-2.0156,7.47-4.5742,10.2422-0.1494.1455-.4106,0.2969-0.5561,0.4463-0.165.17-.3855,0.3379-0.55,0.4941a16.7376,16.7376,0,1,1-11.2163-28.9175c8.8154,0,15.8961,6.8984,16.8961,15.6743v2.0605Z" transform="translate(-111.2389 -423.2519)"/>
    <path class="lls-2" d="M683.95,657.9659c-18.4512,0-31.8428,12.8994-31.8428,30.6724,0,17.7754,13.3916,30.6768,31.8428,30.6768,18.3945,0,31.7461-12.9014,31.7461-30.6768C715.6964,670.8654,702.3448,657.9659,683.95,657.9659ZM701,689.6588c-1,3.8262-1.9711,7.47-4.53,10.2422-0.1494.1455-.3879,0.2969-0.5334,0.4463-0.165.17-.3741,0.3379-0.5382,0.4941a16.735,16.735,0,1,1-11.2508-28.9175c8.8145,0,15.8521,6.8984,16.8521,15.6743v2.0605Z" transform="translate(-111.2389 -423.2519)"/>
    <path class="lls-2" d="M260.7,659.82l-0.0211.09c-0.9575.0015-8.5309,0.09-8.5309,0.09H252v2.5416a35.8218,35.8218,0,0,0-15.65-3.5435c-18.4512,0-31.9309,12.8994-31.9309,30.6724,0,17.7754,13.3475,30.6768,31.7987,30.6768a33.9838,33.9838,0,0,0,15.3027-3.4687c-1.2417,10.8877-11.1795,12.0879-15.4763,12.0879-7.64,0-13.465-2.2686-17.7975-6.9346l-0.43-.4609-9.1347,13.4883,0.3338,0.291a42.3937,42.3937,0,0,0,27.4754,9.9512c15.6641,0,31.5091-9.5068,31.5091-30.7471V667.22A7.3766,7.3766,0,0,0,260.7,659.82Zm-7.8786,31.4025a16.2723,16.2723,0,0,1-.5491,2.93q-0.2038.718-.4727,1.4174a16.856,16.856,0,0,1-1.614,3.1273,17.2008,17.2008,0,0,1-1.5229,2.0275l-0.0005.0007-0.0068.0071c-0.0474.0547-.0923,0.1113-0.1372,0.168-0.0374.0473-.0746,0.0953-0.1155,0.14l-0.0311.0317c-0.319.342-.6553,0.6592-0.9954,0.97q-0.4137.3718-.8463,0.7147c-0.0859.069-.1714,0.1385-0.2585,0.2056a16.6628,16.6628,0,1,1,1.5518-25.1848c0.01,0.01.0181,0.02,0.0276,0.03,0.1258,0.1251.2426,0.2572,0.3587,0.3906l0.2363,0.2671h0c0.2222,0.2464.4181,0.4728,0.5965,0.6884q0.2594,0.3165.51,0.6534c0.1805,0.2469.3365,0.4708,0.48,0.6841,0.1216,0.1827.2418,0.3705,0.3612,0.5657l0.0287,0.0452c0.1277,0.2141.2429,0.4349,0.3586,0.6558l0.0927,0.1768a16.453,16.453,0,0,1,2.0176,7.792Q252.8907,690.4781,252.8209,691.223Z" transform="translate(-111.2389 -423.2519)"/>
    <path class="lls-3" d="M521.7954,477.45l-14.4737-54.1977L355.61,464.08l14.4787,54.2177,0.005,0.02a25.3691,25.3691,0,0,1,11.7009,43.8008l0.005,0.025,14.4787,54.2177L548,575.5381l-14.4787-54.1927A25.3706,25.3706,0,0,1,521.7954,477.45" transform="translate(-111.2389 -423.2519)"/>
    <path class="lls-2" d="M471.3927,470.4a19.7537,19.7537,0,1,1-19.74-20.1643,19.9509,19.9509,0,0,1,19.74,20.1643" transform="translate(-111.2389 -423.2519)"/>
    <path class="lls-2" d="M469.783,499.0518l-36.2767-.03,0.02,76.2505c0,5.92,3.837,10.1071,9.2528,10.262l26.949,0.015Z" transform="translate(-111.2389 -423.2519)"/>
  </g>
</svg>
