<?xml version="1.0" encoding="utf-8"?>
<!-- Generated by IcoMoon.io -->
<!DOCTYPE svg PUBLIC "-//W3C//DTD SVG 1.1//EN" "http://www.w3.org/Graphics/SVG/1.1/DTD/svg11.dtd">
<svg version="1.1" xmlns="http://www.w3.org/2000/svg" xmlns:xlink="http://www.w3.org/1999/xlink" width="32" height="32" viewBox="0 0 32 32">
<path  d="M12.829 8.534c-0.185 0.185-0.287 0.431-0.287 0.693s0.102 0.508 0.287 0.692l6.101 6.101-6.1 6.101c-0.382 0.382-0.382 1.003 0 1.385s1.003 0.381 1.385 0l6.794-6.794c0.191-0.191 0.287-0.442 0.287-0.692s-0.096-0.502-0.287-0.693l-6.794-6.793c-0.382-0.382-1.003-0.382-1.385-0z"></path>
<path  d="M4.205 16.020c0 6.481 5.273 11.753 11.753 11.753s11.753-5.273 11.753-11.753-5.273-11.753-11.753-11.753c-6.481 0-11.753 5.273-11.753 11.753zM25.792 16.020c0 5.422-4.411 9.833-9.833 9.833s-9.833-4.411-9.833-9.833c0-5.422 4.411-9.833 9.833-9.833s9.833 4.412 9.833 9.833z"></path>
</svg>
