<?xml version="1.0" encoding="utf-8"?>
<!-- Generated by IcoMoon.io -->
<!DOCTYPE svg PUBLIC "-//W3C//DTD SVG 1.1//EN" "http://www.w3.org/Graphics/SVG/1.1/DTD/svg11.dtd">
<svg version="1.1" xmlns="http://www.w3.org/2000/svg" xmlns:xlink="http://www.w3.org/1999/xlink" width="32" height="32" viewBox="0 0 32 32">
<path  d="M9.581 22.38l0.166 0.632 0.505-0.217v2.055h0.853v-2.824h-0.67z"></path>
<path  d="M13.468 22.858c0-0.203-0.074-0.864-1.025-0.864-0.3 0-0.596 0.089-0.755 0.177l-0.078 0.044 0.183 0.628 0.123-0.069c0.091-0.051 0.233-0.119 0.413-0.119 0.108 0 0.291 0.032 0.291 0.245 0 0.333-0.33 0.678-0.713 1.079l-0.34 0.366v0.507h1.943v-0.684h-0.805c0.387-0.373 0.764-0.78 0.764-1.308z"></path>
<path  d="M15.123 23.31c0.2-0.14 0.315-0.345 0.315-0.576 0-0.356-0.296-0.74-0.947-0.74-0.285 0-0.556 0.074-0.7 0.147l-0.077 0.039 0.139 0.628 0.131-0.072c0.11-0.060 0.226-0.091 0.345-0.091 0.093 0 0.251 0.025 0.251 0.188 0 0.212-0.374 0.223-0.415 0.224h-0.179v0.608h0.2c0.143 0.003 0.475 0.036 0.475 0.301 0 0.238-0.257 0.264-0.367 0.264-0.144 0-0.305-0.034-0.42-0.089l-0.128-0.061-0.136 0.638 0.081 0.037c0.172 0.080 0.419 0.127 0.661 0.127 0.768 0 1.169-0.451 1.169-0.896-0-0.289-0.148-0.534-0.397-0.676z"></path>
<path  d="M17.799 23.586h-0.309v-1.559h-0.783l-1.083 1.7v0.502h1.080v0.62h0.786v-0.62h0.309v-0.644zM16.474 23.586l0.231-0.376v0.376h-0.231z"></path>
<path  d="M18.739 22.948l0.037-0.24h0.849v-0.681h-1.513l-0.212 1.549 0.146-0.020c0.058-0.008 0.12-0.008 0.19-0.008 0.393-0.001 0.593 0.116 0.593 0.357 0 0.296-0.281 0.327-0.401 0.327-0.129 0-0.267-0.027-0.409-0.081l-0.119-0.044-0.149 0.625 0.085 0.038c0.152 0.068 0.414 0.114 0.636 0.114 0.711 0 1.207-0.423 1.207-1.029 0-0.288-0.105-0.519-0.315-0.688-0.196-0.15-0.474-0.207-0.625-0.218z"></path>
<path  d="M21.068 22.931c-0.104 0-0.193 0.017-0.27 0.043 0.111-0.166 0.274-0.268 0.487-0.305 0.091-0.016 0.175-0.023 0.249-0.027l0.107-0.005v-0.531l-0.024-0.117-0.118 0.007c-0.067 0.004-0.168 0.009-0.308 0.028-0.316 0.053-0.627 0.195-0.83 0.379-0.366 0.323-0.552 0.758-0.552 1.292 0 0.723 0.42 1.189 1.071 1.189 0.696 0 1.013-0.538 1.013-1.037 0-0.266-0.078-0.494-0.226-0.66s-0.36-0.257-0.597-0.257zM20.692 23.641c0.036-0.071 0.094-0.111 0.161-0.111 0.083 0 0.128 0.061 0.154 0.131s0.030 0.149 0.031 0.186c0 0.024-0 0.049-0.002 0.074 0 0.003-0 0.005-0 0.007-0.001 0.020-0.002 0.040-0.004 0.060s-0.004 0.038-0.007 0.058c-0.001 0.004-0.001 0.007-0.002 0.010-0.014 0.092-0.043 0.176-0.096 0.209-0.001 0.001-0.002 0.002-0.004 0.003-0.014 0.007-0.029 0.012-0.046 0.012-0.14 0-0.203-0.229-0.203-0.456 0-0.115 0.015-0.175 0.018-0.181z"></path>
<path  d="M7.459 7.116c-0.488 0-0.886 0.372-0.886 0.829v16.015c0 0.458 0.397 0.829 0.886 0.829s0.886-0.372 0.886-0.829v-16.014c0-0.457-0.397-0.829-0.886-0.829z"></path>
<path  d="M10.22 20.557c0.275 0 0.499-0.224 0.499-0.499v-12.057c0-0.275-0.224-0.499-0.499-0.499s-0.499 0.224-0.499 0.499v12.057c0 0.275 0.224 0.499 0.499 0.499z"></path>
<path  d="M13.867 8.002c0-0.488-0.397-0.885-0.886-0.885s-0.886 0.397-0.886 0.885v12.057c0 0.488 0.397 0.886 0.886 0.886s0.886-0.397 0.886-0.886v-12.057z"></path>
<path  d="M15.743 20.944c0.489 0 0.886-0.397 0.886-0.886v-12.057c0-0.488-0.397-0.885-0.886-0.885s-0.886 0.397-0.886 0.885v12.057c0 0.489 0.397 0.886 0.886 0.886z"></path>
<path  d="M18.504 20.557c0.275 0 0.499-0.224 0.499-0.499v-12.057c0-0.275-0.223-0.499-0.499-0.499s-0.499 0.224-0.499 0.499v12.057c0 0.275 0.224 0.499 0.499 0.499z"></path>
<path  d="M21.264 7.116c-0.488 0-0.885 0.397-0.885 0.885v12.057c0 0.488 0.397 0.886 0.885 0.886s0.886-0.397 0.886-0.886v-12.057c0-0.488-0.397-0.885-0.886-0.885z"></path>
<path  d="M24.027 7.116c-0.488 0-0.885 0.372-0.886 0.829v16.015c0 0.458 0.397 0.829 0.886 0.829s0.886-0.372 0.886-0.829v-16.014c0-0.457-0.397-0.829-0.886-0.829z"></path>
</svg>
