<?xml version="1.0" encoding="utf-8"?>
<!-- Generated by IcoMoon.io -->
<!DOCTYPE svg PUBLIC "-//W3C//DTD SVG 1.1//EN" "http://www.w3.org/Graphics/SVG/1.1/DTD/svg11.dtd">
<svg version="1.1" xmlns="http://www.w3.org/2000/svg" xmlns:xlink="http://www.w3.org/1999/xlink" width="32" height="32" viewBox="0 0 32 32">
<path  d="M27.425 6.771c-0.372-0.379-0.981-0.385-1.36-0.013l-10.201 10.007-3.134-3.074c-0.379-0.372-0.988-0.366-1.36 0.013s-0.366 0.988 0.013 1.36l3.807 3.735c0.187 0.184 0.43 0.276 0.673 0.276s0.486-0.092 0.673-0.276l10.875-10.668c0.38-0.372 0.385-0.981 0.014-1.36z"></path>
<path  d="M24.054 15.132c-0.531 0-0.961 0.431-0.961 0.962 0 3.985-3.313 7.225-7.383 7.225s-7.383-3.241-7.383-7.225c0-3.984 3.312-7.225 7.383-7.225 0.999 0 1.968 0.192 2.88 0.57 0.491 0.204 1.052-0.029 1.256-0.52s-0.029-1.053-0.52-1.256c-1.146-0.476-2.363-0.717-3.616-0.717-5.132 0-9.307 4.104-9.307 9.148s4.175 9.148 9.307 9.148c5.131 0 9.306-4.103 9.306-9.148 0-0.531-0.43-0.961-0.961-0.961z"></path>
</svg>
