<?xml version="1.0" encoding="utf-8"?>
<!-- Generated by IcoMoon.io -->
<!DOCTYPE svg PUBLIC "-//W3C//DTD SVG 1.1//EN" "http://www.w3.org/Graphics/SVG/1.1/DTD/svg11.dtd">
<svg version="1.1" xmlns="http://www.w3.org/2000/svg" xmlns:xlink="http://www.w3.org/1999/xlink" width="32" height="32" viewBox="0 0 32 32">
<path  d="M15.833 5.786c-5.611 0-10.175 4.565-10.175 10.175s4.564 10.175 10.175 10.175 10.175-4.565 10.175-10.175c-0.001-5.611-4.565-10.175-10.175-10.175zM15.833 24.263c-4.578 0-8.301-3.724-8.301-8.302s3.724-8.302 8.301-8.302c4.578 0 8.302 3.724 8.302 8.302s-3.724 8.302-8.302 8.302z"></path>
<path  d="M16.77 15.573v-4.167c0-0.517-0.42-0.937-0.937-0.937s-0.937 0.42-0.937 0.937v4.555c0 0.061 0.006 0.123 0.019 0.187 0.003 0.013 0.007 0.024 0.012 0.040l0.020 0.068c0.006 0.021 0.012 0.042 0.021 0.066 0.006 0.016 0.014 0.030 0.029 0.057l0.034 0.063c0.007 0.015 0.014 0.029 0.020 0.037 0.030 0.046 0.065 0.089 0.103 0.127l4.12 4.125c0.177 0.177 0.412 0.273 0.662 0.273 0.251 0 0.486-0.097 0.663-0.274 0.365-0.365 0.365-0.96 0-1.325l-3.83-3.833z"></path>
</svg>
