<?xml version="1.0" encoding="utf-8"?>
<!-- Generated by IcoMoon.io -->
<!DOCTYPE svg PUBLIC "-//W3C//DTD SVG 1.1//EN" "http://www.w3.org/Graphics/SVG/1.1/DTD/svg11.dtd">
<svg version="1.1" xmlns="http://www.w3.org/2000/svg" xmlns:xlink="http://www.w3.org/1999/xlink" width="32" height="32" viewBox="0 0 32 32">
<path  d="M26.365 18.557h0.016v-12.455c0-0.279-0.128-0.544-0.347-0.716-0.22-0.173-0.509-0.233-0.78-0.169l-13.438 3.265c-0.407 0.099-0.696 0.465-0.696 0.885v10.656c-0.2-0.038-0.409-0.064-0.634-0.064-0.729 0-1.546 0.203-2.36 0.585-1.826 0.861-3.596 2.696-3.277 4.404 0.196 1.048 1.123 1.7 2.418 1.7 0.73 0 1.547-0.201 2.358-0.585 1.77-0.832 3.48-2.58 3.297-4.24h0.020v-7.52l11.616-2.821v5.278c-0.199-0.037-0.407-0.063-0.63-0.063-0.731 0-1.548 0.201-2.361 0.585-1.826 0.86-3.596 2.696-3.277 4.403 0.196 1.050 1.121 1.701 2.417 1.701 0.731 0 1.548-0.203 2.359-0.586 1.771-0.834 3.482-2.582 3.299-4.242zM8.851 24.415c-0.564 0.265-1.125 0.411-1.582 0.411-0.219 0-0.596-0.045-0.627-0.214-0.092-0.495 0.764-1.712 2.262-2.42 0.564-0.265 1.126-0.411 1.584-0.411 0.219 0 0.596 0.046 0.628 0.213 0.092 0.496-0.763 1.714-2.265 2.42zM12.943 12.427v-2.343l11.616-2.822v2.345l-11.616 2.821zM22.29 21.152c-0.564 0.265-1.127 0.411-1.583 0.411-0.218 0-0.595-0.044-0.625-0.213-0.093-0.495 0.763-1.713 2.261-2.42 0.564-0.265 1.126-0.411 1.585-0.411 0.217 0 0.594 0.044 0.626 0.213 0.093 0.494-0.763 1.712-2.265 2.42z"></path>
</svg>
