<?xml version="1.0" encoding="utf-8"?>
<!-- Generated by IcoMoon.io -->
<!DOCTYPE svg PUBLIC "-//W3C//DTD SVG 1.1//EN" "http://www.w3.org/Graphics/SVG/1.1/DTD/svg11.dtd">
<svg version="1.1" xmlns="http://www.w3.org/2000/svg" xmlns:xlink="http://www.w3.org/1999/xlink" width="32" height="32" viewBox="0 0 32 32">
<path  d="M22.132 9.816c0-0.203 0.1-0.404 0.3-0.559 0.403-0.31 1.052-0.31 1.456 0 2.407 1.849 3.731 4.313 3.734 6.929 0 0.003 0 0.003 0 0.005 0 2.615-1.325 5.076-3.731 6.926-0.404 0.311-1.052 0.311-1.457 0-0.399-0.308-0.399-0.808 0-1.116 2.021-1.552 3.135-3.614 3.135-5.809v0c0-2.2-1.115-4.265-3.14-5.817-0.196-0.155-0.297-0.357-0.297-0.558v0z"></path>
<path  d="M19.008 12.608c0-0.204 0.103-0.404 0.301-0.56 0.402-0.308 1.052-0.308 1.456 0 2.967 2.284 2.967 5.998 0.002 8.278-0.402 0.308-1.052 0.308-1.456 0-0.4-0.309-0.4-0.807 0-1.116 2.166-1.667 2.166-4.378-0.002-6.044-0.199-0.155-0.301-0.356-0.301-0.557v0z"></path>
<path  d="M9.398 22.559c0 0.203-0.098 0.403-0.301 0.559-0.4 0.308-1.050 0.308-1.452 0-2.411-1.85-3.738-4.312-3.738-6.928 0-0.003 0-0.003 0-0.005 0-2.616 1.326-5.077 3.735-6.928 0.4-0.309 1.052-0.309 1.454 0 0.4 0.308 0.4 0.81 0 1.116-2.020 1.553-3.133 3.616-3.133 5.812v0c0 2.199 1.113 4.265 3.134 5.817 0.202 0.154 0.302 0.355 0.302 0.557v0z"></path>
<path  d="M12.52 19.768c0 0.203-0.101 0.403-0.301 0.559-0.401 0.309-1.052 0.309-1.454 0-2.97-2.283-2.97-5.996-0.002-8.277 0.4-0.308 1.052-0.308 1.454 0s0.401 0.809 0 1.116c-2.168 1.667-2.166 4.379 0.002 6.046 0.2 0.151 0.301 0.354 0.301 0.556v0z"></path>
</svg>
