<?xml version="1.0" encoding="utf-8"?>
<!-- Generated by IcoMoon.io -->
<!DOCTYPE svg PUBLIC "-//W3C//DTD SVG 1.1//EN" "http://www.w3.org/Graphics/SVG/1.1/DTD/svg11.dtd">
<svg version="1.1" xmlns="http://www.w3.org/2000/svg" xmlns:xlink="http://www.w3.org/1999/xlink" width="32" height="32" viewBox="0 0 32 32">
<path  d="M15.883 3.818c-5.658 0-10.262 4.603-10.262 10.261 0 5.422 8.629 12.935 9.613 13.774 0.187 0.16 0.418 0.24 0.649 0.24s0.463-0.079 0.65-0.24c0.985-0.839 9.614-8.352 9.614-13.774 0-5.658-4.604-10.261-10.263-10.261zM21.113 13.212l-2.132 2.079 0.503 2.936c0.044 0.25-0.058 0.5-0.263 0.649-0.116 0.084-0.251 0.127-0.391 0.127-0.108 0-0.213-0.026-0.309-0.075l-2.638-1.387-2.636 1.387c-0.217 0.114-0.497 0.096-0.699-0.051-0.207-0.15-0.308-0.398-0.265-0.65l0.504-2.936-2.132-2.079c-0.183-0.178-0.247-0.439-0.169-0.681s0.285-0.416 0.536-0.452l2.947-0.428 1.318-2.671c0.113-0.228 0.341-0.37 0.596-0.37s0.483 0.141 0.596 0.37l1.319 2.671 2.947 0.428c0.251 0.036 0.458 0.209 0.536 0.452s0.014 0.503-0.168 0.681z"></path>
</svg>
