<?xml version="1.0" encoding="utf-8"?>
<!-- Generated by IcoMoon.io -->
<!DOCTYPE svg PUBLIC "-//W3C//DTD SVG 1.1//EN" "http://www.w3.org/Graphics/SVG/1.1/DTD/svg11.dtd">
<svg version="1.1" xmlns="http://www.w3.org/2000/svg" xmlns:xlink="http://www.w3.org/1999/xlink" width="32" height="32" viewBox="0 0 32 32">
<path  d="M26.54 11.512l-20.311-6.599c-0.032-0.011-0.065-0.018-0.098-0.025-0.009-0.002-0.017-0.005-0.025-0.006-0.056-0.011-0.112-0.015-0.169-0.016-0.016-0-0.032 0.001-0.049 0.002-0.040 0.002-0.080 0.005-0.12 0.012-0.020 0.003-0.041 0.006-0.061 0.010-0.051 0.011-0.1 0.025-0.148 0.044-0.019 0.007-0.037 0.017-0.055 0.026-0.035 0.016-0.068 0.033-0.101 0.053-0.018 0.011-0.036 0.022-0.054 0.035-0.047 0.033-0.093 0.068-0.134 0.11-0.043 0.043-0.079 0.090-0.113 0.138-0.010 0.014-0.019 0.029-0.028 0.044-0.024 0.039-0.046 0.080-0.064 0.122-0.005 0.012-0.012 0.023-0.017 0.035-0.020 0.051-0.035 0.103-0.046 0.156-0.004 0.018-0.006 0.037-0.009 0.055-0.006 0.040-0.010 0.080-0.012 0.121-0.001 0.017-0.002 0.035-0.002 0.052 0.001 0.055 0.006 0.11 0.016 0.164 0.002 0.012 0.006 0.024 0.009 0.036 0.007 0.030 0.013 0.061 0.022 0.091l6.596 20.313c0.131 0.399 0.496 0.675 0.917 0.69 0.012 0.001 0.023 0.001 0.033 0.001 0.408 0 0.774-0.247 0.927-0.626l3.773-9.389 9.388-3.771c0.39-0.157 0.64-0.54 0.626-0.96s-0.291-0.787-0.691-0.917zM12.616 23.249l-4.46-13.738 7.12 7.119-2.66 6.619zM16.689 15.218l-7.121-7.12 13.737 4.463-6.616 2.657z"></path>
</svg>
