<?xml version="1.0" encoding="utf-8"?>
<!-- Generated by IcoMoon.io -->
<!DOCTYPE svg PUBLIC "-//W3C//DTD SVG 1.1//EN" "http://www.w3.org/Graphics/SVG/1.1/DTD/svg11.dtd">
<svg version="1.1" xmlns="http://www.w3.org/2000/svg" xmlns:xlink="http://www.w3.org/1999/xlink" width="32" height="32" viewBox="0 0 32 32">
<path  d="M17.958 10.827c-0.547-0.262-1.178-0.395-1.892-0.395-0.768 0-1.438 0.159-2.015 0.473-0.577 0.316-1.014 0.712-1.315 1.192-0.298 0.48-0.448 0.954-0.448 1.422 0 0.227 0.093 0.437 0.284 0.631 0.189 0.194 0.421 0.291 0.697 0.291 0.468 0 0.785-0.277 0.951-0.834 0.178-0.532 0.394-0.933 0.651-1.207 0.254-0.273 0.653-0.41 1.195-0.41 0.462 0 0.842 0.135 1.135 0.406s0.437 0.603 0.437 0.996c0 0.202-0.046 0.389-0.142 0.562s-0.216 0.328-0.356 0.469c-0.14 0.14-0.366 0.347-0.684 0.623-0.358 0.315-0.643 0.587-0.856 0.816-0.211 0.228-0.38 0.495-0.508 0.797s-0.191 0.66-0.191 1.074c0 0.329 0.087 0.578 0.26 0.745 0.175 0.168 0.391 0.252 0.648 0.252 0.492 0 0.785-0.256 0.878-0.768 0.055-0.241 0.096-0.41 0.123-0.506s0.063-0.191 0.112-0.287c0.049-0.097 0.126-0.202 0.227-0.318 0.101-0.115 0.235-0.249 0.402-0.402 0.604-0.541 1.025-0.927 1.258-1.155 0.235-0.23 0.437-0.5 0.607-0.816 0.17-0.314 0.254-0.682 0.254-1.1 0-0.53-0.148-1.022-0.445-1.476-0.298-0.452-0.722-0.81-1.266-1.074z"></path>
<path  d="M15.889 19.401c-0.314 0-0.58 0.107-0.796 0.318-0.216 0.211-0.325 0.472-0.325 0.782 0 0.35 0.112 0.622 0.336 0.816s0.487 0.291 0.785 0.291c0.292 0 0.547-0.098 0.768-0.295s0.333-0.468 0.333-0.812c0-0.31-0.107-0.571-0.317-0.782-0.213-0.212-0.473-0.319-0.785-0.319z"></path>
<path  d="M24.29 7.709c-4.583-4.583-12.039-4.583-16.622 0s-4.583 12.039 0 16.622c4.583 4.583 12.039 4.583 16.622 0s4.583-12.039 0-16.622zM22.932 22.973c-3.834 3.834-10.073 3.834-13.907 0s-3.834-10.072 0-13.907c3.834-3.834 10.072-3.834 13.906 0s3.834 10.073 0 13.907z"></path>
</svg>
