<?xml version="1.0" encoding="utf-8"?>
<!-- Generated by IcoMoon.io -->
<!DOCTYPE svg PUBLIC "-//W3C//DTD SVG 1.1//EN" "http://www.w3.org/Graphics/SVG/1.1/DTD/svg11.dtd">
<svg version="1.1" xmlns="http://www.w3.org/2000/svg" xmlns:xlink="http://www.w3.org/1999/xlink" width="32" height="32" viewBox="0 0 32 32">
<path  d="M8.264 6.337c-1.411 0-2.559 1.148-2.559 2.559s1.148 2.559 2.559 2.559c1.413 0 2.561-1.148 2.561-2.559s-1.149-2.559-2.561-2.559zM8.264 9.981c-0.598 0-1.085-0.486-1.085-1.085s0.487-1.085 1.085-1.085c0.6 0 1.087 0.487 1.087 1.085s-0.487 1.085-1.087 1.085z"></path>
<path  d="M8.264 13.196c-1.411 0-2.559 1.148-2.559 2.559s1.148 2.559 2.559 2.559c1.413 0 2.561-1.148 2.561-2.559s-1.149-2.559-2.561-2.559zM8.264 16.84c-0.598 0-1.085-0.487-1.085-1.085s0.487-1.085 1.085-1.085c0.6 0 1.087 0.487 1.087 1.085s-0.487 1.085-1.087 1.085z"></path>
<path  d="M8.264 19.9c-1.411 0-2.559 1.148-2.559 2.559s1.148 2.559 2.559 2.559c1.413 0 2.561-1.148 2.561-2.559s-1.149-2.559-2.561-2.559zM8.264 23.543c-0.598 0-1.085-0.487-1.085-1.085s0.487-1.085 1.085-1.085c0.6 0 1.087 0.487 1.087 1.085s-0.487 1.085-1.087 1.085z"></path>
<path  d="M12.96 9.696h12.533c0.442 0 0.8-0.358 0.8-0.8s-0.358-0.8-0.8-0.8h-12.533c-0.442 0-0.8 0.358-0.8 0.8s0.358 0.8 0.8 0.8z"></path>
<path  d="M25.493 14.955h-12.533c-0.442 0-0.8 0.358-0.8 0.8s0.358 0.8 0.8 0.8h12.533c0.442 0 0.8-0.358 0.8-0.8s-0.358-0.8-0.8-0.8z"></path>
<path  d="M25.493 21.659h-12.533c-0.442 0-0.8 0.358-0.8 0.8s0.358 0.8 0.8 0.8h12.533c0.442 0 0.8-0.358 0.8-0.8s-0.358-0.8-0.8-0.8z"></path>
</svg>
