<?xml version="1.0" encoding="utf-8"?>
<!-- Generated by IcoMoon.io -->
<!DOCTYPE svg PUBLIC "-//W3C//DTD SVG 1.1//EN" "http://www.w3.org/Graphics/SVG/1.1/DTD/svg11.dtd">
<svg version="1.1" xmlns="http://www.w3.org/2000/svg" xmlns:xlink="http://www.w3.org/1999/xlink" width="32" height="32" viewBox="0 0 32 32">
<path  d="M24.374 12.799h-1.472v-1.858c0-3.801-3.093-6.893-6.892-6.893-3.801 0-6.894 3.092-6.894 6.893v1.858h-1.47c-1.025 0-1.859 0.834-1.859 1.859v9.914c0 1.025 0.833 1.86 1.859 1.86h16.729c1.024 0 1.859-0.834 1.859-1.86v-9.914c0-1.025-0.835-1.859-1.859-1.859zM10.974 10.941c0-2.776 2.258-5.034 5.036-5.034 2.775 0 5.033 2.259 5.033 5.034v1.858h-10.069v-1.858zM24.374 24.571h-16.729v-9.914h16.729v9.914z"></path>
<path  d="M15.079 20.069v2.18h1.859v-2.178c0.599-0.33 1.007-0.958 1.007-1.69 0-1.069-0.866-1.936-1.935-1.936-1.071 0-1.937 0.867-1.937 1.936 0 0.731 0.409 1.359 1.006 1.689z"></path>
</svg>
