<?xml version="1.0" encoding="utf-8"?>
<!-- Generated by IcoMoon.io -->
<!DOCTYPE svg PUBLIC "-//W3C//DTD SVG 1.1//EN" "http://www.w3.org/Graphics/SVG/1.1/DTD/svg11.dtd">
<svg version="1.1" xmlns="http://www.w3.org/2000/svg" xmlns:xlink="http://www.w3.org/1999/xlink" width="32" height="32" viewBox="0 0 32 32">
<path  d="M15.921 27.246c-0.157 0-0.319-0.039-0.462-0.118-0.041-0.022-0.084-0.052-0.12-0.082l-0.296-0.205c-0.707-0.494-2.363-1.644-3.46-2.494-4.207-3.276-6.357-5.639-6.767-7.435-0.196-0.594-0.313-1.307-0.32-2.045-0.024-1.951 0.71-3.834 2.021-5.166 1.194-1.214 2.76-1.887 4.41-1.892v0c1.862 0 3.555 0.752 4.773 2.065 1.2-1.361 2.892-2.156 4.732-2.182l0.122-0.001c3.525 0 6.428 3.094 6.477 6.895 0.015 0.732-0.089 1.448-0.29 2.134-0.34 1.722-2.486 4.214-6.539 7.534-1.561 1.288-2.827 2.242-3.771 2.84-0.156 0.102-0.334 0.153-0.51 0.153v0zM10.994 9.716c-1.196 0.008-2.281 0.476-3.115 1.324-0.957 0.972-1.496 2.358-1.476 3.806 0.008 0.544 0.093 1.068 0.252 1.56 0.189 0.818 1.202 2.625 6.098 6.436 0.965 0.747 2.409 1.756 3.179 2.293 0.812-0.561 1.858-1.363 3.056-2.352 4.787-3.92 5.756-5.767 5.908-6.52 0.164-0.583 0.236-1.109 0.23-1.651-0.035-2.763-2.088-5.011-4.57-5.011-0.007 0-0.097 0.001-0.097 0.001-1.623 0.022-3.081 0.901-3.907 2.35-0.166 0.294-0.477 0.477-0.815 0.484-0.317-0.001-0.655-0.171-0.832-0.461-0.852-1.415-2.316-2.259-3.912-2.259v0z"></path>
</svg>
