<?xml version="1.0" encoding="utf-8"?>
<!-- Generated by IcoMoon.io -->
<!DOCTYPE svg PUBLIC "-//W3C//DTD SVG 1.1//EN" "http://www.w3.org/Graphics/SVG/1.1/DTD/svg11.dtd">
<svg version="1.1" xmlns="http://www.w3.org/2000/svg" xmlns:xlink="http://www.w3.org/1999/xlink" width="32" height="32" viewBox="0 0 32 32">
<path  d="M8.47 11.696h15.008c0.615 0 1.112-0.497 1.112-1.112s-0.497-1.112-1.112-1.112h-15.008c-0.614 0-1.112 0.497-1.112 1.112s0.497 1.112 1.112 1.112z"></path>
<path  d="M23.478 14.85h-15.008c-0.614 0-1.112 0.497-1.112 1.112s0.497 1.111 1.112 1.111h15.008c0.615 0 1.112-0.497 1.112-1.111s-0.497-1.112-1.112-1.112z"></path>
<path  d="M23.478 20.228h-15.008c-0.614 0-1.112 0.497-1.112 1.111s0.497 1.112 1.112 1.112h15.008c0.615 0 1.112-0.497 1.112-1.112s-0.497-1.111-1.112-1.111z"></path>
</svg>
