<?xml version="1.0" encoding="utf-8"?>
<!-- Generated by IcoMoon.io -->
<!DOCTYPE svg PUBLIC "-//W3C//DTD SVG 1.1//EN" "http://www.w3.org/Graphics/SVG/1.1/DTD/svg11.dtd">
<svg version="1.1" xmlns="http://www.w3.org/2000/svg" xmlns:xlink="http://www.w3.org/1999/xlink" width="32" height="32" viewBox="0 0 32 32">
<path  d="M24.337 16.020c-0-0.548-0.447-0.995-0.995-0.995l-6.389-0-0-6.388c0-0.548-0.446-0.995-0.995-0.995s-0.995 0.446-0.995 0.995l0 6.388-6.388-0c-0.266 0-0.516 0.103-0.704 0.291s-0.291 0.438-0.291 0.704 0.103 0.516 0.291 0.704c0.188 0.188 0.438 0.291 0.704 0.291l6.388 0 0 6.389c0 0.266 0.103 0.516 0.291 0.704s0.438 0.292 0.704 0.292c0.548 0 0.995-0.446 0.995-0.995l-0-6.389 6.389 0c0.549 0 0.995-0.446 0.995-0.995z"></path>
<path  d="M24.269 7.709c-4.583-4.583-12.039-4.583-16.622 0s-4.583 12.039 0 16.622c4.583 4.583 12.039 4.583 16.622 0s4.583-12.039 0-16.622zM9.005 22.973c-3.834-3.834-3.834-10.072 0-13.907s10.072-3.834 13.906 0 3.834 10.073 0 13.907c-3.834 3.834-10.072 3.834-13.906 0z"></path>
</svg>
