<?xml version="1.0" encoding="utf-8"?>
<!-- Generated by IcoMoon.io -->
<!DOCTYPE svg PUBLIC "-//W3C//DTD SVG 1.1//EN" "http://www.w3.org/Graphics/SVG/1.1/DTD/svg11.dtd">
<svg version="1.1" xmlns="http://www.w3.org/2000/svg" xmlns:xlink="http://www.w3.org/1999/xlink" width="32" height="32" viewBox="0 0 32 32">
<path  d="M27.918 12.567l-2.249-2.248c-0.274-0.274-0.64-0.425-1.027-0.425-0.383 0-0.756 0.155-1.025 0.424-0.177 0.177-0.477 0.178-0.655 0-0.087-0.088-0.136-0.204-0.136-0.328s0.048-0.24 0.136-0.327c0.566-0.566 0.565-1.486-0.001-2.052l-2.249-2.249c-0.273-0.273-0.638-0.425-1.025-0.425s-0.752 0.151-1.026 0.425l-12.658 12.657c-0.274 0.274-0.425 0.638-0.425 1.026s0.151 0.752 0.425 1.027l2.249 2.249c0.274 0.274 0.638 0.424 1.025 0.424s0.752-0.15 1.026-0.425c0.175-0.174 0.481-0.174 0.656 0 0.181 0.181 0.181 0.476 0 0.656-0.274 0.274-0.425 0.638-0.425 1.026s0.151 0.753 0.425 1.027l2.248 2.248c0.274 0.274 0.638 0.426 1.026 0.426s0.752-0.151 1.026-0.426l12.657-12.657c0.566-0.566 0.566-1.486 0.001-2.052zM20.888 19.015l-6.654 6.654-1.693-1.692c0.27-0.388 0.416-0.847 0.416-1.327 0-0.621-0.242-1.206-0.681-1.645s-1.023-0.681-1.644-0.681c-0.482 0-0.942 0.146-1.328 0.416l-1.693-1.694 12.076-12.075 1.692 1.693c-0.63 0.906-0.541 2.165 0.266 2.973 0.439 0.439 1.023 0.681 1.644 0.681 0.482 0 0.941-0.145 1.328-0.416l1.692 1.692-5.421 5.421z"></path>
<path  d="M19.612 15.97l0.777-2.292c0.066-0.196 0.017-0.408-0.13-0.554s-0.359-0.196-0.554-0.13l-2.292 0.778-1.94-1.447c-0.165-0.124-0.383-0.142-0.568-0.049s-0.297 0.281-0.295 0.488l0.031 2.42-1.976 1.397c-0.169 0.12-0.254 0.321-0.221 0.526 0.032 0.2 0.182 0.372 0.373 0.43l2.311 0.718 0.718 2.312c0.026 0.083 0.072 0.16 0.134 0.221 0.081 0.081 0.184 0.133 0.298 0.152 0.204 0.032 0.405-0.053 0.525-0.222l1.397-1.976 2.42 0.031c0.207 0.003 0.394-0.11 0.488-0.295s0.075-0.403-0.049-0.568l-1.447-1.94zM17.93 17.658c-0.178-0.002-0.345 0.084-0.447 0.228l-0.93 1.315-0.478-1.537c-0.052-0.167-0.19-0.305-0.355-0.355l-1.537-0.478 1.315-0.929c0.145-0.102 0.23-0.27 0.228-0.448l-0.021-1.61 1.291 0.963c0.142 0.106 0.328 0.135 0.496 0.078l1.525-0.517-0.517 1.526c-0.057 0.168-0.027 0.353 0.079 0.496l0.963 1.291-1.611-0.021z"></path>
<path  d="M5.227 7.040h10.013c0.442 0 0.8-0.358 0.8-0.8s-0.358-0.8-0.8-0.8h-10.013c-0.442 0-0.8 0.358-0.8 0.8s0.358 0.8 0.8 0.8z"></path>
<path  d="M12.64 9.893c0-0.442-0.358-0.8-0.8-0.8h-8.213c-0.442 0-0.8 0.358-0.8 0.8s0.358 0.8 0.8 0.8h8.213c0.442 0 0.8-0.358 0.8-0.8z"></path>
<path  d="M8.693 13.547c0-0.442-0.358-0.8-0.8-0.8h-2.667c-0.442 0-0.8 0.358-0.8 0.8s0.358 0.8 0.8 0.8h2.667c0.442 0 0.8-0.358 0.8-0.8z"></path>
</svg>
