<?xml version="1.0" encoding="utf-8"?>
<!-- Generated by IcoMoon.io -->
<!DOCTYPE svg PUBLIC "-//W3C//DTD SVG 1.1//EN" "http://www.w3.org/Graphics/SVG/1.1/DTD/svg11.dtd">
<svg version="1.1" xmlns="http://www.w3.org/2000/svg" xmlns:xlink="http://www.w3.org/1999/xlink" width="32" height="32" viewBox="0 0 32 32">
<path  d="M15.958 27.46c-2.83 0-5.688-0.228-8.492-0.678-1.082-0.203-1.999-1.23-2.112-2.342-0.083-0.788-0.164-1.577-0.239-2.37-0.109-1.083 0.571-2.34 1.55-2.853 1.823-0.868 3.743-1.468 5.744-1.797l-0.032-0.217c-0.539-0.457-0.889-1.042-0.94-1.603-0.019-0.184-0.041-0.37-0.062-0.558-0.449-0.193-0.776-0.616-0.829-1.131l-0.233-2.236c-0.040-0.361 0.064-0.721 0.295-1.008 0.069-0.085 0.148-0.163 0.235-0.228l-0.073-0.674c-0.071-0.754-0.241-2.519 1.133-3.743 0.919-0.904 2.409-1.44 4.055-1.44s3.138 0.536 4.091 1.47c1.338 1.193 1.171 2.956 1.099 3.708l-0.017 0.185c-0.019 0.17-0.038 0.333-0.056 0.492 0.084 0.065 0.162 0.14 0.229 0.225 0.231 0.286 0.336 0.647 0.297 1.016l-0.231 2.233c-0.047 0.514-0.376 0.94-0.83 1.133l-0.069 0.582c-0.041 0.532-0.387 1.117-0.928 1.577l-0.030 0.218c1.997 0.329 3.91 0.926 5.703 1.78 1.009 0.526 1.691 1.781 1.586 2.873l-0.233 2.365c-0.118 1.117-1.037 2.142-2.095 2.34-2.826 0.453-5.684 0.682-8.516 0.682v0zM12.399 13.109c0.045 0.007 0.090 0.019 0.135 0.034 0.355 0.117 0.609 0.43 0.652 0.8 0.058 0.49 0.115 0.974 0.167 1.464 0.017 0.062 0.156 0.27 0.438 0.45 0.241 0.152 0.4 0.4 0.438 0.681l0.218 1.56c0.037 0.257-0.030 0.518-0.188 0.724s-0.393 0.339-0.65 0.37c-2.142 0.257-4.188 0.844-6.083 1.746-0.282 0.148-0.524 0.659-0.494 0.946 0.073 0.793 0.154 1.575 0.235 2.358 0.030 0.287 0.323 0.605 0.53 0.644 5.356 0.859 10.942 0.863 16.348-0.005 0.186-0.035 0.479-0.346 0.509-0.64l0.233-2.354c0.028-0.29-0.216-0.803-0.53-0.967-1.86-0.886-3.907-1.473-6.049-1.73-0.257-0.031-0.49-0.164-0.648-0.37s-0.226-0.465-0.19-0.722l0.225-1.57c0.041-0.276 0.199-0.521 0.434-0.67 0.278-0.179 0.412-0.383 0.43-0.449l0.173-1.469c0.045-0.37 0.299-0.681 0.654-0.799 0.043-0.015 0.088-0.026 0.133-0.034l0.111-1.069c-0.052-0.023-0.105-0.052-0.154-0.086-0.295-0.202-0.453-0.552-0.412-0.908l0.013-0.096c0.047-0.393 0.094-0.783 0.137-1.176l0.017-0.196c0.071-0.748 0.098-1.591-0.496-2.121-0.62-0.607-1.648-0.952-2.777-0.952s-2.153 0.344-2.742 0.921c-0.628 0.563-0.601 1.406-0.53 2.155l0.164 1.471c0.041 0.357-0.12 0.707-0.417 0.907-0.047 0.032-0.096 0.059-0.147 0.082l0.111 1.068z"></path>
</svg>
