<?xml version="1.0" encoding="utf-8"?>
<!-- Generated by IcoMoon.io -->
<!DOCTYPE svg PUBLIC "-//W3C//DTD SVG 1.1//EN" "http://www.w3.org/Graphics/SVG/1.1/DTD/svg11.dtd">
<svg version="1.1" xmlns="http://www.w3.org/2000/svg" xmlns:xlink="http://www.w3.org/1999/xlink" width="32" height="32" viewBox="0 0 32 32">
<path  d="M17.115 17.021c-0.266 0.043-0.609 0.118-1.034 0.231l-1.062-1.839c0.443-0.095 0.819 0.014 1.128 0.327 0.267 0.262 0.543 0.311 0.832 0.144 0.153-0.089 0.253-0.218 0.299-0.388s0.026-0.329-0.059-0.476c-0.076-0.133-0.198-0.259-0.362-0.375s-0.356-0.213-0.578-0.287c-0.279-0.1-0.562-0.134-0.844-0.101-0.282 0.032-0.589 0.124-0.925 0.275l-0.276-0.478c-0.14-0.243-0.303-0.309-0.492-0.2-0.186 0.107-0.206 0.284-0.063 0.532l0.271 0.469c-0.581 0.405-0.938 0.864-1.074 1.374s-0.056 1.020 0.237 1.527c0.225 0.389 0.491 0.66 0.799 0.813s0.633 0.219 0.977 0.2c0.343-0.020 0.743-0.087 1.201-0.208l1.188 2.058c-0.23 0.058-0.436 0.069-0.616 0.032-0.182-0.038-0.339-0.103-0.472-0.197s-0.31-0.239-0.529-0.435c-0.1-0.092-0.214-0.141-0.34-0.153-0.128-0.008-0.258 0.025-0.392 0.102-0.164 0.095-0.269 0.231-0.313 0.409-0.046 0.177-0.028 0.336 0.054 0.478 0.11 0.191 0.264 0.364 0.463 0.514 0.197 0.151 0.435 0.269 0.714 0.355 0.281 0.083 0.583 0.113 0.912 0.089 0.33-0.026 0.679-0.119 1.046-0.28l0.3 0.52c0.078 0.135 0.157 0.224 0.238 0.263 0.079 0.041 0.174 0.030 0.28-0.031 0.114-0.066 0.165-0.149 0.153-0.248-0.011-0.1-0.069-0.235-0.169-0.409l-0.247-0.428c0.403-0.277 0.703-0.599 0.903-0.963 0.199-0.362 0.292-0.735 0.281-1.121-0.013-0.383-0.115-0.745-0.309-1.080-0.155-0.268-0.346-0.487-0.574-0.656-0.23-0.168-0.485-0.282-0.76-0.338-0.261-0.057-0.524-0.064-0.788-0.022zM14.647 17.43c-0.199-0.044-0.367-0.183-0.501-0.416-0.141-0.245-0.177-0.468-0.109-0.669s0.206-0.411 0.412-0.626l0.979 1.694c-0.322 0.056-0.581 0.061-0.78 0.018zM18.229 18.812c0.139 0.24 0.178 0.498 0.12 0.769-0.058 0.274-0.22 0.527-0.485 0.757l-1.119-1.937c0.364-0.080 0.665-0.095 0.904-0.046s0.434 0.202 0.581 0.457z"></path>
<path  d="M25.986 19.751l-6.56-11.356c-0.372-0.644-1.179-1.132-1.922-1.16l-1.183-0.046c0.174-0.435 0.304-0.857 0.378-1.247 0.235-1.233-0.133-1.744-0.482-1.957-0.35-0.212-0.971-0.301-1.959 0.474-0.662 0.521-1.342 1.327-1.912 2.266-0.059 0.097-0.073 0.208-0.048 0.309l-1.223-0.047c-0.747-0.029-1.625 0.478-1.973 1.14l-3 5.693c-0.346 0.657-0.328 1.601 0.044 2.244l6.56 11.356c0.456 0.789 1.469 1.060 2.257 0.605l10.417-6.016c0.79-0.457 1.061-1.469 0.605-2.258zM14.77 5.108c0.513-0.402 0.885-0.496 1.019-0.417 0.133 0.081 0.22 0.459 0.1 1.096-0.080 0.419-0.235 0.885-0.45 1.368l-2.33-0.090c0.508-0.818 1.094-1.511 1.661-1.957zM14.137 26.593l-6.56-11.356c-0.085-0.147-0.092-0.499-0.013-0.649l3-5.693c0.023-0.043 0.094-0.117 0.197-0.176s0.203-0.085 0.251-0.083l3.512 0.136c-0.562 0.812-1.116 1.353-1.556 1.659-0.355-0.287-0.862-0.346-1.28-0.106-0.544 0.314-0.73 1.008-0.414 1.551 0.312 0.543 1.006 0.727 1.55 0.415 0.413-0.239 0.616-0.7 0.552-1.145 0.737-0.492 1.5-1.362 2.111-2.337l1.952 0.075c0.17 0.007 0.471 0.189 0.555 0.335l6.558 11.357-10.416 6.016z"></path>
</svg>
