<?xml version="1.0" encoding="utf-8"?>
<!-- Generated by IcoMoon.io -->
<!DOCTYPE svg PUBLIC "-//W3C//DTD SVG 1.1//EN" "http://www.w3.org/Graphics/SVG/1.1/DTD/svg11.dtd">
<svg version="1.1" xmlns="http://www.w3.org/2000/svg" xmlns:xlink="http://www.w3.org/1999/xlink" width="32" height="32" viewBox="0 0 32 32">
<path  d="M21.883 10.095c-0.388-0.388-1.019-0.387-1.407 0l-4.518 4.518-4.517-4.517c-0.388-0.388-1.019-0.388-1.407 0s-0.388 1.019 0 1.407l4.517 4.517-4.517 4.517c-0.188 0.188-0.292 0.438-0.292 0.704s0.104 0.516 0.292 0.703c0.188 0.188 0.438 0.292 0.704 0.292s0.516-0.103 0.703-0.292l4.518-4.517 4.518 4.517c0.188 0.188 0.438 0.292 0.703 0.292s0.516-0.103 0.704-0.292c0.388-0.388 0.388-1.019 0-1.407l-4.518-4.518 4.518-4.517c0.388-0.388 0.388-1.019 0-1.407z"></path>
<path  d="M15.958 4.267c-6.481 0-11.753 5.273-11.753 11.753s5.273 11.753 11.753 11.753c6.481 0 11.753-5.273 11.753-11.753s-5.272-11.753-11.753-11.753zM15.958 25.853c-5.422 0-9.833-4.411-9.833-9.833s4.411-9.833 9.833-9.833c5.422 0 9.833 4.411 9.833 9.833s-4.411 9.833-9.833 9.833z"></path>
</svg>
