<?xml version="1.0" encoding="utf-8"?>
<!-- Generated by IcoMoon.io -->
<!DOCTYPE svg PUBLIC "-//W3C//DTD SVG 1.1//EN" "http://www.w3.org/Graphics/SVG/1.1/DTD/svg11.dtd">
<svg version="1.1" xmlns="http://www.w3.org/2000/svg" xmlns:xlink="http://www.w3.org/1999/xlink" width="32" height="32" viewBox="0 0 32 32">
<path  d="M24.62 11.203c-0.482 0-0.951 0.12-1.369 0.335v-1.767l-0.001 0.002c-0.024-2.013-1.668-3.643-3.685-3.643h-7.223c-2.018 0-3.662 1.631-3.686 3.643l-0-0.002v1.767c-0.419-0.215-0.887-0.335-1.369-0.335-1.665 0-3.019 1.354-3.019 3.019 0 0.773 0.294 1.508 0.817 2.065v7.234c0 1.239 1.171 2.248 2.61 2.248 1.316 0 2.405-0.845 2.582-1.938h11.354c0.177 1.093 1.265 1.938 2.581 1.938 1.44 0 2.61-1.009 2.61-2.248v-7.235c0.524-0.556 0.818-1.291 0.818-2.065 0-1.664-1.354-3.018-3.019-3.018zM8.442 23.52c0 0.136-0.284 0.386-0.748 0.386s-0.749-0.25-0.749-0.386v-8.101l-0.364-0.279c-0.288-0.221-0.453-0.556-0.453-0.918 0-0.638 0.519-1.156 1.157-1.156 0.602 0 1.108 0.469 1.153 1.068l0.001 0.015c0.001 0.012 0.002 0.022 0.002 0.028v9.344zM10.516 9.817c0-1.006 0.82-1.826 1.826-1.826h7.223c1.007 0 1.826 0.82 1.826 1.826v5.782c-0.459-0.224-0.967-0.343-1.491-0.343h-7.893c-0.525 0-1.031 0.12-1.491 0.343v-5.782zM10.426 21.968l0.001-3.227c0 0 0.025-0.353 0.074-0.508 0.017-0.054 0.040-0.113 0.071-0.182 0.027-0.059 0.057-0.115 0.089-0.168l0.002-0.002c0.292-0.479 0.794-0.765 1.343-0.765h7.893c0.549 0 1.052 0.286 1.344 0.765l0.001 0.002c0.033 0.053 0.062 0.11 0.089 0.168 0.030 0.068 0.054 0.127 0.072 0.182 0.049 0.155 0.075 0.508 0.075 0.508l0.001 3.227h-11.054zM25.324 15.14l-0.365 0.279v8.101c0 0.136-0.284 0.386-0.749 0.386-0.463 0-0.748-0.25-0.748-0.386v-9.344c0-0.006 0.002-0.017 0.003-0.029l0.001-0.015c0.046-0.598 0.553-1.068 1.153-1.068 0.638 0 1.156 0.519 1.156 1.156 0.001 0.362-0.164 0.697-0.452 0.918z"></path>
</svg>
