<?xml version="1.0" encoding="utf-8"?>
<!-- Generated by IcoMoon.io -->
<!DOCTYPE svg PUBLIC "-//W3C//DTD SVG 1.1//EN" "http://www.w3.org/Graphics/SVG/1.1/DTD/svg11.dtd">
<svg version="1.1" xmlns="http://www.w3.org/2000/svg" xmlns:xlink="http://www.w3.org/1999/xlink" width="32" height="32" viewBox="0 0 32 32">
<path  d="M25.431 12.656h-5.488v-6.075c0-0.547-0.412-0.993-0.919-0.993h-12.486c-0.507 0-0.919 0.446-0.919 0.993v13.148c0 0.547 0.412 0.993 0.919 0.993h5.401v4.745c0 0.474 0.416 0.86 0.928 0.86h12.564c0.512 0 0.928-0.386 0.928-0.86v-11.951c0-0.474-0.416-0.86-0.928-0.86zM7.458 18.737v-11.163h10.647v5.082h-5.238c-0.512 0-0.928 0.386-0.928 0.86v5.22h-4.481zM18.104 14.377v4.36h-4.309v-4.36h4.309zM24.503 24.607h-10.708v-3.884h5.229c0.507 0 0.919-0.446 0.919-0.993v-5.352h4.561v10.23z"></path>
</svg>
