<?xml version="1.0" encoding="utf-8"?>
<!-- Generated by IcoMoon.io -->
<!DOCTYPE svg PUBLIC "-//W3C//DTD SVG 1.1//EN" "http://www.w3.org/Graphics/SVG/1.1/DTD/svg11.dtd">
<svg version="1.1" xmlns="http://www.w3.org/2000/svg" xmlns:xlink="http://www.w3.org/1999/xlink" width="32" height="32" viewBox="0 0 32 32">
<path  d="M18.52 17.287l-1.232 1.232-1.645-1.645 1.232-1.232 1.645 1.645z"></path>
<path  d="M14.715 13.48l1.645 1.645-1.232 1.231-1.645-1.645 1.232-1.231z"></path>
<path  d="M26.958 12.247l-2.249-2.248c-0.274-0.274-0.64-0.425-1.027-0.425-0.383 0-0.756 0.155-1.025 0.424-0.177 0.177-0.477 0.178-0.655 0-0.087-0.088-0.136-0.204-0.136-0.328s0.048-0.24 0.136-0.327c0.566-0.566 0.565-1.486-0.001-2.052l-2.249-2.249c-0.273-0.273-0.638-0.425-1.025-0.425s-0.752 0.151-1.026 0.425l-12.658 12.657c-0.274 0.274-0.425 0.638-0.425 1.026s0.151 0.752 0.425 1.027l2.249 2.249c0.274 0.274 0.638 0.424 1.025 0.424s0.752-0.15 1.026-0.425c0.175-0.174 0.481-0.174 0.656 0 0.181 0.181 0.181 0.476 0 0.656-0.274 0.274-0.425 0.638-0.425 1.026s0.151 0.753 0.425 1.027l2.248 2.248c0.274 0.274 0.638 0.426 1.026 0.426v0c0.387 0 0.752-0.151 1.026-0.426l12.657-12.657c0.566-0.566 0.566-1.486 0.001-2.052zM11.998 22.329c0-0.621-0.242-1.206-0.681-1.645s-1.023-0.681-1.644-0.681c-0.482 0-0.942 0.146-1.328 0.416l-1.693-1.694 5.422-5.421 0.892 0.892 1.233-1.232-0.893-0.892 5.421-5.421 1.692 1.693c-0.63 0.906-0.541 2.165 0.266 2.973 0.439 0.439 1.023 0.681 1.644 0.681 0.482 0 0.941-0.145 1.328-0.416l1.692 1.692-5.421 5.422-0.892-0.892-1.233 1.232 0.892 0.893-5.421 5.421-1.693-1.692c0.27-0.388 0.416-0.847 0.416-1.328z"></path>
</svg>
