<?xml version="1.0" encoding="utf-8"?>
<!-- Generated by IcoMoon.io -->
<!DOCTYPE svg PUBLIC "-//W3C//DTD SVG 1.1//EN" "http://www.w3.org/Graphics/SVG/1.1/DTD/svg11.dtd">
<svg version="1.1" xmlns="http://www.w3.org/2000/svg" xmlns:xlink="http://www.w3.org/1999/xlink" width="32" height="32" viewBox="0 0 32 32">
<path  d="M21.508 17.485c-0.885-0.421-1.828-0.739-2.803-0.945l-0.056-0.012 0.033-0.048c0.162-0.234 0.257-0.482 0.274-0.704l0.021-0.179 0.014-0.010c0.28-0.189 0.458-0.49 0.488-0.822l0.134-1.296c0.033-0.303-0.053-0.6-0.247-0.84l-0.039-0.046 0.024-0.234c0.042-0.444 0.155-1.624-0.727-2.409-0.621-0.61-1.576-0.96-2.619-0.96s-1.981 0.335-2.564 0.91c-0.933 0.833-0.821 2.021-0.779 2.473l0.024 0.218-0.043 0.050c-0.192 0.239-0.279 0.535-0.246 0.832l0.135 1.298c0.035 0.333 0.212 0.633 0.487 0.823l0.029 0.146c0.022 0.252 0.121 0.511 0.286 0.75l0.033 0.047-0.056 0.012c-0.982 0.208-1.941 0.533-2.86 0.971-0.686 0.36-1.145 1.211-1.067 1.978 0.044 0.463 0.091 0.922 0.138 1.377 0.081 0.8 0.73 1.513 1.515 1.66 1.63 0.261 3.299 0.394 4.959 0.394 0 0 0 0 0 0 1.672 0 3.358-0.135 5.017-0.401 0.76-0.141 1.396-0.852 1.481-1.655l0.135-1.371c0.076-0.786-0.392-1.629-1.121-2.008zM11.171 19.311c0.003-0.017 0.004-0.026 0.007-0.036 0.004-0.015 0.011-0.030 0.028-0.071 0.005-0.011 0.012-0.021 0.018-0.033l0.009-0.016c0.018-0.026 0.028-0.035 0.023-0.036l0.019-0.014c1.071-0.507 2.218-0.836 3.41-0.979 0.239-0.030 0.459-0.156 0.603-0.344 0.073-0.095 0.126-0.202 0.156-0.319s0.037-0.234 0.020-0.351l-0.126-0.901c-0.035-0.263-0.184-0.495-0.407-0.637-0.038-0.024-0.071-0.050-0.099-0.080l-0.010-0.022c-0.028-0.254-0.057-0.508-0.088-0.761-0.034-0.289-0.206-0.544-0.46-0.682l-0.035-0.217 0.004-0.005c0.191-0.172 0.302-0.414 0.303-0.665 0-0.036-0.002-0.073-0.006-0.105l-0.094-0.844c-0.012-0.132-0.018-0.237-0.019-0.331-0.001-0.395 0.114-0.552 0.236-0.662 0.265-0.26 0.792-0.428 1.343-0.428 0.577 0 1.083 0.17 1.396 0.476 0.087 0.078 0.144 0.197 0.169 0.355 0.023 0.142 0.022 0.323-0.004 0.587l-0.009 0.1c-0.023 0.215-0.048 0.424-0.073 0.629l-0.016 0.12c-0.003 0.029-0.005 0.065-0.005 0.102 0.002 0.253 0.111 0.494 0.299 0.661l0.014 0.012-0.021 0.206-0.018 0.010c-0.253 0.139-0.425 0.393-0.46 0.681l-0.092 0.779-0.008 0.008c-0.027 0.028-0.060 0.055-0.097 0.079-0.218 0.14-0.365 0.367-0.405 0.627l-0.131 0.913c-0.016 0.114-0.008 0.235 0.022 0.352 0.031 0.116 0.084 0.222 0.154 0.313 0.148 0.192 0.368 0.318 0.605 0.346 1.196 0.143 2.33 0.465 3.371 0.956 0.041 0.029 0.073 0.065 0.099 0.109 0.015 0.028 0.026 0.050 0.035 0.075l0.006 0.060 0.006 0.006-0.135 1.356c-0.012 0.032-0.028 0.052-0.038 0.064l-0.025 0.015c-3.041 0.484-6.241 0.483-9.271 0.002l-0.013-0.002-0.010-0.010c-0.009-0.009-0.020-0.023-0.032-0.035l-0.024-0.091c-0.044-0.427-0.088-0.852-0.129-1.29l0.004-0.029z"></path>
<path  d="M16 4.363c-6.417 0-11.637 5.22-11.637 11.637s5.22 11.637 11.637 11.637 11.637-5.22 11.637-11.637c0-6.417-5.22-11.637-11.637-11.637zM16 25.74c-5.371 0-9.741-4.37-9.741-9.741s4.37-9.74 9.741-9.74c5.371 0 9.741 4.37 9.741 9.741s-4.37 9.74-9.741 9.74z"></path>
</svg>
