<?xml version="1.0" encoding="utf-8"?>
<!-- Generated by IcoMoon.io -->
<!DOCTYPE svg PUBLIC "-//W3C//DTD SVG 1.1//EN" "http://www.w3.org/Graphics/SVG/1.1/DTD/svg11.dtd">
<svg version="1.1" xmlns="http://www.w3.org/2000/svg" xmlns:xlink="http://www.w3.org/1999/xlink" width="32" height="32" viewBox="0 0 32 32">
<path  d="M25.849 24.328l-3.144-3.146c-0.148-0.149-0.156-0.382-0.022-0.543 1.272-1.486 1.85-3.846 1.85-5.412 0-5.057-4.435-9.493-9.492-9.493-5.069 0-9.193 4.126-9.193 9.197 0 5.057 4.435 9.493 9.49 9.493 1.555 0 3.927-0.618 5.259-1.763 0.076-0.064 0.166-0.098 0.262-0.098 0.106 0 0.207 0.041 0.283 0.116l3.175 3.18c0.423 0.421 1.053 0.457 1.454 0.058l0.22-0.22c0.584-0.585-0.016-1.244-0.142-1.37zM15.338 22.275c-3.91 0-7.34-3.431-7.34-7.343 0-3.886 3.16-7.047 7.044-7.047 3.911 0 7.342 3.431 7.342 7.343-0.001 3.886-3.161 7.047-7.046 7.047z"></path>
<path  d="M17.965 14.050h-5.57c-0.577 0-1.047 0.47-1.047 1.047s0.47 1.047 1.047 1.047h5.57c0.578 0 1.047-0.47 1.047-1.047s-0.47-1.047-1.047-1.047z"></path>
</svg>
