<?xml version="1.0" encoding="utf-8"?>
<!-- Generated by IcoMoon.io -->
<!DOCTYPE svg PUBLIC "-//W3C//DTD SVG 1.1//EN" "http://www.w3.org/Graphics/SVG/1.1/DTD/svg11.dtd">
<svg version="1.1" xmlns="http://www.w3.org/2000/svg" xmlns:xlink="http://www.w3.org/1999/xlink" width="32" height="32" viewBox="0 0 32 32">
<path  d="M15.167 16.752c0.044 0.457 0.117 0.798 0.221 1.022 0.104 0.223 0.287 0.335 0.555 0.335 0.26 0 0.445-0.115 0.56-0.347 0.112-0.231 0.186-0.563 0.221-0.996l0.317-3.639c0.036-0.335 0.052-0.664 0.052-0.99 0-0.551-0.071-0.973-0.213-1.266-0.145-0.292-0.427-0.44-0.85-0.44-0.35 0-0.632 0.115-0.845 0.344-0.213 0.228-0.323 0.547-0.323 0.956 0 0.301 0.025 0.796 0.068 1.484l0.236 3.537z"></path>
<path  d="M15.974 19.401c-0.312 0-0.574 0.108-0.788 0.321-0.213 0.215-0.323 0.474-0.323 0.779 0 0.35 0.112 0.622 0.336 0.816s0.487 0.291 0.788 0.291c0.295 0 0.552-0.098 0.774-0.295s0.333-0.468 0.333-0.812c0-0.305-0.109-0.564-0.328-0.779s-0.484-0.322-0.793-0.322z"></path>
</svg>
