<?xml version="1.0" encoding="utf-8"?>
<!-- Generated by IcoMoon.io -->
<!DOCTYPE svg PUBLIC "-//W3C//DTD SVG 1.1//EN" "http://www.w3.org/Graphics/SVG/1.1/DTD/svg11.dtd">
<svg version="1.1" xmlns="http://www.w3.org/2000/svg" xmlns:xlink="http://www.w3.org/1999/xlink" width="32" height="32" viewBox="0 0 32 32">
<path  d="M8.472 19.149c0.185 0.185 0.431 0.287 0.693 0.287s0.508-0.102 0.692-0.287l6.101-6.101 6.101 6.101c0.382 0.382 1.003 0.382 1.385 0s0.381-1.003 0-1.385l-6.794-6.794c-0.191-0.191-0.442-0.287-0.692-0.287s-0.502 0.096-0.693 0.287l-6.793 6.794c-0.382 0.382-0.382 1.003-0 1.385z"></path>
<path  d="M15.958 27.773c6.481 0 11.753-5.273 11.753-11.753s-5.273-11.753-11.753-11.753-11.753 5.273-11.753 11.753c0 6.481 5.273 11.753 11.753 11.753zM15.958 6.187c5.422 0 9.833 4.411 9.833 9.833s-4.411 9.833-9.833 9.833c-5.422 0-9.833-4.411-9.833-9.833s4.411-9.833 9.833-9.833z"></path>
</svg>
