<svg width="32" height="32" viewBox="0 0 32 32" xmlns="http://www.w3.org/2000/svg"><title>E49DB335-86E4-4A60-84CA-ED09ECA92889</title><path d="M12.212 23.63a.78.78 0 0 0 .777.787h.052c.043-.107.09-.215.144-.324.617-1.258 1.758-2.077 3.336-2.077 1.53 0 2.685.762 3.412 1.945.092.15.174.3.245.445a.786.786 0 0 0 .653-.776V11.75h-8.62v11.88zm-1.557-13.463h11.733V23.63c0 1.307-1.045 2.37-2.334 2.37h-.975s-.392-2.4-2.558-2.4-2.26 2.4-2.26 2.4h-1.272c-1.291 0-2.334-1.061-2.334-2.37V10.167zM9.09 13.333l-.912-.015C7.04 13.313 6 12.244 6 10.932V9.376C6 8.07 7.047 7 8.338 7h16.324C25.96 7 27 8.064 27 9.376v1.556c0 1.306-.972 2.38-2.17 2.386l-.952.015-.024-1.583.968-.015c.313-.002.62-.341.62-.803V9.376a.783.783 0 0 0-.78-.793H8.338a.79.79 0 0 0-.78.793v1.556c0 .435.341.801.647.803l.912.015-.026 1.583z" fill-rule="nonzero" /></svg>