<svg width="32" height="32" viewBox="0 0 32 32" xmlns="http://www.w3.org/2000/svg"><title>81CF6103-788C-494E-9DED-271ADEAA7E96</title><path d="M8.5 10.311v12.48c0 .414.276.74.622.74h13.75c.34 0 .622-.333.622-.74V10.31c0-.414-.276-.74-.622-.74H9.122c-.34 0-.623.333-.623.74zm-1.5 0c0-1.22.868-2.209 1.926-2.209h14.142c1.064 0 1.926.982 1.926 2.21V22.79c0 1.22-.868 2.209-1.926 2.209H8.926C7.862 25 7 24.018 7 22.79V10.312zm1.342 3.392c-.366 0-.663-.33-.663-.735 0-.406.297-.735.663-.735h15.994c.367 0 .664.33.664.735 0 .406-.297.735-.664.735H8.342zM10 7.735c0-.406.336-.735.75-.735s.75.329.75.735v3.029a.742.742 0 0 1-.75.735.742.742 0 0 1-.75-.735v-3.03zm10.496 0c0-.406.336-.735.75-.735s.75.329.75.735v3.029a.742.742 0 0 1-.75.735.742.742 0 0 1-.75-.735v-3.03zm-2.999 0c0-.406.336-.735.75-.735s.75.329.75.735v3.029a.742.742 0 0 1-.75.735.742.742 0 0 1-.75-.735v-3.03zm-4.498 0c0-.406.336-.735.75-.735s.75.329.75.735v3.029a.742.742 0 0 1-.75.735.742.742 0 0 1-.75-.735v-3.03zm3.137 9.292v2.716c0 .881-.477 1.578-1.943 1.578-1.467 0-1.944-.697-1.944-1.578v-2.716c0-.882.477-1.578 1.944-1.578 1.466 0 1.943.696 1.943 1.578zm-2.79.106v2.504c0 .511.154.74.847.74.692 0 .845-.229.845-.74v-2.504c0-.511-.153-.74-.845-.74-.693 0-.846.229-.846.74zm5.256-.456v4.65h1.133v-5.878h-1.022l-1.708.964.473.874 1.124-.61z" fill-rule="nonzero" /></svg>