<svg width="32" height="32" viewBox="0 0 32 32" xmlns="http://www.w3.org/2000/svg"><title>B77A86A3-BB4C-418E-951B-188FF35EB4AF</title><path d="M8.5 11.197v9.577c0 .36.276.643.623.643H22.83a.632.632 0 0 0 .623-.643v-9.577a.629.629 0 0 0-.623-.643H9.123a.632.632 0 0 0-.623.643zM7 11c0-1.104.86-2 1.927-2h14.146C24.137 9 25 9.888 25 11v10c0 1.104-.86 2-1.927 2H8.927C7.863 23 7 22.112 7 21V11zm.75 1.885h16.494v2.428H7.75v-2.428zm2.249 4.638c0-.416.344-.753.757-.753h1.485c.418 0 .757.333.757.753v1.603a.758.758 0 0 1-.757.752h-1.485a.752.752 0 0 1-.757-.752v-1.603z" fill-rule="nonzero" /></svg>
