<?xml version="1.0" encoding="utf-8"?>
<!-- Generated by IcoMoon.io -->
<!DOCTYPE svg PUBLIC "-//W3C//DTD SVG 1.1//EN" "http://www.w3.org/Graphics/SVG/1.1/DTD/svg11.dtd">
<svg version="1.1" xmlns="http://www.w3.org/2000/svg" xmlns:xlink="http://www.w3.org/1999/xlink" width="32" height="32" viewBox="0 0 32 32">
<path  d="M24.251 8.626h-16.533c-1.179 0-2.136 0.957-2.136 2.135v2.512c-0.015 0.066-0.025 0.132-0.025 0.202s0.010 0.137 0.025 0.202v7.901c0 1.177 0.957 2.136 2.136 2.136h16.533c1.177 0 2.134-0.959 2.134-2.136v-10.818c0-1.177-0.957-2.134-2.134-2.134zM7.718 10.424h16.533c0.184 0 0.336 0.151 0.336 0.337v1.814h-17.206v-1.814c0-0.186 0.151-0.337 0.337-0.337zM24.251 21.915h-16.533c-0.186 0-0.337-0.152-0.337-0.338v-7.204h17.206v7.204c0 0.185-0.151 0.337-0.336 0.337z"></path>
<path  d="M9.188 17.127h2.124v1.799h-2.124v-1.799z"></path>
</svg>
