<?xml version="1.0" encoding="utf-8"?>
<!-- Generated by IcoMoon.io -->
<!DOCTYPE svg PUBLIC "-//W3C//DTD SVG 1.1//EN" "http://www.w3.org/Graphics/SVG/1.1/DTD/svg11.dtd">
<svg version="1.1" xmlns="http://www.w3.org/2000/svg" xmlns:xlink="http://www.w3.org/1999/xlink" width="32" height="32" viewBox="0 0 32 32">
<path  d="M25.966 7.668l-9.762-2.827c-0.203-0.067-0.414-0.066-0.611-0.001l-9.896 2.834c-0.317 0.141-0.522 0.455-0.522 0.801v2.113c0 1.434 1.192 2.601 2.656 2.601 1.246 0 1.526-0.261 1.995-0.691 0.515 0.45 1.428 0.691 2.076 0.691 0.67 0 1.618-0.257 2.147-0.692 0.191 0.183 0.492 0.428 0.928 0.558v3.833c-0.051 0.001-0.102 0.001-0.152 0.001-0.428 0-0.876-0.026-1.308-0.051-0.407-0.024-0.829-0.048-1.226-0.048-0.478 0-0.855 0.035-1.187 0.11-2.908 0.658-3.518 5.077-3.543 5.265-0.061 0.472 0.272 0.905 0.743 0.966 0.478 0.066 0.907-0.276 0.968-0.742 0.051-0.384 0.176-0.963 0.385-1.555 0.262 0.605 0.653 1.053 0.918 1.312-0.151 0.488-0.6 1.725-1.396 2.26-0.263 0.177-0.408 0.483-0.378 0.799s0.23 0.588 0.523 0.712l2.311 0.978c0.107 0.045 0.22 0.068 0.337 0.068 0.855 0 1.284-0.878 2.171-2.862l0.038-0.084c0.101-0.226 0.201-0.45 0.3-0.664 0.135-0.026 0.304-0.053 0.495-0.074v3.606h1.726v-3.563c0.099 0.016 0.199 0.026 0.295 0.047 0.602 1.332 1.392 2.968 1.804 3.358 0.16 0.153 0.371 0.236 0.593 0.236 0.111 0 0.22-0.021 0.323-0.062l2.311-0.934c0.252-0.101 0.444-0.32 0.513-0.583s0.007-0.547-0.164-0.758c-1.027-1.273-1.459-2.509-1.53-2.724-0.125-0.692-0.103-1.487-0.052-2.094 0.485 0.24 1.128 0.622 1.702 1.013 0.259 0.176 0.608 0.197 0.887 0.052 1.001-0.525 1.517-1.466 1.283-2.343-0.027-0.1-0.070-0.193-0.132-0.28-0.426-0.6-1.838-2.584-2.108-2.906-0.032-0.072-0.016-0.466 0.127-0.845 0.097-0.251 0.070-0.538-0.073-0.768-0.111-0.178-0.379-0.476-0.932-0.478-0.941 0-3.020 1.076-3.962 2.561-0.229 0.362-0.537 0.604-0.886 0.765v-3.66c0.276-0.124 0.528-0.279 0.694-0.42 0.5 0.425 1.452 0.675 2.148 0.675 0.653 0 1.547-0.232 2.077-0.677 0.537 0.453 1.298 0.694 1.916 0.694 1.401 0 2.968-1.112 2.968-2.601v-2.113c0-0.346-0.205-0.66-0.539-0.808zM20.953 10.589c0 0.481-0.753 0.843-1.242 0.843s-1.241-0.362-1.241-0.843c0-0.457-0.386-0.843-0.844-0.843s-0.843 0.386-0.843 0.843c0 0.489-0.397 0.886-0.886 0.886-0.473 0-1.001-0.379-1.001-0.886 0-0.457-0.386-0.843-0.843-0.843s-0.843 0.386-0.843 0.843c0 0.481-0.753 0.843-1.241 0.843s-1.242-0.362-1.242-0.843c0-0.457-0.387-0.843-0.843-0.843-0.228 0-0.452 0.096-0.613 0.265-0.156 0.162-0.238 0.369-0.229 0.584 0.010 0.283-0.072 0.517-0.244 0.696-0.365 0.379-0.741 0.433-1.061 0.349-0.515-0.134-0.875-0.567-0.875-1.052v-1.511l9.036-2.522 9.036 2.522v1.504c-0.032 0.742-0.756 0.899-1.074 0.968-0.092 0.020-0.239 0.044-0.415 0.044-0.491 0-0.779-0.175-0.805-1.010-0.015-0.462-0.394-0.838-0.844-0.838-0.457 0-0.843 0.386-0.843 0.843zM19.377 18.252c-0.090 0.112-0.151 0.247-0.177 0.389-0.036 0.204-0.339 2.042-0.042 3.617 0.005 0.028 0.012 0.056 0.020 0.083 0.014 0.047 0.335 1.129 1.184 2.437l-0.634 0.256c-0.332-0.61-0.862-1.71-1.326-2.752-0.103-0.233-0.303-0.407-0.548-0.478-0.68-0.197-1.401-0.297-2.142-0.297-1.135 0-1.944 0.232-2.096 0.279-0.225 0.072-0.412 0.234-0.515 0.447-0.172 0.355-0.352 0.757-0.533 1.162-0.227 0.507-0.559 1.25-0.801 1.68l-0.596-0.252c0.896-1.224 1.208-2.754 1.221-2.821 0.067-0.334-0.072-0.677-0.351-0.875-0.146-0.104-1.411-1.052-0.726-2.364 0.026-0.049 0.047-0.1 0.062-0.152 0.035-0.011 0.071-0.021 0.107-0.029 0.201-0.045 0.463-0.068 0.803-0.068 0.347 0 0.727 0.022 1.129 0.045 0.452 0.027 0.92 0.053 1.403 0.053 1.413 0 3.171-0.213 4.227-1.877 0.374-0.591 1.060-1.1 1.647-1.419 0.021 0.445 0.153 0.817 0.394 1.108 0.172 0.207 1.059 1.439 1.879 2.594-0.005 0.008-0.011 0.018-0.019 0.027-1.26-0.815-2.132-1.194-2.735-1.194-0.352 0-0.618 0.127-0.835 0.4z"></path>
</svg>
