<svg width="32" height="32" viewBox="0 0 32 32" xmlns="http://www.w3.org/2000/svg"><title>3492609E-D55A-4678-955E-4CAC6E9BC8D8</title><path d="M13.332 13.864l1.964 3.279 8.316-7.615a.827.827 0 0 1 1.171.053.834.834 0 0 1-.053 1.176l-9.064 8.3a.827.827 0 0 1-1.269-.186l-2.486-4.15a.833.833 0 0 1 .283-1.142.827.827 0 0 1 1.138.285zm5.366-5.38a.833.833 0 0 1-.567 1.564c-3.276-1.197-6.898.498-8.09 3.786-1.193 3.287.496 6.922 3.772 8.118 3.276 1.197 6.899-.498 8.091-3.786a.828.828 0 1 1 1.558.57c-1.505 4.15-6.08 6.29-10.216 4.78-4.136-1.511-6.269-6.1-4.763-10.251 1.505-4.151 6.079-6.291 10.215-4.78z" fill-rule="nonzero" /></svg>