<svg width="32" height="32" viewBox="0 0 32 32" xmlns="http://www.w3.org/2000/svg"><title>BE2BB9CA-3D90-44DE-9B42-77A1CE08E3BF</title><path d="M21.166 13.948c0 2.244-1.852 4.06-4.131 4.06s-4.13-1.816-4.13-4.06c0-2.244 1.851-4.06 4.13-4.06s4.13 1.816 4.13 4.06zm-1.302 0c0-1.523-1.264-2.763-2.829-2.763-1.565 0-2.83 1.24-2.83 2.763 0 1.524 1.265 2.763 2.83 2.763 1.565 0 2.83-1.24 2.83-2.763zM25 13.852c-.03 1.678-1.036 3.542-2.892 5.779-.748.902-1.608 1.835-2.717 2.972-.293.3-.595.605-.98.993l-.948.953-.447.451-.462-.435c-1.424-1.34-1.985-1.879-2.794-2.71-1.367-1.404-2.453-2.69-3.259-3.92C9.53 16.449 9 15.092 9 13.852 9 9.513 12.584 6 17 6s8 3.513 8 7.852zm-8-6.556c-3.702 0-6.699 2.938-6.699 6.556 0 .944.443 2.08 1.29 3.375.753 1.149 1.79 2.376 3.103 3.726.698.717 1.211 1.215 2.291 2.234l.5-.502c.384-.386.683-.689.973-.986 1.087-1.114 1.925-2.024 2.647-2.894 1.68-2.025 2.567-3.67 2.594-4.96-.004-3.614-3-6.549-6.699-6.549z" fill-rule="nonzero" /></svg>