<svg width="32" height="32" viewBox="0 0 32 32" xmlns="http://www.w3.org/2000/svg"><title>3A39A46C-91B2-465F-9DC8-FA357B9CC4EB</title><path d="M11.363 19.89H10l2.592-7.78h1.548l2.592 7.78H15.37l-.602-1.774h-2.814l-.59 1.773zm2.003-6.249l-1.033 3.247H14.4l-1.033-3.247zm5.225.785v3.148c0 .911.297 1.166 1.39 1.166.463 0 1.16-.061 1.672-.153l.202-.036.145 1.205-.171.04a9.41 9.41 0 0 1-1.88.204c-1.82 0-2.689-.8-2.689-2.37v-3.26c0-1.57.868-2.37 2.688-2.37.58 0 1.356.083 1.88.205l.172.04-.145 1.204-.202-.036a10.84 10.84 0 0 0-1.672-.153c-1.093 0-1.39.255-1.39 1.166z" fill-rule="nonzero" /></svg>