<svg width="32" height="32" viewBox="0 0 32 32" xmlns="http://www.w3.org/2000/svg"><title>341BE4EB-0F1B-49DB-816A-9A36B1DF9869</title><path d="M10.837 11.141a6.638 6.638 0 0 0-1.363 1.202c-.389.456-.717.972-.966 1.554A6.481 6.481 0 0 0 8 16.47c0 2.726 1.373 4.664 2.93 5.442a.818.818 0 0 0 1.085-.338.772.772 0 0 0-.348-1.054c-.34-.17-.806-.566-1.187-1.103-.548-.775-.868-1.75-.868-2.947 0-.737.135-1.39.385-1.973a4.702 4.702 0 0 1 1.764-2.073.769.769 0 0 0 .198-1.09.821.821 0 0 0-1.122-.194zm2.362 1.566c-.36.244-.626.462-.939.83-.27.316-.498.674-.67 1.077-.224.524-.366 1.242-.366 1.898 0 1.877.977 3.273 2.068 3.818a.818.818 0 0 0 1.086-.338.772.772 0 0 0-.348-1.054c-.58-.29-1.194-1.168-1.194-2.426 0-.454.101-.967.242-1.297a2.788 2.788 0 0 1 1.044-1.225.769.769 0 0 0 .2-1.09.821.821 0 0 0-1.123-.193zm8.04-.282a4.702 4.702 0 0 1 1.764 2.073c.25.582.385 1.236.385 1.973 0 1.198-.32 2.172-.868 2.947-.38.537-.848.933-1.187 1.103a.772.772 0 0 0-.348 1.054.818.818 0 0 0 1.085.338c1.557-.778 2.93-2.716 2.93-5.442 0-.944-.178-1.802-.508-2.574a6.058 6.058 0 0 0-.966-1.554 6.638 6.638 0 0 0-1.362-1.201.821.821 0 0 0-1.123.193.769.769 0 0 0 .199 1.09zm-2.417 1.566a2.788 2.788 0 0 1 1.044 1.224c.141.33.243.843.243 1.297 0 1.258-.615 2.136-1.194 2.426a.772.772 0 0 0-.348 1.054.818.818 0 0 0 1.085.338c1.091-.545 2.069-1.94 2.069-3.818 0-.656-.142-1.374-.366-1.898a4.202 4.202 0 0 0-.67-1.078 4.276 4.276 0 0 0-.94-.829.821.821 0 0 0-1.122.193.769.769 0 0 0 .199 1.09z" fill-rule="nonzero" /></svg>