<?xml version="1.0" encoding="utf-8"?>
<!-- Generated by IcoMoon.io -->
<!DOCTYPE svg PUBLIC "-//W3C//DTD SVG 1.1//EN" "http://www.w3.org/Graphics/SVG/1.1/DTD/svg11.dtd">
<svg version="1.1" xmlns="http://www.w3.org/2000/svg" xmlns:xlink="http://www.w3.org/1999/xlink" width="32" height="32" viewBox="0 0 32 32">
<path  d="M19.258 10.046c-0.808-0.739-1.895-1.113-3.231-1.113-1.264 0-2.301 0.349-3.083 1.039s-1.256 1.685-1.412 2.962c-0.011 0.087-0.009 0.13-0.008 0.147l0.009 0.079 0.038 0.060c0.070 0.111 0.145 0.188 0.341 0.275l1.284 0.247 0.081 0.005c0.274 0 0.483-0.208 0.534-0.53 0.127-0.815 0.391-1.414 0.785-1.782 0.39-0.364 0.867-0.542 1.457-0.542 0.612 0 1.113 0.197 1.532 0.604 0.416 0.403 0.618 0.854 0.618 1.38 0 0.282-0.066 0.536-0.201 0.773-0.082 0.143-0.32 0.472-0.997 1.069-0.562 0.496-0.945 0.868-1.172 1.139-0.308 0.371-0.535 0.747-0.674 1.114-0.19 0.488-0.287 1.069-0.287 1.728 0 0.108 0.003 0.269 0.009 0.482 0.008 0.319 0.222 0.494 0.604 0.494h0.973c0.389 0 0.596-0.315 0.603-0.497 0.014-0.75 0.073-1.114 0.12-1.287 0.064-0.24 0.165-0.454 0.299-0.637 0.080-0.11 0.311-0.38 0.959-0.955 0.802-0.709 1.33-1.303 1.614-1.815 0.289-0.521 0.436-1.097 0.436-1.713-0.001-1.063-0.415-1.98-1.231-2.726z"></path>
<path  d="M16.009 20.457c-0.644 0-1.167 0.524-1.167 1.167s0.524 1.167 1.167 1.167 1.167-0.524 1.167-1.167c0-0.644-0.524-1.167-1.167-1.167z"></path>
<path  d="M16 4.363c-6.417 0-11.637 5.22-11.637 11.637s5.22 11.637 11.637 11.637 11.637-5.22 11.637-11.637c0-6.417-5.22-11.637-11.637-11.637zM16 25.74c-5.371 0-9.741-4.37-9.741-9.741s4.37-9.74 9.741-9.74c5.371 0 9.741 4.37 9.741 9.741s-4.37 9.74-9.741 9.74z"></path>
</svg>
