<?xml version="1.0" encoding="utf-8"?>
<!-- Generated by IcoMoon.io -->
<!DOCTYPE svg PUBLIC "-//W3C//DTD SVG 1.1//EN" "http://www.w3.org/Graphics/SVG/1.1/DTD/svg11.dtd">
<svg version="1.1" xmlns="http://www.w3.org/2000/svg" xmlns:xlink="http://www.w3.org/1999/xlink" width="32" height="32" viewBox="0 0 32 32">
<path  d="M27.365 6.785c-0.144-0.356-0.486-0.587-0.871-0.587h-21.18c-0.383 0-0.724 0.229-0.871 0.586-0.145 0.356-0.062 0.758 0.209 1.024l8.308 8.197v8.734c0 0.333 0.179 0.646 0.47 0.816 0.141 0.081 0.305 0.125 0.471 0.125 0.165 0 0.327-0.043 0.467-0.124l4.004-2.281c0.294-0.166 0.476-0.48 0.476-0.819v-6.452l8.307-8.196c0.273-0.268 0.355-0.672 0.211-1.024zM14.563 14.942l-6.954-6.862h16.59l-6.95 6.858c-0.18 0.173-0.283 0.418-0.283 0.672v6.299l-2.122 1.21v-7.509c0-0.248-0.102-0.491-0.28-0.668z"></path>
</svg>
