<svg width="32" height="32" viewBox="0 0 32 32" xmlns="http://www.w3.org/2000/svg"><title>71A66494-5D2B-4C6A-A91B-CAFE15DBCDC3</title><path d="M21.313 10.494a634.75 634.75 0 0 1-9.87-.001l4.294 4.667a.736.736 0 0 1 .194.498v5.378l1.302-.685v-4.693c0-.18.067-.355.187-.49l4.173-4.676-.28.002zm-12.117-.257A.738.738 0 0 1 9.751 9a615.088 615.088 0 0 0 13.497 0 .738.738 0 0 1 .563 1.228l-5.096 5.71v4.858a.738.738 0 0 1-.395.652l-2.783 1.465a.74.74 0 0 1-1.087-.652v-6.316l-5.254-5.708z" fill-rule="nonzero" /></svg>