<svg width="32" height="32" viewBox="0 0 32 32" xmlns="http://www.w3.org/2000/svg"><title>E6A84B4F-D5E2-42A3-88F8-23E60C1CE2A5</title><path d="M10.524 23.5h12.952v-15H10.524v15zM9 7.695C9 7.31 9.334 7 9.76 7h14.48c.42 0 .76.312.76.695v16.61c0 .384-.334.695-.76.695H9.76c-.42 0-.76-.312-.76-.695V7.695zm3.048 3.048c0-.41.338-.743.752-.743h2.305c.415 0 .752.338.752.743v3.014c0 .41-.338.743-.752.743H12.8a.751.751 0 0 1-.752-.743v-3.014zm5.333.007c0-.414.329-.75.755-.75h3.062a.75.75 0 0 1 .754.75c0 .414-.328.75-.754.75h-3.062a.75.75 0 0 1-.755-.75zm0 3c0-.414.329-.75.755-.75h3.062a.75.75 0 0 1 .754.75c0 .414-.328.75-.754.75h-3.062a.75.75 0 0 1-.755-.75zm-5.333 3c0-.414.33-.75.744-.75h8.416c.411 0 .744.333.744.75 0 .414-.33.75-.744.75h-8.416a.745.745 0 0 1-.744-.75zm0 3c0-.414.33-.75.744-.75h8.416c.411 0 .744.333.744.75 0 .414-.33.75-.744.75h-8.416a.745.745 0 0 1-.744-.75z" fill-rule="nonzero" /></svg>