<?xml version="1.0" encoding="utf-8"?>
<!-- Generated by IcoMoon.io -->
<!DOCTYPE svg PUBLIC "-//W3C//DTD SVG 1.1//EN" "http://www.w3.org/Graphics/SVG/1.1/DTD/svg11.dtd">
<svg version="1.1" xmlns="http://www.w3.org/2000/svg" xmlns:xlink="http://www.w3.org/1999/xlink" width="32" height="32" viewBox="0 0 32 32">
<path  d="M25.658 8.695h-4.485c-0.29-0.398-0.791-0.661-1.362-0.661h-6.972c-0.571 0-1.072 0.264-1.362 0.661h-4.904c-0.514 0-0.93 0.373-0.93 0.833v13.606c0 0.46 0.415 0.833 0.93 0.833h19.085c0.514 0 0.929-0.372 0.929-0.833v-13.606c0-0.46-0.416-0.833-0.929-0.833zM24.728 22.3h-17.226v-11.94h4.032c0.297 0.356 0.769 0.588 1.304 0.588h6.972c0.535 0 1.007-0.232 1.304-0.588h3.613v11.94z"></path>
<path  d="M14.784 16.916c-0.476-0.152-0.967-0.258-1.465-0.318 0.862-0.368 1.466-1.212 1.466-2.193 0-1.319-1.093-2.393-2.436-2.393-1.346 0-2.442 1.074-2.442 2.393 0 0.98 0.607 1.824 1.47 2.193-0.5 0.060-0.995 0.167-1.478 0.321-0.913 0.303-1.578 1.198-1.516 2.037l0.129 1.683c0.034 0.437 0.439 0.776 0.927 0.776h5.814c0.488 0 0.893-0.339 0.928-0.776l0.127-1.681c0.068-0.841-0.601-1.738-1.525-2.042zM12.349 13.678c0.309 0 0.577 0.34 0.577 0.727s-0.268 0.726-0.577 0.726c-0.316 0-0.583-0.332-0.583-0.726s0.267-0.727 0.583-0.727zM14.386 19.747h-4.078l-0.069-0.898c0.004-0.089 0.147-0.315 0.296-0.364 1.166-0.374 2.464-0.371 3.615-0.003 0.159 0.053 0.301 0.276 0.303 0.364l-0.067 0.902z"></path>
<path  d="M18.108 13.935c-0.513 0-0.929 0.373-0.929 0.833s0.416 0.833 0.929 0.833h3.874c0.513 0 0.929-0.373 0.928-0.833s-0.416-0.833-0.929-0.833h-3.873z"></path>
<path  d="M21.981 16.572h-3.873c-0.513 0-0.929 0.373-0.929 0.833 0 0.46 0.416 0.834 0.929 0.834h3.874c0.513 0 0.929-0.373 0.928-0.834 0.001-0.459-0.415-0.833-0.929-0.833z"></path>
</svg>
