<svg width="32" height="32" viewBox="0 0 32 32" xmlns="http://www.w3.org/2000/svg"><title>8654BE3D-EA82-4E0A-91B7-2F392EB55358</title><path d="M10.495 14.955h.004-.004zm0-1.546c.006 0 .005 0 .005.007v1.531l-.001.008h12.006c-.006 0-.005-.001-.005-.008v-1.53l.001-.008H10.495zM9 13.416c0-.854.667-1.552 1.495-1.552h12.01c.83 0 1.495.692 1.495 1.552v1.531c0 .855-.667 1.553-1.495 1.553h-12.01C9.665 16.5 9 15.807 9 14.947v-1.53zm12.75 3.08v.004-.003zm0 6.962v-.003c.002 0 0 .002 0 .003zm-10.5-6.961v.003c-.002 0 0-.002 0-.003zm0 6.958h10.5V16.5h-10.5v6.955zm-1.5-6.958c0-.853.67-1.542 1.5-1.542h10.5c.827 0 1.5.688 1.5 1.542v6.961c0 .853-.67 1.542-1.5 1.542h-10.5c-.827 0-1.5-.689-1.5-1.542v-6.961zm6-3.118c0-.41.333-.743.75-.743.414 0 .75.335.75.743v10.106c0 .41-.333.742-.75.742a.748.748 0 0 1-.75-.742V13.379zM12 10.705C12 9.21 13.175 8 14.625 8s2.625 1.21 2.625 2.705c0 1.514-.032 1.816-.44 2.26-.438.473-.855.515-2.206.444-1.44-.011-2.604-1.218-2.604-2.704zm2.625 1.159h.038c.522.028.79.033.976.015.106-.01.115-.014.083.02 0 .001.028-.27.028-1.194 0-.64-.504-1.16-1.125-1.16s-1.125.52-1.125 1.16c0 .64.504 1.159 1.125 1.159zm3.75 1.545c-2.29 0-2.625-.346-2.625-2.704C15.75 9.21 16.925 8 18.375 8S21 9.21 21 10.705c0 1.493-1.175 2.704-2.625 2.704zm0-1.545c.621 0 1.125-.52 1.125-1.16 0-.64-.504-1.159-1.125-1.159s-1.125.52-1.125 1.16c0 1.505-.336 1.159 1.125 1.159z" fill-rule="nonzero" /></svg>