<?xml version="1.0" encoding="utf-8"?>
<!-- Generated by IcoMoon.io -->
<!DOCTYPE svg PUBLIC "-//W3C//DTD SVG 1.1//EN" "http://www.w3.org/Graphics/SVG/1.1/DTD/svg11.dtd">
<svg version="1.1" xmlns="http://www.w3.org/2000/svg" xmlns:xlink="http://www.w3.org/1999/xlink" width="32" height="32" viewBox="0 0 32 32">
<path  d="M27.921 15.433l-2.921-3.661c-0.071-0.152-0.158-0.298-0.277-0.426-0.326-0.349-0.798-0.55-1.297-0.55h-3.844c-0.497 0-0.967 0.2-1.294 0.548-0.118 0.128-0.206 0.273-0.277 0.426l-2.495 3.127-2.547-1.58c-1.463-0.966-3.755-0.966-5.216-0.001l-3.312 2.179c-0.395 0.26-0.505 0.789-0.245 1.184s0.789 0.504 1.185 0.244l2.010-1.319-1.542 2.668c-0.486 0.842-0.54 1.714-0.148 2.391s1.174 1.066 2.147 1.066h0.292v3.607c0 0.473 0.382 0.855 0.855 0.855s0.854-0.382 0.854-0.855v-3.607h1.023v3.607c0 0.473 0.382 0.855 0.855 0.855s0.854-0.382 0.854-0.855v-3.607h0.292c0.972 0 1.755-0.388 2.147-1.067 0.391-0.677 0.336-1.549-0.15-2.391l-1.542-2.669 1.69 0.998c0.115 0.075 0.24 0.118 0.367 0.134 0.118 0.057 0.244 0.087 0.371 0.087 0.251 0 0.5-0.11 0.668-0.321l1.568-1.965 0.218 3.164c0.051 0.698 0.487 1.28 1.076 1.524-0 0.009-0.003 0.019-0.003 0.029v4.038c0 0.472 0.382 0.854 0.854 0.854s0.855-0.382 0.855-0.854v-3.943h1.023v3.943c0 0.472 0.382 0.854 0.855 0.854 0.472 0 0.854-0.382 0.854-0.854v-4.038c0-0.010-0.002-0.020-0.003-0.029 0.588-0.244 1.024-0.827 1.076-1.526l0.218-3.161 1.568 1.965c0.168 0.211 0.417 0.321 0.668 0.321 0.187 0 0.376-0.061 0.533-0.186 0.368-0.295 0.428-0.833 0.135-1.202zM13.39 19.127c0.199 0.346 0.205 0.582 0.148 0.68s-0.264 0.211-0.665 0.211h-5.026c-0.402 0-0.611-0.114-0.667-0.211s-0.051-0.335 0.148-0.68l2.517-4.355c0.192-0.334 0.387-0.459 0.501-0.468 0.009 0 0.017 0 0.026 0 0.115 0.008 0.308 0.134 0.502 0.47l2.515 4.353zM23.093 17.574c-0.003 0.029-0.015 0.050-0.024 0.062l-3.119 0.011c-0.007-0.004-0.033-0.031-0.034-0.069l-0.333-5.038 0.028-0.035 3.748-0.057c0.011 0.015 0.019 0.032 0.030 0.046l0.049 0.062-0.345 5.018z"></path>
<path  d="M21.503 10.297c1.356 0 2.459-1.102 2.459-2.459 0-1.355-1.102-2.457-2.459-2.457-1.355 0-2.457 1.102-2.457 2.457 0 1.356 1.103 2.459 2.457 2.459zM21.503 7.091c0.413 0 0.749 0.335 0.749 0.748s-0.337 0.749-0.749 0.749c-0.411 0-0.748-0.337-0.748-0.749s0.336-0.748 0.748-0.748z"></path>
<path  d="M7.318 10.101c0.216 0 0.415-0.064 0.587-0.169 0.026 1.334 1.116 2.411 2.456 2.411 1.355 0 2.457-1.102 2.457-2.459 0-0.007-0.001-0.014-0.001-0.021 0.191 0.147 0.427 0.238 0.687 0.238 0.625 0 1.131-0.507 1.131-1.131s-0.507-1.131-1.131-1.131c-0.49 0-0.903 0.313-1.060 0.748-0.434-0.695-1.204-1.16-2.083-1.16-0.838 0-1.579 0.422-2.022 1.063-0.181-0.384-0.568-0.652-1.021-0.652-0.625 0-1.131 0.507-1.131 1.131s0.506 1.131 1.131 1.131zM10.361 9.137c0.413 0 0.748 0.336 0.748 0.748 0 0.413-0.335 0.749-0.748 0.749s-0.749-0.336-0.749-0.749c0-0.412 0.337-0.748 0.749-0.748z"></path>
</svg>
