<svg width="32" height="32" viewBox="0 0 32 32" xmlns="http://www.w3.org/2000/svg"><title>0DA07934-8634-4452-93FA-91490ACDD573</title><path d="M9.545 13C8.692 13 8 12.328 8 11.5S8.692 10 9.545 10c.854 0 1.546.672 1.546 1.5S10.399 13 9.545 13zm0 4.5C8.692 17.5 8 16.828 8 16s.692-1.5 1.545-1.5c.854 0 1.546.672 1.546 1.5s-.692 1.5-1.546 1.5zm0 4.5C8.692 22 8 21.328 8 20.5S8.692 19 9.545 19c.854 0 1.546.672 1.546 1.5S10.399 22 9.545 22zm3.091-10.5a.76.76 0 0 1 .774-.75h10.817a.76.76 0 0 1 .773.75.76.76 0 0 1-.773.75H13.41a.76.76 0 0 1-.774-.75zm0 4.5a.76.76 0 0 1 .774-.75h10.817A.76.76 0 0 1 25 16a.76.76 0 0 1-.773.75H13.41a.76.76 0 0 1-.774-.75zm0 4.5a.76.76 0 0 1 .774-.75h10.817a.76.76 0 0 1 .773.75.76.76 0 0 1-.773.75H13.41a.76.76 0 0 1-.774-.75z"  fill-rule="evenodd"/></svg>