<?xml version="1.0" encoding="utf-8"?>
<!-- Generated by IcoMoon.io -->
<!DOCTYPE svg PUBLIC "-//W3C//DTD SVG 1.1//EN" "http://www.w3.org/Graphics/SVG/1.1/DTD/svg11.dtd">
<svg version="1.1" xmlns="http://www.w3.org/2000/svg" xmlns:xlink="http://www.w3.org/1999/xlink" width="32" height="32" viewBox="0 0 32 32">
<path  d="M11.83 20.775c-0.233 0-0.466-0.089-0.644-0.267-0.356-0.356-0.356-0.933 0-1.289l7.959-7.958c0.356-0.356 0.933-0.356 1.289 0s0.356 0.933 0 1.289l-7.958 7.958c-0.178 0.179-0.411 0.267-0.645 0.267v0z"></path>
<path  d="M19.689 17.162c-0.148 0-0.295-0.006-0.445-0.020-0.5-0.045-0.87-0.487-0.826-0.99 0.046-0.502 0.497-0.866 0.99-0.826 0.906 0.084 1.79-0.235 2.425-0.87l2.263-2.266c1.197-1.196 1.197-3.141 0.002-4.338l-0.256-0.256c-1.196-1.195-3.141-1.195-4.335-0.001l-2.267 2.266c-0.636 0.636-0.953 1.52-0.873 2.424 0.046 0.501-0.324 0.944-0.827 0.99-0.497 0.044-0.944-0.324-0.99-0.826-0.13-1.444 0.381-2.857 1.399-3.876l2.267-2.266c1.903-1.905 5.005-1.906 6.913 0l0.257 0.257c1.907 1.908 1.905 5.011-0.002 6.916l-2.263 2.267c-0.915 0.914-2.147 1.416-3.432 1.416v0z"></path>
<path  d="M10.203 26.636c-1.252 0-2.504-0.476-3.458-1.428l-0.26-0.26c-0.92-0.921-1.428-2.148-1.428-3.454 0-1.305 0.508-2.534 1.431-3.456l2.265-2.267c1.016-1.018 2.423-1.525 3.876-1.399 0.5 0.045 0.87 0.487 0.826 0.989s-0.477 0.87-0.988 0.827c-0.899-0.081-1.789 0.237-2.426 0.872l-2.263 2.268c-0.58 0.579-0.899 1.349-0.899 2.167 0 0.82 0.319 1.588 0.898 2.167l0.258 0.262c1.195 1.19 3.139 1.191 4.334-0.004l2.268-2.268c0.634-0.634 0.951-1.517 0.869-2.421-0.044-0.502 0.325-0.945 0.826-0.99 0.497-0.041 0.945 0.324 0.99 0.826 0.13 1.445-0.377 2.858-1.396 3.875l-2.268 2.268c-0.951 0.953-2.204 1.429-3.456 1.429v0z"></path>
</svg>
