<svg width="32" height="32" viewBox="0 0 32 32" xmlns="http://www.w3.org/2000/svg"><title>6432CD5F-BE7E-4FF6-A5F1-15B542C896BC</title><path d="M11.096 14l.002-.45.003-.442c.003-.6.005-1.065.005-1.343 0-1.944 1.89-3.765 5.42-3.765 3.514 0 5.396 1.856 5.396 3.77a2421.98 2421.98 0 0 0 .001 2.23h.764C23.967 14 25 15.016 25 16.252v7.496C25 24.988 23.967 26 22.687 26H10.313C9.033 26 8 24.984 8 23.748v-7.496C8 15.012 9.033 14 10.313 14h.783zm1.545 0h7.737v-.47-.389l-.001-1.371c0-.32-.216-.84-.64-1.259-.64-.63-1.677-1.011-3.21-1.011-1.543 0-2.588.373-3.23.991-.43.416-.646.93-.646 1.274 0 .281-.002.749-.005 1.35 0 .224 0 .224-.002.443L12.64 14zm-3.096 2.252v7.496c0 .41.344.752.768.752h12.374a.76.76 0 0 0 .768-.752v-7.496a.763.763 0 0 0-.768-.752H10.313a.76.76 0 0 0-.768.752zm7.746 4.287v1.702a.75.75 0 0 1-.745.759h-.074a.748.748 0 0 1-.745-.759V20.55a1.492 1.492 0 0 1-.772-1.299c0-.828.691-1.5 1.545-1.5s1.545.672 1.545 1.5c0 .548-.302 1.027-.754 1.289z" fill-rule="nonzero" /></svg>