<svg width="32" height="32" viewBox="0 0 32 32" xmlns="http://www.w3.org/2000/svg"><title>D7D2FE1A-8A6C-480D-8A9F-64D3B8503231</title><path d="M19.941 9h-.1c-1.426.021-2.736.642-3.685 1.752l-.202.235-.207-.23a4.966 4.966 0 0 0-3.727-1.66c-1.285.006-2.504.546-3.435 1.52C7.56 11.694 6.982 13.216 7 14.796a5.77 5.77 0 0 0 .25 1.645c.33 1.483 2.069 3.434 5.479 6.169.9.716 2.256 1.687 2.835 2.102l.244.175c.032.023.054.04.077.052a.509.509 0 0 0 .515-.017c.763-.498 1.798-1.3 3.076-2.386 3.241-2.734 5.02-4.828 5.29-6.223A6.093 6.093 0 0 0 25 14.563C24.962 11.496 22.692 9 19.94 9"  fill-rule="evenodd"/></svg>