<svg width="32" height="32" viewBox="0 0 32 32" xmlns="http://www.w3.org/2000/svg"><title>AADBDDEF-9E67-4895-8C82-AC5BBBEF2F2A</title><path d="M19.514 8h.101C22.56 8 24.96 10.605 25 13.785a6.002 6.002 0 0 1-.23 1.74c-.292 1.498-2.004 3.486-5.108 6.07-1.195 1.001-2.166 1.745-2.895 2.215a1.205 1.205 0 0 1-1.369-.05l-.223-.158c-.655-.463-1.08-.767-1.581-1.133l-.167-.123a37.594 37.594 0 0 1-.885-.67c-3.269-2.588-4.94-4.444-5.275-5.945A5.924 5.924 0 0 1 7 14.013c-.02-1.63.586-3.203 1.668-4.322.991-1.025 2.299-1.597 3.681-1.603 1.349 0 2.61.486 3.594 1.377A5.23 5.23 0 0 1 19.513 8zm-2.812 2.843l-.729.842-.56-.614-.19-.208a3.84 3.84 0 0 0-2.87-1.26c-.979.004-1.908.41-2.623 1.15-.8.827-1.255 2.01-1.24 3.241.005.452.075.904.21 1.33.25 1.109 1.756 2.781 4.755 5.155.236.185.521.401.847.642l.163.12c.491.36.912.66 1.561 1.119l.098.07c.655-.438 1.527-1.112 2.592-2.004 2.84-2.364 4.393-4.168 4.61-5.261.129-.45.19-.9.184-1.362-.03-2.375-1.793-4.29-3.89-4.29l-.089.001a3.773 3.773 0 0 0-2.83 1.329z" fill-rule="nonzero" /></svg>