<?xml version="1.0" encoding="utf-8"?>
<!-- Generated by IcoMoon.io -->
<!DOCTYPE svg PUBLIC "-//W3C//DTD SVG 1.1//EN" "http://www.w3.org/Graphics/SVG/1.1/DTD/svg11.dtd">
<svg version="1.1" xmlns="http://www.w3.org/2000/svg" xmlns:xlink="http://www.w3.org/1999/xlink" width="32" height="32" viewBox="0 0 32 32">
<path  d="M25.558 6.944h-19.237c-1.378 0-2.499 1.12-2.499 2.496v12.585c0 1.378 1.121 2.498 2.499 2.498h19.237c1.375 0 2.497-1.12 2.497-2.498v-12.585c0-1.376-1.122-2.496-2.497-2.496zM25.818 22.585h-19.756c-0.109 0-0.208-0.046-0.279-0.12l6.733-6.003 3.060 2.729c0.104 0.092 0.234 0.138 0.364 0.138s0.259-0.046 0.361-0.138l3.061-2.73 6.733 6.005c-0.070 0.073-0.168 0.118-0.277 0.118zM15.94 18.057l-10.156-9.057c0.071-0.073 0.17-0.118 0.279-0.118h19.756c0.109 0 0.207 0.046 0.277 0.118l-10.155 9.057zM5.672 10.358l6.028 5.375-6.028 5.376v-10.751zM20.179 15.733l6.028-5.375v10.751l-6.028-5.376z"></path>
</svg>
