<svg width="32" height="34" viewBox="0 0 32 34" xmlns="http://www.w3.org/2000/svg"><title>E1B8B11F-4B4B-470A-A625-5A5E6161DA9F</title><path d="M15.475 19.001l-1.874-1.76a.743.743 0 0 1-.057.057l-4.727 4.258h14.366l-4.727-4.258a.743.743 0 0 1-.057-.057l-1.874 1.76a.763.763 0 0 1-.524.207.764.764 0 0 1-.526-.207zM16 17.477l6.419-6.033H9.58L16 17.477zm7.5-5.03l-4.03 3.787a.755.755 0 0 1 .01.01l4.02 3.62v-7.417zm-15 7.416l4.02-3.62a.755.755 0 0 1 .01-.009L8.5 12.447v7.416zM7 11.673C7 10.749 7.695 10 8.55 10h14.9c.856 0 1.55.755 1.55 1.673v9.654c0 .924-.695 1.673-1.55 1.673H8.55C7.694 23 7 22.245 7 21.327v-9.654z" fill-rule="nonzero" /></svg>