<svg width="32" height="32" viewBox="0 0 32 32" xmlns="http://www.w3.org/2000/svg"><title>19B2C7CB-7201-4A06-B3F6-A991AB430960</title><path d="M13.205 18.142h-1.433l-1.447-3.783L10.211 19H9l.247-7h1.412l1.83 4.806L14.317 12h1.412l.247 7h-1.211l-.114-4.64-1.447 3.782zM23 19h-1.45l-1.691-2.404h-1.383V19h-1.24v-7h2.77c1.469 0 2.147.618 2.147 1.814v.958c0 .818-.308 1.366-.976 1.637L23 19zm-3.025-3.519c.74 0 .938-.156.938-.7v-.957c0-.548-.193-.7-.938-.7h-1.499v2.357h1.499z" fill-rule="nonzero" /></svg>