<svg width="32" height="32" viewBox="0 0 32 32" xmlns="http://www.w3.org/2000/svg"><title>D392F913-E4F9-466C-BBF5-0D7CFAE20E51</title><g fill-rule="evenodd"><path d="M10.426 15.575h.004-.004zm.005 7.02h11.447l-.001-7.018-11.447-.002v7.02zM9 15.576c0-.775.637-1.406 1.426-1.406h11.456a1.42 1.42 0 0 1 1.426 1.406v7.017c0 .775-.637 1.406-1.426 1.406H10.426A1.42 1.42 0 0 1 9 22.594v-7.017zm1.43 2.104h11.447v-2.106H10.431v2.106zM9 15.575c0-.775.638-1.404 1.426-1.404h11.456c.789 0 1.426.627 1.426 1.404v2.106c0 .775-.638 1.404-1.426 1.404H10.426c-.79 0-1.426-.627-1.426-1.404v-2.106zm9.423-.708l1.286.627-1.54 3.155-1.285-.627 1.539-3.155zm-.496-3.88l-2.976-.728.443 2.28 2.976.727-.443-2.279zm1.53.375l.443 2.279 2.15.526.519-2.044-3.112-.761zM13.42 9.885l-1.958-.48-.519 2.044 2.92.715-.443-2.28zm.71 4.982l1.286.627-1.539 3.155-1.285-.627 1.538-3.155zm-2.326-6.825l11.115 2.72a1.398 1.398 0 0 1 1.038 1.7l-.52 2.045a1.43 1.43 0 0 1-1.73 1.023l-11.115-2.72a1.398 1.398 0 0 1-1.037-1.7l.52-2.044a1.43 1.43 0 0 1 1.729-1.024z"  fill-rule="nonzero"/></g></svg>
