<svg width="32" height="32" viewBox="0 0 32 32" xmlns="http://www.w3.org/2000/svg"><title>89B9F08D-4467-440C-8C48-7DA2D3A096C0</title><path d="M19.327 18.64a.82.82 0 0 0 .01 1.13.752.752 0 0 0 1.09-.01L24 15.99l-3.575-3.752a.752.752 0 0 0-1.09-.007.82.82 0 0 0-.007 1.13l2.507 2.632-2.508 2.647zm-6.654-5.28a.82.82 0 0 0-.01-1.13.752.752 0 0 0-1.09.01L8 16.01l3.575 3.752c.299.314.787.318 1.09.007a.82.82 0 0 0 .007-1.13l-2.507-2.632 2.508-2.647zm-3.53 3.416l13.834.017.002-1.599-13.834-.017-.002 1.6z" fill-rule="nonzero" /></svg>