<?xml version="1.0" encoding="utf-8"?>
<!-- Generated by IcoMoon.io -->
<!DOCTYPE svg PUBLIC "-//W3C//DTD SVG 1.1//EN" "http://www.w3.org/Graphics/SVG/1.1/DTD/svg11.dtd">
<svg version="1.1" xmlns="http://www.w3.org/2000/svg" xmlns:xlink="http://www.w3.org/1999/xlink" width="32" height="32" viewBox="0 0 32 32">
<path  d="M27.167 16.187c0-0.275-0.113-0.524-0.295-0.704l-3.832-3.837c-0.388-0.389-1.016-0.389-1.4 0-0.392 0.387-0.392 1.014 0 1.403l2.145 2.147h-16.038l2.145-2.147c0.388-0.388 0.388-1.016 0-1.401-0.389-0.389-1.015-0.389-1.404 0l-3.836 3.838c-0.388 0.389-0.388 1.016 0 1.405l3.835 3.839c0.194 0.194 0.449 0.29 0.701 0.29s0.507-0.097 0.702-0.289c0.388-0.388 0.388-1.015 0-1.403l-2.147-2.15h16.041l-2.145 2.148c-0.392 0.388-0.392 1.016 0 1.404 0.189 0.194 0.444 0.29 0.698 0.29s0.508-0.097 0.702-0.291l3.828-3.833c0.185-0.18 0.3-0.43 0.3-0.709z"></path>
</svg>
