<svg width="32" height="32" viewBox="0 0 32 32" xmlns="http://www.w3.org/2000/svg"><title>E4A50452-F236-4833-B713-6872CC6A1F6B</title><path d="M19.927 19.052zm-.046.15a3.057 3.057 0 0 1-.362.73c-.08.117-.17.225-.267.323-.51.512-1.15.682-1.733.597a2.316 2.316 0 0 1-1.123-.431 19.556 19.556 0 0 1-2.203-1.84 19.41 19.41 0 0 1-1.872-2.148c-.807-1.077-.39-2.51.934-3.116l.453-.227c.01-.05.013-.084.026-.037-.282-1.04-.645-2.129-1.15-3.512a.937.937 0 0 0-.113-.025c-.948.368-1.79.91-2.508 1.613a6.98 6.98 0 0 0-.417.448c.016 2.744 1.323 5.606 3.692 7.946 2.344 2.297 5.171 3.75 7.693 3.942l.213-.165a7.2 7.2 0 0 0 2.334-3.09c-.024.059-.026.01-.05-.058-1.108-.49-2.002-.767-3.499-1.096a4.674 4.674 0 0 1-.048.147zM21.494 25c-3.26 0-6.71-1.82-9.326-4.382l-.052-.054c-2.714-2.68-4.193-6.045-4.113-9.29l.006-.24.151-.186a8.82 8.82 0 0 1 .708-.787 8.945 8.945 0 0 1 3.103-1.98c.142-.053.303-.081.478-.081.394 0 1.28.196 1.508.805.399 1.086.903 2.504 1.27 3.86.102.38.002 1.3-.54 1.636l-.73.364c-.585.269-.56.647-.39.873.501.674 1.083 1.34 1.728 1.982a17.95 17.95 0 0 0 2.01 1.677.74.74 0 0 0 .405.15s.284.092.528-.261c.243-.354.332-.986.332-.986.357-.545 1.256-.561 1.357-.561.106 0 .198.01.284.028 1.704.373 2.72.693 4.02 1.27.579.256.943 1.283.684 1.927a8.697 8.697 0 0 1-2.823 3.73l-.19.148-.408.358z" fill-rule="nonzero" /></svg>