<?xml version="1.0" encoding="utf-8"?>
<!-- Generated by IcoMoon.io -->
<!DOCTYPE svg PUBLIC "-//W3C//DTD SVG 1.1//EN" "http://www.w3.org/Graphics/SVG/1.1/DTD/svg11.dtd">
<svg version="1.1" xmlns="http://www.w3.org/2000/svg" xmlns:xlink="http://www.w3.org/1999/xlink" width="32" height="32" viewBox="0 0 32 32">
<path  d="M21.697 25.426c-3.718 0-7.562-1.713-10.547-4.697l-0.060-0.064 0.001-0.001c-3.097-3.121-4.785-7.041-4.694-10.822l0.006-0.279 0.173-0.219c0.268-0.34 0.532-0.64 0.807-0.916 1.014-1.013 2.205-1.788 3.541-2.306 0.162-0.063 0.346-0.095 0.545-0.095 0.45 0 1.461 0.229 1.721 0.938 0.455 1.267 1.031 2.918 1.45 4.498 0.116 0.444 0.002 1.515-0.618 1.906l-1.476 0.936c0.013 0.011 0.006 0.242 0.199 0.506 0.572 0.784 1.236 1.561 1.972 2.309 0.74 0.727 1.515 1.387 2.293 1.953 0.152 0.112 0.323 0.176 0.461 0.176l0.51-0.713 0.472-0.742c0.408-0.634 1.434-0.652 1.548-0.652 0.121 0 0.227 0.011 0.324 0.033 1.944 0.434 3.102 0.807 4.587 1.48 0.66 0.298 1.076 1.494 0.78 2.245-0.513 1.331-1.288 2.522-2.3 3.534-0.287 0.285-0.595 0.558-0.921 0.812l-0.218 0.17-0.558 0.010zM8.063 10.161c0.013 3.225 1.572 6.692 4.208 9.328l0.080 0.082c2.643 2.642 6.041 4.173 9.308 4.186 0.194-0.163 0.38-0.331 0.555-0.504 0.843-0.845 1.491-1.842 1.923-2.958-0.008-0.007-0.041-0.108-0.077-0.19-1.292-0.576-2.354-0.911-4.1-1.3-0.042 0.005-0.128 0.022-0.196 0.042l-0.84 1.324c-0.52 0.845-1.904 0.981-2.899 0.253-0.841-0.612-1.68-1.326-2.489-2.121-0.802-0.816-1.518-1.656-2.14-2.505-0.409-0.56-0.576-1.225-0.459-1.827 0.090-0.463 0.348-0.846 0.721-1.079l1.32-0.837c0.021-0.077 0.037-0.18 0.034-0.231-0.367-1.367-0.887-2.876-1.316-4.076-0.072-0.026-0.163-0.048-0.227-0.048-1.060 0.416-2.057 1.065-2.903 1.911-0.169 0.171-0.336 0.352-0.502 0.553v0z"></path>
</svg>
