<svg width="32" height="32" viewBox="0 0 32 32" xmlns="http://www.w3.org/2000/svg"><title>C39DFE03-7BA4-4A27-AE11-5F9B4CB1B821</title><path d="M12.154 7.538c-2.523 0-4.615 1.176-4.615 2.177V16.044c-.01.727.129 1.751.55 2.739.701 1.644 1.966 2.593 4.065 2.593 2.1 0 3.364-.949 4.065-2.593.421-.988.56-2.012.55-2.734V9.885c0-1.385-1.798-2.347-4.615-2.347zm0-1.538c3.554 0 6.153 1.39 6.153 3.885v6.118c.004.304-.016.702-.08 1.179a8.553 8.553 0 0 1-.593 2.204c-.93 2.18-2.725 3.527-5.48 3.527-2.755 0-4.55-1.346-5.48-3.527a8.553 8.553 0 0 1-.593-2.205 8.04 8.04 0 0 1-.08-1.154V9.715C6 7.628 8.894 6 12.154 6zM8.308 16.787c.006.377.168.858.608 1.309.638.653 1.69 1.015 3.2 1.015 1.506 0 2.563-.358 3.217-1 .45-.441.628-.914.648-1.287a.769.769 0 0 0-1.536-.083c0 .018-.043.13-.19.273-.339.333-1.008.56-2.14.56-1.125 0-1.779-.226-2.098-.553-.134-.137-.17-.244-.17-.259a.769.769 0 0 0-1.539.025zm16.153-.47v2.794a7.036 7.036 0 0 1-.55 2.758c-.701 1.645-1.965 2.593-4.065 2.593-1.388 0-2.407-.419-3.148-1.178a.77.77 0 0 0-1.101 1.073C16.63 25.417 18.048 26 19.847 26c2.754 0 4.55-1.347 5.48-3.528.3-.706.49-1.453.592-2.204a8.04 8.04 0 0 0 .08-1.154V12.972c0-2.494-2.599-3.885-6.153-3.885a.769.769 0 1 0 0 1.537c2.817 0 4.615.962 4.615 2.347v1.5a.77.77 0 0 0-.685.419s-.04.051-.123.115c-.166.13-.398.211-.73.211-.333 0-.564-.081-.73-.211a.738.738 0 0 1-.124-.117.77.77 0 0 0-1.37.698c.095.187.27.415.547.631.434.338.996.537 1.676.537.61 0 1.126-.16 1.539-.436zm-1.172 4.841a.769.769 0 0 1-1.538.025c0-.015-.036-.122-.17-.26-.32-.326-.589-.305-1.715-.305-.245 0-.471.012-.68.034a.77.77 0 1 1-.16-1.53c.263-.027.543-.041.84-.041 1.51 0 2.177.115 2.815.768.44.45.602.932.608 1.309zm-5.835-8.576a.769.769 0 1 1-1.37.698s-.04-.053-.123-.117c-.167-.13-.398-.212-.73-.212-.333 0-.565.082-.732.211-.082.064-.122.116-.122.116a.77.77 0 0 1-1.37-.7c.096-.187.272-.415.549-.63.433-.336.995-.534 1.675-.534s1.242.199 1.676.536c.277.216.452.444.547.632zm-6.153 0a.769.769 0 1 1-1.37.698s-.04-.053-.124-.117c-.166-.13-.397-.212-.73-.212-.333 0-.564.082-.73.211-.084.064-.123.116-.123.116a.77.77 0 0 1-1.37-.7c.096-.187.271-.415.549-.63.433-.336.995-.534 1.674-.534.68 0 1.243.199 1.676.536.277.216.453.444.548.632z" fill-rule="nonzero" /></svg>