<?xml version="1.0" encoding="utf-8"?>
<!-- Generated by IcoMoon.io -->
<!DOCTYPE svg PUBLIC "-//W3C//DTD SVG 1.1//EN" "http://www.w3.org/Graphics/SVG/1.1/DTD/svg11.dtd">
<svg version="1.1" xmlns="http://www.w3.org/2000/svg" xmlns:xlink="http://www.w3.org/1999/xlink" width="32" height="32" viewBox="0 0 32 32">
<path  d="M25.58 7.548c-0.089 0-0.181 0.009-0.279 0.028-0.989-0.767-2.362-1.049-3.858-0.799-1.948 0.327-3.535 1.2-4.349 2.389-0.020 0.026-0.037 0.052-0.054 0.079-0.026-0.003-0.053-0.005-0.079-0.005h-1.924c-0.027 0-0.053 0.002-0.080 0.005-0.015-0.025-0.031-0.049-0.047-0.073-0.819-1.195-2.405-2.068-4.354-2.395-1.508-0.252-2.871 0.033-3.86 0.799-0.098-0.019-0.188-0.028-0.277-0.028-0.844 0-1.53 0.686-1.53 1.53v1.288c0 0.362 0.131 0.712 0.371 0.991 0.080 0.696 0.271 1.367 0.57 1.999l-0.236 0.116c-0.205 0.101-0.359 0.276-0.433 0.492s-0.059 0.451 0.043 0.657c0.145 0.295 0.44 0.479 0.769 0.479 0.132 0 0.259-0.030 0.379-0.088l0.114-0.056v9.747c0 0.503 0.409 0.913 0.913 0.913s0.913-0.409 0.913-0.913v-8.778c0.715 0.336 1.44 0.452 2.22 0.332 2.109-0.327 4.154-2.087 4.807-4.119h1.365c0.653 2.032 2.699 3.791 4.81 4.119 0.197 0.031 0.393 0.046 0.583 0.046 2.3 0 4.348-2.174 4.665-4.945 0.238-0.277 0.369-0.627 0.369-0.991v-1.288c0-0.844-0.686-1.53-1.529-1.53zM18.639 10.346l0.049-0.079c0.515-0.753 1.664-1.343 3.075-1.578 0.956-0.162 1.822-0.008 2.38 0.442l0.682 0.547 0.347-0.082v0.605l-0.179 0.194-0.176 0.628-0.007 0.16c-0.222 1.754-1.45 3.18-2.736 3.18-0.088 0-0.187-0.008-0.285-0.023-1.409-0.218-2.883-1.503-3.285-2.865l-0.18-0.613 0.316-0.516zM13.667 10.88l-0.175 0.595c-0.4 1.362-1.871 2.647-3.28 2.865-0.098 0.015-0.196 0.023-0.286 0.023-1.294 0-2.524-1.442-2.739-3.205l-0.090-0.667-0.269-0.292v-0.603l0.345 0.082 0.68-0.548c0.559-0.451 1.417-0.606 2.385-0.444 1.41 0.236 2.561 0.828 3.070 1.572l0.36 0.621z"></path>
</svg>
