<svg width="32" height="32" viewBox="0 0 32 32" xmlns="http://www.w3.org/2000/svg"><title>AAA306E4-BC4A-44A6-ACCB-3A961F81A9D0</title><path d="M17.824 14.127c-.12-.448-.693-.76-1.518-.761-.775 0-1.337.277-1.495.657l.804 11.45 1.432-.01.777-11.336zm1.504.177l-.764 11.147 1.644-.013 2.914-11.95c-.124-.072-.876-.295-1.817-.227-1.194.088-1.946.533-1.946 1.043h-.031zm-6.018-.058h-.057c0-.46-.754-.899-1.932-.995-.937-.076-1.673.134-1.792.2l2.828 12.047 1.742-.013-.789-11.239zm7.884-2.478c1.822-.133 3.458.426 3.458 1.736 0 .06-.007.119-.021.176L21.54 26.358a.755.755 0 0 1-.73.573L11.763 27a.755.755 0 0 1-.743-.58l-3-12.786a.742.742 0 0 1-.02-.17c0-1.316 1.623-1.853 3.445-1.705 1.03.083 1.935.38 2.54.88.565-.499 1.405-.771 2.321-.77.923 0 1.76.277 2.324.786.608-.512 1.522-.811 2.564-.887zm-3.062-3.97a.751.751 0 0 1-.032-.073c-.624-1.656-3.65-1.563-3.799-.183a.757.757 0 0 1-1.092.59c-.995-.497-1.627-.025-1.627 1.146a.753.753 0 0 1-.756.748c-.867 0-1.265.375-1.31.973-.037.487.192.861.312.861.418 0 .757.335.757.749a.753.753 0 0 1-.757.749c-1.17 0-1.914-1.22-1.82-2.47.088-1.169.862-2.06 2.121-2.297.273-1.51 1.454-2.414 2.933-2.094 1.054-2.005 4.777-2.024 6.156.11 2.456-.394 4.242 1.067 4.546 3.171.483.196.895.625 1.1 1.142.371.938-.022 1.913-1.107 2.395a.76.76 0 0 1-1-.377.746.746 0 0 1 .38-.99c.345-.152.397-.282.318-.481-.075-.19-.241-.308-.232-.31a.754.754 0 0 1-.926-.73c0-1.55-1.087-2.616-2.825-2.343.942.506 1.313 1.597.86 2.974a.758.758 0 0 1-.953.48.747.747 0 0 1-.485-.944c.263-.798.114-1.124-.284-1.252-.344-.11-.766-.003-.772.012a.76.76 0 0 1-.994.393.746.746 0 0 1-.396-.983c.257-.593.948-.929 1.684-.966zm-5.597 3.45a.744.744 0 0 1-.079 1.057.761.761 0 0 1-1.067-.078c-.57-.656-.44-1.608.156-2.215.64-.651 1.621-.72 2.402-.05.316.27.35.743.077 1.056a.761.761 0 0 1-1.067.075c-.16-.137-.234-.132-.327-.037-.091.093-.104.183-.095.193z" fill-rule="nonzero" /></svg>