<?xml version="1.0" encoding="utf-8"?>
<!-- Generated by IcoMoon.io -->
<!DOCTYPE svg PUBLIC "-//W3C//DTD SVG 1.1//EN" "http://www.w3.org/Graphics/SVG/1.1/DTD/svg11.dtd">
<svg version="1.1" xmlns="http://www.w3.org/2000/svg" xmlns:xlink="http://www.w3.org/1999/xlink" width="32" height="32" viewBox="0 0 32 32">
<path  d="M25.045 13.555c0.294-0.644 0.407-1.368 0.3-1.98-0.061-0.349-0.188-0.662-0.379-0.933 0.219-0.483 0.271-1.028 0.148-1.555-0.284-1.204-1.448-2.148-2.652-2.148-0.348 0-0.684 0.074-0.995 0.219-0.526-0.422-1.201-0.635-1.895-0.565-0.037-0.053-0.074-0.103-0.114-0.151-0.472-0.576-1.206-0.894-2.065-0.894-0.486 0-0.985 0.104-1.431 0.296-0.647-0.832-1.518-1.288-2.474-1.288-0.487 0-0.977 0.121-1.453 0.359-1.223 0.611-1.886 1.687-1.885 3.044-0.578 0.208-1.063 0.625-1.355 1.171-0.22 0.414-0.321 0.88-0.297 1.362-0.865 0.344-1.491 1.036-1.618 1.812-0.087 0.533 0.067 1.058 0.426 1.476-0.232 0.336-0.308 0.728-0.212 1.127l1.884 5.746c-1.156 0.676-1.789 1.643-1.789 2.741 0 0.046 0.001 0.099 0.004 0.15-0.387 0.308-0.703 0.728-0.898 1.203-0.405 0.98-0.215 2.033 0.495 2.748 0.494 0.493 1.207 0.765 2.007 0.765 0.508 0 1.019-0.111 1.496-0.323 0.226 0.406 0.565 0.709 0.996 0.887 0.496 0.204 1.113 0.222 1.636 0.054 0.278 0.278 0.648 0.499 1.042 0.617 0.161 0.049 0.416 0.108 0.726 0.108 0.604 0 1.475-0.226 2.199-1.306 0.066-0.1 0.121-0.212 0.171-0.346l4.818-2.409c0.402-0.201 0.692-0.567 0.794-1.005l2.775-9.563c0.119-0.521-0.034-1.050-0.403-1.42zM8.341 12.545c0.058-0.358 0.652-0.791 1.304-0.791 0.129 0 0.258 0.018 0.383 0.053l0.577 0.166c-0.005 0.059-0.008 0.12-0.008 0.18 0 0.409 0.332 0.741 0.74 0.741s0.742-0.332 0.742-0.741c0-0.271 0.22-0.491 0.492-0.491s0.492 0.22 0.492 0.491c0 0.011-0.003 0.023-0.005 0.036l-0.006 0.042c-0.039 0.283 0.089 0.567 0.325 0.721 0.234 0.155 0.555 0.161 0.793 0.015 0.081-0.050 0.163-0.073 0.249-0.073 0.271 0 0.492 0.221 0.492 0.492 0 0.409 0.333 0.741 0.741 0.741s0.74-0.332 0.74-0.741c0-1.094-0.895-1.993-1.991-1.974-0.2-0.491-0.594-0.881-1.090-1.081 0-0.008 0-0.016 0-0.024 0-0.83 0.873-1.108 1.108-1.108 0.332 0 1.108 0.403 1.108 1.185 0 0.33 0.222 0.623 0.54 0.712 0.316 0.087 0.656-0.046 0.832-0.325 0.106-0.17 0.536-0.244 0.819-0.122 0.454 0.195 0.413 0.737 0.3 1.16-0.089 0.333 0.061 0.681 0.366 0.845 0.291 0.158 0.679 0.091 0.905-0.158 0.381-0.43 0.75-0.52 0.993-0.52 0.107 0 0.211 0.018 0.302 0.052 0.313 0.119 0.492 0.419 0.492 0.821 0 0.408 0.332 0.741 0.741 0.741s0.741-0.333 0.741-0.741c0-0.647-0.223-1.225-0.615-1.648h1.107c0.368 0 0.62 0.124 0.748 0.369 0.201 0.382 0.099 1.066-0.229 1.596-0.087 0.022-0.17 0.053-0.248 0.091l-3.42 1.643-3.636 1.622-7.304-3.398c-0.253-0.084-0.669-0.271-0.619-0.58zM13.485 6.040c0.809 0 1.502 0.689 1.902 1.89l0.004 0.013c-0.331-0.151-0.67-0.229-0.972-0.229-0.849 0-2.002 0.593-2.426 1.687l-0.107-0.236c-0.038-0.084-0.912-2.066 0.808-2.924 0.267-0.133 0.534-0.201 0.791-0.201zM21.448 9.2c0.255-0.509 0.606-0.778 1.014-0.778 0.527 0 1.080 0.461 1.209 1.006 0.119 0.502-0.147 0.945-0.748 1.246l-1.005 0.503c-0.222-0.232-0.496-0.416-0.812-0.537-0.268-0.1-0.549-0.152-0.834-0.152-0.268 0-0.535 0.044-0.796 0.133-0.149-0.513-0.467-0.931-0.911-1.2l0.417-0.84c0.224-0.45 0.613-0.517 0.826-0.517 0.538 0 1.112 0.406 1.112 1.010v1.178l0.528-1.052zM18.46 8.404l-0.174 0.876c-0.28-0.117-0.591-0.18-0.901-0.18-0.226 0-0.45 0.033-0.662 0.096-0.196-0.382-0.478-0.694-0.793-0.932v-0.422c0-0.408 0.722-0.81 1.456-0.81 0.237 0 0.671 0.046 0.921 0.35 0.19 0.231 0.242 0.575 0.153 1.021zM11.829 10.326c-0.634 0.256-1.089 0.822-1.204 1.492l-0.288-0.433c-0.383-0.575-0.467-1.127-0.237-1.555 0.172-0.322 0.506-0.53 0.85-0.53 0.188 0 0.36 0.065 0.499 0.188l0.418 0.373c-0.024 0.141-0.037 0.288-0.037 0.442 0 0.007 0 0.015 0.001 0.023zM10.775 20.599l-1.806-5.473 1.327 0.636 1.485 5.272c-0.312-0.207-0.65-0.354-1.006-0.436zM15.373 22.576c-0.267-0.327-0.606-0.582-0.999-0.749l-0.542-4.367 1.541 0.74v4.376zM8.665 23.454c0-0.337 0.131-0.698 0.351-0.966 0.184-0.226 0.522-0.494 1.085-0.494 0.473 0 0.912 0.216 1.257 0.614-0.429 0.549-0.659 1.146-0.726 1.339-0.128 0.389 0.083 0.809 0.471 0.937 0.383 0.126 0.813-0.092 0.936-0.469 0.156-0.468 0.652-1.34 1.148-1.34 0.517 0 0.898 0.191 1.131 0.566 0.257 0.418 0.279 0.997 0.057 1.443-0.116 0.231-0.102 0.509 0.032 0.719 0.134 0.224 0.369 0.357 0.63 0.357 0.209 0 0.383 0.127 0.518 0.379 0.207 0.391 0.173 0.822 0.098 0.936-0.327 0.489-0.706 0.702-1.126 0.634-0.307-0.050-0.531-0.231-0.604-0.312-0.032-0.26-0.201-0.489-0.454-0.597-0.272-0.112-0.604-0.044-0.805 0.163-0.076 0.076-0.271 0.153-0.496 0.153-0.115 0-0.223-0.020-0.316-0.059-0.096-0.041-0.388-0.161-0.388-0.803 0-0.408-0.332-0.74-0.741-0.74-0.32 0-0.594 0.199-0.698 0.493-0.361 0.24-0.805 0.376-1.231 0.376-0.401 0-0.751-0.119-0.959-0.327-0.409-0.408-0.258-0.923-0.174-1.124 0.178-0.431 0.621-0.866 1.209-0.866v-0.557c-0.14-0.003-0.203-0.235-0.203-0.451zM23.567 15.132l-2.608 8.861-0.872 0.436 2.288-8.714 1.192-0.582zM18.705 17.46l-0.852 8.086-0.689 0.345v-7.691l1.542-0.74z"></path>
</svg>
