<svg width="32" height="32" viewBox="0 0 32 32" xmlns="http://www.w3.org/2000/svg"><title>EF6D907C-842F-4839-899E-FBD70ECB9793</title><path d="M14.788 23.292l7.138-6.944 1.082 1.053-7.138 6.944a2.352 2.352 0 0 1-3.257 0l-.597-.58s1.066-1.55-.39-2.966c-1.457-1.417-2.85-.186-2.85-.186l-.8-.78a2.195 2.195 0 0 1 .004-3.163l7.138-6.944 1.083 1.053-7.138 6.944a.734.734 0 0 0-.004 1.058c1.194-.373 2.507-.146 3.65.965.165.16.314.328.446.503.773 1.018.92 2.116.659 3.137.3.193.71.162.974-.094zm-2.08-3.546c.166.16.315.328.447.503.773 1.018.92 2.116.659 3.137.3.193.71.162.974-.094l7.138-6.944 1.082 1.053-7.138 6.944a2.352 2.352 0 0 1-3.257 0l-.597-.58s1.066-1.55-.39-2.966c-1.457-1.417-2.85-.186-2.85-.186l-.8-.78a2.195 2.195 0 0 1 .004-3.163l7.138-6.944 1.083 1.053-7.138 6.944a.734.734 0 0 0-.004 1.058c1.194-.373 2.507-.146 3.65.965zm5.81-11.221l-7.139 6.944-1.082-1.053 7.138-6.944a2.352 2.352 0 0 1 3.257 0l.597.58s-1.066 1.55.39 2.966c1.457 1.417 2.849.186 2.849.186l.8.78c.897.872.896 2.289-.004 3.163l-7.137 6.945-1.083-1.053 7.138-6.945a.734.734 0 0 0 .004-1.058c-1.194.373-2.507.147-3.65-.964a4.488 4.488 0 0 1-.446-.504c-.773-1.018-.92-2.115-.659-3.137a.793.793 0 0 0-.974.094zm2.079 3.547a4.488 4.488 0 0 1-.447-.504c-.773-1.018-.92-2.115-.659-3.137a.793.793 0 0 0-.974.094l-7.138 6.944-1.082-1.053 7.138-6.944a2.352 2.352 0 0 1 3.257 0l.597.58s-1.066 1.55.39 2.966c1.457 1.417 2.849.186 2.849.186l.8.78c.897.872.896 2.289-.004 3.163l-7.137 6.945-1.083-1.053 7.138-6.945a.734.734 0 0 0 .004-1.058c-1.194.373-2.507.147-3.65-.964zM15.732 6c.423 0 .766.333.766.745a.755.755 0 0 1-.766.744H7.765A.755.755 0 0 1 7 6.745C7 6.333 7.343 6 7.765 6h7.967zm-2.705 2.954c.422 0 .765.334.765.745a.755.755 0 0 1-.765.745H7.765A.755.755 0 0 1 7 9.699c0-.411.343-.745.765-.745h5.262zM9.474 11.91c.423 0 .766.333.766.745a.755.755 0 0 1-.766.744H7.765A.755.755 0 0 1 7 12.654c0-.412.343-.745.765-.745h1.71z" fill-rule="nonzero" /></svg>