<svg width="32" height="32" viewBox="0 0 32 32" xmlns="http://www.w3.org/2000/svg"><title>2623E5C1-077F-4FFD-B6AC-EFE384DC8ED9</title><path d="M18.887 20.12c-.502.365-1.131.726-1.607.914l-.569-1.028a7.65 7.65 0 0 0 1.636-1.032c.546-.459.532-.64.237-.992-.24-.285-.42-.376-1.37.115-1.436.735-1.817.57-2.566-.323-.677-.807-.697-1.496.228-2.435l-.59-.703.696-.585.574.685c.435-.342.98-.706 1.425-.925l.651 1.022a12.06 12.06 0 0 0-1.468 1.006c-.536.45-.532.64-.293.925.31.37.365.373 1.169-.026 1.663-.813 1.938-.753 2.735.196.678.809.88 1.539-.195 2.598l.551.656-.696.584-.548-.653zM14.742 8.994a9.47 9.47 0 0 0-.035-.456c-.144-1.414-.547-1.987-1.404-1.914-.371.031-.655.512-.51 1.214l-1.188.26c-.28-1.361.44-2.58 1.612-2.679 1.689-.142 2.495 1.003 2.696 2.98.01.107.02.215.028.325l1.195-.269c.436-.098 1.021.099 1.305.437l7.629 9.092c.285.34.239.847-.107 1.137l-8.713 7.31a.809.809 0 0 1-1.139-.091l-7.628-9.092c-.285-.339-.375-.95-.202-1.363l2.522-6.004 3.94-.887zm.008 1.646l-2.786.627-2.128 5.066 7.006 8.35 7.47-6.267-7.008-8.351-1.337.3c-.002.144-.006.296-.013.577-.034 1.415-.265 1.856-1.25 2.072a.597.597 0 0 1-.716-.46.614.614 0 0 1 .471-.721c.304-.066.261.015.284-.904l.007-.29z" fill-rule="nonzero" /></svg>