<?xml version="1.0" encoding="utf-8"?>
<!-- Generated by IcoMoon.io -->
<!DOCTYPE svg PUBLIC "-//W3C//DTD SVG 1.1//EN" "http://www.w3.org/Graphics/SVG/1.1/DTD/svg11.dtd">
<svg version="1.1" xmlns="http://www.w3.org/2000/svg" xmlns:xlink="http://www.w3.org/1999/xlink" width="32" height="32" viewBox="0 0 32 32">
<path  d="M10.192 14.258c0.214-1.301 0.798-2.201 1.697-3.099 1.153-1.154 2.683-1.714 4.308-1.714 1.069 0 2.12 0.317 3.039 0.847l1.105 0.657 1.699-2.939-1.102-0.631c-1.436-0.829-3.074-1.414-4.74-1.414-4.876 0-8.908 4.39-9.439 8.293h-2.294l4.006 6.519 3.938-6.519h-2.217z"></path>
<path  d="M23.895 10.342l-3.939 6.518h2.215c-0.562 2.927-3.045 4.877-5.974 4.877-1.065 0-2.113-0.291-3.030-0.817l-1.104-0.64-1.694 2.947 1.104 0.633c1.431 0.822 3.064 1.256 4.723 1.256 2.535 0 4.919-0.965 6.714-2.763 1.5-1.502 2.442-3.217 2.707-5.493h2.283l-4.005-6.518z"></path>
</svg>
