<svg width="32" height="32" viewBox="0 0 32 32" xmlns="http://www.w3.org/2000/svg"><title>AFEFCCB4-0F7D-4E59-8E85-3E8F23BCA006</title><path d="M21.021 19.88l3.785 3.948a.692.692 0 0 1-.996.96l-3.7-3.858c-1.39 1.348-3.262 2.173-5.322 2.173-4.307 0-7.788-3.61-7.788-8.051C7 10.61 10.481 7 14.788 7c4.308 0 7.789 3.61 7.789 8.052 0 1.81-.579 3.482-1.556 4.828zm-6.233 1.84c3.532 0 6.405-2.98 6.405-6.668s-2.873-6.668-6.405-6.668c-3.53 0-6.404 2.98-6.404 6.668s2.873 6.667 6.404 6.667z" fill-rule="nonzero" /></svg>