<svg width="32" height="32" viewBox="0 0 32 32" xmlns="http://www.w3.org/2000/svg"><title>16B6E5DC-3231-4F7E-839D-FC19B44070AD</title><path d="M6.998 15.114l.211.156v6.667c0 .278.38.586.926.586s.926-.308.926-.586l-.004-7.895c-.05-.638-.612-1.137-1.279-1.137-.708 0-1.283.552-1.283 1.231 0 .386.183.742.503.978zM5 14.136c0-1.504 1.254-2.708 2.778-2.708 1.439 0 2.657 1.084 2.77 2.499l.004.114.004 7.896c0 1.256-1.177 2.063-2.42 2.063-1.245 0-2.422-.806-2.422-2.063V15.95A2.662 2.662 0 0 1 5 14.136zm5.98 4.091v2.962h10.204l-.002-2.998a2.283 2.283 0 0 0-.078-.478 1.634 1.634 0 0 0-.168-.35 1.655 1.655 0 0 0-1.406-.768h-6.897a1.655 1.655 0 0 0-1.573 1.118 2.616 2.616 0 0 0-.08.514zm-1.49-.106c.025-.342.056-.587.143-.85a2.993 2.993 0 0 1 .325-.69 3.154 3.154 0 0 1 2.675-1.462h6.897a3.154 3.154 0 0 1 2.858 1.796c.054.117.1.226.136.338.078.234.123.51.148.822l.005.115.002 4.475H9.484l.002-4.438.004-.106zm11.535-2.581v-5.27c0-.99-.838-1.794-1.868-1.794h-6.31c-1.03 0-1.867.805-1.867 1.794v5.27l.392-.184c.37-.173.768-.26 1.182-.26h6.896c.41 0 .818.09 1.183.26l.392.184zm-.64 1.333l-.392-.183a1.3 1.3 0 0 0-.543-.119h-6.896c-.194 0-.373.04-.541.119l-2.528 1.184V10.27C9.485 8.456 11 7 12.847 7h6.31c1.846 0 3.363 1.456 3.363 3.27v7.604l-2.136-1zm5.12-2.736c0-.68-.575-1.232-1.282-1.232-.636 0-1.182.455-1.27 1.06l-.014 7.973c0 .277.38.586.927.586.545 0 .926-.309.926-.586V15.27l.212-.156c.32-.236.503-.592.501-.977zm.782 7.8c0 1.257-1.177 2.063-2.421 2.063-1.244 0-2.422-.806-2.422-2.064l.013-8.08.016-.104c.197-1.337 1.379-2.324 2.75-2.324 1.524 0 2.777 1.205 2.777 2.709a2.65 2.65 0 0 1-.713 1.813v5.988z" fill-rule="nonzero" /></svg>