<?xml version="1.0" encoding="utf-8"?>
<!-- Generated by IcoMoon.io -->
<!DOCTYPE svg PUBLIC "-//W3C//DTD SVG 1.1//EN" "http://www.w3.org/Graphics/SVG/1.1/DTD/svg11.dtd">
<svg version="1.1" xmlns="http://www.w3.org/2000/svg" xmlns:xlink="http://www.w3.org/1999/xlink" width="32" height="32" viewBox="0 0 32 32">
<path  d="M9.821 25.611c-0.19 0-0.381-0.060-0.541-0.176-0.284-0.207-0.427-0.555-0.368-0.903l1.053-6.138-4.458-4.346c-0.252-0.244-0.343-0.611-0.234-0.945s0.398-0.578 0.744-0.628l6.165-0.896 2.755-5.585c0.156-0.315 0.476-0.514 0.828-0.514s0.67 0.199 0.828 0.514l2.755 5.585 6.165 0.896c0.346 0.050 0.635 0.293 0.743 0.628s0.020 0.699-0.235 0.945l-4.456 4.348 1.053 6.138c0.058 0.346-0.084 0.696-0.367 0.901-0.284 0.207-0.66 0.234-0.971 0.071l-5.512-2.898-5.512 2.898c-0.138 0.070-0.285 0.106-0.432 0.106zM15.762 20.644c0.148 0 0.294 0.035 0.43 0.108l4.288 2.254-0.818-4.775c-0.052-0.3 0.047-0.604 0.264-0.816l3.469-3.383-4.795-0.695c-0.3-0.044-0.56-0.233-0.695-0.506l-2.143-4.344-2.144 4.344c-0.135 0.273-0.394 0.462-0.695 0.506l-4.793 0.695 3.469 3.383c0.218 0.211 0.317 0.516 0.265 0.816l-0.82 4.775 4.289-2.254c0.136-0.073 0.282-0.108 0.429-0.108z"></path>
</svg>
