<svg width="32" height="32" viewBox="0 0 32 32" xmlns="http://www.w3.org/2000/svg"><title>AFC62FBF-A03F-4423-8C1B-A28CFD7F6CDB</title><path d="M17.23 8.584v10.21c0 .42-.345.76-.77.76a.765.765 0 0 1-.77-.76V8.64l-1.89 1.89a.777.777 0 0 1-1.09.008.753.753 0 0 1-.007-1.075l3.236-3.237a.777.777 0 0 1 1.097 0l3.236 3.237a.753.753 0 0 1-.007 1.075.777.777 0 0 1-1.089-.007L17.23 8.584zm4.227 14.887l-.028-8.827-1.624.007a.765.765 0 0 1-.773-.757.765.765 0 0 1 .767-.763l2.395-.01a.765.765 0 0 1 .773.758L23 24.228a.765.765 0 0 1-.77.762L10.78 25a.765.765 0 0 1-.77-.76L10 13.919c0-.418.341-.758.764-.76l2.413-.019a.765.765 0 0 1 .776.755.765.765 0 0 1-.765.765l-1.647.013.008 8.807 9.908-.008z" fill-rule="nonzero" /></svg>