<svg width="32" height="32" viewBox="0 0 32 32" xmlns="http://www.w3.org/2000/svg"><title>E5394C53-A4D3-4427-BA97-D84E06370556</title><path d="M18.024 16.932a208.88 208.88 0 0 1-3.061 3.048 66.883 66.883 0 0 1-2.027 1.901c-1.218 1.083-2.654.865-3.532-.289a3.137 3.137 0 0 1-.164-.237 1.3 1.3 0 0 0-.84.296c-.555.44-.598 1.103.128 1.899 1.125 1.235 1.311 2.65.595 3.634-.699.959-2.003 1.112-2.94.25a.572.572 0 0 1-.04-.797.546.546 0 0 1 .781-.04c1.083.996 2.28-.647.793-2.28-1.163-1.275-1.07-2.706.003-3.556.33-.262.71-.43 1.093-.5-.14-.764.022-1.55.545-2.12a310.48 310.48 0 0 1 2.337-2.495l.025-.027a1337.036 1337.036 0 0 1 2.001-2.116 6.09 6.09 0 0 1-.527-2.487C13.194 7.693 15.837 5 19.097 5S25 7.693 25 11.016c0 3.322-2.643 6.015-5.903 6.015-.366 0-.725-.034-1.073-.1zm-1.566-.534a5.948 5.948 0 0 1-1.933-1.578l-1.741 1.841-.025.027a309.916 309.916 0 0 0-2.324 2.481c-.295.321-.25.997.135 1.501.378.497.845.568 1.396.078a65.567 65.567 0 0 0 2.233-2.104 185.537 185.537 0 0 0 2.26-2.246zm-1.033-7.904a4.551 4.551 0 0 0-.755 2.522c0 2.491 1.982 4.511 4.427 4.511 2.445 0 4.427-2.02 4.427-4.511 0-2.492-1.982-4.512-4.427-4.512-.772 0-1.497.201-2.13.555a.762.762 0 0 1-.013.44c-.353 1.052.462 3.289 1.953 4.53a.762.762 0 0 1 .104 1.058.728.728 0 0 1-1.038.107c-1.445-1.203-2.394-3.107-2.548-4.7z" fill-rule="nonzero" /></svg>