<?xml version="1.0" encoding="utf-8"?>
<!-- Generated by IcoMoon.io -->
<!DOCTYPE svg PUBLIC "-//W3C//DTD SVG 1.1//EN" "http://www.w3.org/Graphics/SVG/1.1/DTD/svg11.dtd">
<svg version="1.1" xmlns="http://www.w3.org/2000/svg" xmlns:xlink="http://www.w3.org/1999/xlink" width="32" height="32" viewBox="0 0 32 32">
<path  d="M25.241 6.9c-1.095-1.094-2.549-1.697-4.095-1.697s-3.001 0.603-4.093 1.697c-1.095 1.093-1.697 2.548-1.697 4.094 0 0.484 0.059 0.957 0.173 1.415-2.232 1.907-4.366 3.938-6.344 6.045-0.553 0.592-0.836 1.359-0.797 2.161 0.022 0.446 0.148 0.879 0.358 1.271-0.175 0.084-0.35 0.194-0.514 0.34-0.536 0.479-0.808 1.197-0.808 2.129 0 0.825-0.18 1.394-0.52 1.649-0.361 0.271-0.901 0.193-1.289 0.078-0.24-0.071-0.494 0.068-0.564 0.309-0.071 0.241 0.066 0.494 0.308 0.566 0.324 0.095 0.628 0.142 0.911 0.142 0.458 0 0.856-0.123 1.18-0.366 0.587-0.439 0.885-1.24 0.885-2.378 0-0.659 0.167-1.146 0.499-1.446 0.147-0.133 0.315-0.219 0.477-0.274 0.035 0.034 0.067 0.069 0.103 0.101 0.588 0.521 1.319 0.779 2.049 0.779 0.804 0 1.607-0.313 2.214-0.931 2.006-2.057 4.18-4.037 6.463-5.888 0.329 0.058 0.666 0.088 1.007 0.088 1.547 0 3-0.602 4.095-1.696 1.093-1.094 1.696-2.548 1.696-4.094s-0.604-3-1.697-4.094zM18.928 7.704c0.65-0.439 1.415-0.677 2.217-0.677 1.060 0 2.057 0.413 2.807 1.162s1.163 1.746 1.163 2.806c0 0.8-0.236 1.564-0.674 2.213-0.432 0.135-0.884 0.207-1.338 0.207-1.17 0-2.269-0.455-3.097-1.281-1.176-1.178-1.567-2.877-1.077-4.429zM12.372 21.31c-0.475 0.484-1.244 0.512-1.753 0.062-0.249-0.221-0.397-0.521-0.411-0.845-0.016-0.306 0.094-0.601 0.306-0.827 1.807-1.925 3.749-3.787 5.778-5.546 0.218 0.333 0.472 0.646 0.76 0.934 0.339 0.339 0.712 0.63 1.112 0.871-2.037 1.698-3.982 3.495-5.791 5.35zM18.34 13.8c-0.749-0.75-1.162-1.746-1.162-2.806 0-0.778 0.224-1.522 0.639-2.159-0.056 1.441 0.473 2.869 1.545 3.942 0.999 0.998 2.328 1.548 3.741 1.548 0.069 0 0.139-0.004 0.208-0.006-0.639 0.418-1.383 0.643-2.165 0.643-1.059 0-2.056-0.412-2.805-1.161z"></path>
</svg>
