<?xml version="1.0" encoding="utf-8"?>
<!-- Generated by IcoMoon.io -->
<!DOCTYPE svg PUBLIC "-//W3C//DTD SVG 1.1//EN" "http://www.w3.org/Graphics/SVG/1.1/DTD/svg11.dtd">
<svg version="1.1" xmlns="http://www.w3.org/2000/svg" xmlns:xlink="http://www.w3.org/1999/xlink" width="32" height="32" viewBox="0 0 32 32">
<path  d="M27.407 16.080c0.010-0.413-0.003-0.823-0.039-1.232-0.253-2.838-1.613-5.479-3.859-7.356-2.23-1.864-5.052-2.751-7.945-2.492-2.894 0.258-5.514 1.628-7.378 3.858-0.339 0.405-0.286 1.006 0.118 1.346 0.407 0.338 1.008 0.284 1.347-0.12 1.536-1.839 3.696-2.968 6.082-3.182 2.384-0.211 4.711 0.515 6.549 2.056 1.913 1.599 3.027 3.873 3.18 6.301 0 0.004-0 0.007-0 0.009 0.020 0.236 0.025 0.472 0.029 0.707-0.006 0.342-0.025 0.686-0.070 1.032-0.006 0.048 0.009 0.093 0.011 0.14-0.204 1.707-0.893 3.321-2.021 4.671-1.536 1.837-3.696 2.968-6.084 3.18-3.074 0.275-6.029-1.026-7.912-3.472-0.324-0.419-0.921-0.499-1.338-0.176-0.42 0.321-0.499 0.922-0.177 1.34 0.496 0.646 1.055 1.227 1.666 1.736 2.186 1.829 5.015 2.734 7.93 2.474 2.894-0.259 5.518-1.628 7.38-3.856 1.653-1.975 2.53-4.418 2.53-6.963z"></path>
<path  d="M9.673 14.823h-1.984v-1.984c0-0.537-0.436-0.973-0.974-0.973s-0.974 0.436-0.974 0.973v1.984h-1.984c-0.536 0-0.973 0.436-0.973 0.973s0.437 0.973 0.973 0.973h1.984v1.984c0 0.536 0.436 0.973 0.974 0.973s0.974-0.437 0.974-0.973v-1.984h1.984c0.536 0 0.973-0.436 0.973-0.973s-0.438-0.973-0.973-0.973z"></path>
<path  d="M17.998 21.131l-0.231 0.049 0 0.369c-0.032 0.578-0.109 0.743-0.271 0.894-0.2 0.187-0.446 0.286-0.711 0.286-0.839 0-0.964-0.77-0.964-1.229v-0.296l-0.204-0.066c-0.74-0.235-1.094-0.391-1.469-0.646-0.743-0.476-1.105-0.996-1.105-1.589 0-0.569 0.371-0.981 0.882-0.981 0.311 0 0.598 0.132 1.019 0.461 1.011 0.846 1.295 1.028 2.007 1.028 0.898 0 1.601-0.659 1.601-1.5 0-1.076-1-1.458-1.977-1.69l-1.355-0.331c-1.199-0.296-1.944-1.213-1.944-2.395 0-0.891 0.378-1.713 1.011-2.199 0.336-0.26 0.656-0.429 1.268-0.67l0.176-0.070 0.009-0.189c0.014-0.299 0.053-0.45 0.12-0.614 0.168-0.297 0.511-0.496 0.861-0.496 0.56 0 0.912 0.378 0.966 1.037l0.016 0.189 0.471 0.167c0.743 0.231 1.022 0.4 1.327 0.663 0.369 0.34 0.534 0.646 0.534 0.992 0 0.496-0.373 0.914-0.815 0.914-0.181 0-0.38-0.070-0.541-0.193-0.071-0.054-0.261-0.197-0.554-0.44-0.484-0.372-0.891-0.524-1.403-0.524-0.869 0-1.5 0.547-1.5 1.302 0 0.481 0.257 0.828 0.774 1.056 0.187 0.093 0.393 0.143 1.075 0.309l0.116 0.028c2.375 0.531 3.344 1.459 3.344 3.203 0 1.548-1.041 2.852-2.531 3.172z"></path>
</svg>
