<svg width="32" height="32" viewBox="0 0 32 32" xmlns="http://www.w3.org/2000/svg"><title>44D79279-419D-4CC3-A577-11CD803D5253</title><path d="M15.563 18.935a7.907 7.907 0 0 1-1.472-.315l.24-1.252a8.01 8.01 0 0 0 2.042.283c.76 0 .873-.162.873-.66 0-.403-.085-.605-1.197-.861-1.676-.39-1.873-.794-1.873-2.059 0-1.006.352-1.58 1.387-1.797v-1.215h1.46v1.12c.584.02 1.266.096 1.772.223l-.169 1.306c-.521-.095-1.352-.189-1.887-.189-.746 0-.873.162-.873.565 0 .525.042.566.972.794 1.915.485 2.098.727 2.098 2.073 0 1.14-.332 1.887-1.913 2.023v1.005h-1.46v-1.044zm-5.004 2.579a.853.853 0 0 1 0-1.202.843.843 0 0 1 1.197 0 6.746 6.746 0 0 0 8.269 1.016c3.204-1.934 4.24-6.11 2.315-9.33a6.75 6.75 0 0 0-9.286-2.326c-.827.5-1.401 1.005-1.856 1.607a.843.843 0 0 1-1.186.163.853.853 0 0 1-.162-1.19c.59-.781 1.327-1.43 2.333-2.037a8.393 8.393 0 0 1 5.439-1.144 8.441 8.441 0 0 1 6.168 4.052c2.407 4.023 1.11 9.245-2.894 11.663a8.432 8.432 0 0 1-10.337-1.272zm-.644-7.132l1.816.278c.068.01.124.06.145.129a.197.197 0 0 1-.045.193l-1.282 1.316.06.065-.085.015.303 1.858a.195.195 0 0 1-.072.184.17.17 0 0 1-.189.015l-1.624-.9-1.624.9a.174.174 0 0 1-.189-.015.192.192 0 0 1-.071-.184l.31-1.905-1.314-1.349a.197.197 0 0 1-.045-.193.181.181 0 0 1 .144-.129l1.816-.278.813-1.733a.18.18 0 0 1 .16-.105c.069 0 .13.04.161.105l.812 1.733z" fill-rule="nonzero" /></svg>