<?xml version="1.0" encoding="utf-8"?>
<!-- Generated by IcoMoon.io -->
<!DOCTYPE svg PUBLIC "-//W3C//DTD SVG 1.1//EN" "http://www.w3.org/Graphics/SVG/1.1/DTD/svg11.dtd">
<svg version="1.1" xmlns="http://www.w3.org/2000/svg" xmlns:xlink="http://www.w3.org/1999/xlink" width="32" height="32" viewBox="0 0 32 32">
<path  d="M26.765 13.051c-0.113-0.348-0.413-0.601-0.775-0.653l-6.419-0.933-2.87-5.816c-0.162-0.328-0.496-0.535-0.861-0.535s-0.7 0.207-0.861 0.535l-2.87 5.816-6.419 0.933c-0.361 0.052-0.662 0.306-0.775 0.653s-0.019 0.729 0.243 0.984l4.644 4.527-1.096 6.393c-0.062 0.36 0.086 0.724 0.382 0.939 0.167 0.122 0.365 0.183 0.564 0.183 0.153 0 0.306-0.036 0.447-0.11l5.741-3.018 5.74 3.018c0.324 0.17 0.715 0.142 1.011-0.073s0.444-0.579 0.382-0.939l-1.096-6.393 4.644-4.527c0.262-0.255 0.356-0.636 0.244-0.984z"></path>
</svg>
