<svg width="32" height="32" viewBox="0 0 32 32" xmlns="http://www.w3.org/2000/svg"><title>4E6C09B5-63AB-4DC3-AC81-3CA8C78802E7</title><path d="M22.023 23.558c.08.46-.115.93-.5 1.206a1.265 1.265 0 0 1-1.318.094l-4.206-2.18-4.205 2.18a1.272 1.272 0 0 1-1.317-.094 1.221 1.221 0 0 1-.5-1.208l.803-4.617-3.402-3.27a1.226 1.226 0 0 1-.317-1.267 1.246 1.246 0 0 1 1.011-.84l4.702-.673 2.103-4.2c.21-.42.647-.689 1.122-.689.478 0 .91.265 1.125.689l2.102 4.2 4.702.674c.473.068.863.392 1.01.839.148.445.025.938-.316 1.267l-3.594 3.454-.524-.53.537-.515.168.17c.142.143.21.32.213.496a.74.74 0 0 1-.623.748l-.237.04-.127-.728.739-.125.849 4.879z" fill-rule="nonzero" /></svg>