<svg width="32" height="32" viewBox="0 0 32 32" xmlns="http://www.w3.org/2000/svg"><title>927FDEA4-A823-4050-ADAF-CAC67C4DE9B9</title><path d="M9.763 10.475A.75.75 0 0 1 9 9.738.75.75 0 0 1 9.763 9H20.81a.75.75 0 0 1 .763.738.75.75 0 0 1-.763.737H9.763zm0 4.304A.75.75 0 0 1 9 14.04a.75.75 0 0 1 .763-.738h15.474a.75.75 0 0 1 .763.738.75.75 0 0 1-.763.738H9.763zm0 4.303A.75.75 0 0 1 9 18.344a.75.75 0 0 1 .763-.737h13.26a.75.75 0 0 1 .763.737.75.75 0 0 1-.763.738H9.763zm0 4.918A.75.75 0 0 1 9 23.262a.75.75 0 0 1 .763-.737h7.353a.75.75 0 0 1 .764.737.75.75 0 0 1-.764.738H9.763z" fill-rule="nonzero" /></svg>