<?xml version="1.0" encoding="utf-8"?>
<!-- Generated by IcoMoon.io -->
<!DOCTYPE svg PUBLIC "-//W3C//DTD SVG 1.1//EN" "http://www.w3.org/Graphics/SVG/1.1/DTD/svg11.dtd">
<svg version="1.1" xmlns="http://www.w3.org/2000/svg" xmlns:xlink="http://www.w3.org/1999/xlink" width="32" height="32" viewBox="0 0 32 32">
<path  d="M27.862 15.364l-5.118-6.281c-0.186-0.233-0.419-0.326-0.697-0.326h-15.4c-0.512 0-0.93 0.419-0.93 0.93v12.932c0 0.512 0.419 0.931 0.93 0.931h15.353c0.279 0 0.558-0.139 0.744-0.372l5.118-6.652c0.278-0.326 0.232-0.837 0-1.162zM21.535 21.69h-13.957v-11.071h14.003l4.373 5.349-4.42 5.722z"></path>
<path  d="M19.785 18.873c1.501 0 2.721-1.22 2.721-2.719s-1.22-2.719-2.721-2.719c-1.499 0-2.719 1.22-2.719 2.719s1.22 2.719 2.719 2.719zM19.785 15.001c0.637 0 1.155 0.517 1.155 1.153s-0.518 1.153-1.155 1.153c-0.635 0-1.153-0.517-1.153-1.153s0.517-1.153 1.153-1.153z"></path>
</svg>
