<svg width="32" height="32" viewBox="0 0 32 32" xmlns="http://www.w3.org/2000/svg"><title>0244C2F6-A106-42F5-B657-7D3C02E8AC38</title><path d="M20.362 11.5H8.5v9h11.862c-.038 0-.053-.004-.06-.004-.012.01-.017.025-.038.058l2.949-4.544-2.95-4.564c.02.033.025.048.03.054.014.004.029 0 .07 0zm0-1.5c.415 0 .934.282 1.16.632L25 16.012l-3.478 5.359c-.225.347-.746.629-1.16.629H7.752A.75.75 0 0 1 7 21.25v-10.5c0-.414.337-.75.751-.75h12.611zm-4.323 5.854a2.25 2.25 0 1 1 4.5 0 2.25 2.25 0 0 1-4.5 0zm1.5 0a.75.75 0 1 0 1.5 0 .75.75 0 0 0-1.5 0z" fill-rule="nonzero" /></svg>