<?xml version="1.0" encoding="utf-8"?>
<!-- Generated by IcoMoon.io -->
<!DOCTYPE svg PUBLIC "-//W3C//DTD SVG 1.1//EN" "http://www.w3.org/Graphics/SVG/1.1/DTD/svg11.dtd">
<svg version="1.1" xmlns="http://www.w3.org/2000/svg" xmlns:xlink="http://www.w3.org/1999/xlink" width="32" height="32" viewBox="0 0 32 32">
<path  d="M16.924 20.041c0.065 0.196 0.108 0.352 0.123 0.467 0.018 0.114-0.006 0.2-0.065 0.258-0.060 0.057-0.167 0.092-0.319 0.107s-0.362 0.020-0.63 0.020c-0.278 0-0.495-0.004-0.651-0.012s-0.274-0.024-0.356-0.049c-0.083-0.025-0.14-0.059-0.172-0.102-0.033-0.044-0.060-0.101-0.082-0.172l-0.712-2.128h-3.98l-0.671 2.070c-0.021 0.077-0.050 0.14-0.086 0.193s-0.093 0.093-0.172 0.123c-0.079 0.030-0.19 0.050-0.334 0.061-0.145 0.010-0.335 0.016-0.57 0.016-0.252 0-0.448-0.009-0.589-0.025s-0.24-0.056-0.295-0.118c-0.054-0.062-0.073-0.152-0.057-0.267s0.057-0.267 0.122-0.458l3.267-9.398c0.033-0.093 0.070-0.168 0.115-0.226s0.113-0.1 0.209-0.131c0.095-0.030 0.228-0.049 0.397-0.057s0.392-0.013 0.671-0.013c0.321 0 0.579 0.004 0.769 0.013s0.34 0.027 0.446 0.057c0.106 0.030 0.183 0.075 0.229 0.135s0.087 0.142 0.119 0.246l3.273 9.39zM12.061 12.272h-0.008l-1.498 4.503h3.004l-1.499-4.503z"></path>
<path  d="M24.227 19.942c0 0.164-0.008 0.301-0.021 0.413s-0.035 0.205-0.061 0.279c-0.027 0.073-0.062 0.127-0.102 0.16s-0.088 0.049-0.143 0.049h-4.854c-0.18 0-0.332-0.054-0.455-0.16-0.122-0.107-0.184-0.28-0.184-0.52v-9.619c0-0.054 0.019-0.103 0.053-0.147 0.036-0.044 0.094-0.079 0.177-0.106 0.081-0.027 0.192-0.050 0.331-0.066s0.313-0.025 0.52-0.025c0.212 0 0.388 0.008 0.524 0.025s0.245 0.039 0.327 0.066c0.082 0.027 0.14 0.062 0.176 0.106s0.053 0.093 0.053 0.147v8.523h3.332c0.055 0 0.103 0.014 0.143 0.044 0.040 0.031 0.075 0.080 0.102 0.148s0.048 0.158 0.061 0.27c0.013 0.112 0.021 0.249 0.021 0.413z"></path>
</svg>
