<svg width="32" height="32" viewBox="0 0 32 32" xmlns="http://www.w3.org/2000/svg"><title>08AE6BDE-104E-4F1B-AE43-7673B424F555</title><path d="M9.995 24.569c.214.37.669.51 1.012.312l10.664-6.157.778 1.347-10.665 6.157c-1.035.598-2.4.18-3.043-.935l-.809-1.4s1.668-1.502.376-3.74c-1.292-2.24-3.25-1.239-3.25-1.239l-.987-1.71c-.643-1.114-.324-2.502.713-3.1L15.45 7.946l.778 1.348L5.562 15.45c-.344.199-.45.66-.237 1.028l.398.69c.144-.009.293-.01.45-.003 1.324.06 2.545.8 3.39 2.262.82 1.422.9 2.84.415 4.08-.08.207-.17.397-.266.57l.283.491zm11.01-17.138c-.214-.37-.669-.51-1.012-.312L9.33 13.276 8.55 11.93l10.665-6.157c1.035-.598 2.4-.18 3.043.935l.809 1.4s-1.668 1.502-.376 3.74c1.292 2.24 3.25 1.239 3.25 1.239l.987 1.71c.643 1.114.324 2.502-.713 3.1L15.55 24.054l-.778-1.348 10.665-6.157c.344-.199.45-.66.237-1.028l-.398-.69c-.144.009-.293.01-.45.003-1.324-.06-2.545-.8-3.39-2.262-.82-1.422-.9-2.84-.415-4.08.08-.207.17-.397.266-.57l-.283-.491z" fill-rule="nonzero" /></svg>