<svg width="32" height="32" viewBox="0 0 32 32" xmlns="http://www.w3.org/2000/svg"><title>1E3D5D04-79F1-4C0B-8600-56EFA4C3AEAE</title><path d="M10.702 23.565c.199.344.627.47.954.28l10.157-5.863.722 1.25-10.157 5.865c-.986.569-2.273.193-2.87-.843l-.752-1.3s1.595-1.421.395-3.5c-1.2-2.078-3.064-1.123-3.064-1.123l-.917-1.588c-.597-1.035-.28-2.334.708-2.905l10.157-5.864.722 1.251L6.6 15.09c-.328.19-.433.621-.235.964l.37.64c.136-.01.278-.012.425-.007 1.253.043 2.4.72 3.185 2.079.762 1.32.822 2.644.352 3.809a4.5 4.5 0 0 1-.258.535l.263.456zm-.94-11.283l-.297-.515 10.157-5.864c.986-.569 2.273-.193 2.87.843l.752 1.3s-1.595 1.421-.395 3.5c1.2 2.078 3.064 1.123 3.064 1.123l.917 1.588c.597 1.035.28 2.334-.708 2.905l-10.157 5.864-.365-.633-3.578 2.072-1.376.113-.909-1.45.702-2.948-.867-1.589-2.967-1.704-.83-1.52.294-.996 3.693-2.09z" fill-rule="nonzero" /></svg>