<?xml version="1.0" encoding="utf-8"?>
<!-- Generated by IcoMoon.io -->
<!DOCTYPE svg PUBLIC "-//W3C//DTD SVG 1.1//EN" "http://www.w3.org/Graphics/SVG/1.1/DTD/svg11.dtd">
<svg version="1.1" xmlns="http://www.w3.org/2000/svg" xmlns:xlink="http://www.w3.org/1999/xlink" width="32" height="32" viewBox="0 0 32 32">
<path  d="M26.958 12.247l-2.249-2.248c-0.274-0.274-0.64-0.425-1.027-0.425-0.383 0-0.756 0.155-1.025 0.424-0.177 0.177-0.477 0.178-0.655 0-0.087-0.088-0.136-0.204-0.136-0.328s0.048-0.24 0.136-0.327c0.566-0.566 0.565-1.486-0.001-2.052l-2.249-2.249c-0.273-0.273-0.638-0.425-1.025-0.425s-0.752 0.151-1.026 0.425l-12.658 12.657c-0.274 0.274-0.425 0.638-0.425 1.026s0.151 0.752 0.425 1.027l2.249 2.249c0.274 0.274 0.638 0.424 1.025 0.424s0.752-0.15 1.026-0.425c0.175-0.174 0.481-0.174 0.656 0 0.181 0.181 0.181 0.476 0 0.656-0.274 0.274-0.425 0.638-0.425 1.026s0.151 0.753 0.425 1.027l2.248 2.248c0.274 0.274 0.638 0.426 1.026 0.426s0.752-0.151 1.026-0.426l12.657-12.657c0.566-0.566 0.566-1.486 0.001-2.052zM12.986 14.218l-1.004-1.005 1.232-1.232 1.004 1.005-1.232 1.232zM13.501 14.735l1.233-1.232 1.645 1.645-1.233 1.232-1.645-1.644zM15.621 16.852l1.232-1.232 1.644 1.645-1.232 1.232-1.644-1.645zM18.786 20.019l-1.004-1.004 1.233-1.232 1.004 1.004-1.233 1.232z"></path>
</svg>
