<svg width="32" height="32" viewBox="0 0 32 32" xmlns="http://www.w3.org/2000/svg"><title>232FE519-7B6E-4413-8721-5B9185FB6869</title><path d="M13.025 20.003a1 1 0 0 1-2 0c0-1.845-.29-2.496-1.253-3.556l-.047-.051C8.475 15.018 8 13.98 8 11.748 8 7.186 12.024 5 16.107 5 19.973 5 24 7.33 24 11.748c0 2.128-.46 3.153-1.662 4.543l-.074.086c-.95 1.099-1.25 1.792-1.25 3.626a1 1 0 0 1-2 0c0-2.355.492-3.495 1.737-4.935l.074-.086C21.737 13.93 22 13.342 22 11.748 22 8.728 19.014 7 16.107 7 12.982 7 10 8.62 10 11.748c0 1.687.266 2.268 1.206 3.303l.047.052c1.276 1.405 1.772 2.518 1.772 4.9zm-1.974 2.996a1 1 0 0 1 .989-.997h7.954a.99.99 0 0 1 .988.997 1 1 0 0 1-.988.997H12.04A.99.99 0 0 1 11.05 23zm-.036 3.038c0-.556.454-1.007.993-1.007H20c.548 0 .993.447.993 1.007 0 .557-.455 1.007-.993 1.007h-7.993a.998.998 0 0 1-.993-1.007zm2.7-13.737l2.288 2.336 2.31-2.339a1 1 0 1 1 1.423 1.406l-3.025 3.061a1 1 0 0 1-1.425-.002l-3-3.062a1 1 0 0 1 1.428-1.4z" fill-rule="nonzero" /></svg>
