<?xml version="1.0" encoding="utf-8"?>
<!-- Generated by IcoMoon.io -->
<!DOCTYPE svg PUBLIC "-//W3C//DTD SVG 1.1//EN" "http://www.w3.org/Graphics/SVG/1.1/DTD/svg11.dtd">
<svg version="1.1" xmlns="http://www.w3.org/2000/svg" xmlns:xlink="http://www.w3.org/1999/xlink" width="32" height="32" viewBox="0 0 32 32">
<path  d="M16.007 5.298c-4.060 0-7.363 3.303-7.363 7.363 0 0.033 0.044 3.342 2.733 6.806 0.31 0.411 0.403 1.473 0.368 2.061-0.017 0.294 0.090 0.587 0.293 0.803l0.175 0.168-0.158 0.112c-0.288 0.204-0.453 0.522-0.453 0.873 0 0.507 0.364 0.95 0.867 1.053l0.227 0.047-0.124 0.196c-0.108 0.171-0.165 0.368-0.165 0.571 0 0.593 0.483 1.076 1.076 1.076h5.051c0.593 0 1.076-0.483 1.076-1.076 0-0.202-0.057-0.399-0.164-0.569l-0.124-0.197 0.228-0.045c0.5-0.1 0.864-0.544 0.865-1.056 0-0.345-0.161-0.66-0.443-0.864l-0.158-0.115 0.144-0.132c0.017-0.015 0.033-0.031 0.048-0.047 0.203-0.218 0.308-0.513 0.287-0.808-0.035-0.508 0.026-1.625 0.332-2.033 2.702-3.478 2.747-6.791 2.747-6.824 0.001-4.060-3.302-7.363-7.362-7.363zM16.563 20.516h-1.112l-0.706-5.831 0.278 0.162c0.028 0.016 0.058 0.030 0.087 0.042 0.236 0.099 0.541 0.075 0.752-0.060l0.087-0.055 0.086 0.056c0.254 0.163 0.624 0.159 0.873-0.002l0.086-0.056 0.087 0.055c0.020 0.012 0.039 0.023 0.060 0.034l0.101 0.051-0.68 5.605zM19.617 17.169c-0.224 0.356-0.455 0.687-0.707 1.011-0.262 0.35-0.464 0.812-0.598 1.37l-0.314-0.057 0.859-7.093-1.293-0.156-0.114 0.939-0.189-0.068c-0.117-0.042-0.226-0.059-0.372-0.040l-0.050 0.009c-0.019 0.004-0.038 0.007-0.058 0.012s-0.039 0.013-0.058 0.020l-0.053 0.019c-0.039 0.017-0.076 0.036-0.113 0.059l-0.087 0.055-0.086-0.056c-0.124-0.080-0.277-0.124-0.434-0.124-0.040 0-0.078 0.003-0.116 0.007-0.014 0.002-0.029 0.006-0.045 0.009l-0.049 0.010c-0.052 0.013-0.083 0.025-0.114 0.038-0.048 0.020-0.082 0.038-0.114 0.059l-0.086 0.054-0.086-0.055c-0.161-0.104-0.325-0.125-0.433-0.125-0.060 0-0.12 0.007-0.179 0.020l-0.173 0.040-0.107-0.883-1.291 0.156 0.854 7.062-0.314 0.059-0.015-0.049c-0.14-0.53-0.34-0.972-0.596-1.313-2.147-2.764-2.287-5.382-2.292-5.492 0-1.917 1.045-3.673 2.729-4.588 0.757-0.412 1.616-0.63 2.482-0.63 2.874 0 5.212 2.332 5.212 5.2 0 0.018-0.008 0.173-0.043 0.428-0.108 0.772-0.454 2.33-1.557 4.092z"></path>
</svg>
