<svg width="32" height="32" viewBox="0 0 32 32" xmlns="http://www.w3.org/2000/svg"><title>9247246F-4F96-4522-9F05-90A09DDE4E9A</title><path d="M25 16c0 5.523-4.253 10-9.5 10S6 21.523 6 16s4.253-10 9.5-10S25 10.477 25 16zm-1.426.018c0-4.583-3.72-8.485-8.074-8.485-4.353 0-7.996 3.884-7.996 8.467s3.643 8.485 7.996 8.485c4.353 0 8.074-3.884 8.074-8.467zm-7.438 6.143h-1.66v-1.408a7.429 7.429 0 0 1-1.76-.429l-.283-.11.253-1.647.4.128c.685.22 1.516.354 2.144.354 1.052 0 1.13-.08 1.13-.965 0-.851.004-.847-1.354-1.3-1.99-.671-2.391-1.16-2.391-2.908 0-1.633.611-2.434 2.124-2.616V9.853H16.4v1.411c.509.039.965.11 1.35.216l.305.084-.18 1.681-.386-.076c-.566-.11-1.44-.205-1.97-.205-1.03 0-1.118.072-1.118.939 0 .786.026.815 1.18 1.208 2.172.74 2.567 1.189 2.567 2.96 0 1.646-.578 2.438-2.012 2.659v1.43z"  fill-rule="evenodd"/></svg>