<?xml version="1.0" encoding="utf-8"?>
<!-- Generated by IcoMoon.io -->
<!DOCTYPE svg PUBLIC "-//W3C//DTD SVG 1.1//EN" "http://www.w3.org/Graphics/SVG/1.1/DTD/svg11.dtd">
<svg version="1.1" xmlns="http://www.w3.org/2000/svg" xmlns:xlink="http://www.w3.org/1999/xlink" width="32" height="32" viewBox="0 0 32 32">
<path  d="M17.166 20.981l-0.225 0.049 0 0.358c-0.030 0.561-0.106 0.722-0.262 0.868-0.195 0.182-0.434 0.277-0.69 0.277-0.815 0-0.936-0.748-0.936-1.194v-0.288l-0.198-0.064c-0.719-0.228-1.063-0.38-1.428-0.628-0.722-0.463-1.074-0.967-1.074-1.543 0-0.553 0.36-0.954 0.857-0.954 0.302 0 0.581 0.128 0.99 0.448 0.982 0.822 1.258 0.998 1.949 0.998 0.872 0 1.555-0.64 1.555-1.457 0-1.045-0.971-1.417-1.92-1.642l-1.316-0.321c-1.165-0.288-1.889-1.179-1.889-2.327 0-0.866 0.367-1.664 0.982-2.137 0.327-0.253 0.637-0.417 1.232-0.651l0.171-0.068 0.009-0.184c0.013-0.291 0.052-0.437 0.117-0.597 0.163-0.289 0.497-0.482 0.836-0.482 0.544 0 0.885 0.367 0.938 1.008l0.015 0.183 0.457 0.162c0.723 0.225 0.993 0.389 1.29 0.644 0.358 0.331 0.518 0.628 0.518 0.964 0 0.482-0.363 0.889-0.792 0.889-0.176 0-0.369-0.068-0.525-0.188-0.069-0.052-0.254-0.191-0.539-0.428-0.47-0.361-0.865-0.509-1.363-0.509-0.844 0-1.457 0.532-1.457 1.265 0 0.467 0.25 0.804 0.752 1.026 0.181 0.090 0.381 0.139 1.044 0.3l0.113 0.028c2.308 0.516 3.249 1.418 3.249 3.112-0.001 1.504-1.012 2.771-2.46 3.081z"></path>
<path  d="M16 4.363c-6.417 0-11.637 5.22-11.637 11.637s5.22 11.637 11.637 11.637 11.637-5.22 11.637-11.637c0-6.417-5.22-11.637-11.637-11.637zM16 25.74c-5.371 0-9.741-4.37-9.741-9.741s4.37-9.74 9.741-9.74c5.371 0 9.741 4.37 9.741 9.741s-4.37 9.74-9.741 9.74z"></path>
</svg>
