<?xml version="1.0" encoding="utf-8"?>
<!-- Generated by IcoMoon.io -->
<!DOCTYPE svg PUBLIC "-//W3C//DTD SVG 1.1//EN" "http://www.w3.org/Graphics/SVG/1.1/DTD/svg11.dtd">
<svg version="1.1" xmlns="http://www.w3.org/2000/svg" xmlns:xlink="http://www.w3.org/1999/xlink" width="32" height="32" viewBox="0 0 32 32">
<path  d="M17.613 22.891l-0.311 0.067 0 0.495c-0.042 0.777-0.146 0.999-0.363 1.202-0.27 0.251-0.6 0.384-0.955 0.384-1.127 0-1.296-1.035-1.296-1.652v-0.398l-0.274-0.088c-0.994-0.316-1.471-0.526-1.975-0.869-0.999-0.64-1.486-1.338-1.486-2.135 0-0.764 0.499-1.319 1.186-1.319 0.418 0 0.804 0.177 1.369 0.62 1.359 1.138 1.74 1.381 2.697 1.381 1.206 0 2.151-0.886 2.151-2.016 0-1.446-1.344-1.961-2.657-2.272l-1.821-0.444c-1.612-0.398-2.612-1.632-2.612-3.22 0-1.197 0.508-2.302 1.359-2.956 0.452-0.349 0.882-0.577 1.704-0.901l0.237-0.093 0.012-0.254c0.019-0.402 0.071-0.605 0.162-0.826 0.225-0.399 0.687-0.666 1.156-0.666 0.752 0 1.225 0.508 1.298 1.394l0.020 0.254 0.633 0.224c0.999 0.311 1.374 0.538 1.784 0.892 0.496 0.458 0.717 0.868 0.717 1.333 0 0.666-0.501 1.229-1.095 1.229-0.243 0-0.511-0.094-0.727-0.26-0.096-0.072-0.351-0.264-0.745-0.592-0.65-0.5-1.196-0.704-1.885-0.704-1.168 0-2.016 0.735-2.016 1.749 0 0.646 0.346 1.113 1.041 1.419 0.251 0.124 0.527 0.192 1.445 0.416l0.156 0.038c3.192 0.714 4.494 1.961 4.494 4.306 0 2.080-1.399 3.833-3.403 4.263z"></path>
</svg>
