<svg width="32" height="32" viewBox="0 0 32 32" xmlns="http://www.w3.org/2000/svg"><title>D7D957FA-217B-449D-BC3A-2D236E102E2D</title><path d="M16.15 25v-1.927c2.138-.183 2.85-1.064 2.85-3.21 0-2.166-.356-2.624-3.277-3.597-1.87-.624-2.03-.862-2.03-2.183 0-1.597.462-1.835 2.1-1.835.838 0 2.12.146 2.886.293l.143-1.302c-.677-.184-1.496-.276-2.298-.312V9h-1.318v1.908c-2.315.129-3.01 1.083-3.01 3.138 0 2.128.356 2.642 3.028 3.523 2.19.715 2.28.917 2.28 2.312 0 1.413-.232 1.871-2.12 1.871-.908 0-2.137-.183-3.188-.513L12 22.486c.873.33 1.924.55 2.832.606V25h1.318z"  fill-rule="evenodd"/></svg>