<svg width="32" height="32" viewBox="0 0 32 32" xmlns="http://www.w3.org/2000/svg"><title>326F5394-3290-4789-A4F3-F70938FE45BC</title><path d="M20.202 10.6h3.046c.415 0 .752.333.752.743s-.337.742-.752.742h-.083l-1.401 12.256a.749.749 0 0 1-.748.659h-9.05a.749.749 0 0 1-.748-.657l-1.43-12.258h-.036A.747.747 0 0 1 9 11.343c0-.41.337-.743.752-.743h2.995C13 8.88 14.243 8 16.476 8c2.2 0 3.472.93 3.726 2.6zm-1.533 0c-.207-.769-.857-1.115-2.193-1.115-1.375 0-2.004.314-2.2 1.115h4.393zm2.982 1.485H11.302l1.334 11.43h7.708l1.307-11.43zm-5.94 1.557c0-.41.336-.742.752-.742s.752.333.752.743l-.005 7.834c0 .41-.337.742-.753.742a.747.747 0 0 1-.752-.743l.005-7.834zm-3.007.07a.745.745 0 0 1 .678-.809.75.75 0 0 1 .82.67l.747 7.834a.745.745 0 0 1-.678.808.75.75 0 0 1-.82-.669l-.747-7.834zm6.02-.14a.75.75 0 0 1 .82-.668.745.745 0 0 1 .677.809l-.757 7.834a.75.75 0 0 1-.82.668.745.745 0 0 1-.678-.81l.757-7.833z" fill-rule="nonzero" /></svg>