<?xml version="1.0" encoding="utf-8"?>
<!-- Generated by IcoMoon.io -->
<!DOCTYPE svg PUBLIC "-//W3C//DTD SVG 1.1//EN" "http://www.w3.org/Graphics/SVG/1.1/DTD/svg11.dtd">
<svg version="1.1" xmlns="http://www.w3.org/2000/svg" xmlns:xlink="http://www.w3.org/1999/xlink" width="32" height="32" viewBox="0 0 32 32">
<path  d="M24.065 18.615c-1.292-0.615-2.675-1.081-4.105-1.384l-0.684-0.145 0.4-0.574c0.202-0.291 0.32-0.592 0.34-0.871l0.055-0.451 0.175-0.119c0.317-0.215 0.519-0.556 0.553-0.935l0.202-1.942c0.037-0.346-0.061-0.684-0.276-0.951l-0.169-0.201 0.052-0.517c0.059-0.608 0.214-2.227-0.967-3.278-0.856-0.84-2.179-1.319-3.633-1.319s-2.754 0.459-3.566 1.259c-1.243 1.108-1.090 2.739-1.032 3.352l0.055 0.505-0.135 0.153c-0.013 0.015-0.025 0.028-0.036 0.043-0.22 0.273-0.319 0.609-0.281 0.948l0.202 1.942c0.039 0.38 0.241 0.722 0.554 0.939l0.174 0.12 0.044 0.398c0.028 0.308 0.151 0.628 0.357 0.926l0.396 0.574-0.682 0.144c-1.44 0.305-2.844 0.781-4.175 1.416-0.885 0.465-1.481 1.567-1.381 2.561 0.065 0.691 0.136 1.376 0.207 2.057 0.104 1.024 0.932 1.937 1.926 2.124 4.86 0.78 9.866 0.782 14.789-0.009 0.965-0.18 1.777-1.090 1.885-2.117l0.203-2.050c0.096-1-0.526-2.117-1.447-2.597zM23.444 23.121c-0.040 0.142-0.112 0.236-0.166 0.295l-0.113 0.117-0.153 0.025c-2.297 0.365-4.655 0.55-7.010 0.55-2.352 0-4.704-0.184-6.992-0.547l-0.149-0.024-0.106-0.106c-0.024-0.024-0.056-0.062-0.085-0.1-0.012-0.016-0.027-0.037-0.040-0.059l-0.003-0.006-0.039 0.007-0.015-0.121-0.052-0.111 0.037-0.016-0.004-0.030c-0.068-0.653-0.134-1.304-0.195-1.954l-0.002-0.022 0.012-0.104c0.008-0.049 0.012-0.073 0.020-0.1 0.011-0.039 0.027-0.078 0.043-0.117 0.007-0.020 0.013-0.034 0.020-0.048 0.013-0.028 0.029-0.056 0.045-0.084l0.027-0.047c0.045-0.068 0.081-0.112 0.119-0.146l0.073-0.053c1.664-0.792 3.426-1.298 5.262-1.518 0.249-0.031 0.478-0.161 0.629-0.359 0.076-0.1 0.131-0.211 0.163-0.332s0.039-0.244 0.021-0.366l-0.189-1.351c-0.037-0.275-0.191-0.516-0.424-0.663-0.083-0.052-0.158-0.113-0.222-0.179l-0.111-0.114-0.017-0.159c-0.042-0.38-0.085-0.756-0.131-1.136-0.035-0.301-0.214-0.566-0.48-0.711l-0.215-0.118-0.064-0.708 0.156-0.166c0.204-0.184 0.317-0.433 0.318-0.694 0-0.037-0.002-0.073-0.006-0.11l-0.141-1.271c-0.020-0.212-0.029-0.38-0.030-0.532-0.002-0.589 0.144-0.985 0.475-1.282 0.473-0.465 1.355-0.757 2.295-0.757 0.969 0 1.829 0.297 2.36 0.815 0.201 0.178 0.332 0.439 0.385 0.771 0.039 0.249 0.039 0.551-0.002 0.98l-0.014 0.155c-0.035 0.324-0.072 0.638-0.11 0.954l-0.022 0.167c-0.003 0.030-0.005 0.068-0.005 0.106 0.002 0.264 0.115 0.515 0.31 0.689l0.189 0.168-0.032 0.177-0.055 0.54-0.214 0.117c-0.265 0.145-0.445 0.41-0.481 0.709l-0.152 1.299-0.105 0.112c-0.062 0.066-0.136 0.127-0.22 0.181-0.227 0.145-0.38 0.383-0.422 0.653l-0.196 1.363c-0.017 0.119-0.009 0.246 0.022 0.365 0.032 0.121 0.086 0.23 0.16 0.326 0.154 0.201 0.383 0.332 0.63 0.362 1.845 0.22 3.593 0.718 5.195 1.48 0.129 0.082 0.229 0.191 0.306 0.325 0.037 0.068 0.060 0.118 0.078 0.164l0.013 0.044c0 0.001 0.001 0.002 0.001 0.003l0.018 0.018 0.014 0.145-0.213 2.141z"></path>
</svg>
