<svg width="32" height="32" viewBox="0 0 32 32" xmlns="http://www.w3.org/2000/svg"><title>8F95929F-BF51-4602-9B38-0956AF800196</title><path d="M14.163 13.352c-1.19 0-2.15-.977-2.15-2.176 0-1.199.96-2.176 2.15-2.176s2.149.977 2.149 2.176c0 1.199-.959 2.176-2.15 2.176zm0-1.5c.355 0 .649-.3.649-.676a.663.663 0 0 0-.65-.676c-.354 0-.648.3-.648.676 0 .377.294.676.649.676zm6.552 10.622a.75.75 0 0 0 1.07-1.05l-2.878-2.934a.75.75 0 0 0-.536-.225h-3.415V14.79a.75.75 0 0 0-1.5 0v4.226c0 .414.336.75.75.75h3.85l2.659 2.71zm-6.516-5.924h4.196a.75.75 0 1 0 0-1.5H14.2a.75.75 0 1 0 0 1.5zm-3.366-.092a4.88 4.88 0 0 0 .02 5.483 4.69 4.69 0 0 0 6.607 1.184 4.773 4.773 0 0 0 1.475-1.706 4.89 4.89 0 0 0 .523-1.831.75.75 0 0 0-1.495-.124 3.39 3.39 0 0 1-.362 1.27 3.273 3.273 0 0 1-1.012 1.17c-1.462 1.043-3.473.682-4.5-.812a3.38 3.38 0 0 1-.013-3.794.75.75 0 1 0-1.243-.84z" fill-rule="nonzero" /></svg>