<svg width="32" height="32" viewBox="0 0 32 32" xmlns="http://www.w3.org/2000/svg"><title>70D68E02-F789-4EC0-8A37-C2CEB36FB7D5</title><path d="M20.752 19.639l4.058 4.21a.68.68 0 0 1-.977.943l-3.974-4.123c-1.365 1.322-3.2 2.133-5.22 2.133-4.225 0-7.639-3.543-7.639-7.901S10.414 7 14.638 7s7.639 3.543 7.639 7.901a8.047 8.047 0 0 1-1.525 4.738zm-6.114 1.805c3.464 0 6.281-2.924 6.281-6.543s-2.817-6.543-6.28-6.543c-3.464 0-6.282 2.924-6.282 6.543s2.818 6.543 6.281 6.543zm-3.26-5.938a.826.826 0 0 1 0-1.652h6.6a.826.826 0 0 1 0 1.652h-6.6z" fill-rule="nonzero" /></svg>