<?xml version="1.0" encoding="utf-8"?>
<!-- Generated by IcoMoon.io -->
<!DOCTYPE svg PUBLIC "-//W3C//DTD SVG 1.1//EN" "http://www.w3.org/Graphics/SVG/1.1/DTD/svg11.dtd">
<svg version="1.1" xmlns="http://www.w3.org/2000/svg" xmlns:xlink="http://www.w3.org/1999/xlink" width="32" height="32" viewBox="0 0 32 32">
<path  d="M16 31.84c-8.734 0-15.84-7.106-15.84-15.84s7.106-15.84 15.84-15.84c8.734 0 15.84 7.106 15.84 15.84s-7.106 15.84-15.84 15.84zM16 1.44c-8.028 0-14.56 6.532-14.56 14.56s6.532 14.56 14.56 14.56 14.56-6.532 14.56-14.56-6.532-14.56-14.56-14.56z"></path>
<path  d="M15.91 26.525c-0.146 0-0.296-0.036-0.428-0.109-0.038-0.020-0.078-0.048-0.111-0.076l-0.275-0.19c-0.655-0.458-2.188-1.523-3.204-2.31-3.897-3.035-5.889-5.224-6.269-6.887-0.181-0.55-0.29-1.211-0.296-1.894-0.022-1.808 0.658-3.552 1.872-4.786 1.106-1.124 2.557-1.748 4.085-1.753v0c1.725 0 3.293 0.697 4.421 1.913 1.111-1.26 2.679-1.997 4.383-2.021l0.113-0.001c3.265 0 5.954 2.866 6 6.387 0.013 0.678-0.083 1.341-0.269 1.977-0.315 1.595-2.303 3.904-6.057 6.979-1.446 1.193-2.618 2.076-3.493 2.631-0.144 0.094-0.308 0.141-0.472 0.141v0zM11.346 10.287c-1.108 0.008-2.113 0.44-2.885 1.226-0.887 0.9-1.386 2.185-1.367 3.526 0.008 0.504 0.087 0.989 0.233 1.445 0.176 0.757 1.113 2.432 5.648 5.962 0.894 0.692 2.232 1.627 2.945 2.124 0.753-0.52 1.721-1.263 2.83-2.18 4.434-3.63 5.332-5.341 5.472-6.039 0.152-0.54 0.219-1.028 0.213-1.53-0.033-2.56-1.934-4.642-4.233-4.642-0.007 0-0.090 0.001-0.090 0.001-1.503 0.020-2.854 0.835-3.619 2.177-0.153 0.272-0.442 0.442-0.755 0.448-0.294-0.001-0.607-0.158-0.77-0.427-0.789-1.311-2.145-2.092-3.623-2.092v0z"></path>
</svg>
