<?xml version="1.0" encoding="utf-8"?>
<!-- Generated by IcoMoon.io -->
<!DOCTYPE svg PUBLIC "-//W3C//DTD SVG 1.1//EN" "http://www.w3.org/Graphics/SVG/1.1/DTD/svg11.dtd">
<svg version="1.1" xmlns="http://www.w3.org/2000/svg" xmlns:xlink="http://www.w3.org/1999/xlink" width="32" height="32" viewBox="0 0 32 32">
<path  d="M15.721 31.778c-1.458 0-2.825-0.564-3.849-1.588l-10.143-10.143c-1.036-1.035-1.599-2.418-1.588-3.892 0.012-1.471 0.595-2.858 1.642-3.905l10.305-10.305c1.060-1.059 2.462-1.642 3.949-1.642 1.458 0 2.825 0.564 3.848 1.588l10.143 10.143c2.135 2.134 2.11 5.633-0.055 7.798l-10.304 10.305c-1.059 1.059-2.461 1.643-3.949 1.643zM16.038 1.582c-1.146 0-2.227 0.45-3.044 1.267l-10.305 10.305c-0.808 0.808-1.259 1.877-1.268 3.010-0.009 1.129 0.422 2.187 1.213 2.978l10.143 10.143c0.782 0.782 1.828 1.213 2.944 1.213 1.146 0 2.227-0.45 3.044-1.268l10.305-10.305c1.666-1.666 1.69-4.352 0.055-5.988l-10.143-10.143c-0.782-0.782-1.828-1.213-2.943-1.213z"></path>
<path  d="M22.924 21.773l-3.124-6.2h-6.856l-2.917-5.695c-0.201-0.392-0.682-0.547-1.073-0.346s-0.547 0.681-0.346 1.073l3.362 6.563h6.849l2.682 5.323c0.14 0.278 0.421 0.438 0.713 0.438 0.121 0 0.243-0.028 0.358-0.085 0.393-0.198 0.551-0.677 0.353-1.071z"></path>
</svg>
