<?xml version="1.0" encoding="utf-8"?>
<!-- Generated by IcoMoon.io -->
<!DOCTYPE svg PUBLIC "-//W3C//DTD SVG 1.1//EN" "http://www.w3.org/Graphics/SVG/1.1/DTD/svg11.dtd">
<svg version="1.1" xmlns="http://www.w3.org/2000/svg" xmlns:xlink="http://www.w3.org/1999/xlink" width="30" height="30" viewBox="0 0 30 30">
<path  d="M8.982 20.982l0.155 0.592 0.473-0.203v1.927h0.8v-2.648h-0.628z"></path>
<path  d="M12.626 21.429c0-0.19-0.069-0.81-0.961-0.81-0.282 0-0.559 0.083-0.708 0.166l-0.074 0.041 0.172 0.589 0.115-0.065c0.085-0.048 0.218-0.112 0.387-0.112 0.102 0 0.273 0.030 0.273 0.23 0 0.312-0.309 0.636-0.668 1.012l-0.319 0.343v0.475h1.822v-0.642h-0.755c0.362-0.35 0.716-0.731 0.716-1.227z"></path>
<path  d="M14.178 21.854c0.188-0.131 0.295-0.323 0.295-0.54 0-0.334-0.278-0.694-0.888-0.694-0.267 0-0.522 0.069-0.656 0.138l-0.072 0.037 0.13 0.589 0.123-0.067c0.103-0.056 0.212-0.085 0.323-0.085 0.088 0 0.235 0.023 0.235 0.176 0 0.199-0.351 0.209-0.389 0.21h-0.167v0.57h0.187c0.134 0.002 0.445 0.034 0.445 0.282 0 0.223-0.241 0.247-0.344 0.247-0.135 0-0.286-0.032-0.394-0.084l-0.12-0.057-0.128 0.598 0.076 0.035c0.161 0.075 0.392 0.119 0.62 0.119 0.72 0 1.096-0.423 1.096-0.84-0-0.271-0.138-0.5-0.372-0.634z"></path>
<path  d="M16.687 22.111h-0.29v-1.462h-0.734l-1.015 1.594v0.471h1.013v0.582h0.736v-0.582h0.29v-0.603zM15.444 22.111l0.216-0.353v0.353h-0.216z"></path>
<path  d="M17.568 21.514l0.035-0.225h0.796v-0.639h-1.418l-0.199 1.452 0.137-0.019c0.054-0.007 0.112-0.008 0.178-0.008 0.369-0.001 0.556 0.109 0.556 0.335 0 0.277-0.263 0.307-0.376 0.307-0.121 0-0.25-0.025-0.384-0.076l-0.111-0.042-0.14 0.586 0.080 0.035c0.143 0.063 0.388 0.107 0.596 0.107 0.666 0 1.131-0.397 1.131-0.965 0-0.27-0.099-0.486-0.295-0.645-0.184-0.141-0.444-0.194-0.586-0.205z"></path>
<path  d="M19.751 21.497c-0.097 0-0.181 0.016-0.254 0.040 0.104-0.156 0.257-0.252 0.457-0.286 0.085-0.015 0.164-0.022 0.233-0.025l0.1-0.005v-0.498l-0.023-0.11-0.111 0.006c-0.063 0.004-0.158 0.009-0.289 0.026-0.296 0.050-0.588 0.183-0.779 0.355-0.344 0.303-0.517 0.71-0.517 1.211 0 0.677 0.394 1.115 1.004 1.115 0.653 0 0.95-0.504 0.95-0.972 0-0.249-0.073-0.463-0.212-0.618s-0.337-0.241-0.56-0.241zM19.399 22.163c0.033-0.066 0.089-0.104 0.151-0.104 0.077 0 0.12 0.057 0.144 0.123s0.028 0.14 0.029 0.174c0 0.023-0 0.046-0.001 0.070 0 0.002-0 0.005-0 0.007-0.001 0.019-0.002 0.037-0.004 0.056s-0.004 0.036-0.006 0.054c-0.001 0.003-0.001 0.006-0.001 0.010-0.014 0.087-0.040 0.165-0.090 0.196-0.001 0.001-0.002 0.002-0.004 0.003-0.013 0.007-0.027 0.011-0.044 0.011-0.131 0-0.19-0.215-0.19-0.428 0-0.108 0.014-0.164 0.016-0.17z"></path>
<path  d="M6.993 6.671c-0.458 0-0.831 0.349-0.831 0.777v15.014c0 0.429 0.373 0.778 0.831 0.778s0.83-0.349 0.83-0.778v-15.014c0-0.429-0.373-0.777-0.83-0.777z"></path>
<path  d="M9.581 19.273c0.258 0 0.468-0.21 0.468-0.468v-11.303c0-0.258-0.21-0.468-0.468-0.468s-0.468 0.21-0.468 0.468v11.303c0 0.258 0.21 0.468 0.468 0.468z"></path>
<path  d="M13 7.501c0-0.458-0.373-0.83-0.83-0.83s-0.83 0.372-0.83 0.83v11.303c0 0.458 0.373 0.83 0.83 0.83s0.83-0.372 0.83-0.83v-11.303z"></path>
<path  d="M14.759 19.635c0.458 0 0.831-0.372 0.831-0.83v-11.303c0-0.458-0.373-0.83-0.831-0.83s-0.83 0.372-0.83 0.83v11.303c0 0.458 0.372 0.83 0.83 0.83z"></path>
<path  d="M17.348 19.273c0.258 0 0.467-0.21 0.467-0.468v-11.303c0-0.258-0.209-0.468-0.467-0.468s-0.468 0.21-0.468 0.468v11.303c0 0.258 0.21 0.468 0.468 0.468z"></path>
<path  d="M19.935 6.671c-0.457 0-0.83 0.372-0.83 0.83v11.303c0 0.458 0.372 0.83 0.83 0.83s0.831-0.372 0.831-0.83v-11.303c0-0.458-0.373-0.83-0.831-0.83z"></path>
<path  d="M22.525 6.671c-0.457 0-0.83 0.349-0.83 0.777v15.014c0 0.429 0.372 0.778 0.83 0.778s0.83-0.349 0.83-0.778v-15.014c0-0.429-0.373-0.777-0.83-0.777z"></path>
</svg>
