<?xml version="1.0" encoding="utf-8"?>
<!-- Generated by IcoMoon.io -->
<!DOCTYPE svg PUBLIC "-//W3C//DTD SVG 1.1//EN" "http://www.w3.org/Graphics/SVG/1.1/DTD/svg11.dtd">
<svg version="1.1" xmlns="http://www.w3.org/2000/svg" xmlns:xlink="http://www.w3.org/1999/xlink" width="30" height="30" viewBox="0 0 30 30">
<path fill="#444" d="M17.461 14.075h-5.165c-0.215 0-0.387 0.173-0.387 0.387v5.682c0 0.215 0.172 0.388 0.387 0.388h5.165c0.214 0 0.388-0.174 0.388-0.388v-5.682c0-0.215-0.174-0.387-0.388-0.387zM17.074 19.756h-4.39v-4.907h4.39v4.907z"></path>
<path fill="#444" d="M23.035 10.768l-2.050-3.787c-0.086-0.184-0.263-0.298-0.457-0.298h-11.679c-0.207 0-0.389 0.125-0.465 0.318l-1.734 3.803c-0.020 0.050-0.031 0.111-0.031 0.173 0 0.976 0.511 1.485 1.657 1.649l0.129 0.019v9.772c0 0.275 0.224 0.499 0.499 0.499h11.894c0.134 0 0.259-0.052 0.353-0.146s0.145-0.219 0.145-0.353v-9.774l0.129-0.019c1.145-0.166 1.656-0.674 1.656-1.647 0-0.072-0.016-0.144-0.046-0.21zM9.153 7.776l0.037-0.095h10.924c0.116 0 0.187 0.035 0.517 0.836l0.076 0.183h-11.993l0.105-0.196c0.131-0.246 0.238-0.477 0.335-0.727zM20.299 21.918h-10.897v-9.231h10.897v9.231zM21.53 11.429c-0.164 0.105-3.542 0.148-6.891 0.148-2.99 0-5.958-0.035-6.595-0.091-0.102-0.009-0.187-0.061-0.239-0.145-0.125-0.2-0.068-0.577 0.181-1.22 0.13-0.335 0.26-0.594 0.384-0.821h12.591c0.055 0.117 0.11 0.234 0.166 0.35 0.436 0.904 0.751 1.557 0.403 1.78z"></path>
</svg>
