<?xml version="1.0" encoding="utf-8"?>
<!-- Generated by IcoMoon.io -->
<!DOCTYPE svg PUBLIC "-//W3C//DTD SVG 1.1//EN" "http://www.w3.org/Graphics/SVG/1.1/DTD/svg11.dtd">
<svg version="1.1" xmlns="http://www.w3.org/2000/svg" xmlns:xlink="http://www.w3.org/1999/xlink" width="30" height="30" viewBox="0 0 30 30">
<path  d="M23.999 7.597c-0.342-0.342-0.796-0.531-1.278-0.531h-2.238v-0.888c0-0.466-0.379-0.846-0.845-0.846s-0.845 0.38-0.845 0.846v0.89h-2.935v-0.89c0-0.466-0.38-0.846-0.845-0.846s-0.845 0.38-0.845 0.846v0.89h-2.935v-0.89c0-0.466-0.379-0.846-0.845-0.846s-0.846 0.38-0.846 0.846v0.89h-2.239c-0.997 0-1.808 0.811-1.808 1.808v13.682c0 0.997 0.811 1.809 1.809 1.809h15.417c0.997 0 1.808-0.812 1.808-1.809v-13.681c0.001-0.482-0.188-0.936-0.53-1.279zM7.291 22.674c-0.012-0.001-0.023-0.003-0.034-0.007-0.008-0.004-0.016-0.010-0.023-0.016-0.029-0.022-0.049-0.055-0.049-0.094v-13.681c0-0.014 0.004-0.026 0.008-0.038 0.001-0.003 0.001-0.006 0.002-0.008 0.006-0.013 0.014-0.024 0.023-0.034 0.001-0.001 0.001-0.002 0.002-0.002 0.021-0.021 0.051-0.034 0.083-0.034h2.237v0.889c0 0.175 0.053 0.337 0.145 0.472 0.152 0.225 0.41 0.373 0.701 0.373 0.466 0 0.845-0.379 0.845-0.845v-0.889h2.935v0.889c0 0.233 0.095 0.444 0.248 0.597s0.365 0.248 0.598 0.248c0.466 0 0.846-0.379 0.846-0.845v-0.89h2.934v0.889c0 0.291 0.148 0.549 0.373 0.7 0.037 0.025 0.077 0.045 0.118 0.064 0.009 0.004 0.017 0.010 0.026 0.014 0.101 0.043 0.213 0.067 0.329 0.067 0.466 0 0.845-0.379 0.845-0.845v-0.89h2.237c0.065 0 0.118 0.053 0.118 0.118v13.681c0 0.066-0.053 0.12-0.118 0.12h-15.416c-0.004-0-0.008-0.002-0.012-0.003z"></path>
<path  d="M9.541 12.27l-0 2.268h2.847v-2.268h-0.001z"></path>
<path  d="M9.541 15.16l-0 2.268h2.847v-2.268h-0.001z"></path>
<path  d="M9.541 18.051l-0 2.268h2.847v-2.268h-0.001z"></path>
<path  d="M13.588 18.051h2.847v2.269h-2.847v-2.269z"></path>
<path  d="M13.588 15.16h2.847v2.268h-2.847v-2.268z"></path>
<path  d="M13.588 12.27h2.847v2.268h-2.847v-2.268z"></path>
<path  d="M17.635 18.051h2.847v2.269h-2.847v-2.269z"></path>
<path  d="M17.635 15.16h2.847v2.268h-2.847v-2.268z"></path>
<path  d="M17.635 12.27h2.847v2.268h-2.847v-2.268z"></path>
</svg>
