<?xml version="1.0" encoding="utf-8"?>
<!-- Generated by IcoMoon.io -->
<!DOCTYPE svg PUBLIC "-//W3C//DTD SVG 1.1//EN" "http://www.w3.org/Graphics/SVG/1.1/DTD/svg11.dtd">
<svg version="1.1" xmlns="http://www.w3.org/2000/svg" xmlns:xlink="http://www.w3.org/1999/xlink" width="30" height="30" viewBox="0 0 30 30">
<path fill="#444" d="M22.735 8.086h-15.5c-1.105 0-2.003 0.898-2.003 2.001v2.355c-0.014 0.061-0.023 0.124-0.023 0.19s0.009 0.128 0.023 0.19v7.407c0 1.103 0.898 2.002 2.003 2.002h15.5c1.103 0 2.001-0.899 2.001-2.002v-10.141c0-1.104-0.898-2.001-2.001-2.001zM7.236 9.772h15.5c0.173 0 0.315 0.142 0.315 0.316v1.701h-16.13v-1.701c0-0.174 0.142-0.316 0.316-0.316zM22.735 20.545h-15.5c-0.175 0-0.316-0.143-0.316-0.316v-6.753h16.13v6.754c0 0.173-0.142 0.316-0.315 0.316z"></path>
<path fill="#444" d="M8.614 16.056h1.991v1.687h-1.991v-1.687z"></path>
</svg>
