<?xml version="1.0" encoding="utf-8"?>
<!-- Generated by IcoMoon.io -->
<!DOCTYPE svg PUBLIC "-//W3C//DTD SVG 1.1//EN" "http://www.w3.org/Graphics/SVG/1.1/DTD/svg11.dtd">
<svg version="1.1" xmlns="http://www.w3.org/2000/svg" xmlns:xlink="http://www.w3.org/1999/xlink" width="30" height="30" viewBox="0 0 30 30">
<path  d="M24.343 7.189l-9.151-2.65c-0.19-0.063-0.389-0.062-0.573-0.001l-9.277 2.656c-0.297 0.132-0.49 0.427-0.49 0.751v1.981c0 1.345 1.117 2.438 2.49 2.438 1.168 0 1.431-0.245 1.87-0.647 0.483 0.421 1.338 0.647 1.946 0.647 0.628 0 1.517-0.241 2.012-0.649 0.179 0.172 0.461 0.401 0.87 0.523v3.593c-0.048 0.001-0.095 0.001-0.142 0.001-0.401 0-0.821-0.024-1.227-0.047-0.382-0.022-0.777-0.045-1.149-0.045-0.448 0-0.801 0.033-1.112 0.104-2.726 0.617-3.298 4.76-3.321 4.936-0.057 0.442 0.255 0.848 0.696 0.906 0.448 0.061 0.85-0.259 0.908-0.696 0.048-0.36 0.165-0.902 0.361-1.458 0.246 0.568 0.612 0.988 0.861 1.23-0.142 0.458-0.562 1.617-1.308 2.118-0.247 0.166-0.382 0.453-0.354 0.749s0.216 0.552 0.49 0.668l2.167 0.916c0.1 0.043 0.206 0.064 0.316 0.064 0.802 0 1.204-0.823 2.035-2.684l0.035-0.079c0.095-0.212 0.189-0.422 0.281-0.622 0.127-0.025 0.285-0.050 0.464-0.070v3.38h1.618v-3.34c0.092 0.015 0.187 0.024 0.277 0.044 0.564 1.249 1.305 2.783 1.691 3.149 0.15 0.143 0.348 0.222 0.556 0.222 0.104 0 0.206-0.020 0.303-0.059l2.167-0.875c0.237-0.095 0.417-0.3 0.481-0.546s0.007-0.513-0.154-0.711c-0.962-1.194-1.368-2.353-1.435-2.554-0.117-0.649-0.096-1.394-0.049-1.963 0.455 0.225 1.058 0.583 1.596 0.95 0.243 0.165 0.57 0.185 0.831 0.049 0.939-0.492 1.423-1.374 1.203-2.197-0.025-0.094-0.066-0.181-0.123-0.263-0.399-0.562-1.723-2.422-1.976-2.725-0.030-0.067-0.015-0.437 0.119-0.792 0.091-0.235 0.066-0.505-0.069-0.72-0.104-0.167-0.355-0.446-0.874-0.448-0.882 0-2.831 1.008-3.715 2.401-0.215 0.34-0.503 0.566-0.831 0.717v-3.431c0.259-0.116 0.495-0.262 0.65-0.394 0.469 0.398 1.362 0.633 2.013 0.633 0.613 0 1.45-0.217 1.947-0.635 0.503 0.425 1.217 0.651 1.796 0.651 1.313 0 2.782-1.043 2.782-2.438v-1.981c0-0.324-0.192-0.619-0.505-0.757zM19.643 9.927c0 0.451-0.706 0.79-1.164 0.79s-1.163-0.339-1.163-0.79c0-0.428-0.362-0.79-0.791-0.79s-0.79 0.362-0.79 0.79c0 0.458-0.373 0.83-0.83 0.83-0.443 0-0.939-0.355-0.939-0.83 0-0.428-0.362-0.79-0.79-0.79s-0.79 0.362-0.79 0.79c0 0.451-0.706 0.79-1.163 0.79s-1.164-0.339-1.164-0.79c0-0.428-0.362-0.79-0.79-0.79-0.214 0-0.423 0.090-0.575 0.248-0.146 0.152-0.223 0.346-0.215 0.547 0.010 0.265-0.067 0.485-0.229 0.653-0.343 0.355-0.695 0.406-0.995 0.328-0.483-0.126-0.82-0.531-0.82-0.986v-1.416l8.471-2.364 8.471 2.364v1.41c-0.030 0.695-0.709 0.843-1.006 0.907-0.086 0.019-0.224 0.041-0.389 0.041-0.46 0-0.73-0.164-0.755-0.947-0.014-0.433-0.369-0.786-0.791-0.786-0.428 0-0.79 0.362-0.79 0.79zM18.166 17.111c-0.085 0.105-0.142 0.231-0.166 0.365-0.033 0.192-0.318 1.914-0.039 3.391 0.005 0.026 0.011 0.052 0.019 0.078 0.013 0.044 0.314 1.059 1.11 2.285l-0.594 0.24c-0.311-0.571-0.809-1.604-1.243-2.58-0.097-0.218-0.284-0.381-0.514-0.448-0.638-0.185-1.314-0.279-2.008-0.279-1.064 0-1.822 0.218-1.965 0.262-0.211 0.067-0.387 0.22-0.483 0.419-0.161 0.332-0.33 0.71-0.5 1.089-0.212 0.475-0.524 1.172-0.751 1.575l-0.559-0.236c0.84-1.147 1.133-2.581 1.145-2.645 0.062-0.313-0.067-0.635-0.329-0.82-0.137-0.097-1.322-0.986-0.681-2.216 0.024-0.046 0.044-0.093 0.058-0.143 0.033-0.010 0.067-0.020 0.1-0.027 0.188-0.043 0.434-0.063 0.753-0.063 0.325 0 0.681 0.021 1.058 0.042 0.424 0.025 0.863 0.050 1.315 0.050 1.325 0 2.973-0.2 3.962-1.76 0.351-0.554 0.994-1.031 1.544-1.33 0.020 0.418 0.144 0.766 0.369 1.038 0.161 0.194 0.993 1.349 1.762 2.431-0.005 0.008-0.010 0.017-0.017 0.025-1.182-0.764-1.999-1.12-2.564-1.12-0.33 0-0.58 0.119-0.783 0.375z"></path>
</svg>
