<?xml version="1.0" encoding="utf-8"?>
<!-- Generated by IcoMoon.io -->
<!DOCTYPE svg PUBLIC "-//W3C//DTD SVG 1.1//EN" "http://www.w3.org/Graphics/SVG/1.1/DTD/svg11.dtd">
<svg version="1.1" xmlns="http://www.w3.org/2000/svg" xmlns:xlink="http://www.w3.org/1999/xlink" width="30" height="30" viewBox="0 0 30 30">
<path d="M25.711 6.347c-0.349-0.355-0.92-0.361-1.275-0.012l-9.564 9.382-2.938-2.882c-0.355-0.349-0.926-0.343-1.275 0.012s-0.343 0.926 0.013 1.275l3.569 3.502c0.175 0.172 0.403 0.258 0.631 0.258s0.456-0.086 0.631-0.258l10.195-10.001c0.356-0.349 0.361-0.92 0.013-1.275z"></path>
<path d="M22.551 14.186c-0.498 0-0.901 0.404-0.901 0.901 0 3.736-3.106 6.773-6.922 6.773s-6.922-3.038-6.922-6.773c0-3.735 3.105-6.773 6.922-6.773 0.937 0 1.845 0.18 2.7 0.535 0.46 0.191 0.987-0.027 1.177-0.487s-0.027-0.987-0.487-1.178c-1.075-0.446-2.215-0.672-3.39-0.672-4.811 0-8.725 3.847-8.725 8.576s3.914 8.576 8.725 8.576c4.81 0 8.724-3.847 8.724-8.576 0-0.497-0.404-0.901-0.901-0.901z"></path>
</svg>
