<?xml version="1.0" encoding="utf-8"?>
<!-- Generated by IcoMoon.io -->
<!DOCTYPE svg PUBLIC "-//W3C//DTD SVG 1.1//EN" "http://www.w3.org/Graphics/SVG/1.1/DTD/svg11.dtd">
<svg version="1.1" xmlns="http://www.w3.org/2000/svg" xmlns:xlink="http://www.w3.org/1999/xlink" width="30" height="30" viewBox="0 0 30 30">
<path  d="M23.656 14.984l-7.987-5.916v-4.629c0-0.332-0.184-0.63-0.481-0.777-0.287-0.144-0.654-0.109-0.911 0.085l-4.862 3.681c-0.322 0.244-0.433 0.672-0.271 1.042 0.159 0.362 0.551 0.578 0.951 0.505 1.111-0.203 2.334-0.329 3.192-0.329 0.262 0 0.483 0.012 0.647 0.035v0.355l-8.002 5.918-0.031 0.031c-0.111 0.151-0.17 0.329-0.17 0.516v8.78c0 0.479 0.39 0.868 0.869 0.868 0.021 0 0.040-0.005 0.061-0.006 0.019 0.001 0.037 0.006 0.055 0.006h4.914c0.002 0 0.004 0.001 0.006 0.001s0.004-0.001 0.006-0.001h6.031c0.002 0 0.004 0.001 0.006 0.001s0.004-0.001 0.006-0.001h5.063c0.035 0 0.068-0.006 0.102-0.010 0.035 0.005 0.070 0.011 0.107 0.011 0.232 0 0.45-0.090 0.614-0.254s0.255-0.382 0.254-0.614v-8.78c-0-0.186-0.059-0.365-0.17-0.515zM16.811 23.39h-4.307v-7.812l2.242-4.26 2.065 4.257v7.815zM22.089 23.39h-3.542v-7.949c0-0.079-0.011-0.158-0.043-0.263l-1.526-3.083 5.111 3.719v7.576zM10.813 15.173l-0.012 0.031c-0.022 0.078-0.032 0.158-0.032 0.236v7.949h-3.301v-7.577l4.983-3.719-1.637 3.080zM13.933 6.153v0.796c-0.245-0.026-0.519-0.040-0.818-0.040-0.093 0-0.274 0.036-0.551 0.097l1.369-0.853z"></path>
</svg>
