<?xml version="1.0" encoding="utf-8"?>
<!-- Generated by IcoMoon.io -->
<!DOCTYPE svg PUBLIC "-//W3C//DTD SVG 1.1//EN" "http://www.w3.org/Graphics/SVG/1.1/DTD/svg11.dtd">
<svg version="1.1" xmlns="http://www.w3.org/2000/svg" xmlns:xlink="http://www.w3.org/1999/xlink" width="30" height="30" viewBox="0 0 30 30">
<path  d="M14.844 5.424c-5.26 0-9.539 4.28-9.539 9.539s4.279 9.539 9.539 9.539 9.539-4.28 9.539-9.539c-0.001-5.26-4.28-9.539-9.539-9.539zM14.844 22.747c-4.291 0-7.783-3.492-7.783-7.783s3.491-7.783 7.783-7.783c4.292 0 7.783 3.491 7.783 7.783s-3.491 7.783-7.783 7.783z"></path>
<path  d="M15.722 14.6v-3.906c0-0.485-0.394-0.879-0.878-0.879s-0.878 0.394-0.878 0.879v4.27c0 0.058 0.006 0.115 0.018 0.175 0.003 0.012 0.006 0.023 0.011 0.037l0.019 0.064c0.005 0.020 0.011 0.039 0.020 0.062 0.006 0.015 0.013 0.028 0.027 0.053l0.032 0.059c0.007 0.014 0.014 0.027 0.019 0.035 0.029 0.044 0.061 0.083 0.097 0.119l3.863 3.867c0.166 0.166 0.387 0.256 0.621 0.256 0.235 0 0.456-0.091 0.621-0.257 0.342-0.343 0.342-0.9 0-1.242l-3.591-3.593z"></path>
</svg>
