<?xml version="1.0" encoding="utf-8"?>
<!-- Generated by IcoMoon.io -->
<!DOCTYPE svg PUBLIC "-//W3C//DTD SVG 1.1//EN" "http://www.w3.org/Graphics/SVG/1.1/DTD/svg11.dtd">
<svg version="1.1" xmlns="http://www.w3.org/2000/svg" xmlns:xlink="http://www.w3.org/1999/xlink" width="30" height="30" viewBox="0 0 30 30">
<path  d="M15.254 18.788c0.061 0.184 0.1 0.33 0.116 0.437 0.014 0.107-0.006 0.188-0.062 0.241-0.057 0.054-0.156 0.088-0.299 0.1-0.144 0.013-0.341 0.019-0.591 0.019-0.262 0-0.464-0.004-0.61-0.011s-0.257-0.023-0.334-0.047c-0.076-0.023-0.131-0.054-0.161-0.095s-0.056-0.095-0.076-0.162l-0.668-1.995h-3.729l-0.629 1.942c-0.022 0.071-0.048 0.132-0.081 0.181s-0.087 0.086-0.16 0.115c-0.075 0.029-0.18 0.047-0.316 0.058s-0.314 0.015-0.534 0.015c-0.235 0-0.419-0.007-0.552-0.023s-0.225-0.053-0.276-0.112c-0.052-0.059-0.069-0.142-0.054-0.249s0.054-0.25 0.115-0.43l3.062-8.81c0.031-0.087 0.067-0.157 0.107-0.211s0.106-0.094 0.196-0.123c0.090-0.028 0.214-0.046 0.372-0.053s0.369-0.012 0.629-0.012c0.302 0 0.542 0.004 0.721 0.012s0.318 0.025 0.419 0.053c0.1 0.029 0.171 0.070 0.215 0.127s0.079 0.133 0.111 0.23l3.070 8.802zM10.695 11.505h-0.008l-1.405 4.221h2.816l-1.404-4.221z"></path>
<path  d="M23.327 18.036c0 0.128-0.004 0.236-0.011 0.326s-0.020 0.166-0.034 0.23c-0.016 0.064-0.036 0.119-0.061 0.165s-0.067 0.098-0.122 0.157c-0.057 0.059-0.166 0.134-0.326 0.226-0.162 0.092-0.359 0.18-0.592 0.264-0.232 0.085-0.499 0.155-0.798 0.211s-0.623 0.084-0.971 0.084c-0.681 0-1.295-0.104-1.842-0.314s-1.012-0.523-1.396-0.94c-0.384-0.417-0.678-0.938-0.883-1.561s-0.307-1.351-0.307-2.179c0-0.844 0.113-1.594 0.338-2.249s0.54-1.205 0.944-1.65c0.404-0.445 0.889-0.782 1.454-1.013s1.188-0.345 1.869-0.345c0.276 0 0.542 0.023 0.798 0.069s0.492 0.106 0.71 0.18c0.218 0.074 0.413 0.16 0.588 0.257 0.173 0.097 0.295 0.18 0.364 0.249s0.116 0.127 0.143 0.172c0.025 0.046 0.045 0.105 0.061 0.176 0.015 0.072 0.027 0.156 0.034 0.254s0.011 0.218 0.011 0.361c0 0.154-0.005 0.284-0.015 0.392s-0.029 0.194-0.054 0.261-0.056 0.115-0.092 0.146-0.078 0.046-0.122 0.046c-0.078 0-0.175-0.045-0.292-0.134s-0.269-0.189-0.456-0.299c-0.188-0.11-0.41-0.21-0.668-0.299s-0.567-0.134-0.924-0.134c-0.395 0-0.746 0.081-1.056 0.242s-0.572 0.391-0.791 0.691c-0.217 0.299-0.382 0.661-0.495 1.086s-0.169 0.903-0.169 1.435c0 0.583 0.059 1.089 0.181 1.516 0.12 0.427 0.292 0.779 0.514 1.055s0.491 0.482 0.806 0.618c0.315 0.136 0.669 0.204 1.063 0.204 0.358 0 0.668-0.042 0.929-0.127s0.484-0.178 0.672-0.28c0.187-0.103 0.34-0.195 0.46-0.277 0.121-0.082 0.215-0.123 0.28-0.123 0.052 0 0.093 0.010 0.124 0.031s0.056 0.061 0.076 0.123c0.020 0.061 0.036 0.147 0.046 0.256 0.010 0.111 0.015 0.258 0.015 0.442z"></path>
</svg>
