<?xml version="1.0" encoding="utf-8"?>
<!-- Generated by IcoMoon.io -->
<!DOCTYPE svg PUBLIC "-//W3C//DTD SVG 1.1//EN" "http://www.w3.org/Graphics/SVG/1.1/DTD/svg11.dtd">
<svg version="1.1" xmlns="http://www.w3.org/2000/svg" xmlns:xlink="http://www.w3.org/1999/xlink" width="30" height="30" viewBox="0 0 30 30">
<path  d="M24.717 17.397h0.015v-11.677c0-0.262-0.12-0.51-0.325-0.671-0.207-0.162-0.477-0.219-0.731-0.158l-12.598 3.061c-0.382 0.093-0.652 0.436-0.652 0.83v9.99c-0.188-0.035-0.383-0.060-0.594-0.060-0.684 0-1.45 0.19-2.212 0.549-1.711 0.808-3.371 2.527-3.073 4.129 0.183 0.983 1.053 1.593 2.267 1.593 0.684 0 1.45-0.188 2.21-0.549 1.659-0.78 3.263-2.418 3.091-3.975h0.018v-7.050l10.89-2.645v4.949c-0.187-0.035-0.381-0.059-0.59-0.059-0.685 0-1.451 0.188-2.214 0.548-1.711 0.806-3.371 2.528-3.073 4.127 0.183 0.984 1.051 1.595 2.266 1.595 0.685 0 1.451-0.19 2.212-0.549 1.66-0.782 3.264-2.421 3.093-3.977zM8.297 22.889c-0.529 0.248-1.055 0.385-1.483 0.385-0.205 0-0.559-0.042-0.587-0.2-0.087-0.464 0.716-1.605 2.12-2.269 0.529-0.248 1.056-0.385 1.485-0.385 0.205 0 0.559 0.044 0.589 0.2 0.087 0.465-0.715 1.606-2.123 2.269zM12.134 11.65v-2.197l10.89-2.646v2.198l-10.89 2.645zM20.897 19.83c-0.529 0.248-1.056 0.385-1.484 0.385-0.204 0-0.557-0.042-0.586-0.2-0.087-0.464 0.715-1.606 2.12-2.269 0.529-0.249 1.056-0.385 1.486-0.385 0.204 0 0.557 0.042 0.587 0.2 0.087 0.464-0.715 1.605-2.123 2.269z"></path>
</svg>
