<?xml version="1.0" encoding="utf-8"?>
<!-- Generated by IcoMoon.io -->
<!DOCTYPE svg PUBLIC "-//W3C//DTD SVG 1.1//EN" "http://www.w3.org/Graphics/SVG/1.1/DTD/svg11.dtd">
<svg version="1.1" xmlns="http://www.w3.org/2000/svg" xmlns:xlink="http://www.w3.org/1999/xlink" width="46" height="32" viewBox="0 0 46 32">
<path fill="#c7c6c5" d="M45.225 27.1c0 2.303-1.889 4.192-4.192 4.192h-35.897c-2.303 0-4.192-1.889-4.192-4.192v-22.199c0-2.303 1.889-4.192 4.192-4.192h35.838c2.303 0 4.192 1.889 4.192 4.192l0.059 22.199z"></path>
<path fill="#010101" d="M0.945 4.9h44.28v6.731h-44.28v-6.731z"></path>
<path fill="#fff" d="M4.074 14.642h26.568v5.963h-26.568v-5.963z"></path>
<path fill="#fff" d="M32.886 14.642h9.624v5.963h-9.624v-5.963z"></path>
<path fill="#606161" d="M6.435 17.24h21.491v0.827h-21.491v-0.827z"></path>
<path fill="#606161" d="M34.952 17.24h5.373v0.827h-5.373v-0.827z"></path>
<path fill="none" stroke="#d12a27" stroke-linejoin="miter" stroke-linecap="butt" stroke-miterlimit="10" stroke-width="1.7731" d="M43.69 17.653c0 3.293-2.67 5.963-5.963 5.963s-5.963-2.67-5.963-5.963c0-3.293 2.67-5.963 5.963-5.963s5.963 2.67 5.963 5.963z"></path>
</svg>
