<?xml version="1.0" encoding="utf-8"?>
<!-- Generated by IcoMoon.io -->
<!DOCTYPE svg PUBLIC "-//W3C//DTD SVG 1.1//EN" "http://www.w3.org/Graphics/SVG/1.1/DTD/svg11.dtd">
<svg version="1.1" xmlns="http://www.w3.org/2000/svg" xmlns:xlink="http://www.w3.org/1999/xlink" width="30" height="30" viewBox="0 0 30 30">
<path  d="M20.748 9.202c0-0.19 0.094-0.379 0.281-0.524 0.378-0.29 0.986-0.29 1.365 0 2.257 1.733 3.498 4.043 3.501 6.496 0 0.003 0 0.003 0 0.005 0 2.452-1.242 4.759-3.498 6.493-0.379 0.291-0.986 0.291-1.366 0-0.374-0.288-0.374-0.757 0-1.047 1.895-1.455 2.939-3.389 2.939-5.446v0c0-2.063-1.045-3.999-2.943-5.453-0.184-0.145-0.279-0.335-0.279-0.524v0z"></path>
<path  d="M17.82 11.82c0-0.191 0.097-0.379 0.282-0.525 0.377-0.288 0.987-0.288 1.365 0 2.782 2.141 2.782 5.624 0.002 7.76-0.377 0.289-0.986 0.289-1.365 0-0.375-0.29-0.375-0.756 0-1.046 2.030-1.563 2.030-4.104-0.002-5.667-0.187-0.145-0.282-0.334-0.282-0.523v0z"></path>
<path  d="M8.811 21.149c0 0.19-0.092 0.378-0.283 0.524-0.375 0.289-0.985 0.289-1.361 0-2.26-1.734-3.505-4.043-3.505-6.495 0-0.003 0-0.003 0-0.005 0-2.453 1.243-4.76 3.502-6.495 0.375-0.29 0.987-0.29 1.363 0 0.375 0.289 0.375 0.759 0 1.047-1.894 1.456-2.938 3.39-2.938 5.449v0c0 2.062 1.044 3.999 2.938 5.453 0.189 0.144 0.283 0.332 0.283 0.522v0z"></path>
<path  d="M11.737 18.532c0 0.19-0.095 0.378-0.283 0.524-0.376 0.29-0.987 0.29-1.363 0-2.784-2.14-2.784-5.621-0.002-7.76 0.375-0.289 0.987-0.289 1.363 0s0.376 0.758 0 1.047c-2.032 1.562-2.030 4.105 0.002 5.668 0.187 0.142 0.283 0.332 0.283 0.521v0z"></path>
</svg>
