<?xml version="1.0" encoding="utf-8"?>
<!-- Generated by IcoMoon.io -->
<!DOCTYPE svg PUBLIC "-//W3C//DTD SVG 1.1//EN" "http://www.w3.org/Graphics/SVG/1.1/DTD/svg11.dtd">
<svg version="1.1" xmlns="http://www.w3.org/2000/svg" xmlns:xlink="http://www.w3.org/1999/xlink" width="46" height="32" viewBox="0 0 46 32">
<path fill="#ededee" d="M45.225 27.041c0 2.303-1.889 4.192-4.192 4.192h-35.897c-2.303 0-4.192-1.889-4.192-4.192v-22.199c0-2.362 1.889-4.251 4.192-4.251h35.838c2.303 0 4.192 1.889 4.192 4.192l0.059 22.258z"></path>
<path fill="#004a97" d="M24.797 21.432c4.723 0 9.092-3.897 9.092-8.62 0-5.196-4.31-8.738-9.092-8.738h-4.074c-4.782 0-8.738 3.601-8.738 8.738 0 4.723 3.956 8.62 8.738 8.62h4.074z"></path>
<path fill="#fff" d="M22.553 17.417v-9.387c1.889 0.709 3.247 2.539 3.247 4.723 0 2.125-1.358 3.956-3.247 4.664zM15.705 12.753c0-2.125 1.358-3.956 3.247-4.723v9.387c-1.889-0.709-3.247-2.539-3.247-4.664zM20.723 4.782c-4.369 0-7.97 3.542-7.97 7.97 0 4.369 3.542 7.97 7.97 7.97s7.97-3.542 7.97-7.97c0-4.428-3.542-7.97-7.97-7.97z"></path>
<path fill="#004a97" d="M6.908 27.041c0 0.472 0.354 0.531 0.649 0.531 1.417 0 1.83-1.063 1.83-2.007 0-1.24-0.768-2.066-2.007-2.066-0.236 0-0.413 0-0.531 0l0.059 3.542zM6.258 23.97c0-0.59-0.295-0.531-0.59-0.531v-0.177c0.236 0 0.531 0 0.768 0 0.295 0 0.649 0 1.122 0 1.653 0 2.598 1.122 2.598 2.244 0 0.649-0.354 2.244-2.657 2.244-0.354 0-0.649 0-0.945 0s-0.59 0-0.886 0v-0.177c0.413-0.059 0.59-0.059 0.59-0.472v-3.129z"></path>
<path fill="#004a97" d="M11.749 23.852c-0.177 0-0.295-0.177-0.295-0.295 0-0.177 0.177-0.295 0.295-0.295 0.177 0 0.295 0.118 0.295 0.295 0 0.118-0.118 0.295-0.295 0.295zM11.041 27.631h0.118c0.177 0 0.295 0 0.295-0.236v-1.771c0-0.295-0.118-0.354-0.354-0.472v-0.118c0.295-0.118 0.649-0.236 0.709-0.236s0.059-0.059 0.118-0.059c0.059 0 0.059 0.059 0.059 0.118v2.48c0 0.236 0.118 0.236 0.295 0.236h0.118v0.177c-0.236 0-0.472 0-0.649 0-0.236 0-0.472 0-0.709 0v-0.118z"></path>
<path fill="#004a97" d="M13.343 25.683c0-0.236-0.059-0.295-0.354-0.413v-0.118c0.295-0.118 0.531-0.177 0.827-0.295 0 0 0.059 0 0.059 0.059v0.413c0.354-0.236 0.709-0.472 1.122-0.472 0.531 0 0.768 0.413 0.768 0.886v1.653c0 0.236 0.118 0.236 0.295 0.236h0.118v0.177c-0.236 0-0.472 0-0.709 0s-0.472 0-0.709 0v-0.177h0.118c0.177 0 0.295 0 0.295-0.236v-1.653c0-0.354-0.236-0.531-0.59-0.531-0.236 0-0.531 0.177-0.768 0.295v1.889c0 0.236 0.118 0.236 0.295 0.236h0.118v0.177c-0.236 0-0.472 0-0.709 0s-0.472 0-0.709 0v-0.177h0.118c0.177 0 0.295 0 0.295-0.236v-1.712z"></path>
<path fill="#004a97" d="M18.303 25.801c0.177 0 0.177-0.059 0.177-0.177 0-0.354-0.177-0.59-0.59-0.59s-0.649 0.295-0.768 0.768h1.181zM17.181 26.037c0 0.059 0 0.177 0 0.354 0.059 0.59 0.413 1.122 0.945 1.122 0.354 0 0.649-0.177 0.886-0.413l0.118 0.118c-0.295 0.413-0.649 0.709-1.181 0.709-1.004 0-1.24-1.004-1.24-1.417 0-1.24 0.827-1.653 1.299-1.653 0.531 0 1.063 0.354 1.122 1.004 0 0.059 0 0.059 0 0.118l-0.059 0.059h-1.889z"></path>
<path fill="#004a97" d="M19.72 27.631h0.177c0.177 0 0.295 0 0.295-0.236v-1.83c0-0.177-0.236-0.236-0.354-0.295v-0.118c0.472-0.177 0.709-0.354 0.768-0.354s0.059 0 0.059 0.059v0.59c0.177-0.236 0.413-0.649 0.827-0.649 0.177 0 0.354 0.118 0.354 0.354 0 0.177-0.118 0.354-0.295 0.354s-0.177-0.177-0.413-0.177c-0.118 0-0.472 0.177-0.472 0.531v1.535c0 0.236 0.118 0.236 0.295 0.236h0.354v0.177c-0.354 0-0.649 0-0.886 0s-0.531 0-0.768 0c0.059 0 0.059-0.177 0.059-0.177z"></path>
<path fill="#004a97" d="M22.672 26.922c0.059 0.413 0.354 0.768 0.827 0.768 0.354 0 0.531-0.236 0.531-0.472 0-0.768-1.417-0.531-1.417-1.535 0-0.354 0.295-0.827 1.004-0.827 0.236 0 0.472 0.059 0.709 0.177l0.059 0.649h-0.177c-0.059-0.413-0.295-0.649-0.709-0.649-0.236 0-0.531 0.177-0.531 0.413 0 0.768 1.476 0.531 1.476 1.535 0 0.413-0.354 0.886-1.122 0.886-0.236 0-0.59-0.118-0.768-0.236l-0.059-0.768 0.177 0.059z"></path>
<path fill="#004a97" d="M31.351 24.443h-0.177c-0.118-0.768-0.649-1.063-1.358-1.063-0.768 0-1.83 0.472-1.83 2.066 0 1.299 0.945 2.244 1.948 2.244 0.649 0 1.181-0.413 1.299-1.122l0.177 0.059-0.177 0.945c-0.295 0.177-1.004 0.354-1.417 0.354-1.535 0-2.48-1.004-2.48-2.421 0-1.299 1.181-2.303 2.48-2.303 0.531 0 1.004 0.177 1.535 0.354v0.886z"></path>
<path fill="#004a97" d="M32.059 27.631h0.118c0.177 0 0.295 0 0.295-0.236v-3.601c0-0.413-0.118-0.413-0.354-0.531v-0.118c0.236-0.059 0.531-0.177 0.649-0.295 0.059-0.059 0.118-0.059 0.118-0.059 0.059 0 0.059 0.059 0.059 0.118v4.487c0 0.236 0.118 0.236 0.295 0.236h0.118v0.177c-0.236 0-0.472 0-0.709 0s-0.472 0-0.709 0l0.118-0.177z"></path>
<path fill="#004a97" d="M36.546 27.454c0 0.118 0.059 0.118 0.177 0.118 0.059 0 0.177 0 0.236 0v0.118c-0.295 0-0.827 0.177-0.945 0.177h-0.059v-0.531c-0.413 0.295-0.709 0.531-1.122 0.531-0.354 0-0.709-0.236-0.709-0.768v-1.653c0-0.177 0-0.354-0.413-0.354v-0.118c0.236 0 0.768-0.059 0.827-0.059s0.059 0.059 0.059 0.177v1.653c0 0.177 0 0.768 0.59 0.768 0.236 0 0.531-0.177 0.768-0.413v-1.712c0-0.118-0.295-0.177-0.531-0.236v-0.118c0.59-0.059 0.945-0.118 1.004-0.118s0.059 0.059 0.059 0.118l0.059 2.421z"></path>
<path fill="#004a97" d="M38.022 27.041c0 0.236 0.236 0.649 0.649 0.649 0.709 0 1.004-0.709 1.004-1.24 0-0.709-0.531-1.299-1.063-1.299-0.236 0-0.413 0.177-0.59 0.295v1.594zM38.022 25.328c0.236-0.236 0.59-0.472 0.945-0.472 0.768 0 1.181 0.649 1.181 1.358 0 0.827-0.649 1.712-1.535 1.712-0.472 0-0.709-0.177-0.886-0.236l-0.177 0.177-0.118-0.118c0.059-0.354 0.118-0.768 0.118-1.181v-2.775c0-0.413-0.118-0.413-0.354-0.531v-0.118c0.236-0.059 0.531-0.177 0.649-0.295 0.059-0.059 0.118-0.059 0.118-0.059 0.059 0 0.059 0.059 0.059 0.118v2.421z"></path>
</svg>
