<?xml version="1.0" encoding="utf-8"?>
<!-- Generated by IcoMoon.io -->
<!DOCTYPE svg PUBLIC "-//W3C//DTD SVG 1.1//EN" "http://www.w3.org/Graphics/SVG/1.1/DTD/svg11.dtd">
<svg version="1.1" xmlns="http://www.w3.org/2000/svg" xmlns:xlink="http://www.w3.org/1999/xlink" width="30" height="30" viewBox="0 0 30 30">
<path fill="#444" d="M15.002 4.788c-5.639 0-10.21 4.571-10.21 10.21s4.572 10.211 10.21 10.211c0.044 0 0.088-0.001 0.131-0.002v-8.658h-1.723v-2.492h1.723v-1.675c0-0.737 0.019-1.876 0.555-2.581 0.565-0.747 1.34-1.254 2.674-1.254 2.173 0 3.089 0.31 3.089 0.31l-0.431 2.553c0 0-0.718-0.208-1.388-0.208s-1.27 0.239-1.27 0.909v1.946h2.747l-0.192 2.492h-2.556v8.093c3.989-1.389 6.85-5.182 6.85-9.644 0-5.639-4.571-10.21-10.211-10.21z"></path>
</svg>
