<?xml version="1.0" encoding="utf-8"?>
<!-- Generated by IcoMoon.io -->
<!DOCTYPE svg PUBLIC "-//W3C//DTD SVG 1.1//EN" "http://www.w3.org/Graphics/SVG/1.1/DTD/svg11.dtd">
<svg version="1.1" xmlns="http://www.w3.org/2000/svg" xmlns:xlink="http://www.w3.org/1999/xlink" width="30" height="30" viewBox="0 0 30 30">
<path fill="#444" d="M19.507 6.633c-1.109-1.014-2.614-1.529-4.471-1.529-1.754 0-3.187 0.479-4.258 1.424s-1.723 2.322-1.94 4.094c-0.010 0.087-0.010 0.13-0.009 0.148l0.007 0.011c0.053 0.083 0.094 0.149 0.327 0.253l1.794 0.335c0.002 0.001 0.024 0.001 0.046 0.001 0.297 0 0.373-0.337 0.389-0.44 0.201-1.286 0.629-2.243 1.273-2.844 0.65-0.607 1.438-0.902 2.41-0.902 1.007 0 1.833 0.326 2.525 0.998 0.691 0.669 1.028 1.425 1.028 2.311 0 0.486-0.114 0.922-0.348 1.333-0.161 0.282-0.56 0.8-1.545 1.669-0.811 0.715-1.359 1.247-1.677 1.626-0.423 0.51-0.734 1.022-0.924 1.524-0.262 0.67-0.394 1.474-0.394 2.39 0 0.156 0.005 0.388 0.013 0.697 0.003 0.126 0.009 0.336 0.487 0.336h1.428c0.349 0 0.483-0.278 0.485-0.337 0.017-0.916 0.081-1.584 0.19-1.985 0.108-0.401 0.277-0.759 0.501-1.066 0.155-0.213 0.535-0.639 1.465-1.465 1.142-1.011 1.889-1.847 2.283-2.557 0.391-0.704 0.59-1.484 0.59-2.319-0.001-1.442-0.565-2.689-1.676-3.705z"></path>
<path fill="#444" d="M15.010 22.010c-0.725 0-1.314 0.589-1.314 1.313s0.589 1.314 1.314 1.314c0.724 0 1.313-0.59 1.313-1.314s-0.589-1.313-1.313-1.313z"></path>
</svg>
