<?xml version="1.0" encoding="utf-8"?>
<!-- Generated by IcoMoon.io -->
<!DOCTYPE svg PUBLIC "-//W3C//DTD SVG 1.1//EN" "http://www.w3.org/Graphics/SVG/1.1/DTD/svg11.dtd">
<svg version="1.1" xmlns="http://www.w3.org/2000/svg" xmlns:xlink="http://www.w3.org/1999/xlink" width="30" height="30" viewBox="0 0 30 30">
<path  d="M18.054 9.418c-0.757-0.692-1.777-1.044-3.029-1.044-1.185 0-2.157 0.328-2.89 0.974s-1.178 1.58-1.324 2.777c-0.010 0.082-0.008 0.121-0.007 0.138l0.008 0.074 0.036 0.056c0.066 0.104 0.136 0.176 0.32 0.258l1.204 0.232 0.076 0.005c0.256 0 0.453-0.195 0.501-0.497 0.119-0.764 0.367-1.326 0.736-1.671 0.365-0.342 0.812-0.508 1.366-0.508 0.574 0 1.044 0.185 1.436 0.566 0.39 0.377 0.58 0.801 0.58 1.294 0 0.265-0.062 0.502-0.189 0.725-0.077 0.134-0.3 0.442-0.935 1.002-0.527 0.465-0.886 0.814-1.099 1.067-0.289 0.348-0.502 0.7-0.632 1.044-0.179 0.457-0.269 1.003-0.269 1.62 0 0.101 0.003 0.252 0.009 0.452 0.008 0.299 0.209 0.463 0.566 0.463h0.913c0.365 0 0.559-0.295 0.565-0.466 0.013-0.703 0.068-1.044 0.113-1.207 0.060-0.225 0.155-0.426 0.28-0.598 0.075-0.103 0.291-0.356 0.899-0.895 0.751-0.665 1.246-1.222 1.513-1.701 0.271-0.488 0.409-1.029 0.409-1.606-0.001-0.997-0.389-1.856-1.154-2.555z"></path>
<path  d="M15.008 19.178c-0.604 0-1.094 0.491-1.094 1.094s0.491 1.094 1.094 1.094 1.094-0.491 1.094-1.094c0-0.603-0.491-1.094-1.094-1.094z"></path>
<path  d="M15 4.090c-6.016 0-10.91 4.894-10.91 10.91s4.894 10.91 10.91 10.91 10.91-4.894 10.91-10.91c0-6.016-4.894-10.91-10.91-10.91zM15 24.132c-5.035 0-9.132-4.096-9.132-9.132s4.096-9.132 9.132-9.132c5.035 0 9.132 4.096 9.132 9.132s-4.096 9.132-9.132 9.132z"></path>
</svg>
