<?xml version="1.0" encoding="utf-8"?>
<!-- Generated by IcoMoon.io -->
<!DOCTYPE svg PUBLIC "-//W3C//DTD SVG 1.1//EN" "http://www.w3.org/Graphics/SVG/1.1/DTD/svg11.dtd">
<svg version="1.1" xmlns="http://www.w3.org/2000/svg" xmlns:xlink="http://www.w3.org/1999/xlink" width="30" height="30" viewBox="0 0 30 30">
<path fill="#444" d="M14.945 26.336c-0.215 0-0.43-0.074-0.605-0.223-0.916-0.782-8.958-7.783-8.958-12.835 0-5.273 4.291-9.563 9.563-9.563s9.563 4.289 9.563 9.563c0 5.052-8.040 12.054-8.958 12.835-0.173 0.149-0.389 0.223-0.605 0.223v0zM14.945 5.581c-4.243 0-7.696 3.452-7.696 7.697 0 3.276 5.092 8.537 7.696 10.884 2.605-2.347 7.697-7.608 7.697-10.884 0-4.244-3.452-7.697-7.697-7.697v0z"></path>
<path fill="#444" d="M19.974 11.836c-0.074-0.226-0.265-0.387-0.5-0.421l-2.746-0.399-1.229-2.489c-0.105-0.212-0.317-0.344-0.555-0.344s-0.449 0.132-0.555 0.344l-1.228 2.489-2.746 0.399c-0.235 0.034-0.426 0.195-0.5 0.421s-0.013 0.469 0.157 0.635l1.987 1.937-0.47 2.735c-0.040 0.234 0.054 0.466 0.247 0.606 0.188 0.136 0.449 0.154 0.651 0.046l2.455-1.292 2.457 1.292c0.089 0.046 0.188 0.070 0.288 0.070 0.131 0 0.257-0.041 0.365-0.118 0.192-0.14 0.286-0.372 0.245-0.606l-0.469-2.735 1.987-1.937c0.17-0.166 0.23-0.409 0.157-0.635zM16.555 14.296l0.312 1.82-1.634-0.859c-0.177-0.094-0.401-0.093-0.576 0l-1.634 0.859 0.313-1.82c0.034-0.2-0.032-0.405-0.178-0.549l-1.322-1.288 1.827-0.265c0.201-0.030 0.375-0.156 0.465-0.338l0.817-1.656 0.818 1.656c0.090 0.182 0.264 0.308 0.466 0.338l1.827 0.265-1.323 1.289c-0.146 0.143-0.213 0.347-0.178 0.548z"></path>
</svg>
