<?xml version="1.0" encoding="utf-8"?>
<!-- Generated by IcoMoon.io -->
<!DOCTYPE svg PUBLIC "-//W3C//DTD SVG 1.1//EN" "http://www.w3.org/Graphics/SVG/1.1/DTD/svg11.dtd">
<svg version="1.1" xmlns="http://www.w3.org/2000/svg" xmlns:xlink="http://www.w3.org/1999/xlink" width="30" height="30" viewBox="0 0 30 30">
<path  d="M14.89 3.58c-5.304 0-9.621 4.315-9.621 9.62 0 5.084 8.090 12.127 9.012 12.913 0.175 0.15 0.392 0.225 0.608 0.225s0.434-0.074 0.609-0.225c0.924-0.786 9.013-7.83 9.013-12.913 0-5.305-4.317-9.62-9.622-9.62zM19.793 12.387l-1.999 1.949 0.472 2.752c0.041 0.235-0.054 0.468-0.247 0.609-0.109 0.078-0.235 0.119-0.367 0.119-0.101 0-0.2-0.025-0.29-0.070l-2.473-1.3-2.471 1.3c-0.203 0.107-0.466 0.090-0.655-0.048-0.194-0.14-0.289-0.374-0.249-0.609l0.472-2.752-1.999-1.949c-0.171-0.167-0.232-0.411-0.158-0.638s0.267-0.39 0.502-0.424l2.763-0.401 1.235-2.504c0.106-0.214 0.32-0.346 0.559-0.346s0.453 0.133 0.559 0.346l1.237 2.504 2.763 0.401c0.235 0.034 0.429 0.196 0.503 0.423s0.014 0.472-0.157 0.639z"></path>
</svg>
