<?xml version="1.0" encoding="utf-8"?>
<!-- Generated by IcoMoon.io -->
<!DOCTYPE svg PUBLIC "-//W3C//DTD SVG 1.1//EN" "http://www.w3.org/Graphics/SVG/1.1/DTD/svg11.dtd">
<svg version="1.1" xmlns="http://www.w3.org/2000/svg" xmlns:xlink="http://www.w3.org/1999/xlink" width="30" height="30" viewBox="0 0 30 30">
<path fill="#444" d="M26.553 5.637c-0.147-0.364-0.496-0.6-0.89-0.6h-21.626c-0.391 0-0.74 0.234-0.889 0.599-0.148 0.363-0.064 0.774 0.213 1.046l8.484 8.371v8.92c0 0.341 0.183 0.659 0.48 0.833 0.145 0.083 0.311 0.128 0.481 0.128 0.168 0 0.333-0.044 0.476-0.126l4.087-2.33c0.3-0.17 0.486-0.49 0.486-0.836v-6.589l8.482-8.37c0.278-0.275 0.362-0.686 0.215-1.046zM13.481 13.967l-7.101-7.007h16.94l-7.096 7.003c-0.184 0.177-0.29 0.427-0.29 0.686v6.433l-2.167 1.235v-7.668c0-0.254-0.104-0.502-0.286-0.682z"></path>
</svg>
