<?xml version="1.0" encoding="utf-8"?>
<!-- Generated by IcoMoon.io -->
<!DOCTYPE svg PUBLIC "-//W3C//DTD SVG 1.1//EN" "http://www.w3.org/Graphics/SVG/1.1/DTD/svg11.dtd">
<svg version="1.1" xmlns="http://www.w3.org/2000/svg" xmlns:xlink="http://www.w3.org/1999/xlink" width="30" height="30" viewBox="0 0 30 30">
<path  d="M24.054 8.152h-4.205c-0.272-0.373-0.742-0.62-1.277-0.62h-6.536c-0.535 0-1.005 0.247-1.277 0.62h-4.597c-0.482 0-0.871 0.35-0.871 0.781v12.756c0 0.431 0.389 0.781 0.871 0.781h17.892c0.481 0 0.871-0.349 0.871-0.781v-12.756c0-0.431-0.39-0.781-0.871-0.781zM23.183 20.907h-16.149v-11.193h3.78c0.278 0.334 0.721 0.552 1.223 0.552h6.536c0.501 0 0.944-0.218 1.223-0.552h3.387v11.193z"></path>
<path  d="M13.86 15.859c-0.447-0.143-0.907-0.242-1.373-0.299 0.808-0.345 1.375-1.136 1.375-2.056 0-1.237-1.025-2.244-2.284-2.244-1.261 0-2.289 1.006-2.289 2.244 0 0.919 0.569 1.71 1.379 2.056-0.468 0.057-0.933 0.156-1.385 0.301-0.856 0.284-1.479 1.123-1.421 1.91l0.121 1.578c0.032 0.41 0.412 0.727 0.869 0.727h5.45c0.458 0 0.838-0.317 0.87-0.727l0.119-1.576c0.064-0.788-0.563-1.629-1.43-1.914zM11.577 12.823c0.29 0 0.541 0.318 0.541 0.681s-0.252 0.681-0.541 0.681c-0.296 0-0.547-0.311-0.547-0.681s0.25-0.681 0.547-0.681zM13.487 18.513h-3.823l-0.065-0.842c0.003-0.084 0.138-0.295 0.277-0.342 1.093-0.35 2.31-0.348 3.389-0.003 0.149 0.050 0.282 0.259 0.284 0.341l-0.063 0.845z"></path>
<path  d="M16.976 13.064c-0.481 0-0.871 0.35-0.871 0.781s0.39 0.781 0.871 0.781h3.631c0.481 0 0.871-0.35 0.87-0.781s-0.39-0.781-0.871-0.781h-3.631z"></path>
<path  d="M20.607 15.536h-3.631c-0.481 0-0.871 0.35-0.871 0.781 0 0.432 0.39 0.782 0.871 0.782h3.631c0.481 0 0.871-0.35 0.87-0.782 0.001-0.43-0.389-0.781-0.871-0.781z"></path>
</svg>
