<?xml version="1.0" encoding="utf-8"?>
<!-- Generated by IcoMoon.io -->
<!DOCTYPE svg PUBLIC "-//W3C//DTD SVG 1.1//EN" "http://www.w3.org/Graphics/SVG/1.1/DTD/svg11.dtd">
<svg version="1.1" xmlns="http://www.w3.org/2000/svg" xmlns:xlink="http://www.w3.org/1999/xlink" width="30" height="30" viewBox="0 0 30 30">
<path fill="#444" d="M22.96 9.498h-2.427c0.461-0.572 0.713-1.278 0.713-2.024 0-0.863-0.336-1.674-0.945-2.284-1.22-1.22-3.346-1.22-4.566 0-0.401 0.4-0.638 1.027-0.779 1.696-0.14-0.67-0.378-1.295-0.779-1.696-1.218-1.222-3.345-1.222-4.568 0-1.175 1.177-1.251 3.041-0.231 4.307h-2.427c-0.862 0-1.563 0.702-1.563 1.565v1.375c0 0.709 0.477 1.303 1.125 1.494v9.387c0 0.863 0.701 1.565 1.565 1.565h13.758c0.862 0 1.565-0.703 1.565-1.565v-9.387c0.647-0.192 1.124-0.785 1.124-1.494v-1.375c-0-0.863-0.704-1.565-1.566-1.565zM22.897 12.374h-5.836v-1.248h5.836v1.248zM13.667 12.374v-1.248h2.58v1.248h-2.58zM16.247 14.003v9.253h-2.58v-9.253h2.58zM16.886 6.342c0.604-0.604 1.659-0.604 2.263 0 0.302 0.303 0.468 0.704 0.468 1.132s-0.165 0.829-0.468 1.131c-0.224 0.223-1.040 0.484-2.608 0.484-0.048 0-0.096-0-0.142-0.001-0.010-1.098 0.127-2.387 0.487-2.746zM10.761 6.343c0.304-0.303 0.706-0.469 1.134-0.469s0.829 0.166 1.131 0.469c0.334 0.335 0.5 1.567 0.487 2.746-0.046 0-0.094 0.001-0.142 0.001-1.568 0-2.386-0.261-2.609-0.484-0.623-0.623-0.623-1.638-0.001-2.263zM7.017 11.126h5.836v1.248h-5.836v-1.248zM8.142 14.003h4.711v9.253h-4.711v-9.253zM17.061 23.256v-9.253h4.711v9.253h-4.711z"></path>
</svg>
