<?xml version="1.0" encoding="utf-8"?>
<!-- Generated by IcoMoon.io -->
<!DOCTYPE svg PUBLIC "-//W3C//DTD SVG 1.1//EN" "http://www.w3.org/Graphics/SVG/1.1/DTD/svg11.dtd">
<svg version="1.1" xmlns="http://www.w3.org/2000/svg" xmlns:xlink="http://www.w3.org/1999/xlink" width="30" height="30" viewBox="0 0 30 30">
<path  d="M24.375 7.646h-11.109v9.36h11.109v-9.36zM23.224 15.63c0 0.124-0.101 0.225-0.225 0.225h-8.357c-0.124 0-0.225-0.101-0.225-0.225v-6.608c0-0.124 0.101-0.225 0.225-0.225h8.357c0.124 0 0.225 0.101 0.225 0.225v6.608z"></path>
<path  d="M18.055 18.417h-4.388c-0.317 0-0.575 0.258-0.575 0.575s0.258 0.575 0.575 0.575h4.388c0.317 0 0.575-0.258 0.575-0.575s-0.258-0.575-0.575-0.575z"></path>
<path  d="M21.483 18.274c-0.998 0-1.81 0.813-1.81 1.812s0.812 1.812 1.81 1.812c0.999 0 1.812-0.813 1.812-1.812s-0.813-1.812-1.812-1.812zM21.483 20.978c-0.491 0-0.89-0.4-0.89-0.892s0.399-0.892 0.89-0.892c0.492 0 0.892 0.4 0.892 0.892s-0.4 0.892-0.892 0.892z"></path>
<path  d="M11.763 17.305v-6.493h-4.041l-2.208 4.329v4.427h1.839c0.248-1.483 1.526-2.577 3.051-2.577 0.474 0 0.938 0.108 1.359 0.314zM7.066 17.455c-0.044 0.055-0.109 0.086-0.177 0.086-0.025 0-0.050-0.004-0.074-0.012-0.091-0.031-0.151-0.117-0.151-0.213v-1.844c0-0.035 0.008-0.070 0.025-0.102l1.675-3.284c0.038-0.075 0.116-0.123 0.2-0.123h1.823c0.124 0 0.225 0.101 0.225 0.225v3.427c0 0.124-0.1 0.225-0.224 0.225-1.307 0.005-2.518 0.593-3.322 1.615z"></path>
<path  d="M10.404 18.274c-0.998 0-1.81 0.813-1.81 1.812s0.812 1.812 1.81 1.812c0.999 0 1.812-0.813 1.812-1.812s-0.813-1.812-1.812-1.812zM10.404 20.978c-0.491 0-0.89-0.4-0.89-0.892s0.399-0.892 0.89-0.892c0.491 0 0.891 0.4 0.891 0.892s-0.4 0.892-0.891 0.892z"></path>
</svg>
