<?xml version="1.0" encoding="utf-8"?>
<!-- Generated by IcoMoon.io -->
<!DOCTYPE svg PUBLIC "-//W3C//DTD SVG 1.1//EN" "http://www.w3.org/Graphics/SVG/1.1/DTD/svg11.dtd">
<svg version="1.1" xmlns="http://www.w3.org/2000/svg" xmlns:xlink="http://www.w3.org/1999/xlink" width="30" height="30" viewBox="0 0 30 30">
<path fill="#444" d="M20.341 23.837c-3.486 0-7.090-1.606-9.888-4.404l-0.056-0.060 0.001-0.001c-2.904-2.926-4.486-6.601-4.4-10.146l0.006-0.262 0.162-0.205c0.251-0.319 0.499-0.6 0.757-0.859 0.951-0.95 2.067-1.676 3.32-2.161 0.151-0.059 0.324-0.089 0.511-0.089 0.422 0 1.37 0.215 1.613 0.879 0.427 1.187 0.966 2.736 1.359 4.217 0.109 0.416 0.002 1.42-0.58 1.787l-1.384 0.878c0.012 0.010 0.006 0.227 0.187 0.474 0.537 0.735 1.159 1.463 1.849 2.165 0.694 0.682 1.42 1.3 2.15 1.831 0.142 0.105 0.303 0.165 0.433 0.165l0.479-0.668 0.442-0.696c0.382-0.594 1.344-0.611 1.451-0.611 0.113 0 0.213 0.010 0.304 0.031 1.822 0.406 2.908 0.757 4.3 1.388 0.619 0.279 1.009 1.401 0.732 2.105-0.481 1.248-1.207 2.364-2.156 3.314-0.269 0.268-0.558 0.523-0.863 0.761l-0.204 0.159-0.523 0.009zM7.559 9.526c0.012 3.023 1.474 6.273 3.945 8.745l0.075 0.077c2.477 2.476 5.663 3.912 8.726 3.924 0.182-0.153 0.357-0.31 0.52-0.473 0.79-0.792 1.398-1.726 1.803-2.774-0.008-0.006-0.039-0.102-0.072-0.179-1.211-0.54-2.206-0.854-3.844-1.219-0.040 0.005-0.12 0.021-0.183 0.039l-0.788 1.241c-0.488 0.792-1.785 0.92-2.718 0.237-0.789-0.574-1.575-1.243-2.333-1.989-0.752-0.765-1.424-1.552-2.006-2.349-0.384-0.525-0.54-1.149-0.43-1.712 0.085-0.434 0.326-0.793 0.676-1.012l1.237-0.785c0.020-0.073 0.035-0.169 0.032-0.216-0.344-1.281-0.832-2.696-1.234-3.821-0.067-0.025-0.153-0.045-0.212-0.045-0.994 0.39-1.928 0.999-2.722 1.792-0.159 0.16-0.315 0.33-0.471 0.518v0z"></path>
</svg>
