<?xml version="1.0" encoding="utf-8"?>
<!-- Generated by IcoMoon.io -->
<!DOCTYPE svg PUBLIC "-//W3C//DTD SVG 1.1//EN" "http://www.w3.org/Graphics/SVG/1.1/DTD/svg11.dtd">
<svg version="1.1" xmlns="http://www.w3.org/2000/svg" xmlns:xlink="http://www.w3.org/1999/xlink" width="30" height="30" viewBox="0 0 30 30">
<path fill="#444" d="M14.109 16.982l-0.188-2.815c-0.035-0.548-0.054-0.942-0.054-1.181 0-0.325 0.086-0.578 0.256-0.761 0.171-0.181 0.396-0.273 0.673-0.273 0.338 0 0.563 0.117 0.676 0.35 0.113 0.232 0.17 0.568 0.17 1.007 0 0.258-0.014 0.521-0.040 0.787l-0.254 2.897c-0.027 0.345-0.085 0.609-0.176 0.794-0.089 0.184-0.239 0.277-0.447 0.277-0.212 0-0.358-0.089-0.44-0.268s-0.141-0.449-0.176-0.813zM14.761 20.849c-0.238 0-0.447-0.077-0.626-0.232-0.178-0.155-0.267-0.37-0.267-0.649 0-0.243 0.086-0.449 0.256-0.62 0.171-0.169 0.38-0.255 0.626-0.255s0.458 0.085 0.631 0.255c0.175 0.171 0.262 0.378 0.262 0.62 0 0.275-0.087 0.489-0.263 0.646s-0.383 0.235-0.618 0.235z"></path>
<path fill="#444" d="M25.421 24.849h-21.116c-0.307 0-0.591-0.164-0.744-0.43-0.155-0.267-0.155-0.595 0-0.86l10.557-18.288c0.307-0.532 1.182-0.532 1.489 0l10.559 18.288c0.155 0.265 0.155 0.593 0 0.86-0.153 0.265-0.436 0.43-0.744 0.43v0zM5.794 23.13h18.139l-9.069-15.71-9.069 15.71z"></path>
</svg>
