<?xml version="1.0" encoding="utf-8"?>
<!-- Generated by IcoMoon.io -->
<!DOCTYPE svg PUBLIC "-//W3C//DTD SVG 1.1//EN" "http://www.w3.org/Graphics/SVG/1.1/DTD/svg11.dtd">
<svg version="1.1" xmlns="http://www.w3.org/2000/svg" xmlns:xlink="http://www.w3.org/1999/xlink" width="30" height="30" viewBox="0 0 30 30">
<path fill="#444" d="M7.94 10.965h14.070c0.576 0 1.043-0.466 1.043-1.043s-0.466-1.042-1.043-1.042h-14.070c-0.576 0-1.042 0.466-1.042 1.042s0.466 1.043 1.042 1.043z"></path>
<path fill="#444" d="M22.010 13.922h-14.070c-0.576 0-1.042 0.466-1.042 1.043s0.466 1.042 1.042 1.042h14.070c0.576 0 1.043-0.466 1.043-1.042s-0.466-1.043-1.043-1.043z"></path>
<path fill="#444" d="M22.010 18.964h-14.070c-0.576 0-1.042 0.466-1.042 1.042s0.466 1.043 1.042 1.043h14.070c0.576 0 1.043-0.466 1.043-1.043s-0.466-1.042-1.043-1.042z"></path>
</svg>
