<?xml version="1.0" encoding="utf-8"?>
<!-- Generated by IcoMoon.io -->
<!DOCTYPE svg PUBLIC "-//W3C//DTD SVG 1.1//EN" "http://www.w3.org/Graphics/SVG/1.1/DTD/svg11.dtd">
<svg version="1.1" xmlns="http://www.w3.org/2000/svg" xmlns:xlink="http://www.w3.org/1999/xlink" width="30" height="30" viewBox="0 0 30 30">
<path fill="#444" d="M23.841 11.865h-5.145v-5.695c0-0.513-0.386-0.931-0.862-0.931h-11.705c-0.475 0-0.862 0.418-0.862 0.931v12.326c0 0.513 0.386 0.931 0.862 0.931h5.064v4.448c0 0.444 0.39 0.806 0.87 0.806h11.779c0.48 0 0.87-0.362 0.87-0.806v-11.204c0-0.444-0.39-0.806-0.87-0.806zM6.991 17.566v-10.465h9.981v4.765h-4.91c-0.48 0-0.87 0.362-0.87 0.806v4.894h-4.201zM16.973 13.478v4.087h-4.040v-4.087h4.040zM22.972 23.069h-10.039v-3.641h4.902c0.475 0 0.862-0.418 0.862-0.931v-5.018h4.276v9.59z"></path>
</svg>
