<svg xmlns="http://www.w3.org/2000/svg" width="100" height="100" viewBox="0 0 100 100"><path fill="#F2EEE8" d="M597.236 770.494c-.256 0-.512-.098-.707-.293-.392-.39-.392-1.022 0-1.413l8.73-8.73c.39-.39 1.022-.39 1.413 0s.39 1.024 0 1.415l-8.73 8.73c-.195.194-.45.292-.707.292z"/><path fill="#F2EEE8" d="M605.857 766.53c-.162 0-.324-.006-.488-.02-.55-.05-.956-.535-.907-1.086.05-.55.545-.95 1.086-.906.993.092 1.962-.258 2.66-.954l2.48-2.485c1.313-1.313 1.313-3.447.003-4.76l-.28-.28c-1.313-1.312-3.446-1.313-4.757-.002l-2.486 2.486c-.697.697-1.045 1.666-.957 2.658.05.55-.355 1.036-.906 1.086-.545.05-1.035-.355-1.086-.906-.142-1.584.42-3.134 1.536-4.252l2.486-2.486c2.088-2.09 5.49-2.09 7.584 0l.28.282c2.093 2.093 2.09 5.497 0 7.587l-2.483 2.486c-1.004 1-2.355 1.55-3.766 1.55zM595.45 776.923c-1.372 0-2.745-.522-3.792-1.566l-.285-.286c-1.01-1.01-1.566-2.354-1.566-3.788 0-1.432.557-2.78 1.57-3.79l2.484-2.487c1.116-1.117 2.66-1.674 4.253-1.535.55.05.955.535.906 1.085s-.524.954-1.085.907c-.986-.09-1.963.26-2.66.956l-2.482 2.487c-.637.635-.986 1.48-.986 2.377 0 .898.35 1.742.984 2.377l.284.286c1.31 1.306 3.443 1.307 4.754-.004l2.488-2.488c.695-.695 1.043-1.664.953-2.656-.05-.55.356-1.036.905-1.086.545-.045 1.037.355 1.086.906.144 1.585-.413 3.135-1.53 4.25l-2.488 2.488c-1.043 1.044-2.418 1.567-3.79 1.567z"/><g><path fill="none" d="M71.8 28.72c-5.73-5.726-13.35-8.88-21.452-8.88-8.103 0-15.72 3.154-21.448 8.88-5.727 5.732-8.884 13.35-8.884 21.456 0 8.104 3.15 15.725 8.878 21.454 5.727 5.728 13.345 8.88 21.448 8.88 8.11 0 15.728-3.156 21.46-8.886 11.823-11.828 11.823-31.074 0-42.903zm-10.615 27.9c1.213 1.213 1.213 3.176 0 4.388-.607.606-1.4.91-2.196.91-.793 0-1.586-.304-2.193-.91l-6.445-6.445-6.446 6.445c-.606.606-1.4.91-2.194.91s-1.587-.304-2.193-.91c-1.213-1.212-1.213-3.175 0-4.387l6.444-6.444-6.445-6.445c-1.213-1.21-1.213-3.174 0-4.387 1.21-1.212 3.174-1.212 4.386 0l6.446 6.445 6.445-6.445c1.212-1.212 3.177-1.212 4.39 0 1.212 1.212 1.212 3.175 0 4.388l-6.447 6.446 6.445 6.445z"/><path d="M61.185 39.343c-1.212-1.212-3.177-1.212-4.39 0l-6.444 6.445-6.445-6.445c-1.21-1.212-3.175-1.212-4.387 0-1.212 1.212-1.212 3.175 0 4.388l6.445 6.446-6.445 6.445c-1.212 1.213-1.212 3.176 0 4.388.606.606 1.4.91 2.193.91s1.59-.304 2.195-.91l6.446-6.445 6.446 6.445c.607.606 1.4.91 2.192.91.796 0 1.59-.304 2.196-.91 1.213-1.212 1.213-3.175 0-4.387l-6.446-6.444 6.446-6.445c1.213-1.212 1.213-3.175 0-4.387z"/><path d="M76.19 24.334c-6.904-6.9-16.078-10.7-25.843-10.7-9.758 0-18.933 3.8-25.836 10.7-6.902 6.9-10.702 16.08-10.702 25.842-.005 9.764 3.794 18.943 10.697 25.842 6.903 6.9 16.08 10.7 25.836 10.7 9.764 0 18.946-3.802 25.85-10.708 14.248-14.244 14.24-37.427 0-51.676zm-4.39 47.29c-5.73 5.73-13.35 8.887-21.458 8.887-8.103 0-15.72-3.152-21.448-8.88-5.727-5.73-8.878-13.35-8.878-21.454 0-8.106 3.157-15.724 8.884-21.455 5.727-5.726 13.345-8.88 21.448-8.88S66.07 22.995 71.8 28.72c11.825 11.83 11.825 31.076 0 42.904z"/></g></svg>