<?xml version="1.0" encoding="utf-8"?>
<!-- Generated by IcoMoon.io -->
<!DOCTYPE svg PUBLIC "-//W3C//DTD SVG 1.1//EN" "http://www.w3.org/Graphics/SVG/1.1/DTD/svg11.dtd">
<svg version="1.1" xmlns="http://www.w3.org/2000/svg" xmlns:xlink="http://www.w3.org/1999/xlink" width="30" height="30" viewBox="0 0 30 30">
<path fill="#444" d="M26.176 14.468l-2.739-3.432c-0.067-0.143-0.149-0.28-0.26-0.399-0.305-0.328-0.749-0.515-1.216-0.515h-3.604c-0.466 0-0.907 0.187-1.213 0.514-0.111 0.12-0.193 0.256-0.26 0.399l-2.339 2.932-2.387-1.482c-1.372-0.906-3.52-0.905-4.89-0.001l-3.105 2.042c-0.37 0.243-0.473 0.74-0.23 1.11s0.74 0.473 1.111 0.229l1.884-1.236-1.445 2.501c-0.456 0.789-0.506 1.606-0.139 2.242s1.101 0.999 2.013 0.999h0.274v3.381c0 0.444 0.359 0.802 0.802 0.802s0.801-0.358 0.801-0.802v-3.382h0.959v3.381c0 0.444 0.359 0.802 0.802 0.802s0.801-0.358 0.801-0.802v-3.381h0.274c0.912 0 1.645-0.364 2.012-1 0.367-0.635 0.315-1.452-0.14-2.241l-1.446-2.502 1.584 0.936c0.107 0.070 0.225 0.111 0.344 0.125 0.11 0.053 0.229 0.082 0.348 0.082 0.235 0 0.469-0.103 0.627-0.301l1.47-1.843 0.204 2.967c0.047 0.654 0.456 1.2 1.009 1.428-0 0.009-0.003 0.017-0.003 0.027v3.786c0 0.443 0.358 0.801 0.801 0.801s0.801-0.358 0.801-0.801v-3.697h0.959v3.697c0 0.443 0.358 0.801 0.802 0.801 0.443 0 0.801-0.358 0.801-0.801v-3.786c0-0.010-0.002-0.018-0.002-0.028 0.552-0.229 0.96-0.775 1.009-1.431l0.204-2.963 1.47 1.843c0.158 0.198 0.391 0.301 0.627 0.301 0.175 0 0.353-0.057 0.5-0.175 0.345-0.277 0.401-0.781 0.126-1.127zM12.554 17.932c0.186 0.325 0.192 0.546 0.139 0.638s-0.248 0.198-0.623 0.198h-4.712c-0.377 0-0.572-0.107-0.625-0.198s-0.047-0.314 0.139-0.638l2.36-4.083c0.18-0.313 0.363-0.43 0.47-0.438 0.008 0 0.016 0 0.025 0 0.108 0.008 0.289 0.125 0.47 0.44l2.358 4.081zM21.65 16.476c-0.002 0.027-0.014 0.046-0.023 0.058l-2.924 0.010c-0.006-0.004-0.031-0.029-0.032-0.065l-0.312-4.724 0.026-0.032 3.513-0.053c0.010 0.014 0.017 0.030 0.028 0.043l0.046 0.058-0.323 4.704z"></path>
<path fill="#444" d="M20.159 9.653c1.271 0 2.305-1.033 2.305-2.305 0-1.27-1.034-2.303-2.305-2.303-1.27 0-2.304 1.034-2.304 2.303 0 1.271 1.034 2.305 2.304 2.305zM20.159 6.648c0.387 0 0.703 0.314 0.703 0.701s-0.316 0.703-0.703 0.703c-0.385 0-0.701-0.316-0.701-0.703s0.315-0.701 0.701-0.701z"></path>
<path fill="#444" d="M6.861 9.47c0.202 0 0.389-0.060 0.55-0.158 0.024 1.25 1.046 2.26 2.303 2.26 1.27 0 2.303-1.034 2.303-2.305 0-0.007-0.001-0.013-0.001-0.020 0.179 0.138 0.4 0.224 0.644 0.224 0.586 0 1.060-0.475 1.060-1.060s-0.475-1.060-1.060-1.060c-0.459 0-0.847 0.294-0.994 0.702-0.407-0.652-1.129-1.088-1.952-1.088-0.786 0-1.48 0.395-1.896 0.997-0.17-0.36-0.533-0.611-0.957-0.611-0.586 0-1.060 0.475-1.060 1.060s0.474 1.060 1.060 1.060zM9.714 8.566c0.387 0 0.701 0.315 0.701 0.701 0 0.387-0.314 0.703-0.701 0.703s-0.703-0.315-0.703-0.703c0-0.386 0.316-0.701 0.703-0.701z"></path>
</svg>
