<?xml version="1.0" encoding="utf-8"?>
<!-- Generated by IcoMoon.io -->
<!DOCTYPE svg PUBLIC "-//W3C//DTD SVG 1.1//EN" "http://www.w3.org/Graphics/SVG/1.1/DTD/svg11.dtd">
<svg version="1.1" xmlns="http://www.w3.org/2000/svg" xmlns:xlink="http://www.w3.org/1999/xlink" width="30" height="30" viewBox="0 0 30 30">
<path  d="M25.694 15.075c0.009-0.387-0.002-0.772-0.036-1.155-0.237-2.661-1.512-5.137-3.617-6.897-2.091-1.747-4.736-2.579-7.449-2.336-2.713 0.241-5.169 1.526-6.916 3.617-0.318 0.38-0.269 0.943 0.111 1.262 0.382 0.317 0.945 0.267 1.263-0.113 1.44-1.724 3.465-2.783 5.702-2.983 2.235-0.198 4.417 0.483 6.14 1.927 1.793 1.499 2.838 3.631 2.982 5.907 0 0.004-0 0.006-0 0.008 0.019 0.222 0.024 0.442 0.027 0.663-0.006 0.321-0.023 0.643-0.066 0.967-0.006 0.045 0.009 0.087 0.010 0.131-0.191 1.6-0.837 3.114-1.895 4.379-1.44 1.723-3.465 2.782-5.704 2.981-2.882 0.257-5.653-0.962-7.417-3.255-0.303-0.393-0.864-0.467-1.254-0.165-0.394 0.301-0.467 0.864-0.166 1.257 0.465 0.606 0.989 1.15 1.562 1.627 2.049 1.715 4.702 2.564 7.434 2.319 2.714-0.243 5.173-1.526 6.919-3.615 1.55-1.852 2.372-4.141 2.371-6.528z"></path>
<path  d="M9.069 13.897h-1.86v-1.86c0-0.503-0.409-0.912-0.913-0.912s-0.913 0.409-0.913 0.912v1.86h-1.86c-0.503 0-0.913 0.409-0.913 0.913s0.41 0.913 0.913 0.913h1.86v1.86c0 0.503 0.409 0.913 0.913 0.913s0.913-0.41 0.913-0.913v-1.86h1.86c0.502 0 0.913-0.409 0.913-0.913s-0.41-0.913-0.913-0.913z"></path>
<path  d="M16.874 19.81l-0.217 0.046 0 0.346c-0.030 0.541-0.102 0.696-0.254 0.838-0.188 0.175-0.418 0.268-0.666 0.268-0.786 0-0.904-0.722-0.904-1.152v-0.277l-0.191-0.062c-0.693-0.22-1.026-0.367-1.378-0.606-0.697-0.446-1.036-0.934-1.036-1.49 0-0.533 0.348-0.92 0.827-0.92 0.292 0 0.561 0.123 0.955 0.433 0.948 0.794 1.214 0.963 1.881 0.963 0.842 0 1.501-0.618 1.501-1.406 0-1.008-0.938-1.367-1.854-1.584l-1.27-0.31c-1.124-0.277-1.822-1.138-1.822-2.245 0-0.835 0.354-1.606 0.948-2.062 0.315-0.244 0.615-0.402 1.188-0.629l0.165-0.065 0.008-0.178c0.013-0.28 0.050-0.421 0.112-0.576 0.157-0.278 0.479-0.465 0.807-0.465 0.525 0 0.855 0.355 0.905 0.973l0.015 0.177 0.441 0.156c0.697 0.217 0.959 0.375 1.244 0.622 0.346 0.319 0.5 0.606 0.5 0.93 0 0.465-0.35 0.857-0.764 0.857-0.17 0-0.357-0.066-0.507-0.181-0.067-0.050-0.245-0.185-0.52-0.413-0.454-0.349-0.835-0.491-1.315-0.491-0.815 0-1.406 0.513-1.406 1.22 0 0.451 0.241 0.776 0.726 0.99 0.175 0.087 0.368 0.134 1.008 0.29l0.109 0.027c2.227 0.498 3.135 1.368 3.135 3.002 0 1.452-0.976 2.674-2.373 2.974z"></path>
</svg>
