<?xml version="1.0" encoding="utf-8"?>
<!-- Generated by IcoMoon.io -->
<!DOCTYPE svg PUBLIC "-//W3C//DTD SVG 1.1//EN" "http://www.w3.org/Graphics/SVG/1.1/DTD/svg11.dtd">
<svg version="1.1" xmlns="http://www.w3.org/2000/svg" xmlns:xlink="http://www.w3.org/1999/xlink" width="30" height="30" viewBox="0 0 30 30">
<path  d="M14.738 29.792c-1.367 0-2.648-0.529-3.608-1.489l-9.509-9.509c-0.971-0.97-1.499-2.267-1.488-3.649 0.011-1.379 0.558-2.679 1.54-3.661l9.661-9.661c0.993-0.993 2.308-1.54 3.702-1.54 1.367 0 2.648 0.529 3.608 1.489l9.509 9.509c2.001 2.001 1.979 5.281-0.051 7.31l-9.66 9.661c-0.993 0.993-2.308 1.54-3.702 1.54zM15.035 1.483c-1.074 0-2.087 0.422-2.854 1.188l-9.661 9.661c-0.758 0.758-1.18 1.76-1.188 2.822-0.008 1.058 0.395 2.050 1.137 2.791l9.509 9.509c0.733 0.733 1.713 1.137 2.76 1.137 1.074 0 2.087-0.422 2.854-1.189l9.661-9.661c1.561-1.562 1.585-4.080 0.051-5.613l-9.509-9.509c-0.733-0.733-1.713-1.137-2.759-1.137z"></path>
<path  d="M10.25 21.944c-0.145 0-0.29-0.046-0.412-0.134-0.216-0.158-0.325-0.423-0.28-0.689l0.803-4.677-3.397-3.311c-0.192-0.186-0.261-0.466-0.179-0.72 0.083-0.255 0.303-0.44 0.567-0.478l4.698-0.683 2.1-4.256c0.119-0.24 0.363-0.391 0.631-0.391 0.267 0 0.511 0.151 0.631 0.391l2.099 4.256 4.698 0.683c0.264 0.038 0.484 0.224 0.566 0.478s0.015 0.533-0.18 0.72l-3.396 3.313 0.803 4.678c0.044 0.264-0.064 0.531-0.28 0.687-0.217 0.157-0.503 0.179-0.74 0.054l-4.2-2.208-4.2 2.208c-0.106 0.054-0.217 0.080-0.33 0.080zM14.777 18.159c0.113 0 0.224 0.027 0.327 0.081l3.268 1.718-0.623-3.639c-0.040-0.229 0.036-0.46 0.201-0.622l2.644-2.577-3.654-0.53c-0.228-0.033-0.427-0.178-0.53-0.385l-1.633-3.31-1.634 3.31c-0.103 0.208-0.3 0.352-0.53 0.385l-3.652 0.53 2.644 2.577c0.166 0.161 0.241 0.393 0.202 0.622l-0.625 3.639 3.269-1.718c0.103-0.055 0.215-0.081 0.327-0.081z"></path>
</svg>
