<?xml version="1.0" encoding="utf-8"?>
<!-- Generated by IcoMoon.io -->
<!DOCTYPE svg PUBLIC "-//W3C//DTD SVG 1.1//EN" "http://www.w3.org/Graphics/SVG/1.1/DTD/svg11.dtd">
<svg version="1.1" xmlns="http://www.w3.org/2000/svg" xmlns:xlink="http://www.w3.org/1999/xlink" width="30" height="30" viewBox="0 0 30 30">
<path  d="M14.738 29.792c-1.367 0-2.648-0.529-3.608-1.489l-9.509-9.509c-0.971-0.97-1.499-2.267-1.488-3.649 0.011-1.379 0.558-2.679 1.54-3.661l9.661-9.661c0.993-0.993 2.308-1.54 3.702-1.54 1.367 0 2.648 0.529 3.608 1.489l9.509 9.509c2.001 2.001 1.979 5.281-0.051 7.31l-9.66 9.661c-0.993 0.993-2.308 1.54-3.702 1.54zM15.035 1.483c-1.074 0-2.087 0.422-2.854 1.188l-9.661 9.661c-0.758 0.758-1.18 1.76-1.188 2.822-0.008 1.058 0.395 2.050 1.137 2.791l9.509 9.509c0.733 0.733 1.713 1.137 2.76 1.137 1.074 0 2.087-0.422 2.854-1.189l9.661-9.661c1.561-1.562 1.585-4.080 0.051-5.613l-9.509-9.509c-0.733-0.733-1.713-1.137-2.759-1.137z"></path>
<path  d="M20.25 9.7c0-0.175 0.087-0.347 0.257-0.481 0.346-0.266 0.904-0.266 1.252 0 2.069 1.589 3.206 3.706 3.208 5.954 0 0.003 0 0.003 0 0.005 0 2.247-1.139 4.361-3.206 5.951-0.347 0.267-0.904 0.267-1.252 0-0.343-0.264-0.343-0.694 0-0.959 1.737-1.333 2.694-3.106 2.694-4.992v0c0-1.891-0.959-3.665-2.698-4.999-0.168-0.133-0.255-0.307-0.255-0.48v0z"></path>
<path  d="M17.566 12.1c0-0.175 0.089-0.347 0.258-0.481 0.345-0.264 0.905-0.264 1.251 0 2.55 1.962 2.55 5.154 0.002 7.113-0.345 0.265-0.904 0.265-1.251 0-0.344-0.265-0.344-0.694 0-0.959 1.861-1.432 1.861-3.762-0.002-5.194-0.171-0.133-0.258-0.306-0.258-0.479v0z"></path>
<path  d="M9.309 20.651c0 0.174-0.084 0.346-0.259 0.481-0.344 0.265-0.902 0.265-1.248 0-2.072-1.59-3.212-3.706-3.212-5.953 0-0.003 0-0.003 0-0.005 0-2.248 1.139-4.363 3.209-5.953 0.344-0.265 0.904-0.265 1.25 0 0.344 0.265 0.344 0.696 0 0.959-1.735 1.334-2.692 3.107-2.692 4.994v0c0 1.89 0.957 3.665 2.693 4.998 0.172 0.133 0.259 0.305 0.259 0.479v0z"></path>
<path  d="M11.991 18.252c0 0.174-0.087 0.346-0.259 0.481-0.344 0.265-0.904 0.265-1.25 0-2.551-1.962-2.551-5.152-0.002-7.112 0.344-0.265 0.904-0.265 1.25 0s0.344 0.695 0 0.959c-1.863 1.432-1.861 3.762 0.002 5.195 0.172 0.13 0.259 0.305 0.259 0.478v0z"></path>
</svg>
