<?xml version="1.0" encoding="utf-8"?>
<!-- Generated by IcoMoon.io -->
<!DOCTYPE svg PUBLIC "-//W3C//DTD SVG 1.1//EN" "http://www.w3.org/Graphics/SVG/1.1/DTD/svg11.dtd">
<svg version="1.1" xmlns="http://www.w3.org/2000/svg" xmlns:xlink="http://www.w3.org/1999/xlink" width="30" height="30" viewBox="0 0 30 30">
<path fill="#444" d="M23.331 30h-16.889c-3.47 0-6.293-2.864-6.293-6.384v-17.158c0-3.52 2.823-6.383 6.293-6.383h16.889c3.47 0 6.293 2.864 6.293 6.383v17.158c-0 3.52-2.823 6.384-6.293 6.384zM6.443 1.275c-2.808 0-5.093 2.325-5.093 5.183v17.158c0 2.858 2.285 5.184 5.093 5.184h16.889c2.808 0 5.093-2.326 5.093-5.184l0-17.158c0-2.858-2.285-5.183-5.093-5.183h-16.889z"></path>
<path fill="#444" d="M16.1 19.542c0 0.052-0.015 0.097-0.043 0.138s-0.080 0.074-0.154 0.1c-0.074 0.025-0.172 0.046-0.295 0.061-0.124 0.016-0.279 0.023-0.468 0.023-0.184 0-0.338-0.007-0.461-0.023s-0.22-0.036-0.291-0.061c-0.072-0.026-0.124-0.059-0.154-0.1s-0.046-0.087-0.046-0.138v-8.082h-0.015l-2.878 8.074c-0.021 0.067-0.053 0.122-0.1 0.165s-0.108 0.078-0.188 0.104c-0.079 0.026-0.18 0.043-0.303 0.050s-0.272 0.011-0.445 0.011c-0.174 0-0.323-0.006-0.445-0.019s-0.224-0.034-0.303-0.061c-0.079-0.028-0.143-0.063-0.188-0.104-0.047-0.041-0.077-0.090-0.093-0.146l-2.778-8.074h-0.015v8.081c0 0.052-0.014 0.098-0.042 0.138s-0.081 0.074-0.157 0.1c-0.077 0.025-0.176 0.046-0.296 0.061s-0.276 0.023-0.465 0.023c-0.184 0-0.337-0.007-0.46-0.023s-0.222-0.036-0.296-0.061c-0.074-0.026-0.125-0.059-0.153-0.1s-0.043-0.087-0.043-0.138v-8.849c0-0.261 0.069-0.46 0.207-0.599s0.322-0.207 0.553-0.207h1.32c0.235 0 0.437 0.019 0.606 0.058s0.316 0.102 0.438 0.192c0.123 0.089 0.225 0.207 0.306 0.353s0.153 0.326 0.215 0.541l2.15 5.917h0.031l2.225-5.902c0.067-0.215 0.14-0.396 0.219-0.545s0.171-0.268 0.277-0.361c0.105-0.092 0.229-0.157 0.371-0.196s0.31-0.058 0.5-0.058h1.358c0.139 0 0.258 0.018 0.357 0.054s0.182 0.088 0.245 0.158c0.065 0.069 0.114 0.153 0.146 0.253s0.050 0.214 0.050 0.342v8.849h0.001z"></path>
<path fill="#444" d="M25.631 19.557c0 0.056-0.010 0.104-0.031 0.142s-0.069 0.070-0.146 0.096c-0.077 0.025-0.19 0.044-0.338 0.054s-0.35 0.015-0.606 0.015c-0.215 0-0.387-0.005-0.514-0.015-0.128-0.010-0.229-0.029-0.304-0.058-0.074-0.028-0.126-0.063-0.156-0.107s-0.056-0.095-0.077-0.157l-0.89-2.218c-0.108-0.251-0.213-0.474-0.315-0.668s-0.216-0.357-0.341-0.487c-0.126-0.131-0.27-0.229-0.433-0.295-0.164-0.067-0.353-0.1-0.569-0.1h-0.629v3.784c0 0.052-0.017 0.097-0.050 0.138-0.034 0.041-0.089 0.074-0.166 0.1-0.076 0.025-0.179 0.046-0.306 0.061s-0.293 0.023-0.49 0.023c-0.195 0-0.357-0.007-0.488-0.023s-0.234-0.036-0.311-0.061c-0.076-0.026-0.13-0.059-0.16-0.1s-0.046-0.087-0.046-0.138v-9.018c0-0.225 0.057-0.387 0.173-0.487s0.257-0.15 0.426-0.15h2.571c0.261 0 0.476 0.005 0.645 0.016s0.322 0.023 0.461 0.038c0.398 0.056 0.758 0.153 1.078 0.292s0.591 0.318 0.814 0.541c0.221 0.222 0.392 0.486 0.51 0.79s0.177 0.654 0.177 1.048c0 0.333-0.043 0.636-0.128 0.909-0.083 0.274-0.208 0.519-0.372 0.733s-0.366 0.402-0.606 0.56c-0.241 0.159-0.514 0.287-0.821 0.384 0.148 0.071 0.288 0.158 0.419 0.261s0.254 0.226 0.369 0.373c0.115 0.145 0.224 0.312 0.326 0.499s0.202 0.398 0.299 0.633l0.835 1.957c0.077 0.194 0.129 0.337 0.155 0.427s0.038 0.16 0.038 0.211zM23.030 12.818c0-0.327-0.074-0.604-0.221-0.829-0.149-0.225-0.391-0.383-0.73-0.475-0.103-0.025-0.219-0.046-0.349-0.062-0.131-0.015-0.312-0.023-0.541-0.023h-0.906v2.817h1.029c0.286 0 0.537-0.034 0.752-0.104s0.394-0.166 0.537-0.291c0.143-0.125 0.251-0.275 0.322-0.449s0.107-0.369 0.107-0.584z"></path>
</svg>
