<?xml version="1.0" encoding="utf-8"?>
<!-- Generated by IcoMoon.io -->
<!DOCTYPE svg PUBLIC "-//W3C//DTD SVG 1.1//EN" "http://www.w3.org/Graphics/SVG/1.1/DTD/svg11.dtd">
<svg version="1.1" xmlns="http://www.w3.org/2000/svg" xmlns:xlink="http://www.w3.org/1999/xlink" width="30" height="30" viewBox="0 0 30 30">
<path fill="#444" d="M15 29.85c-8.188 0-14.85-6.662-14.85-14.85s6.662-14.85 14.85-14.85c8.188 0 14.85 6.662 14.85 14.85s-6.662 14.85-14.85 14.85zM15 1.35c-7.527 0-13.65 6.123-13.65 13.65s6.123 13.65 13.65 13.65 13.65-6.123 13.65-13.65-6.123-13.65-13.65-13.65z"></path>
<path fill="#444" d="M14.915 24.867c-0.137 0-0.277-0.034-0.401-0.103-0.036-0.019-0.073-0.045-0.104-0.071l-0.257-0.178c-0.614-0.429-2.051-1.427-3.004-2.166-3.654-2.845-5.521-4.897-5.877-6.456-0.17-0.516-0.272-1.135-0.278-1.776-0.021-1.695 0.617-3.33 1.755-4.486 1.037-1.054 2.397-1.639 3.83-1.643v0c1.617 0 3.087 0.653 4.145 1.794 1.042-1.182 2.512-1.873 4.109-1.895l0.106-0.001c3.061 0 5.581 2.687 5.625 5.988 0.012 0.636-0.078 1.257-0.252 1.853-0.295 1.495-2.159 3.66-5.679 6.543-1.355 1.119-2.455 1.946-3.275 2.466-0.135 0.089-0.289 0.132-0.442 0.132v0zM10.637 9.644c-1.039 0.007-1.981 0.413-2.705 1.15-0.831 0.844-1.299 2.048-1.282 3.306 0.007 0.472 0.081 0.927 0.219 1.355 0.165 0.71 1.044 2.28 5.295 5.589 0.839 0.649 2.092 1.525 2.761 1.992 0.706-0.488 1.614-1.184 2.654-2.043 4.157-3.404 4.999-5.008 5.13-5.662 0.143-0.506 0.205-0.963 0.2-1.434-0.031-2.4-1.813-4.351-3.968-4.351-0.006 0-0.084 0.001-0.084 0.001-1.409 0.019-2.676 0.782-3.393 2.041-0.144 0.255-0.415 0.415-0.708 0.42-0.275-0.001-0.569-0.149-0.722-0.4-0.74-1.229-2.011-1.961-3.397-1.961v0z"></path>
</svg>
