<?xml version="1.0" encoding="utf-8"?>
<!-- Generated by IcoMoon.io -->
<!DOCTYPE svg PUBLIC "-//W3C//DTD SVG 1.1//EN" "http://www.w3.org/Graphics/SVG/1.1/DTD/svg11.dtd">
<svg version="1.1" xmlns="http://www.w3.org/2000/svg" xmlns:xlink="http://www.w3.org/1999/xlink" width="30" height="30" viewBox="0 0 30 30">
<path fill="#444" d="M7.748 5.941c-1.322 0-2.399 1.076-2.399 2.399s1.077 2.399 2.399 2.399c1.325 0 2.401-1.076 2.401-2.399s-1.077-2.399-2.401-2.399zM7.748 9.357c-0.56 0-1.017-0.456-1.017-1.017s0.456-1.018 1.017-1.018c0.562 0 1.019 0.457 1.019 1.018s-0.457 1.017-1.019 1.017z"></path>
<path fill="#444" d="M7.748 12.371c-1.322 0-2.399 1.076-2.399 2.399s1.077 2.399 2.399 2.399c1.325 0 2.401-1.076 2.401-2.399s-1.077-2.399-2.401-2.399zM7.748 15.787c-0.56 0-1.017-0.456-1.017-1.017s0.456-1.018 1.017-1.018c0.562 0 1.019 0.457 1.019 1.018s-0.457 1.017-1.019 1.017z"></path>
<path fill="#444" d="M7.748 18.656c-1.322 0-2.399 1.076-2.399 2.399s1.077 2.399 2.399 2.399c1.325 0 2.401-1.076 2.401-2.399s-1.077-2.399-2.401-2.399zM7.748 22.072c-0.56 0-1.017-0.456-1.017-1.017s0.456-1.018 1.017-1.018c0.562 0 1.019 0.457 1.019 1.018s-0.457 1.017-1.019 1.017z"></path>
<path fill="#444" d="M12.15 9.090h11.75c0.414 0 0.75-0.336 0.75-0.75s-0.336-0.75-0.75-0.75h-11.75c-0.414 0-0.75 0.336-0.75 0.75s0.336 0.75 0.75 0.75z"></path>
<path fill="#444" d="M23.9 14.020h-11.75c-0.414 0-0.75 0.336-0.75 0.75s0.336 0.75 0.75 0.75h11.75c0.414 0 0.75-0.336 0.75-0.75s-0.336-0.75-0.75-0.75z"></path>
<path fill="#444" d="M23.9 20.305h-11.75c-0.414 0-0.75 0.336-0.75 0.75s0.336 0.75 0.75 0.75h11.75c0.414 0 0.75-0.336 0.75-0.75s-0.336-0.75-0.75-0.75z"></path>
</svg>
