<?xml version="1.0" encoding="utf-8"?>
<!-- Generated by IcoMoon.io -->
<!DOCTYPE svg PUBLIC "-//W3C//DTD SVG 1.1//EN" "http://www.w3.org/Graphics/SVG/1.1/DTD/svg11.dtd">
<svg version="1.1" xmlns="http://www.w3.org/2000/svg" xmlns:xlink="http://www.w3.org/1999/xlink" width="30" height="30" viewBox="0 0 30 30">
<path fill="#444" d="M23.331 30h-16.889c-3.47 0-6.293-2.864-6.293-6.384v-17.158c0-3.52 2.823-6.383 6.293-6.383h16.889c3.47 0 6.293 2.864 6.293 6.383v17.158c-0 3.52-2.823 6.384-6.293 6.384zM6.443 1.275c-2.808 0-5.093 2.325-5.093 5.183v17.158c0 2.858 2.285 5.184 5.093 5.184h16.889c2.808 0 5.093-2.326 5.093-5.184l0-17.158c0-2.858-2.285-5.183-5.093-5.183h-16.889z"></path>
<path fill="#444" d="M12.177 9.196c1.431 0 2.601-1.167 2.601-2.6 0-1.435-1.17-2.602-2.601-2.602-1.436 0-2.601 1.167-2.601 2.602 0 1.433 1.165 2.6 2.601 2.6zM12.177 5.802c0.432 0 0.791 0.355 0.793 0.793 0 0.437-0.356 0.792-0.793 0.792-0.438 0-0.793-0.355-0.793-0.792 0-0.438 0.355-0.793 0.793-0.793z"></path>
<path fill="#444" d="M22.859 22.68l-3.355-5.79c-0.172-0.294-0.488-0.478-0.828-0.478h-5.499v-1.823c0.022 0.001 0.042 0.006 0.064 0.006h4.795c0.53 0 0.957-0.428 0.957-0.958s-0.428-0.959-0.957-0.959h-4.794c-0.022 0-0.043 0.005-0.064 0.006v-1.609c0-0.556-0.43-1.006-0.958-1.006-0.531 0-0.959 0.451-0.959 1.006v6.036c0 0.043 0.007 0.082 0.012 0.123-0.006 0.044-0.014 0.089-0.014 0.135 0 0.531 0.427 0.959 0.96 0.959h5.715c-0.013 0.063-0.020 0.128-0.020 0.195 0 0.413-0.055 0.822-0.16 1.217-0.549 2.058-2.419 3.494-4.552 3.494-2.6 0-4.714-2.113-4.714-4.711 0-1.050 0.337-2.045 0.979-2.875 0.323-0.417 0.248-1.021-0.171-1.344s-1.021-0.247-1.346 0.173c-0.902 1.168-1.379 2.567-1.379 4.047 0 3.656 2.973 6.631 6.631 6.631 2.849 0 5.362-1.827 6.273-4.494l1.727 2.977c0.176 0.306 0.498 0.478 0.83 0.478 0.164 0 0.326-0.039 0.479-0.129 0.457-0.266 0.614-0.85 0.348-1.31z"></path>
</svg>
