<?xml version="1.0" encoding="utf-8"?>
<!-- Generated by IcoMoon.io -->
<!DOCTYPE svg PUBLIC "-//W3C//DTD SVG 1.1//EN" "http://www.w3.org/Graphics/SVG/1.1/DTD/svg11.dtd">
<svg version="1.1" xmlns="http://www.w3.org/2000/svg" xmlns:xlink="http://www.w3.org/1999/xlink" width="30" height="30" viewBox="0 0 30 30">
<path fill="#444" d="M14.738 29.792c-1.367 0-2.648-0.529-3.608-1.489l-9.509-9.509c-0.971-0.97-1.499-2.267-1.488-3.649 0.011-1.379 0.558-2.679 1.54-3.661l9.661-9.661c0.993-0.993 2.308-1.54 3.702-1.54 1.367 0 2.648 0.529 3.608 1.489l9.509 9.509c2.001 2.001 1.979 5.281-0.051 7.31l-9.66 9.661c-0.993 0.993-2.308 1.54-3.702 1.54zM15.035 1.483c-1.074 0-2.087 0.422-2.854 1.188l-9.661 9.661c-0.758 0.758-1.18 1.76-1.188 2.822-0.008 1.058 0.395 2.050 1.137 2.791l9.509 9.509c0.733 0.733 1.713 1.137 2.76 1.137 1.074 0 2.087-0.422 2.854-1.189l9.661-9.661c1.561-1.562 1.585-4.080 0.051-5.613l-9.509-9.509c-0.733-0.733-1.713-1.137-2.759-1.137z"></path>
<path fill="#444" d="M21.491 20.413l-2.929-5.813h-6.427l-2.735-5.339c-0.188-0.367-0.639-0.513-1.006-0.325s-0.513 0.639-0.325 1.006l3.152 6.153h6.421l2.514 4.99c0.131 0.26 0.395 0.411 0.669 0.411 0.113 0 0.228-0.026 0.336-0.080 0.369-0.185 0.517-0.635 0.331-1.004z"></path>
</svg>
