<?xml version="1.0" encoding="utf-8"?>
<!-- Generated by IcoMoon.io -->
<!DOCTYPE svg PUBLIC "-//W3C//DTD SVG 1.1//EN" "http://www.w3.org/Graphics/SVG/1.1/DTD/svg11.dtd">
<svg version="1.1" xmlns="http://www.w3.org/2000/svg" xmlns:xlink="http://www.w3.org/1999/xlink" width="30" height="30" viewBox="0 0 30 30">
<path fill="#444" d="M23.331 30h-16.889c-3.47 0-6.293-2.864-6.293-6.384v-17.158c0-3.52 2.823-6.383 6.293-6.383h16.889c3.47 0 6.293 2.864 6.293 6.383v17.158c-0 3.52-2.823 6.384-6.293 6.384zM6.443 1.275c-2.808 0-5.093 2.325-5.093 5.183v17.158c0 2.858 2.285 5.184 5.093 5.184h16.889c2.808 0 5.093-2.326 5.093-5.184l0-17.158c0-2.858-2.285-5.183-5.093-5.183h-16.889z"></path>
<path fill="#444" d="M25.469 15.175c0-0.258-0.106-0.491-0.277-0.66l-3.593-3.597c-0.364-0.365-0.953-0.365-1.313 0-0.367 0.363-0.367 0.951 0 1.315l2.011 2.013h-15.036l2.011-2.013c0.364-0.364 0.364-0.953 0-1.314-0.365-0.365-0.952-0.365-1.316 0l-3.595 3.598c-0.364 0.365-0.364 0.953 0 1.317l3.595 3.599c0.181 0.181 0.421 0.272 0.657 0.272s0.475-0.091 0.659-0.271c0.364-0.363 0.364-0.952 0-1.315l-2.013-2.016h15.038l-2.011 2.013c-0.367 0.365-0.367 0.953 0 1.316 0.178 0.181 0.417 0.272 0.655 0.272s0.476-0.091 0.658-0.273l3.589-3.593c0.173-0.169 0.281-0.403 0.281-0.665z"></path>
</svg>
