<?xml version="1.0" encoding="utf-8"?>
<!-- Generated by IcoMoon.io -->
<!DOCTYPE svg PUBLIC "-//W3C//DTD SVG 1.1//EN" "http://www.w3.org/Graphics/SVG/1.1/DTD/svg11.dtd">
<svg version="1.1" xmlns="http://www.w3.org/2000/svg" xmlns:xlink="http://www.w3.org/1999/xlink" width="30" height="30" viewBox="0 0 30 30">
<path fill="#444" d="M22.851 11.999h-1.38v-1.742c0-3.563-2.9-6.462-6.462-6.462-3.563 0-6.463 2.899-6.463 6.462v1.742h-1.379c-0.961 0-1.742 0.782-1.742 1.743v9.294c0 0.961 0.781 1.743 1.742 1.743h15.683c0.96 0 1.743-0.782 1.743-1.743v-9.294c0-0.961-0.783-1.743-1.743-1.743zM10.289 10.257c0-2.602 2.117-4.72 4.721-4.72 2.602 0 4.719 2.117 4.719 4.72v1.742h-9.44v-1.742zM22.851 23.035h-15.683v-9.294h15.683v9.294z"></path>
<path fill="#444" d="M14.136 18.815v2.044h1.743v-2.042c0.562-0.309 0.944-0.899 0.944-1.585 0-1.003-0.811-1.815-1.814-1.815-1.004 0-1.816 0.812-1.816 1.815 0 0.685 0.383 1.274 0.943 1.583z"></path>
</svg>
