<?xml version="1.0" encoding="utf-8"?>
<!-- Generator: Adobe Illustrator 20.0.0, SVG Export Plug-In . SVG Version: 6.00 Build 0)  -->
<svg version="1.1" id="Camada_1" xmlns="http://www.w3.org/2000/svg" xmlns:xlink="http://www.w3.org/1999/xlink" x="0px" y="0px"
	 viewBox="0 0 602.947 228.99" enable-background="new 0 0 602.947 228.99" xml:space="preserve">
<g>
	<g>
		<g>
			<path fill="#0CB0B1" d="M206.868,51.564c3.143-1.518,4.595-5.25,3.239-8.517c-1.367-3.302-5.088-4.908-8.409-3.694
				c-0.046,0.016-3.395,1.402-6.737,2.784l5.08,12.263C203.411,53.001,206.812,51.592,206.868,51.564z"/>
			<path fill="#0CB0B1" d="M217.184,76.468c3.144-1.518,4.595-5.249,3.243-8.517c-1.37-3.304-5.094-4.912-8.412-3.697
				c-0.044,0.016-3.396,1.402-6.737,2.786l5.079,12.263C213.73,77.906,217.126,76.498,217.184,76.468z"/>
			<path fill="#0CB0B1" d="M227.619,101.654c3.141-1.515,4.592-5.248,3.239-8.517c-1.367-3.299-5.088-4.908-8.412-3.694
				c-0.04,0.017-3.393,1.404-6.734,2.786l5.079,12.263C224.162,103.093,227.561,101.683,227.619,101.654z"/>
			<path fill="#0CB0B1" d="M238.05,126.842c3.145-1.517,4.592-5.25,3.239-8.515c-1.367-3.305-5.091-4.913-8.408-3.698
				c-0.044,0.019-3.396,1.403-6.737,2.787l5.079,12.264C234.593,128.279,237.993,126.87,238.05,126.842z"/>
			<path fill="#0CB0B1" d="M193.369,57.166c-3.384,1.402-7.268-0.209-8.67-3.595c-1.405-3.389,0.206-7.27,3.591-8.672
				c0.043-0.017,3.352-1.387,6.672-2.762l-5.372-12.974c-3.321,1.377-6.615,2.743-6.673,2.766c-2.836,1.176-6.003,0.217-7.788-2.11
				l-13.271,5.497c0.744,2.771-0.641,5.73-3.361,6.857c-2.719,1.126-5.79,0.012-7.224-2.475l-15.384,6.373
				c0.709,2.323-0.429,4.846-2.716,5.794c-2.285,0.948-4.871-0.034-6.011-2.18l-26.692,11.056c0.16-0.004,0.313-0.023,0.473-0.023
				c8.812,0,16.062,7.05,16.062,16.063c0.003,9.013-7.247,16.26-16.062,16.263c-9.012,0-16.26-7.25-16.26-16.263
				c0-4.563,1.864-8.619,4.867-11.518L0,102.359l52.452,126.63l63.744-26.405l-45.971,0.003l0.003-18.122l18.376-0.001v-60.464
				h-15.09c-2.351,0-2.74-0.589-2.74-2.744l-0.002-12.732c0-2.155,0.395-2.743,2.746-2.743l37.225-0.003
				c2.349,0,2.743,0.587,2.746,2.743l0.003,75.943h16.833v12.271l50.847-21.061c-1.3-0.409-2.43-1.349-2.993-2.707
				c-1.01-2.436,0.148-5.227,2.58-6.232c2.43-1.007,5.222,0.146,6.229,2.58c0.566,1.361,0.433,2.823-0.2,4.031l18.089-7.49
				c-1.135-0.616-2.081-1.578-2.615-2.864c-1.228-2.964,0.18-6.36,3.141-7.586c2.961-1.225,6.362,0.181,7.587,3.143
				c0.531,1.283,0.542,2.636,0.177,3.872l14.886-6.167c-0.777-0.661-1.436-1.49-1.855-2.498c-1.404-3.39,0.207-7.27,3.591-8.673
				c0.044-0.02,3.353-1.39,6.673-2.763l-5.236-12.643c-3.318,1.379-6.615,2.742-6.673,2.768c-3.381,1.399-7.268-0.208-8.67-3.594
				c-1.404-3.391,0.204-7.27,3.59-8.672c0.047-0.02,3.353-1.39,6.676-2.766l-5.355-12.922c-3.317,1.376-6.615,2.745-6.669,2.768
				c-3.388,1.403-7.271-0.21-8.673-3.596c-1.404-3.386,0.203-7.27,3.59-8.673c0.043-0.017,3.352-1.386,6.673-2.762l-5.352-12.922
				c-3.32,1.376-6.615,2.742-6.676,2.767c-3.381,1.402-7.268-0.209-8.67-3.593c-1.402-3.388,0.209-7.27,3.593-8.673
				c0.044-0.017,3.353-1.387,6.673-2.763l-5.236-12.641C196.724,55.777,193.429,57.143,193.369,57.166z M62.132,215.004
				c0,2.58-2.09,4.667-4.667,4.67c-2.575,0-4.665-2.089-4.662-4.67c-0.003-2.571,2.087-4.661,4.665-4.661
				C60.042,210.341,62.132,212.43,62.132,215.004z M55.75,199.509c0,2.573-2.09,4.662-4.665,4.662c-2.574,0-4.662-2.089-4.665-4.662
				c0-2.572,2.087-4.663,4.665-4.663C53.66,194.846,55.75,196.937,55.75,199.509z M49.367,184.008c0,2.576-2.09,4.664-4.665,4.664
				c-2.575,0-4.664-2.087-4.664-4.661c0-2.575,2.086-4.664,4.661-4.664C47.276,179.35,49.367,181.436,49.367,184.008z
				 M42.984,168.509c0,2.577-2.09,4.666-4.668,4.669c-2.575,0-4.664-2.089-4.662-4.669c0-2.572,2.087-4.663,4.662-4.662
				C40.891,163.846,42.984,165.935,42.984,168.509z M36.601,153.012c0,2.577-2.09,4.663-4.667,4.663
				c-2.575,0-4.662-2.086-4.662-4.663c0-2.575,2.087-4.662,4.662-4.665C34.511,148.35,36.601,150.437,36.601,153.012z
				 M30.218,137.509c0,2.577-2.093,4.665-4.667,4.665c-2.574,0-4.662-2.088-4.662-4.665c0-2.571,2.09-4.662,4.665-4.662
				C28.128,132.85,30.218,134.936,30.218,137.509z M23.836,122.015c0,2.575-2.09,4.664-4.667,4.664
				c-2.572-0.001-4.662-2.088-4.662-4.664c0-2.574,2.09-4.666,4.662-4.664C21.746,117.349,23.836,119.439,23.836,122.015z
				 M17.456,106.511c-0.003,2.579-2.093,4.666-4.67,4.669c-2.572-0.003-4.661-2.087-4.661-4.666c0-2.576,2.089-4.663,4.661-4.663
				C15.363,101.851,17.453,103.935,17.456,106.511z M174.232,150.983c-2.432,1.004-5.224-0.151-6.232-2.587
				c-1.007-2.432,0.148-5.221,2.581-6.227c2.429-1.006,5.225,0.145,6.231,2.579C177.819,147.182,176.662,149.975,174.232,150.983z
				 M163.82,125.853c-2.433,1.006-5.225-0.155-6.229-2.586c-1.01-2.436,0.148-5.223,2.578-6.228
				c2.433-1.008,5.228,0.146,6.231,2.577C167.408,122.048,166.253,124.843,163.82,125.853z M153.412,100.719
				c-2.432,1.007-5.225-0.153-6.232-2.583c-1.01-2.439,0.148-5.225,2.581-6.232c2.429-1.006,5.222,0.145,6.232,2.582
				C156.999,96.917,155.841,99.712,153.412,100.719z M143.116,75.869c-2.429,1.006-5.222-0.15-6.229-2.584
				c-1.01-2.434,0.148-5.223,2.581-6.229c2.43-1.007,5.222,0.148,6.232,2.58C146.707,72.069,145.546,74.863,143.116,75.869z
				 M192.185,159.04c-2.856,1.185-6.133-0.178-7.318-3.033c-1.184-2.859,0.174-6.133,3.03-7.318
				c2.853-1.184,6.133,0.172,7.317,3.032C196.396,154.579,195.04,157.859,192.185,159.04z M181.836,134.054
				c-2.859,1.184-6.136-0.177-7.317-3.033c-1.185-2.858,0.174-6.133,3.03-7.317c2.853-1.181,6.13,0.173,7.315,3.031
				C186.048,129.591,184.689,132.871,181.836,134.054z M171.486,109.067c-2.856,1.184-6.136-0.174-7.317-3.033
				c-1.182-2.856,0.177-6.13,3.03-7.314c2.854-1.183,6.133,0.172,7.317,3.029C175.697,104.606,174.339,107.886,171.486,109.067z
				 M161.135,84.083c-2.856,1.183-6.133-0.175-7.314-3.033c-1.188-2.857,0.171-6.133,3.03-7.316c2.854-1.181,6.133,0.171,7.317,3.03
				C165.35,79.622,163.989,82.9,161.135,84.083z M150.788,59.097c-2.856,1.184-6.136-0.177-7.317-3.033
				c-1.184-2.858,0.174-6.13,3.033-7.316c2.854-1.183,6.13,0.173,7.315,3.03C154.999,54.635,153.641,57.916,150.788,59.097z
				 M171.335,37.326c3.381-1.402,7.268,0.205,8.67,3.593c1.401,3.386-0.209,7.272-3.591,8.674c-3.385,1.402-7.271-0.209-8.673-3.595
				C166.337,42.61,167.948,38.729,171.335,37.326z M199.554,141.29c-2.96,1.227-6.359-0.183-7.587-3.146
				c-1.228-2.964,0.18-6.358,3.141-7.586c2.958-1.225,6.357,0.179,7.584,3.142C203.919,136.663,202.512,140.064,199.554,141.29z
				 M189.258,116.439c-2.961,1.226-6.356-0.183-7.584-3.143c-1.228-2.965,0.18-6.361,3.141-7.589c2.96-1.227,6.36,0.18,7.587,3.145
				C193.629,111.812,192.219,115.212,189.258,116.439z M178.969,91.589c-2.964,1.227-6.363-0.183-7.59-3.145
				c-1.225-2.966,0.183-6.362,3.144-7.588c2.958-1.226,6.357,0.178,7.585,3.144C183.337,86.964,181.926,90.363,178.969,91.589z
				 M168.674,66.74c-2.961,1.227-6.36-0.182-7.585-3.145c-1.228-2.965,0.18-6.359,3.14-7.587c2.961-1.226,6.36,0.18,7.588,3.143
				C173.042,62.114,171.634,65.514,168.674,66.74z M221.523,141.158c1.405,3.388-0.206,7.275-3.59,8.676
				c-3.385,1.401-7.268-0.206-8.672-3.597c-1.402-3.386,0.205-7.268,3.59-8.673C216.234,136.165,220.121,137.772,221.523,141.158z
				 M211.115,116.029c1.405,3.386-0.206,7.271-3.591,8.674c-3.381,1.401-7.268-0.209-8.673-3.595
				c-1.402-3.388,0.206-7.269,3.594-8.673C205.826,111.033,209.71,112.64,211.115,116.029z M200.587,90.615
				c1.405,3.387-0.206,7.274-3.587,8.676c-3.388,1.402-7.271-0.209-8.673-3.597c-1.405-3.387,0.208-7.269,3.59-8.669
				C195.301,85.623,199.185,87.225,200.587,90.615z M186.588,74.161c-3.384,1.402-7.268-0.21-8.67-3.596
				c-1.405-3.387,0.206-7.27,3.591-8.673c3.384-1.4,7.268,0.207,8.672,3.594C191.583,68.871,189.976,72.758,186.588,74.161z"/>
		</g>
		<g>
			<path fill="#0CB0B1" d="M255.004,134.478c-3.385,1.402-7.271-0.208-8.673-3.596c-1.404-3.386,0.206-7.27,3.591-8.669
				c3.384-1.402,7.268,0.205,8.67,3.593C259.997,129.194,258.391,133.078,255.004,134.478z M244.596,109.348
				c-3.384,1.402-7.273-0.205-8.673-3.594c-1.405-3.387,0.206-7.272,3.59-8.672c3.381-1.402,7.268,0.206,8.67,3.594
				C249.588,104.063,247.98,107.946,244.596,109.348z M234.068,83.934c-3.385,1.402-7.271-0.208-8.673-3.593
				c-1.404-3.39,0.206-7.272,3.59-8.673c3.385-1.402,7.268,0.203,8.673,3.593C239.06,78.648,237.455,82.533,234.068,83.934z
				 M223.66,58.806c-3.385,1.402-7.271-0.209-8.673-3.596c-1.402-3.387,0.206-7.271,3.593-8.67c3.385-1.402,7.266,0.205,8.67,3.594
				C228.649,53.516,227.044,57.403,223.66,58.806z M213.483,34.239c-3.385,1.402-7.271-0.209-8.673-3.595
				c-1.402-3.389,0.209-7.272,3.59-8.671c3.388-1.401,7.271,0.205,8.673,3.593C218.475,28.95,216.871,32.837,213.483,34.239z
				 M261.961,115.638c-2.795,1.158-6.002-0.171-7.158-2.966c-1.158-2.795,0.169-6,2.964-7.156c2.792-1.156,5.997,0.166,7.154,2.965
				C266.083,111.276,264.754,114.483,261.961,115.638z M251.776,91.06c-2.792,1.156-6-0.174-7.158-2.97
				c-1.155-2.794,0.172-5.999,2.964-7.157c2.791-1.159,6.002,0.171,7.158,2.966C255.898,86.693,254.572,89.902,251.776,91.06z
				 M241.345,65.874c-2.792,1.158-6-0.173-7.158-2.97c-1.158-2.797,0.172-5.999,2.967-7.155c2.792-1.158,6,0.167,7.158,2.964
				C245.469,61.508,244.137,64.716,241.345,65.874z M230.707,40.185c-2.795,1.156-6-0.173-7.158-2.968
				c-1.158-2.796,0.171-6.001,2.964-7.158c2.792-1.157,5.999,0.169,7.155,2.967C234.825,35.82,233.499,39.026,230.707,40.185z
				 M278.982,122.41c-2.432,1.008-5.224-0.147-6.229-2.58c-1.01-2.437,0.147-5.225,2.578-6.232c2.432-1.009,5.224,0.145,6.231,2.58
				C282.573,118.61,281.412,121.403,278.982,122.41z M268.675,97.526c-2.432,1.007-5.224-0.151-6.231-2.584
				c-1.007-2.434,0.151-5.222,2.583-6.23c2.429-1.005,5.221,0.146,6.229,2.58C272.266,93.724,271.105,96.521,268.675,97.526z
				 M258.241,72.338c-2.433,1.007-5.222-0.15-6.229-2.583c-1.01-2.433,0.148-5.223,2.578-6.229c2.432-1.008,5.228,0.148,6.232,2.577
				C261.831,68.539,260.672,71.332,258.241,72.338z M247.809,47.149c-2.432,1.007-5.225-0.147-6.232-2.58
				c-1.004-2.436,0.151-5.225,2.581-6.232c2.43-1.006,5.224,0.145,6.231,2.58C251.399,43.352,250.238,46.142,247.809,47.149z
				 M237.499,22.266c-2.43,1.007-5.222-0.151-6.229-2.583c-1.01-2.435,0.148-5.225,2.581-6.231c2.433-1.006,5.225,0.147,6.232,2.58
				C241.089,18.465,239.931,21.259,237.499,22.266z M286.204,103.788c-1.866,0.774-4-0.117-4.774-1.979
				c-0.772-1.863,0.113-3.998,1.977-4.77c1.86-0.772,3.997,0.114,4.772,1.977C288.949,100.879,288.061,103.018,286.204,103.788z
				 M275.749,78.553c-1.864,0.77-4-0.117-4.771-1.983c-0.772-1.863,0.11-3.997,1.974-4.769c1.863-0.771,4,0.113,4.772,1.976
				C278.498,75.641,277.609,77.78,275.749,78.553z M265.364,53.483c-1.864,0.772-3.998-0.116-4.77-1.977
				c-0.772-1.866,0.11-3.999,1.974-4.771c1.861-0.772,4,0.11,4.772,1.976C268.115,50.571,267.224,52.71,265.364,53.483z
				 M254.981,28.41c-1.866,0.771-4-0.115-4.772-1.979c-0.772-1.863,0.11-3.996,1.977-4.77c1.858-0.77,3.997,0.112,4.769,1.975
				C257.727,25.502,256.841,27.639,254.981,28.41z"/>
			<path fill="#0CB0B1" d="M220.649,15.908c2.503-1.038,3.818-3.721,3.228-6.283l-9.947,4.122
				C215.32,15.973,218.145,16.945,220.649,15.908z"/>
			<circle fill="#0CB0B1" cx="228.608" cy="35.123" r="5.479"/>
			<circle fill="#0CB0B1" cx="239.249" cy="60.812" r="5.48"/>
			<circle fill="#0CB0B1" cx="249.68" cy="85.997" r="5.479"/>
			<circle fill="#0CB0B1" cx="259.863" cy="110.578" r="5.479"/>
			<path fill="#0CB0B1" d="M268.199,130.706c-2.792,1.155-4.122,4.358-2.963,7.154c0.386,0.936,1.016,1.687,1.77,2.258l8.693-3.602
				c0.133-0.938,0.043-1.911-0.342-2.847C274.199,130.871,270.992,129.547,268.199,130.706z"/>
			<circle fill="#0CB0B1" cx="210.941" cy="28.105" r="6.64"/>
			<circle fill="#0CB0B1" cx="221.119" cy="52.671" r="6.64"/>
			<circle fill="#0CB0B1" cx="231.527" cy="77.801" r="6.64"/>
			<circle fill="#0CB0B1" cx="242.053" cy="103.213" r="6.638"/>
			<circle fill="#0CB0B1" cx="252.464" cy="128.346" r="6.639"/>
			<circle fill="#0CB0B1" cx="235.675" cy="17.859" r="4.77"/>
			<circle fill="#0CB0B1" cx="253.583" cy="25.036" r="3.653"/>
			<circle fill="#0CB0B1" cx="263.967" cy="50.109" r="3.652"/>
			<path fill="#0CB0B1" d="M245.014,4.354c1.721-0.714,2.592-2.598,2.105-4.354l-6.665,2.761
				C241.345,4.349,243.289,5.068,245.014,4.354z"/>
			<circle fill="#0CB0B1" cx="274.349" cy="75.177" r="3.653"/>
			<path fill="#0CB0B1" d="M283.409,97.039c-1.867,0.772-2.749,2.907-1.977,4.77c0.771,1.863,2.905,2.754,4.771,1.979
				c1.86-0.77,2.746-2.909,1.977-4.772C287.405,97.152,285.266,96.27,283.409,97.039z"/>
			<path fill="#0CB0B1" d="M293.928,122.445c-1.864,0.771-2.746,2.905-1.971,4.77c0.345,0.84,0.981,1.471,1.736,1.85l5.085-2.106
				c0.267-0.805,0.273-1.696-0.075-2.537C297.927,122.557,295.791,121.67,293.928,122.445z"/>
			<circle fill="#0CB0B1" cx="245.982" cy="42.742" r="4.77"/>
			<circle fill="#0CB0B1" cx="256.417" cy="67.932" r="4.77"/>
			<circle fill="#0CB0B1" cx="266.849" cy="93.12" r="4.77"/>
			<circle fill="#0CB0B1" cx="277.156" cy="118.004" r="4.769"/>
			<path fill="#0CB0B1" d="M243.193,139.535c-0.04,0.015-3.413,1.409-6.763,2.798l3.695,8.92l11.933-4.942
				c0.087-1.02-0.035-2.073-0.453-3.077C250.235,139.926,246.514,138.319,243.193,139.535z"/>
			<path fill="#0CB0B1" d="M200.076,19.482l-12.403,5.141l1.884,4.551c3.381-1.402,6.798-2.819,6.856-2.849
				C199.031,25.065,200.445,22.269,200.076,19.482z"/>
		</g>
	</g>
	<path fill="#515353" d="M100.469,60.744c0.16-0.004,0.313-0.025,0.473-0.025c8.812,0,16.062,7.053,16.062,16.064
		c0.003,9.011-7.247,16.259-16.062,16.262c-9.012,0.003-16.26-7.248-16.26-16.262c0-4.564,1.864-8.619,4.867-11.518"/>
	<path fill="#515353" d="M116.195,202.585l-45.971,0.003l0.003-18.122l18.376-0.001v-60.464h-15.09c-2.351,0-2.74-0.589-2.74-2.744
		l-0.002-12.732c0-2.155,0.395-2.743,2.746-2.743l37.225-0.003c2.349,0,2.743,0.587,2.746,2.743l0.003,75.943h16.833v12.271"/>
	<g>
		<path fill="#55565A" d="M168.557,182.196c0,1.063-0.194,1.354-1.353,1.354h-9.563c-1.161,0-1.353-0.29-1.353-1.354v-29.75
			c0-3.673-0.481-8.116-5.41-8.116c-4.058,0-7.245,2.802-8.502,3.963v33.903c0,1.063-0.194,1.354-1.353,1.354h-9.561
			c-1.158,0-1.352-0.29-1.352-1.354v-29.169c0-13.622-1.835-12.85-1.835-15.071c0-0.483,0.386-0.87,1.062-1.063l7.34-2.416
			c0.581-0.191,1.063-0.288,1.448-0.288c1.257,0,2.029,2.126,3.091,6.666c2.804-2.512,7.149-6.666,14.78-6.666
			c5.312,0,12.559,2.415,12.559,14.104V182.196z"/>
		<path fill="#55565A" d="M215.599,164.807c0,6.378,0.48,16.325,0.48,21.737c0,10.527-5.216,17.484-18.644,17.484
			c-7.532,0-19.996-3.092-19.996-5.119c0-0.676,0.099-1.063,0.389-1.932l1.835-5.893c0.191-0.676,0.58-0.967,1.062-0.967
			c1.159,0,7.05,3.768,15.648,3.768c6.763,0,7.921-2.801,7.921-8.211c0-3.381-0.29-5.697-0.29-6.374
			c-1.448,0.965-5.117,3.67-11.686,3.67c-10.817,0-16.518-9.079-16.518-23.568c0-15.552,6.763-25.212,18.257-25.212
			c6.855,0,9.659,2.993,11.494,4.541c0.29-0.871,2.029-4.541,3.382-4.541c0.29,0,0.676,0.095,0.963,0.192l7.535,2.801
			c0.386,0.195,0.868,0.484,0.868,0.872c0,1.256-2.702,4.734-2.702,12.363v14.389H215.599z M204.003,147.227
			c-1.254-0.964-3.283-2.897-7.631-2.897c-5.794,0-8.307,5.411-8.307,14.685c0,8.789,1.933,14.295,7.729,14.295
			c4.922,0,7.245-2.414,8.208-3.283V147.227L204.003,147.227z"/>
		<path fill="#55565A" d="M237.812,182.196c0,1.063-0.191,1.354-1.353,1.354h-9.561c-1.161,0-1.352-0.29-1.352-1.354v-29.169
			c0-10.627-2.511-12.365-2.511-14.589c0-0.386,0.386-0.675,0.868-0.868l7.341-2.996c0.386-0.096,0.871-0.386,1.257-0.386
			c1.158,0,3.091,4.348,3.573,7.632c1.838-2.221,5.411-7.632,11.982-7.632c2.802,0,5.602,0.963,5.602,2.221
			c0,0.387-0.096,0.774-0.194,0.967l-2.992,8.112c-0.1,0.291-0.389,0.871-0.776,0.871c-0.58,0-2.319-1.062-4.54-1.062
			c-2.995,0-6.086,3.283-7.343,4.637V182.196L237.812,182.196z"/>
		<path fill="#55565A" d="M292.969,178.428c0.194,0.29,0.29,0.677,0.29,1.063c0,2.511-9.66,5.7-17.29,5.7
			c-12.751,0-21.639-7.244-21.639-25.02c0-15.36,8.211-25.984,21.154-25.984c16.423,0,19.32,14.684,19.32,26.37
			c0,1.835-0.386,2.415-2.221,2.415h-25.987c0,5.41,1.547,12.075,10.627,12.075c6.954,0,10.916-3.188,12.269-3.188
			c0.482,0,0.868,0.387,1.062,0.773L292.969,178.428z M281.766,153.99c0-3.96-0.29-10.817-6.955-10.817
			c-7.535,0-7.921,8.113-8.211,10.817H281.766z"/>
		<path fill="#55565A" d="M330.449,145.488c-0.193,0.485-0.676,0.871-0.773,0.871c-0.288,0-5.022-2.511-11.204-2.511
			c-3.672,0-6.377,1.354-6.377,4.636c0,5.218,8.695,4.83,15.552,9.372c3.768,2.511,6.474,6.182,6.474,11.784
			c0,8.886-6.28,15.554-16.521,15.554c-7.148,0-18.157-3.674-18.157-6.279c0-0.291,0.386-0.871,0.481-1.258l2.125-5.506
			c0.194-0.481,0.386-0.869,0.772-0.869c0.389,0,7.827,4.251,13.815,4.251c3.188,0,5.893-1.352,5.893-4.83
			c0-5.605-9.466-5.605-15.843-9.855c-2.896-1.933-5.697-5.311-5.697-10.915c0-8.79,6.662-15.746,17.096-15.746
			c5.892,0,15.069,2.51,15.069,4.732c0,0.288-0.29,0.871-0.481,1.258L330.449,145.488z"/>
		<path fill="#55565A" d="M369.184,145.488c-0.191,0.485-0.676,0.871-0.775,0.871c-0.286,0-5.022-2.511-11.203-2.511
			c-3.672,0-6.374,1.354-6.374,4.636c0,5.218,8.692,4.83,15.552,9.372c3.768,2.511,6.47,6.182,6.47,11.784
			c0,8.886-6.278,15.554-16.518,15.554c-7.147,0-18.158-3.674-18.158-6.279c0-0.291,0.386-0.871,0.482-1.258l2.124-5.506
			c0.194-0.481,0.387-0.869,0.774-0.869c0.386,0,7.825,4.251,13.814,4.251c3.186,0,5.892-1.352,5.892-4.83
			c0-5.605-9.466-5.605-15.843-9.855c-2.895-1.933-5.697-5.311-5.697-10.915c0-8.79,6.665-15.746,17.096-15.746
			c5.893,0,15.07,2.51,15.07,4.732c0,0.288-0.287,0.871-0.482,1.258L369.184,145.488z"/>
		<path fill="#55565A" d="M398.741,185.192c-13.037,0-20.959-9.949-20.959-25.502c0-15.552,7.922-25.502,20.959-25.502
			c12.945,0,20.963,9.95,20.963,25.502C419.704,175.243,411.786,185.192,398.741,185.192z M406.665,159.69
			c0-8.983-1.257-15.842-7.922-15.842c-6.664,0-7.92,6.858-7.92,15.842s1.157,15.843,7.92,15.843S406.665,168.769,406.665,159.69z"
			/>
		<path fill="#55565A" d="M435.74,185.192c-4.929,0-9.178-4.058-9.178-9.177c0-5.122,4.249-9.179,9.178-9.179
			c5.021,0,9.176,4.057,9.176,9.179C444.915,181.134,440.761,185.192,435.74,185.192z"/>
		<path fill="#55565A" d="M486.354,179.105c0.1,0.292,0.291,0.677,0.291,0.968c0,2.318-7.826,5.119-13.618,5.119
			c-13.428,0-21.448-8.21-21.448-24.538c0-16.326,8.213-26.467,22.51-26.467c5.216,0,13.715,2.896,13.715,5.893
			c0,0.29-0.191,0.579-0.287,0.868l-3.577,6.279c-0.191,0.193-0.386,0.484-0.673,0.484c-0.966,0-4.155-3.864-9.178-3.864
			c-6.567,0-9.469,5.022-9.469,16.131c0,10.625,2.511,15.554,9.951,15.554c4.926,0,6.858-3.287,8.597-3.287
			c0.291,0,0.482,0.195,0.677,0.483L486.354,179.105z"/>
		<path fill="#55565A" d="M511.373,185.192c-13.038,0-20.96-9.949-20.96-25.502c0-15.552,7.922-25.502,20.96-25.502
			c12.944,0,20.961,9.95,20.961,25.502C532.333,175.243,524.414,185.192,511.373,185.192z M519.292,159.69
			c0-8.983-1.253-15.842-7.92-15.842c-6.662,0-7.918,6.858-7.918,15.842s1.157,15.843,7.918,15.843
			C518.134,175.533,519.292,168.769,519.292,159.69z"/>
		<path fill="#55565A" d="M602.947,182.196c0,1.063-0.193,1.354-1.352,1.354h-9.564c-1.158,0-1.353-0.29-1.353-1.354v-29.75
			c0-3.673-0.386-8.116-4.054-8.116c-4.059,0-7.246,2.802-8.502,3.963v33.903c0,1.063-0.195,1.354-1.35,1.354h-9.567
			c-1.158,0-1.353-0.29-1.353-1.354v-29.75c0-3.673-0.386-8.116-4.056-8.116c-4.057,0-7.244,2.802-8.501,3.963v33.903
			c0,1.063-0.194,1.354-1.352,1.354h-9.565c-1.158,0-1.352-0.29-1.352-1.354v-29.169c0-13.622-1.835-12.85-1.835-15.071
			c0-0.483,0.39-0.87,1.065-1.063l7.337-2.416c0.583-0.191,1.066-0.288,1.452-0.288c1.257,0,2.029,2.126,3.091,6.666
			c2.898-2.512,7.149-6.666,14.776-6.666c4.154,0,8.696,2.607,9.858,6.666c2.893-2.512,7.047-6.666,14.968-6.666
			c9.083,0,11.206,6.859,11.206,15.262V182.196z"/>
	</g>
</g>
</svg>
