<?xml version="1.0" encoding="utf-8"?>
<!-- Generated by IcoMoon.io -->
<!DOCTYPE svg PUBLIC "-//W3C//DTD SVG 1.1//EN" "http://www.w3.org/Graphics/SVG/1.1/DTD/svg11.dtd">
<svg version="1.1" xmlns="http://www.w3.org/2000/svg" xmlns:xlink="http://www.w3.org/1999/xlink" width="30" height="30" viewBox="0 0 30 30">
<path  d="M14.926 25.543c-0.148 0-0.299-0.037-0.433-0.111-0.039-0.020-0.079-0.049-0.112-0.077l-0.278-0.192c-0.663-0.463-2.215-1.541-3.243-2.338-3.944-3.071-5.96-5.287-6.344-6.97-0.184-0.556-0.293-1.225-0.3-1.917-0.022-1.829 0.666-3.595 1.895-4.844 1.12-1.138 2.588-1.769 4.135-1.774v0c1.746 0 3.333 0.705 4.475 1.936 1.125-1.276 2.711-2.022 4.436-2.046l0.115-0.001c3.305 0 6.026 2.9 6.073 6.464 0.014 0.687-0.083 1.357-0.272 2-0.319 1.614-2.33 3.951-6.13 7.063-1.463 1.208-2.65 2.101-3.535 2.663-0.146 0.096-0.313 0.143-0.478 0.143v0zM10.307 9.109c-1.121 0.008-2.138 0.446-2.92 1.241-0.897 0.911-1.402 2.211-1.384 3.569 0.008 0.51 0.088 1.001 0.236 1.463 0.178 0.766 1.126 2.461 5.716 6.034 0.905 0.7 2.259 1.647 2.98 2.15 0.762-0.526 1.742-1.278 2.865-2.205 4.488-3.675 5.397-5.406 5.539-6.113 0.154-0.547 0.221-1.040 0.216-1.548-0.033-2.59-1.958-4.698-4.284-4.698-0.007 0-0.091 0.001-0.091 0.001-1.521 0.020-2.889 0.845-3.663 2.203-0.155 0.276-0.448 0.448-0.764 0.453-0.297-0.001-0.614-0.16-0.78-0.432-0.799-1.327-2.171-2.117-3.667-2.117v0z"></path>
</svg>
