<?xml version="1.0" encoding="utf-8"?>
<!-- Generated by IcoMoon.io -->
<!DOCTYPE svg PUBLIC "-//W3C//DTD SVG 1.1//EN" "http://www.w3.org/Graphics/SVG/1.1/DTD/svg11.dtd">
<svg version="1.1" xmlns="http://www.w3.org/2000/svg" xmlns:xlink="http://www.w3.org/1999/xlink" width="30" height="30" viewBox="0 0 30 30">
<path fill="#444" d="M23.961 6.51h-18.035c-1.291 0-2.342 1.050-2.342 2.34v11.798c0 1.292 1.051 2.342 2.342 2.342h18.035c1.289 0 2.341-1.050 2.341-2.342v-11.798c0-1.29-1.051-2.34-2.341-2.34zM24.205 21.173h-18.521c-0.103 0-0.195-0.044-0.262-0.112l6.313-5.628 2.869 2.558c0.098 0.086 0.219 0.13 0.341 0.13s0.243-0.043 0.338-0.13l2.87-2.559 6.312 5.63c-0.066 0.068-0.158 0.111-0.26 0.111zM14.944 16.928l-9.522-8.491c0.067-0.068 0.159-0.111 0.261-0.111h18.521c0.102 0 0.194 0.043 0.26 0.111l-9.52 8.491zM5.317 9.711l5.651 5.039-5.651 5.040v-10.079zM18.918 14.75l5.651-5.039v10.079l-5.651-5.040z"></path>
</svg>
