<?xml version="1.0" encoding="utf-8"?>
<!-- Generated by IcoMoon.io -->
<!DOCTYPE svg PUBLIC "-//W3C//DTD SVG 1.1//EN" "http://www.w3.org/Graphics/SVG/1.1/DTD/svg11.dtd">
<svg version="1.1" xmlns="http://www.w3.org/2000/svg" xmlns:xlink="http://www.w3.org/1999/xlink" width="30" height="30" viewBox="0 0 30 30">
<path fill="#444" d="M24.772 11.425l-9.188-7.881c-0.332-0.283-0.817-0.286-1.15-0.003l-9.264 7.881c-0.197 0.169-0.311 0.414-0.311 0.673v11.701c0 1.15 0.935 2.084 2.084 2.084h16.052c1.15 0 2.083-0.935 2.083-2.084v-11.701c0-0.258-0.112-0.503-0.307-0.67zM6.627 14.179l4.897 4.367-4.897 4.367v-8.735zM22.996 24.113h-16.052c-0.089 0-0.168-0.037-0.225-0.096l5.669-5.056c0.054-0.025 0.104-0.060 0.145-0.107 0.013-0.014 0.017-0.032 0.028-0.047l2.409-2.149 8.252 7.359c-0.057 0.059-0.137 0.096-0.225 0.096zM23.312 22.913l-4.896-4.366 4.896-4.366v8.733zM23.312 12.996l-5.56 4.958-2.487-2.218c-0.168-0.15-0.421-0.15-0.589 0l-2.487 2.218-5.561-4.96v-0.49l8.378-7.127 8.306 7.125v0.493z"></path>
<path fill="#444" d="M11.623 11.786c0 1.941 1.446 3.119 3.089 3.119 0.703 0 1.218-0.089 1.812-0.356l-0.178-0.574c-0.396 0.208-0.931 0.317-1.436 0.317-1.475 0-2.535-0.94-2.535-2.594 0-1.891 1.327-3.079 2.842-3.079 1.535 0 2.367 1 2.367 2.287 0 1.139-0.535 1.683-0.961 1.673-0.277-0.010-0.346-0.277-0.247-0.861l0.297-1.832c-0.247-0.139-0.743-0.247-1.178-0.247-1.426 0-2.317 1.099-2.317 2.307 0 0.812 0.465 1.287 1.109 1.287 0.525 0 0.97-0.257 1.277-0.762h0.020c0.050 0.525 0.386 0.762 0.852 0.762 1.069 0 1.881-0.911 1.881-2.356 0-1.664-1.247-2.862-2.99-2.862-2.238-0.001-3.703 1.752-3.703 3.772zM15.504 11.4c-0.089 0.574-0.475 1.040-0.841 1.040-0.327 0-0.495-0.238-0.495-0.614 0-0.763 0.515-1.406 1.168-1.406 0.129 0 0.228 0.020 0.307 0.040l-0.139 0.941z"></path>
</svg>
