<?xml version="1.0" encoding="utf-8"?>
<!-- Generated by IcoMoon.io -->
<!DOCTYPE svg PUBLIC "-//W3C//DTD SVG 1.1//EN" "http://www.w3.org/Graphics/SVG/1.1/DTD/svg11.dtd">
<svg version="1.1" xmlns="http://www.w3.org/2000/svg" xmlns:xlink="http://www.w3.org/1999/xlink" width="30" height="30" viewBox="0 0 30 30">
<path fill="#444" d="M19.907 6.555h-9.815c-0.294 0-0.533 0.239-0.533 0.533v15.422c0 0.294 0.239 0.533 0.533 0.533h9.815c0.294 0 0.533-0.239 0.533-0.533v-15.422c0-0.294-0.239-0.533-0.533-0.533zM19.374 21.977h-8.748v-14.356h8.748v14.356z"></path>
<path fill="#444" d="M11.943 18.206h6.114c0.194 0 0.351-0.156 0.351-0.351v-8.879c0-0.194-0.156-0.35-0.351-0.35h-6.114c-0.193 0-0.35 0.157-0.35 0.35v8.878c-0 0.194 0.157 0.351 0.35 0.351zM12.294 9.328h5.413v8.177h-5.413v-8.177z"></path>
<path fill="#444" d="M15 19.385c-0.46 0-0.832 0.373-0.832 0.833s0.372 0.832 0.832 0.832c0.459 0 0.832-0.374 0.832-0.832s-0.374-0.833-0.832-0.833z"></path>
</svg>
