<?xml version="1.0" encoding="utf-8"?>
<!-- Generated by IcoMoon.io -->
<!DOCTYPE svg PUBLIC "-//W3C//DTD SVG 1.1//EN" "http://www.w3.org/Graphics/SVG/1.1/DTD/svg11.dtd">
<svg version="1.1" xmlns="http://www.w3.org/2000/svg" xmlns:xlink="http://www.w3.org/1999/xlink" width="30" height="30" viewBox="0 0 30 30">
<path  d="M24.29 8.95c0.060-0.409-0.044-0.816-0.29-1.147s-0.608-0.546-1.016-0.605l-14.877-2.176c-0.855-0.134-1.632 0.478-1.752 1.304l-0.446 3.042c-0.059 0.407 0.044 0.815 0.29 1.145 0.248 0.331 0.608 0.547 1.016 0.606l8.794 1.286h-8.614c-0.852 0-1.546 0.693-1.546 1.544v8.585c0 0.852 0.694 1.545 1.546 1.545h15.035c0.853 0 1.545-0.693 1.546-1.545v-8.585c0-0.457-0.2-0.867-0.516-1.15 0.2-0.22 0.34-0.499 0.386-0.809l0.445-3.041zM10.683 9.849l-1.347-3.048 2.635 0.378 1.443 3.269-2.703-0.387c0.009-0.070 0.001-0.143-0.029-0.212zM14.246 10.37l-1.35-3.058 2.635 0.378 1.443 3.27-2.698-0.387c0.007-0.067-0.001-0.136-0.031-0.203zM17.811 10.892l-1.355-3.070 2.634 0.378 1.445 3.269-2.693-0.386c0.006-0.064-0.003-0.129-0.031-0.192zM21.375 11.412l-1.36-3.079 2.707 0.389-0.438 2.999-0.875-0.125c0.003-0.061-0.006-0.124-0.033-0.183zM7.876 6.591l0.534 0.077 1.445 3.269-2.377-0.341 0.398-3.006zM13.148 13.975l-1.643 2.614c-0.019 0.031-0.032 0.064-0.042 0.097h-2.685l1.7-2.704 2.671-0.007zM14.085 13.973l2.673-0.007-1.65 2.624c-0.020 0.031-0.033 0.064-0.043 0.097h-2.686l1.706-2.713zM17.695 13.963l2.671-0.007-1.656 2.633c-0.020 0.031-0.033 0.064-0.043 0.097h-2.685l1.712-2.723zM21.303 13.953l1.087-0.003v2.736h-2.805l1.718-2.733zM9.54 13.985l-1.637 2.604c-0.019 0.031-0.032 0.064-0.043 0.097h-0.452l-0.013-2.695 2.145-0.006zM7.435 22.535l-0.024-5.056h14.978v5.015l-14.954 0.041z"></path>
</svg>
