<?xml version="1.0" encoding="utf-8"?>
<!-- Generated by IcoMoon.io -->
<!DOCTYPE svg PUBLIC "-//W3C//DTD SVG 1.1//EN" "http://www.w3.org/Graphics/SVG/1.1/DTD/svg11.dtd">
<svg version="1.1" xmlns="http://www.w3.org/2000/svg" xmlns:xlink="http://www.w3.org/1999/xlink" width="32" height="32" viewBox="0 0 32 32">
<path fill="#000" d="M20.867 9.872h-10.058c-0.707 0-1.28 0.573-1.28 1.28v9.28c0 0.707 0.573 1.28 1.28 1.28h10.058c0.707 0 1.28-0.573 1.28-1.28v-9.28c0-0.707-0.573-1.28-1.28-1.28zM10.81 10.915h10.058c0.127 0 0.23 0.103 0.23 0.23v0.288h-9.501c0 0 0 0 0 0-0.144 0-0.261 0.117-0.261 0.261s0.117 0.261 0.261 0.261c0 0 0 0 0 0h9.504v0.64c-0.069-0.014-0.149-0.022-0.23-0.022h-10.061c-0.082 0.001-0.161 0.009-0.238 0.024l0.008-1.451c0-0.127 0.103-0.23 0.23-0.23zM21.101 17.875h-2.24c-0.108 0-0.195-0.087-0.195-0.195v-1.085c0-0.108 0.087-0.195 0.195-0.195h2.24v1.475zM20.87 20.659h-10.061c-0.127 0-0.23-0.103-0.23-0.23v-6.582c0-0.127 0.103-0.23 0.23-0.23h10.058c0.127 0 0.23 0.103 0.23 0.23v1.514h-2.24c-0.681 0.002-1.233 0.554-1.235 1.235v1.085c0.002 0.681 0.554 1.233 1.235 1.235h2.24v1.51c-0.002 0.127-0.104 0.229-0.23 0.23z"></path>
</svg>
