<?xml version="1.0" encoding="utf-8"?>
<!-- Generated by IcoMoon.io -->
<!DOCTYPE svg PUBLIC "-//W3C//DTD SVG 1.1//EN" "http://www.w3.org/Graphics/SVG/1.1/DTD/svg11.dtd">
<svg version="1.1" xmlns="http://www.w3.org/2000/svg" xmlns:xlink="http://www.w3.org/1999/xlink" width="30" height="30" viewBox="0 0 30 30">
<path fill="#444" d="M8.772 18.148h-2.018v-2.018c0-0.041-0.034-0.075-0.075-0.075h-0.785c-0.041 0-0.075 0.034-0.075 0.075v2.878c0 0.041 0.034 0.075 0.075 0.075h2.878c0.041 0 0.075-0.034 0.075-0.075v-0.785c0-0.041-0.034-0.075-0.075-0.075z"></path>
<path fill="#444" d="M24.052 22.416l-0.213-0.397c-0.152-0.283-0.515-1.141-0.377-1.705 0.194-0.852 0.796-3.691 0.416-4.461-0.024-0.047-2.569-4.697-3.728-4.73-0.118-0.003-0.278-0.038-0.434-0.072-0.23-0.050-0.473-0.099-0.617-0.065-0.183-0.388-0.413-0.73-0.708-1.050-1.163-0.955-3.625-1.478-5.003-1.544-1.214-0.051-1.909 0.531-1.964 1.107-0.1 1.015 1.367 1.545 2.244 1.861l0.059 0.021c0.698 0.253 1.305 0.5 1.631 0.942-0.455 0.153-1.021 0.475-1.332 1.152-0.261 0.568-0.503 1.532-0.669 2.291-0.080-0.088-0.158-0.176-0.233-0.261-0.185-0.207-0.314-0.38-0.428-0.531-0.252-0.335-0.418-0.556-0.879-0.769-0.313-0.144-0.665-0.221-1.021-0.221-0.415 0-0.823 0.103-1.118 0.281-0.329 0.199-0.519 0.48-0.534 0.792-0.020 0.404 0.235 0.977 0.57 1.278 0.209 0.187 0.218 0.207 0.286 0.36 0.052 0.117 0.131 0.294 0.329 0.631 0.53 1.719 5.127 5.681 5.65 6.128 0.593 0.488 0.794 1.199 0.796 1.206l0.112 0.415c0.006 0.020 0.019 0.037 0.038 0.047 0.010 0.005 0.023 0.008 0.034 0.008 0.009 0 0.018-0.001 0.026-0.005l7.026-2.605c0.020-0.007 0.036-0.023 0.044-0.044s0.007-0.043-0.004-0.061zM11.215 17.036c-0.215-0.375-0.329-0.605-0.413-0.773-0.143-0.288-0.187-0.374-0.464-0.624-0.058-0.052-0.135-0.264-0.181-0.391-0.023-0.062-0.040-0.108-0.054-0.142 0.030-0.025 0.081-0.059 0.165-0.094 0.087-0.036 0.27-0.096 0.526-0.096 0.223 0 0.436 0.046 0.631 0.136 0.3 0.139 0.404 0.286 0.577 0.531 0.101 0.143 0.226 0.32 0.426 0.545 0.754 0.847 1.465 1.647 2.25 1.647 0.131 0 0.262-0.023 0.389-0.068 1.469-0.519 1.525-1.809 1.505-4.446-0.014-1.85-1.465-2.376-2.526-2.759l-0.293-0.105c-0.64-0.227-1.244-0.442-1.221-0.672 0.010-0.388 0.332-0.526 0.606-0.526 0.031 0 0.062 0.002 0.101 0.006 1.075 0.002 3.232 0.484 4.475 1.372 0.337 0.366 0.571 0.779 0.734 1.293 0.004 0.018 0.009 0.035 0.014 0.048 0.106 0.349 0.171 0.708 0.236 1.069 0.078 0.434 0.152 0.844 0.305 1.217 0.096 0.233 0.375 0.352 0.609 0.256 0.116-0.047 0.206-0.137 0.255-0.253s0.049-0.242 0.001-0.357c-0.116-0.286-0.181-0.65-0.254-1.051-0.049-0.273-0.104-0.58-0.186-0.894 0.063 0.009 0.157 0.036 0.248 0.063 0.143 0.042 0.291 0.085 0.41 0.089 0.573 0.28 2.486 3.258 2.955 4.209 0.139 0.287-0.090 2.079-0.488 3.832-0.019 0.080-0.033 0.16-0.043 0.241l-6.055 2.29c-1.444-1.245-4.864-4.379-5.24-5.595zM22.528 21c0.051 0.355 0.156 0.695 0.267 0.976l-5.3 1.965c-0.114-0.242-0.292-0.543-0.541-0.832l5.575-2.109zM15.313 13.1c0.003 0.018 0.005 0.036 0.008 0.055 0.319 2.734 0.246 3.277-0.491 3.632-0.123 0.059-0.338-0.011-0.631-0.203 0.055-0.629 0.199-2.056 0.431-2.753 0.129-0.388 0.428-0.608 0.684-0.73z"></path>
<path fill="#444" d="M15.051 5.933h2.018v2.018c0 0.041 0.034 0.075 0.075 0.075h0.785c0.041 0 0.075-0.034 0.075-0.075v-2.878c0-0.041-0.034-0.075-0.075-0.075h-2.878c-0.041 0-0.075 0.034-0.075 0.075v0.785c0 0.042 0.034 0.075 0.075 0.075z"></path>
</svg>
