<?xml version="1.0" encoding="utf-8"?>
<!-- Generated by IcoMoon.io -->
<!DOCTYPE svg PUBLIC "-//W3C//DTD SVG 1.1//EN" "http://www.w3.org/Graphics/SVG/1.1/DTD/svg11.dtd">
<svg version="1.1" xmlns="http://www.w3.org/2000/svg" xmlns:xlink="http://www.w3.org/1999/xlink" width="30" height="30" viewBox="0 0 30 30">
<path  d="M14.924 14.959c1.66 0 3.010-1.349 3.010-3.009s-1.351-3.009-3.010-3.009c-1.659 0-3.009 1.35-3.009 3.009s1.35 3.009 3.009 3.009zM14.924 10.673c0.704 0 1.277 0.572 1.277 1.276s-0.573 1.276-1.277 1.276c-0.704 0-1.276-0.572-1.276-1.276s0.572-1.276 1.276-1.276z"></path>
<path  d="M14.924 5.299c-3.667 0-6.651 2.983-6.651 6.651 0 5.263 5.76 11.761 6.005 12.035l0.64 0.717 0.647-0.711c0.245-0.269 6.011-6.661 6.011-12.040-0.001-3.668-2.985-6.651-6.653-6.651zM14.924 7.031c2.712 0 4.919 2.206 4.919 4.918 0 3.751-3.572 8.474-4.913 10.115-1.342-1.664-4.923-6.446-4.923-10.115 0-2.712 2.206-4.918 4.918-4.918z"></path>
</svg>
