<?xml version="1.0" encoding="utf-8"?>
<!-- Generated by IcoMoon.io -->
<!DOCTYPE svg PUBLIC "-//W3C//DTD SVG 1.1//EN" "http://www.w3.org/Graphics/SVG/1.1/DTD/svg11.dtd">
<svg version="1.1" xmlns="http://www.w3.org/2000/svg" xmlns:xlink="http://www.w3.org/1999/xlink" width="30" height="30" viewBox="0 0 30 30">
<path fill="#444" d="M23.981 7.076c-0.084 0-0.17 0.009-0.261 0.026-0.927-0.719-2.214-0.983-3.617-0.749-1.826 0.306-3.314 1.125-4.077 2.24-0.019 0.024-0.035 0.049-0.050 0.074-0.025-0.003-0.050-0.005-0.074-0.005h-1.804c-0.025 0-0.050 0.001-0.075 0.005-0.014-0.023-0.029-0.046-0.044-0.068-0.767-1.12-2.255-1.939-4.081-2.245-1.414-0.236-2.692 0.031-3.619 0.749-0.092-0.018-0.176-0.026-0.26-0.026-0.791 0-1.434 0.643-1.434 1.434v1.208c0 0.339 0.123 0.667 0.347 0.929 0.075 0.652 0.254 1.282 0.534 1.874l-0.221 0.108c-0.193 0.095-0.337 0.258-0.406 0.462s-0.055 0.423 0.040 0.616c0.136 0.277 0.412 0.449 0.721 0.449 0.124 0 0.243-0.028 0.355-0.083l0.107-0.053v9.138c0 0.472 0.384 0.856 0.856 0.856s0.856-0.384 0.856-0.856v-8.229c0.67 0.315 1.35 0.424 2.081 0.311 1.978-0.307 3.895-1.957 4.507-3.861h1.28c0.612 1.905 2.53 3.554 4.51 3.861 0.185 0.029 0.368 0.043 0.546 0.043 2.156 0 4.076-2.038 4.374-4.636 0.224-0.26 0.346-0.588 0.346-0.929v-1.208c0-0.791-0.643-1.434-1.434-1.434zM17.474 9.7l0.046-0.074c0.482-0.706 1.56-1.259 2.882-1.48 0.896-0.152 1.708-0.007 2.231 0.415l0.639 0.513 0.325-0.077v0.568l-0.168 0.181-0.165 0.589-0.006 0.15c-0.209 1.644-1.359 2.982-2.565 2.982-0.083 0-0.175-0.008-0.267-0.022-1.321-0.204-2.703-1.409-3.080-2.686l-0.169-0.575 0.297-0.484zM12.813 10.2l-0.164 0.558c-0.375 1.276-1.754 2.482-3.075 2.686-0.091 0.014-0.184 0.022-0.269 0.022-1.213 0-2.366-1.351-2.568-3.005l-0.085-0.625-0.253-0.274v-0.565l0.324 0.077 0.637-0.513c0.524-0.423 1.329-0.568 2.236-0.416 1.322 0.221 2.401 0.776 2.879 1.474l0.337 0.582z"></path>
</svg>
