<?xml version="1.0" encoding="utf-8"?>
<!-- Generated by IcoMoon.io -->
<!DOCTYPE svg PUBLIC "-//W3C//DTD SVG 1.1//EN" "http://www.w3.org/Graphics/SVG/1.1/DTD/svg11.dtd">
<svg version="1.1" xmlns="http://www.w3.org/2000/svg" xmlns:xlink="http://www.w3.org/1999/xlink" width="30" height="30" viewBox="0 0 30 30">
<path fill="#444" d="M23.48 12.707c0.276-0.604 0.381-1.283 0.281-1.856-0.057-0.328-0.176-0.62-0.355-0.875 0.205-0.453 0.254-0.964 0.139-1.457-0.267-1.129-1.357-2.013-2.486-2.013-0.327 0-0.641 0.069-0.933 0.205-0.494-0.395-1.126-0.595-1.777-0.53-0.035-0.050-0.070-0.097-0.107-0.141-0.443-0.54-1.131-0.838-1.936-0.838-0.456 0-0.923 0.098-1.342 0.278-0.607-0.781-1.424-1.208-2.319-1.208-0.457 0-0.916 0.114-1.363 0.337-1.147 0.573-1.769 1.581-1.768 2.854-0.541 0.195-0.997 0.586-1.27 1.097-0.206 0.388-0.301 0.825-0.278 1.277-0.811 0.322-1.398 0.971-1.517 1.699-0.082 0.5 0.062 0.992 0.399 1.384-0.218 0.315-0.288 0.682-0.199 1.056l1.766 5.387c-1.084 0.633-1.677 1.54-1.677 2.57 0 0.044 0.001 0.093 0.003 0.141-0.363 0.288-0.659 0.683-0.842 1.127-0.38 0.918-0.202 1.906 0.464 2.576 0.463 0.462 1.132 0.717 1.881 0.717 0.476 0 0.955-0.104 1.402-0.302 0.211 0.38 0.53 0.665 0.934 0.832 0.465 0.191 1.044 0.209 1.534 0.050 0.261 0.261 0.608 0.468 0.977 0.578 0.15 0.046 0.39 0.101 0.681 0.101 0.566 0 1.383-0.212 2.062-1.225 0.061-0.093 0.114-0.199 0.16-0.324l4.517-2.259c0.377-0.189 0.648-0.532 0.744-0.942l2.601-8.965c0.111-0.488-0.032-0.985-0.378-1.331zM7.82 11.761c0.055-0.336 0.612-0.742 1.222-0.742 0.121 0 0.241 0.017 0.359 0.050l0.541 0.156c-0.005 0.055-0.007 0.112-0.007 0.169 0 0.383 0.311 0.695 0.694 0.695s0.695-0.312 0.695-0.695c0-0.254 0.206-0.46 0.461-0.46s0.461 0.206 0.461 0.46c0 0.010-0.002 0.021-0.005 0.034l-0.005 0.040c-0.037 0.265 0.084 0.531 0.305 0.676 0.22 0.145 0.52 0.151 0.743 0.014 0.076-0.046 0.152-0.069 0.234-0.069 0.254 0 0.461 0.207 0.461 0.461 0 0.384 0.312 0.695 0.695 0.695s0.694-0.311 0.694-0.695c0-1.025-0.839-1.868-1.867-1.85-0.187-0.46-0.557-0.826-1.022-1.013 0-0.007 0-0.015 0-0.023 0-0.779 0.819-1.039 1.039-1.039 0.311 0 1.039 0.378 1.039 1.111 0 0.31 0.208 0.584 0.506 0.668 0.296 0.082 0.615-0.044 0.78-0.305 0.1-0.16 0.503-0.229 0.768-0.115 0.425 0.182 0.388 0.691 0.281 1.088-0.083 0.312 0.058 0.638 0.343 0.792 0.272 0.148 0.637 0.085 0.849-0.148 0.357-0.403 0.704-0.488 0.931-0.488 0.1 0 0.198 0.017 0.283 0.049 0.293 0.112 0.462 0.392 0.462 0.77 0 0.383 0.311 0.695 0.695 0.695s0.694-0.312 0.694-0.695c0-0.606-0.209-1.148-0.576-1.545h1.037c0.345 0 0.581 0.116 0.701 0.346 0.188 0.359 0.093 1-0.215 1.497-0.082 0.021-0.159 0.050-0.233 0.085l-3.207 1.54-3.408 1.521-6.848-3.186c-0.238-0.079-0.627-0.254-0.58-0.543zM12.642 5.662c0.758 0 1.408 0.646 1.784 1.772l0.004 0.012c-0.31-0.142-0.629-0.215-0.912-0.215-0.796 0-1.877 0.556-2.274 1.582l-0.1-0.221c-0.036-0.079-0.855-1.936 0.757-2.741 0.251-0.125 0.501-0.188 0.742-0.188zM20.108 8.625c0.239-0.477 0.568-0.729 0.95-0.729 0.494 0 1.012 0.432 1.134 0.944 0.111 0.471-0.138 0.886-0.701 1.169l-0.942 0.472c-0.209-0.218-0.465-0.39-0.761-0.503-0.252-0.094-0.515-0.143-0.782-0.143-0.251 0-0.502 0.042-0.746 0.125-0.14-0.481-0.438-0.872-0.854-1.125l0.391-0.788c0.21-0.421 0.575-0.485 0.774-0.485 0.504 0 1.042 0.381 1.042 0.946v1.104l0.495-0.987zM17.307 7.878l-0.163 0.822c-0.263-0.11-0.554-0.169-0.845-0.169-0.212 0-0.422 0.031-0.621 0.090-0.184-0.358-0.448-0.651-0.744-0.874v-0.396c0-0.383 0.677-0.759 1.365-0.759 0.222 0 0.629 0.044 0.863 0.329 0.178 0.216 0.227 0.539 0.144 0.957zM11.090 9.681c-0.595 0.24-1.021 0.771-1.129 1.399l-0.27-0.406c-0.359-0.539-0.438-1.056-0.223-1.457 0.161-0.302 0.474-0.497 0.796-0.497 0.176 0 0.338 0.061 0.468 0.176l0.392 0.35c-0.023 0.132-0.035 0.27-0.035 0.414 0 0.007 0 0.014 0.001 0.021zM10.101 19.311l-1.693-5.131 1.244 0.597 1.392 4.942c-0.292-0.194-0.609-0.332-0.943-0.408zM14.412 21.165c-0.25-0.306-0.568-0.545-0.937-0.702l-0.509-4.094 1.445 0.694v4.102zM8.124 21.989c0-0.316 0.123-0.654 0.329-0.905 0.172-0.211 0.489-0.463 1.018-0.463 0.443 0 0.855 0.202 1.178 0.575-0.402 0.515-0.618 1.075-0.681 1.255-0.12 0.365 0.078 0.758 0.442 0.878 0.359 0.119 0.762-0.086 0.877-0.44 0.146-0.438 0.612-1.257 1.076-1.257 0.485 0 0.841 0.179 1.060 0.53 0.241 0.391 0.262 0.935 0.053 1.353-0.108 0.217-0.096 0.478 0.030 0.674 0.126 0.21 0.346 0.335 0.591 0.335 0.196 0 0.359 0.119 0.486 0.355 0.194 0.366 0.163 0.771 0.091 0.877-0.307 0.459-0.661 0.658-1.055 0.594-0.287-0.047-0.497-0.216-0.566-0.293-0.030-0.244-0.189-0.459-0.426-0.56-0.255-0.105-0.567-0.041-0.755 0.152-0.071 0.071-0.254 0.143-0.465 0.143-0.107 0-0.209-0.019-0.296-0.055-0.090-0.038-0.364-0.151-0.364-0.753 0-0.383-0.312-0.694-0.695-0.694-0.3 0-0.557 0.186-0.655 0.462-0.338 0.225-0.755 0.352-1.154 0.352-0.376 0-0.704-0.111-0.899-0.307-0.383-0.383-0.242-0.865-0.163-1.054 0.167-0.404 0.582-0.811 1.134-0.811v-0.523c-0.131-0.002-0.19-0.22-0.19-0.422zM22.094 14.186l-2.445 8.307-0.817 0.408 2.145-8.17 1.117-0.546zM17.536 16.369l-0.799 7.58-0.646 0.323v-7.21l1.445-0.694z"></path>
</svg>
