<?xml version="1.0" encoding="utf-8"?>
<!-- Generated by IcoMoon.io -->
<!DOCTYPE svg PUBLIC "-//W3C//DTD SVG 1.1//EN" "http://www.w3.org/Graphics/SVG/1.1/DTD/svg11.dtd">
<svg version="1.1" xmlns="http://www.w3.org/2000/svg" xmlns:xlink="http://www.w3.org/1999/xlink" width="30" height="30" viewBox="0 0 30 30">
<path  d="M20.508 13.516v-6.604c0-0.203-0.165-0.368-0.367-0.368h-6.789c-0.025 0-0.049 0.003-0.072 0.008-0.074 0.014-0.14 0.052-0.19 0.103l-3.934 3.935c-0.052 0.051-0.090 0.117-0.104 0.191-0.004 0.019-0.005 0.039-0.006 0.059-0 0.005-0.001 0.009-0.001 0.014v2.663h-2.895v8.272h2.301v-0.916h-0.788c-0.337 0-0.61-0.295-0.61-0.66v-5.114c0-0.364 0.273-0.66 0.61-0.66h14.23c0.337 0 0.61 0.295 0.61 0.66v5.114c0 0.364-0.273 0.66-0.61 0.66h-0.79v0.916h2.299v-8.271h-2.892zM12.984 7.798v2.687h-2.687l2.687-2.687zM19.773 13.516h-9.996v-2.296h3.574c0.202 0 0.367-0.164 0.368-0.367v-3.574h6.054v6.237z"></path>
<path  d="M20.14 18.688h-10.731c-0.204 0-0.367 0.165-0.367 0.367v3.632c0 0.203 0.164 0.367 0.367 0.367h10.731c0.203 0 0.367-0.164 0.367-0.367v-3.632c-0-0.203-0.165-0.367-0.367-0.367zM19.773 22.32h-9.996v-2.897h9.996v2.897z"></path>
<path  d="M19.594 16.764c0-0.38-0.308-0.688-0.688-0.688s-0.687 0.308-0.687 0.688c0 0.38 0.307 0.688 0.687 0.688s0.688-0.308 0.688-0.688z"></path>
<path  d="M16.969 17.116c0.202 0 0.367-0.164 0.367-0.367s-0.165-0.367-0.367-0.367h-4.518c-0.202 0-0.367 0.165-0.367 0.367s0.165 0.367 0.367 0.367h4.518z"></path>
</svg>
