<?xml version="1.0" encoding="utf-8"?>
<!-- Generated by IcoMoon.io -->
<!DOCTYPE svg PUBLIC "-//W3C//DTD SVG 1.1//EN" "http://www.w3.org/Graphics/SVG/1.1/DTD/svg11.dtd">
<svg version="1.1" xmlns="http://www.w3.org/2000/svg" xmlns:xlink="http://www.w3.org/1999/xlink" width="30" height="30" viewBox="0 0 30 30">
<path  d="M15.28 12.625v0.558c0.37 0.037 0.685 0.112 0.949 0.227 0.264 0.113 0.494 0.286 0.688 0.515 0.157 0.176 0.276 0.358 0.361 0.544s0.128 0.356 0.128 0.511c0 0.172-0.064 0.322-0.189 0.446s-0.278 0.188-0.457 0.188c-0.337 0-0.555-0.182-0.656-0.547-0.113-0.43-0.387-0.716-0.823-0.857v2.148c0.43 0.116 0.767 0.224 1.022 0.32 0.253 0.096 0.48 0.235 0.679 0.419 0.212 0.188 0.379 0.416 0.495 0.68 0.114 0.263 0.171 0.551 0.171 0.865 0 0.392-0.093 0.76-0.276 1.102-0.185 0.344-0.455 0.623-0.813 0.839-0.359 0.218-0.785 0.347-1.278 0.386v0.5c0 0.203-0.018 0.351-0.059 0.444-0.039 0.093-0.126 0.14-0.26 0.14-0.124 0-0.212-0.038-0.261-0.115-0.050-0.075-0.075-0.193-0.075-0.351v-0.607c-0.403-0.044-0.756-0.14-1.057-0.284-0.3-0.145-0.55-0.324-0.754-0.539-0.201-0.216-0.349-0.44-0.445-0.672-0.098-0.232-0.145-0.461-0.145-0.684 0-0.166 0.065-0.315 0.195-0.446 0.128-0.134 0.289-0.2 0.481-0.2 0.157 0 0.287 0.037 0.395 0.108 0.105 0.073 0.18 0.174 0.22 0.306 0.093 0.282 0.175 0.498 0.243 0.649s0.173 0.286 0.314 0.411c0.139 0.124 0.325 0.218 0.555 0.284v-2.403c-0.462-0.126-0.847-0.269-1.157-0.425s-0.562-0.38-0.754-0.669c-0.193-0.29-0.289-0.661-0.289-1.116 0-0.592 0.188-1.079 0.565-1.457s0.922-0.599 1.636-0.66v-0.548c0-0.289 0.107-0.434 0.325-0.434 0.22-0.001 0.329 0.14 0.329 0.423zM14.626 16.169v-1.979c-0.289 0.085-0.516 0.2-0.677 0.34-0.162 0.141-0.243 0.355-0.243 0.641 0 0.272 0.076 0.478 0.228 0.618s0.382 0.265 0.692 0.379zM15.28 17.701v2.262c0.349-0.068 0.619-0.207 0.808-0.418 0.188-0.208 0.284-0.454 0.284-0.734 0-0.298-0.093-0.529-0.278-0.694s-0.455-0.303-0.814-0.417z"></path>
<path  d="M21.018 25.227h-12.166c-0.92 0-1.671-0.75-1.671-1.671l-0.002-13.262c0-0.751 0.462-1.587 1.097-1.988l5.507-3.468c0.639-0.403 1.664-0.403 2.304 0l5.504 3.468c0.636 0.4 1.096 1.236 1.096 1.988l0.002 13.262c0 0.921-0.749 1.671-1.672 1.671v0zM21.018 23.556v0zM14.935 6.197c-0.119 0-0.219 0.029-0.261 0.054l-5.506 3.468c-0.145 0.091-0.317 0.403-0.317 0.575l0.002 13.262h12.164v-13.262c0-0.171-0.171-0.483-0.317-0.575l-5.503-3.468c-0.040-0.026-0.14-0.054-0.261-0.054v0z"></path>
<path  d="M14.935 8.072c-0.635 0-1.149 0.514-1.148 1.149-0.001 0.633 0.512 1.146 1.148 1.147 0.633 0 1.146-0.516 1.146-1.147 0-0.633-0.514-1.148-1.146-1.149v0z"></path>
<path  d="M15.765 9.657c-0.635 0-1.134-0.186-1.373-0.622-0.111-0.202-0.037-0.456 0.165-0.567s0.457-0.037 0.569 0.166c0.173 0.318 1.616 0.337 3.639-0.772 0.89-0.487 1.652-1.070 2.144-1.641 0.428-0.497 0.542-0.872 0.467-1.010-0.077-0.137-0.45-0.242-1.103-0.15-0.748 0.107-1.648 0.436-2.538 0.923-0.199 0.111-0.456 0.038-0.566-0.166-0.111-0.202-0.038-0.456 0.165-0.567 0.974-0.535 1.977-0.896 2.82-1.018 1.257-0.179 1.756 0.214 1.955 0.576 0.197 0.363 0.261 0.997-0.568 1.958-0.557 0.646-1.399 1.294-2.375 1.828-1.155 0.634-2.435 1.063-3.401 1.063v0z"></path>
</svg>
