<?xml version="1.0" encoding="utf-8"?>
<!-- Generated by IcoMoon.io -->
<!DOCTYPE svg PUBLIC "-//W3C//DTD SVG 1.1//EN" "http://www.w3.org/Graphics/SVG/1.1/DTD/svg11.dtd">
<svg version="1.1" xmlns="http://www.w3.org/2000/svg" xmlns:xlink="http://www.w3.org/1999/xlink" width="30" height="30" viewBox="0 0 30 30">
<path fill="#444" d="M16.045 15.957c-0.25 0.040-0.571 0.111-0.969 0.217l-0.995-1.724c0.415-0.089 0.767 0.014 1.057 0.307 0.25 0.246 0.509 0.292 0.78 0.135 0.144-0.083 0.237-0.204 0.28-0.363s0.025-0.308-0.055-0.446c-0.072-0.125-0.185-0.242-0.339-0.352s-0.334-0.2-0.542-0.269c-0.262-0.094-0.526-0.126-0.791-0.095-0.264 0.030-0.552 0.116-0.867 0.258l-0.259-0.448c-0.131-0.227-0.284-0.29-0.461-0.187-0.174 0.1-0.193 0.267-0.059 0.499l0.254 0.44c-0.545 0.38-0.879 0.81-1.007 1.288s-0.052 0.956 0.222 1.432c0.211 0.365 0.46 0.619 0.749 0.762s0.594 0.205 0.916 0.187c0.321-0.019 0.696-0.082 1.126-0.195l1.114 1.929c-0.216 0.054-0.408 0.065-0.577 0.030-0.17-0.035-0.317-0.097-0.442-0.185s-0.29-0.224-0.496-0.408c-0.094-0.087-0.2-0.133-0.318-0.143-0.12-0.007-0.241 0.023-0.367 0.096-0.154 0.089-0.252 0.217-0.293 0.384-0.043 0.166-0.026 0.315 0.050 0.449 0.103 0.179 0.247 0.341 0.434 0.482 0.185 0.142 0.408 0.253 0.669 0.333 0.264 0.078 0.547 0.106 0.855 0.083 0.309-0.024 0.636-0.111 0.981-0.263l0.281 0.487c0.073 0.127 0.147 0.21 0.223 0.247 0.074 0.038 0.163 0.028 0.263-0.029 0.107-0.062 0.155-0.14 0.144-0.233-0.010-0.094-0.065-0.22-0.159-0.383l-0.231-0.401c0.378-0.26 0.659-0.562 0.847-0.903 0.187-0.339 0.274-0.689 0.263-1.051-0.012-0.359-0.108-0.698-0.29-1.013-0.145-0.252-0.325-0.457-0.538-0.615-0.215-0.158-0.455-0.264-0.712-0.317-0.245-0.054-0.491-0.060-0.739-0.021zM13.732 16.34c-0.187-0.042-0.344-0.172-0.47-0.39-0.133-0.23-0.166-0.439-0.102-0.628s0.193-0.385 0.386-0.587l0.917 1.589c-0.302 0.053-0.545 0.058-0.732 0.016zM17.090 17.637c0.13 0.225 0.166 0.466 0.112 0.721-0.054 0.257-0.206 0.494-0.455 0.71l-1.049-1.816c0.342-0.075 0.623-0.089 0.847-0.043s0.407 0.189 0.545 0.429z"></path>
<path fill="#444" d="M24.362 18.517l-6.15-10.646c-0.348-0.604-1.105-1.061-1.802-1.088l-1.109-0.043c0.164-0.408 0.285-0.804 0.355-1.169 0.22-1.156-0.125-1.635-0.451-1.835-0.328-0.198-0.91-0.282-1.836 0.444-0.621 0.489-1.258 1.244-1.792 2.124-0.055 0.091-0.068 0.195-0.045 0.29l-1.146-0.044c-0.7-0.027-1.524 0.448-1.85 1.068l-2.813 5.337c-0.324 0.616-0.308 1.501 0.041 2.104l6.15 10.646c0.427 0.74 1.377 0.994 2.116 0.567l9.766-5.64c0.741-0.428 0.995-1.377 0.568-2.117zM13.847 4.789c0.481-0.376 0.83-0.465 0.955-0.391 0.125 0.076 0.207 0.43 0.094 1.028-0.075 0.393-0.22 0.83-0.421 1.282l-2.184-0.084c0.476-0.767 1.026-1.417 1.557-1.835zM13.254 24.931l-6.15-10.646c-0.080-0.137-0.087-0.467-0.012-0.608l2.813-5.337c0.022-0.040 0.089-0.11 0.185-0.165s0.19-0.080 0.235-0.077l3.293 0.127c-0.527 0.761-1.046 1.269-1.459 1.555-0.332-0.269-0.808-0.324-1.2-0.099-0.51 0.294-0.684 0.945-0.389 1.454 0.292 0.509 0.943 0.682 1.453 0.389 0.388-0.224 0.578-0.656 0.518-1.073 0.691-0.461 1.406-1.277 1.979-2.191l1.83 0.070c0.159 0.006 0.442 0.177 0.52 0.314l6.149 10.647-9.765 5.64z"></path>
</svg>
