<?xml version="1.0" encoding="utf-8"?>
<!-- Generated by IcoMoon.io -->
<!DOCTYPE svg PUBLIC "-//W3C//DTD SVG 1.1//EN" "http://www.w3.org/Graphics/SVG/1.1/DTD/svg11.dtd">
<svg version="1.1" xmlns="http://www.w3.org/2000/svg" xmlns:xlink="http://www.w3.org/1999/xlink" width="30" height="30" viewBox="0 0 30 30">
<path fill="#444" d="M9.555 13.367c0.201-1.22 0.748-2.063 1.591-2.905 1.081-1.081 2.515-1.606 4.039-1.606 1.002 0 1.988 0.298 2.849 0.794l1.036 0.616 1.593-2.755-1.033-0.592c-1.346-0.777-2.882-1.325-4.444-1.325-4.571 0-8.351 4.116-8.849 7.775h-2.15l3.755 6.112 3.692-6.112h-2.079z"></path>
<path fill="#444" d="M22.402 9.695l-3.692 6.111h2.076c-0.526 2.744-2.855 4.573-5.601 4.573-0.999 0-1.981-0.273-2.841-0.766l-1.035-0.6-1.588 2.763 1.035 0.594c1.342 0.771 2.873 1.177 4.428 1.177 2.377 0 4.612-0.905 6.294-2.59 1.406-1.408 2.289-3.016 2.538-5.15h2.14l-3.755-6.111z"></path>
</svg>
