<?xml version="1.0" encoding="utf-8"?>
<!-- Generated by IcoMoon.io -->
<!DOCTYPE svg PUBLIC "-//W3C//DTD SVG 1.1//EN" "http://www.w3.org/Graphics/SVG/1.1/DTD/svg11.dtd">
<svg version="1.1" xmlns="http://www.w3.org/2000/svg" xmlns:xlink="http://www.w3.org/1999/xlink" width="30" height="30" viewBox="0 0 30 30">
<path fill="#444" d="M23.081 10.503c-0.452 0-0.891 0.113-1.284 0.314v-1.657l-0.001 0.002c-0.023-1.887-1.564-3.415-3.455-3.415h-6.772c-1.892 0-3.433 1.529-3.456 3.415l-0-0.002v1.657c-0.393-0.201-0.831-0.314-1.284-0.314-1.561 0-2.83 1.269-2.83 2.83 0 0.725 0.275 1.414 0.766 1.936v6.782c0 1.162 1.098 2.108 2.447 2.108 1.234 0 2.255-0.792 2.421-1.816h10.644c0.166 1.025 1.186 1.816 2.42 1.816 1.35 0 2.447-0.946 2.447-2.108v-6.782c0.491-0.521 0.767-1.21 0.767-1.936 0-1.56-1.269-2.83-2.83-2.83zM7.914 22.050c0 0.128-0.266 0.362-0.701 0.362s-0.702-0.234-0.702-0.362v-7.595l-0.341-0.262c-0.27-0.208-0.425-0.521-0.425-0.861 0-0.598 0.487-1.084 1.085-1.084 0.564 0 1.038 0.44 1.081 1.001l0.001 0.014c0.001 0.011 0.002 0.021 0.002 0.027v8.76zM9.858 9.204c0-0.944 0.768-1.711 1.711-1.711h6.771c0.944 0 1.712 0.768 1.712 1.711v5.421c-0.43-0.21-0.906-0.322-1.398-0.322h-7.4c-0.492 0-0.967 0.112-1.397 0.322v-5.421zM9.774 20.595l0.001-3.025c0 0 0.023-0.331 0.069-0.476 0.016-0.051 0.037-0.106 0.067-0.17 0.025-0.055 0.053-0.108 0.083-0.157l0.001-0.002c0.273-0.449 0.745-0.717 1.259-0.717h7.4c0.515 0 0.986 0.268 1.26 0.717l0.001 0.002c0.031 0.050 0.059 0.103 0.083 0.157 0.029 0.064 0.051 0.119 0.067 0.17 0.046 0.145 0.070 0.476 0.070 0.476l0.001 3.025h-10.363zM23.741 14.193l-0.342 0.262v7.595c0 0.128-0.267 0.362-0.702 0.362-0.434 0-0.701-0.234-0.701-0.362v-8.76c0-0.006 0.001-0.016 0.003-0.027l0.001-0.014c0.043-0.561 0.518-1.001 1.081-1.001 0.598 0 1.084 0.487 1.084 1.084 0.001 0.339-0.154 0.653-0.424 0.861z"></path>
</svg>
