<?xml version="1.0" encoding="utf-8"?>
<!-- Generated by IcoMoon.io -->
<!DOCTYPE svg PUBLIC "-//W3C//DTD SVG 1.1//EN" "http://www.w3.org/Graphics/SVG/1.1/DTD/svg11.dtd">
<svg version="1.1" xmlns="http://www.w3.org/2000/svg" xmlns:xlink="http://www.w3.org/1999/xlink" width="30" height="30" viewBox="0 0 30 30">
<path fill="#444" d="M9.207 24.010c-0.179 0-0.357-0.056-0.508-0.165-0.266-0.194-0.4-0.52-0.345-0.847l0.988-5.754-4.179-4.074c-0.236-0.229-0.321-0.573-0.219-0.886s0.373-0.542 0.697-0.588l5.78-0.84 2.583-5.236c0.146-0.295 0.447-0.481 0.776-0.481s0.628 0.187 0.776 0.481l2.583 5.236 5.78 0.84c0.324 0.046 0.595 0.275 0.696 0.588s0.019 0.655-0.22 0.886l-4.178 4.076 0.987 5.755c0.055 0.324-0.079 0.653-0.344 0.845-0.266 0.194-0.619 0.219-0.91 0.066l-5.168-2.717-5.168 2.717c-0.129 0.066-0.267 0.099-0.405 0.099zM14.777 19.353c0.139 0 0.276 0.033 0.403 0.101l4.020 2.113-0.767-4.477c-0.049-0.281 0.044-0.567 0.247-0.765l3.252-3.171-4.495-0.652c-0.281-0.041-0.525-0.218-0.652-0.474l-2.009-4.072-2.010 4.073c-0.126 0.256-0.369 0.433-0.652 0.474l-4.494 0.652 3.253 3.171c0.204 0.198 0.297 0.484 0.249 0.765l-0.769 4.477 4.021-2.113c0.127-0.068 0.264-0.101 0.402-0.101z"></path>
</svg>
