<?xml version="1.0" encoding="utf-8"?>
<!-- Generated by IcoMoon.io -->
<!DOCTYPE svg PUBLIC "-//W3C//DTD SVG 1.1//EN" "http://www.w3.org/Graphics/SVG/1.1/DTD/svg11.dtd">
<svg version="1.1" xmlns="http://www.w3.org/2000/svg" xmlns:xlink="http://www.w3.org/1999/xlink" width="30" height="30" viewBox="0 0 30 30">
<path fill="#444" d="M23.663 6.469c-1.026-1.025-2.39-1.591-3.839-1.591s-2.813 0.565-3.838 1.591c-1.026 1.025-1.591 2.389-1.591 3.838 0 0.453 0.055 0.898 0.163 1.326-2.093 1.788-4.094 3.691-5.948 5.667-0.519 0.555-0.784 1.274-0.747 2.026 0.020 0.418 0.139 0.824 0.335 1.192-0.164 0.079-0.329 0.181-0.482 0.319-0.502 0.449-0.757 1.122-0.757 1.996 0 0.773-0.169 1.307-0.487 1.546-0.339 0.254-0.845 0.181-1.208 0.073-0.225-0.067-0.464 0.063-0.529 0.29-0.067 0.226 0.062 0.464 0.289 0.53 0.304 0.089 0.589 0.133 0.854 0.133 0.429 0 0.802-0.115 1.106-0.343 0.55-0.411 0.83-1.162 0.83-2.23 0-0.618 0.157-1.074 0.467-1.356 0.138-0.125 0.295-0.205 0.447-0.257 0.032 0.031 0.063 0.065 0.097 0.095 0.551 0.488 1.236 0.73 1.921 0.73 0.754 0 1.507-0.294 2.076-0.873 1.881-1.928 3.919-3.785 6.059-5.52 0.308 0.054 0.624 0.083 0.944 0.083 1.45 0 2.813-0.564 3.839-1.59 1.025-1.025 1.59-2.389 1.59-3.838s-0.566-2.813-1.591-3.838zM17.745 7.222c0.609-0.412 1.327-0.635 2.078-0.635 0.994 0 1.929 0.387 2.631 1.090s1.090 1.637 1.090 2.631c0 0.75-0.222 1.466-0.632 2.075-0.405 0.127-0.829 0.194-1.254 0.194-1.097 0-2.127-0.426-2.903-1.201-1.102-1.104-1.469-2.697-1.010-4.153zM11.599 19.978c-0.445 0.454-1.166 0.48-1.644 0.059-0.234-0.207-0.372-0.489-0.385-0.792-0.015-0.286 0.089-0.563 0.287-0.775 1.694-1.805 3.515-3.55 5.417-5.2 0.205 0.312 0.442 0.606 0.712 0.876 0.317 0.318 0.667 0.591 1.043 0.817-1.91 1.592-3.733 3.277-5.429 5.016zM17.194 12.938c-0.702-0.703-1.089-1.637-1.089-2.631 0-0.73 0.21-1.427 0.599-2.024-0.053 1.351 0.444 2.69 1.448 3.696 0.936 0.936 2.183 1.451 3.507 1.451 0.065 0 0.13-0.003 0.195-0.006-0.599 0.392-1.297 0.603-2.030 0.603-0.992 0-1.928-0.386-2.63-1.089z"></path>
</svg>
