<?xml version="1.0" encoding="utf-8"?>
<!-- Generated by IcoMoon.io -->
<!DOCTYPE svg PUBLIC "-//W3C//DTD SVG 1.1//EN" "http://www.w3.org/Graphics/SVG/1.1/DTD/svg11.dtd">
<svg version="1.1" xmlns="http://www.w3.org/2000/svg" xmlns:xlink="http://www.w3.org/1999/xlink" width="30" height="30" viewBox="0 0 30 30">
<path  d="M14.944 4.248c-5.952 0-10.794 4.842-10.794 10.794s4.842 10.794 10.794 10.794 10.794-4.842 10.794-10.794-4.842-10.794-10.794-10.794zM12.968 12.041h4.059l1.255 3.862-3.284 2.385-3.284-2.386 1.254-3.861zM10.676 15.685l-2.36 0.767-2.346-2.815c0.18-1.155 0.58-2.238 1.154-3.207l3.418-0.829 1.459 2.007-1.325 4.077zM17.994 11.608l1.458-2.007 3.309 0.824c0.604 1.019 1.013 2.164 1.18 3.386l-2.262 2.643-2.36-0.768-1.325-4.078zM22.395 17.239l1.625-1.909c-0.054 1.702-0.577 3.286-1.445 4.629l-0.18-2.72zM21.825 9.122l-2.255-0.578-1.137-1.888c1.316 0.55 2.474 1.401 3.392 2.466zM16.846 6.16l1.754 2.819-1.458 2.007h-4.288l-1.459-2.007 1.795-2.85c0.568-0.111 1.154-0.171 1.753-0.171 0.652-0 1.288 0.070 1.902 0.202zM11.671 6.571l-1.244 1.972-2.39 0.611c0.97-1.138 2.216-2.033 3.634-2.583zM5.864 15.143l1.737 2.096-0.157 2.92c-0.98-1.432-1.56-3.157-1.58-5.015zM8.33 21.256l0.312-3.802 2.361-0.767 3.468 2.521v2.481l-3.581 1.477c-0.964-0.483-1.829-1.132-2.56-1.91zM12.284 23.726l2.714-1.113 2.737 1.071c-0.88 0.285-1.817 0.44-2.791 0.44-0.925 0-1.818-0.14-2.66-0.398zM19.102 23.112l-3.578-1.423v-2.482l3.469-2.52 2.36 0.767 0.271 3.734c-0.718 0.78-1.571 1.433-2.521 1.924z"></path>
</svg>
