<?xml version="1.0" encoding="utf-8"?>
<!-- Generated by IcoMoon.io -->
<!DOCTYPE svg PUBLIC "-//W3C//DTD SVG 1.1//EN" "http://www.w3.org/Graphics/SVG/1.1/DTD/svg11.dtd">
<svg version="1.1" xmlns="http://www.w3.org/2000/svg" xmlns:xlink="http://www.w3.org/1999/xlink" width="30" height="30" viewBox="0 0 30 30">
<path fill="#444" d="M9.049 24.447c-0.187 0-0.372-0.058-0.529-0.172-0.277-0.201-0.416-0.543-0.358-0.88l1.028-5.993-4.354-4.244c-0.245-0.239-0.334-0.597-0.228-0.923s0.388-0.563 0.726-0.613l6.017-0.875 2.691-5.452c0.151-0.307 0.464-0.502 0.807-0.502s0.655 0.194 0.807 0.502l2.691 5.452 6.018 0.875c0.339 0.049 0.62 0.287 0.727 0.613s0.018 0.683-0.228 0.923l-4.354 4.244 1.028 5.993c0.058 0.338-0.081 0.679-0.358 0.88s-0.644 0.228-0.948 0.069l-5.382-2.83-5.382 2.83c-0.132 0.069-0.276 0.103-0.419 0.103zM14.85 19.597c0.144 0 0.288 0.035 0.419 0.104l4.186 2.201-0.8-4.662c-0.050-0.292 0.047-0.59 0.259-0.796l3.387-3.301-4.681-0.68c-0.293-0.043-0.546-0.227-0.678-0.492l-2.093-4.242-2.093 4.242c-0.131 0.265-0.385 0.45-0.678 0.492l-4.681 0.68 3.387 3.301c0.212 0.207 0.309 0.505 0.259 0.796l-0.8 4.662 4.187-2.201c0.131-0.069 0.275-0.103 0.419-0.103z"></path>
</svg>
