<?xml version="1.0" encoding="utf-8"?>
<!-- Generated by IcoMoon.io -->
<!DOCTYPE svg PUBLIC "-//W3C//DTD SVG 1.1//EN" "http://www.w3.org/Graphics/SVG/1.1/DTD/svg11.dtd">
<svg version="1.1" xmlns="http://www.w3.org/2000/svg" xmlns:xlink="http://www.w3.org/1999/xlink" width="30" height="30" viewBox="0 0 30 30">
<path fill="#444" d="M25.092 12.235c-0.106-0.326-0.388-0.563-0.727-0.612l-6.018-0.875-2.691-5.452c-0.152-0.307-0.465-0.502-0.807-0.502s-0.656 0.194-0.807 0.502l-2.691 5.452-6.018 0.875c-0.339 0.049-0.62 0.286-0.726 0.612s-0.018 0.683 0.228 0.923l4.354 4.244-1.028 5.993c-0.058 0.337 0.081 0.679 0.358 0.88 0.157 0.114 0.343 0.172 0.529 0.172 0.143 0 0.287-0.034 0.419-0.104l5.382-2.83 5.382 2.83c0.304 0.159 0.67 0.133 0.948-0.069s0.416-0.543 0.358-0.88l-1.028-5.993 4.354-4.244c0.246-0.239 0.334-0.597 0.228-0.923z"></path>
</svg>
