<?xml version="1.0" encoding="utf-8"?>
<!-- Generated by IcoMoon.io -->
<!DOCTYPE svg PUBLIC "-//W3C//DTD SVG 1.1//EN" "http://www.w3.org/Graphics/SVG/1.1/DTD/svg11.dtd">
<svg version="1.1" xmlns="http://www.w3.org/2000/svg" xmlns:xlink="http://www.w3.org/1999/xlink" width="30" height="30" viewBox="0 0 30 30">
<path  d="M26.121 14.404l-4.798-5.888c-0.175-0.218-0.393-0.305-0.654-0.305h-14.437c-0.48 0-0.872 0.393-0.872 0.872v12.124c0 0.48 0.392 0.872 0.872 0.872h14.393c0.261 0 0.523-0.13 0.698-0.349l4.798-6.237c0.261-0.305 0.218-0.785 0-1.090zM20.189 20.335h-13.085v-10.379h13.128l4.1 5.015-4.144 5.364z"></path>
<path  d="M18.548 17.694c1.407 0 2.551-1.143 2.551-2.549s-1.144-2.549-2.551-2.549c-1.405 0-2.549 1.143-2.549 2.549s1.144 2.549 2.549 2.549zM18.548 14.064c0.597 0 1.082 0.485 1.082 1.081s-0.485 1.081-1.082 1.081c-0.595 0-1.081-0.485-1.081-1.081s0.485-1.081 1.081-1.081z"></path>
</svg>
