<?xml version="1.0" encoding="utf-8"?>
<!-- Generated by IcoMoon.io -->
<!DOCTYPE svg PUBLIC "-//W3C//DTD SVG 1.1//EN" "http://www.w3.org/Graphics/SVG/1.1/DTD/svg11.dtd">
<svg version="1.1" xmlns="http://www.w3.org/2000/svg" xmlns:xlink="http://www.w3.org/1999/xlink" width="30" height="30" viewBox="0 0 30 30">
<path  d="M15.866 18.789c0.061 0.184 0.101 0.33 0.115 0.437 0.016 0.107-0.005 0.188-0.061 0.242-0.056 0.053-0.156 0.086-0.299 0.1s-0.34 0.019-0.59 0.019c-0.261 0-0.464-0.004-0.61-0.012s-0.257-0.023-0.334-0.046c-0.078-0.023-0.131-0.055-0.161-0.095-0.031-0.042-0.057-0.095-0.076-0.161l-0.667-1.995h-3.731l-0.629 1.941c-0.020 0.072-0.047 0.132-0.080 0.181s-0.088 0.087-0.161 0.115c-0.074 0.028-0.179 0.046-0.314 0.058-0.136 0.010-0.314 0.015-0.534 0.015-0.236 0-0.42-0.008-0.553-0.023s-0.225-0.052-0.277-0.111c-0.050-0.059-0.069-0.143-0.053-0.25s0.053-0.25 0.115-0.429l3.063-8.811c0.031-0.087 0.066-0.157 0.107-0.211s0.106-0.094 0.196-0.123c0.089-0.028 0.214-0.046 0.372-0.053s0.368-0.012 0.629-0.012c0.301 0 0.543 0.004 0.721 0.012s0.319 0.025 0.419 0.053c0.099 0.029 0.171 0.070 0.215 0.127s0.081 0.133 0.112 0.23l3.069 8.803zM11.308 11.505h-0.007l-1.404 4.221h2.816l-1.405-4.221z"></path>
<path  d="M22.713 18.696c0 0.154-0.007 0.283-0.020 0.388s-0.033 0.192-0.058 0.261c-0.025 0.069-0.058 0.119-0.096 0.15s-0.083 0.046-0.134 0.046h-4.551c-0.169 0-0.311-0.050-0.427-0.15-0.114-0.1-0.172-0.262-0.172-0.488v-9.018c0-0.051 0.017-0.097 0.050-0.138 0.034-0.041 0.089-0.074 0.166-0.1 0.076-0.025 0.18-0.046 0.31-0.062s0.293-0.023 0.488-0.023c0.199 0 0.363 0.008 0.491 0.023s0.23 0.036 0.306 0.062c0.077 0.025 0.131 0.059 0.165 0.1s0.050 0.087 0.050 0.138v7.99h3.124c0.052 0 0.097 0.014 0.134 0.041 0.038 0.029 0.070 0.075 0.096 0.139s0.045 0.148 0.058 0.254c0.013 0.105 0.020 0.234 0.020 0.387z"></path>
</svg>
