<?xml version="1.0" encoding="utf-8"?>
<!-- Generated by IcoMoon.io -->
<!DOCTYPE svg PUBLIC "-//W3C//DTD SVG 1.1//EN" "http://www.w3.org/Graphics/SVG/1.1/DTD/svg11.dtd">
<svg version="1.1" xmlns="http://www.w3.org/2000/svg" xmlns:xlink="http://www.w3.org/1999/xlink" width="30" height="30" viewBox="0 0 30 30">
<path  d="M25.273 11.482l-2.108-2.108c-0.257-0.257-0.6-0.398-0.963-0.398-0.359 0-0.709 0.145-0.961 0.398-0.166 0.166-0.448 0.167-0.614 0-0.082-0.082-0.127-0.191-0.127-0.308s0.045-0.225 0.127-0.307c0.53-0.53 0.53-1.393-0.001-1.923l-2.108-2.108c-0.256-0.256-0.598-0.398-0.961-0.398s-0.705 0.142-0.962 0.398l-11.867 11.866c-0.256 0.256-0.398 0.598-0.398 0.961s0.141 0.705 0.398 0.963l2.108 2.108c0.257 0.256 0.598 0.398 0.961 0.398s0.705-0.141 0.962-0.398c0.164-0.164 0.451-0.164 0.615 0 0.17 0.17 0.17 0.446 0 0.615-0.257 0.257-0.398 0.598-0.398 0.961s0.141 0.706 0.398 0.963l2.107 2.108c0.257 0.256 0.599 0.399 0.962 0.399s0.705-0.142 0.961-0.399l11.866-11.866c0.531-0.531 0.531-1.394 0.001-1.924zM12.174 13.329l-0.941-0.942 1.155-1.155 0.941 0.942-1.155 1.155zM12.658 13.814l1.156-1.155 1.543 1.542-1.156 1.155-1.543-1.542zM14.645 15.799l1.155-1.155 1.542 1.542-1.155 1.155-1.541-1.543zM17.611 18.768l-0.942-0.941 1.156-1.155 0.942 0.941-1.156 1.155z"></path>
</svg>
