<?xml version="1.0" encoding="utf-8"?>
<!-- Generated by IcoMoon.io -->
<!DOCTYPE svg PUBLIC "-//W3C//DTD SVG 1.1//EN" "http://www.w3.org/Graphics/SVG/1.1/DTD/svg11.dtd">
<svg version="1.1" xmlns="http://www.w3.org/2000/svg" xmlns:xlink="http://www.w3.org/1999/xlink" width="30" height="30" viewBox="0 0 30 30">
<path  d="M17.362 16.207l-1.155 1.155-1.542-1.542 1.155-1.155 1.542 1.542z"></path>
<path  d="M13.795 12.637l1.542 1.543-1.155 1.154-1.542-1.543 1.155-1.154z"></path>
<path  d="M25.273 11.482l-2.108-2.108c-0.257-0.257-0.6-0.398-0.963-0.398-0.359 0-0.709 0.145-0.961 0.398-0.166 0.166-0.448 0.167-0.614 0-0.082-0.082-0.127-0.191-0.127-0.308s0.045-0.225 0.127-0.307c0.53-0.53 0.53-1.393-0.001-1.923l-2.108-2.108c-0.256-0.256-0.598-0.398-0.961-0.398s-0.705 0.142-0.962 0.398l-11.867 11.866c-0.256 0.256-0.398 0.598-0.398 0.961s0.141 0.705 0.398 0.963l2.108 2.108c0.257 0.256 0.598 0.398 0.961 0.398s0.705-0.141 0.962-0.398c0.164-0.164 0.451-0.164 0.615 0 0.17 0.17 0.17 0.446 0 0.615-0.257 0.257-0.398 0.598-0.398 0.961s0.141 0.706 0.398 0.963l2.107 2.108c0.257 0.256 0.599 0.399 0.962 0.399v0c0.363 0 0.705-0.142 0.961-0.399l11.866-11.866c0.531-0.531 0.531-1.394 0.001-1.924zM11.248 20.934c0-0.582-0.227-1.13-0.638-1.542s-0.959-0.639-1.541-0.639c-0.452 0-0.883 0.136-1.245 0.39l-1.588-1.588 5.083-5.082 0.836 0.836 1.156-1.155-0.837-0.837 5.083-5.082 1.587 1.587c-0.59 0.849-0.508 2.030 0.249 2.787 0.411 0.412 0.959 0.638 1.541 0.638 0.451 0 0.882-0.136 1.245-0.39l1.586 1.586-5.082 5.083-0.836-0.836-1.156 1.155 0.836 0.837-5.082 5.082-1.587-1.587c0.254-0.363 0.39-0.794 0.39-1.245z"></path>
</svg>
