<?xml version="1.0" encoding="utf-8"?>
<!-- Generated by IcoMoon.io -->
<!DOCTYPE svg PUBLIC "-//W3C//DTD SVG 1.1//EN" "http://www.w3.org/Graphics/SVG/1.1/DTD/svg11.dtd">
<svg version="1.1" xmlns="http://www.w3.org/2000/svg" xmlns:xlink="http://www.w3.org/1999/xlink" width="30" height="30" viewBox="0 0 30 30">
<path  d="M23.726 15.202c0-4.811-3.915-8.725-8.726-8.725s-8.725 3.914-8.725 8.725c0 2.46 1.045 4.807 2.873 6.464l-1.414 1.414c-0.177 0.177-0.275 0.413-0.275 0.663s0.098 0.486 0.275 0.663c0.355 0.354 0.972 0.354 1.326 0l1.624-1.625c1.313 0.751 2.802 1.146 4.315 1.146s3.004-0.396 4.317-1.146l1.625 1.625c0.177 0.177 0.413 0.274 0.663 0.274s0.486-0.097 0.663-0.274c0.177-0.177 0.275-0.413 0.275-0.663s-0.097-0.486-0.275-0.663l-1.414-1.414c1.828-1.657 2.873-4.004 2.873-6.464zM15 8.351c3.778 0 6.851 3.073 6.851 6.85s-3.074 6.851-6.851 6.851c-3.777 0-6.849-3.073-6.849-6.85s3.072-6.85 6.849-6.85z"></path>
<path  d="M12.807 18.295c0.25 0 0.485-0.097 0.663-0.274l2.029-2.028c0.275-0.173 0.439-0.468 0.439-0.791v-5.269c0-0.517-0.421-0.938-0.938-0.938s-0.938 0.42-0.938 0.938v4.844l-1.919 1.917c-0.177 0.177-0.275 0.413-0.275 0.663s0.098 0.486 0.275 0.663c0.178 0.177 0.413 0.274 0.663 0.274z"></path>
<path  d="M6.9 9.92c-0.13-0.739 0.1-1.467 0.631-1.997 0.525-0.526 1.26-0.761 1.996-0.631 0.518 0.087 0.997-0.261 1.086-0.763 0.088-0.51-0.255-0.996-0.764-1.085-1.308-0.231-2.703 0.211-3.644 1.152-0.954 0.955-1.385 2.317-1.153 3.645 0.077 0.45 0.465 0.777 0.923 0.777 0.053 0 0.105-0.005 0.161-0.014 0.509-0.088 0.851-0.575 0.763-1.085z"></path>
<path  d="M23.799 6.598c-0.941-0.94-2.339-1.382-3.646-1.152-0.247 0.043-0.462 0.18-0.606 0.385s-0.199 0.454-0.156 0.7c0.089 0.501 0.553 0.852 1.085 0.763 0.73-0.131 1.47 0.104 1.997 0.631 0.53 0.531 0.76 1.259 0.631 1.997-0.044 0.246 0.012 0.495 0.156 0.7s0.359 0.342 0.607 0.385c0.054 0.009 0.109 0.014 0.161 0.014 0.456 0 0.844-0.326 0.923-0.777 0.231-1.328-0.2-2.691-1.152-3.645z"></path>
</svg>
