<?xml version="1.0" encoding="utf-8"?>
<!-- Generated by IcoMoon.io -->
<!DOCTYPE svg PUBLIC "-//W3C//DTD SVG 1.1//EN" "http://www.w3.org/Graphics/SVG/1.1/DTD/svg11.dtd">
<svg version="1.1" xmlns="http://www.w3.org/2000/svg" xmlns:xlink="http://www.w3.org/1999/xlink" width="30" height="30" viewBox="0 0 30 30">
<path  d="M15.006 4.966c-3.806 0-6.903 3.096-6.903 6.902 0 0.031 0.041 3.133 2.563 6.381 0.29 0.385 0.377 1.381 0.345 1.933-0.016 0.276 0.085 0.55 0.275 0.753l0.164 0.157-0.149 0.105c-0.27 0.191-0.425 0.489-0.425 0.819 0 0.475 0.342 0.891 0.812 0.988l0.213 0.044-0.116 0.183c-0.101 0.16-0.155 0.345-0.155 0.535 0 0.556 0.452 1.008 1.008 1.008h4.735c0.556 0 1.009-0.452 1.009-1.008 0-0.189-0.053-0.374-0.154-0.533l-0.116-0.185 0.214-0.043c0.469-0.094 0.81-0.51 0.811-0.99 0-0.323-0.151-0.619-0.415-0.81l-0.149-0.108 0.135-0.124c0.016-0.014 0.031-0.029 0.045-0.044 0.19-0.204 0.289-0.481 0.269-0.758-0.033-0.476 0.024-1.524 0.311-1.906 2.533-3.261 2.575-6.367 2.575-6.398 0.001-3.806-3.096-6.902-6.902-6.902zM15.527 19.234h-1.042l-0.662-5.467 0.261 0.152c0.026 0.015 0.054 0.028 0.082 0.040 0.221 0.093 0.507 0.070 0.705-0.057l0.081-0.052 0.081 0.052c0.239 0.153 0.585 0.149 0.818-0.002l0.081-0.052 0.081 0.052c0.018 0.011 0.037 0.022 0.056 0.032l0.095 0.047-0.637 5.255zM18.391 16.096c-0.21 0.334-0.427 0.644-0.662 0.948-0.246 0.329-0.435 0.761-0.561 1.285l-0.295-0.053 0.805-6.65-1.212-0.147-0.106 0.88-0.177-0.064c-0.11-0.040-0.212-0.055-0.349-0.037l-0.047 0.009c-0.018 0.003-0.035 0.007-0.054 0.012s-0.037 0.012-0.054 0.018l-0.050 0.018c-0.037 0.016-0.072 0.034-0.106 0.055l-0.081 0.052-0.081-0.052c-0.116-0.075-0.26-0.116-0.406-0.117-0.037 0-0.073 0.002-0.109 0.007-0.014 0.002-0.028 0.005-0.042 0.009l-0.046 0.010c-0.049 0.012-0.078 0.024-0.107 0.036-0.045 0.019-0.076 0.036-0.107 0.055l-0.081 0.051-0.081-0.052c-0.151-0.097-0.305-0.118-0.406-0.118-0.056 0-0.112 0.006-0.167 0.019l-0.163 0.037-0.1-0.828-1.21 0.147 0.801 6.621-0.294 0.055-0.014-0.046c-0.131-0.497-0.319-0.911-0.559-1.231-2.013-2.591-2.144-5.045-2.149-5.149 0-1.797 0.98-3.443 2.558-4.301 0.71-0.387 1.515-0.591 2.327-0.591 2.694 0 4.886 2.187 4.886 4.875 0 0.017-0.007 0.163-0.040 0.401-0.101 0.724-0.426 2.184-1.46 3.836z"></path>
</svg>
