<?xml version="1.0" encoding="utf-8"?>
<!-- Generated by IcoMoon.io -->
<!DOCTYPE svg PUBLIC "-//W3C//DTD SVG 1.1//EN" "http://www.w3.org/Graphics/SVG/1.1/DTD/svg11.dtd">
<svg version="1.1" xmlns="http://www.w3.org/2000/svg" xmlns:xlink="http://www.w3.org/1999/xlink" width="30" height="30" viewBox="0 0 30 30">
<path  d="M16.512 21.46l-0.292 0.063 0 0.464c-0.040 0.728-0.137 0.936-0.34 1.127-0.254 0.235-0.563 0.36-0.895 0.36-1.057 0-1.215-0.97-1.215-1.549v-0.373l-0.256-0.083c-0.932-0.296-1.379-0.493-1.852-0.815-0.937-0.6-1.393-1.255-1.393-2.002 0-0.717 0.468-1.237 1.111-1.237 0.391 0 0.754 0.166 1.284 0.581 1.274 1.066 1.632 1.295 2.528 1.295 1.131 0 2.016-0.83 2.016-1.89 0-1.356-1.26-1.838-2.491-2.13l-1.707-0.416c-1.511-0.373-2.449-1.53-2.449-3.019 0-1.123 0.476-2.158 1.274-2.771 0.424-0.327 0.826-0.541 1.597-0.845l0.222-0.088 0.011-0.239c0.018-0.377 0.067-0.567 0.152-0.774 0.211-0.374 0.644-0.625 1.084-0.625 0.705 0 1.148 0.476 1.216 1.307l0.019 0.238 0.593 0.21c0.937 0.292 1.289 0.504 1.672 0.836 0.465 0.429 0.672 0.814 0.672 1.25 0 0.625-0.47 1.152-1.027 1.152-0.228 0-0.479-0.088-0.681-0.244-0.090-0.068-0.329-0.248-0.699-0.555-0.609-0.469-1.121-0.66-1.767-0.66-1.095 0-1.89 0.689-1.89 1.64 0 0.606 0.324 1.043 0.976 1.33 0.235 0.117 0.494 0.18 1.355 0.39l0.147 0.036c2.993 0.669 4.213 1.839 4.213 4.037 0 1.95-1.312 3.593-3.19 3.996z"></path>
</svg>
