<?xml version="1.0" encoding="utf-8"?>
<!-- Generated by IcoMoon.io -->
<!DOCTYPE svg PUBLIC "-//W3C//DTD SVG 1.1//EN" "http://www.w3.org/Graphics/SVG/1.1/DTD/svg11.dtd">
<svg version="1.1" xmlns="http://www.w3.org/2000/svg" xmlns:xlink="http://www.w3.org/1999/xlink" width="30" height="30" viewBox="0 0 30 30">
<path fill="#444" d="M16.094 19.67l-0.211 0.046 0 0.335c-0.029 0.526-0.099 0.677-0.246 0.814-0.183 0.17-0.406 0.26-0.647 0.26-0.764 0-0.878-0.701-0.878-1.119v-0.27l-0.186-0.060c-0.674-0.214-0.997-0.356-1.338-0.589-0.677-0.434-1.007-0.907-1.007-1.447 0-0.518 0.338-0.894 0.803-0.894 0.283 0 0.545 0.12 0.928 0.42 0.921 0.771 1.18 0.936 1.828 0.936 0.818 0 1.457-0.6 1.457-1.366 0-0.98-0.91-1.329-1.8-1.54l-1.234-0.301c-1.092-0.27-1.771-1.105-1.771-2.182 0-0.811 0.344-1.56 0.921-2.003 0.306-0.237 0.598-0.391 1.155-0.61l0.16-0.063 0.008-0.172c0.013-0.273 0.048-0.41 0.11-0.56 0.153-0.271 0.466-0.451 0.784-0.451 0.51 0 0.83 0.344 0.879 0.945l0.014 0.172 0.429 0.151c0.677 0.211 0.931 0.365 1.209 0.604 0.336 0.31 0.486 0.589 0.486 0.903 0 0.451-0.34 0.833-0.743 0.833-0.165 0-0.346-0.064-0.493-0.176-0.065-0.049-0.238-0.179-0.505-0.401-0.441-0.339-0.811-0.477-1.277-0.477-0.792 0-1.366 0.498-1.366 1.186 0 0.438 0.234 0.754 0.705 0.962 0.17 0.084 0.357 0.13 0.979 0.282l0.106 0.026c2.163 0.484 3.046 1.329 3.046 2.918-0.001 1.41-0.949 2.597-2.306 2.888z"></path>
</svg>
