<?xml version="1.0" encoding="utf-8"?>
<!-- Generated by IcoMoon.io -->
<!DOCTYPE svg PUBLIC "-//W3C//DTD SVG 1.1//EN" "http://www.w3.org/Graphics/SVG/1.1/DTD/svg11.dtd">
<svg version="1.1" xmlns="http://www.w3.org/2000/svg" xmlns:xlink="http://www.w3.org/1999/xlink" width="30" height="30" viewBox="0 0 30 30">
<path fill="#444" d="M20.164 16.392c-0.83-0.395-1.714-0.693-2.628-0.886l-0.053-0.011 0.031-0.045c0.152-0.22 0.241-0.452 0.256-0.66l0.020-0.167 0.013-0.009c0.262-0.178 0.43-0.46 0.458-0.77l0.126-1.215c0.031-0.284-0.050-0.562-0.231-0.787l-0.036-0.043 0.023-0.22c0.040-0.416 0.145-1.523-0.681-2.258-0.582-0.572-1.478-0.9-2.455-0.9s-1.857 0.314-2.404 0.853c-0.875 0.781-0.77 1.895-0.73 2.319l0.022 0.205-0.040 0.047c-0.18 0.224-0.262 0.502-0.231 0.78l0.126 1.217c0.032 0.312 0.198 0.593 0.456 0.772l0.027 0.137c0.021 0.236 0.113 0.479 0.268 0.703l0.031 0.044-0.053 0.011c-0.92 0.195-1.82 0.5-2.682 0.91-0.643 0.338-1.073 1.135-1 1.854 0.041 0.434 0.085 0.864 0.13 1.291 0.076 0.75 0.684 1.419 1.42 1.556 1.528 0.245 3.092 0.37 4.649 0.37 0 0 0 0 0 0 1.568 0 3.149-0.126 4.703-0.376 0.713-0.132 1.309-0.799 1.388-1.552l0.127-1.285c0.071-0.737-0.367-1.527-1.051-1.883zM10.473 18.104c0.003-0.016 0.004-0.024 0.007-0.034 0.004-0.014 0.010-0.028 0.026-0.067 0.005-0.010 0.011-0.020 0.017-0.031l0.008-0.015c0.016-0.025 0.027-0.033 0.022-0.034l0.018-0.013c1.004-0.475 2.079-0.784 3.197-0.918 0.224-0.028 0.43-0.146 0.565-0.323 0.068-0.089 0.118-0.189 0.147-0.299s0.035-0.22 0.019-0.329l-0.119-0.845c-0.033-0.247-0.172-0.464-0.382-0.597-0.036-0.022-0.066-0.047-0.093-0.075l-0.010-0.021c-0.026-0.239-0.053-0.476-0.082-0.713-0.031-0.271-0.193-0.51-0.431-0.64l-0.033-0.203 0.004-0.005c0.179-0.161 0.283-0.389 0.284-0.623 0-0.034-0.001-0.069-0.005-0.099l-0.088-0.792c-0.012-0.124-0.017-0.222-0.018-0.31-0.001-0.37 0.107-0.517 0.221-0.62 0.248-0.244 0.742-0.401 1.259-0.401 0.541 0 1.015 0.16 1.309 0.446 0.082 0.073 0.135 0.185 0.159 0.333 0.021 0.133 0.020 0.303-0.003 0.55l-0.008 0.094c-0.022 0.202-0.045 0.398-0.068 0.59l-0.015 0.112c-0.003 0.027-0.005 0.061-0.005 0.095 0.002 0.238 0.104 0.464 0.28 0.62l0.013 0.012-0.020 0.193-0.017 0.009c-0.238 0.13-0.399 0.369-0.431 0.638l-0.086 0.73-0.007 0.008c-0.025 0.027-0.056 0.052-0.091 0.074-0.205 0.131-0.343 0.344-0.38 0.588l-0.123 0.856c-0.015 0.107-0.008 0.22 0.020 0.33 0.029 0.109 0.078 0.208 0.144 0.294 0.138 0.18 0.345 0.298 0.567 0.324 1.122 0.134 2.185 0.436 3.16 0.897 0.038 0.027 0.069 0.061 0.092 0.102 0.014 0.026 0.024 0.046 0.032 0.070l0.006 0.056 0.006 0.006-0.127 1.271c-0.011 0.030-0.027 0.049-0.036 0.060l-0.023 0.014c-2.851 0.453-5.851 0.453-8.691 0.002l-0.012-0.002-0.010-0.009c-0.008-0.008-0.019-0.022-0.030-0.032l-0.022-0.085c-0.042-0.4-0.082-0.799-0.121-1.209l0.004-0.028z"></path>
<path fill="#444" d="M15 4.090c-6.016 0-10.91 4.894-10.91 10.91s4.894 10.91 10.91 10.91 10.91-4.894 10.91-10.91c0-6.016-4.894-10.91-10.91-10.91zM15 24.132c-5.035 0-9.132-4.096-9.132-9.132s4.096-9.132 9.132-9.132c5.035 0 9.132 4.096 9.132 9.132s-4.096 9.132-9.132 9.132z"></path>
</svg>
