<?xml version="1.0" encoding="utf-8"?>
<!-- Generated by IcoMoon.io -->
<!DOCTYPE svg PUBLIC "-//W3C//DTD SVG 1.1//EN" "http://www.w3.org/Graphics/SVG/1.1/DTD/svg11.dtd">
<svg version="1.1" xmlns="http://www.w3.org/2000/svg" xmlns:xlink="http://www.w3.org/1999/xlink" width="30" height="30" viewBox="0 0 30 30">
<path fill="#444" d="M22.561 17.451c-1.211-0.576-2.508-1.014-3.848-1.298l-0.642-0.136 0.375-0.538c0.189-0.272 0.3-0.555 0.319-0.816l0.051-0.423 0.164-0.111c0.297-0.202 0.487-0.521 0.519-0.876l0.189-1.821c0.035-0.325-0.057-0.641-0.259-0.892l-0.158-0.188 0.049-0.485c0.055-0.57 0.2-2.087-0.907-3.073-0.803-0.788-2.043-1.237-3.406-1.237s-2.582 0.43-3.343 1.18c-1.165 1.039-1.022 2.568-0.968 3.143l0.052 0.473-0.126 0.144c-0.012 0.014-0.023 0.026-0.034 0.040-0.206 0.256-0.299 0.571-0.264 0.889l0.189 1.821c0.037 0.356 0.226 0.677 0.519 0.88l0.164 0.112 0.041 0.373c0.026 0.289 0.142 0.588 0.335 0.868l0.371 0.538-0.639 0.135c-1.35 0.286-2.667 0.732-3.914 1.327-0.83 0.436-1.389 1.469-1.295 2.401 0.061 0.647 0.127 1.29 0.194 1.929 0.098 0.96 0.874 1.816 1.806 1.991 4.557 0.731 9.249 0.734 13.865-0.008 0.905-0.168 1.666-1.022 1.768-1.985l0.19-1.921c0.090-0.938-0.493-1.985-1.357-2.435zM21.979 21.676c-0.037 0.134-0.105 0.221-0.156 0.277l-0.106 0.11-0.143 0.023c-2.153 0.342-4.364 0.516-6.572 0.516-2.205 0-4.41-0.173-6.555-0.513l-0.14-0.023-0.1-0.1c-0.023-0.023-0.053-0.058-0.080-0.094-0.012-0.015-0.025-0.035-0.037-0.055l-0.003-0.006-0.037 0.007-0.014-0.113-0.049-0.104 0.035-0.015-0.003-0.028c-0.064-0.612-0.126-1.222-0.183-1.831l-0.002-0.021 0.012-0.097c0.007-0.046 0.012-0.069 0.019-0.094 0.010-0.036 0.025-0.073 0.040-0.11 0.007-0.019 0.013-0.032 0.019-0.045 0.013-0.027 0.027-0.053 0.042-0.079l0.025-0.044c0.043-0.064 0.076-0.105 0.111-0.137l0.068-0.050c1.56-0.743 3.212-1.217 4.934-1.423 0.233-0.029 0.449-0.151 0.59-0.337 0.071-0.093 0.123-0.198 0.152-0.311s0.037-0.229 0.020-0.343l-0.177-1.267c-0.035-0.257-0.179-0.484-0.397-0.622-0.078-0.049-0.148-0.106-0.208-0.168l-0.104-0.107-0.016-0.149c-0.039-0.356-0.080-0.709-0.123-1.065-0.033-0.282-0.201-0.531-0.45-0.667l-0.201-0.11-0.060-0.663 0.146-0.156c0.192-0.172 0.297-0.406 0.299-0.651 0-0.035-0.001-0.069-0.006-0.103l-0.132-1.191c-0.019-0.199-0.028-0.357-0.028-0.498-0.002-0.552 0.135-0.923 0.445-1.202 0.444-0.436 1.27-0.71 2.152-0.71 0.908 0 1.715 0.279 2.213 0.764 0.188 0.167 0.311 0.412 0.361 0.722 0.037 0.234 0.036 0.517-0.002 0.919l-0.014 0.145c-0.033 0.304-0.068 0.599-0.104 0.894l-0.021 0.157c-0.003 0.029-0.005 0.064-0.005 0.099 0.002 0.248 0.108 0.483 0.291 0.646l0.177 0.157-0.030 0.166-0.051 0.506-0.2 0.11c-0.248 0.136-0.417 0.385-0.451 0.665l-0.143 1.218-0.098 0.105c-0.058 0.062-0.128 0.119-0.207 0.17-0.213 0.136-0.357 0.359-0.395 0.613l-0.183 1.278c-0.016 0.112-0.008 0.231 0.021 0.343 0.030 0.113 0.081 0.216 0.15 0.306 0.144 0.188 0.359 0.312 0.591 0.34 1.73 0.206 3.368 0.673 4.87 1.387 0.121 0.077 0.215 0.179 0.287 0.305 0.035 0.064 0.057 0.111 0.073 0.154l0.012 0.041c0 0.001 0.001 0.001 0.001 0.002l0.017 0.017 0.013 0.136-0.2 2.007z"></path>
</svg>
