<?xml version="1.0" encoding="utf-8"?>
<!-- Generated by IcoMoon.io -->
<!DOCTYPE svg PUBLIC "-//W3C//DTD SVG 1.1//EN" "http://www.w3.org/Graphics/SVG/1.1/DTD/svg11.dtd">
<svg version="1.1" xmlns="http://www.w3.org/2000/svg" xmlns:xlink="http://www.w3.org/1999/xlink" width="30" height="30" viewBox="0 0 30 30">
<path fill="#444" d="M24.233 22.808l-2.948-2.949c-0.138-0.14-0.147-0.358-0.021-0.509 1.192-1.393 1.735-3.606 1.735-5.074 0-4.741-4.158-8.9-8.899-8.9-4.752 0-8.619 3.868-8.619 8.622 0 4.741 4.157 8.9 8.897 8.9 1.458 0 3.681-0.579 4.93-1.652 0.071-0.060 0.156-0.091 0.246-0.091 0.1 0 0.194 0.039 0.265 0.109l2.976 2.981c0.397 0.395 0.987 0.428 1.363 0.054l0.206-0.207c0.547-0.548-0.015-1.166-0.133-1.284zM14.379 20.883c-3.666 0-6.881-3.217-6.881-6.884 0-3.643 2.963-6.606 6.604-6.606 3.667 0 6.883 3.217 6.883 6.884-0.001 3.643-2.964 6.607-6.605 6.607z"></path>
<path fill="#444" d="M16.843 13.172h-5.222c-0.541 0-0.982 0.44-0.982 0.981s0.44 0.982 0.982 0.982h5.222c0.541 0 0.982-0.44 0.982-0.982s-0.44-0.981-0.982-0.981z"></path>
</svg>
