<?xml version="1.0" encoding="utf-8"?>
<!-- Generated by IcoMoon.io -->
<!DOCTYPE svg PUBLIC "-//W3C//DTD SVG 1.1//EN" "http://www.w3.org/Graphics/SVG/1.1/DTD/svg11.dtd">
<svg version="1.1" xmlns="http://www.w3.org/2000/svg" xmlns:xlink="http://www.w3.org/1999/xlink" width="46" height="32" viewBox="0 0 46 32">
<path fill="#2c358a" d="M40.974 0.59h-35.838c-2.303 0-4.192 1.889-4.192 4.251v8.030c4.723-1.122 9.21-1.83 13.402-2.244-0.118 0-0.236 0-0.354 0 1.24-3.424 4.074-6.376 8.974-6.317s8.207 2.834 9.092 6.494c-0.059 0-0.059 0-0.118 0 5.668 0.649 10.155 1.771 13.284 2.716v-8.679c0-2.362-1.948-4.251-4.251-4.251z"></path>
<path fill="#2c358a" d="M21.727 10.273c1.594 0 3.129 0 4.605 0.118-1.535-0.118-3.011-0.177-4.605-0.118z"></path>
<path fill="#fcee1f" d="M0.945 17.653v9.328c0 2.303 1.889 4.192 4.192 4.192h35.838c2.303 0 4.192-1.889 4.192-4.192v-8.384c-8.915-2.775-23.321-5.727-44.221-0.945zM16.059 25.624l-1.004-1.535h-3.661l-0.945 1.535h-1.24l3.365-4.959h1.24l3.542 4.959h-1.299zM35.483 22.672c-0.295-0.118-0.649-0.236-1.24-0.236-0.531 0-0.886 0.059-1.122 0.177s-0.413 0.295-0.531 0.531l-1.063-0.059c0.118-0.236 0.236-0.472 0.472-0.649s0.531-0.295 0.945-0.354c0.413-0.059 0.886-0.118 1.417-0.118s1.004 0.059 1.299 0.118c0.354 0.059 0.59 0.177 0.768 0.295s0.295 0.236 0.354 0.413c0.059 0.118 0.059 0.295 0.059 0.59v0.827c0 0.59 0 0.945 0.059 1.063 0.059 0.177 0.118 0.295 0.295 0.413h-1.122c-0.118-0.118-0.177-0.295-0.236-0.472-0.413 0.177-0.768 0.354-1.122 0.413s-0.768 0.118-1.181 0.118c-0.709 0-1.24-0.118-1.594-0.295s-0.531-0.472-0.531-0.768c0-0.177 0.059-0.354 0.236-0.472 0.118-0.118 0.295-0.236 0.531-0.354s0.472-0.177 0.768-0.177c0.236-0.059 0.531-0.059 0.945-0.118 0.886-0.059 1.476-0.118 1.889-0.236 0-0.059 0-0.118 0-0.177 0-0.177-0.059-0.354-0.295-0.472zM26.745 22.022h1.004v0.531c0.236-0.236 0.472-0.413 0.709-0.531 0.177-0.059 0.413-0.118 0.709-0.118 0.354 0 0.709 0.059 1.122 0.177l-0.354 0.59c-0.236-0.059-0.531-0.118-0.768-0.118s-0.472 0.059-0.649 0.118c-0.177 0.059-0.295 0.177-0.413 0.354-0.118 0.236-0.177 0.472-0.177 0.709v1.889h-1.063l-0.118-3.601zM23.085 23.97v-1.948h1.063v3.601h-0.945v-0.531c-0.472 0.413-1.181 0.59-2.007 0.59-0.354 0-0.709-0.059-1.063-0.118-0.295-0.059-0.59-0.177-0.709-0.295-0.177-0.118-0.295-0.295-0.354-0.472-0.059-0.118-0.059-0.295-0.059-0.59v-2.244h1.063v2.007c0 0.295 0 0.531 0.059 0.649 0.059 0.177 0.236 0.295 0.413 0.354 0.236 0.118 0.472 0.118 0.827 0.118 0.295 0 0.59-0.059 0.886-0.118 0.295-0.118 0.472-0.236 0.59-0.413 0.177-0.059 0.236-0.295 0.236-0.59z"></path>
<path fill="#fcee1f" d="M13.166 21.196c-0.118 0.295-0.295 0.649-0.472 0.945l-0.945 1.476h2.952l-0.886-1.358c-0.295-0.472-0.531-0.827-0.649-1.063z"></path>
<path fill="#fcee1f" d="M33.122 24.207c-0.177 0.059-0.295 0.118-0.413 0.177s-0.177 0.177-0.177 0.295c0 0.177 0.118 0.295 0.295 0.413 0.236 0.118 0.531 0.177 0.945 0.177s0.768-0.059 1.122-0.177c0.295-0.118 0.531-0.236 0.709-0.413 0.118-0.118 0.177-0.354 0.177-0.59v-0.236c-0.413 0.118-0.945 0.177-1.771 0.236-0.413 0-0.709 0.059-0.886 0.118z"></path>
<path fill="#eb2227" d="M26.332 10.332c-1.476-0.059-3.011-0.118-4.605-0.118-2.184 0-4.546 0.118-7.38 0.354-4.192 0.354-8.679 1.063-13.402 2.244v4.841c20.959-4.841 35.306-1.83 44.28 0.945v-5.078c-3.129-0.945-7.675-2.066-13.284-2.716-2.066-0.236-3.838-0.354-5.609-0.472z"></path>
<path fill="#fcee1f" d="M21.727 10.273c1.594 0 3.070 0 4.605 0.118 1.948 0.118 3.838 0.236 5.55 0.472 0.059 0 0.059 0 0.118 0-0.886-3.661-4.192-6.494-9.092-6.494-4.9-0.118-7.734 2.834-8.915 6.258 0.118 0 0.236 0 0.354 0 2.539-0.236 5.018-0.354 7.38-0.354z"></path>
<path fill="#fcee1f" d="M31.882 10.804c-1.771-0.177-3.601-0.354-5.55-0.472 1.771 0.118 3.542 0.236 5.55 0.472z"></path>
<path fill="#fcee1f" d="M14.347 10.627c2.834-0.236 5.196-0.354 7.38-0.354-2.362 0-4.841 0.118-7.38 0.354z"></path>
<path fill="#2c358a" stroke="#2c358a" stroke-linejoin="miter" stroke-linecap="butt" stroke-miterlimit="22.925600051879883" stroke-width="0.5904" d="M27.808 23.734c0-0.236 0.059-0.472 0.177-0.709 0.059-0.118 0.236-0.236 0.413-0.354 0.177-0.059 0.413-0.118 0.649-0.118s0.531 0.059 0.768 0.118l0.354-0.59c-0.354-0.118-0.709-0.177-1.122-0.177-0.236 0-0.472 0.059-0.709 0.118s-0.413 0.236-0.709 0.531v-0.531h-0.945v3.601h1.063l0.059-1.889z"></path>
<path fill="#2c358a" stroke="#2c358a" stroke-linejoin="miter" stroke-linecap="butt" stroke-miterlimit="22.925600051879883" stroke-width="0.5904" d="M21.432 25.21c-0.295 0-0.59-0.059-0.827-0.118-0.236-0.118-0.354-0.236-0.413-0.354s-0.059-0.354-0.059-0.649v-2.007h-1.063v2.244c0 0.236 0 0.472 0.059 0.59 0.059 0.177 0.177 0.354 0.354 0.472s0.413 0.236 0.709 0.295c0.295 0.059 0.649 0.118 1.063 0.118 0.827 0 1.535-0.177 2.007-0.59v0.531h0.945v-3.601h-1.063v1.948c0 0.295-0.059 0.531-0.177 0.709s-0.295 0.295-0.59 0.413c-0.354-0.059-0.649 0-0.945 0z"></path>
<path fill="#2c358a" stroke="#2c358a" stroke-linejoin="miter" stroke-linecap="butt" stroke-miterlimit="22.925600051879883" stroke-width="0.5904" d="M12.576 20.664l-3.365 4.959h1.24l0.945-1.535h3.661l1.004 1.535h1.299l-3.542-4.959h-1.24zM11.749 23.616l0.945-1.476c0.177-0.295 0.354-0.649 0.472-0.945 0.118 0.295 0.354 0.59 0.59 1.004l0.886 1.358h-2.893z"></path>
<path fill="#2c358a" stroke="#2c358a" stroke-linejoin="miter" stroke-linecap="butt" stroke-miterlimit="22.925600051879883" stroke-width="0.5904" d="M33.889 23.557c-0.413 0-0.768 0.059-0.945 0.118-0.295 0.059-0.531 0.118-0.768 0.177s-0.413 0.177-0.531 0.354c-0.118 0.118-0.236 0.295-0.236 0.472 0 0.295 0.177 0.531 0.531 0.768 0.354 0.177 0.886 0.295 1.594 0.295 0.413 0 0.827-0.059 1.181-0.118s0.768-0.236 1.122-0.413c0.059 0.177 0.118 0.295 0.236 0.472h1.122c-0.118-0.118-0.236-0.295-0.295-0.413-0.059-0.177-0.059-0.531-0.059-1.063v-0.827c0-0.295 0-0.472-0.059-0.59-0.059-0.177-0.177-0.295-0.354-0.413s-0.413-0.177-0.768-0.295c-0.354-0.059-0.768-0.118-1.299-0.118s-1.004 0.059-1.417 0.118c-0.413 0.059-0.709 0.177-0.945 0.354s-0.354 0.354-0.472 0.649l1.063 0.059c0.118-0.236 0.295-0.413 0.531-0.531s0.59-0.177 1.122-0.177c0.531 0 0.945 0.059 1.24 0.236 0.177 0.118 0.295 0.295 0.295 0.531 0 0 0 0.059 0 0.177-0.413 0.059-1.063 0.118-1.889 0.177zM35.779 24.089c0 0.295-0.059 0.472-0.177 0.59-0.177 0.177-0.413 0.295-0.709 0.413s-0.709 0.177-1.122 0.177c-0.413 0-0.709-0.059-0.945-0.177s-0.295-0.236-0.295-0.413c0-0.118 0.059-0.177 0.177-0.295s0.236-0.177 0.413-0.177c0.177-0.059 0.472-0.059 0.945-0.118 0.768-0.059 1.358-0.118 1.771-0.236l-0.059 0.236z"></path>
</svg>
