<?xml version="1.0" encoding="utf-8"?>
<!-- Generator: Adobe Illustrator 20.0.0, SVG Export Plug-In . SVG Version: 6.00 Build 0)  -->
<svg version="1.1" id="Layer_1" xmlns="http://www.w3.org/2000/svg" xmlns:xlink="http://www.w3.org/1999/xlink" x="0px" y="0px"
	 viewBox="0 0 83.3 21" style="enable-background:new 0 0 83.3 21;" xml:space="preserve">
<style type="text/css">
	.pt0{fill:#1A9AD7;}
	.pt1{fill:#253B81;}
	.pt2{fill:#222D65;}
</style>
<g id="Layer_1_1_">
	<g>
		<g>
			<g>
				<g>
					<path class="pt0" d="M63.9,5h-4.5c-0.3,0-0.6,0.2-0.6,0.5l-1.8,11.5c0,0.2,0.1,0.4,0.4,0.4h2.3c0.2,0,0.4-0.2,0.4-0.4l0.5-3.3
						c0-0.3,0.3-0.5,0.6-0.5h1.4c3,0,4.7-1.4,5.1-4.3c0.2-1.2,0-2.2-0.6-2.9C66.5,5.4,65.4,5,63.9,5z M64.4,9.2
						c-0.2,1.6-1.5,1.6-2.7,1.6H61l0.5-3c0-0.2,0.2-0.3,0.4-0.3h0.3c0.8,0,1.6,0,2,0.5C64.4,8.2,64.5,8.7,64.4,9.2z"/>
					<path class="pt1" d="M31.8,5h-4.5c-0.3,0-0.6,0.2-0.6,0.5l-1.8,11.5c0,0.2,0.1,0.4,0.4,0.4h2.1c0.3,0,0.6-0.2,0.6-0.5l0.5-3.1
						c0-0.3,0.3-0.5,0.6-0.5h1.4c3,0,4.7-1.4,5.1-4.3c0.2-1.2,0-2.2-0.6-2.9C34.5,5.4,33.3,5,31.8,5z M32.3,9.2
						c-0.2,1.6-1.5,1.6-2.7,1.6H29l0.5-3c0-0.2,0.2-0.3,0.4-0.3h0.3c0.8,0,1.6,0,2,0.5C32.4,8.2,32.4,8.7,32.3,9.2z"/>
					<path class="pt1" d="M45.3,9.2h-2.2c-0.2,0-0.3,0.1-0.4,0.3l-0.1,0.6l-0.2-0.2C42,9.2,41,9,40,9c-2.4,0-4.4,1.8-4.8,4.3
						c-0.2,1.3,0.1,2.5,0.8,3.3c0.7,0.8,1.6,1.1,2.7,1.1c1.9,0,3-1.2,3-1.2l-0.1,0.6c0,0.2,0.1,0.4,0.4,0.4h1.9
						c0.3,0,0.6-0.2,0.6-0.5l1.2-7.4C45.7,9.4,45.5,9.2,45.3,9.2z M42.3,13.4c-0.2,1.2-1.2,2.1-2.4,2.1c-0.6,0-1.1-0.2-1.4-0.6
						c-0.3-0.4-0.4-0.9-0.3-1.5c0.2-1.2,1.2-2.1,2.4-2.1c0.6,0,1.1,0.2,1.4,0.6C42.2,12.2,42.4,12.8,42.3,13.4z"/>
					<path class="pt0" d="M77.3,9.2h-2.2c-0.2,0-0.3,0.1-0.4,0.3l-0.1,0.6l-0.2-0.2C74.1,9.2,73,9,72,9c-2.4,0-4.4,1.8-4.8,4.3
						c-0.2,1.3,0.1,2.5,0.8,3.3c0.7,0.8,1.6,1.1,2.7,1.1c1.9,0,3-1.2,3-1.2l-0.1,0.6c0,0.2,0.1,0.4,0.4,0.4h1.9
						c0.3,0,0.6-0.2,0.6-0.5l1.2-7.4C77.7,9.4,77.5,9.2,77.3,9.2z M74.3,13.4c-0.2,1.2-1.2,2.1-2.4,2.1c-0.6,0-1.1-0.2-1.4-0.6
						c-0.3-0.4-0.4-0.9-0.3-1.5c0.2-1.2,1.2-2.1,2.4-2.1c0.6,0,1.1,0.2,1.4,0.6C74.3,12.2,74.4,12.8,74.3,13.4z"/>
					<path class="pt1" d="M56.7,9.2h-2.2c-0.2,0-0.4,0.1-0.5,0.3l-3,4.4l-1.3-4.2c-0.1-0.3-0.3-0.4-0.6-0.4h-2.1
						c-0.3,0-0.4,0.3-0.4,0.5l2.4,7l-2.2,3.2c-0.2,0.2,0,0.6,0.3,0.6h2.2c0.2,0,0.4-0.1,0.5-0.3L57,9.8C57.2,9.5,57,9.2,56.7,9.2z"
						/>
					<path class="pt0" d="M79.8,5.3L78,17.1c0,0.2,0.1,0.4,0.4,0.4h1.9c0.3,0,0.6-0.2,0.6-0.5l1.8-11.5c0-0.2-0.1-0.4-0.4-0.4h-2.1
						C80,5,79.9,5.2,79.8,5.3z"/>
				</g>
			</g>
		</g>
	</g>
	<g>
		<path class="pt0" d="M16.1,5.6c0.2-1.5,0-2.6-0.8-3.5c-0.9-1-2.6-1.5-4.7-1.5H4.4C4,0.6,3.6,0.9,3.5,1.3L1,17.6
			c-0.1,0.3,0.2,0.6,0.5,0.6h3.8L5,19.9c0,0.3,0.2,0.5,0.5,0.5h3.2c0.4,0,0.7-0.3,0.8-0.7l0-0.2l0.6-3.8l0-0.2
			c0.1-0.4,0.4-0.7,0.8-0.7h0.5c3.1,0,5.5-1.3,6.2-4.9c0.3-1.5,0.1-2.8-0.6-3.7C16.7,6,16.4,5.8,16.1,5.6L16.1,5.6"/>
		<path class="pt2" d="M16.1,5.6c0.2-1.5,0-2.6-0.8-3.5c-0.9-1-2.6-1.5-4.7-1.5H4.4C4,0.6,3.6,0.9,3.5,1.3L1,17.6
			c-0.1,0.3,0.2,0.6,0.5,0.6h3.8l1-6.1l0,0.2c0.1-0.4,0.4-0.7,0.9-0.7h1.8c3.6,0,6.3-1.4,7.1-5.6C16.1,5.9,16.1,5.7,16.1,5.6"/>
		<path class="pt1" d="M7.3,5.6c0-0.3,0.2-0.5,0.4-0.6C7.8,5,7.9,5,8,5h4.8c0.6,0,1.1,0,1.6,0.1c0.1,0,0.3,0,0.4,0.1
			c0.1,0,0.3,0.1,0.4,0.1c0.1,0,0.1,0,0.2,0.1c0.2,0.1,0.5,0.2,0.7,0.3c0.2-1.5,0-2.6-0.8-3.5c-0.9-1-2.6-1.5-4.7-1.5H4.4
			C4,0.6,3.6,0.9,3.5,1.3L1,17.6c-0.1,0.3,0.2,0.6,0.5,0.6h3.8l1-6.1L7.3,5.6z"/>
	</g>
</g>
</svg>
