<?xml version="1.0" encoding="utf-8"?>
<!-- Generated by IcoMoon.io -->
<!DOCTYPE svg PUBLIC "-//W3C//DTD SVG 1.1//EN" "http://www.w3.org/Graphics/SVG/1.1/DTD/svg11.dtd">
<svg version="1.1" xmlns="http://www.w3.org/2000/svg" xmlns:xlink="http://www.w3.org/1999/xlink" width="46" height="32" viewBox="0 0 46 32">
<path fill="#fff" d="M40.738 31.291h-35.424c-2.362 0-4.369-1.948-4.369-4.369v-21.845c0-2.362 1.948-4.369 4.369-4.369h35.424c2.362 0 4.369 1.948 4.369 4.369v21.904c-0.059 2.362-2.007 4.31-4.369 4.31z"></path>
<path fill="#fff" d="M22.849 18.125c0-0.059 0-0.059 0 0 0 0-0.177 0.354-0.295 0.709l0.295-0.709z"></path>
<path fill="#fff" d="M22.199 20.251c0 0 0 0 0 0 0.059-0.059 0.531-1.181 0.649-1.594v0l-0.649 1.594z"></path>
<path fill="#fff" d="M27.218 19.188c0-0.472-0.354-0.886-0.886-0.886 0.472 0 0.886 0.413 0.886 0.886z"></path>
<path fill="#fff" d="M25.506 19.188c0 0.472 0.354 0.886 0.827 0.886s0.827-0.413 0.827-0.886-0.354-0.886-0.827-0.886c-0.472 0-0.827 0.413-0.827 0.886z"></path>
<path fill="#fff" d="M25.506 18.893c0 0 0-0.059 0 0 0-0.059 0 0 0 0z"></path>
<path fill="#fff" d="M25.565 18.716c0 0 0 0 0 0s0 0 0 0z"></path>
<path fill="#fff" d="M25.683 18.539c0 0.059 0 0.059 0 0 0 0.059 0 0.059 0 0z"></path>
<path fill="#fff" d="M23.616 20.251c0-0.059 0.768-2.066 0.768-2.125l-0.768 2.125c0 0 0 0 0 0z"></path>
<path fill="#fff" d="M14.524 18.598c0.295 0.295 1.535 1.594 1.594 1.653 0 0 0 0 0 0l-1.594-1.653z"></path>
<path fill="#fff" d="M4.723 11.1h-0.295v4.192h0.295c0.827 0 1.299-0.177 1.712-0.531s0.708-0.886 0.708-1.535c0-0.649-0.295-1.24-0.708-1.594-0.413-0.413-0.886-0.531-1.712-0.531z"></path>
<path fill="#fff" d="M18.362 20.074c0 0 0-0.059 0 0-0.059-0.059-0.649-0.059-0.827-0.059v0.059h0.827z"></path>
<path fill="#fff" d="M21.668 18.125c0 0-0.059 0-0.118 0l0.531 1.24c-0.177-0.413-0.472-1.181-0.413-1.24z"></path>
<path fill="#fff" d="M23.616 19.72l0.413-1.181c-0.118 0.236-0.236 0.59-0.295 0.827-0.059 0.177-0.118 0.295-0.118 0.295s0 0 0 0 0 0 0 0.059v0z"></path>
<path fill="#fff" d="M20.546 18.125v0.177c0 0 0.059 0 0.059 0 0-0.059 0-0.118 0-0.177 0 0-0.059 0-0.059 0z"></path>
<path fill="#fff" d="M25.447 19.188c0-0.059 0-0.118 0-0.177 0 0.059 0 0.118 0 0.177z"></path>
<path fill="#fff" d="M43.1 10.45v0.118c0.059 0 0.059-0.059 0.118-0.059 0-0.059-0.059-0.059-0.118-0.059z"></path>
<path fill="#fff" d="M29.461 18.421c-0.059-0.059-0.059-0.118-0.177-0.177 0.059 0.059 0.118 0.118 0.177 0.177z"></path>
<path fill="#fff" d="M29.048 18.184c0.059 0 0.118 0.059 0.177 0.059 0-0.059-0.059-0.059-0.177-0.059z"></path>
<path fill="#fff" d="M30.996 19.247v0.059z"></path>
<path fill="#fff" d="M29.461 18.421c0.059 0.059 0.059 0.177 0.059 0.295 0-0.118 0-0.236-0.059-0.295z"></path>
<path fill="#fff" d="M43.1 10.155c-0.236 0-0.413 0.177-0.413 0.413s0.177 0.413 0.413 0.413c0.118 0 0.236-0.059 0.295-0.118h-0.177l-0.177-0.236v0.177h-0.118v-0.531h0.177c0.177 0 0.236 0.059 0.236 0.177s-0.059 0.177-0.118 0.177l0.177 0.236c0.059-0.059 0.118-0.177 0.118-0.295 0-0.236-0.177-0.413-0.413-0.413z"></path>
<path fill="#fff" d="M29.284 18.716c0-0.354-0.236-0.354-0.531-0.354 0 0.059 0 0.649-0.059 0.709h0.059c0.295 0 0.531-0.059 0.531-0.354z"></path>
<path fill="#fff" d="M31.114 19.129l0.945 1.063c0 0 0.059 0 0.059 0-0.059-0.059-0.827-0.945-1.004-1.063v0z"></path>
<path fill="#fff" d="M25.86 18.421c-0.059 0-0.059 0.059-0.059 0.059s0 0 0.059-0.059z"></path>
<path fill="#fff" d="M39.97 10.982h-0.354v1.948h0.354c0.768 0 1.181-0.354 1.181-1.004 0-0.59-0.413-0.945-1.181-0.945z"></path>
<path fill="#fff" d="M25.978 18.362c-0.059 0-0.059 0.059-0.118 0.059 0.059 0 0.118-0.059 0.118-0.059z"></path>
<path fill="#fff" d="M26.155 18.303c-0.059 0-0.118 0-0.118 0.059 0 0 0.059-0.059 0.118-0.059z"></path>
<path fill="#c7c6c5" d="M12.812 30.996h-7.675c-2.184 0-3.897-1.771-3.897-3.897v-22.199c0-2.184 1.771-3.897 3.897-3.897h35.838c2.184 0 3.897 1.771 3.897 3.897v14.406c0.118-0.059 0.236-0.118 0.295-0.177v-14.229c0.059-2.303-1.889-4.192-4.192-4.192h-35.838c-2.303 0-4.192 1.889-4.192 4.192v22.199c0 2.303 1.889 4.192 4.192 4.192h6.022c0.531-0.118 1.122-0.177 1.653-0.295z"></path>
<path fill="#ed7e22" d="M44.871 19.306c-3.070 1.948-14.17 8.266-32.059 11.69-0.531 0.118-1.063 0.177-1.594 0.295h29.875c2.303 0 4.192-1.889 4.192-4.192h-0.059v-7.97c-0.118 0.059-0.236 0.118-0.354 0.177z"></path>
<path fill="#0a191e" d="M4.959 9.978h-1.771v6.376h1.83c0.945 0 1.653-0.236 2.244-0.709 0.708-0.59 1.181-1.476 1.181-2.421-0.059-1.889-1.476-3.247-3.483-3.247zM6.435 14.76c-0.413 0.354-0.886 0.531-1.712 0.531h-0.295v-4.192h0.295c0.827 0 1.299 0.118 1.712 0.531 0.413 0.354 0.708 0.945 0.708 1.594s-0.295 1.181-0.708 1.535z"></path>
<path fill="#0a191e" d="M8.974 9.978h1.24v6.376h-1.24v-6.376z"></path>
<path fill="#0a191e" d="M14.996 14.465c0.059-1.063-0.354-1.535-1.771-2.007-0.768-0.295-0.945-0.472-0.945-0.827 0-0.413 0.413-0.709 0.945-0.709 0.354 0 0.649 0.177 1.004 0.531l0.649-0.827c-0.531-0.472-1.181-0.709-1.889-0.709-1.122 0-2.007 0.768-2.007 1.83 0 0.886 0.413 1.299 1.535 1.771 0.472 0.177 0.709 0.295 0.886 0.354 0.236 0.177 0.354 0.413 0.354 0.649 0 0.531-0.413 0.886-0.945 0.886-0.59 0-1.063-0.295-1.358-0.827l-0.827 0.768c0.59 0.827 1.24 1.181 2.184 1.181 1.299 0 2.184-0.886 2.184-2.066z"></path>
<path fill="#0a191e" d="M20.369 14.642c-0.472 0.472-0.945 0.709-1.476 0.709-1.24 0-2.125-0.886-2.125-2.184 0-1.24 0.886-2.184 2.066-2.184 0.59 0 1.063 0.236 1.535 0.709v-1.476c-0.531-0.295-1.004-0.413-1.535-0.413-1.889 0.059-3.365 1.535-3.365 3.365 0 1.889 1.476 3.306 3.365 3.306 0.531 0 1.004-0.118 1.535-0.354v-1.476z"></path>
<path fill="#0a191e" d="M30.406 14.288l-1.712-4.31h-1.358l2.716 6.553h0.649l2.775-6.553h-1.358z"></path>
<path fill="#0a191e" d="M34.007 16.354h3.542v-1.063h-2.303v-1.712h2.184v-1.063h-2.184v-1.417h2.303v-1.122h-3.542z"></path>
<path fill="#0a191e" d="M42.45 11.867c0-1.181-0.827-1.889-2.244-1.889h-1.83v6.376h1.24v-2.539h0.177l1.712 2.539h1.535l-2.007-2.657c0.886-0.236 1.417-0.827 1.417-1.83zM39.97 12.93h-0.354v-1.948h0.354c0.768 0 1.181 0.354 1.181 0.945 0 0.649-0.413 1.004-1.181 1.004z"></path>
<path fill="#1d1d1b" d="M43.336 10.45c0-0.118-0.059-0.177-0.236-0.177h-0.177v0.531h0.118v-0.177l0.177 0.236h0.177l-0.177-0.236c0.059 0 0.118-0.059 0.118-0.177zM43.1 10.568v-0.118c0.059 0 0.118 0 0.118 0.059-0.059 0-0.059 0.059-0.118 0.059z"></path>
<path fill="#1d1d1b" d="M43.1 10.096c-0.295 0-0.472 0.236-0.472 0.472 0 0.295 0.236 0.472 0.472 0.472s0.472-0.236 0.472-0.472c0.059-0.236-0.177-0.472-0.472-0.472zM43.395 10.863c-0.059 0.059-0.177 0.118-0.295 0.118-0.236 0-0.413-0.177-0.413-0.413s0.177-0.413 0.413-0.413c0.236 0 0.413 0.177 0.413 0.413 0 0.118-0.059 0.236-0.118 0.295z"></path>
<path fill="#1d1d1b" d="M15.882 18.066c0 0 0 1.535 0 1.594l-1.594-1.653v0.059c-0.059-0.059-0.059-0.059-0.059-0.059v2.244h0.295v-1.594c0.059 0.059 1.653 1.712 1.653 1.712v-2.303h-0.295zM16.118 20.251c-0.059-0.059-1.299-1.358-1.594-1.653v0l1.594 1.653c0 0 0 0 0 0z"></path>
<path fill="#1d1d1b" d="M17.299 18.125v2.184h1.122v-0.295c0 0 0 0-0.059 0 0 0 0 0.059 0 0.059h-0.827v-0.827h0.827v-0.236h-0.059c0 0 0-0.059 0-0.059h-0.768v-0.531c0.059 0 0.886 0 0.886 0v-0.354l-1.122 0.059z"></path>
<path fill="#1d1d1b" d="M19.306 18.066v0 0.295h0.531v1.889h0.236v-0.059c-0.059 0-0.177 0-0.177 0s0.118 0 0.177 0h0.059v-1.83h0.413v-0.059c-0.118 0-0.295 0-0.413 0 0.118 0 0.295 0 0.413 0v-0.177c0 0 0.059 0 0.059 0 0 0.059 0 0.118 0 0.177 0.059 0 0.059 0 0.059 0l-0.059-0.236h-1.299zM19.365 18.303c0.059 0 0.354 0 0.472 0-0.118 0-0.413 0-0.472 0z"></path>
<path fill="#1d1d1b" d="M23.734 19.365c-0.059 0.118-0.118 0.236-0.118 0.295 0 0 0 0 0 0s0.059-0.118 0.118-0.295z"></path>
<path fill="#1d1d1b" d="M23.616 20.251c0 0 0 0 0 0l0.768-2.125h-0.236c0 0-0.295 0.768-0.413 1.24 0.118-0.236 0.236-0.59 0.295-0.827l-0.413 1.181v-0.059c0 0 0 0 0 0s-0.059-0.059-0.059-0.118l-0.649-1.535v0.059c0-0.059-0.059-0.059-0.059-0.059s-0.649 1.535-0.649 1.653c-0.059-0.118-0.531-1.535-0.531-1.535-0.059 0.059 0.236 0.827 0.413 1.24l-0.531-1.24h-0.236l0.827 2.244v-0.059l0.059 0.118c0 0 0.59-1.417 0.709-1.653l0.649 1.594v-0.059c0 0.059 0.059 0.118 0.059 0.118l0.827-2.303h-0.059c0 0.059-0.768 2.066-0.768 2.125zM22.849 18.125l-0.295 0.709c0.177-0.354 0.295-0.709 0.295-0.709 0-0.059 0-0.059 0 0zM22.199 20.251c0 0 0 0 0 0l0.649-1.594c-0.177 0.413-0.59 1.476-0.649 1.594z"></path>
<path fill="#1d1d1b" d="M26.332 18.066c-0.059 0-0.177 0-0.236 0s-0.118 0.059-0.177 0.059c0 0 0 0 0 0-0.059 0-0.118 0.059-0.177 0.059 0 0 0 0-0.059 0s-0.059 0.059-0.118 0.059c0 0-0.059 0.059-0.059 0.059s-0.059 0.059-0.059 0.059-0.059 0.059-0.059 0.118c0 0 0 0 0 0.059-0.059 0.059-0.059 0.118-0.059 0.177 0 0 0 0 0 0 0 0.059-0.059 0.118-0.059 0.177s0 0.118 0 0.236c0 0.649 0.531 1.122 1.122 1.122s1.122-0.531 1.122-1.122-0.59-1.063-1.181-1.063zM27.159 19.188c0 0.472-0.354 0.886-0.827 0.886s-0.827-0.413-0.827-0.886 0.354-0.886 0.827-0.886c0.531 0 0.886 0.413 0.827 0.886 0.059-0.472-0.354-0.886-0.827-0.886 0.472 0 0.827 0.413 0.827 0.886zM25.683 18.539c0 0.059 0 0.059 0 0 0 0.059 0 0.059 0 0zM25.565 18.716c0 0 0 0 0 0s0 0 0 0zM25.506 18.834c0 0 0 0.059 0 0 0 0.059 0 0 0 0zM25.447 19.011c0 0.059 0 0.118 0 0.177 0-0.059 0-0.118 0-0.177zM25.742 18.539c0 0 0.059-0.059 0.059-0.059s0 0-0.059 0.059zM25.86 18.421c0.059 0 0.059-0.059 0.118-0.059 0 0-0.059 0.059-0.118 0.059zM26.037 18.362c0.059 0 0.059 0 0.118-0.059-0.059 0-0.118 0.059-0.118 0.059z"></path>
<path fill="#1d1d1b" d="M29.638 18.716c0-0.413-0.236-0.59-0.827-0.59-0.059-0.059-0.354-0.059-0.354-0.059v2.184h0.295c0 0 0-0.649 0-0.886l0.59 0.886h0.472c0 0-0.649-0.886-0.709-0.945 0.295-0.059 0.531-0.295 0.531-0.59zM28.753 18.362c0.295 0 0.531 0 0.531 0.354 0 0.295-0.236 0.354-0.531 0.354h-0.059c0.059-0.059 0.059-0.649 0.059-0.709zM29.52 18.716c0-0.118 0-0.236-0.059-0.295 0.059 0.059 0.059 0.177 0.059 0.295zM29.461 18.421c-0.059-0.059-0.059-0.118-0.177-0.177 0.059 0.059 0.118 0.118 0.177 0.177zM29.225 18.244c-0.059-0.059-0.118-0.059-0.177-0.059 0.118 0 0.177 0 0.177 0.059z"></path>
<path fill="#1d1d1b" d="M32.177 18.066h-0.354c0 0-0.827 0.827-0.886 0.886v-0.827c0-0.059 0-0.059 0-0.059h-0.236v2.184h0.295v-0.945c0 0 0 0 0 0v0c0 0 0 0 0 0l0.827 0.886c0 0 0 0 0 0l0.059 0.059h0.236l-0.059-0.059c-0.059 0-0.059 0-0.118 0 0.059 0 0.059 0 0.118 0l-0.945-1.063c0.118 0.177 0.945 1.063 1.004 1.063h0.236c0 0-1.004-1.122-1.063-1.181-0.059 0.059 0.945-0.945 0.886-0.945z"></path>
<path fill="#ed7e22" d="M27.572 13.166c0 1.826-1.48 3.306-3.306 3.306s-3.306-1.48-3.306-3.306c0-1.826 1.48-3.306 3.306-3.306s3.306 1.48 3.306 3.306z"></path>
</svg>
