<svg width="32" height="32" viewBox="0 0 32 32" xmlns="http://www.w3.org/2000/svg"><title>6FE42265-BD67-4EE7-901B-404B3ACEBE56</title><path d="M28.131 6.673a2.798 2.798 0 0 0-2.804-2.804H6.673a2.798 2.798 0 0 0-2.804 2.804v18.654a2.798 2.798 0 0 0 2.804 2.804h18.654a2.798 2.798 0 0 0 2.804-2.804V6.673zm1.866 0v18.654c0 2.59-2.09 4.67-4.67 4.67H6.673a4.664 4.664 0 0 1-4.67-4.67V6.673c0-2.59 2.09-4.67 4.67-4.67h18.654c2.59 0 4.67 2.09 4.67 4.67zm-16.316 5.063c-1.587 0-2.865-1.303-2.865-2.901 0-1.598 1.278-2.902 2.865-2.902 1.587 0 2.866 1.304 2.866 2.902s-1.279 2.901-2.866 2.901zm0-2c.474 0 .866-.4.866-.901 0-.502-.392-.902-.866-.902s-.865.4-.865.902.391.901.865.901zM22.417 23.9a1 1 0 0 0 1.428-1.4l-3.839-3.912a1 1 0 0 0-.713-.3h-4.554v-4.635a1 1 0 1 0-2 0v5.635a1 1 0 0 0 1 1h5.134l3.544 3.612zM13.73 16h5.595a1 1 0 0 0 0-2H13.73a1 1 0 1 0 0 2zm-4.488-.123a6.506 6.506 0 0 0 .026 7.312c2 2.91 5.948 3.62 8.81 1.578a6.364 6.364 0 0 0 1.966-2.274 6.52 6.52 0 0 0 .698-2.442 1 1 0 0 0-1.994-.166 4.52 4.52 0 0 1-.483 1.693 4.364 4.364 0 0 1-1.35 1.561c-1.948 1.39-4.63.909-5.998-1.083a4.506 4.506 0 0 1-.019-5.058 1 1 0 1 0-1.656-1.121z" fill-rule="nonzero" fill="#26B8FF"/></svg>