<svg width="32" height="32" viewBox="0 0 32 32" xmlns="http://www.w3.org/2000/svg"><title>29F8D52A-011B-4676-A266-3E8EA0F7F4BF</title><path d="M28.15 6.657a2.802 2.802 0 0 0-2.807-2.808H6.657A2.802 2.802 0 0 0 3.85 6.657v18.686a2.802 2.802 0 0 0 2.808 2.808h18.686a2.802 2.802 0 0 0 2.808-2.808V6.657zm1.87 0v18.686a4.671 4.671 0 0 1-4.677 4.677H6.657a4.671 4.671 0 0 1-4.677-4.677V6.657A4.671 4.671 0 0 1 6.657 1.98h18.686a4.671 4.671 0 0 1 4.677 4.677zm-9.733 12.65a1 1 0 0 0 1.426 1.401l4.635-4.717-4.637-4.694a1 1 0 0 0-1.422 1.406l3.251 3.292-3.253 3.311zm-8.63-6.606a1 1 0 0 0-1.426-1.402l-4.635 4.717 4.637 4.694a1 1 0 1 0 1.423-1.406l-3.252-3.292 3.253-3.311zM7.08 16.975l17.942.02.002-2-17.942-.02-.002 2z" fill-rule="nonzero" fill="#26B8FF"/></svg>