<svg width="32" height="32" viewBox="0 0 32 32" xmlns="http://www.w3.org/2000/svg"><title>E6879AB3-7536-456C-A683-609A096C4F82</title><path d="M28.148 6.66a2.802 2.802 0 0 0-2.807-2.808H6.659a2.802 2.802 0 0 0-2.807 2.807v18.682a2.802 2.802 0 0 0 2.807 2.807h18.682a2.802 2.802 0 0 0 2.807-2.807V6.659zm1.87 0v18.68a4.67 4.67 0 0 1-4.677 4.677H6.659a4.67 4.67 0 0 1-4.676-4.676V6.659a4.67 4.67 0 0 1 4.676-4.676h18.682a4.67 4.67 0 0 1 4.676 4.676zM8.68 9.191a8.649 8.649 0 0 0-1.767 1.637 8.328 8.328 0 0 0-1.254 2.117C5.231 13.998 5 15.166 5 16.453c0 3.713 1.78 6.354 3.8 7.414.514.27 1.144.063 1.408-.46a1.077 1.077 0 0 0-.451-1.437c-.44-.231-1.046-.77-1.54-1.503-.711-1.055-1.126-2.383-1.126-4.014 0-1.004.176-1.895.499-2.688.24-.589.556-1.111.933-1.575.442-.544.814-.864 1.354-1.249a1.08 1.08 0 0 0 .258-1.485c-.33-.483-.982-.601-1.455-.264zm3.064 2.134c-.466.332-.812.629-1.218 1.13-.35.43-.646.918-.87 1.468-.29.713-.474 1.691-.474 2.585 0 2.557 1.267 4.458 2.683 5.201.513.27 1.143.064 1.408-.46a1.077 1.077 0 0 0-.452-1.437c-.75-.394-1.548-1.59-1.548-3.304 0-.618.131-1.317.314-1.767a3.64 3.64 0 0 1 .549-.926c.26-.321.48-.51.806-.742a1.08 1.08 0 0 0 .258-1.485c-.331-.483-.983-.6-1.456-.263zm10.43-.385c.54.385.912.705 1.355 1.25.376.463.692.985.932 1.574.323.793.5 1.684.5 2.688 0 1.631-.416 2.96-1.127 4.014-.494.732-1.1 1.272-1.54 1.503-.513.27-.715.912-.45 1.436.263.524.894.73 1.407.46 2.02-1.06 3.8-3.7 3.8-7.413 0-1.286-.23-2.455-.659-3.507a8.328 8.328 0 0 0-1.253-2.117 8.649 8.649 0 0 0-1.767-1.637 1.032 1.032 0 0 0-1.456.264 1.08 1.08 0 0 0 .258 1.485zm-3.137 2.133c.326.232.545.42.807.742.221.273.407.58.548.926.183.45.315 1.149.315 1.767 0 1.714-.798 2.91-1.549 3.304-.513.27-.715.913-.451 1.437.264.524.894.73 1.408.46 1.415-.743 2.682-2.644 2.682-5.2 0-.895-.183-1.873-.474-2.586a5.776 5.776 0 0 0-.87-1.469 5.641 5.641 0 0 0-1.218-1.13 1.032 1.032 0 0 0-1.456.264 1.08 1.08 0 0 0 .258 1.485z" fill-rule="nonzero" fill="#26B8FF"/></svg>