<svg width="32" height="32" viewBox="0 0 32 32" xmlns="http://www.w3.org/2000/svg"><title>C2829838-ED94-4720-A2DC-A111650B00BC</title><path d="M9.683 21.014H7.92l3.352-9.923h2.003l3.352 9.923h-1.762l-.778-2.263h-3.64l-.764 2.263zm2.59-7.97l-1.336 4.142h2.672l-1.336-4.143zm6.757 1v4.016c0 1.163.384 1.487 1.798 1.487.6 0 1.502-.077 2.162-.194l.263-.046.187 1.536-.222.051c-.678.156-1.683.261-2.432.261-2.354 0-3.477-1.02-3.477-3.024v-4.157c0-2.005 1.123-3.024 3.477-3.024.749 0 1.754.105 2.432.26l.222.052-.187 1.536-.263-.046a14.209 14.209 0 0 0-2.162-.194c-1.414 0-1.798.324-1.798 1.487zM1.97 7.365A5.395 5.395 0 0 1 7.364 1.97h17.272a5.395 5.395 0 0 1 5.394 5.394v17.272a5.395 5.395 0 0 1-5.394 5.394H7.364a5.395 5.395 0 0 1-5.394-5.394V7.364zm1.89-.212v17.677a3.312 3.312 0 0 0 3.31 3.311h17.678a3.312 3.312 0 0 0 3.311-3.31V7.151a3.312 3.312 0 0 0-3.31-3.311H7.17A3.312 3.312 0 0 0 3.86 7.15z" fill-rule="nonzero" fill="#26B8FF"/></svg>