<svg width="32" height="32" viewBox="0 0 32 32" xmlns="http://www.w3.org/2000/svg"><title>7FB1D783-C9C7-444E-B01A-45F779F5D5FB</title><path d="M12.75 2.59a4.596 4.596 0 0 1 6.5 0l10.405 10.404a4.596 4.596 0 0 1 0 6.499L19.249 29.898a4.596 4.596 0 0 1-6.498 0L2.345 19.493a4.596 4.596 0 0 1 0-6.499L12.751 2.59zM3.34 13.988a3.19 3.19 0 0 0 0 4.51l10.405 10.405a3.19 3.19 0 0 0 4.51 0L28.66 18.499a3.19 3.19 0 0 0 0-4.51L18.255 3.583a3.19 3.19 0 0 0-4.51 0L3.34 13.99zM19.426 2.412l10.405 10.406a4.846 4.846 0 0 1 0 6.852L19.426 30.075a4.846 4.846 0 0 1-6.852 0L2.169 19.67a4.846 4.846 0 0 1 0-6.852L12.574 2.412a4.846 4.846 0 0 1 6.852 0zm-15.91 15.91l10.406 10.405a2.94 2.94 0 0 0 4.156 0l10.405-10.405a2.94 2.94 0 0 0 0-4.156L18.078 3.76a2.94 2.94 0 0 0-4.156 0L3.517 14.166a2.94 2.94 0 0 0 0 4.156zm15.818-2.506c.338 0 .65.179.821.469l2.727 4.618a.953.953 0 0 1-1.642.969l-2.45-4.15h-5.874a.953.953 0 0 1-.85-.52L9.28 11.725a.953.953 0 0 1 1.699-.865l2.522 4.956h5.833z" fill-rule="nonzero" fill="#26B8FF"/></svg>