<svg width="32" height="32" viewBox="0 0 32 32" xmlns="http://www.w3.org/2000/svg"><title>40163839-1DB6-46D5-A697-0935211FFA0A</title><path d="M28.154 6.655a2.803 2.803 0 0 0-2.809-2.81H6.655a2.803 2.803 0 0 0-2.81 2.81v18.69a2.803 2.803 0 0 0 2.81 2.81h18.69a2.803 2.803 0 0 0 2.81-2.81V6.655zm1.87 0v18.69a4.673 4.673 0 0 1-4.679 4.68H6.655a4.673 4.673 0 0 1-4.68-4.68V6.655a4.673 4.673 0 0 1 4.68-4.68h18.69a4.673 4.673 0 0 1 4.68 4.68zM12.521 19.37h-1.97l-1.988-5.309-.157 6.513H6.741l.34-9.824h1.94l2.515 6.744 2.514-6.744h1.942l.339 9.824h-1.665l-.157-6.513-1.988 5.309zm13.463 1.204H23.99L21.667 17.2h-1.901v3.374h-1.704V10.75h3.806c2.02 0 2.952.867 2.952 2.546v1.344c0 1.148-.424 1.918-1.342 2.298l2.506 3.636zm-4.158-4.938c1.016 0 1.29-.22 1.29-.982V13.31c0-.77-.266-.982-1.29-.982h-2.06v3.308h2.06z" fill-rule="nonzero" fill="#26B8FF"/></svg>