<svg width="32" height="32" viewBox="0 0 32 32" xmlns="http://www.w3.org/2000/svg"><title>FDE0836C-62E2-4FE2-9627-224E5D09CF46</title><path d="M9.777 21H8l3.378-10h2.019l3.378 10H15l-.784-2.28h-3.668L9.777 21zm2.61-8.033l-1.346 4.175h2.693l-1.346-4.175zm11.466 6.427V21H18V11h1.735v8.394h4.118zm6.095-12.689v18.59a4.647 4.647 0 0 1-4.653 4.653H6.705a4.647 4.647 0 0 1-4.653-4.653V6.705a4.647 4.647 0 0 1 4.653-4.653h18.59a4.647 4.647 0 0 1 4.653 4.653zm-1.86 0a2.788 2.788 0 0 0-2.793-2.793H6.705a2.788 2.788 0 0 0-2.793 2.793v18.59a2.788 2.788 0 0 0 2.793 2.793h18.59a2.788 2.788 0 0 0 2.793-2.793V6.705z" fill-rule="nonzero" fill="#26B8FF"/></svg>