<?xml version="1.0" encoding="UTF-8"?>
<svg width="224px" height="33px" viewBox="0 0 224 33" version="1.1" xmlns="http://www.w3.org/2000/svg" xmlns:xlink="http://www.w3.org/1999/xlink">
    <!-- Generator: Sketch 41.2 (35397) - http://www.bohemiancoding.com/sketch -->
    <title>Combined Shape</title>
    <desc>Created with Sketch.</desc>
    <defs></defs>
    <g id="Checkout" stroke="none" stroke-width="1" fill="none" fill-rule="evenodd">
        <g id="Formas-de-Pagamento" transform="translate(-98.000000, -595.000000)" fill="#FFFFFF">
            <g id="Group-6" transform="translate(32.000000, 587.000000)">
                <path d="M186.999107,39.6028226 C185.915819,39.9855161 184.876694,40.2809194 183.876941,40.4735968 C182.882508,40.6689355 181.93809,40.766871 181.042622,40.766871 C178.682375,40.766871 176.795135,40.1212419 175.382499,38.8262581 C173.97199,37.532871 173.265938,35.8158065 173.265938,33.6835806 C173.265938,32.2773548 173.488874,30.953629 173.935278,29.7086774 C174.383278,28.4647903 175.04304,27.3289516 175.913501,26.2995645 C176.941454,25.0908065 178.177444,24.1625484 179.625729,23.5115968 C181.07295,22.8595806 182.630841,22.5349032 184.305254,22.5349032 C185.212428,22.5349032 186.127582,22.6429516 187.045397,22.8537258 C187.963743,23.0719516 188.89752,23.4019516 189.844599,23.8405323 L189.115667,27.4763871 C188.364922,26.9063387 187.603534,26.4831935 186.843211,26.218129 C186.082888,25.9482742 185.266698,25.8162742 184.397302,25.8162742 C182.585083,25.8162742 181.066565,26.5161935 179.843876,27.9149677 C178.619591,29.3100161 178.006119,31.0558226 178.006119,33.1497258 C178.006119,34.5016613 178.383886,35.5635161 179.135164,36.3278387 C179.89123,37.1006774 180.930888,37.4823065 182.258926,37.4823065 C183.046385,37.4823065 183.892371,37.337 184.781454,37.0533065 C185.671069,36.7701452 186.668694,36.3182581 187.775392,35.7040323 L186.999107,39.6028226 Z M204.054978,32.3987097 L202.488042,40.4272903 L198.26503,40.4272903 L199.594664,33.5515806 C199.6915,33.1050161 199.760669,32.7271129 199.811215,32.417871 C199.864422,32.1070323 199.891557,31.861129 199.891557,31.6806935 C199.891557,31.1787742 199.752156,30.7880968 199.473353,30.5150484 C199.192954,30.2382742 198.799225,30.1025484 198.288441,30.1025484 C197.419044,30.1025484 196.669362,30.4405323 196.047377,31.1223548 C195.422731,31.8004516 194.991225,32.7388226 194.747006,33.9406613 L193.475899,40.4272903 L189.251291,40.4272903 L192.804963,22.1075 L197.042341,22.1075 L195.663757,29.1742903 C196.441106,28.412629 197.220583,27.847371 198.003785,27.4779839 C198.790712,27.1080645 199.610626,26.9244355 200.466189,26.9244355 C201.679833,26.9244355 202.619994,27.2437903 203.277629,27.8777097 C203.937923,28.5142903 204.264612,29.4084839 204.264612,30.5634839 C204.264612,30.8147097 204.24865,31.0941452 204.213533,31.3985968 C204.178417,31.7035806 204.126275,32.0367742 204.054978,32.3987097 M215.617475,32.3987097 C215.638225,32.2954516 215.656315,32.1927258 215.666957,32.0846774 C215.67813,31.9808871 215.685579,31.8755 215.685579,31.7749032 C215.685579,31.1452419 215.49776,30.6475806 215.122121,30.2781935 C214.744353,29.9109355 214.232505,29.7257097 213.591897,29.7257097 C212.76613,29.7257097 212.066463,29.9524516 211.490235,30.4027419 C210.914007,30.854629 210.471859,31.5183548 210.165389,32.3987097 L215.617475,32.3987097 Z M219.592543,34.3254839 L219.449418,34.9993226 L209.589161,34.9993226 C209.589161,35.0472258 209.583308,35.1174839 209.576924,35.2058387 C209.568943,35.2979194 209.565218,35.3660484 209.565218,35.4123548 C209.565218,36.2671613 209.822738,36.9053387 210.337779,37.3316774 C210.850691,37.7558871 211.620591,37.9677258 212.648543,37.9677258 C213.533902,37.9677258 214.469807,37.8309355 215.45413,37.5664032 C216.441114,37.3002742 217.473323,36.9032097 218.554482,36.3773387 L217.906957,39.6501935 C216.882729,40.0280968 215.859565,40.304871 214.844914,40.4927581 C213.827071,40.6785161 212.79433,40.7700645 211.745627,40.7700645 C209.687593,40.7700645 208.100971,40.2931613 206.984695,39.3446774 C205.865228,38.3940645 205.304429,37.0517097 205.304429,35.3197419 C205.304429,34.3137742 205.4848,33.3376129 205.841817,32.3923226 C206.197769,31.4465 206.719726,30.5821129 207.402368,29.7959677 C208.208981,28.853871 209.177342,28.1427742 210.298938,27.6568226 C211.425855,27.1687419 212.677807,26.9244355 214.050539,26.9244355 C215.830301,26.9244355 217.245598,27.3992097 218.289513,28.3476935 C219.338216,29.2983065 219.862301,30.5767903 219.862301,32.186871 C219.862301,32.4977097 219.841551,32.8309032 219.797921,33.181129 C219.754292,33.5297581 219.688315,33.9113871 219.592543,34.3254839 L219.592543,34.3254839 Z M233.721038,27.6570355 L233.050102,31.0932935 C232.482387,30.7153903 231.925313,30.4295677 231.377285,30.2352935 C230.827128,30.0346323 230.289741,29.9388258 229.762995,29.9388258 C228.388135,29.9388258 227.270263,30.399229 226.398738,31.3195032 C225.528277,32.2445677 225.094643,33.4219226 225.094643,34.8563581 C225.094643,35.7766323 225.362273,36.487729 225.906045,36.994971 C226.44556,37.5016806 227.210672,37.7534387 228.200315,37.7534387 C228.861142,37.7534387 229.504943,37.6565677 230.139698,37.4622935 C230.77871,37.2626968 231.381009,36.9758097 231.953513,36.5883258 L231.305456,40.0373581 C230.608448,40.2811323 229.903992,40.464229 229.199004,40.5871806 C228.495612,40.7058742 227.784771,40.7676161 227.068078,40.7676161 C224.998871,40.7676161 223.404268,40.3050839 222.286928,39.3736323 C221.168524,38.4411161 220.611451,37.1221806 220.611451,35.4131 C220.611451,34.3379387 220.813636,33.2925839 221.22652,32.2812935 C221.637807,31.2673419 222.232657,30.3593097 222.996705,29.5497452 C223.854928,28.6614065 224.834463,28.0046 225.939565,27.5676161 C227.047327,27.1407452 228.323755,26.9251806 229.762995,26.9251806 C230.43127,26.9251806 231.095289,26.9858581 231.755052,27.1072129 C232.41375,27.2248419 233.068192,27.4111323 233.721038,27.6570355 M237.124241,22.1079258 L241.355766,22.1079258 L239.428089,32.0324097 L245.112688,27.2410226 L250.081657,27.2410226 L242.418835,33.3401677 L247.983187,40.4277161 L243.173305,40.4277161 L238.900279,34.7416032 L237.793581,40.4277161 L233.568441,40.4277161 L237.124241,22.1079258 Z M256.353285,29.9389323 C255.265209,29.9389323 254.369209,30.4318032 253.659432,31.4202065 C252.95338,32.4134 252.602748,33.6716581 252.602748,35.1992387 C252.602748,36.0322226 252.791631,36.6666742 253.174187,37.1031258 C253.550358,37.5353194 254.108496,37.7524806 254.835299,37.7524806 C255.926035,37.7524806 256.826824,37.2580129 257.53394,36.2674806 C258.236268,35.2726903 258.591688,34.0096419 258.591688,32.4692871 C258.591688,31.6469484 258.402805,31.0167548 258.021845,30.5845613 C257.640353,30.1555613 257.084876,29.9389323 256.353285,29.9389323 M256.698064,26.9252871 C258.658197,26.9252871 260.200125,27.4224161 261.320657,28.4177387 C262.442254,29.4178516 263.003584,30.7745774 263.003584,32.4932387 C263.003584,33.4912226 262.828002,34.4556742 262.47737,35.3940452 C262.120886,36.3329484 261.607973,37.1877548 260.931185,37.9675129 C260.129893,38.8920452 259.184943,39.5909 258.096867,40.0608839 C257.00613,40.5329968 255.790358,40.7677226 254.447954,40.7677226 C252.511764,40.7677226 250.984733,40.2700613 249.864733,39.2720774 C248.748458,38.2767548 248.187128,36.920029 248.187128,35.1992387 C248.187128,34.2119 248.368562,33.2463839 248.731964,32.2973677 C249.087916,31.3520774 249.606149,30.4887548 250.282938,29.7042065 C251.06614,28.7929806 252.003109,28.1005129 253.090121,27.6289323 C254.176068,27.1594806 255.379603,26.9252871 256.698064,26.9252871 M264.306295,35.2955774 L265.850352,27.2414484 L270.071768,27.2414484 L268.74107,34.1027871 C268.64583,34.5520129 268.579322,34.9320452 268.529307,35.2460774 C268.485678,35.5633032 268.460671,35.8076097 268.460671,35.9907065 C268.460671,36.4835774 268.597412,36.8678677 268.871958,37.1462387 C269.14544,37.4176903 269.538105,37.5534161 270.049953,37.5534161 C270.91935,37.5534161 271.669032,37.2154323 272.29687,36.5421258 C272.923113,35.8682871 273.356215,34.9299161 273.591388,33.7296742 L274.860367,27.2414484 L279.086571,27.2414484 L276.533716,40.4270774 L272.283569,40.4270774 L272.671445,38.4976419 C271.949963,39.2582387 271.192832,39.8266903 270.403246,40.2067226 C269.609402,40.5824968 268.774058,40.7666581 267.896148,40.7666581 C266.694742,40.7666581 265.766286,40.4504968 265.106524,39.8165774 C264.446761,39.1784 264.118476,38.2820774 264.118476,37.1174968 C264.118476,36.8444484 264.134438,36.5538355 264.16317,36.2477871 C264.196158,35.9396097 264.242448,35.6239806 264.306295,35.2955774 M285.876325,23.4974387 L285.159631,27.2413419 L289.468306,27.2413419 L288.86441,30.2533903 L284.555736,30.2533903 L283.475641,35.8378419 C283.443717,35.9623903 283.424562,36.0656484 283.411261,36.1550677 C283.400087,36.2423581 283.395299,36.3237935 283.395299,36.3977774 C283.395299,36.7623742 283.512886,37.0178581 283.749123,37.1786 C283.990149,37.3324226 284.395584,37.4127935 284.954786,37.4127935 L287.135194,37.4127935 L286.537684,40.426971 L282.993589,40.426971 C281.721418,40.426971 280.753589,40.1592452 280.086377,39.6243258 C279.419698,39.0936645 279.086624,38.3234871 279.086624,37.3180516 C279.086624,37.1008903 279.098862,36.8640355 279.122805,36.6128097 C279.143555,36.3621161 279.1808,36.1071645 279.228154,35.8474226 L281.642672,23.4974387 L285.876325,23.4974387 Z M115.630579,9.10762903 L108.929201,40.4272903 L100.830617,40.4272903 L107.52827,9.10762903 L115.630579,9.10762903 Z M149.705182,29.3302419 L153.968099,17.57 L156.420393,29.3302419 L149.705182,29.3302419 Z M158.741267,40.4272903 L166.236488,40.4272903 L159.694199,9.10762903 L152.784251,9.10762903 C151.225828,9.10762903 149.918541,10.0098065 149.33646,11.4085806 L137.1814,40.4272903 L145.684887,40.4272903 L147.377391,35.7460806 L157.762797,35.7460806 L158.741267,40.4272903 Z M137.603861,30.2015484 C137.638978,21.9387742 126.176137,21.4810323 126.253286,17.7834355 C126.276697,16.6640968 127.349343,15.4686452 129.689372,15.161 C130.848213,15.0093065 134.049125,14.8911452 137.676754,16.5624355 L139.100564,9.92890323 C137.14788,9.21567742 134.63759,8.53225806 131.523937,8.53225806 C123.51474,8.53225806 117.88122,12.7929839 117.831738,18.8868065 C117.782256,23.4008871 121.858417,25.9110161 124.926845,27.4130484 C128.084127,28.9475484 129.137619,29.9290323 129.126446,31.3070484 C129.104631,33.4057419 126.612963,34.3324032 124.280384,34.3685968 C120.211671,34.430871 117.842911,33.2678871 115.958864,32.3885968 L114.497277,39.2557903 C116.386113,40.1217742 119.877533,40.8775806 123.501438,40.9190968 C132.011842,40.9190968 137.57513,36.7174516 137.603861,30.2015484 L137.603861,30.2015484 Z M104.05494,9.10762903 L90.9283268,40.4272903 L82.3673767,40.4272903 L75.9128779,15.4287258 C75.521277,13.8894355 75.1812865,13.3236452 73.9878613,12.6806774 C72.0383696,11.6241452 68.8241558,10.6314839 66.0004789,10.0135323 L66.1882983,9.10762903 L79.969885,9.10762903 C81.7251724,9.10762903 83.3091344,10.2764677 83.7097805,12.3001129 L87.1176665,30.4219032 L95.5461321,9.10762903 L104.05494,9.10762903 L104.05494,9.10762903 Z" id="Combined-Shape"></path>
            </g>
        </g>
    </g>
</svg>