<?xml version="1.0" encoding="utf-8"?>
<!-- Generator: Adobe Illustrator 20.0.0, SVG Export Plug-In . SVG Version: 6.00 Build 0)  -->
<svg version="1.1" id="Layer_1" xmlns="http://www.w3.org/2000/svg" xmlns:xlink="http://www.w3.org/1999/xlink" x="0px" y="0px"
	 viewBox="0 0 1076.577 631.468" enable-background="new 0 0 1076.577 631.468" xml:space="preserve">
<g>
	<g>
		<path fill="#ED2026" d="M456.065,220.259c0-68.55,32.024-129.583,81.885-169.081C501.183,22.053,454.737,4.615,404.19,4.615
			c-119.097,0-215.644,96.547-215.644,215.644s96.547,215.644,215.644,215.644c50.547,0,96.993-17.438,133.759-46.563
			C488.089,349.842,456.065,288.809,456.065,220.259z"/>
		<path fill="#F26A21" d="M456.065,220.259c0,68.55,32.024,129.583,81.885,169.081c49.861-39.498,81.885-100.531,81.885-169.081
			S587.81,90.676,537.949,51.178C488.089,90.676,456.065,151.709,456.065,220.259z"/>
		<path fill="#F99F1D" d="M872.731,336.9v-6.312h-2.552v-1.735h6.991v1.735h-2.553v6.312H872.731z M886.248,336.9v-5.583
			l-1.811,4.816h-1.999l-1.811-4.803v5.57h-1.886v-8.047h2.703l1.999,5.155l1.987-5.155h2.704v8.047H886.248z"/>
		<path fill="#F99F1D" d="M671.709,4.615c-50.547,0-96.993,17.438-133.759,46.563c49.861,39.498,81.885,100.531,81.885,169.081
			s-32.024,129.583-81.885,169.081c36.766,29.125,83.212,46.563,133.759,46.563c119.097,0,215.644-96.547,215.644-215.644
			S790.806,4.615,671.709,4.615z"/>
	</g>
	<path d="M148.921,501.247c-3.226-3.236-7.057-5.752-11.491-7.547c-4.436-1.794-9.29-2.692-14.562-2.692
		c-2.791,0-5.692,0.24-8.7,0.721c-3.01,0.481-5.955,1.331-8.84,2.548c-2.884,1.218-5.629,2.901-8.234,5.047
		c-2.605,2.148-4.871,4.855-6.792,8.124c-3.103-5.126-7.304-9.148-12.608-12.065c-5.303-2.915-11.367-4.375-18.19-4.375
		c-2.295,0-4.668,0.209-7.118,0.625c-2.451,0.418-4.885,1.139-7.304,2.163c-2.42,1.026-4.731,2.42-6.932,4.182
		c-2.203,1.764-4.203,3.99-6.001,6.682v-11.249H12.795v92.101h19.539v-51.05c0-3.909,0.62-7.386,1.861-10.431
		c1.24-3.044,2.899-5.591,4.978-7.644c2.077-2.05,4.513-3.605,7.304-4.663c2.792-1.057,5.769-1.586,8.933-1.586
		c6.574,0,11.677,2.084,15.306,6.249c3.628,4.167,5.442,10.128,5.442,17.882v51.242h19.54v-51.05c0-3.909,0.62-7.386,1.861-10.431
		c1.24-3.044,2.899-5.591,4.978-7.644c2.077-2.05,4.513-3.605,7.304-4.663c2.792-1.057,5.769-1.586,8.933-1.586
		c6.574,0,11.677,2.084,15.306,6.249c3.628,4.167,5.442,10.128,5.442,17.882v51.242h19.54v-57.876
		c0-5.384-0.884-10.319-2.652-14.806C154.643,508.346,152.145,504.484,148.921,501.247z"/>
	<path d="M251.965,504.564c-3.206-4.101-7.179-7.386-11.921-9.854c-4.744-2.467-10.416-3.702-17.017-3.702
		c-6.474,0-12.498,1.202-18.074,3.606c-5.577,2.403-10.448,5.753-14.614,10.047c-4.167,4.294-7.436,9.406-9.806,15.334
		c-2.371,5.929-3.557,12.418-3.557,19.468c0,7.053,1.186,13.541,3.557,19.468c2.371,5.929,5.64,11.041,9.806,15.334
		c4.166,4.294,9.037,7.644,14.614,10.047c5.576,2.402,11.6,3.605,18.074,3.605c6.6,0,12.273-1.219,17.017-3.654
		c4.742-2.435,8.715-5.704,11.921-9.806v11.056h20.094v-92.101h-20.094V504.564z M251.196,551.191
		c-1.346,3.59-3.237,6.698-5.673,9.325c-2.436,2.629-5.351,4.696-8.748,6.201c-3.398,1.507-7.179,2.258-11.344,2.258
		c-4.359,0-8.253-0.783-11.682-2.354c-3.429-1.57-6.33-3.686-8.701-6.345c-2.371-2.66-4.198-5.784-5.479-9.374
		c-1.283-3.589-1.923-7.402-1.923-11.441c0-4.037,0.64-7.85,1.923-11.44c1.281-3.589,3.108-6.713,5.479-9.373
		c2.371-2.659,5.271-4.774,8.701-6.345c3.428-1.57,7.322-2.355,11.682-2.355c4.165,0,7.946,0.754,11.344,2.259
		c3.397,1.507,6.312,3.574,8.748,6.201c2.435,2.629,4.327,5.737,5.673,9.325c1.346,3.59,2.019,7.499,2.019,11.728
		S252.542,547.602,251.196,551.191z"/>
	<path d="M364.42,539.318c-5.641-4.389-13.494-7.322-23.556-8.796l-9.516-1.442c-2.116-0.32-4.103-0.688-5.962-1.106
		c-1.858-0.416-3.461-0.977-4.806-1.683c-1.345-0.704-2.42-1.601-3.22-2.692c-0.803-1.089-1.203-2.435-1.203-4.038
		c0-3.268,1.522-5.912,4.566-7.932c3.043-2.019,7.321-3.028,12.835-3.028c2.883,0,5.719,0.257,8.508,0.769
		c2.789,0.514,5.431,1.153,7.932,1.923c2.499,0.769,4.774,1.62,6.826,2.548c2.049,0.929,3.781,1.811,5.191,2.643l8.652-15.671
		c-4.808-3.076-10.415-5.463-16.825-7.162c-6.409-1.697-13.235-2.548-20.477-2.548c-5.899,0-11.185,0.69-15.863,2.067
		c-4.678,1.379-8.668,3.333-11.969,5.865c-3.302,2.533-5.834,5.624-7.595,9.277c-1.764,3.653-2.643,7.756-2.643,12.306
		c0,7.436,2.643,13.444,7.93,18.026c5.288,4.583,13.06,7.58,23.314,8.99l9.614,1.25c5.513,0.769,9.55,2.004,12.115,3.7
		c2.562,1.7,3.846,3.862,3.846,6.489c0,3.462-1.764,6.201-5.288,8.22c-3.526,2.019-8.749,3.029-15.671,3.029
		c-3.781,0-7.161-0.256-10.143-0.769c-2.98-0.513-5.704-1.203-8.171-2.067c-2.469-0.864-4.68-1.858-6.634-2.98
		c-1.955-1.122-3.765-2.323-5.432-3.605l-9.325,15.093c3.333,2.499,6.826,4.519,10.48,6.057c3.653,1.538,7.242,2.739,10.768,3.605
		c3.524,0.866,6.857,1.442,9.999,1.73c3.139,0.288,5.895,0.434,8.268,0.434c6.6,0,12.513-0.738,17.736-2.211
		c5.224-1.475,9.614-3.542,13.172-6.203c3.558-2.658,6.281-5.831,8.171-9.516c1.891-3.686,2.836-7.739,2.836-12.161
		C372.879,549.846,370.059,543.708,364.42,539.318z"/>
	<path d="M949.922,539.318c-5.641-4.389-13.494-7.322-23.556-8.796l-9.516-1.442c-2.116-0.32-4.103-0.688-5.962-1.106
		c-1.858-0.416-3.461-0.977-4.806-1.683c-1.345-0.704-2.42-1.601-3.22-2.692c-0.803-1.089-1.203-2.435-1.203-4.038
		c0-3.268,1.522-5.912,4.566-7.932c3.043-2.019,7.321-3.028,12.835-3.028c2.883,0,5.719,0.257,8.508,0.769
		c2.789,0.514,5.431,1.153,7.932,1.923c2.499,0.769,4.774,1.62,6.826,2.548c2.049,0.929,3.781,1.811,5.191,2.643l8.652-15.671
		c-4.808-3.076-10.415-5.463-16.825-7.162c-6.409-1.697-13.235-2.548-20.477-2.548c-5.899,0-11.185,0.69-15.863,2.067
		c-4.678,1.379-8.668,3.333-11.969,5.865c-3.302,2.533-5.834,5.624-7.595,9.277c-1.764,3.653-2.643,7.756-2.643,12.306
		c0,7.436,2.643,13.444,7.93,18.026c5.288,4.583,13.06,7.58,23.314,8.99l9.614,1.25c5.513,0.769,9.55,2.004,12.115,3.7
		c2.562,1.7,3.846,3.862,3.846,6.489c0,3.462-1.764,6.201-5.288,8.22c-3.526,2.019-8.749,3.029-15.671,3.029
		c-3.781,0-7.161-0.256-10.143-0.769c-2.98-0.513-5.704-1.203-8.171-2.067c-2.469-0.864-4.68-1.858-6.634-2.98
		c-1.955-1.122-3.765-2.323-5.432-3.605l-9.325,15.093c3.333,2.499,6.826,4.519,10.48,6.057c3.653,1.538,7.242,2.739,10.768,3.605
		c3.524,0.866,6.857,1.442,9.999,1.73c3.139,0.288,5.895,0.434,8.268,0.434c6.599,0,12.513-0.738,17.736-2.211
		c5.224-1.475,9.614-3.542,13.172-6.203c3.558-2.658,6.281-5.831,8.171-9.516c1.891-3.686,2.836-7.739,2.836-12.161
		C958.382,549.846,955.562,543.708,949.922,539.318z"/>
	<path d="M1039.569,539.318c-5.641-4.389-13.494-7.322-23.556-8.796l-9.516-1.442c-2.116-0.32-4.103-0.688-5.962-1.106
		c-1.858-0.416-3.461-0.977-4.806-1.683c-1.345-0.704-2.42-1.601-3.22-2.692c-0.803-1.089-1.203-2.435-1.203-4.038
		c0-3.268,1.522-5.912,4.566-7.932c3.043-2.019,7.321-3.028,12.835-3.028c2.883,0,5.719,0.257,8.508,0.769
		c2.789,0.514,5.431,1.153,7.932,1.923c2.499,0.769,4.774,1.62,6.826,2.548c2.049,0.929,3.781,1.811,5.191,2.643l8.652-15.671
		c-4.807-3.076-10.415-5.463-16.825-7.162c-6.409-1.697-13.235-2.548-20.477-2.548c-5.899,0-11.185,0.69-15.863,2.067
		c-4.678,1.379-8.668,3.333-11.969,5.865c-3.302,2.533-5.834,5.624-7.595,9.277c-1.764,3.653-2.643,7.756-2.643,12.306
		c0,7.436,2.643,13.444,7.93,18.026c5.288,4.583,13.06,7.58,23.314,8.99l9.614,1.25c5.513,0.769,9.55,2.004,12.115,3.7
		c2.562,1.7,3.846,3.862,3.846,6.489c0,3.462-1.764,6.201-5.288,8.22c-3.526,2.019-8.749,3.029-15.671,3.029
		c-3.781,0-7.161-0.256-10.143-0.769c-2.98-0.513-5.704-1.203-8.171-2.067c-2.469-0.864-4.68-1.858-6.634-2.98
		c-1.955-1.122-3.765-2.323-5.432-3.605l-9.325,15.093c3.333,2.499,6.826,4.519,10.48,6.057c3.653,1.538,7.242,2.739,10.768,3.605
		c3.524,0.866,6.857,1.442,9.999,1.73c3.139,0.288,5.895,0.434,8.268,0.434c6.6,0,12.513-0.738,17.736-2.211
		c5.224-1.475,9.614-3.542,13.172-6.203c3.558-2.658,6.281-5.831,8.171-9.516c1.891-3.686,2.836-7.739,2.836-12.161
		C1048.029,549.846,1045.209,543.708,1039.569,539.318z"/>
	<path d="M552.552,504.42c-3.814-4.262-8.396-7.562-13.748-9.903c-5.352-2.339-11.234-3.509-17.641-3.509
		c-6.795,0-12.995,1.17-18.602,3.509c-5.611,2.341-10.431,5.64-14.47,9.903c-4.039,4.263-7.179,9.373-9.423,15.334
		c-2.244,5.96-3.364,12.531-3.364,19.708c0,7.307,1.153,13.94,3.461,19.902c2.308,5.96,5.542,11.056,9.709,15.284
		c4.167,4.231,9.133,7.501,14.902,9.806c5.769,2.308,12.115,3.462,19.036,3.462c6.985,0,13.636-0.962,19.949-2.885
		c6.311-1.923,12.289-5.288,17.929-10.094l-9.997-14.324c-3.846,3.076-8.094,5.465-12.739,7.161
		c-4.647,1.7-9.279,2.548-13.892,2.548c-3.27,0-6.41-0.447-9.421-1.347c-3.014-0.897-5.737-2.289-8.173-4.181
		c-2.436-1.889-4.518-4.311-6.25-7.258c-1.729-2.948-2.917-6.506-3.556-10.672h68.066c0.13-1.153,0.225-2.37,0.29-3.652
		c0.063-1.282,0.096-2.563,0.096-3.846c0-7.177-1.073-13.732-3.221-19.661C559.346,513.778,556.365,508.682,552.552,504.42z
		 M496.359,531.578c0.513-3.331,1.41-6.393,2.694-9.181c1.28-2.787,2.932-5.191,4.95-7.21c2.02-2.019,4.422-3.573,7.21-4.664
		c2.789-1.089,5.976-1.634,9.567-1.634c6.409,0,11.632,1.988,15.671,5.961c4.039,3.975,6.6,9.55,7.691,16.728H496.359z"/>
	<path d="M841.916,504.564c-3.205-4.101-7.177-7.386-11.92-9.854c-4.743-2.467-10.417-3.702-17.016-3.702
		c-6.475,0-12.5,1.202-18.075,3.606c-5.576,2.403-10.447,5.753-14.614,10.047c-4.167,4.294-7.436,9.406-9.806,15.334
		c-2.371,5.929-3.558,12.418-3.558,19.468c0,7.053,1.187,13.541,3.558,19.468c2.37,5.929,5.64,11.041,9.806,15.334
		c4.167,4.294,9.037,7.644,14.614,10.047c5.575,2.402,11.6,3.605,18.075,3.605c6.6,0,12.273-1.219,17.016-3.654
		c4.743-2.435,8.715-5.704,11.92-9.806v11.056h20.095v-92.101h-20.095V504.564z M841.148,551.191
		c-1.347,3.59-3.237,6.698-5.674,9.325c-2.436,2.629-5.352,4.696-8.749,6.201c-3.396,1.507-7.177,2.258-11.344,2.258
		c-4.358,0-8.252-0.783-11.681-2.354c-3.428-1.57-6.329-3.686-8.701-6.345c-2.371-2.66-4.197-5.784-5.479-9.374
		c-1.282-3.589-1.923-7.402-1.923-11.441c0-4.037,0.641-7.85,1.923-11.44c1.282-3.589,3.108-6.713,5.479-9.373
		c2.371-2.659,5.272-4.774,8.701-6.345c3.428-1.57,7.323-2.355,11.681-2.355c4.167,0,7.948,0.754,11.344,2.259
		c3.398,1.507,6.313,3.574,8.749,6.201c2.436,2.629,4.327,5.737,5.674,9.325c1.345,3.59,2.017,7.499,2.017,11.728
		S842.494,547.602,841.148,551.191z"/>
	<path d="M450.578,567.15c-3.237,1.217-6.426,1.826-9.567,1.826c-2.053,0-3.959-0.319-5.721-0.962
		c-1.764-0.638-3.302-1.648-4.613-3.027c-1.314-1.378-2.357-3.157-3.126-5.335c-0.769-2.179-1.154-4.808-1.154-7.883v-40.091h32.271
		v-18.266h-32.271v-27.88h-20.189v27.88h-18.363v18.266h18.363v40.475c0,12.242,2.899,21.263,8.701,27.063
		c5.8,5.802,13.923,8.701,24.371,8.701c5.832,0,11.07-0.898,15.719-2.692c3.072-1.186,5.921-2.542,8.587-4.037l-6.87-16.824
		C454.773,565.403,452.733,566.339,450.578,567.15z"/>
	<path d="M631.985,491.008c-5.64,0-10.735,1.026-15.287,3.076c-4.552,2.053-8.362,6.99-11.44,11.412v-12.085h-18.243v92.101h18.436
		v-50.665c0-3.908,0.544-7.403,1.635-10.48c1.088-3.076,2.595-5.672,4.518-7.787c1.921-2.115,4.23-3.717,6.922-4.807
		c2.692-1.089,5.638-1.635,8.845-1.635c2.436,0,5.062,0.289,7.883,0.865c1.438,0.294,2.782,0.657,4.037,1.085l5.941-19.224
		c-1.611-0.509-3.245-0.947-4.93-1.233C637.832,491.216,635.06,491.008,631.985,491.008z"/>
	<path d="M678.696,622.948V574.36c3.205,4.101,7.179,7.386,11.92,9.854c4.745,2.467,10.418,3.702,17.018,3.702
		c6.473,0,12.498-1.202,18.073-3.606c5.578-2.403,10.449-5.753,14.614-10.047c4.167-4.294,7.436-9.406,9.806-15.334
		c2.373-5.929,3.558-12.418,3.558-19.468c0-7.053-1.185-13.541-3.558-19.468c-2.37-5.929-5.64-11.041-9.806-15.334
		c-4.165-4.294-9.036-7.644-14.614-10.047c-5.575-2.402-11.6-3.605-18.073-3.605c-6.6,0-12.273,1.219-17.018,3.653
		c-4.741,2.435-8.715,5.704-11.92,9.806v-11.056h-20.093v129.537H678.696z M679.465,527.733c1.345-3.59,3.237-6.698,5.674-9.325
		c2.435-2.629,5.352-4.696,8.748-6.201c3.398-1.507,7.179-2.258,11.344-2.258c4.359,0,8.252,0.783,11.681,2.354
		c3.43,1.57,6.331,3.686,8.702,6.345c2.37,2.66,4.197,5.784,5.478,9.374c1.284,3.589,1.923,7.402,1.923,11.441
		c0,4.037-0.639,7.85-1.923,11.44c-1.28,3.589-3.108,6.713-5.478,9.373c-2.371,2.659-5.272,4.774-8.702,6.345
		c-3.428,1.57-7.321,2.355-11.681,2.355c-4.165,0-7.946-0.754-11.344-2.259c-3.396-1.507-6.313-3.574-8.748-6.201
		c-2.436-2.629-4.328-5.737-5.674-9.325c-1.345-3.59-2.019-7.499-2.019-11.728C677.447,535.233,678.12,531.322,679.465,527.733z"/>
	<path d="M1049.946,590.939v-4.741h-1.917v-1.304h5.252v1.304h-1.917v4.741H1049.946z M1060.1,590.939v-4.194l-1.36,3.617h-1.502
		l-1.36-3.608v4.184h-1.417v-6.045h2.031l1.502,3.873l1.492-3.873h2.031v6.045H1060.1z"/>
</g>
</svg>
