<?xml version="1.0" encoding="utf-8"?>
<!-- Generator: Adobe Illustrator 20.0.0, SVG Export Plug-In . SVG Version: 6.00 Build 0)  -->
<svg version="1.1" id="Layer_1" xmlns="http://www.w3.org/2000/svg" xmlns:xlink="http://www.w3.org/1999/xlink" x="0px" y="0px"
	 viewBox="0 0 433.464 81.258" enable-background="new 0 0 433.464 81.258" xml:space="preserve">
<g>
	<path fill="#ED2026" d="M50.124,41.454c0-11.826,5.525-22.355,14.126-29.169C57.907,7.26,49.895,4.252,41.175,4.252
		c-20.546,0-37.202,16.656-37.202,37.202s16.656,37.202,37.202,37.202c8.72,0,16.733-3.008,23.075-8.033
		C55.648,63.809,50.124,53.28,50.124,41.454z"/>
	<path fill="#F26A21" d="M50.124,41.454c0,11.826,5.525,22.355,14.126,29.169c8.602-6.814,14.126-17.343,14.126-29.169
		S72.852,19.099,64.25,12.285C55.648,19.099,50.124,29.628,50.124,41.454z"/>
	<path d="M185.676,31.459c-0.864-0.866-1.889-1.54-3.076-2.021c-1.188-0.48-2.487-0.721-3.898-0.721
		c-0.747,0-1.524,0.064-2.329,0.193c-0.806,0.129-1.594,0.356-2.367,0.682c-0.772,0.326-1.507,0.777-2.204,1.351
		c-0.697,0.575-1.304,1.3-1.818,2.175c-0.831-1.372-1.956-2.449-3.375-3.23c-1.42-0.78-3.043-1.171-4.87-1.171
		c-0.614,0-1.25,0.056-1.906,0.167c-0.656,0.112-1.308,0.305-1.955,0.579c-0.648,0.275-1.267,0.648-1.856,1.12
		c-0.59,0.472-1.125,1.068-1.607,1.789v-3.011h-5.181v24.657h5.231V40.352c0-1.047,0.166-1.977,0.498-2.793
		c0.332-0.815,0.776-1.497,1.333-2.046c0.556-0.549,1.208-0.965,1.955-1.248c0.747-0.283,1.544-0.425,2.391-0.425
		c1.76,0,3.126,0.558,4.098,1.673c0.971,1.116,1.457,2.711,1.457,4.787v13.718h5.231V40.352c0-1.047,0.166-1.977,0.498-2.793
		c0.332-0.815,0.776-1.497,1.333-2.046c0.556-0.549,1.208-0.965,1.955-1.248c0.747-0.283,1.544-0.425,2.391-0.425
		c1.76,0,3.126,0.558,4.098,1.673c0.971,1.116,1.457,2.711,1.457,4.787v13.718h5.231V38.524c0-1.441-0.237-2.762-0.71-3.964
		C187.208,33.36,186.539,32.326,185.676,31.459z"/>
	<path d="M213.263,32.347c-0.858-1.098-1.922-1.977-3.191-2.638c-1.27-0.66-2.789-0.991-4.556-0.991
		c-1.733,0-3.346,0.322-4.839,0.965c-1.493,0.643-2.797,1.54-3.912,2.69c-1.115,1.15-1.991,2.518-2.625,4.105
		c-0.635,1.587-0.952,3.325-0.952,5.212c0,1.888,0.317,3.625,0.952,5.212c0.635,1.587,1.51,2.956,2.625,4.105
		c1.115,1.15,2.419,2.046,3.912,2.69c1.493,0.643,3.105,0.965,4.839,0.965c1.767,0,3.286-0.326,4.556-0.978
		c1.27-0.652,2.333-1.527,3.191-2.625v2.96h5.379V29.362h-5.379V32.347z M213.057,44.83c-0.36,0.961-0.867,1.793-1.519,2.497
		c-0.652,0.704-1.433,1.257-2.342,1.66c-0.91,0.403-1.922,0.605-3.037,0.605c-1.167,0-2.209-0.21-3.127-0.63
		c-0.918-0.42-1.695-0.987-2.329-1.699c-0.635-0.712-1.124-1.548-1.467-2.51c-0.343-0.961-0.515-1.982-0.515-3.063
		c0-1.081,0.171-2.102,0.515-3.063c0.343-0.961,0.832-1.797,1.467-2.509c0.635-0.712,1.411-1.278,2.329-1.699
		c0.918-0.42,1.96-0.631,3.127-0.631c1.115,0,2.127,0.202,3.037,0.605c0.909,0.403,1.69,0.957,2.342,1.66
		c0.652,0.704,1.158,1.536,1.519,2.497c0.36,0.961,0.54,2.008,0.54,3.14C213.597,42.823,213.417,43.87,213.057,44.83z"/>
	<path d="M243.369,41.652c-1.51-1.175-3.612-1.96-6.306-2.355l-2.548-0.386c-0.566-0.086-1.099-0.184-1.596-0.296
		c-0.497-0.111-0.927-0.262-1.287-0.45c-0.36-0.189-0.648-0.429-0.862-0.721c-0.215-0.291-0.322-0.652-0.322-1.081
		c0-0.875,0.407-1.583,1.223-2.123c0.815-0.54,1.96-0.811,3.436-0.811c0.772,0,1.531,0.069,2.278,0.206
		c0.747,0.138,1.454,0.309,2.123,0.515c0.669,0.206,1.278,0.434,1.827,0.682c0.549,0.249,1.012,0.485,1.39,0.708l2.316-4.195
		c-1.287-0.824-2.788-1.463-4.504-1.917c-1.716-0.454-3.543-0.682-5.482-0.682c-1.579,0-2.995,0.185-4.247,0.553
		c-1.252,0.369-2.321,0.892-3.204,1.57c-0.884,0.678-1.562,1.506-2.033,2.484c-0.472,0.978-0.708,2.076-0.708,3.295
		c0,1.991,0.708,3.599,2.123,4.826c1.416,1.227,3.496,2.029,6.242,2.407l2.574,0.335c1.476,0.206,2.557,0.536,3.243,0.991
		c0.686,0.455,1.03,1.034,1.03,1.737c0,0.927-0.472,1.66-1.416,2.201c-0.944,0.54-2.342,0.811-4.195,0.811
		c-1.012,0-1.917-0.068-2.715-0.206c-0.798-0.137-1.527-0.322-2.188-0.553c-0.661-0.231-1.253-0.497-1.776-0.798
		c-0.523-0.3-1.008-0.622-1.454-0.965l-2.497,4.041c0.892,0.669,1.827,1.21,2.806,1.622s1.939,0.733,2.883,0.965
		c0.943,0.232,1.836,0.386,2.677,0.463c0.84,0.077,1.578,0.116,2.214,0.116c1.767,0,3.35-0.198,4.748-0.592
		c1.398-0.395,2.574-0.948,3.526-1.661c0.953-0.712,1.681-1.561,2.188-2.548s0.759-2.072,0.759-3.256
		C245.634,44.47,244.879,42.827,243.369,41.652z"/>
	<path d="M400.117,41.652c-1.51-1.175-3.612-1.96-6.306-2.355l-2.548-0.386c-0.566-0.086-1.099-0.184-1.596-0.296
		c-0.497-0.111-0.927-0.262-1.287-0.45c-0.36-0.189-0.648-0.429-0.862-0.721c-0.215-0.291-0.322-0.652-0.322-1.081
		c0-0.875,0.407-1.583,1.223-2.123c0.815-0.54,1.96-0.811,3.436-0.811c0.772,0,1.531,0.069,2.278,0.206
		c0.747,0.138,1.454,0.309,2.123,0.515c0.669,0.206,1.278,0.434,1.827,0.682c0.549,0.249,1.012,0.485,1.39,0.708l2.316-4.195
		c-1.287-0.824-2.788-1.463-4.504-1.917c-1.716-0.454-3.543-0.682-5.482-0.682c-1.579,0-2.995,0.185-4.247,0.553
		c-1.252,0.369-2.321,0.892-3.204,1.57c-0.884,0.678-1.562,1.506-2.033,2.484c-0.472,0.978-0.708,2.076-0.708,3.295
		c0,1.991,0.708,3.599,2.123,4.826c1.416,1.227,3.496,2.029,6.242,2.407l2.574,0.335c1.476,0.206,2.557,0.536,3.243,0.991
		c0.686,0.455,1.03,1.034,1.03,1.737c0,0.927-0.472,1.66-1.416,2.201c-0.944,0.54-2.342,0.811-4.195,0.811
		c-1.012,0-1.917-0.068-2.715-0.206c-0.798-0.137-1.527-0.322-2.188-0.553c-0.661-0.231-1.253-0.497-1.776-0.798
		c-0.523-0.3-1.008-0.622-1.454-0.965l-2.497,4.041c0.892,0.669,1.827,1.21,2.806,1.622s1.939,0.733,2.883,0.965
		c0.943,0.232,1.836,0.386,2.677,0.463c0.84,0.077,1.578,0.116,2.214,0.116c1.767,0,3.35-0.198,4.748-0.592
		c1.398-0.395,2.574-0.948,3.526-1.661c0.953-0.712,1.681-1.561,2.188-2.548s0.759-2.072,0.759-3.256
		C402.382,44.47,401.627,42.827,400.117,41.652z"/>
	<path d="M424.117,41.652c-1.51-1.175-3.612-1.96-6.306-2.355l-2.548-0.386c-0.566-0.086-1.099-0.184-1.596-0.296
		c-0.497-0.111-0.927-0.262-1.287-0.45c-0.36-0.189-0.648-0.429-0.862-0.721c-0.215-0.291-0.322-0.652-0.322-1.081
		c0-0.875,0.407-1.583,1.223-2.123c0.815-0.54,1.96-0.811,3.436-0.811c0.772,0,1.531,0.069,2.278,0.206
		c0.747,0.138,1.454,0.309,2.123,0.515c0.669,0.206,1.278,0.434,1.827,0.682c0.549,0.249,1.012,0.485,1.39,0.708l2.316-4.195
		c-1.287-0.824-2.788-1.463-4.504-1.917c-1.716-0.454-3.543-0.682-5.482-0.682c-1.579,0-2.995,0.185-4.247,0.553
		c-1.252,0.369-2.321,0.892-3.204,1.57c-0.884,0.678-1.562,1.506-2.033,2.484c-0.472,0.978-0.708,2.076-0.708,3.295
		c0,1.991,0.708,3.599,2.123,4.826c1.416,1.227,3.496,2.029,6.242,2.407l2.574,0.335c1.476,0.206,2.557,0.536,3.243,0.991
		c0.686,0.455,1.03,1.034,1.03,1.737c0,0.927-0.472,1.66-1.416,2.201c-0.944,0.54-2.342,0.811-4.195,0.811
		c-1.012,0-1.917-0.068-2.715-0.206c-0.798-0.137-1.527-0.322-2.188-0.553c-0.661-0.231-1.253-0.497-1.776-0.798
		c-0.523-0.3-1.008-0.622-1.454-0.965l-2.497,4.041c0.892,0.669,1.827,1.21,2.806,1.622s1.939,0.733,2.883,0.965
		c0.943,0.232,1.836,0.386,2.677,0.463c0.84,0.077,1.578,0.116,2.214,0.116c1.767,0,3.35-0.198,4.748-0.592
		c1.398-0.395,2.574-0.948,3.526-1.661c0.953-0.712,1.681-1.561,2.188-2.548s0.759-2.072,0.759-3.256
		C426.382,44.47,425.627,42.827,424.117,41.652z"/>
	<path d="M293.735,32.309c-1.021-1.141-2.248-2.024-3.681-2.651c-1.433-0.626-3.008-0.94-4.723-0.94c-1.819,0-3.479,0.313-4.98,0.94
		c-1.502,0.627-2.793,1.51-3.874,2.651c-1.081,1.141-1.922,2.509-2.523,4.105c-0.601,1.596-0.901,3.355-0.901,5.276
		c0,1.956,0.309,3.732,0.927,5.328c0.618,1.596,1.484,2.96,2.599,4.092c1.115,1.133,2.445,2.008,3.99,2.625
		c1.544,0.618,3.243,0.927,5.096,0.927c1.87,0,3.651-0.257,5.341-0.772c1.69-0.515,3.29-1.416,4.8-2.702l-2.676-3.835
		c-1.03,0.823-2.167,1.463-3.411,1.917c-1.244,0.455-2.484,0.682-3.719,0.682c-0.875,0-1.716-0.12-2.522-0.361
		c-0.807-0.24-1.536-0.613-2.188-1.119c-0.652-0.506-1.21-1.154-1.673-1.943c-0.463-0.789-0.781-1.742-0.952-2.857h18.222
		c0.035-0.309,0.06-0.634,0.078-0.978c0.017-0.343,0.026-0.686,0.026-1.03c0-1.922-0.287-3.676-0.862-5.264
		C295.554,34.814,294.756,33.45,293.735,32.309z M278.691,39.58c0.137-0.892,0.377-1.712,0.721-2.458
		c0.343-0.746,0.785-1.39,1.325-1.93c0.541-0.541,1.184-0.956,1.93-1.249c0.747-0.291,1.6-0.437,2.561-0.437
		c1.716,0,3.114,0.532,4.195,1.596c1.081,1.064,1.767,2.557,2.059,4.478H278.691z"/>
	<path d="M371.202,32.347c-0.858-1.098-1.922-1.977-3.191-2.638c-1.27-0.66-2.789-0.991-4.555-0.991
		c-1.733,0-3.346,0.322-4.839,0.965c-1.493,0.643-2.797,1.54-3.912,2.69c-1.115,1.15-1.991,2.518-2.625,4.105
		c-0.635,1.587-0.953,3.325-0.953,5.212c0,1.888,0.318,3.625,0.953,5.212c0.634,1.587,1.51,2.956,2.625,4.105
		c1.115,1.15,2.419,2.046,3.912,2.69c1.492,0.643,3.105,0.965,4.839,0.965c1.767,0,3.286-0.326,4.555-0.978
		c1.27-0.652,2.333-1.527,3.191-2.625v2.96h5.38V29.362h-5.38V32.347z M370.997,44.83c-0.361,0.961-0.867,1.793-1.519,2.497
		c-0.652,0.704-1.433,1.257-2.342,1.66c-0.909,0.403-1.922,0.605-3.037,0.605c-1.167,0-2.209-0.21-3.127-0.63
		c-0.918-0.42-1.694-0.987-2.329-1.699c-0.635-0.712-1.124-1.548-1.467-2.51c-0.343-0.961-0.515-1.982-0.515-3.063
		c0-1.081,0.172-2.102,0.515-3.063c0.343-0.961,0.832-1.797,1.467-2.509c0.635-0.712,1.411-1.278,2.329-1.699
		c0.918-0.42,1.961-0.631,3.127-0.631c1.115,0,2.128,0.202,3.037,0.605c0.91,0.403,1.69,0.957,2.342,1.66
		c0.652,0.704,1.158,1.536,1.519,2.497c0.36,0.961,0.54,2.008,0.54,3.14C371.537,42.823,371.357,43.87,370.997,44.83z"/>
	<path d="M266.435,49.103c-0.867,0.326-1.72,0.489-2.561,0.489c-0.549,0-1.06-0.085-1.531-0.257
		c-0.472-0.171-0.884-0.441-1.235-0.81c-0.352-0.369-0.631-0.845-0.837-1.428c-0.206-0.583-0.309-1.287-0.309-2.11V34.252h8.639
		v-4.89h-8.639v-7.464h-5.405v7.464h-4.916v4.89h4.916v10.836c0,3.277,0.776,5.693,2.329,7.245c1.553,1.553,3.727,2.329,6.525,2.329
		c1.561,0,2.964-0.241,4.208-0.721c0.822-0.317,1.585-0.68,2.299-1.081l-1.839-4.504C267.558,48.635,267.012,48.886,266.435,49.103z
		"/>
	<path d="M315,28.718c-1.51,0-2.874,0.275-4.093,0.824c-1.219,0.549-2.239,1.871-3.063,3.055v-3.235h-4.884v24.657h4.936V40.455
		c0-1.046,0.146-1.982,0.438-2.806c0.291-0.824,0.695-1.518,1.21-2.085c0.514-0.566,1.132-0.995,1.853-1.287
		c0.721-0.292,1.509-0.438,2.368-0.438c0.652,0,1.355,0.077,2.11,0.232c0.385,0.079,0.745,0.176,1.081,0.29l1.591-5.147
		c-0.431-0.136-0.869-0.254-1.32-0.33C316.566,28.774,315.824,28.718,315,28.718z"/>
	<path d="M327.506,64.041V51.033c0.858,1.098,1.922,1.977,3.191,2.638c1.27,0.66,2.789,0.991,4.556,0.991
		c1.733,0,3.346-0.322,4.838-0.965c1.493-0.643,2.797-1.54,3.912-2.69c1.115-1.15,1.991-2.518,2.625-4.105
		c0.635-1.587,0.953-3.325,0.953-5.212c0-1.888-0.317-3.625-0.953-5.212c-0.634-1.587-1.51-2.956-2.625-4.105
		c-1.115-1.15-2.419-2.046-3.912-2.69c-1.492-0.643-3.105-0.965-4.838-0.965c-1.767,0-3.286,0.326-4.556,0.978
		c-1.269,0.652-2.333,1.527-3.191,2.625v-2.96h-5.379v34.679H327.506z M327.712,38.55c0.36-0.961,0.867-1.793,1.519-2.497
		c0.652-0.704,1.433-1.257,2.342-1.66c0.91-0.403,1.922-0.605,3.037-0.605c1.167,0,2.209,0.21,3.127,0.63
		c0.918,0.42,1.695,0.987,2.33,1.699c0.634,0.712,1.124,1.548,1.466,2.51c0.344,0.961,0.515,1.982,0.515,3.063
		c0,1.081-0.171,2.102-0.515,3.063c-0.343,0.961-0.832,1.797-1.466,2.509c-0.635,0.712-1.411,1.278-2.33,1.699
		c-0.918,0.42-1.96,0.631-3.127,0.631c-1.115,0-2.127-0.202-3.037-0.605c-0.909-0.403-1.69-0.957-2.342-1.66
		c-0.652-0.704-1.159-1.536-1.519-2.497c-0.36-0.961-0.54-2.008-0.54-3.14S327.352,39.511,327.712,38.55z"/>
	<path d="M426.895,55.471v-1.269h-0.513v-0.349h1.406v0.349h-0.513v1.269H426.895z M429.614,55.471v-1.123l-0.364,0.968h-0.402
		l-0.364-0.966v1.12h-0.379v-1.618h0.544l0.402,1.037l0.4-1.037h0.544v1.618H429.614z"/>
	<path fill="#F99F1D" d="M87.325,4.252c-8.72,0-16.733,3.008-23.075,8.033c8.602,6.814,14.126,17.343,14.126,29.169
		S72.852,63.809,64.25,70.623c6.343,5.024,14.355,8.033,23.075,8.033c20.546,0,37.202-16.656,37.202-37.202
		S107.871,4.252,87.325,4.252z"/>
</g>
</svg>
