<svg id="Layer_1" data-name="Layer 1" xmlns="http://www.w3.org/2000/svg" xmlns:xlink="http://www.w3.org/1999/xlink" viewBox="0 0 419.2 61.31"><defs><style>.cls-1{fill:none;}.cls-2{clip-path:url(#clip-path);}.cls-3{fill:#253b7b;}</style><clipPath id="clip-path"><rect class="cls-1" x="-0.8" width="420" height="60.85"/></clipPath></defs><title>visacheckout-logos</title><g class="cls-2"><path class="cls-3" d="M226.61,58.37A41,41,0,0,1,220.75,60a27.65,27.65,0,0,1-5.33.55q-6.66,0-10.64-3.65a12.49,12.49,0,0,1-4-9.66,22,22,0,0,1,1.26-7.47,20.73,20.73,0,0,1,3.72-6.4,19.56,19.56,0,0,1,7-5.24,21.15,21.15,0,0,1,8.8-1.84,23,23,0,0,1,5.15.6A27.93,27.93,0,0,1,232,28.76l-1.37,6.83a15.66,15.66,0,0,0-4.27-2.36,13.66,13.66,0,0,0-4.6-.75,10.92,10.92,0,0,0-8.56,3.94,14.37,14.37,0,0,0-3.45,9.84,8.16,8.16,0,0,0,2.12,6,7.83,7.83,0,0,0,5.87,2.17,15.68,15.68,0,0,0,4.74-.81A31.64,31.64,0,0,0,228.07,51Z"/><path class="cls-3" d="M258.67,44.84l-2.95,15.08h-7.94L250.29,47c.18-.84.31-1.55.41-2.13a8.75,8.75,0,0,0,.15-1.38,2.93,2.93,0,0,0-.79-2.19,3,3,0,0,0-2.23-.77,5.51,5.51,0,0,0-4.21,1.92,10.81,10.81,0,0,0-2.44,5.29l-2.39,12.19h-7.94l6.68-34.42h8L242.9,38.78a16.36,16.36,0,0,1,4.4-3.19,10.74,10.74,0,0,1,4.63-1,7.32,7.32,0,0,1,5.28,1.79,6.67,6.67,0,0,1,1.86,5A13.78,13.78,0,0,1,259,43q-.1.86-.3,1.88"/><path class="cls-3" d="M287.87,48.46l-.27,1.27H269.07c0,.09,0,.22,0,.39s0,.3,0,.39a4.4,4.4,0,0,0,1.45,3.61,6.69,6.69,0,0,0,4.34,1.2,20.34,20.34,0,0,0,5.27-.75,33,33,0,0,0,5.83-2.23l-1.22,6.15A35.06,35.06,0,0,1,278.95,60a32.32,32.32,0,0,1-5.82.52q-5.8,0-8.95-2.68A9.38,9.38,0,0,1,261,50.33a15.45,15.45,0,0,1,1-5.5A16,16,0,0,1,265,39.95a14.86,14.86,0,0,1,5.44-4,17.57,17.57,0,0,1,7.05-1.38,11.41,11.41,0,0,1,8,2.67,9.25,9.25,0,0,1,3,7.21,15.17,15.17,0,0,1-.12,1.87,21.24,21.24,0,0,1-.39,2.15m-7.47-3.62a5.74,5.74,0,0,0,.09-.59,5.37,5.37,0,0,0,0-.58,3.76,3.76,0,0,0-1.06-2.81,4,4,0,0,0-2.88-1,6.22,6.22,0,0,0-3.95,1.27,7.92,7.92,0,0,0-2.49,3.75Z"/><path class="cls-3" d="M314.43,35.93l-1.26,6.46A14.41,14.41,0,0,0,310,40.77a8.82,8.82,0,0,0-3-.56,8.31,8.31,0,0,0-6.32,2.59,9.3,9.3,0,0,0-2.45,6.65,5.21,5.21,0,0,0,1.53,4A6.06,6.06,0,0,0,304,54.9a12.35,12.35,0,0,0,3.64-.55,12.88,12.88,0,0,0,3.41-1.64l-1.22,6.48a24.84,24.84,0,0,1-4,1,24,24,0,0,1-4,.34q-5.83,0-9-2.62a9.14,9.14,0,0,1-3.15-7.44,15.42,15.42,0,0,1,1.16-5.88,16.43,16.43,0,0,1,3.33-5.13,15.58,15.58,0,0,1,5.53-3.72A19.9,19.9,0,0,1,307,34.55a20.64,20.64,0,0,1,3.74.34,20.94,20.94,0,0,1,3.69,1"/><polygon class="cls-3" points="320.82 25.5 328.77 25.5 325.15 44.15 335.84 35.15 345.18 35.15 330.77 46.61 341.23 59.92 332.19 59.92 324.16 49.24 322.08 59.92 314.14 59.92 320.82 25.5"/><path class="cls-3" d="M357.61,34.55q5.53,0,8.69,2.8A9.73,9.73,0,0,1,369.46,45a15.44,15.44,0,0,1-1,5.45,16,16,0,0,1-2.91,4.83,14.7,14.7,0,0,1-5.33,3.93,17.1,17.1,0,0,1-6.86,1.33q-5.46,0-8.61-2.81a9.73,9.73,0,0,1-3.15-7.65,15.1,15.1,0,0,1,1-5.45,16.09,16.09,0,0,1,2.92-4.87,14.48,14.48,0,0,1,5.28-3.9,16.94,16.94,0,0,1,6.78-1.32M357,40.22A6,6,0,0,0,351.9,43a12,12,0,0,0-2,7.1A5.27,5.27,0,0,0,351,53.68a3.93,3.93,0,0,0,3.12,1.22,6,6,0,0,0,5.07-2.79,12.07,12.07,0,0,0,2-7.14,5.21,5.21,0,0,0-1.07-3.54A4,4,0,0,0,357,40.22"/><path class="cls-3" d="M371.91,50.28l2.9-15.13h7.93L380.24,48c-.18.84-.3,1.56-.4,2.15a11,11,0,0,0-.13,1.4,3,3,0,0,0,.77,2.17,3,3,0,0,0,2.21.77,5.58,5.58,0,0,0,4.22-1.9,10.58,10.58,0,0,0,2.43-5.28l2.39-12.19h7.94l-4.8,24.77h-8l.73-3.63a14.73,14.73,0,0,1-4.26,3.21,10.86,10.86,0,0,1-4.71,1.05,7.25,7.25,0,0,1-5.24-1.79,6.71,6.71,0,0,1-1.86-5.07c0-.51,0-1.06.08-1.63s.15-1.17.27-1.79"/><path class="cls-3" d="M412.45,28.11l-1.35,7h8.1l-1.13,5.66H410l-2,10.49a5.64,5.64,0,0,0-.12.6,3.55,3.55,0,0,0,0,.46,1.63,1.63,0,0,0,.67,1.47,4.41,4.41,0,0,0,2.27.44h4.1l-1.12,5.66H407a8.57,8.57,0,0,1-5.46-1.51,5.22,5.22,0,0,1-1.88-4.33c0-.41,0-.85.07-1.33s.11-.95.2-1.44l4.54-23.2Z"/><path class="cls-3" d="M70.72,1.08,46.05,59.92H30L17.83,13c-.74-2.89-1.38-4-3.62-5.16-3.66-2-9.7-3.85-15-5l.35-1.7h25.9a7.11,7.11,0,0,1,7,6l6.4,34,15.84-40h16m63.05,39.63c.07-15.52-21.48-16.38-21.33-23.33,0-2.1,2.06-4.35,6.46-4.93a28.71,28.71,0,0,1,15,2.63l2.68-12.46A40.73,40.73,0,0,0,122.35,0C107.3,0,96.71,8,96.62,19.45c-.09,8.48,7.57,13.2,13.34,16,5.93,2.88,7.91,4.73,7.89,7.32,0,3.94-4.72,5.68-9.11,5.75A31.87,31.87,0,0,1,93.1,44.82l-2.75,12.9c3.55,1.63,10.11,3,16.92,3.13,16,0,26.45-7.89,26.5-20.14M173.5,59.92h14.09L175.3,1.08h-13a6.91,6.91,0,0,0-6.48,4.32L133,59.92h16l3.18-8.8h19.52Zm-17-20.85,8-22.09,4.61,22.09Zm-64-38L79.88,59.92H64.66L77.25,1.08Z"/></g></svg>