<svg width="36" height="36" viewBox="0 0 36 36" xmlns="http://www.w3.org/2000/svg"><title>1BA579AA-EB98-4DCE-8C7B-D4E1E773E616</title><path d="M14.922 24.995h5.417v-6.367h-5.417v6.367zm-1.804-7.268c0-.499.411-.903.898-.903h7.228a.9.9 0 0 1 .899.903v8.169a.906.906 0 0 1-.899.903h-7.228a.9.9 0 0 1-.898-.903v-8.17zM9.51 28.574h16.275V15.02H9.51v13.554zm-1.804-14.46c0-.496.397-.898.906-.898h18.07c.501 0 .907.407.907.899v15.364a.897.897 0 0 1-.906.899H8.612a.906.906 0 0 1-.906-.899V14.115zm.178-2.702l-.616 1.829h20.509l-.793-1.911a.899.899 0 0 1-.376.082H7.884zm.607-1.804h17.78l-.748-1.804H9.099L8.49 9.608zm-.975-2.757C7.674 6.38 8.198 6 8.703 6h17.125c.497 0 1.051.366 1.246.835l3.057 7.375c.192.461-.058.835-.554.835H5.657c-.497 0-.769-.389-.613-.851L7.516 6.85z" fill-rule="nonzero" /></svg>