<svg width="36" height="36" viewBox="0 0 36 36" xmlns="http://www.w3.org/2000/svg"><title>C0F878A9-8DC0-47D3-B49E-56D911621C81</title><path d="M15.49 18.985c-.058-2.781.372-3.33 2.781-4.757a.791.791 0 0 1 .09-.046c-.109-2.438-.09-3.232.096-3.853.266-.882.96-1.596 1.779-1.583.993.015 1.578.964 1.762 2.543.097.83.261 1.743.453 2.61.528-.006 1.1.119 1.666.437.61.343.959.717 2.188 2.185.313.375.515.61.72.835.126.138.244.261.357.372 1.125 1.11 1.315 1.76 1.223 3.38-.112 1.965-.061 3.867.185 4.25.619.964-.812 2.29-2.991 3.644-2.289 1.421-4.09 1.937-4.723.529-.393-.872-.895-1.283-2.159-1.926-.796-.405-.647-.329-.886-.46-1.427-.788-4.227-3.184-4.654-4.025-.396-.78-1.488-2.213-1.92-2.45-.822-.45-.871-1.528-.205-2.174.632-.614 1.677-.69 2.87-.195.603.251 1.034.464 1.368.684zm1.428 1.42c.389.285.85.513 1.163.534.311.021.485-.209.485-1.297 0-.802-.028-1.711-.084-2.933-.01-.231-.022-.461-.037-.76-1.509.922-1.476 1.18-1.355 3.93a.781.781 0 0 1-.172.526zm-8.1 3.642v1.8h1.811c.374-.002.792.523.794.897.002.373-.42.902-.794.904H7.68A.676.676 0 0 1 7 26.96v-2.883c.006-.374.537-.742.91-.736.374.006.915.332.909.706zM26.749 9.6v-1.8h-1.81c-.374.002-.792-.523-.794-.897-.002-.373.42-.902.794-.904h2.95a.676.676 0 0 1 .68.687v2.884c-.007.374-.538.742-.911.736-.374-.006-.914-.332-.908-.706zm-3.267 7.98a.716.716 0 1 1-.894 1.12c-.786-.627-1.756-4.065-2.09-6.943-.104-.894-.283-1.182-.297-1.183-.03 0-.228.203-.32.506-.138.459-.12 1.541.038 4.712l.046.955c.055 1.197.083 2.091.083 2.89 0 1.79-.739 2.765-1.996 2.68-.731-.049-1.517-.476-2.135-.994a2.624 2.624 0 0 1-.5-.558l-.031-.044c-.29-.418-.538-.61-1.602-1.052-.56-.232-.935-.25-1.127-.166.739.543 1.779 1.934 2.237 2.836.255.503 2.752 2.64 3.898 3.272.208.114.071.044.81.42 1.483.755 2.192 1.334 2.737 2.545.013.029 1.116-.287 2.487-1.139.711-.442 1.398-.955 1.872-1.394.179-.166.318-.313.408-.428-.347-.884-.371-2.546-.252-4.646.068-1.184.002-1.41-.753-2.155a10.875 10.875 0 0 1-.396-.413 25.39 25.39 0 0 1-.734-.85c-1.022-1.22-1.35-1.573-1.71-1.775a1.858 1.858 0 0 0-.542-.203c.295 1.068.59 1.87.763 2.008z" fill-rule="nonzero" /></svg>