<?xml version="1.0" encoding="utf-8"?>
<!-- Generated by IcoMoon.io -->
<!DOCTYPE svg PUBLIC "-//W3C//DTD SVG 1.1//EN" "http://www.w3.org/Graphics/SVG/1.1/DTD/svg11.dtd">
<svg version="1.1" xmlns="http://www.w3.org/2000/svg" xmlns:xlink="http://www.w3.org/1999/xlink" width="32" height="32" viewBox="0 0 32 32">
<path  d="M18.625 15.013h-5.509c-0.229 0-0.413 0.184-0.413 0.413v6.061c0 0.229 0.184 0.414 0.413 0.414h5.509c0.228 0 0.414-0.186 0.414-0.414v-6.061c0-0.229-0.186-0.413-0.413-0.413zM18.212 21.074h-4.683v-5.234h4.683v5.234z"></path>
<path  d="M24.571 11.485l-2.187-4.039c-0.092-0.196-0.281-0.317-0.487-0.317h-12.458c-0.22 0-0.415 0.133-0.496 0.339l-1.85 4.057c-0.021 0.054-0.033 0.119-0.033 0.185 0 1.042 0.545 1.584 1.767 1.759l0.137 0.020v10.423c0 0.293 0.239 0.532 0.532 0.532h12.687c0.142 0 0.276-0.055 0.377-0.156s0.155-0.234 0.155-0.376v-10.425l0.137-0.020c1.221-0.177 1.767-0.719 1.767-1.757 0-0.076-0.017-0.154-0.049-0.224zM9.763 8.295l0.040-0.102h11.652c0.124 0 0.199 0.038 0.551 0.892l0.081 0.195h-12.793l0.112-0.21c0.14-0.262 0.253-0.508 0.358-0.776zM21.652 23.38h-11.623v-9.846h11.623v9.846zM22.965 12.191c-0.175 0.112-3.778 0.158-7.351 0.158-3.19 0-6.355-0.037-7.034-0.097-0.108-0.010-0.199-0.065-0.255-0.155-0.133-0.213-0.073-0.615 0.194-1.302 0.139-0.357 0.277-0.634 0.409-0.876h13.43c0.059 0.124 0.118 0.249 0.178 0.373 0.465 0.964 0.802 1.661 0.429 1.899z"></path>
</svg>
