<?xml version="1.0" encoding="utf-8"?>
<!-- Generated by IcoMoon.io -->
<!DOCTYPE svg PUBLIC "-//W3C//DTD SVG 1.1//EN" "http://www.w3.org/Graphics/SVG/1.1/DTD/svg11.dtd">
<svg version="1.1" xmlns="http://www.w3.org/2000/svg" xmlns:xlink="http://www.w3.org/1999/xlink" width="32" height="32" viewBox="0 0 32 32">
<path d="M9.357 19.358h-2.153v-2.153c0-0.044-0.036-0.080-0.080-0.080h-0.837c-0.044 0-0.080 0.036-0.080 0.080v3.069c0 0.044 0.036 0.080 0.080 0.080h3.070c0.044 0 0.080-0.036 0.080-0.080v-0.837c0-0.044-0.036-0.080-0.080-0.080z"></path>
<path d="M25.655 23.911l-0.227-0.423c-0.162-0.302-0.549-1.218-0.402-1.819 0.207-0.908 0.849-3.937 0.444-4.759-0.025-0.050-2.74-5.010-3.977-5.045-0.125-0.003-0.297-0.041-0.462-0.077-0.246-0.054-0.504-0.106-0.658-0.069-0.195-0.414-0.441-0.779-0.756-1.12-1.241-1.019-3.867-1.577-5.336-1.647-1.295-0.054-2.036 0.566-2.095 1.18-0.107 1.083 1.458 1.648 2.393 1.986l0.063 0.023c0.745 0.269 1.392 0.533 1.74 1.004-0.485 0.163-1.090 0.506-1.421 1.229-0.279 0.606-0.536 1.634-0.713 2.444-0.085-0.094-0.168-0.188-0.249-0.279-0.197-0.221-0.335-0.405-0.457-0.567-0.268-0.357-0.446-0.593-0.938-0.82-0.333-0.154-0.71-0.236-1.089-0.236-0.443 0-0.877 0.109-1.193 0.3-0.351 0.212-0.553 0.512-0.57 0.845-0.022 0.431 0.251 1.042 0.608 1.363 0.223 0.2 0.233 0.221 0.305 0.384 0.055 0.125 0.14 0.313 0.351 0.673 0.565 1.833 5.469 6.060 6.027 6.537 0.632 0.52 0.847 1.279 0.849 1.287l0.12 0.443c0.006 0.021 0.020 0.040 0.041 0.050 0.011 0.006 0.024 0.009 0.036 0.009 0.009 0 0.019-0.002 0.028-0.005l7.494-2.778c0.021-0.008 0.039-0.025 0.047-0.047s0.007-0.045-0.004-0.066zM11.963 18.172c-0.229-0.4-0.351-0.645-0.44-0.824-0.153-0.307-0.199-0.399-0.495-0.666-0.062-0.055-0.144-0.282-0.193-0.417-0.024-0.067-0.042-0.116-0.058-0.152 0.032-0.026 0.086-0.063 0.176-0.1 0.092-0.038 0.288-0.102 0.561-0.102 0.238 0 0.465 0.049 0.673 0.146 0.32 0.148 0.431 0.305 0.615 0.566 0.108 0.152 0.241 0.342 0.454 0.581 0.804 0.903 1.563 1.757 2.4 1.757 0.14 0 0.279-0.024 0.415-0.073 1.567-0.554 1.627-1.93 1.605-4.742-0.015-1.974-1.563-2.534-2.694-2.943l-0.313-0.112c-0.682-0.242-1.326-0.471-1.302-0.716 0.011-0.414 0.355-0.561 0.646-0.561 0.033 0 0.066 0.002 0.108 0.006 1.147 0.002 3.447 0.516 4.773 1.464 0.36 0.391 0.609 0.831 0.783 1.379 0.004 0.020 0.010 0.038 0.015 0.051 0.114 0.372 0.183 0.755 0.252 1.14 0.083 0.463 0.162 0.9 0.325 1.298 0.102 0.248 0.4 0.375 0.65 0.273 0.124-0.051 0.22-0.146 0.272-0.269s0.052-0.258 0.001-0.381c-0.124-0.305-0.194-0.693-0.27-1.121-0.052-0.292-0.111-0.619-0.198-0.953 0.067 0.009 0.167 0.038 0.264 0.067 0.153 0.045 0.311 0.091 0.437 0.095 0.611 0.299 2.652 3.476 3.152 4.49 0.148 0.307-0.096 2.218-0.52 4.088-0.020 0.085-0.036 0.171-0.045 0.258l-6.458 2.443c-1.54-1.328-5.188-4.67-5.59-5.968zM24.029 22.4c0.054 0.378 0.167 0.742 0.284 1.041l-5.654 2.096c-0.122-0.259-0.312-0.579-0.578-0.887l5.947-2.25zM16.334 13.973c0.003 0.019 0.006 0.038 0.008 0.058 0.34 2.916 0.262 3.496-0.524 3.874-0.131 0.063-0.36-0.012-0.674-0.217 0.058-0.671 0.212-2.194 0.46-2.937 0.138-0.414 0.456-0.649 0.73-0.779z"></path>
<path d="M16.054 6.329h2.152v2.153c0 0.044 0.036 0.080 0.080 0.080h0.837c0.044 0 0.080-0.036 0.080-0.080v-3.070c0-0.044-0.036-0.080-0.080-0.080h-3.069c-0.044 0-0.080 0.036-0.080 0.080v0.837c0 0.044 0.036 0.080 0.080 0.080z"></path>
</svg>
