<svg width="36" height="36" viewBox="0 0 36 36" xmlns="http://www.w3.org/2000/svg"><title>F393BA8F-94AD-4EAC-AD9B-39653105F1C8</title><path d="M26.746 26.492v-1.804h1.803v-7.96H7.804v7.96h1.804v1.804h-2.7A.91.91 0 0 1 6 25.584V15.83c0-.5.402-.907.896-.907H9.61l.01-2.469c0-.04.002-.083.006-.126a.883.883 0 0 1 .223-.8c.11-.239.25-.458.404-.615l5.183-5.272c.198-.201.505-.38.826-.498a.877.877 0 0 1 .594-.137c.041-.003.081-.005.12-.005h8.858c.503 0 .91.403.91.9v9.022h2.713c.494 0 .895.411.895.907v9.753a.907.907 0 0 1-.897.908h-2.71zM11.423 13.046l-.008 1.878h13.527V6.806h-7.288v5.338a.902.902 0 0 1-.902.902h-5.33zm4.427-1.804V8.081l-3.162 3.161h3.162zm-6.242 11.8c0-.499.407-.902.897-.902H25.85c.495 0 .897.408.897.901v5.798a.903.903 0 0 1-.897.901H10.505a.903.903 0 0 1-.897-.901V23.04zm1.804 4.894h13.53v-3.992h-13.53v3.992zm3.608-7.6a.902.902 0 0 1 0-1.804h6.727a.902.902 0 0 1 0 1.804H15.02z" fill-rule="nonzero" /></svg>