<?xml version="1.0" encoding="utf-8"?>
<!-- Generated by IcoMoon.io -->
<!DOCTYPE svg PUBLIC "-//W3C//DTD SVG 1.1//EN" "http://www.w3.org/Graphics/SVG/1.1/DTD/svg11.dtd">
<svg version="1.1" xmlns="http://www.w3.org/2000/svg" xmlns:xlink="http://www.w3.org/1999/xlink" width="32" height="32" viewBox="0 0 32 32">
<path  d="M26 8.156h-11.849v9.984h11.849v-9.984zM24.772 16.672c0 0.132-0.108 0.24-0.24 0.24h-8.915c-0.132 0-0.24-0.108-0.24-0.24v-7.049c0-0.132 0.108-0.24 0.24-0.24h8.915c0.132 0 0.24 0.108 0.24 0.24v7.049z"></path>
<path  d="M19.258 19.645h-4.681c-0.338 0-0.613 0.275-0.613 0.613s0.275 0.614 0.613 0.614h4.681c0.339 0 0.614-0.275 0.614-0.614s-0.275-0.613-0.613-0.613z"></path>
<path  d="M22.915 19.492c-1.065 0-1.931 0.867-1.931 1.933s0.866 1.933 1.931 1.933c1.066 0 1.933-0.867 1.933-1.933s-0.867-1.933-1.933-1.933zM22.915 22.376c-0.524 0-0.949-0.427-0.949-0.951s0.426-0.951 0.949-0.951c0.524 0 0.951 0.427 0.951 0.951s-0.427 0.951-0.951 0.951z"></path>
<path  d="M12.547 18.459v-6.926h-4.311l-2.355 4.618v4.722h1.961c0.265-1.581 1.628-2.749 3.255-2.749 0.506 0 1 0.115 1.45 0.335zM7.537 18.619c-0.046 0.059-0.116 0.092-0.188 0.092-0.026 0-0.053-0.004-0.079-0.013-0.097-0.033-0.161-0.125-0.161-0.227v-1.966c0-0.038 0.009-0.075 0.026-0.109l1.787-3.503c0.041-0.080 0.124-0.131 0.214-0.131h1.944c0.132 0 0.24 0.108 0.24 0.24v3.656c0 0.132-0.107 0.24-0.239 0.24-1.394 0.005-2.685 0.632-3.544 1.722z"></path>
<path  d="M11.097 19.492c-1.065 0-1.931 0.867-1.931 1.933s0.867 1.933 1.931 1.933c1.066 0 1.932-0.867 1.932-1.933s-0.867-1.933-1.932-1.933zM11.097 22.376c-0.524 0-0.949-0.427-0.949-0.951s0.426-0.951 0.949-0.951c0.524 0 0.951 0.427 0.951 0.951s-0.427 0.951-0.951 0.951z"></path>
</svg>
