<svg width="36" height="36" viewBox="0 0 36 36" xmlns="http://www.w3.org/2000/svg"><title>D3A50CCD-4257-4AD7-A291-4F318992F88C</title><path d="M8.804 10.712v15.322c0 .509.398.908.894.908h17.154a.904.904 0 0 0 .894-.908V10.712a.895.895 0 0 0-.894-.908H9.698a.904.904 0 0 0-.894.908zm-1.804 0A2.708 2.708 0 0 1 9.698 8h17.154a2.7 2.7 0 0 1 2.698 2.712v15.322a2.708 2.708 0 0 1-2.698 2.712H9.698A2.7 2.7 0 0 1 7 26.034V10.712zm20.746 11.72v-3.608h-3.61c-.494 0-.9.406-.9.903v1.801c0 .502.401.904.9.904h3.61zm-6.314-2.705a2.709 2.709 0 0 1 2.703-2.707h5.415v7.216h-5.415a2.703 2.703 0 0 1-2.703-2.708v-1.8zM8.804 15.21v10.838c0 .488.406.895.894.895h17.154c.491 0 .894-.403.894-.895V15.209a.902.902 0 0 0-.894-.895H9.698a.897.897 0 0 0-.894.895zM7 15.21c0-1.49 1.212-2.699 2.698-2.699h17.154c1.49 0 2.698 1.22 2.698 2.7v10.837c0 1.49-1.213 2.699-2.698 2.699H9.698A2.706 2.706 0 0 1 7 26.046V15.21z" fill-rule="nonzero" /></svg>