<?xml version="1.0" encoding="utf-8"?>
<!-- Generated by IcoMoon.io -->
<!DOCTYPE svg PUBLIC "-//W3C//DTD SVG 1.1//EN" "http://www.w3.org/Graphics/SVG/1.1/DTD/svg11.dtd">
<svg version="1.1" xmlns="http://www.w3.org/2000/svg" xmlns:xlink="http://www.w3.org/1999/xlink" width="32" height="32" viewBox="0 0 32 32">
<path d="M22.941 8.057h-14.203c-0.902 0-1.636 0.689-1.636 1.537v12.383c0 0.848 0.734 1.539 1.636 1.539h14.203c0.903 0 1.637-0.69 1.637-1.539v-12.383c0-0.847-0.734-1.537-1.637-1.537zM23.428 18.732h-3.322c-0.24 0-0.436-0.189-0.436-0.42v-1.447c0-0.232 0.195-0.42 0.436-0.42h3.322v2.288zM23.428 15.374h-3.322c-0.874 0-1.586 0.668-1.586 1.49v1.447c0 0.821 0.712 1.49 1.586 1.49h3.322v2.176c0 0.259-0.219 0.469-0.487 0.469h-14.204c-0.268 0-0.486-0.211-0.486-0.469v-8.78c0-0.258 0.218-0.468 0.486-0.468h14.203c0.269 0 0.487 0.21 0.487 0.468v2.177zM23.428 10.136h-13.58c-0.114 0-0.207 0.084-0.207 0.187s0.093 0.187 0.207 0.187h13.58v1.209l-0.188-0.033c-0.103-0.018-0.204-0.027-0.3-0.027h-14.203c-0.096 0-0.194 0.009-0.299 0.027l-0.188 0.033v-2.125c0-0.258 0.218-0.468 0.486-0.468h14.203c0.269 0 0.487 0.21 0.487 0.468v0.543z"></path>
</svg>
