<?xml version="1.0" encoding="utf-8"?>
<!-- Generated by IcoMoon.io -->
<!DOCTYPE svg PUBLIC "-//W3C//DTD SVG 1.1//EN" "http://www.w3.org/Graphics/SVG/1.1/DTD/svg11.dtd">
<svg version="1.1" xmlns="http://www.w3.org/2000/svg" xmlns:xlink="http://www.w3.org/1999/xlink" width="46" height="32" viewBox="0 0 46 32">
<path fill="#fff" d="M0.945 7.97h44.28v15.882h-44.28v-15.882z"></path>
<path fill="#0877b3" d="M45.225 4.841c0-2.303-1.889-4.192-4.192-4.192h-35.897c-2.303-0.059-4.192 1.83-4.192 4.192v3.129h44.28v-3.129z"></path>
<path fill="#f4c33f" d="M0.945 27.041c0 2.303 1.889 4.192 4.192 4.192h35.838c2.303 0 4.192-1.889 4.192-4.192v-3.129h-44.28v3.129z"></path>
<path fill="#0877b3" d="M16.531 20.723l2.893-9.565h2.598l-2.893 9.565z"></path>
<path fill="#0877b3" d="M15.351 11.159l-2.303 4.074c-0.59 1.063-0.945 1.594-1.122 2.244h-0.059c0.059-0.827-0.059-1.889-0.059-2.48l-0.236-3.838h-4.369l-0.059 0.236c1.122 0 1.771 0.59 1.948 1.712l0.827 7.616h2.657l5.432-9.565h-2.657z"></path>
<path fill="#0877b3" d="M35.483 20.723l-0.059-1.417h-3.247l-0.649 1.417h-2.834l5.078-9.565h3.424l0.886 9.565h-2.598zM35.188 15.055c0-0.709-0.059-1.653 0-2.244h-0.059c-0.177 0.472-0.827 1.889-1.122 2.598l-0.945 2.125h2.244l-0.118-2.48z"></path>
<path fill="#0877b3" d="M24.738 21.018c-1.83 0-3.070-0.59-3.897-1.122l1.24-1.889c0.768 0.413 1.417 0.945 2.775 0.945 0.472 0 0.886-0.118 1.122-0.531 0.354-0.649-0.059-0.945-1.122-1.535l-0.472-0.354c-1.476-1.004-2.125-2.007-1.417-3.72 0.472-1.063 1.653-1.889 3.601-1.889 1.358 0 2.598 0.59 3.365 1.181l-1.417 1.653c-0.709-0.59-1.299-0.886-2.007-0.886-0.531 0-0.945 0.236-1.122 0.472-0.295 0.531 0.059 0.886 0.886 1.417l0.59 0.354c1.83 1.122 2.244 2.362 1.771 3.483-0.768 1.948-2.303 2.421-3.897 2.421v0z"></path>
</svg>
