<?xml version="1.0" encoding="utf-8"?>
<!-- Generated by IcoMoon.io -->
<!DOCTYPE svg PUBLIC "-//W3C//DTD SVG 1.1//EN" "http://www.w3.org/Graphics/SVG/1.1/DTD/svg11.dtd">
<svg version="1.1" xmlns="http://www.w3.org/2000/svg" xmlns:xlink="http://www.w3.org/1999/xlink" width="46" height="32" viewBox="0 0 46 32">
<path fill="#fff" d="M41.269 17.948v-0.236h-3.601c-0.059 0-0.649 0-1.24 0.236v-0.236h-6.317v0.236c-0.59-0.236-1.122-0.236-1.358-0.236h-4.31v0.177c-0.531-0.177-1.063-0.177-1.24-0.177h-4.782c0 0-0.709 0.768-1.122 1.24-0.413-0.472-1.122-1.24-1.122-1.24h-6.494v7.439h6.553c0 0 0.649-0.709 1.004-1.122 0.354 0.413 1.004 1.122 1.004 1.122h4.015c0 0 0-1.417 0-1.712 0.118 0 0.354 0 0.354 0 0.59 0 1.24-0.059 1.83-0.295v2.007h3.424c0 0 0-1.476 0-1.889 0.059 0 0.177 0 0.236 0 0 0.118 0 0.886 0 0.886v1.004h10.391c0.059 0 0.177 0 0.177 0 0.413 0 0.827-0.059 1.24-0.236v0.236h3.483c0.059 0 0.177 0 0.177 0 0.531 0 1.122-0.118 1.594-0.413v-7.026h-2.657c-0.118 0-0.649-0.059-1.24 0.236z"></path>
<path fill="#fff" d="M2.952 16c0 0 0.354-0.886 0.472-1.122 0.472 0 0.708 0 1.181 0 0.118 0.236 0.472 1.122 0.472 1.122h4.369v-0.118c0 0.059 0.059 0.118 0.059 0.118h2.421c0 0 0.059-0.059 0.059-0.118v0.118h10.509c0 0 0-1.476 0-1.889 0.059 0 0.177 0 0.236 0 0 0.118 0 0.886 0 0.886v1.004h5.432v-0.472c0.413 0.236 0.827 0.413 1.181 0.472h2.952c0 0 0.354-0.886 0.472-1.122 0.472 0 0.709 0 1.181 0 0.118 0.236 0.472 1.122 0.472 1.122h4.369c0 0 0-0.886 0-0.945 0.059 0.118 0.59 0.945 0.59 0.945h3.483v-7.439h-3.424c0 0 0 0.768 0 0.945-0.059-0.118-0.531-0.945-0.531-0.945h-3.542c0 0 0 0.649 0 0.886l-0.354-0.886h-3.247c-0.059 0-1.889-0.059-1.889-0.059-0.59 0-1.122 0.177-1.653 0.472v-0.472h-3.424v0.236c-0.59-0.236-1.122-0.236-1.358-0.236h-11.867c0 0-0.59 1.299-0.827 1.889-0.295-0.59-0.827-1.889-0.827-1.889h-3.838c0 0 0 0.827 0 0.945 0-0.059-0.413-0.945-0.413-0.945h-3.306l-1.535 3.601v3.838l2.125 0.059z"></path>
<path fill="#2376a5" d="M43.454 25.151c0 0-0.059 0-0.177 0h-3.483v-0.236c-0.413 0.177-0.827 0.236-1.24 0.236 0 0-0.059 0-0.177 0h-10.391v-1.004c0 0 0-0.709 0-0.886 0 0-0.118 0-0.236 0 0 0.413 0 1.889 0 1.889h-3.424v-2.007c-0.59 0.236-1.181 0.295-1.83 0.295 0 0-0.236 0-0.354 0 0 0.354 0 1.712 0 1.712h-3.838c0 0-0.649-0.709-1.004-1.122-0.354 0.413-1.004 1.122-1.004 1.122h-6.613v-7.439h6.435c0 0 0.709 0.768 1.122 1.24 0.413-0.472 1.122-1.24 1.122-1.24h4.9c0.177 0 0.709 0 1.24 0.177v-0.177h4.31c0.236 0 0.768 0 1.358 0.236v-0.236h6.317v0.236c0.59-0.236 1.122-0.236 1.24-0.236h3.601v0.236c0.59-0.236 1.181-0.236 1.24-0.236h2.598v-13.225c-0.236-2.184-2.066-3.897-4.251-3.897h-35.897c-2.184 0-3.956 1.712-4.133 3.897v7.675l1.476-3.601h3.306c0 0 0.354 0.886 0.413 0.945 0-0.118 0-0.945 0-0.945h3.838c0 0 0.59 1.299 0.827 1.889 0.295-0.59 0.827-1.889 0.827-1.889h11.926c0.236 0 0.768 0 1.358 0.236v-0.236h3.424v0.472c0.531-0.295 1.063-0.472 1.653-0.472 0 0 1.83 0.059 1.889 0.059v0h3.247c0 0 0.354 0.827 0.354 0.886 0-0.236 0-0.886 0-0.886h3.542c0 0 0.531 0.827 0.531 0.945 0-0.177 0-0.945 0-0.945h3.424v7.439h-3.483c0 0-0.531-0.886-0.59-0.945 0 0.059 0 0.945 0 0.945h-4.369c0 0-0.354-0.886-0.472-1.122-0.472 0-0.709 0-1.181 0-0.118 0.236-0.472 1.122-0.472 1.122h-2.952c-0.295-0.059-0.768-0.177-1.181-0.472v0.472h-5.432v-1.004c0 0 0-0.709 0-0.886 0 0-0.118 0-0.236 0 0 0.413 0 1.889 0 1.889h-10.509v-0.118c0 0.059-0.059 0.118-0.059 0.118h-2.421c0 0-0.059-0.059-0.059-0.118 0 0.059 0 0.118 0 0.118h-4.428c0 0-0.354-0.886-0.472-1.122-0.472 0-0.708 0-1.181 0-0.118 0.177-0.472 1.063-0.472 1.063h-2.066v11.395c0.177 2.184 1.948 3.897 4.192 3.897h35.838c2.244 0 4.015-1.712 4.192-3.897v-2.657c-0.531 0.236-1.122 0.413-1.653 0.413z"></path>
<path fill="#2376a5" d="M23.793 14.937v-1.063c0 0-0.059-0.827-0.886-0.827h-1.358v1.889h-1.358v-5.432h3.306c0 0 1.712-0.236 1.712 1.594 0 0.945-0.768 1.24-0.768 1.24s0.649 0.295 0.649 1.24v1.358h-1.299zM21.55 11.808h1.417c0.413 0 0.768-0.236 0.768-0.531s-0.354-0.531-0.768-0.531h-1.417v1.063z"></path>
<path fill="#2376a5" d="M40.030 14.937l-2.184-3.601v3.601h-2.716l-0.472-1.122h-2.48l-0.472 1.122h-2.184c0 0-1.83-0.236-1.83-2.539 0-3.011 2.125-2.893 2.184-2.893l1.712 0.059v1.24h-1.417c0 0-0.886 0-1.004 1.181 0 0.118 0 0.236 0 0.354 0 1.83 1.594 1.24 1.653 1.24l1.712-4.015h1.948l2.066 4.9v-4.9h1.83l2.125 3.542v-3.542h1.417v5.432l-1.889-0.059zM32.768 12.458h1.358l-0.649-1.594-0.709 1.594z"></path>
<path fill="#2376a5" d="M13.048 14.937v-3.72l-1.712 3.72h-1.122l-1.771-3.72v3.72h-2.657l-0.472-1.122h-2.539l-0.472 1.122h-1.535l2.303-5.432h1.948l2.066 4.959v-4.959h2.185l1.535 3.365 1.476-3.365h2.184v5.432h-1.417zM3.365 12.458h1.358l-0.649-1.594-0.708 1.594z"></path>
<path fill="#2376a5" d="M15.173 14.937v-5.373h4.31v1.24h-2.893v0.827h2.834v1.24h-2.834v0.945h2.893v1.122h-4.31z"></path>
<path fill="#2376a5" d="M25.86 14.996v-5.432h1.358v5.432h-1.358z"></path>
<path fill="#2376a5" d="M29.107 24.148v-1.063c0 0-0.059-0.827-0.945-0.827h-1.358v1.889h-1.358v-5.432h3.306c0 0 1.712-0.236 1.712 1.594 0 0.945-0.768 1.24-0.768 1.24s0.649 0.295 0.649 1.24v1.358h-1.24zM26.863 20.959h1.417c0.413 0 0.768-0.236 0.768-0.531s-0.354-0.531-0.768-0.531h-1.417v1.063z"></path>
<path fill="#2376a5" d="M19.956 24.148h-1.181l-1.476-1.594-1.476 1.594h-5.078v-5.432h4.959l1.594 1.712 1.594-1.712h4.369c0 0 1.712-0.177 1.712 1.594 0 1.594-0.59 2.066-2.362 2.066h-1.358v1.712l-1.299 0.059zM18.244 21.432l1.712 1.889v-3.779l-1.712 1.889zM12.103 22.967h2.893l1.358-1.476-1.358-1.476h-2.893v0.827h2.834v1.24h-2.834v0.886zM21.314 20.959h1.417c0.413 0 0.768-0.236 0.768-0.531s-0.354-0.531-0.768-0.531h-1.417v1.063z"></path>
<path fill="#2376a5" d="M38.494 24.089h-2.48v-1.24h2.125c0 0 0.768 0.118 0.768-0.413 0-0.472-1.181-0.472-1.181-0.472s-1.889 0.177-1.889-1.594 1.712-1.653 1.712-1.653h2.657v1.24h-2.125c0 0-0.709-0.118-0.709 0.413 0 0.472 1.004 0.413 1.004 0.413s2.066-0.177 2.066 1.476c0 1.771-1.358 1.889-1.83 1.889-0.059 0-0.118-0.059-0.118-0.059z"></path>
<path fill="#2376a5" d="M31.114 24.148v-5.432h4.31v1.24h-2.893v0.827h2.834v1.24h-2.834v0.945h2.893v1.181h-4.31z"></path>
<path fill="#2376a5" d="M43.336 24.089h-2.421v-1.24h2.125c0 0 0.768 0.118 0.768-0.413 0-0.472-1.181-0.472-1.181-0.472s-1.889 0.177-1.889-1.594 1.712-1.653 1.712-1.653h2.598v1.24h-2.125c0 0-0.709-0.118-0.709 0.413 0 0.472 1.004 0.413 1.004 0.413s2.125-0.177 2.125 1.476c0 1.771-1.358 1.889-1.83 1.889-0.118 0-0.177-0.059-0.177-0.059z"></path>
</svg>
