<?xml version="1.0" encoding="utf-8"?>
<!-- Generated by IcoMoon.io -->
<!DOCTYPE svg PUBLIC "-//W3C//DTD SVG 1.1//EN" "http://www.w3.org/Graphics/SVG/1.1/DTD/svg11.dtd">
<svg version="1.1" xmlns="http://www.w3.org/2000/svg" xmlns:xlink="http://www.w3.org/1999/xlink" width="46" height="32" viewBox="0 0 46 32">
<path fill="#0f0c16" stroke-linejoin="miter" stroke-linecap="butt" stroke-miterlimit="22.925600051879883" stroke-width="0.5904" stroke="#000" d="M45.225 27.041c0 2.303-1.889 4.192-4.192 4.192h-35.897c-2.303 0-4.192-1.889-4.192-4.192v-22.199c0-2.362 1.889-4.251 4.192-4.251h35.838c2.303 0 4.192 1.889 4.192 4.192l0.059 22.258z"></path>
<path fill="#fff" d="M14.76 11.277c-3.247 0-5.904 2.598-5.904 5.904 0 1.181 0.354 2.303 1.004 3.247l5.845-2.539 2.421-1.063 2.362-1.063c-0.59-2.539-2.952-4.487-5.727-4.487zM11.395 17.476c0-0.118 0-0.177 0-0.295 0-1.889 1.535-3.365 3.365-3.365 1.004-0.059 1.889 0.413 2.539 1.122l-5.904 2.539z"></path>
<path fill="#fff" d="M18.893 21.373c-2.125 2.007-4.9 2.184-7.38 0.709l1.417-2.125c1.417 0.827 2.775 0.709 4.192-0.413l1.771 1.83z"></path>
<path fill="#fff" d="M21.314 19.897v-11.159h2.125v10.863c0 0.118 0 0.177 0.177 0.236l1.83 0.709-0.827 2.184-2.244-0.886c-0.827-0.354-1.063-0.886-1.063-1.948v0z"></path>
<path fill="#049dd7" d="M29.284 19.72c-0.768-0.59-1.299-1.594-1.299-2.657 0-0.945 0.413-1.83 1.063-2.421l-1.417-2.244c-1.358 1.063-2.244 2.775-2.244 4.664 0 2.007 1.004 3.838 2.598 4.9l1.299-2.244z"></path>
<path fill="#fcee23" d="M30.17 13.875c0.354-0.118 0.768-0.177 1.122-0.177 1.417 0 2.657 0.886 3.129 2.184l2.598-0.236c-0.649-2.598-2.952-4.546-5.786-4.546-0.768 0-1.535 0.177-2.244 0.413l1.181 2.362z"></path>
<path fill="#e13726" d="M34.657 17.24c-0.059 1.771-1.535 3.188-3.365 3.188-0.295 0-0.531-0.059-0.827-0.118l-1.004 2.362c0.59 0.177 1.181 0.295 1.83 0.295 3.188 0 5.786-2.539 5.904-5.668l-2.539-0.059z"></path>
</svg>
