<?xml version="1.0" encoding="utf-8"?>
<!-- Generator: Adobe Illustrator 20.0.0, SVG Export Plug-In . SVG Version: 6.00 Build 0)  -->
<svg version="1.1" id="Layer_2" xmlns="http://www.w3.org/2000/svg" xmlns:xlink="http://www.w3.org/1999/xlink" x="0px" y="0px"
	 viewBox="0 0 83.3 23.3" style="enable-background:new 0 0 83.3 23.3;" xml:space="preserve">
<g id="Layer_2_1_">
	<g id="Layer_1_2_">
		<g>
			<g>
				<g>
					<g>
						<path class="st" d="M56.7,0.9h-6.4c-0.4,0-0.8,0.3-0.9,0.7l-2.6,16.3c-0.1,0.3,0.2,0.6,0.5,0.6h3.3c0.3,0,0.6-0.2,0.6-0.5
							l0.7-4.6c0.1-0.4,0.4-0.7,0.9-0.7h2c4.2,0,6.6-2,7.2-6.1c0.3-1.8,0-3.1-0.8-4.1C60.4,1.4,58.8,0.9,56.7,0.9z M57.4,6.8
							c-0.3,2.3-2.1,2.3-3.8,2.3h-1l0.7-4.3c0-0.3,0.3-0.4,0.5-0.4h0.4c1.1,0,2.2,0,2.8,0.7C57.5,5.4,57.6,6,57.4,6.8z"/>
						<path class="st" d="M11.3,0.9H4.9c-0.4,0-0.8,0.3-0.9,0.7L1.5,17.9c-0.1,0.3,0.2,0.6,0.5,0.6h3c0.4,0,0.8-0.3,0.9-0.7
							l0.7-4.4c0.1-0.4,0.4-0.7,0.9-0.7h2c4.2,0,6.6-2,7.2-6.1c0.3-1.8,0-3.1-0.8-4.1C15,1.4,13.4,0.9,11.3,0.9z M12,6.8
							c-0.3,2.3-2.1,2.3-3.8,2.3h-1L8,4.8c0-0.3,0.3-0.4,0.5-0.4h0.4c1.1,0,2.2,0,2.8,0.7C12.1,5.4,12.2,6,12,6.8z"/>
						<path class="st" d="M30.3,6.7h-3c-0.3,0-0.5,0.2-0.5,0.4L26.6,8l-0.2-0.3c-0.7-1-2.1-1.3-3.6-1.3c-3.4,0-6.2,2.6-6.8,6.1
							c-0.3,1.8,0.1,3.5,1.1,4.7c0.9,1.1,2.3,1.5,3.8,1.5c2.7,0,4.2-1.7,4.2-1.7l-0.1,0.8c-0.1,0.3,0.2,0.6,0.5,0.6h2.7
							c0.4,0,0.8-0.3,0.9-0.7l1.6-10.4C30.9,7,30.7,6.7,30.3,6.7z M26.1,12.7c-0.3,1.7-1.7,2.9-3.4,2.9c-0.9,0-1.6-0.3-2-0.8
							c-0.5-0.5-0.6-1.3-0.5-2.1c0.3-1.7,1.7-2.9,3.4-2.9c0.9,0,1.6,0.3,2,0.8C26,11.1,26.2,11.8,26.1,12.7z"/>
						<path class="st" d="M75.7,6.7h-3c-0.3,0-0.5,0.2-0.5,0.4L72,8l-0.2-0.3c-0.7-1-2.1-1.3-3.6-1.3c-3.4,0-6.2,2.6-6.8,6.1
							c-0.3,1.8,0.1,3.5,1.1,4.7c0.9,1.1,2.3,1.5,3.8,1.5c2.7,0,4.2-1.7,4.2-1.7l-0.1,0.8c-0.1,0.3,0.2,0.6,0.5,0.6h2.7
							c0.4,0,0.8-0.3,0.9-0.7l1.6-10.4C76.3,7,76.1,6.7,75.7,6.7z M71.5,12.7c-0.3,1.7-1.7,2.9-3.4,2.9c-0.9,0-1.6-0.3-2-0.8
							c-0.5-0.5-0.6-1.3-0.5-2.1c0.3-1.7,1.7-2.9,3.4-2.9c0.9,0,1.6,0.3,2,0.8C71.4,11.1,71.6,11.8,71.5,12.7z"/>
						<path class="st" d="M46.6,6.7h-3.1c-0.3,0-0.6,0.1-0.7,0.4l-4.2,6.2l-1.8-6c-0.1-0.4-0.5-0.6-0.8-0.6h-3
							c-0.4,0-0.6,0.4-0.5,0.7l3.4,9.9l-3.2,4.5c-0.2,0.4,0,0.8,0.4,0.8h3.1c0.3,0,0.6-0.1,0.7-0.4L47,7.6C47.2,7.2,47,6.7,46.6,6.7
							z"/>
						<path class="st" d="M79.3,1.3l-2.6,16.6c-0.1,0.3,0.2,0.6,0.5,0.6h2.6c0.4,0,0.8-0.3,0.9-0.7l2.6-16.3
							c0.1-0.3-0.2-0.6-0.5-0.6h-2.9C79.6,0.9,79.4,1.1,79.3,1.3z"/>
					</g>
				</g>
			</g>
		</g>
	</g>
</g>
</svg>
