<svg width="210" height="210" viewBox="0 0 210 210" xmlns="http://www.w3.org/2000/svg" xmlns:xlink="http://www.w3.org/1999/xlink"><title>F4F5CB75-BB9C-4F60-BBDA-C62522AD7E80</title><defs><path id="a" d="M.046.189h2v30.265h-2V.19z"/></defs><g fill="none" fill-rule="evenodd"><path d="M125.033 122.048l19.024-64.946a20.222 20.222 0 0 0-4.795-4.096l-18.147 62.849 3.918 6.193zM117.322 128.994l-6.425 22.25h5.584l6.518-22.25z" fill="#FF7300"/><path d="M128.844 50.03h-.573c1.884.073 3.723.248 5.468.636a19.78 19.78 0 0 0-4.895-.635" fill="#F66"/><path d="M148.844 70.03l-22.29 81.214h22.29V70.03c0-2.896-.637-5.645-1.757-8.136 1.041 2.657 1.476 5.564 1.757 8.136M78.664 128.994l4.24-6.7c2.501-9.588 5.088-19.438 7.52-28.668l-11.32-18.143h15.602l.361.565c4.038-15.255 6.908-26.017 6.908-26.017H79.248c-11 0-20 9-20 20v81.213H75.42a4887.223 4887.223 0 0 1 5.74-22.25h-2.495z" fill="#FF7300"/><path d="M104.046 90.097l9.34-14.613h15.602l-16.59 26.59 8.718 13.782 18.147-62.85.006-.023c-1.67-1.158-3.539-1.874-5.53-2.317-1.745-.388-3.585-.563-5.468-.635-2.683-.103-5.454 0-8.169 0h-18.127s-2.87 10.761-6.908 26.018l8.98 14.047zM90.425 93.626a12382.28 12382.28 0 0 0-7.521 28.668l12.792-20.22-5.271-8.448zM113.495 128.994l-9.449-14.834-9.45 14.834H81.158a4887.223 4887.223 0 0 0-5.739 22.25h35.478l6.425-22.25h-3.827zM147.087 61.895c-.694-1.77-1.654-3.431-3.026-4.804l-.004.012-19.024 64.945 4.395 6.946H123l-6.518 22.25h10.072l22.291-81.213c-.28-2.572-.716-5.48-1.757-8.136" fill="#F90"/><path fill="#FFF" d="M112.397 102.074l16.592-26.59h-15.603l-9.34 14.612-8.978-14.048-.361-.565H79.104l11.32 18.143 5.272 8.448-12.792 20.22-4.24 6.7h15.932l9.45-14.834 9.45 14.834h15.932l-4.394-6.946-3.918-6.193z"/><path d="M148.844 151.244H59.25V70.031c0-11 9-20 20-20H120.101c2.714 0 5.485-.103 8.17 0h.573c1.69 0 3.322.235 4.893.635 1.991.442 3.861 1.159 5.531 2.318l-.007.022a20.2 20.2 0 0 1 4.795 4.096l.004-.012c1.372 1.374 2.332 3.034 3.026 4.805a19.78 19.78 0 0 1 1.757 8.136v81.213zm-39.667 26.495c0 4.125-3.375 7.5-7.5 7.5h-41.79c-4.125 0-7.5-3.375-7.5-7.5v-9.216c0-4.125 3.375-7.5 7.5-7.5h41.79c4.125 0 7.5 3.375 7.5 7.5v9.216zm46.062-26.495h-4.395V70.031c0-12.131-9.869-22-22-22H79.248c-12.13 0-22 9.869-22 22v81.213h-4.395c-4.4 0-8 3.6-8 8v38.567c0 4.4 3.6 8 8 8H155.24c4.4 0 8-3.6 8-8v-38.567c0-4.4-3.6-8-8-8z" fill="#262626"/><path d="M101.677 161.023h-41.79c-4.125 0-7.5 3.375-7.5 7.5v9.215c0 4.125 3.375 7.5 7.5 7.5h41.79c4.125 0 7.5-3.375 7.5-7.5v-9.215c0-4.125-3.375-7.5-7.5-7.5" fill="#3A3A3A"/><g transform="translate(103 5.811)"><mask id="b" fill="#fff"><use xlink:href="#a"/></mask><path d="M1.046 30.454a1 1 0 0 0 1-1V1.19a1 1 0 1 0-2 0v28.265a1 1 0 0 0 1 1" fill="#FF7300" mask="url(#b)"/></g><path d="M52.986 44.552a.999.999 0 0 0 .707-1.707L33.707 22.859a.999.999 0 1 0-1.414 1.414L52.28 44.259a.997.997 0 0 0 .707.293M178.679 23.615a.999.999 0 0 0-1.414 0l-19.986 19.986a.999.999 0 1 0 1.414 1.414l19.986-19.986a.999.999 0 0 0 0-1.414M78.811 34.474a1 1 0 0 0 1.904-.61l-4.43-13.827a1 1 0 1 0-1.905.611l4.432 13.827zM131.08 36.306a1.001 1.001 0 0 0 1.258-.646l4.431-13.827a.999.999 0 1 0-1.904-.611l-4.432 13.826a1 1 0 0 0 .646 1.259" fill="#FF7300"/></g></svg>