<svg width="210" height="210" viewBox="0 0 210 210" xmlns="http://www.w3.org/2000/svg" xmlns:xlink="http://www.w3.org/1999/xlink"><title>AA8BA63C-C149-453A-BD2E-7F099516342E</title><defs><path id="a" d="M.093.229h101.795v132.275H.093V.229z"/></defs><g fill="none" fill-rule="evenodd"><path d="M160.641 148.172c-.33 0-.664-.012-1.007-.042a.663.663 0 0 1-.606-.679.663.663 0 0 1 .637-.648 9.29 9.29 0 0 1 .375-.007c.34 0 .667.018.984.044.35.03.616.33.605.684a.662.662 0 0 1-.646.644c-.114.003-.227.004-.342.004" fill="#FFF"/><path d="M160.042 146.13c-.132 0-.266.003-.403.008a1.328 1.328 0 0 0-1.274 1.298 1.328 1.328 0 0 0 1.212 1.356 12.237 12.237 0 0 0 1.42.04 1.326 1.326 0 0 0 1.295-1.286 1.329 1.329 0 0 0-1.21-1.368 11.878 11.878 0 0 0-1.04-.047m0 1.33c.32 0 .626.016.925.043-.105.001-.21.003-.317.003a11 11 0 0 1-.96-.04 9.67 9.67 0 0 1 .352-.006" fill="#262626"/><path d="M85.343 167.467c3.898 1.061 45.521 0 64.083 0 17.827 0 22.202-18.81 11.559-19.877a11.847 11.847 0 0 1-1.394-.039 10.07 10.07 0 0 1 1.394.04c11.231-.372 14.072-17.502 3.025-17.502 11.492 0 14.585-18.187 2.653-18.187 11.49 0 7.512-19.18-3.536-19.18h-42.428l3.978-17.062s1.768-20.808-6.63-32.24c-2.891-3.937-5.94-5.228-8.696-5.227-5.244 0-9.423 4.677-9.423 4.677s.442 13.312 0 26.637c-3.935 12.254-22.181 31.016-26.146 34.994v57.837c3.036 1.546 8.772 4.37 11.56 5.13" fill="#FFF"/><g transform="translate(73.689 36.634)"><mask id="b" fill="#fff"><use xlink:href="#a"/></mask><path d="M95.42 93.58c4.088-2.097 6.468-6.6 6.468-10.855 0-3.45-1.462-6.11-3.958-7.562a7.052 7.052 0 0 0 1.317-1.207c1.287-1.52 1.967-3.586 1.967-5.97 0-3.05-1.16-6.343-3.104-8.81-2.247-2.849-5.326-4.418-8.672-4.418H48.682l3.597-15.429c.014-.062.025-.126.03-.19.074-.87 1.71-21.441-6.883-33.141-2.812-3.828-6.097-5.77-9.763-5.77-5.771.001-10.225 4.91-10.412 5.12-.228.256-.35.59-.338.932.005.132.431 13.297.007 26.36C21.24 43.766 5.347 60.61.093 65.975v1.892c3.965-3.977 22.211-22.74 26.146-34.994.441-13.325 0-26.637 0-26.637s4.179-4.677 9.423-4.677c2.756 0 5.805 1.29 8.697 5.228 8.397 11.432 6.63 32.24 6.63 32.24L47.01 56.087h42.428c11.05 0 15.026 19.18 3.536 19.18 11.932 0 8.839 18.187-2.652 18.187 11.046 0 8.205 17.13-3.026 17.501 10.643 1.066 6.268 19.877-11.559 19.877-18.562 0-60.185 1.06-64.083 0-2.79-.759-8.525-3.583-11.561-5.129v1.43c3.46 1.683 9.416 4.522 11.014 4.911 2.291.558 5.327.45 5.327.45l59.303-.332c12.34 0 18.305-8.377 18.601-14.326.139-2.798-.837-5.094-2.642-6.549 4.45-2.011 7.006-6.716 6.935-11.068-.04-2.394-.963-5.046-3.211-6.64" fill="#262626" mask="url(#b)"/></g><path d="M159.591 147.551a11.847 11.847 0 0 0 1.394.039 9.74 9.74 0 0 0-1.394-.039" fill="#262626"/><path d="M72.456 100.418c0-2.927-2.387-5.321-5.303-5.321H41.629c-2.916 0-5.303 2.394-5.303 5.32v66.704c0 2.926 2.387 5.32 5.303 5.32h25.524c2.916 0 5.303-2.394 5.303-5.32v-66.703z" fill="#FF7300"/><path d="M67.152 172.441H41.63c-2.918 0-5.304-2.394-5.304-5.32v-66.704c0-2.926 2.386-5.32 5.304-5.32h25.522c2.917 0 5.303 2.394 5.303 5.32v66.704c0 2.926-2.386 5.32-5.303 5.32zm6.63-10.103V100.417c0-3.667-2.975-6.65-6.63-6.65H41.63c-3.656 0-6.63 2.983-6.63 6.65v66.704c0 3.667 2.974 6.65 6.63 6.65h25.522c3.655 0 6.63-2.983 6.63-6.65v-4.783z" fill="#262626"/><path d="M85.271 167.37h64.084c17.888 0 22.226-18.934 11.44-19.88-.415.009-.838.002-1.275-.036.449-.017.87 0 1.276.036 11.327-.257 14.228-17.498 3.143-17.498 11.491 0 14.585-18.187 2.652-18.187 11.491 0 7.513-19.18-3.536-19.18h-42.427l3.977-17.062s1.768-20.808-6.629-32.24c-4.08-5.553-8.467-5.837-11.906-4.665.001.001 5.167.915 8.481 23.856 0 0 2.652 2.03-13.922 30.11-2.81 1.48 0 4.214 0 4.214h45.41c11.271 0 10.94 16.452 0 16.452 11.271 0 8.288 16.683 0 16.683 7.956 0 7.293 17.002 0 17.002 6.962 0 7.956 15.296-.662 15.296-8.617 0-69.966 1.136-71.58-14.895v-2.66l-.187 17.526 11.661 5.128z" fill="#EBEBEB"/><path d="M48.839 138.285h-1.657c-3.783 0-6.878-3.105-6.878-6.9v-25.398c0-3.795 3.095-6.9 6.878-6.9h1.657c3.782 0 6.878 3.105 6.878 6.9v25.398c0 3.795-3.096 6.9-6.878 6.9" fill="#F90"/><path d="M163.94 111.575c10.311-.831 12.375 18.566-3.314 18.123 8.44.238 11.49 11.306 1.787 17.669 10.105-1.615 12.292-17.361 1.698-17.361 11.49 0 14.584-18.187 2.651-18.187 11.49 0 7.513-19.18-3.535-19.18h-2.376c11.487-.849 16.491 17.855 3.09 18.936M162.016 147.663c-.552.37-1.151.752-1.712.587 10.045 2.95 1.833 17.859-3.977 17.859l.208.148c11.347-3.912 13.465-16.85 5.48-18.594" fill="#CECECE"/></g></svg>