<svg width="210" height="210" viewBox="0 0 210 210" xmlns="http://www.w3.org/2000/svg"><title>EFAE1B02-8A5E-45D9-A4C1-0187C71EB4CE</title><g fill="none" fill-rule="evenodd"><path d="M51.263 103.449C40.536 92.177 29.999 80.786 27.097 77.642c-.01.159-.024.317-.024.478v86.064c0 .66.086 1.3.234 1.916 2.62-3.363 27.006-34.6 38.645-47.481-3.721-3.745-8.501-8.667-14.69-15.17M145.233 102.081c-6.774 6.394-14.454 12.837-20.917 17.968 12.054 13.618 34.84 42.806 37.368 46.051a8.188 8.188 0 0 0 .235-1.917v-60.772a39.418 39.418 0 0 1-5.319.361c-3.987 0-7.81-.6-11.367-1.69" fill="#EBEBEB"/><path d="M161.92 103.412v60.772c0 .66-.088 1.3-.235 1.917l.234.3c0 3.34-2.733 6.075-6.074 6.075H33.146c-3.34 0-6.073-2.734-6.073-6.075l.234-.3a8.2 8.2 0 0 1-.234-1.917V78.12c0-.162.015-.32.024-.479l-.788-.853a1.038 1.038 0 0 1-.273-.701c0-3.922 3.19-7.112 7.11-7.112h87.33c-.01-.335-.026-.67-.026-1.008 0-.072.005-.142.006-.212H35.364C29.65 67.755 25 72.406 25 78.12v86.064c0 5.715 4.65 10.364 10.364 10.364h118.263c5.715 0 10.365-4.65 10.365-10.364v-66.43c-.682.266-1.37.517-2.073.736v4.922z" fill="#262626"/><path d="M110.17 130.42l-.086-.102c-.259.1-.416.102-.553.102H79.46c-.67 0-1.793-.012-13.507-11.801-11.64 12.88-36.024 44.118-38.646 47.482l-.234.3c0 3.34 2.733 6.074 6.074 6.074H155.845c3.34 0 6.074-2.733 6.074-6.073l-.235-.301c-2.528-3.245-25.314-32.434-37.368-46.052-7.34 5.826-13.105 9.958-14.146 10.37" fill="#CECECE"/><path d="M124.316 120.049c6.464-5.13 14.144-11.574 20.917-17.968a36.787 36.787 0 0 1-4.56-1.736c-.98 1.034-1.955 2.065-2.944 3.104-6.188 6.503-10.968 11.425-14.69 15.17-9.333 9.393-11.94 11.308-12.955 11.699l.086.102c1.042-.413 6.806-4.545 14.146-10.371" fill="#999"/><path d="M28.124 75.698c18.27 19.843 48.028 51.297 51.435 52.649h29.873c2.196-.871 15.341-14.251 29.3-28.964-7.24-3.876-12.676-10.036-14.984-17.321a31.674 31.674 0 0 1-3.146-11.013H33.146a5.044 5.044 0 0 0-5.022 4.649" fill="#FFF"/><path d="M145.233 102.081a38.733 38.733 0 0 0 11.367 1.691c1.81 0 3.585-.125 5.32-.36V98.49a31.865 31.865 0 0 1-9.504 1.442 31.84 31.84 0 0 1-9.869-1.566c-.617.653-1.25 1.32-1.875 1.978a36.633 36.633 0 0 0 4.561 1.737M138.732 99.382l1.697-1.79c-7.28-2.957-13.222-8.526-16.68-15.53 2.307 7.285 7.743 13.444 14.983 17.32" fill="#999"/><path d="M26.036 76.086c0 .26.098.51.273.701l.788.855C30 80.786 40.537 92.177 51.263 103.45c6.188 6.502 10.968 11.425 14.69 15.17 11.713 11.788 12.835 11.8 13.507 11.8h30.072c.136 0 .293-.002.552-.102 1.015-.39 3.622-2.306 12.955-11.698 3.722-3.745 8.502-8.668 14.69-15.17.99-1.04 1.963-2.07 2.943-3.105.624-.659 1.258-1.325 1.875-1.978a32.012 32.012 0 0 1-2.118-.775c-.567.6-1.132 1.196-1.697 1.791-13.958 14.714-27.104 28.093-29.3 28.965H79.56c-3.407-1.353-33.166-32.806-51.435-52.65a5.043 5.043 0 0 1 5.022-4.648h87.456a32.254 32.254 0 0 1-.126-2.073h-87.33a7.117 7.117 0 0 0-7.11 7.11" fill="#262626"/><path d="M164.019 77.124H159.4V61.767l-3.623 1.954-1.988-3.814 6.06-3.494h4.169v20.712zm-16.664-6.027v4.745h-3.688v-4.746h-4.681v-3.525h4.68v-4.779h3.689v4.78h4.68v3.524h-4.68zm5.062-33.023c-16.51 0-29.894 13.382-29.894 29.892 0 16.51 13.384 29.893 29.894 29.893 16.509 0 29.893-13.383 29.893-29.892 0-16.51-13.384-29.894-29.893-29.894z" fill="#FF7300"/><path d="M152.416 97.86c-16.51 0-29.893-13.384-29.893-29.893 0-16.51 13.383-29.893 29.893-29.893s29.894 13.383 29.894 29.893c0 16.509-13.383 29.893-29.894 29.893m0-61.86c-17.555 0-31.846 14.227-31.96 31.756 0 .07-.006.14-.006.21 0 .339.015.674.025 1.01.022.697.06 1.389.127 2.073a31.688 31.688 0 0 0 3.145 11.013c3.46 7.005 9.402 12.574 16.682 15.53a31.806 31.806 0 0 0 11.987 2.34c3.307 0 6.5-.504 9.503-1.441a31.79 31.79 0 0 0 2.072-.736c11.92-4.648 20.391-16.244 20.391-29.788 0-17.626-14.34-31.966-31.966-31.966" fill="#262626"/><path fill="#FFF" d="M152.036 67.571h-4.681v-4.779h-3.688v4.78h-4.681v3.524h4.68v4.745h3.689v-4.745h4.68zM153.79 59.906l1.987 3.816 3.624-1.956v15.358h4.618V56.412h-4.169z"/></g></svg>