<svg width="210" height="210" viewBox="0 0 210 210" xmlns="http://www.w3.org/2000/svg" xmlns:xlink="http://www.w3.org/1999/xlink"><title>E8DBB542-CB2E-4B87-9E42-10D723530A75</title><defs><path id="a" d="M150.263 151H0V.181h150.263z"/></defs><g fill="none" fill-rule="evenodd"><path d="M105.005 85.35c-7.414-.002-13.419-6.136-13.416-13.7.002-7.564 6.011-13.694 13.425-13.69 7.412.001 13.417 6.135 13.414 13.7-.002 7.563-6.014 13.692-13.423 13.69zm12.292 64.56l-18.313-.01c-3.68-.107-6.286-2.95-6.286-6.974l-.015-51.817 24.651.022-.037 58.78zm34.85-57.156c-1.973-7.392.25-15.118 5.8-20.318l-10.74-40.21L32.223 63.167l10.75 40.247c7.357 1.74 13.1 7.31 15.068 14.667 1.965 7.358-.234 15.063-5.74 20.261l10.75 40.25 114.988-30.94-10.742-40.209c-7.4-1.717-13.175-7.294-15.15-14.69z" fill="#FF7300"/><g transform="translate(30 29.819)"><mask id="b" fill="#fff"><use xlink:href="#a"/></mask><path d="M33.05 148.774l-10.75-40.25c5.508-5.198 7.707-12.903 5.74-20.262-1.967-7.357-7.71-12.926-15.067-14.667L2.223 33.35 117.208 2.406l10.74 40.211c-5.55 5.2-7.772 12.926-5.8 20.318 1.975 7.396 7.75 12.973 15.15 14.69l10.742 40.21-114.988 30.94zm117.179-30.492l-11.157-41.764a1 1 0 0 0-.768-.723c-6.942-1.393-12.394-6.518-14.225-13.375-1.83-6.857.337-14.03 5.654-18.723a.998.998 0 0 0 .303-1.008L118.88.922a1 1 0 0 0-1.226-.708L.74 31.677a1.002 1.002 0 0 0-.706 1.224l11.17 41.822a.998.998 0 0 0 .759.697c6.9 1.417 12.32 6.537 14.147 13.36 1.822 6.823-.322 13.976-5.596 18.67a1.027 1.027 0 0 0-.295 1.022l11.158 41.785a1.006 1.006 0 0 0 .966.743 1 1 0 0 0 .26-.035l116.92-31.46a1 1 0 0 0 .706-1.223z" fill="#262626" mask="url(#b)"/></g><path d="M105.015 57.959c-7.414-.002-13.423 6.127-13.426 13.69-.002 7.565 6.003 13.699 13.417 13.7 7.409.004 13.42-6.125 13.423-13.69.002-7.564-6.002-13.698-13.414-13.7M92.698 142.926c0 4.023 2.607 6.867 6.287 6.972l18.312.012.038-58.78-24.651-.02.014 51.816z" fill="#FFF"/></g></svg>