<svg width="210" height="210" viewBox="0 0 210 210" xmlns="http://www.w3.org/2000/svg" xmlns:xlink="http://www.w3.org/1999/xlink"><title>4419C3EC-EB49-41F4-BC00-E2AFD009263F</title><defs><path id="a" d="M0 178.627h133.077V0H0z"/></defs><g transform="translate(38 23)" fill="none" fill-rule="evenodd"><path d="M95.444 170.129a4.586 4.586 0 0 0 4.572-4.572 4.585 4.585 0 0 0-4.572-4.571H39.478a4.585 4.585 0 0 0-4.571 4.57 4.585 4.585 0 0 0 4.57 4.573h55.967zm5.572-17.572c0-2.128-1.481-3.914-3.46-4.417a66.856 66.856 0 0 0 7.139-4.364v25.85c0 3.86-3.14 7-7 7H35.382c-3.86 0-7-3.14-7-7v-25.851a66.764 66.764 0 0 0 9.097 5.364c-.955.84-1.572 2.055-1.572 3.418a4.585 4.585 0 0 0 4.57 4.572h55.967a4.586 4.586 0 0 0 4.572-4.572z" fill="#3478C1"/><path d="M35.907 152.557a4.586 4.586 0 0 0 4.572 4.572h55.965a4.586 4.586 0 0 0 4.572-4.572c0-2.128-1.481-3.915-3.46-4.417a66.035 66.035 0 0 1-31.017 7.712 66.028 66.028 0 0 1-29.06-6.713c-.955.84-1.572 2.054-1.572 3.418" fill="#4F9BD3"/><path d="M40.478 6.854h55.966a4.585 4.585 0 0 1 4.571 4.572 4.585 4.585 0 0 1-4.57 4.57H40.477a4.585 4.585 0 0 1-4.572-4.57 4.586 4.586 0 0 1 4.572-4.572m-5.572 18.572a4.586 4.586 0 0 1 4.572-4.572h55.966a4.585 4.585 0 0 1 4.571 4.572c0 2.18-1.55 4.013-3.602 4.462a66.851 66.851 0 0 1 8.282 4.963V9c0-3.86-3.14-7-7-7H35.382c-3.86 0-7 3.14-7 7v25.852a66.712 66.712 0 0 1 9.071-5.352c-1.5-.752-2.547-2.29-2.547-4.074" fill="#3478C1"/><path d="M95.444 160.986H39.478a4.585 4.585 0 0 0-4.571 4.572 4.585 4.585 0 0 0 4.57 4.57h55.967a4.585 4.585 0 0 0 4.572-4.57 4.586 4.586 0 0 0-4.572-4.572M100.015 25.425a4.586 4.586 0 0 0-4.572-4.572H39.478a4.586 4.586 0 0 0-4.572 4.572c0 1.784 1.046 3.323 2.546 4.075a66.044 66.044 0 0 1 29.087-6.726c10.74 0 20.886 2.57 29.874 7.113 2.052-.448 3.602-2.28 3.602-4.462M40.478 15.997h55.966a4.585 4.585 0 0 0 4.571-4.572 4.585 4.585 0 0 0-4.57-4.57H40.477a4.585 4.585 0 0 0-4.572 4.57 4.586 4.586 0 0 0 4.572 4.572" fill="#4F9BD3"/><path d="M22.676 91.056v-1.742h6.007l7.35-28.402-1.126-1.127 1.232-1.232.401.4 5.721-22.103C22.466 46.026 8.729 66.06 8.729 89.314a57.537 57.537 0 0 0 11.13 34.089l8.372-32.347h-5.555z" fill="#262626"/><mask id="b" fill="#fff"><use xlink:href="#a"/></mask><path d="M103.745 91.055h6.656v-1.742h-6.656v1.742zM93.463 64.492l-1.232-1.232 4.707-4.707 1.232 1.232-4.707 4.707zm3.475 57.324l-4.707-4.707 1.232-1.232 4.707 4.707-1.232 1.232zm-31.27 11.36h1.742v-6.657h-1.742v6.657zm20.552-98.23L75.209 78.794l14.481-14.48a.94.94 0 0 1 1.324 0l.524.524a.94.94 0 0 1 0 1.324L73.97 83.73l-15.767 62.786c2.723.393 5.504.607 8.336.607 31.927 0 57.809-25.882 57.809-57.81 0-25.015-15.891-46.315-38.128-54.367zM63.373 89.314a3.17 3.17 0 0 1 3.166-3.166c.255 0 .499.039.737.096l13.312-53.012a57.712 57.712 0 0 0-4.694-.963l-12.88 51.288 1.359 1.359a4.941 4.941 0 0 0-1.955 1.74l-.146-.144-2.133 8.494 2.88-2.88.708.707-4.062 4.062-11.832 47.117c1.505.514 3.034.977 4.592 1.368l13.313-53.016a3.163 3.163 0 0 1-2.365-3.05" fill="#262626" mask="url(#b)"/><path d="M36.14 121.816l-1.233-1.232 4.707-4.707 1.232 1.232-4.707 4.707zm29.527-69.708h1.742v-6.657h-1.742v6.657zm-23.547 62.33l-.707-.707L60.14 95.006l2.133-8.495-11.53-11.532a.938.938 0 0 1 0-1.323l.523-.525a.94.94 0 0 1 1.324 0l10.425 10.425 12.88-51.288a58.147 58.147 0 0 0-9.356-.764 57.576 57.576 0 0 0-24.277 5.345l-5.72 22.105 4.305 4.306-1.232 1.232-3.58-3.58-7.352 28.401h.65v1.743h-1.1l-8.373 32.347c6.925 9.466 16.657 16.74 27.974 20.608l11.832-47.117-17.545 17.544zM70.805 86.895a4.937 4.937 0 0 0-1.848-1.847l6.253-6.254 11.01-43.848a57.377 57.377 0 0 0-5.632-1.713l-13.312 53.01a3.164 3.164 0 0 1 2.429 3.07 3.169 3.169 0 0 1-3.166 3.165 3.11 3.11 0 0 1-.8-.114L52.426 145.38c1.89.475 3.818.853 5.778 1.137L73.97 83.73l-3.165 3.165z" fill="#3F3F3F" mask="url(#b)"/><path d="M66.539 147.123c-2.832 0-5.613-.213-8.335-.607a57.287 57.287 0 0 1-5.778-1.136 57.175 57.175 0 0 1-4.593-1.37c-11.316-3.868-21.048-11.14-27.973-20.606a57.535 57.535 0 0 1-11.13-34.09c0-23.254 13.736-43.288 33.532-52.464a57.558 57.558 0 0 1 24.277-5.346c3.186 0 6.309.269 9.355.765a57.654 57.654 0 0 1 10.327 2.677c22.236 8.052 38.127 29.352 38.127 54.368 0 31.927-25.882 57.809-57.81 57.809m0-122.348C30.954 24.775 2 53.727 2 89.314s28.953 64.538 64.539 64.538 64.539-28.951 64.539-64.538c0-35.587-28.953-64.54-64.54-64.54" fill="#999" mask="url(#b)"/><path d="M66.54 153.852C30.951 153.852 2 124.9 2 89.313c0-35.586 28.952-64.539 64.54-64.539 35.585 0 64.537 28.953 64.537 64.54 0 35.586-28.952 64.538-64.538 64.538zm38.155 15.775c0 3.86-3.14 7-7 7H35.382c-3.86 0-7-3.14-7-7v-25.852a66.806 66.806 0 0 0 9.097 5.364 66.028 66.028 0 0 0 29.06 6.713c11.2 0 21.75-2.8 31.018-7.712a66.8 66.8 0 0 0 7.138-4.365v25.852zM28.382 9c0-3.859 3.14-7 7-7h62.313c3.86 0 7 3.141 7 7v25.852a66.716 66.716 0 0 0-8.28-4.963 66.043 66.043 0 0 0-29.876-7.114A66.026 66.026 0 0 0 37.453 29.5a66.706 66.706 0 0 0-9.07 5.351V9zm78.313 27.303V9c0-4.962-4.037-9-9-9H35.382c-4.963 0-9 4.038-9 9v27.303C10.366 48.464 0 67.698 0 89.313c0 21.616 10.366 40.85 26.382 53.011v27.303c0 4.962 4.037 9 9 9h62.313c4.963 0 9-4.038 9-9v-27.303c16.016-12.162 26.382-31.395 26.382-53.01 0-21.616-10.366-40.85-26.382-53.012z" fill="#262626" mask="url(#b)"/><path fill="#999" mask="url(#b)" d="M65.668 52.108h1.742v-6.657h-1.742zM65.667 133.176h1.742v-6.657h-1.742zM22.676 91.056h6.656v-1.742h-6.656zM103.745 91.056h6.656v-1.742h-6.656zM34.907 120.584l1.232 1.232 4.707-4.707-1.232-1.232zM92.231 63.26l1.232 1.232 4.707-4.707-1.232-1.232zM92.231 117.11l4.707 4.706 1.232-1.232-4.707-4.707zM34.907 59.785l1.127 1.127 3.58 3.58 1.232-1.232-4.306-4.306-.401-.4z"/><path d="M70.805 86.895l3.165-3.164 17.568-17.57a.938.938 0 0 0 0-1.323l-.524-.524a.94.94 0 0 0-1.324 0l-14.48 14.48-6.253 6.254a4.937 4.937 0 0 1 1.848 1.847M51.265 73.132l-.525.523a.941.941 0 0 0 0 1.325L62.272 86.51l.145.145a4.944 4.944 0 0 1 1.956-1.74l-1.359-1.36-10.426-10.424a.938.938 0 0 0-1.323 0" fill="#FFF" mask="url(#b)"/><path d="M63.373 89.314a3.163 3.163 0 0 0 2.365 3.05c.258.068.523.115.8.115a3.169 3.169 0 0 0 3.167-3.165 3.165 3.165 0 0 0-2.43-3.07 3.147 3.147 0 0 0-.736-.096 3.17 3.17 0 0 0-3.166 3.166" fill="#999" mask="url(#b)"/><path fill="#FF7300" mask="url(#b)" d="M42.12 114.438l17.545-17.544 4.061-4.061-.707-.707-2.88 2.88-18.726 18.725z"/></g></svg>