<svg width="210" height="210" viewBox="0 0 210 210" xmlns="http://www.w3.org/2000/svg" xmlns:xlink="http://www.w3.org/1999/xlink"><title>09B848F2-0CC1-4B2A-AF8A-8ECBFBA2E15F</title><defs><path id="a" d="M0 .748h180.25V181H0z"/></defs><g fill="none" fill-rule="evenodd"><path d="M152.79 152.656c5.422-5.42 13.709-5.962 18.86-1.374l20.683-20.682c2.39-2.39 2.567-6.128.39-8.304L87.953 17.526c-2.176-2.177-5.913-2-8.304.39L57.255 40.31c5.1 5.1 4.692 13.775-.911 19.377-5.602 5.603-14.278 6.01-19.377.911L17.915 79.65c-2.391 2.391-2.567 6.128-.391 8.305l104.77 104.77c2.177 2.176 5.914 2 8.305-.39l20.818-20.819c-4.588-5.152-4.047-13.439 1.374-18.86" fill="#3478C1"/><g transform="translate(15 14.252)"><mask id="b" fill="#fff"><use xlink:href="#a"/></mask><path d="M21.994 47.733L3.621 66.105c-.98.98-1.554 2.25-1.615 3.573-.06 1.288.374 2.467 1.225 3.318l104.77 104.77c1.792 1.79 4.883 1.617 6.89-.39l20.175-20.175c-4.305-5.603-3.502-13.986 2.018-19.504 5.518-5.52 13.9-6.323 19.503-2.018l20.04-20.038c2.006-2.007 2.18-5.098.39-6.89L72.246 3.981c-1.792-1.79-4.884-1.616-6.892.39L43.641 26.085c4.755 5.55 4.133 14.334-1.59 20.057-5.724 5.723-14.507 6.345-20.057 1.591M111.088 181c-1.663 0-3.282-.602-4.5-1.82L1.817 74.41C.562 73.156-.08 71.442.007 69.584c.085-1.822.866-3.56 2.2-4.893l19.76-19.759.706.707c4.7 4.7 12.76 4.293 17.963-.91 2.533-2.534 4.016-5.808 4.176-9.218.16-3.375-1-6.48-3.265-8.746l-.707-.707 23.1-23.1c2.787-2.787 7.148-2.963 9.72-.392l104.77 104.771c2.571 2.572 2.396 6.932-.39 9.718l-21.35 21.35-.705-.628c-4.792-4.267-12.472-3.68-17.488 1.334-5.016 5.016-5.602 12.697-1.334 17.488l.627.705-21.485 21.486c-1.467 1.466-3.37 2.21-5.218 2.21" fill="#262626" mask="url(#b)"/></g><path fill="#4F9BD3" d="M103.644 172.688l-30.766-30.766 27.711-110.35 30.766 30.765zM107.991 177.035l5.34 5.34 27.711-110.35-5.34-5.34z"/><path d="M93.35 40.588c-1.1 0-2.284.48-3.214 1.41L42.755 89.38c-.823.824-1.317 1.87-1.391 2.947-.07 1 .239 1.896.868 2.526l73.165 73.165c.629.629 1.519.934 2.525.869 1.077-.075 2.124-.57 2.948-1.393l47.38-47.381c1.625-1.625 1.865-4.13.524-5.472L95.61 41.476c-.598-.597-1.404-.888-2.26-.888m24.29 131.309c-1.686 0-3.222-.616-4.364-1.758L40.11 96.974c-1.252-1.252-1.87-2.975-1.74-4.853.124-1.8.927-3.527 2.263-4.862l47.38-47.381c2.823-2.823 7.184-3.057 9.717-.524l73.164 73.166c2.534 2.533 2.3 6.89-.523 9.714l-47.381 47.38c-1.335 1.337-3.062 2.14-4.863 2.265a6.645 6.645 0 0 1-.487.018" fill="#262626"/><path d="M104.293 117.997l3.893-6.058 7.197-.228c.518-.017.829-.698.5-1.101l-4.559-5.573 2.006-6.913a.673.673 0 0 0-.894-.817l-6.708 2.612-5.955-4.045a.662.662 0 0 0-.715-.03.697.697 0 0 0-.34.625l.415 7.189-5.69 4.413a.69.69 0 0 0-.246.675.661.661 0 0 0 .49.51l6.963 1.83 2.44 6.773c.09.248.299.413.562.443a.664.664 0 0 0 .641-.305M126.935 140.639l3.893-6.058 7.197-.228c.518-.017.829-.698.5-1.101l-4.56-5.573 2.007-6.913a.673.673 0 0 0-.894-.817l-6.708 2.612-5.955-4.045a.662.662 0 0 0-.715-.03.697.697 0 0 0-.34.625l.415 7.189-5.69 4.413a.69.69 0 0 0-.246.675.661.661 0 0 0 .49.51l6.963 1.83 2.44 6.773c.09.248.299.413.562.443a.664.664 0 0 0 .64-.305M81.651 95.355l3.893-6.058 7.197-.228c.518-.017.83-.698.5-1.101l-4.559-5.573 2.006-6.913a.673.673 0 0 0-.894-.817l-6.708 2.612-5.955-4.045a.662.662 0 0 0-.715-.029.697.697 0 0 0-.34.624l.415 7.189-5.69 4.413a.69.69 0 0 0-.246.675.661.661 0 0 0 .49.511l6.963 1.83 2.44 6.772c.09.248.3.413.562.443a.664.664 0 0 0 .641-.305" fill="#262626"/></g></svg>