<?xml version="1.0" encoding="utf-8"?>
<!-- Generated by IcoMoon.io -->
<!DOCTYPE svg PUBLIC "-//W3C//DTD SVG 1.1//EN" "http://www.w3.org/Graphics/SVG/1.1/DTD/svg11.dtd">
<svg version="1.1" xmlns="http://www.w3.org/2000/svg" xmlns:xlink="http://www.w3.org/1999/xlink" width="27" height="32" viewBox="0 0 27 32">
<path fill="#10bab5" d="M18.481 1.111c6.848 2.805 10.126 10.63 7.321 17.478s-10.63 10.126-17.478 7.321c-6.848-2.805-10.126-10.63-7.321-17.478s10.63-10.126 17.478-7.321z"></path>
<path fill="#2aada7" opacity="0.800000011920929" d="M8.33 9.336l1.199 7.144 3.16 2.008-2.287 2.848 4.795 5.413c2.834-0.167 10.735-3.404 11.552-12.446l-3.055-3.419-1.393-1.554z"></path>
<path fill="#f1f0f0" opacity="0.00952000036120415" d="M22.897 30.66c0 0.717-4.251 1.298-9.495 1.298s-9.495-0.581-9.495-1.298c0-0.717 4.251-1.298 9.495-1.298s9.495 0.581 9.495 1.298z"></path>
<path fill="#eae9e9" opacity="0.0190400007224083" d="M22.589 30.66c0 0.693-4.113 1.256-9.186 1.256s-9.186-0.562-9.186-1.256c0-0.693 4.113-1.256 9.186-1.256s9.186 0.562 9.186 1.256z"></path>
<path fill="#e3e2e2" opacity="0.028580001422464862" d="M22.28 30.66c0 0.67-3.975 1.213-8.878 1.213s-8.878-0.543-8.878-1.213c0-0.67 3.975-1.213 8.878-1.213s8.878 0.543 8.878 1.213z"></path>
<path fill="#dcdbdc" opacity="0.03810000178366901" d="M21.972 30.66c0 0.647-3.837 1.171-8.57 1.171s-8.57-0.524-8.57-1.171c0-0.647 3.837-1.171 8.57-1.171s8.57 0.524 8.57 1.171z"></path>
<path fill="#d6d5d5" opacity="0.047620002144873164" d="M21.664 30.66c0 0.624-3.699 1.129-8.261 1.129s-8.261-0.506-8.261-1.129c0-0.624 3.699-1.129 8.261-1.129s8.261 0.506 8.261 1.129z"></path>
<path fill="#d0cfcf" opacity="0.05713999952584503" d="M21.355 30.66c0 0.6-3.561 1.087-7.953 1.087s-7.953-0.487-7.953-1.087c0-0.6 3.561-1.087 7.953-1.087s7.953 0.487 7.953 1.087z"></path>
<path fill="#cac9c9" opacity="0.06665999988704918" d="M21.047 30.66c0 0.577-3.422 1.045-7.644 1.045s-7.644-0.468-7.644-1.045c0-0.577 3.422-1.045 7.644-1.045s7.644 0.468 7.644 1.045z"></path>
<path fill="#c5c3c3" opacity="0.07620000356733803" d="M20.738 30.66c0 0.554-3.284 1.003-7.336 1.003s-7.336-0.449-7.336-1.003c0-0.554 3.284-1.003 7.336-1.003s7.336 0.449 7.336 1.003z"></path>
<path fill="#bfbebe" opacity="0.08572000392854218" d="M20.43 30.66c0 0.53-3.146 0.96-7.027 0.96s-7.027-0.43-7.027-0.96c0-0.53 3.146-0.96 7.027-0.96s7.027 0.43 7.027 0.96z"></path>
<path fill="#bab8b8" opacity="0.09524000428974633" d="M20.121 30.66c0 0.507-3.008 0.918-6.719 0.918s-6.719-0.411-6.719-0.918c0-0.507 3.008-0.918 6.719-0.918s6.719 0.411 6.719 0.918z"></path>
<path fill="#b4b3b3" opacity="0.10476000465095048" d="M19.813 30.66c0 0.484-2.87 0.876-6.41 0.876s-6.41-0.392-6.41-0.876c0-0.484 2.87-0.876 6.41-0.876s6.41 0.392 6.41 0.876z"></path>
<path fill="#afaeae" opacity="0.11427999905169006" d="M19.505 30.66c0 0.461-2.732 0.834-6.102 0.834s-6.102-0.373-6.102-0.834c0-0.461 2.732-0.834 6.102-0.834s6.102 0.373 6.102 0.834z"></path>
<path fill="#aaa8a9" opacity="0.12380000537335878" d="M19.196 30.66c0 0.437-2.594 0.792-5.793 0.792s-5.793-0.355-5.793-0.792c0-0.437 2.594-0.792 5.793-0.792s5.793 0.355 5.793 0.792z"></path>
<path fill="#a5a3a4" opacity="0.13334000309318306" d="M18.888 30.66c0 0.414-2.456 0.75-5.485 0.75s-5.485-0.336-5.485-0.75c0-0.414 2.456-0.75 5.485-0.75s5.485 0.336 5.485 0.75z"></path>
<path fill="#a09f9f" opacity="0.14285999749392264" d="M18.579 30.66c0 0.391-2.318 0.708-5.177 0.708s-5.177-0.317-5.177-0.708c0-0.391 2.318-0.708 5.177-0.708s5.177 0.317 5.177 0.708z"></path>
<path fill="#9b9a9a" opacity="0.15238000381559136" d="M18.271 30.66c0 0.367-2.18 0.665-4.868 0.665s-4.868-0.298-4.868-0.665c0-0.367 2.18-0.665 4.868-0.665s4.868 0.298 4.868 0.665z"></path>
<path fill="#969595" opacity="0.16189999821633094" d="M17.962 30.66c0 0.344-2.041 0.623-4.56 0.623s-4.56-0.279-4.56-0.623c0-0.344 2.041-0.623 4.56-0.623s4.56 0.279 4.56 0.623z"></path>
<path fill="#919191" opacity="0.17142000453799966" d="M17.654 30.66c0 0.321-1.903 0.581-4.251 0.581s-4.251-0.26-4.251-0.581c0-0.321 1.903-0.581 4.251-0.581s4.251 0.26 4.251 0.581z"></path>
<path fill="#8d8c8c" opacity="0.18096000225782394" d="M17.345 30.66c0 0.298-1.765 0.539-3.943 0.539s-3.943-0.241-3.943-0.539c0-0.298 1.765-0.539 3.943-0.539s3.943 0.241 3.943 0.539z"></path>
<path fill="#888" opacity="0.19048000857949265" d="M17.037 30.66c0 0.274-1.627 0.497-3.634 0.497s-3.634-0.222-3.634-0.497c0-0.274 1.627-0.497 3.634-0.497s3.634 0.222 3.634 0.497z"></path>
<path fill="#848484" opacity="0.20000000298023224" d="M16.728 30.66c0 0.251-1.489 0.454-3.326 0.454s-3.326-0.203-3.326-0.454c0-0.251 1.489-0.454 3.326-0.454s3.326 0.203 3.326 0.454z"></path>
<path fill="#339b91" d="M22.451 9.409c-0.105-0.136-0.266-0.216-0.438-0.216h-13.345l-0.368-1.8c-0.053-0.257-0.279-0.441-0.541-0.441h-2.432c-0.305 0-0.552 0.247-0.552 0.552s0.247 0.552 0.552 0.552h1.981l1.817 8.883c0.028 0.135 0.104 0.249 0.207 0.327 0.042 0.058 0.095 0.108 0.16 0.148l2.919 1.782c0.090 0.055 0.189 0.081 0.287 0.081 0.186 0 0.368-0.094 0.472-0.264 0.159-0.26 0.077-0.6-0.183-0.759l-1.431-0.873h5.131c0.015 0.011 0.028 0.024 0.045 0.034l2.919 1.782c0.090 0.055 0.189 0.081 0.287 0.081 0.186 0 0.368-0.094 0.472-0.264 0.159-0.26 0.077-0.6-0.183-0.759l-1.43-0.873h1.31c0.25 0 0.468-0.167 0.533-0.408l1.909-7.083c0.044-0.166 0.009-0.343-0.095-0.479zM20.834 11.999h-1.449v-1.702h1.908l-0.459 1.702zM20.2 14.35h-0.815v-1.799h1.3l-0.485 1.799zM16.077 11.999h-2.204v-1.702h2.204v1.702zM16.629 10.297h2.204v1.702h-2.204v-1.702zM16.077 12.551v1.799h-2.204v-1.799h2.204zM13.321 11.999h-2.204v-1.702h2.204v1.702zM13.321 12.551v1.799h-2.204v-1.799h2.204zM10.565 14.35h-0.842l-0.368-1.799h1.21v1.799zM10.117 16.275l-0.281-1.374h0.729v1.374h-0.448zM11.117 14.902h2.204v1.374h-2.204v-1.374zM13.873 14.902h2.204v1.374h-2.204v-1.374zM16.629 16.275v-1.374h2.204v1.374h-2.204zM16.629 14.35v-1.799h2.204v1.799h-2.204zM10.565 10.297v1.702h-1.323l-0.348-1.702h1.671zM19.385 16.275v-1.374h0.667l-0.37 1.374h-0.296z"></path>
<path fill="#d4d6d5" d="M12.015 17.954c-1.148 0-2.081 0.952-2.081 2.121s0.934 2.122 2.081 2.122c1.147 0 2.081-0.952 2.081-2.122s-0.934-2.121-2.081-2.121z"></path>
<path fill="#5e6163" d="M19.129 17.954c-1.147 0-2.081 0.952-2.081 2.121s0.934 2.122 2.081 2.122 2.081-0.952 2.081-2.122c0-1.17-0.934-2.121-2.081-2.121z"></path>
<path fill="#5e6163" d="M12.87 20.075c0 0.484-0.383 0.876-0.856 0.876s-0.856-0.392-0.856-0.876c0-0.484 0.383-0.876 0.856-0.876s0.856 0.392 0.856 0.876z"></path>
<path fill="#fff" d="M19.985 20.075c0 0.484-0.383 0.876-0.856 0.876s-0.856-0.392-0.856-0.876c0-0.484 0.383-0.876 0.856-0.876s0.856 0.392 0.856 0.876z"></path>
<path fill="#fff" d="M12.266 20.075c0 0.142-0.113 0.258-0.251 0.258s-0.251-0.115-0.251-0.258c0-0.142 0.113-0.258 0.251-0.258s0.251 0.115 0.251 0.258z"></path>
<path fill="#babdbd" d="M19.381 20.075c0 0.142-0.113 0.258-0.251 0.258s-0.251-0.115-0.251-0.258c0-0.142 0.113-0.258 0.251-0.258s0.251 0.115 0.251 0.258z"></path>
<path fill="#babdbd" d="M3.774 6.998c0-0.293 0.159-0.53 0.355-0.53h2.585c0.196 0 0.355 0.237 0.355 0.53v1.059c0 0.292-0.159 0.53-0.355 0.53h-2.585c-0.196 0-0.355-0.237-0.355-0.53v-1.059z"></path>
<path fill="#ae544c" d="M3.774 6.689c0-0.219 0.159-0.397 0.355-0.397h2.585c0.196 0 0.355 0.178 0.355 0.397v0.795c0 0.219-0.159 0.397-0.355 0.397h-2.585c-0.196 0-0.355-0.178-0.355-0.397v-0.795z"></path>
</svg>
