<?xml version="1.0" encoding="utf-8"?>
<!-- Generated by IcoMoon.io -->
<!DOCTYPE svg PUBLIC "-//W3C//DTD SVG 1.1//EN" "http://www.w3.org/Graphics/SVG/1.1/DTD/svg11.dtd">
<svg version="1.1" xmlns="http://www.w3.org/2000/svg" xmlns:xlink="http://www.w3.org/1999/xlink" width="27" height="32" viewBox="0 0 27 32">
<path fill="#10bab5" d="M18.553 1.008c6.875 2.816 10.165 10.671 7.35 17.546s-10.671 10.165-17.546 7.35c-6.875-2.816-10.165-10.671-7.35-17.546s10.671-10.165 17.546-7.35z"></path>
<path fill="#2aada7" opacity="0.800000011920929" d="M12.776 16.123l-4.228 4.712 4.076 4.438 1.634 1.611c5.759-0.114 12.782-5.198 12.643-13.89l-3.179-3.347-3.705-3.829z"></path>
<path fill="#f1f0f0" opacity="0.00952000036120415" d="M22.986 30.672c0 0.719-4.268 1.303-9.532 1.303s-9.532-0.583-9.532-1.303c0-0.719 4.268-1.303 9.532-1.303s9.532 0.583 9.532 1.303z"></path>
<path fill="#eae9e9" opacity="0.0190400007224083" d="M22.677 30.672c0 0.696-4.129 1.26-9.222 1.26s-9.222-0.564-9.222-1.26c0-0.696 4.129-1.26 9.222-1.26s9.222 0.564 9.222 1.26z"></path>
<path fill="#e3e2e2" opacity="0.028580001422464862" d="M22.367 30.672c0 0.673-3.99 1.218-8.912 1.218s-8.912-0.545-8.912-1.218c0-0.673 3.99-1.218 8.912-1.218s8.912 0.545 8.912 1.218z"></path>
<path fill="#dcdbdc" opacity="0.03810000178366901" d="M22.058 30.672c0 0.649-3.852 1.176-8.603 1.176s-8.603-0.526-8.603-1.176c0-0.649 3.852-1.176 8.603-1.176s8.603 0.526 8.603 1.176z"></path>
<path fill="#d6d5d5" opacity="0.047620002144873164" d="M21.748 30.672c0 0.626-3.713 1.133-8.293 1.133s-8.293-0.507-8.293-1.133c0-0.626 3.713-1.133 8.293-1.133s8.293 0.507 8.293 1.133z"></path>
<path fill="#d0cfcf" opacity="0.05713999952584503" d="M21.438 30.672c0 0.603-3.574 1.091-7.984 1.091s-7.984-0.489-7.984-1.091c0-0.603 3.574-1.091 7.984-1.091s7.984 0.489 7.984 1.091z"></path>
<path fill="#cac9c9" opacity="0.06665999988704918" d="M21.129 30.672c0 0.579-3.436 1.049-7.674 1.049s-7.674-0.47-7.674-1.049c0-0.579 3.436-1.049 7.674-1.049s7.674 0.47 7.674 1.049z"></path>
<path fill="#c5c3c3" opacity="0.07620000356733803" d="M20.819 30.672c0 0.556-3.297 1.007-7.364 1.007s-7.364-0.451-7.364-1.007c0-0.556 3.297-1.007 7.364-1.007s7.364 0.451 7.364 1.007z"></path>
<path fill="#bfbebe" opacity="0.08572000392854218" d="M20.509 30.672c0 0.532-3.158 0.964-7.055 0.964s-7.055-0.432-7.055-0.964c0-0.532 3.158-0.964 7.055-0.964s7.055 0.432 7.055 0.964z"></path>
<path fill="#bab8b8" opacity="0.09524000428974633" d="M20.2 30.672c0 0.509-3.020 0.922-6.745 0.922s-6.745-0.413-6.745-0.922c0-0.509 3.020-0.922 6.745-0.922s6.745 0.413 6.745 0.922z"></path>
<path fill="#b4b3b3" opacity="0.10476000465095048" d="M19.89 30.672c0 0.486-2.881 0.88-6.435 0.88s-6.435-0.394-6.435-0.88c0-0.486 2.881-0.88 6.435-0.88s6.435 0.394 6.435 0.88z"></path>
<path fill="#afaeae" opacity="0.11427999905169006" d="M19.58 30.672c0 0.462-2.743 0.837-6.126 0.837s-6.126-0.375-6.126-0.837c0-0.462 2.743-0.837 6.126-0.837s6.126 0.375 6.126 0.837z"></path>
<path fill="#aaa8a9" opacity="0.12380000537335878" d="M19.271 30.672c0 0.439-2.604 0.795-5.816 0.795s-5.816-0.356-5.816-0.795c0-0.439 2.604-0.795 5.816-0.795s5.816 0.356 5.816 0.795z"></path>
<path fill="#a5a3a4" opacity="0.13334000309318306" d="M18.961 30.672c0 0.416-2.465 0.753-5.506 0.753s-5.506-0.337-5.506-0.753c0-0.416 2.465-0.753 5.506-0.753s5.506 0.337 5.506 0.753z"></path>
<path fill="#a09f9f" opacity="0.14285999749392264" d="M18.651 30.672c0 0.392-2.327 0.71-5.197 0.71s-5.197-0.318-5.197-0.71c0-0.392 2.327-0.71 5.197-0.71s5.197 0.318 5.197 0.71z"></path>
<path fill="#9b9a9a" opacity="0.15238000381559136" d="M18.342 30.672c0 0.369-2.188 0.668-4.887 0.668s-4.887-0.299-4.887-0.668c0-0.369 2.188-0.668 4.887-0.668s4.887 0.299 4.887 0.668z"></path>
<path fill="#969595" opacity="0.16189999821633094" d="M18.032 30.672c0 0.345-2.049 0.626-4.577 0.626s-4.577-0.28-4.577-0.626c0-0.345 2.049-0.626 4.577-0.626s4.577 0.28 4.577 0.626z"></path>
<path fill="#919191" opacity="0.17142000453799966" d="M17.723 30.672c0 0.322-1.911 0.583-4.268 0.583s-4.268-0.261-4.268-0.583c0-0.322 1.911-0.583 4.268-0.583s4.268 0.261 4.268 0.583z"></path>
<path fill="#8d8c8c" opacity="0.18096000225782394" d="M17.413 30.672c0 0.299-1.772 0.541-3.958 0.541s-3.958-0.242-3.958-0.541c0-0.299 1.772-0.541 3.958-0.541s3.958 0.242 3.958 0.541z"></path>
<path fill="#888" opacity="0.19048000857949265" d="M17.103 30.672c0 0.275-1.633 0.499-3.648 0.499s-3.648-0.223-3.648-0.499c0-0.275 1.633-0.499 3.648-0.499s3.648 0.223 3.648 0.499z"></path>
<path fill="#848484" opacity="0.20000000298023224" d="M16.794 30.672c0 0.252-1.495 0.456-3.339 0.456s-3.339-0.204-3.339-0.456c0-0.252 1.495-0.456 3.339-0.456s3.339 0.204 3.339 0.456z"></path>
<path fill="#339b91" d="M14.258 7.767c0 0.451-0.366 0.817-0.817 0.817s-0.817-0.366-0.817-0.817c0-0.451 0.366-0.817 0.817-0.817s0.817 0.366 0.817 0.817z"></path>
<path fill="#ae544c" d="M20.198 6.309c0 0.418-0.338 0.756-0.756 0.756s-0.756-0.338-0.756-0.756c0-0.418 0.338-0.756 0.756-0.756s0.756 0.338 0.756 0.756z"></path>
<path fill="#ae544c" d="M8.228 6.309c0 0.418-0.338 0.756-0.756 0.756s-0.756-0.338-0.756-0.756c0-0.418 0.338-0.756 0.756-0.756s0.756 0.338 0.756 0.756z"></path>
<path fill="#ae544c" d="M10.489 20.317c0 0.574-0.466 1.040-1.040 1.040s-1.040-0.465-1.040-1.040c0-0.574 0.466-1.040 1.040-1.040s1.040 0.465 1.040 1.040z"></path>
<path fill="#ae544c" d="M18.583 20.317c0 0.574-0.465 1.040-1.040 1.040s-1.040-0.465-1.040-1.040c0-0.574 0.465-1.040 1.040-1.040s1.040 0.465 1.040 1.040z"></path>
<path fill="#ae544c" d="M9.934 9.511c-0.151 0.151-0.397 0.151-0.549 0l-0.722-0.722c-0.152-0.152-0.152-0.397 0-0.549v0c0.152-0.152 0.397-0.152 0.549 0l0.722 0.723c0.152 0.151 0.152 0.397 0 0.549v0z"></path>
<path fill="#9e4749" d="M16.853 9.511c-0.152-0.152-0.151-0.398 0.001-0.549l0.722-0.723c0.151-0.152 0.397-0.152 0.549 0v0c0.151 0.152 0.151 0.397-0.001 0.549l-0.722 0.723c-0.151 0.151-0.397 0.151-0.549 0v0z"></path>
<path fill="#9e4749" d="M7.451 10.164c-0.969-1.306-0.813-3.097 0.291-4.223-0.12 0.068-0.238 0.14-0.352 0.224-1.446 1.074-1.749 3.116-0.675 4.563l5.238-3.887c-0.003-0.004-0.006-0.007-0.009-0.011l-4.492 3.334z"></path>
<path fill="#ae544c" d="M7.451 10.164l4.492-3.334c-0.991-1.323-2.795-1.678-4.201-0.889-1.104 1.126-1.261 2.916-0.291 4.222z"></path>
<path fill="#cd7664" d="M19.492 6.142c-0.123-0.083-0.249-0.153-0.377-0.217 1.288 1.055 1.583 2.933 0.638 4.339l0.602 0.41c1.013-1.489 0.627-3.518-0.863-4.531z"></path>
<path fill="#ae544c" d="M19.115 5.925c-1.439-0.721-3.224-0.287-4.154 1.081l4.792 3.258c0.945-1.406 0.65-3.284-0.638-4.339z"></path>
<path fill="#cd7664" d="M20.18 14.451c0 3.712-3.009 6.721-6.721 6.721s-6.721-3.009-6.721-6.721c0-3.712 3.009-6.721 6.721-6.721s6.721 3.009 6.721 6.721z"></path>
<path fill="#cd7664" d="M19.169 14.537c0 3.159-2.561 5.72-5.72 5.72s-5.72-2.561-5.72-5.72c0-3.159 2.561-5.72 5.72-5.72s5.72 2.561 5.72 5.72z"></path>
<path fill="#ae544c" d="M18.796 14.537c0 2.953-2.394 5.347-5.347 5.347s-5.347-2.394-5.347-5.347c0-2.953 2.394-5.347 5.347-5.347s5.347 2.394 5.347 5.347z"></path>
<path fill="#fff" d="M12.949 10.845v-0.589c-0.11 0.084-0.184 0.126-0.222 0.126-0.018 0-0.034-0.008-0.048-0.022s-0.021-0.031-0.021-0.050c0-0.022 0.007-0.038 0.021-0.049s0.038-0.024 0.073-0.040c0.052-0.025 0.094-0.050 0.126-0.078s0.059-0.058 0.083-0.091c0.024-0.034 0.040-0.055 0.047-0.062s0.021-0.012 0.041-0.012c0.023 0 0.041 0.009 0.055 0.027s0.021 0.042 0.021 0.073v0.742c0 0.087-0.030 0.13-0.089 0.13-0.026 0-0.048-0.009-0.064-0.026s-0.024-0.044-0.024-0.079z"></path>
<path fill="#5e6163" d="M13.658 10.781h0.339c0.033 0 0.059 0.006 0.077 0.021s0.027 0.033 0.027 0.056c0 0.021-0.007 0.039-0.022 0.054s-0.035 0.022-0.063 0.022h-0.477c-0.032 0-0.058-0.009-0.076-0.027s-0.027-0.039-0.027-0.063c0-0.016 0.006-0.036 0.017-0.062s0.024-0.046 0.038-0.060c0.057-0.060 0.109-0.111 0.155-0.153s0.079-0.071 0.099-0.084c0.035-0.025 0.065-0.050 0.088-0.075s0.042-0.051 0.054-0.078c0.012-0.027 0.018-0.053 0.018-0.078 0-0.028-0.007-0.053-0.020-0.074s-0.031-0.039-0.054-0.051c-0.022-0.012-0.047-0.018-0.074-0.018-0.057 0-0.101 0.025-0.134 0.075-0.004 0.006-0.011 0.024-0.022 0.053s-0.021 0.051-0.034 0.067-0.032 0.023-0.056 0.023c-0.021 0-0.039-0.007-0.053-0.021s-0.021-0.034-0.021-0.058c0-0.030 0.007-0.061 0.020-0.093s0.034-0.062 0.060-0.088c0.027-0.026 0.060-0.048 0.101-0.064s0.089-0.024 0.144-0.024c0.066 0 0.122 0.011 0.169 0.031 0.030 0.014 0.057 0.033 0.080 0.057s0.040 0.052 0.053 0.084c0.013 0.032 0.019 0.065 0.019 0.099 0 0.053-0.014 0.102-0.040 0.146s-0.054 0.078-0.081 0.103c-0.028 0.025-0.074 0.064-0.139 0.117s-0.11 0.094-0.133 0.124c-0.011 0.012-0.022 0.026-0.033 0.043z"></path>
<path fill="#5e6163" d="M13.346 18.513c0.030-0.035 0.061-0.061 0.096-0.078s0.073-0.025 0.116-0.025c0.041 0 0.078 0.007 0.114 0.023s0.065 0.037 0.091 0.065c0.026 0.028 0.046 0.062 0.060 0.1s0.022 0.079 0.022 0.12c0 0.061-0.013 0.117-0.042 0.166s-0.067 0.089-0.117 0.116c-0.050 0.028-0.106 0.042-0.17 0.042-0.072 0-0.135-0.017-0.188-0.053s-0.093-0.087-0.121-0.157c-0.028-0.069-0.042-0.154-0.042-0.254 0-0.082 0.008-0.154 0.025-0.219s0.041-0.117 0.073-0.16c0.031-0.042 0.070-0.074 0.114-0.096s0.096-0.032 0.153-0.032c0.056 0 0.104 0.011 0.146 0.032s0.074 0.048 0.095 0.080c0.021 0.032 0.032 0.063 0.032 0.092 0 0.017-0.007 0.034-0.020 0.048s-0.030 0.021-0.051 0.021c-0.018 0-0.035-0.006-0.051-0.017s-0.027-0.027-0.034-0.047c-0.010-0.026-0.025-0.047-0.047-0.063s-0.047-0.023-0.075-0.023c-0.023 0-0.046 0.006-0.068 0.020s-0.042 0.031-0.057 0.053c-0.032 0.046-0.050 0.127-0.056 0.245zM13.521 18.916c0.044 0 0.080-0.018 0.108-0.053s0.043-0.082 0.043-0.141c0-0.039-0.007-0.073-0.020-0.101s-0.032-0.050-0.055-0.065c-0.024-0.015-0.049-0.022-0.077-0.022-0.026 0-0.053 0.007-0.076 0.021s-0.044 0.034-0.059 0.062c-0.015 0.026-0.023 0.059-0.023 0.095 0 0.059 0.015 0.107 0.045 0.146s0.068 0.059 0.114 0.059z"></path>
<path fill="#5e6163" d="M17.681 14.374c0.040 0 0.074-0.011 0.103-0.035s0.043-0.057 0.043-0.1c0-0.034-0.011-0.062-0.035-0.085s-0.054-0.037-0.092-0.037c-0.026 0-0.048 0.004-0.065 0.011s-0.031 0.017-0.041 0.029c-0.010 0.012-0.019 0.028-0.028 0.047s-0.017 0.036-0.024 0.053c-0.005 0.009-0.012 0.016-0.024 0.021s-0.024 0.008-0.039 0.008c-0.017 0-0.033-0.007-0.048-0.021s-0.021-0.033-0.021-0.056c0-0.023 0.007-0.046 0.020-0.071s0.034-0.049 0.060-0.071c0.026-0.023 0.059-0.041 0.098-0.054s0.082-0.021 0.131-0.021c0.042 0 0.080 0.006 0.114 0.017s0.065 0.028 0.090 0.050c0.025 0.021 0.045 0.047 0.058 0.075s0.020 0.060 0.020 0.092c0 0.043-0.009 0.081-0.028 0.111s-0.046 0.061-0.081 0.090c0.034 0.018 0.062 0.039 0.085 0.062s0.040 0.050 0.052 0.078c0.012 0.028 0.018 0.059 0.018 0.092 0 0.040-0.009 0.077-0.024 0.114-0.016 0.037-0.039 0.069-0.070 0.098s-0.067 0.051-0.109 0.067c-0.043 0.016-0.089 0.024-0.14 0.024s-0.098-0.010-0.139-0.028c-0.041-0.019-0.075-0.042-0.101-0.069s-0.047-0.057-0.061-0.087c-0.013-0.030-0.020-0.054-0.020-0.074 0-0.024 0.008-0.045 0.024-0.060s0.036-0.023 0.060-0.023c0.012 0 0.024 0.004 0.035 0.011s0.019 0.016 0.022 0.026c0.023 0.060 0.047 0.105 0.073 0.133s0.062 0.044 0.108 0.044c0.026 0 0.052-0.007 0.078-0.020s0.045-0.033 0.061-0.058c0.016-0.026 0.024-0.056 0.024-0.090 0-0.051-0.014-0.090-0.041-0.119s-0.066-0.043-0.116-0.043c-0.009 0-0.022 0-0.040 0.003-0.018 0.001-0.030 0.002-0.035 0.002-0.024 0-0.042-0.006-0.055-0.017s-0.019-0.029-0.019-0.050c0-0.020 0.008-0.037 0.023-0.050s0.039-0.019 0.070-0.019h0.026z"></path>
<path fill="#5e6163" d="M9.333 14.522c-0.028 0.033-0.060 0.059-0.096 0.076s-0.074 0.026-0.117 0.026c-0.040 0-0.078-0.008-0.114-0.024-0.035-0.017-0.066-0.038-0.091-0.066s-0.045-0.062-0.059-0.099c-0.014-0.038-0.021-0.078-0.021-0.119 0-0.045 0.008-0.087 0.023-0.127s0.038-0.075 0.067-0.104c0.029-0.029 0.063-0.052 0.103-0.069s0.084-0.025 0.132-0.025c0.056 0 0.105 0.010 0.149 0.031 0.044 0.020 0.081 0.050 0.11 0.088s0.053 0.087 0.069 0.146c0.016 0.059 0.024 0.126 0.024 0.2 0 0.083-0.008 0.156-0.025 0.219s-0.041 0.117-0.073 0.159c-0.032 0.043-0.071 0.075-0.116 0.096s-0.096 0.031-0.153 0.031c-0.056 0-0.105-0.010-0.147-0.032s-0.073-0.048-0.094-0.080c-0.022-0.032-0.032-0.062-0.032-0.092 0-0.018 0.007-0.035 0.020-0.049s0.030-0.021 0.051-0.021c0.019 0 0.036 0.005 0.051 0.016s0.027 0.027 0.034 0.047c0.009 0.027 0.025 0.047 0.047 0.063s0.047 0.023 0.074 0.023c0.025 0 0.048-0.006 0.070-0.019 0.022-0.012 0.041-0.030 0.056-0.053 0.031-0.046 0.050-0.128 0.056-0.245zM9.319 14.323c0-0.029-0.004-0.056-0.012-0.081s-0.019-0.047-0.034-0.065c-0.014-0.018-0.032-0.032-0.052-0.043s-0.042-0.015-0.066-0.015c-0.041 0-0.076 0.017-0.104 0.053s-0.043 0.081-0.043 0.139c0 0.057 0.014 0.103 0.043 0.138s0.065 0.051 0.108 0.051c0.027 0 0.052-0.007 0.077-0.021s0.044-0.035 0.060-0.061c0.015-0.027 0.023-0.059 0.023-0.095z"></path>
<path fill="#5e6163" d="M13.967 14.416c0 0.294-0.238 0.531-0.531 0.531s-0.531-0.238-0.531-0.531c0-0.294 0.238-0.531 0.531-0.531s0.531 0.238 0.531 0.531z"></path>
<path fill="#5e6163" d="M16.322 14.399c0 0.099-0.044 0.181-0.098 0.181h-2.423c-0.055 0-0.099-0.081-0.099-0.181v0c0-0.1 0.044-0.181 0.099-0.181h2.423c0.054 0 0.098 0.081 0.098 0.181v0z"></path>
<path fill="#5e6163" d="M16.294 11.581c0.032 0.032 0.038 0.079 0.013 0.104l-2.737 2.737c-0.025 0.025-0.072 0.020-0.105-0.013v0c-0.032-0.032-0.038-0.079-0.012-0.104l2.736-2.737c0.026-0.025 0.073-0.019 0.105 0.013v0z"></path>
<path fill="#5e6163" d="M13.544 14.438c0.013 0.033-0.007 0.072-0.045 0.087l-4.123 1.628c-0.038 0.015-0.080 0.001-0.093-0.033v0c-0.013-0.033 0.007-0.073 0.046-0.087l4.123-1.628c0.038-0.015 0.080-0.001 0.093 0.033v0z"></path>
<path fill="#5e6163" d="M11.413 10.767c0 0.128-0.104 0.232-0.232 0.232s-0.232-0.104-0.232-0.232c0-0.128 0.104-0.232 0.232-0.232s0.232 0.104 0.232 0.232z"></path>
<path fill="#5e6163" d="M9.821 12.326c0 0.128-0.104 0.232-0.232 0.232s-0.232-0.104-0.232-0.232c0-0.128 0.104-0.232 0.232-0.232s0.232 0.104 0.232 0.232z"></path>
<path fill="#5e6163" d="M9.821 16.572c0 0.128-0.104 0.232-0.232 0.232s-0.232-0.104-0.232-0.232c0-0.128 0.104-0.232 0.232-0.232s0.232 0.104 0.232 0.232z"></path>
<path fill="#5e6163" d="M11.413 18.197c0 0.128-0.104 0.232-0.232 0.232s-0.232-0.104-0.232-0.232c0-0.128 0.104-0.232 0.232-0.232s0.232 0.104 0.232 0.232z"></path>
<path fill="#5e6163" d="M15.841 18.197c0 0.128-0.104 0.232-0.232 0.232s-0.232-0.104-0.232-0.232c0-0.128 0.104-0.232 0.232-0.232s0.232 0.104 0.232 0.232z"></path>
<path fill="#5e6163" d="M17.55 16.572c0 0.128-0.104 0.232-0.232 0.232s-0.232-0.104-0.232-0.232c0-0.128 0.104-0.232 0.232-0.232s0.232 0.104 0.232 0.232z"></path>
<path fill="#5e6163" d="M17.55 12.326c0 0.128-0.104 0.232-0.232 0.232s-0.232-0.104-0.232-0.232c0-0.128 0.104-0.232 0.232-0.232s0.232 0.104 0.232 0.232z"></path>
<path fill="#5e6163" d="M15.841 10.767c0 0.128-0.104 0.232-0.232 0.232s-0.232-0.104-0.232-0.232c0-0.128 0.104-0.232 0.232-0.232s0.232 0.104 0.232 0.232z"></path>
</svg>
