<svg width="210" height="210" viewBox="0 0 210 210" xmlns="http://www.w3.org/2000/svg" xmlns:xlink="http://www.w3.org/1999/xlink"><title>73536C20-1FA2-453C-8095-7ECBD021C855</title><defs><path id="a" d="M0 45.127V.66h138.15v44.467H0z"/></defs><g fill="none" fill-rule="evenodd"><path d="M152.403 82.84v51.274c3.273 0 6.175 1.588 8 4.026V82.129a8.076 8.076 0 0 1-2.457-2.786 10.22 10.22 0 0 1-1.41-1.111 8.053 8.053 0 0 1-4.133 4.609M160.018 160.507c0 4.4-3.6 8-8 8H57.362c-3.55 0-6.579-2.347-7.615-5.565v21.921c0 4.4 3.6 8 8 8h94.656c4.4 0 8-3.6 8-8v-26.46c-.125.166-.25.331-.385.49v1.614zM49.747 83.49v54.65c1.825-2.438 4.727-4.026 8-4.026V80.05c-.15-.222-.276-.46-.403-.698-.502-.329-.976-.7-1.417-1.119-.945 2.703-3.3 4.756-6.18 5.256" fill="#3A3A3A"/><path d="M65.153 83.615h-.769a7.933 7.933 0 0 1-4.637-1.5v51.999h2.682l13.235-52.706a8.069 8.069 0 0 1-1.562-2.062 10.079 10.079 0 0 1-1.405-1.11c-1.09 3.121-4.062 5.379-7.544 5.379M132.228 83.615h-.77a7.97 7.97 0 0 1-5.565-2.274l-11.695 46.569a8.043 8.043 0 0 1 5.367 6.204h30.838V83.483a7.958 7.958 0 0 1-1.406.132h-.77c-3.04 0-5.688-1.722-7.04-4.236a10.087 10.087 0 0 1-1.415-1.142c-1.091 3.121-4.063 5.378-7.544 5.378" fill="#3478C1"/><path d="M81.922 83.615h-.77a7.962 7.962 0 0 1-5.46-2.178l-.028-.029-13.235 52.706h28.156c.662-3.744 3.944-6.614 7.87-6.614h4.127l11.04-43.966c-2.583-.35-4.78-1.945-5.97-4.154-.504-.33-.973-.72-1.418-1.143-1.091 3.121-4.062 5.378-7.543 5.378h-.77c-3.04 0-5.688-1.722-7.04-4.236a10.03 10.03 0 0 1-1.415-1.142c-1.091 3.121-4.063 5.378-7.544 5.378" fill="#4F9BD3"/><path d="M75.99 80.324l-.018-.006-.28 1.118.298-1.112zM111.694 127.5c.875 0 1.715.147 2.504.41l11.694-46.57a8.06 8.06 0 0 1-1.47-1.956 9.964 9.964 0 0 1-1.42-1.144c-1.07 3.05-3.94 5.271-7.324 5.363l.795-2.978-.088.023L104.62 127.5h7.074z" fill="#4F9BD3"/><path d="M131.46 83.615h.768c3.481 0 6.452-2.257 7.544-5.378a10.37 10.37 0 0 1-1.15-1.265 9.991 9.991 0 0 1-8.01 4.018h-.769a9.885 9.885 0 0 1-5.42-1.605 8.08 8.08 0 0 0 1.47 1.956 7.97 7.97 0 0 0 5.566 2.274M148.228 83.615h.769c.48 0 .948-.05 1.406-.132v-2.972a9.865 9.865 0 0 1-3.022.479h-.77a9.858 9.858 0 0 1-5.423-1.611c1.35 2.514 4 4.236 7.04 4.236" fill="#2D689E"/><path d="M160.403 152.428c0 4.4-3.6 8-8 8H57.747c-4.4 0-8-3.6-8-8v-8.314c0-4.4 3.6-8 8-8h94.656c4.4 0 8 3.6 8 8v8.314zm0 32.435c0 4.4-3.6 8-8 8H57.747c-4.4 0-8-3.6-8-8v-21.92c1.037 3.218 4.064 5.565 7.616 5.565h94.655c4.4 0 8-3.601 8-8v-1.615c.135-.158.26-.324.385-.49v26.46zm-2.457-105.52a8.076 8.076 0 0 0 2.457 2.786v56.01c-1.825-2.437-4.727-4.025-8-4.025V82.84a8.053 8.053 0 0 0 4.133-4.61 10.127 10.127 0 0 1-1.144-1.256 10.047 10.047 0 0 1-4.228 3.264c-.251.104-.505.19-.761.272V134.113H59.747V82.116s-.015-.47-.03-1.611a9.977 9.977 0 0 1-.79-.287 9.914 9.914 0 0 1-1.583-.864c.128.237.253.475.403.698v54.063c-3.273 0-6.174 1.588-8 4.026V83.489c2.88-.5 5.235-2.553 6.18-5.255a10.393 10.393 0 0 1-1.15-1.262l-.001-.003a9.995 9.995 0 0 1-6.784 3.939c-.085.01-.162.016-.245.024V184.863c0 5.514 4.486 10 10 10h94.656c5.514 0 10-4.486 10-10V80.932c-.083-.008-.16-.013-.245-.024a9.936 9.936 0 0 1-4.212-1.565z" fill="#262626"/><path d="M97.922 83.615h.769c3.48 0 6.452-2.257 7.543-5.378a10.37 10.37 0 0 1-1.15-1.265 9.991 9.991 0 0 1-8.01 4.018h-.768a9.858 9.858 0 0 1-5.424-1.611c1.35 2.514 4 4.236 7.04 4.236" fill="#3478C1"/><path d="M64.385 83.615h.768c3.482 0 6.453-2.258 7.544-5.379a10.495 10.495 0 0 1-1.142-1.253 9.967 9.967 0 0 1-8.017 4.007h-.77a9.88 9.88 0 0 1-3.05-.486c.014 1.142.03 1.611.03 1.611 1.31.94 2.91 1.5 4.637 1.5M75.692 81.436l.28-1.118c-.061-.023-.124-.04-.185-.066a1.88 1.88 0 0 1-.1-.038 9.808 9.808 0 0 1-1.585-.868c.41.767.935 1.466 1.562 2.061l.028.03" fill="#2D689E"/><path d="M81.153 83.615h.77c3.48 0 6.451-2.257 7.543-5.378a10.37 10.37 0 0 1-1.15-1.265 9.991 9.991 0 0 1-8.01 4.018h-.769a9.876 9.876 0 0 1-3.547-.666l-.298 1.113a7.962 7.962 0 0 0 5.461 2.178M113.622 83.534l-11.04 43.967h2.038l11.765-46.853a9.853 9.853 0 0 1-2.542.342h-.769a9.856 9.856 0 0 1-5.422-1.61c1.19 2.21 3.387 3.804 5.97 4.154M123.002 78.24a10.116 10.116 0 0 1-1.128-1.24c-.01-.011-.017-.022-.026-.033a9.993 9.993 0 0 1-3.908 3.135 3.753 3.753 0 0 1-.193.09c-.416.178-.843.315-1.274.434l-.795 2.978c3.385-.093 6.253-2.313 7.324-5.363" fill="#3478C1"/><path d="M70.148 69.254c0 4.21-2.445 7.656-6.656 7.656h-1c-4.21 0-6.655-3.445-6.655-7.656L58.07 48.26c0-4.197 2.483-7.632 6.67-7.653l-.047-.002h.086c-.014 0-.026 0-.04.002 4.178.02 6.087 2.823 6.087 7.017l-.68 21.63zm-16.25.625c0 4.21-2.445 7.656-6.656 7.656h-1c-4.21 0-6.655-3.445-6.655-7.656l3.782-20.994c0-3.943 2.19-7.214 5.927-7.614a9.224 9.224 0 0 0-.852-.041h1.634a7.37 7.37 0 0 0-.782.04c3.816.353 6.829 3.057 6.829 6.979l-2.227 21.63zM91.74 62.96l-.406-1.522-1.564.42a.998.998 0 0 1-.76-.098 1.006 1.006 0 0 1-.466-.61l-3.44-12.885a1.007 1.007 0 0 1 .299-1.01 5.011 5.011 0 0 0 1.517-5.063 4.99 4.99 0 0 0-3.834-3.62c-.047-.01-.088-.033-.133-.05H49.999c-4.4 0-8 3.6-8 8L38 70.99c0 4.4 3.6 8 8 8h.77c.332 0 .657-.026.978-.066 3.942-.487 7.022-3.865 7.022-7.934a7.94 7.94 0 0 0 1.608 4.78l.019.027a8.068 8.068 0 0 0 3.304 2.576 7.932 7.932 0 0 0 3.069.617h.769c4.133 0 7.559-3.176 7.959-7.208.026-.261.04-.525.04-.792 0 .359.033.71.079 1.057a7.954 7.954 0 0 0 1.547 3.747 8.053 8.053 0 0 0 3.299 2.576c.016.007.032.01.048.018a7.917 7.917 0 0 0 3.028.602h.768c4.4 0 8-3.6 8-8a7.94 7.94 0 0 0 1.608 4.78l.017.024c1.464 1.935 3.777 3.196 6.375 3.196h.769c4.4 0 8-3.6 8-8a7.94 7.94 0 0 0 1.608 4.78l.016.023c1.464 1.935 3.777 3.197 6.376 3.197h.769a7.917 7.917 0 0 0 3.118-.637c.046-.02.089-.044.135-.065 2.789-1.253 4.747-4.055 4.747-7.298 0 1.8.61 3.463 1.625 4.804 1.463 1.935 3.776 3.196 6.375 3.196h.768c4.4 0 8-3.6 8-8a7.94 7.94 0 0 0 1.608 4.78c.006.009.01.016.017.024 1.464 1.935 3.776 3.196 6.375 3.196h.769a7.908 7.908 0 0 0 3.022-.6c2.912-1.2 4.978-4.068 4.978-7.4 0 1.792.604 3.445 1.609 4.782l.022.03a8.007 8.007 0 0 0 5.39 3.122 7.9 7.9 0 0 0 .979.066h.769c4.4 0 8-3.6 8-8l-4-24.466c0-4.4-3.6-8-8-8h-34.2l4.115 14.736-38.324 9.7z" fill="#FF7300"/><g transform="translate(36 35.863)"><mask id="b" fill="#fff"><use xlink:href="#a"/></mask><path d="M138.124 34.804l-3.975-24.315c-.093-5.435-4.542-9.829-10-9.829H89.95c-.07.001-2.187.023-5.433.053a5.03 5.03 0 0 0 1.808.756.997.997 0 0 1 .767.723l.11.407h2.73l.017.061h34.201c4.4 0 8 3.6 8 8l4 24.467c0 4.4-3.6 8-8 8h-.77c-.33 0-.655-.027-.977-.067a8.007 8.007 0 0 1-5.392-3.122l-.021-.029a7.939 7.939 0 0 1-1.61-4.782c0 3.331-2.064 6.201-4.977 7.4-.934.384-1.954.6-3.023.6h-.767c-2.6 0-4.912-1.262-6.376-3.197l-.017-.023a7.936 7.936 0 0 1-1.608-4.78c0 4.4-3.6 8-8 8h-.768c-2.6 0-4.912-1.262-6.375-3.197a7.934 7.934 0 0 1-1.625-4.803c0 3.242-1.959 6.044-4.747 7.298-.046.02-.09.045-.135.065a7.93 7.93 0 0 1-3.118.637h-.77c-2.599 0-4.912-1.262-6.376-3.198l-.015-.022a7.937 7.937 0 0 1-1.609-4.78c0 4.4-3.6 8-8 8h-.767c-2.6 0-4.913-1.262-6.377-3.197a7.939 7.939 0 0 1-1.624-4.803c0 4.4-3.6 8-8 8h-.768a7.921 7.921 0 0 1-3.028-.603c-.017-.006-.032-.01-.048-.017a8.076 8.076 0 0 1-3.3-2.576 7.954 7.954 0 0 1-1.547-3.748 7.989 7.989 0 0 1-.078-1.056c0 .267-.014.531-.04.791-.4 4.032-3.826 7.21-7.96 7.21h-.768a7.914 7.914 0 0 1-3.07-.619 8.068 8.068 0 0 1-3.304-2.576l-.018-.025a7.94 7.94 0 0 1-1.608-4.78c0 4.067-3.08 7.445-7.021 7.932-.322.04-.647.067-.98.067H10c-4.399 0-8-3.6-8-8L6 10.66c0-4.4 3.602-8 8-8h32.956a.993.993 0 0 1-.654-.766L45.972.66H14c-5.456 0-9.905 4.394-9.998 9.83L.026 34.803a1.947 1.947 0 0 0-.026.323c0 5.514 4.487 10 10 10h.768c.306 0 .633-.023.98-.058.082-.009.159-.013.245-.024a9.997 9.997 0 0 0 6.783-3.939 10.466 10.466 0 0 0 1.152 1.264c.44.42.915.79 1.417 1.12a9.79 9.79 0 0 0 1.582.864c.26.11.524.2.79.286a9.882 9.882 0 0 0 3.052.487h.769a9.967 9.967 0 0 0 8.016-4.007c.347.457.736.866 1.143 1.252.438.415.907.784 1.405 1.11a9.839 9.839 0 0 0 1.586.87c.026.01.063.025.098.037.061.025.124.042.186.066a9.885 9.885 0 0 0 3.565.672h.77a9.992 9.992 0 0 0 8.008-4.018c.35.463.742.876 1.15 1.265.445.422.913.812 1.417 1.142a9.861 9.861 0 0 0 5.425 1.611h.767a9.993 9.993 0 0 0 8.01-4.018c.35.463.74.876 1.15 1.265.446.423.913.813 1.418 1.143a9.86 9.86 0 0 0 5.422 1.61h.77c.867 0 1.715-.123 2.541-.342l.087-.023a9.803 9.803 0 0 0 1.275-.433c.064-.027.129-.058.192-.09 1.577-.709 2.91-1.8 3.91-3.136a10.346 10.346 0 0 0 1.153 1.274c.445.424.913.814 1.42 1.145a9.885 9.885 0 0 0 5.422 1.605h.769a9.99 9.99 0 0 0 8.008-4.018c.35.463.742.876 1.15 1.265.445.422.913.813 1.418 1.142a9.861 9.861 0 0 0 5.424 1.611h.767a9.866 9.866 0 0 0 3.023-.48c.255-.082.51-.168.76-.27a10.057 10.057 0 0 0 4.228-3.266c.346.456.734.871 1.144 1.257.44.414.912.784 1.41 1.111a9.93 9.93 0 0 0 4.213 1.566c.085.011.162.015.245.024.346.035.672.058.977.058h.77c5.513 0 10-4.486 10-10 0-.108-.01-.216-.026-.323" fill="#262626" mask="url(#b)"/></g><path d="M114.198 127.91a7.931 7.931 0 0 0-2.504-.41H98.455c-3.926 0-7.208 2.87-7.87 6.614h28.98a8.043 8.043 0 0 0-5.367-6.204" fill="#2D689E"/><path d="M113.74 141.959H56.41a2.215 2.215 0 0 1-2.208-2.208c0-1.215.994-2.21 2.208-2.21h57.33c1.215 0 2.208.995 2.208 2.21a2.214 2.214 0 0 1-2.208 2.208m38.663-5.844H57.747c-4.4 0-8 3.6-8 8v8.313c0 4.4 3.6 8 8 8h94.656c4.4 0 8-3.6 8-8v-8.313c0-4.4-3.6-8-8-8" fill="#AFAFAF"/><path d="M64.693 40.604l.047.002.04-.002h-.087zM64.74 40.606c-4.186.022-6.668 3.456-6.668 7.654l-2.236 20.993c0 4.211 2.446 7.656 6.655 7.656h1c4.212 0 6.657-3.445 6.657-7.656l.679-21.629c0-4.195-1.91-6.996-6.086-7.018M48.443 41.23c.288 0 .572.015.852.041.254-.027.514-.042.782-.042h-1.634z" fill="#F90"/><path d="M49.296 41.27c-3.736.4-5.927 3.672-5.927 7.615l-3.782 20.994c0 4.21 2.445 7.655 6.655 7.655h1c4.21 0 6.656-3.445 6.656-7.655l2.227-21.63c0-3.922-3.013-6.626-6.83-6.978" fill="#F90"/><path d="M113.74 137.542H56.41a2.215 2.215 0 0 0-2.208 2.208c0 1.215.994 2.209 2.208 2.209h57.33a2.215 2.215 0 0 0 2.208-2.209 2.214 2.214 0 0 0-2.208-2.208" fill="#CECECE"/><path d="M126.533 50.934a1 1 0 0 1-.706 1.224l-34.493 9.28.407 1.523 38.323-9.702-4.114-14.736-.018-.061h-2.73l3.331 12.472z" fill="#E26100"/><path d="M102.67 23.314c2.286.001 4.138 1.892 4.137 4.225 0 2.333-1.854 4.223-4.14 4.222-2.285-.001-4.137-1.892-4.136-4.225 0-2.333 1.854-4.223 4.14-4.222zm3.789 28.357l-5.648-.004c-1.134-.033-1.938-.91-1.938-2.15l-.005-15.98 7.602.007-.011 18.127zM84.104 36.768a6.971 6.971 0 0 1 4.749 4.909 6.996 6.996 0 0 1-1.668 6.634l3.034 11.357 34.125-9.182-3.03-11.345a6.969 6.969 0 0 1-4.777-4.918 6.998 6.998 0 0 1 1.686-6.653l-3.03-11.344-34.123 9.183 3.034 11.359z" fill="#FF7300"/><path d="M115.193 16.226l3.03 11.344a6.997 6.997 0 0 0-1.685 6.653 6.966 6.966 0 0 0 4.776 4.918l3.03 11.345-34.125 9.182-3.034-11.357a6.996 6.996 0 0 0 1.668-6.634 6.971 6.971 0 0 0-4.75-4.91L81.07 25.41l34.123-9.183zm-32.891 21.53a.993.993 0 0 0 .652.767c.045.017.086.04.134.05a4.99 4.99 0 0 1 3.834 3.62 5.012 5.012 0 0 1-1.518 5.062 1.008 1.008 0 0 0-.3 1.01l3.442 12.887a1 1 0 0 0 1.225.708l1.564-.421 34.493-9.281c.532-.144.848-.692.706-1.224l-3.332-12.472-.11-.407a.998.998 0 0 0-.767-.723 5.011 5.011 0 0 1-1.807-.756 4.995 4.995 0 0 1-2.05-2.87 5.012 5.012 0 0 1 1.536-5.076.998.998 0 0 0 .303-1.008l-3.44-12.88a.996.996 0 0 0-1.226-.708l-36.054 9.703a1 1 0 0 0-.707 1.223l3.093 11.563.329 1.234z" fill="#262626"/><path d="M102.668 31.761c2.285.001 4.139-1.889 4.139-4.222.001-2.333-1.851-4.224-4.136-4.225-2.286 0-4.14 1.89-4.14 4.222-.001 2.333 1.851 4.224 4.137 4.225M98.868 33.537l.004 15.98c0 1.24.804 2.117 1.94 2.15l5.646.003.012-18.127-7.602-.006z" fill="#FFF"/></g></svg>