<svg width="210" height="210" viewBox="0 0 210 210" xmlns="http://www.w3.org/2000/svg" xmlns:xlink="http://www.w3.org/1999/xlink"><title>76694A84-E473-4235-8811-E7A10CB0522C</title><defs><path id="a" d="M189.37.053H0V170h189.37V.053z"/></defs><g fill="none" fill-rule="evenodd"><path d="M172.36 138.5v2.17c0 3.18 2.604 5.783 5.784 5.783 3.182 0 5.784-2.603 5.784-5.784v-2.17l-.203.001H172.36z" fill="#333"/><path d="M181.844 112.758h-8.09c-1.926 0-3.299.287-4.283.832-.023.013-.047.024-.069.037a3.804 3.804 0 0 0-1.18 1.046l-.055.075c-.29.415-.502.893-.654 1.432l-.038.14a9.683 9.683 0 0 0-.263 1.781l-.013.233c-.016.323-.027.656-.027 1.006v12.578c0 4.922.95 6.582 3.762 6.582h12.791c.071 0 .133 0 .203-.002 1.583-.007 2.626-.109 3.302-.444l.006-.003c.157-.079.295-.17.415-.277l.017-.016c.116-.106.218-.224.303-.36l.003-.005c.083-.135.152-.288.209-.455l.019-.063c.053-.167.097-.346.128-.547l.002-.009a7.441 7.441 0 0 0 .075-.812c.011-.239.019-.49.019-.768V119.34c0-.314-.009-.614-.022-.907l-.014-.223a13.034 13.034 0 0 0-.06-.685l-.02-.17a7.185 7.185 0 0 0-.363-1.543c-.006-.018-.014-.035-.021-.053a4.71 4.71 0 0 0-.298-.642c-.005-.007-.009-.016-.013-.024A3.911 3.911 0 0 0 186 113.55c-.976-.516-2.314-.792-4.156-.792" fill="#FF7300"/><path d="M23.529 80.81h-7.397a3.031 3.031 0 0 0-3.022 3.021v.891a3.031 3.031 0 0 0 3.022 3.022h7.397a3.031 3.031 0 0 0 3.022-3.022v-.89a3.031 3.031 0 0 0-3.022-3.023" fill="#F90"/><g transform="translate(10 20.947)"><mask id="b" fill="#fff"><use xlink:href="#a"/></mask><path d="M187.49 70.043a3.207 3.207 0 0 1-3.203 3.203H151.313a3.207 3.207 0 0 1-3.204-3.203v-8.978a3.206 3.206 0 0 1 3.204-3.202h32.974a3.206 3.206 0 0 1 3.203 3.202v8.978zm-9.875 24.104a4.837 4.837 0 0 1 .312.666l.02.052c.17.466.289.98.363 1.543.008.056.013.114.02.17.026.222.046.45.06.686l.014.222c.013.294.022.594.022.907v15.4a15.16 15.16 0 0 1-.027.919c-.015.237-.035.46-.067.66l-.001.01c-.032.2-.076.38-.128.546l-.02.063a2.196 2.196 0 0 1-.212.46 1.729 1.729 0 0 1-.303.36l-.016.017a1.92 1.92 0 0 1-.422.279c-.676.335-1.72.437-3.302.445v2.17c0 3.182-2.602 5.785-5.783 5.785-3.181 0-5.784-2.603-5.784-5.784v-2.17h-1.427c-2.812 0-3.761-1.66-3.761-6.581V98.393a20.25 20.25 0 0 1 .04-1.238 9.76 9.76 0 0 1 .262-1.781c.012-.047.025-.094.039-.14a4.7 4.7 0 0 1 .653-1.433l.055-.074a3.783 3.783 0 0 1 1.18-1.046l.069-.037c.984-.546 2.357-.832 4.284-.832h8.089c1.842 0 3.18.276 4.156.792v-.001c.724.383 1.247.9 1.615 1.544zm-25.948 6.86v12.689c0 2.812-1.661 3.76-6.582 3.76h-3.672v3.65c0 4.138-3.385 7.523-7.522 7.523H53.408c-4.137 0-7.522-3.385-7.522-7.522v-3.65h-1.081c-4.921 0-6.582-.95-6.582-3.761V98.296c0-4.921.949-6.581 3.76-6.581h104.983c3.886 0 4.7 3.579 4.7 6.582v2.71zM53.415 5.137a3.207 3.207 0 0 1 3.203-3.204h75.963c1.765 0 3.202 1.437 3.204 3.26l5.06 84.64h-92.49l5.06-84.696zm-21.217 95.87v10.127c0 4.92-.95 6.582-3.761 6.582H27.7v2.169c0 3.18-2.602 5.784-5.783 5.784-3.181 0-5.783-2.603-5.783-5.784v-2.17h-1.428c-.228 0-.44-.015-.644-.037h-.002c-.857-.096-1.507-.401-1.985-.975l-.018-.021a3.132 3.132 0 0 1-.184-.258l-.05-.076a3.571 3.571 0 0 1-.146-.268l-.06-.121a4.63 4.63 0 0 1-.174-.444 5.35 5.35 0 0 1-.147-.505 7.793 7.793 0 0 1-.073-.316c-.017-.081-.032-.166-.047-.251-.02-.108-.04-.217-.055-.331-.015-.098-.027-.202-.04-.305-.013-.111-.027-.222-.038-.34-.012-.12-.021-.248-.031-.376-.008-.11-.017-.217-.024-.332-.01-.156-.015-.321-.021-.485-.003-.098-.01-.192-.011-.293a28.813 28.813 0 0 1-.011-.847V98.556c0-.295.003-.576.01-.848.003-.101.009-.194.012-.292a22.9 22.9 0 0 1 .02-.485l.025-.333c.01-.127.019-.256.03-.377.012-.117.026-.227.04-.34.012-.102.024-.205.039-.303.016-.115.036-.223.055-.331a8.044 8.044 0 0 1 .12-.568 5.658 5.658 0 0 1 .205-.665c.037-.098.076-.194.117-.284.019-.041.039-.08.059-.12.046-.093.094-.184.146-.268.016-.027.033-.051.05-.076.058-.091.119-.18.184-.26l.017-.018c.592-.713 1.444-1.014 2.632-1.014h13.73c.778 0 1.408.132 1.919.419l.06.035a2.513 2.513 0 0 1 .499.388c.143.144.272.31.389.498.009.016.02.029.029.045.113.188.212.4.302.632l.039.109c.086.24.163.498.226.786l.006.029c.06.28.109.59.15.919l.02.156c.038.332.066.689.086 1.069l.009.227c.017.4.028.816.028 1.27v2.45zm-27.113-27.6a3.207 3.207 0 0 1-3.204-3.202v-8.977a3.207 3.207 0 0 1 3.204-3.203h32.974a3.207 3.207 0 0 1 3.203 3.203v8.977a3.207 3.207 0 0 1-3.203 3.203H5.085zm179.202-17.425h-32.974a5.09 5.09 0 0 0-5.085 5.083v8.978a5.09 5.09 0 0 0 5.085 5.084h8.977v15.208c-4.321 1.157-4.998 4.637-4.998 8.058v2.614h-1.745v-2.71c0-5.38-2.4-8.463-6.581-8.463h-4.24l-5.062-84.697A5.089 5.089 0 0 0 132.58.053H56.618c-2.804 0-5.084 2.28-5.082 5.028l-5.063 84.753h-4.49c-5.641 0-5.641 5.716-5.641 8.463v2.71h-2.263v-2.451c0-2.508-.015-7.476-4.307-8.325V75.289h8.287a5.09 5.09 0 0 0 5.084-5.084v-8.977a5.09 5.09 0 0 0-5.084-5.084H5.085A5.09 5.09 0 0 0 0 61.228v8.977a5.09 5.09 0 0 0 5.085 5.084h8.977v14.846c-4.983.43-4.998 5.785-4.998 8.42v12.579c0 2.636.015 7.989 4.998 8.42v5.28c0 4.137 3.385 7.522 7.522 7.522h.666c4.137 0 7.522-3.385 7.522-7.522v-3.801h13.333c-.072.629-.04 1.165-.04 1.779v4.982c0 3.255 2.099 6.036 5.007 7.078v26.984c0 4.137 3.385 7.522 7.522 7.522h.667c4.137 0 7.522-3.385 7.522-7.522v-26.54h59.56v27.162c0 4.137 3.386 7.522 7.523 7.522h.666c4.138 0 7.522-3.385 7.522-7.522v-27.543c2.999-.991 5.18-3.822 5.18-7.141v-4.982c0-.614.09-1.207-.05-1.78h16.106v3.64c0 4.137 3.385 7.522 7.522 7.522h.666c4.137 0 7.522-3.385 7.522-7.522v-5.35c2.909-.347 4.307-1.637 4.307-5.53v-15.4c0-3.226-.612-6.5-4.307-7.833V75.127h8.287a5.089 5.089 0 0 0 5.083-5.084v-8.978a5.088 5.088 0 0 0-5.083-5.083z" fill="#262626" mask="url(#b)"/></g><path d="M55.886 142.053c0 4.137 3.385 7.522 7.522 7.522h80.482c4.137 0 7.522-3.385 7.522-7.522v-3.65H55.886v3.65zM26.133 140.832c0 3.181 2.603 5.784 5.783 5.784 3.181 0 5.784-2.603 5.784-5.784v-2.17H26.133v2.17z" fill="#333"/><path d="M132.826 47.918c0 4.137-3.385 7.522-7.522 7.522H81.995c-4.137 0-7.522-3.385-7.522-7.522v-2.22c0-4.137 3.385-7.522 7.522-7.522h43.31c4.136 0 7.521 3.385 7.521 7.522v2.22zm0 23.307c0 4.137-3.385 7.522-7.522 7.522H81.995c-4.137 0-7.522-3.385-7.522-7.522v-2.22c0-4.137 3.385-7.522 7.522-7.522h43.31c4.136 0 7.521 3.385 7.521 7.522v2.22zm-.518 22.788c0 4.138-3.385 7.523-7.523 7.523H81.477c-4.137 0-7.522-3.385-7.522-7.523v-2.22c0-4.137 3.385-7.522 7.522-7.522h43.308c4.138 0 7.523 3.385 7.523 7.523v2.219zm13.477-67.873c-.002-1.823-1.439-3.26-3.205-3.26H66.617a3.208 3.208 0 0 0-3.203 3.204l-5.059 84.697h92.49l-5.06-84.641zM153.77 122.407H56.207a3.097 3.097 0 0 1-3.087-3.087v-.911a3.097 3.097 0 0 1 3.087-3.088h97.561a3.097 3.097 0 0 1 3.088 3.088v.91a3.096 3.096 0 0 1-3.088 3.088m3.196-9.745H51.983c-2.811 0-3.76 1.66-3.76 6.58v15.401c0 2.812 1.66 3.76 6.581 3.76H155.084c4.922 0 6.583-.948 6.583-3.76V119.243c0-3.002-.816-6.581-4.702-6.581M42.16 118.006c-.02-.381-.048-.738-.085-1.07l-.02-.156c-.04-.328-.09-.637-.15-.918l-.006-.03a6.298 6.298 0 0 0-.227-.785l-.039-.11a4.041 4.041 0 0 0-.302-.632l-.029-.044a2.888 2.888 0 0 0-.389-.5l-.014-.015a2.48 2.48 0 0 0-.484-.371l-.06-.035c-.512-.287-1.142-.42-1.918-.42H24.705c-1.187 0-2.039.302-2.63 1.015a2.795 2.795 0 0 0-.202.278c-.017.025-.035.049-.05.075a4.26 4.26 0 0 0-.147.269c-.019.04-.04.078-.059.12-.04.09-.079.186-.116.284a4.905 4.905 0 0 0-.206.665c-.025.102-.05.207-.073.316a14.16 14.16 0 0 0-.102.582 12.65 12.65 0 0 0-.039.305 15.17 15.17 0 0 0-.039.339c-.012.12-.02.249-.03.377-.009.11-.018.217-.025.332-.009.156-.014.32-.02.486-.004.098-.009.19-.012.292a32.82 32.82 0 0 0-.01.847v12.579c0 .294.003.575.01.847l.011.292c.007.165.012.33.021.486.007.115.016.222.025.332.01.127.018.256.03.377.012.117.025.227.04.339.011.103.024.206.038.305a12.606 12.606 0 0 0 .102.582 7.793 7.793 0 0 0 .22.82l.06.162c.036.097.074.193.115.283l.06.12c.046.094.094.185.145.269l.05.076c.06.09.12.178.184.258l.02.02c.477.575 1.127.88 1.983.975h.002c.204.023.416.039.644.039H38.437c2.811 0 3.761-1.661 3.761-6.582v-12.579c0-.453-.01-.87-.028-1.27l-.01-.226M39.772 94.355h8.287a3.207 3.207 0 0 0 3.203-3.203v-8.977a3.207 3.207 0 0 0-3.203-3.204H15.085a3.207 3.207 0 0 0-3.204 3.204v8.977a3.207 3.207 0 0 0 3.204 3.203h24.687zM163.132 87.744a3.031 3.031 0 0 1-3.022-3.022v-.89a3.031 3.031 0 0 1 3.022-3.023h7.397a3.031 3.031 0 0 1 3.022 3.022v.891a3.031 3.031 0 0 1-3.022 3.022h-7.397zm31.155-8.935h-32.975a3.207 3.207 0 0 0-3.204 3.203v8.977a3.207 3.207 0 0 0 3.204 3.204h32.975a3.207 3.207 0 0 0 3.203-3.204v-8.977a3.207 3.207 0 0 0-3.203-3.203z" fill="#FF7300"/><path d="M125.304 38.176H81.995c-4.137 0-7.522 3.385-7.522 7.522v2.22c0 4.137 3.385 7.522 7.522 7.522h43.309c4.137 0 7.522-3.385 7.522-7.522v-2.22c0-4.137-3.385-7.522-7.522-7.522M125.304 61.482H81.995c-4.137 0-7.522 3.385-7.522 7.522v2.22c0 4.137 3.385 7.522 7.522 7.522h43.309c4.137 0 7.522-3.385 7.522-7.522v-2.22c0-4.137-3.385-7.522-7.522-7.522M124.786 84.271H81.478c-4.138 0-7.523 3.385-7.523 7.522v2.22c0 4.137 3.385 7.522 7.523 7.522h43.308c4.137 0 7.522-3.385 7.522-7.522v-2.22c0-4.137-3.385-7.522-7.522-7.522M156.857 119.32v-.911a3.096 3.096 0 0 0-3.087-3.087H56.209a3.097 3.097 0 0 0-3.087 3.087v.91a3.097 3.097 0 0 0 3.087 3.088h97.56a3.096 3.096 0 0 0 3.088-3.087M173.55 84.723v-.892a3.03 3.03 0 0 0-3.021-3.021h-7.397a3.03 3.03 0 0 0-3.021 3.02v.893a3.03 3.03 0 0 0 3.02 3.022h7.398a3.031 3.031 0 0 0 3.022-3.022" fill="#F90"/></g></svg>