<svg width="210" height="210" viewBox="0 0 210 210" xmlns="http://www.w3.org/2000/svg" xmlns:xlink="http://www.w3.org/1999/xlink"><title>6FC71F2B-4B51-469E-A1D3-F7925F986ADF</title><defs><path id="a" d="M189.37 170V.053H0V170z"/></defs><g fill="none" fill-rule="evenodd"><g transform="translate(10 20.947)"><mask id="b" fill="#fff"><use xlink:href="#a"/></mask><path d="M187.49 70.043a3.207 3.207 0 0 1-3.204 3.203h-32.973a3.207 3.207 0 0 1-3.204-3.203v-8.978a3.206 3.206 0 0 1 3.203-3.202h32.974a3.206 3.206 0 0 1 3.203 3.202v8.978zM176 92.603c.724.384 1.246.9 1.614 1.544a4.688 4.688 0 0 1 .312.665c.006.018.014.036.021.053.17.466.288.98.363 1.543.007.055.012.114.02.17.025.222.045.45.06.686l.014.222c.013.294.022.594.022.907v15.4a15.16 15.16 0 0 1-.027.919c-.016.237-.036.46-.066.66l-.002.01c-.032.2-.076.38-.129.546-.006.02-.012.043-.02.063a2.196 2.196 0 0 1-.208.456l-.004.004a1.699 1.699 0 0 1-.303.36c-.006.006-.01.012-.017.017a1.888 1.888 0 0 1-.415.277c-.002 0-.004 0-.006.002-.675.335-1.719.437-3.302.445v2.17c0 3.182-2.601 5.785-5.782 5.785s-5.785-2.603-5.785-5.784v-2.17h-1.427c-2.811 0-3.76-1.66-3.76-6.581V98.393a20.25 20.25 0 0 1 .04-1.238 9.76 9.76 0 0 1 .262-1.781l.038-.14a4.7 4.7 0 0 1 .654-1.433l.054-.074a3.79 3.79 0 0 1 1.18-1.046l.07-.037c.983-.546 2.356-.832 4.284-.832h8.089c1.841 0 3.18.276 4.156.792v-.001zm-24.333 8.404v12.689c0 2.812-1.661 3.76-6.583 3.76h-3.672v3.65c0 4.138-3.385 7.523-7.522 7.523H53.409c-4.138 0-7.523-3.385-7.523-7.522v-3.65h-1.08c-4.922 0-6.583-.95-6.583-3.761V98.296c0-4.921.95-6.581 3.761-6.581h104.983c3.885 0 4.7 3.579 4.7 6.582v2.71zM53.415 5.137a3.208 3.208 0 0 1 3.203-3.204h75.962c1.765 0 3.202 1.438 3.204 3.26l5.06 84.64H109.3c-.105.129-.207.258-.332.37a3.332 3.332 0 0 1-2.24.874H81.745c-.823 0-1.618-.31-2.239-.874-.123-.112-.225-.242-.33-.37H48.355l5.06-84.696zm-21.218 95.87v10.127c0 4.92-.949 6.582-3.76 6.582h-.738v2.17c0 3.18-2.602 5.783-5.783 5.783-3.18 0-5.782-2.603-5.782-5.783v-2.17h-1.428c-1.188 0-2.041-.302-2.633-1.016l-.016-.017a2.819 2.819 0 0 1-.186-.26c-.016-.025-.034-.05-.049-.075a3.265 3.265 0 0 1-.145-.27l-.06-.118a4.976 4.976 0 0 1-.175-.444 5.658 5.658 0 0 1-.146-.505 8.26 8.26 0 0 1-.12-.568c-.02-.108-.04-.217-.056-.331-.014-.098-.026-.202-.038-.305-.014-.111-.029-.222-.04-.34-.011-.12-.02-.248-.03-.375-.008-.111-.018-.218-.024-.333-.01-.156-.015-.321-.021-.485-.004-.098-.01-.192-.011-.293a32.76 32.76 0 0 1-.011-.847V98.556c0-.295.003-.576.01-.847.002-.102.008-.195.011-.293.007-.164.013-.33.022-.485.007-.115.016-.223.024-.333.01-.127.018-.256.03-.377.011-.117.026-.227.04-.34.011-.102.023-.205.038-.303.017-.114.037-.223.056-.331a7.793 7.793 0 0 1 .267-1.073 5.953 5.953 0 0 1 .175-.444c.018-.041.038-.08.059-.12.046-.093.094-.184.146-.27.014-.025.032-.048.05-.074.058-.091.119-.18.184-.26l.016-.018c.479-.576 1.13-.88 1.986-.976h.003c.204-.023.415-.038.644-.038h13.73c.777 0 1.407.132 1.919.419l.06.035a2.513 2.513 0 0 1 .498.388c.143.144.273.31.39.498.008.016.02.029.028.045.114.188.213.4.302.632.014.035.027.073.04.109.086.24.163.498.226.786l.005.029c.061.28.11.59.15.919a17.58 17.58 0 0 1 .106 1.225c.005.074.007.152.01.227.017.4.027.816.027 1.27v2.45zm-27.113-27.6a3.207 3.207 0 0 1-3.203-3.202v-8.977a3.207 3.207 0 0 1 3.204-3.203h32.974a3.207 3.207 0 0 1 3.203 3.203v8.977a3.207 3.207 0 0 1-3.203 3.203H5.084zm179.202-17.425h-32.974a5.09 5.09 0 0 0-5.085 5.083v8.978a5.09 5.09 0 0 0 5.085 5.084h8.977v15.208c-4.32 1.157-4.997 4.637-4.997 8.058v2.614h-1.745v-2.71c0-5.378-2.4-8.463-6.582-8.463h-4.238l-5.064-84.697A5.089 5.089 0 0 0 132.58.053H56.618c-2.803 0-5.084 2.28-5.081 5.028l-5.064 84.753h-4.489c-5.641 0-5.641 5.716-5.641 8.463v2.71h-2.264v-2.451c0-2.508-.015-7.476-4.307-8.325V75.289h8.288a5.09 5.09 0 0 0 5.084-5.084v-8.977a5.09 5.09 0 0 0-5.084-5.084h-6.106c-.023.066-.035.133-.063.198a2.355 2.355 0 0 1-2.168 1.427H13.77c-.94 0-1.79-.56-2.163-1.427-.028-.064-.041-.132-.063-.198h-6.46A5.09 5.09 0 0 0 0 61.228v8.977a5.09 5.09 0 0 0 5.085 5.084h8.977v14.846c-4.983.43-4.998 5.785-4.998 8.42v12.579c0 2.636.014 7.99 4.998 8.42v5.28c0 4.137 3.385 7.522 7.522 7.522h.666c4.137 0 7.521-3.385 7.521-7.522v-3.801h13.334c-.072.629-.04 1.165-.04 1.779v4.982c0 3.255 2.099 6.036 5.007 7.078v26.984c0 4.137 3.384 7.522 7.521 7.522h.667c4.138 0 7.523-3.385 7.523-7.522v-26.54h59.56v27.162c0 4.137 3.385 7.522 7.522 7.522h.666c4.138 0 7.523-3.385 7.523-7.522v-27.543c2.999-.991 5.18-3.822 5.18-7.141v-4.982c0-.614.09-1.207-.05-1.78h16.106v3.64c0 4.137 3.385 7.522 7.522 7.522h.665c4.137 0 7.523-3.385 7.523-7.522v-5.35c2.909-.347 4.306-1.637 4.306-5.53v-15.4c0-3.226-.612-6.5-4.306-7.833V75.127h8.286a5.09 5.09 0 0 0 5.084-5.084v-8.978a5.09 5.09 0 0 0-5.084-5.083z" fill="#262626" mask="url(#b)"/></g><path d="M55.886 142.053c0 4.137 3.385 7.522 7.522 7.522h80.483c4.137 0 7.522-3.385 7.522-7.522v-3.65H55.886v3.65zM26.133 140.832c0 3.181 2.603 5.783 5.783 5.783 3.182 0 5.784-2.602 5.784-5.783v-2.17H26.133v2.17zM172.36 138.5v2.17c0 3.18 2.604 5.783 5.784 5.783 3.182 0 5.784-2.603 5.784-5.784v-2.17l-.203.001H172.36z" fill="#333"/><path d="M88.403 108.684l-.518-7.148h-6.408c-4.137 0-7.522-3.385-7.522-7.523v-2.22c0-4.137 3.385-7.522 7.522-7.522h5.157l-.4-5.524h-4.239c-4.137 0-7.523-3.385-7.523-7.522v-2.22c0-4.137 3.386-7.522 7.523-7.522h1.317a2.87 2.87 0 0 1 .661-.448c.266-.132.54-.221.82-.266.105-1.493 1.395-2.675 2.906-2.625a2.003 2.003 0 0 1 1.81-.287 2.11 2.11 0 0 1 2.05-2.028c.118-.148.262-.271.41-.39h-9.974c-4.137 0-7.523-3.384-7.523-7.521v-2.22c0-4.137 3.386-7.522 7.523-7.522h43.308c4.138 0 7.523 3.385 7.523 7.522v2.22c0 4.137-3.385 7.522-7.523 7.522h-6.055c.084.059.168.119.244.19 1.211-.24 2.45.583 2.737 1.754a2.835 2.835 0 0 1 2.646 2.619 2.822 2.822 0 0 1 1.971 1.308c.075.12.115.255.171.383 3.317.78 5.81 3.764 5.81 7.31v2.22c0 4.138-3.386 7.523-7.524 7.523h-3.065l-.4 5.524h2.947c4.138 0 7.522 3.385 7.522 7.522v2.22c0 4.138-3.384 7.523-7.522 7.523h-4.196l-.52 7.19a3.277 3.277 0 0 1-.77 2.055h31.545l-5.06-84.641c-.002-1.823-1.439-3.26-3.204-3.26H66.617a3.207 3.207 0 0 0-3.203 3.204l-5.06 84.697h30.822a3.313 3.313 0 0 1-.773-2.097M157.018 119.158a3.096 3.096 0 0 1-3.087 3.087H56.37a3.097 3.097 0 0 1-3.087-3.087v-.91a3.097 3.097 0 0 1 3.087-3.088h97.56a3.096 3.096 0 0 1 3.088 3.087v.911zm-.053-6.497H51.984c-2.812 0-3.762 1.661-3.762 6.582V134.643c0 2.811 1.66 3.76 6.582 3.76H155.085c4.92 0 6.582-.949 6.582-3.76V119.242c0-3.003-.816-6.582-4.702-6.582zM42.16 118.006c-.02-.381-.048-.738-.085-1.07l-.02-.156c-.04-.328-.09-.637-.15-.918l-.006-.03a6.298 6.298 0 0 0-.227-.785c-.012-.037-.026-.074-.039-.11a4.041 4.041 0 0 0-.302-.632l-.029-.044a2.888 2.888 0 0 0-.389-.5l-.014-.015a2.51 2.51 0 0 0-.544-.406c-.512-.287-1.142-.42-1.919-.42h-13.73c-.229 0-.44.016-.645.039-.859.095-1.509.4-1.987.976a2.996 2.996 0 0 0-.202.278c-.017.025-.034.049-.05.075a3.595 3.595 0 0 0-.146.269c-.019.039-.04.078-.059.12-.04.09-.08.186-.117.284l-.058.16a6.328 6.328 0 0 0-.147.505 6.418 6.418 0 0 0-.12.568c-.019.108-.038.216-.055.33a12.65 12.65 0 0 0-.039.305 15.17 15.17 0 0 0-.039.339c-.012.12-.02.25-.03.377-.009.11-.018.217-.025.332-.009.156-.014.32-.02.486-.004.098-.009.19-.012.292a32.82 32.82 0 0 0-.01.847v12.579c0 .294.003.575.01.847.003.1.008.194.012.292.006.165.011.33.02.486.007.115.016.222.025.332.01.127.018.256.03.377.012.117.025.227.04.339.011.103.024.206.038.305a12.692 12.692 0 0 0 .103.582 7.815 7.815 0 0 0 .126.52c.03.104.061.205.093.3l.058.16c.037.099.076.195.118.286.018.04.04.079.058.119.047.093.094.184.146.269.016.026.033.05.05.075.06.09.12.179.185.26l.016.017c.591.714 1.444 1.016 2.632 1.016H38.436c2.812 0 3.762-1.661 3.762-6.582v-12.579c0-.453-.01-.87-.028-1.27l-.01-.226M181.844 112.758h-8.09c-1.926 0-3.3.287-4.283.832l-.07.037a3.794 3.794 0 0 0-1.18 1.047l-.054.074c-.29.414-.502.893-.654 1.432l-.038.14a9.602 9.602 0 0 0-.262 1.781l-.014.233c-.016.323-.027.656-.027 1.006v12.578c0 4.922.95 6.582 3.76 6.582h12.792c.072 0 .135 0 .204-.002 1.583-.008 2.626-.109 3.302-.444l.006-.003c.157-.079.295-.17.415-.277l.017-.016c.116-.106.218-.225.303-.36 0-.002.002-.003.003-.005.083-.135.152-.288.209-.455l.019-.063c.053-.167.097-.346.128-.547l.002-.009a7.12 7.12 0 0 0 .075-.812c.01-.239.019-.49.019-.768V119.34c0-.314-.01-.614-.022-.908l-.014-.222a13.034 13.034 0 0 0-.06-.685l-.02-.17a7.185 7.185 0 0 0-.363-1.543c-.006-.018-.014-.035-.021-.053a4.697 4.697 0 0 0-.298-.64l-.013-.026A3.911 3.911 0 0 0 186 113.55c-.976-.516-2.314-.792-4.156-.792M13.902 84.718v-.892a3.03 3.03 0 0 1 3.022-3.021h7.397a3.03 3.03 0 0 1 3.02 3.02v.893a3.03 3.03 0 0 1-3.02 3.022h-7.397a3.031 3.031 0 0 1-3.022-3.022zm25.87 9.637h8.287a3.207 3.207 0 0 0 3.203-3.203v-8.977a3.207 3.207 0 0 0-3.203-3.204H15.085a3.207 3.207 0 0 0-3.204 3.204v8.977a3.207 3.207 0 0 0 3.204 3.203h24.687zM173.342 84.718a3.031 3.031 0 0 1-3.022 3.022h-7.397a3.03 3.03 0 0 1-3.021-3.022v-.892a3.03 3.03 0 0 1 3.021-3.021h7.397a3.03 3.03 0 0 1 3.022 3.02v.893zm20.945-5.91h-32.975a3.207 3.207 0 0 0-3.204 3.204v8.978a3.207 3.207 0 0 0 3.204 3.203h32.975a3.207 3.207 0 0 0 3.202-3.203v-8.978a3.207 3.207 0 0 0-3.202-3.203z" fill="#999"/><path d="M91.974 53.328a2.354 2.354 0 0 1 2.35-2.351c.776 0 1.475.398 1.908 1.013a2.592 2.592 0 0 1 1.289-2.422 2.611 2.611 0 0 1 1.61-.325 2.808 2.808 0 0 1 1.512-.74 2.833 2.833 0 0 1 2.822-2.625c.293 0 .579.06.857.15a2.821 2.821 0 0 1 5.149.261 2.928 2.928 0 0 1 2.387 1.837c.179-.045.362-.07.548-.07a2.353 2.353 0 0 1 1.994 3.597l.046.102c.2.107.392.229.574.366a2.417 2.417 0 0 1 2.969 2.826c.032.039.062.078.09.116.43.006.83.142 1.169.377h6.056c4.137 0 7.522-3.385 7.522-7.522v-2.22c0-4.137-3.385-7.522-7.522-7.522h-43.31c-4.136 0-7.521 3.385-7.521 7.522v2.22c0 4.137 3.385 7.522 7.522 7.522h9.975c.218-.174.456-.324.725-.423a2.345 2.345 0 0 1-.721-1.69M125.634 65.356a2.911 2.911 0 0 1-2.167 4.862h-.611l-.618 8.528h3.066c4.137 0 7.522-3.384 7.522-7.521v-2.22c0-3.547-2.491-6.53-5.808-7.311.154.354.26.724.26 1.107 0 1.106-.665 2.1-1.644 2.556M85.005 70.218a2.919 2.919 0 0 1-2.914-2.915c0-.783.319-1.51.862-2.051a2.813 2.813 0 0 1-.564-1.688c0-.808.34-1.555.924-2.082h-1.318c-4.137 0-7.522 3.385-7.522 7.523v2.219c0 4.138 3.385 7.523 7.522 7.523h4.239l-.617-8.53h-.612zM81.477 84.271c-4.137 0-7.522 3.385-7.522 7.522v2.22c0 4.137 3.385 7.522 7.522 7.522h6.408l-1.25-17.264h-5.158zM124.786 101.535c4.137 0 7.522-3.385 7.522-7.522v-2.22c0-4.137-3.385-7.522-7.522-7.522h-2.947l-1.25 17.264h4.197zM153.93 115.16H56.37a3.097 3.097 0 0 0-3.087 3.087v.91a3.097 3.097 0 0 0 3.087 3.089h97.56a3.097 3.097 0 0 0 3.088-3.088v-.911a3.096 3.096 0 0 0-3.087-3.087M27.342 84.718v-.892a3.03 3.03 0 0 0-3.022-3.021h-7.397a3.03 3.03 0 0 0-3.021 3.02v.893a3.03 3.03 0 0 0 3.021 3.022h7.397a3.031 3.031 0 0 0 3.022-3.022M170.32 80.804h-7.397a3.031 3.031 0 0 0-3.022 3.022v.892a3.031 3.031 0 0 0 3.022 3.022h7.397a3.031 3.031 0 0 0 3.022-3.022v-.892a3.031 3.031 0 0 0-3.022-3.021" fill="#AFAFAF"/><path d="M36.613 31.138a.38.38 0 0 0 0-.536.39.39 0 0 0-.536 0l-4.792 4.792a.381.381 0 0 0-.11.271v6.35h.757v-6.196l4.68-4.68z" fill="#FF3"/><path d="M31.175 35.685v-.02c0-.104.039-.199.11-.27l4.792-4.793a.39.39 0 0 1 .536 0 .38.38 0 0 1 0 .536l-4.681 4.681v6.195h.53v-5.976l4.525-4.526a.909.909 0 0 0 0-1.284.932.932 0 0 0-1.284 0L30.91 35.02a.902.902 0 0 0-.265.628v6.366h.529v-6.329z" fill="#262626"/><path d="M29.932 74.678c0 1.164-.423 2.117-1.588 2.117H24.77c-1.164 0-1.588-.953-1.588-2.117l-.654-10.97-.372-.026.786 12.63c0 .497.372.875.828.875h15.952a.828.828 0 0 0 .826-.826l.7-11.281-11.943-.888.626 10.486zM21.61 48.315H21.2l.574 9.226.386.024zM28.986 57.998l5.132.339 7.52.476v-.014l.653-10.481-13.883-.002z" fill="#3478C1"/><path d="M23.77 78.716h15.952c.944 0 1.795-.561 2.167-1.427.028-.065.041-.132.063-.198.076-.23.125-.462.125-.683L43.843 48c-.102.05-.203.102-.31.14a2.835 2.835 0 0 1-.985.178h-.258l-.651 10.48v.014l.001.02.22.015.168.01-.408 6.213-.002.037-.148-.01-.22-.017-.702 11.28a.828.828 0 0 1-.826.827H23.77c-.456 0-.827-.378-.828-.874l-.786-12.631-.003-.043-.226-.016-.058-1.72-.24-3.87.11.007-.016-.48.054.004-.002-.023-.573-9.226h-.548a2.908 2.908 0 0 1-.642-.088 2.871 2.871 0 0 1-.356-.122l1.759 28.256c0 .25.05.493.129.73.022.066.035.133.063.198a2.355 2.355 0 0 0 2.164 1.427" fill="#262626"/><path fill="#CECECE" d="M28.986 57.998l-.05-.003.37 6.197 11.943.889.222.016.147.01.003-.036.408-6.213-.17-.011-.22-.014-7.521-.496zM22.528 63.708l-.367-6.143-.26.006-.124-.008-.054-.003.016.48.13 3.864.058 1.72.226.015.185.013z"/><path fill="#4F9BD3" d="M28.936 57.994l-.578-9.678H21.61l.552 9.25zM23.183 74.678c0 1.164.424 2.117 1.588 2.117h3.573c1.164 0 1.588-.953 1.588-2.117l-.626-10.486-6.778-.483.655 10.969z"/><path fill="#FFF" d="M22.528 63.708l6.777.483-.37-6.197-6.774-.429z"/><path d="M19.364 45.436c0 .746.606 1.353 1.352 1.353H42.55c.746 0 1.352-.607 1.352-1.353v-.54c0-.745-.606-1.352-1.352-1.352H28.614a1.46 1.46 0 0 1 1.163 1.426c0 .8-.655 1.455-1.455 1.455h-6.677a1.46 1.46 0 0 1-1.455-1.455c0-.701.501-1.29 1.163-1.426h-.637c-.746 0-1.352.607-1.352 1.352v.54z" fill="#CECECE"/><path fill="#262626" d="M20.716 47.788h-.002l.002.03z"/><path d="M20.716 47.817l-.002-.029h.002v.03zm0-4.274h.637c.095-.019.193-.03.293-.03h6.676c.1 0 .198.011.292.03h13.935c.746 0 1.353.607 1.353 1.353v.54c0 .745-.607 1.352-1.353 1.352H20.716a1.354 1.354 0 0 1-1.352-1.353v-.539c0-.746.607-1.353 1.352-1.353zm-.062 4.772h.956l6.748.001h.05l13.883.001h.258a2.813 2.813 0 0 0 .983-.176c.108-.04.209-.09.31-.14a2.887 2.887 0 0 0 1.589-2.566v-.539a2.885 2.885 0 0 0-2.882-2.882H20.715a2.885 2.885 0 0 0-2.88 2.882v.54a2.87 2.87 0 0 0 1.82 2.668c.117.046.233.092.357.123.213.054.43.083.642.088z" fill="#262626"/><path d="M20.19 44.97a1.46 1.46 0 0 0 1.456 1.455h6.676c.8 0 1.455-.655 1.455-1.456a1.462 1.462 0 0 0-1.455-1.456h-6.676a1.462 1.462 0 0 0-1.456 1.456" fill="#EBEBEB"/><path d="M94.324 52.608a.721.721 0 0 0-.72.72.72.72 0 0 0 .678.714l.69.04.062-.672c.011-.48-.313-.802-.71-.802M96.098 54.463c.268-.223.586-.366.918-.466a1.777 1.777 0 0 0-1.32-.069l-.672.233-.166.31c.188-.084.39-.144.61-.144.22 0 .433.047.63.136M87.873 64.389a1.868 1.868 0 0 1-.506-1.02 1.851 1.851 0 0 1 1.417-2.096l.02-.24a1.077 1.077 0 0 0-.045-.393l-.12-.41.386-.182a.35.35 0 0 0 .203-.315.35.35 0 0 0-.35-.35.35.35 0 0 0-.311.198l-.191.383-.408-.13a1.194 1.194 0 0 0-.353-.062c-.661 0-1.2.538-1.2 1.2 0 .36.164.625.3.782l.267.306-.624.873-.42-.32a1.187 1.187 0 0 0-.72-.247 1.2 1.2 0 0 0-1.2 1.198c0 .349.162.672.426.897.188-.037.376-.072.56-.072h2.869zM93.348 59.543a2.27 2.27 0 0 1 .483 3.169 2.24 2.24 0 0 1-.566.537 3.788 3.788 0 0 1 1.098 1.14h3.118a7.863 7.863 0 0 1-.995-3.806c0-.595.067-1.174.191-1.731a2.634 2.634 0 0 1-1.068-.912c-.023-.001-.045-.003-.068-.003-.195 0-.387.01-.578.029.047-.123.074-.254.086-.39a2.3 2.3 0 0 0 .467.223 2.548 2.548 0 0 1-.197-.407 1.518 1.518 0 0 1-1.18-.794l-.319-.084a.887.887 0 0 0-.227-.036.96.96 0 0 0-.942.756l-.16.712-.608-.407c-.295-.2-.745.038-.746.398 0 .122.048.216.088.273l.257.364-.332.297c-.202.18-.35.407-.446.653.284-.201.607-.342.96-.396a2.25 2.25 0 0 1 1.684.415M118.874 62.69l-.017.046a2.49 2.49 0 0 1-.148 1.653h4.758c.176 0 .352.02.527.053.03-.054.079-.11.105-.164l.126-.27.297-.018a1.196 1.196 0 0 0 1.128-1.19 1.2 1.2 0 0 0-1.2-1.198c-.09 0-.185.014-.301.044l-.29.077-.203-.22a2.517 2.517 0 0 0-.321-.288l-.301-.226.135-.351c.055-.145.083-.29.083-.431a1.199 1.199 0 1 0-2.368.256l.08.369-.333.179c-.057.03-.11.066-.162.1l-.217.144a1.535 1.535 0 0 1-1.378 1.435M119.945 58.657a.722.722 0 0 0 0-1.441.707.707 0 0 0-.54.253l-.507.585.62.458a.721.721 0 0 0 .427.145M111.247 51.153a2.966 2.966 0 0 1-.348.306l-.327.246a2.75 2.75 0 0 1-1.004 1.8 1.611 1.611 0 0 1 .476 1.504 7.898 7.898 0 0 1 2.23 6.55 7.912 7.912 0 0 1 1.528.182c.004-.282.053-.562.145-.827a1.535 1.535 0 0 1-1.02-1.442c0-.847.688-1.536 1.535-1.536.752 0 1.38.545 1.51 1.26a2.612 2.612 0 0 1 2.123.565c.197-.09.411-.135.63-.135.008 0 .014.004.022.004a1.67 1.67 0 0 0 .023-.257 1.66 1.66 0 0 0-.038-.354l-.13-.62-.035.039-.008-.235-.099-.471.087.064-.02-.64c-.01-.355-.454-.58-.743-.381l-.605.407-.16-.712a.965.965 0 0 0-.613-.692l-.69-.254.491-.55a.77.77 0 0 0 .202-.516c0-.516-.522-.92-1.033-.731.195.337.312.724.312 1.14a2.304 2.304 0 1 1-4.608 0c0-1.143.836-2.085 1.93-2.265a1.721 1.721 0 0 0-.433-.747l-.495-.498.633-.305a.714.714 0 0 0 .411-.646.721.721 0 0 0-.72-.721.698.698 0 0 0-.452.179c-.074.289-.182.57-.346.828a2.826 2.826 0 0 1-.36.46" fill="#FFF988"/><path d="M119.404 57.469a.71.71 0 0 1 .541-.253c.397 0 .721.323.721.72 0 .398-.324.72-.72.72a.721.721 0 0 1-.428-.143l-.62-.458.506-.586zm-.678.458l-.025-.027c.01-.01.021-.016.03-.025 0 .017-.005.034-.005.052zm-.738-2.98a2.417 2.417 0 0 0-2.969-2.826 4.292 4.292 0 0 0-.574-.366c-.015-.034-.03-.07-.046-.102a2.354 2.354 0 0 0-1.994-3.598 2.3 2.3 0 0 0-.548.07 2.791 2.791 0 0 1 .201 1.026c0 .175-.017.345-.049.512-.01.069-.039.134-.056.2a.7.7 0 0 1 .452-.178c.397 0 .721.324.721.72a.715.715 0 0 1-.41.647l-.634.305.495.498c.212.214.354.472.432.747.123-.02.246-.038.375-.038.048 0 .096.004.143.007a2.296 2.296 0 0 1 1.547.735c.118.127.215.27.302.422.511-.19 1.033.214 1.033.73a.77.77 0 0 1-.202.517l-.492.549.691.254c.31.114.54.373.611.692l.161.712.606-.407c.29-.2.731.026.742.382l.021.639-.087-.064.1.47.007.236.034-.04.131.62c.026.12.038.239.038.355 0 .088-.01.173-.023.257a1.539 1.539 0 0 1 1.435 1.07c.046.147.078.3.078.462 0 .032-.007.062-.009.093l.217-.143c.053-.036.106-.071.163-.101l.334-.18-.082-.368a1.2 1.2 0 1 1 2.369-.256c0 .14-.029.285-.083.43l-.135.352.301.226c.115.087.222.184.321.289l.203.218.29-.076c.115-.03.211-.044.301-.044a1.2 1.2 0 0 1 1.2 1.199c0 .628-.496 1.15-1.129 1.189l-.297.018-.126.27c-.025.054-.073.11-.105.164a2.898 2.898 0 0 1 1.64.915 2.841 2.841 0 0 0 1.645-2.556c0-.383-.106-.754-.26-1.107-.057-.13-.097-.262-.172-.383a2.819 2.819 0 0 0-1.97-1.308 2.834 2.834 0 0 0-2.647-2.62c-.288-1.17-1.526-1.993-2.737-1.752a2.113 2.113 0 0 0-.244-.191 2.093 2.093 0 0 0-1.168-.377l-.092-.116zM94.973 54.083l-.69-.041a.718.718 0 0 1 .042-1.434c.397 0 .72.323.71.802l-.062.673zm-12.02 11.169a2.96 2.96 0 0 1 .503-.413c.259-.163.54-.284.835-.358.05-.013.102-.01.153-.02a1.18 1.18 0 0 1-.425-.897 1.2 1.2 0 0 1 1.199-1.198c.257 0 .506.086.72.248l.42.319.624-.873-.267-.306a1.184 1.184 0 0 1-.3-.782c0-.661.538-1.2 1.2-1.2.106 0 .22.02.353.062l.408.13.19-.383a.35.35 0 0 1 .312-.197.349.349 0 1 1 .147.664l-.386.182.12.41c.036.127.054.232.045.393l-.02.24c.314-.076.645-.086.964.008l.003-.033c.019-.38.134-.745.333-1.068.032-.052.06-.105.096-.154.147-.2.328-.363.524-.502.097-.246.245-.472.447-.653l.332-.297-.257-.364a.473.473 0 0 1-.088-.273c0-.36.45-.598.746-.398l.607.407.16-.712a.96.96 0 0 1 .943-.756c.063 0 .132.01.227.036l.318.084a1.493 1.493 0 0 1-.19-.567c-.007-.056-.017-.11-.017-.168a1.535 1.535 0 0 1 .926-1.392l.167-.31.672-.232a1.77 1.77 0 0 1 1.319.068c.094-.028.184-.064.28-.082a2.566 2.566 0 0 1-.727-.796l-.057-.111a2.597 2.597 0 0 1-.28-1.018 2.34 2.34 0 0 0-1.907-1.012 2.353 2.353 0 0 0-2.351 2.35c0 .645.267 1.253.72 1.69a2.585 2.585 0 0 0-.724.422 2.518 2.518 0 0 0-.41.389 2.11 2.11 0 0 0-2.05 2.028 2.003 2.003 0 0 0-1.81.287c-1.511-.05-2.801 1.132-2.908 2.626a2.835 2.835 0 0 0-.818.265c-.245.12-.467.272-.661.448a2.791 2.791 0 0 0-.924 2.08c0 .617.203 1.205.564 1.689z" fill="#262626"/><path d="M118.726 57.927c0-.018.004-.035.005-.052-.009.009-.02.016-.03.025l.025.027M95.05 57.576c-.012.136-.04.267-.086.39a6.46 6.46 0 0 1 .577-.03l.069.003c-.031-.047-.065-.092-.093-.14a2.358 2.358 0 0 1-.467-.223" fill="#262626"/><path d="M110.173 49.873a1.23 1.23 0 0 0 .256-.722c0-.855-.93-1.492-1.73-1.164l-.78.317.114-.991a1.2 1.2 0 0 0-1.2-1.199c-.546 0-1 .384-1.135.906.1.133.212.258.288.407l.11.217c.82.04 1.604.38 2.18.969a2.739 2.739 0 0 1 1.897 1.26" fill="#FFF988"/><path d="M104.84 46.236c.249.14.477.318.677.529.072.076.117.172.18.255.135-.522.589-.906 1.136-.906a1.2 1.2 0 0 1 1.199 1.199l-.112.99.779-.316c.8-.328 1.73.309 1.73 1.164 0 .266-.102.51-.256.722.1.158.198.317.264.494a2.716 2.716 0 0 1 .176.974c0 .124-.025.243-.041.364l.328-.246a2.887 2.887 0 0 0 .709-.767c.163-.258.27-.54.345-.828.017-.068.044-.132.056-.201.03-.167.049-.337.049-.512 0-.151-.015-.298-.037-.442a2.927 2.927 0 0 0-2.551-2.42 2.821 2.821 0 0 0-5.15-.261c.178.057.355.117.519.208" fill="#262626"/><path d="M103.068 52.478a3.258 3.258 0 0 1-.405-1.573c0-1.26.715-2.352 1.76-2.9a1.185 1.185 0 0 0-.959-.497 1.2 1.2 0 0 0-1.199 1.199c0 .11.021.225.065.363l.112.348-.298.212a2.317 2.317 0 0 0-.376.337l-.188.212-.28-.054a1.217 1.217 0 0 0-1.302.648l-.236.477-.462-.265a.977.977 0 0 0-.964-.005.966.966 0 0 0-.356 1.323.965.965 0 0 0 .366.36l.41.228c.078-.011.155-.032.236-.032.244 0 .476.049.688.138.138-.103.26-.221.353-.36.041.033.081.066.125.094a1.245 1.245 0 0 0-.222.4c.227.143.42.334.563.56a7.894 7.894 0 0 1 2.433-.894c.036-.11.08-.217.136-.32" fill="#FFF988"/><path d="M97.5 53.678c.033-.052.072-.101.11-.15.138-.172.306-.316.495-.426a1.78 1.78 0 0 1 .65-.211l-.408-.226a.964.964 0 0 1-.463-1.096.964.964 0 0 1 .452-.59.98.98 0 0 1 .965.006l.462.265.235-.477a1.22 1.22 0 0 1 1.303-.648l.279.054.189-.212c.112-.125.238-.24.376-.337l.298-.212-.113-.348a1.174 1.174 0 0 1-.064-.363 1.2 1.2 0 0 1 1.199-1.2c.382 0 .732.189.958.498a3.27 3.27 0 0 1 1.517-.377c.053 0 .104.014.157.016l-.111-.217c-.077-.15-.188-.274-.288-.407-.063-.083-.11-.18-.181-.255a2.873 2.873 0 0 0-.677-.53 2.832 2.832 0 0 0-.518-.207 2.813 2.813 0 0 0-.857-.15 2.833 2.833 0 0 0-2.822 2.625 2.804 2.804 0 0 0-1.511.74 2.617 2.617 0 0 0-1.611.325 2.592 2.592 0 0 0-1.29 2.422c.024.345.113.69.28 1.018l.058.11c.18.312.425.578.728.797.029-.005.056-.021.086-.025.034-.074.074-.144.117-.212M100.033 52.638a1.498 1.498 0 0 1-.353.358c.09.038.175.084.257.135a1.22 1.22 0 0 1 .222-.4c-.044-.029-.085-.06-.126-.093" fill="#262626"/><path d="M111.08 54.868a2.304 2.304 0 1 0 4.609 0c0-.417-.118-.804-.312-1.14a2.34 2.34 0 0 0-.302-.422 2.296 2.296 0 0 0-1.547-.735c-.048-.003-.095-.007-.144-.007-.128 0-.252.017-.375.037a2.3 2.3 0 0 0-1.93 2.267M108.872 53.786l-.58-.265.563-.299a2.13 2.13 0 0 0-.764-3.998l-.118-.013-.08-.088a2.652 2.652 0 0 0-1.953-.865 2.65 2.65 0 0 0-2.646 2.647c0 .498.14.985.409 1.409l.113.178-.121.172c-.007.009-.011.019-.018.029a7.893 7.893 0 0 1 4.294.809l.245.031-.062.063c.448.241.87.523 1.263.843a.989.989 0 0 0-.545-.653" fill="#FFF988"/><path d="M102.663 50.904c0 .551.14 1.091.405 1.573-.056.104-.099.21-.136.32.245-.045.493-.081.745-.104.006-.01.01-.02.017-.03l.121-.17-.112-.178a2.631 2.631 0 0 1-.41-1.41 2.649 2.649 0 0 1 2.646-2.646c.74 0 1.451.314 1.953.864l.081.087.117.014a2.126 2.126 0 0 1 1.893 2.117c0 .787-.432 1.508-1.129 1.88l-.56.3.577.264c.276.126.472.37.545.653.22.18.43.37.628.571a1.614 1.614 0 0 0-.476-1.505 2.75 2.75 0 0 0 1.004-1.799c.016-.12.041-.24.041-.364a2.756 2.756 0 0 0-.176-.975 2.79 2.79 0 0 0-.264-.493 2.74 2.74 0 0 0-1.896-1.26 3.278 3.278 0 0 0-2.18-.97c-.053-.001-.105-.014-.158-.014a3.317 3.317 0 0 0-1.517.376 3.276 3.276 0 0 0-1.759 2.9" fill="#262626"/><path d="M107.97 53.502c.061.031.124.061.183.094l.063-.063-.245-.03z" fill="#262626"/><path d="M99.963 54.023a1.152 1.152 0 0 0-.97-.535 1.15 1.15 0 0 0-1.089.793l-.067.2-.21.015a1.985 1.985 0 0 0-1.26.574l-.184.183-.214-.144a.906.906 0 0 0-1.407.754c0 .499.406.905.906.905a.462.462 0 0 1 .06-.007l.258-.018.067.251c.146.545.513.986.987 1.239a7.942 7.942 0 0 1 3.123-4.21" fill="#FFF988"/><path d="M95.32 57.391a2.6 2.6 0 0 0 .196.408c.03.048.062.093.094.14.268.396.636.712 1.067.912.047-.209.1-.416.163-.618a1.988 1.988 0 0 1-.987-1.24l-.067-.25-.259.017c-.019.002-.038.004-.06.008a.906.906 0 1 1 .501-1.659l.215.143.183-.182c.336-.336.784-.54 1.261-.574l.21-.015.066-.2a1.15 1.15 0 0 1 1.09-.793c.407 0 .764.214.97.535.173-.118.353-.228.536-.332a1.781 1.781 0 0 0-.819-.695 1.772 1.772 0 0 0-.688-.138c-.08 0-.158.022-.236.033a1.778 1.778 0 0 0-.652.21 1.775 1.775 0 0 0-.494.428 1.784 1.784 0 0 0-.11.148 1.815 1.815 0 0 0-.118.212c-.03.005-.056.02-.086.025-.097.018-.187.054-.28.082-.332.101-.65.244-.918.467a1.533 1.533 0 0 0-.63-.136c-.22 0-.422.06-.61.144a1.535 1.535 0 0 0-.926 1.392c0 .057.01.112.016.167.023.206.094.394.19.568.237.432.666.744 1.181.793" fill="#262626"/><path d="M93.028 63.852a3.159 3.159 0 0 0-.578-.338l-.756-.343.793-.245c.341-.106.631-.31.836-.588a1.638 1.638 0 0 0-1.564-2.587 1.627 1.627 0 0 0-1.072.648 1.631 1.631 0 0 0-.269 1.33l.178.786-.664-.456a1.248 1.248 0 0 0-1.447 2.034l.253.187-.08.109h4.934a3.196 3.196 0 0 0-.564-.537" fill="#FFF988"/><path d="M87.367 63.368c.06.39.237.742.506 1.02h.786l.08-.109-.254-.187a1.242 1.242 0 0 1-.495-.819c-.05-.33.03-.66.229-.929a1.24 1.24 0 0 1 1.714-.286l.664.457-.178-.786a1.625 1.625 0 0 1 1.34-1.979 1.638 1.638 0 0 1 1.565 2.587 1.624 1.624 0 0 1-.836.588l-.794.245.756.343c.206.094.4.207.579.338.213.157.399.34.564.537h.77a3.788 3.788 0 0 0-1.097-1.14c.218-.144.409-.325.565-.537a2.27 2.27 0 0 0-.482-3.169 2.251 2.251 0 0 0-1.684-.415 2.258 2.258 0 0 0-.961.396 2.266 2.266 0 0 0-.524.502c-.036.05-.064.102-.096.154a2.248 2.248 0 0 0-.333 1.068l-.003.033a1.855 1.855 0 0 0-.964-.008 1.858 1.858 0 0 0-1.073.698 1.87 1.87 0 0 0-.344 1.398" fill="#262626"/><path d="M108.292 61.991l.001.087c0 .158-.014.312-.035.464a7.794 7.794 0 0 1 1.061-.489 1.98 1.98 0 0 1-1.027-.062" fill="#FFF988"/><path d="M102.099 60.204a2.352 2.352 0 0 1-.94-1.874 2.366 2.366 0 0 1 2.364-2.363c.976 0 1.826.586 2.183 1.465a1.7 1.7 0 0 1 .572-.1 1.67 1.67 0 0 1 1.556 1.052 1.995 1.995 0 0 1 1.085-.323 2.015 2.015 0 1 1 .863 3.835 7.933 7.933 0 0 1 2.309-.342c.062 0 .122.003.184.004a7.902 7.902 0 0 0-2.858-7.119 7.959 7.959 0 0 0-1.263-.843c-.06-.033-.122-.063-.183-.094a7.893 7.893 0 0 0-5.038-.705 7.868 7.868 0 0 0-2.97 1.226 7.937 7.937 0 0 0-3.285 4.83 7.955 7.955 0 0 0-.192 1.73 7.87 7.87 0 0 0 .996 3.806h4.973a3.359 3.359 0 0 1-.923-2.31c0-.669.199-1.322.567-1.875" fill="#FFF988"/><path d="M107.491 63.027a2.739 2.739 0 0 0 .112-1.521l-.173-.814.668.495c.244.181.527.276.821.276.764 0 1.386-.622 1.386-1.386 0-.764-.622-1.386-1.386-1.386-.396 0-.777.177-1.043.484l-.527.61-.026-.806a1.043 1.043 0 0 0-1.046-1.016c-.209 0-.41.061-.585.178l-.382.256-.1-.448a1.72 1.72 0 0 0-1.688-1.351c-.955 0-1.732.777-1.732 1.732 0 .629.35 1.21.912 1.515l.336.184-.244.295a2.755 2.755 0 0 0-.633 1.755c0 .97.508 1.82 1.268 2.31h2.615a7.949 7.949 0 0 1 1.447-1.362" fill="#FFF988"/><path d="M102.161 62.079c0-.64.225-1.263.633-1.755l.244-.295-.336-.183a1.73 1.73 0 0 1-.912-1.516c0-.955.777-1.732 1.732-1.732.814 0 1.507.556 1.687 1.35l.101.45.382-.257a1.044 1.044 0 0 1 1.631.839l.025.805.528-.61a1.383 1.383 0 0 1 1.043-.484 1.387 1.387 0 0 1 0 2.772c-.294 0-.578-.095-.82-.275l-.669-.496.172.814a2.708 2.708 0 0 1-.11 1.52c.245-.174.5-.337.765-.484a3.35 3.35 0 0 0 .036-.463v-.087a1.98 1.98 0 0 0 1.026.06c.152-.055.306-.108.462-.155a2.017 2.017 0 0 0 1.154-1.82 2.02 2.02 0 0 0-2.016-2.016c-.388 0-.763.115-1.085.324a1.67 1.67 0 0 0-1.557-1.052c-.197 0-.39.034-.572.1a2.345 2.345 0 0 0-2.183-1.465 2.365 2.365 0 0 0-2.362 2.362c0 .74.352 1.43.938 1.874a3.398 3.398 0 0 0-.567 1.875c0 .895.353 1.706.924 2.31h.974a2.748 2.748 0 0 1-1.268-2.31" fill="#262626"/><path d="M118.067 64.277a1.877 1.877 0 0 0 .156-1.47l-.035-.112.048-.108a1.93 1.93 0 0 0 .104-.295l.068-.25.258.017.056.007h.002a.906.906 0 1 0-.5-1.658l-.215.144-.182-.183a1.991 1.991 0 0 0-2.055-.472l-.47.162.06-.541c.003-.015.006-.03.006-.046a.906.906 0 0 0-1.811 0c0 .476.375.87.853.899l.493.029-.235.435a1.99 1.99 0 0 0-.23 1.073 7.921 7.921 0 0 1 3.629 2.369" fill="#FFF988"/><path d="M118.095 59.761a2.609 2.609 0 0 0-2.122-.565 1.538 1.538 0 0 0-1.511-1.26 1.532 1.532 0 1 0-.514 2.977 2.594 2.594 0 0 0-.145.828c.215.047.427.102.635.166-.003-.044-.007-.087-.007-.13 0-.329.082-.655.237-.943l.235-.435-.494-.029a.903.903 0 0 1 .053-1.804c.499 0 .905.406.905.906 0 .015-.002.03-.005.046l-.06.541.47-.162a1.987 1.987 0 0 1 2.054.471l.183.183.215-.143a.907.907 0 0 1 1.407.753.906.906 0 0 1-.907.904h-.002c-.02-.002-.037-.005-.056-.006l-.26-.018-.066.25a1.893 1.893 0 0 1-.104.295l-.048.108.035.113a1.891 1.891 0 0 1-.156 1.47l.09.112h.552a2.493 2.493 0 0 0 .148-1.654c.006-.015.01-.03.017-.045a1.536 1.536 0 0 0 1.378-1.435c.002-.032.009-.062.009-.094 0-.16-.032-.314-.08-.46a1.529 1.529 0 0 0-1.434-1.07c-.007 0-.014-.005-.022-.005-.22 0-.433.046-.63.135" fill="#262626"/><path d="M114.438 61.907a7.932 7.932 0 0 0-2.164-.349c-.061 0-.122-.005-.183-.005a7.923 7.923 0 0 0-3.833.99 7.805 7.805 0 0 0-.767.484 7.976 7.976 0 0 0-1.447 1.361h12.113c-.031-.036-.059-.076-.09-.112a7.94 7.94 0 0 0-3.629-2.369" fill="#FFF988"/><path d="M88.34 70.739h20.7l.003.072v.909c0 .908-.743 1.65-1.65 1.65H89.988a1.656 1.656 0 0 1-1.651-1.65v-.91c0-.023.003-.047.004-.071zm28.876 19.03c0 7.19-5.83 13.018-13.02 13.018-7.19 0-13.017-5.828-13.017-13.018s5.828-13.02 13.018-13.02 13.019 5.83 13.019 13.02zm-27.183 18.856c.002.99.769 1.768 1.712 1.768h24.984c.942 0 1.709-.767 1.709-1.71l2.784-38.465h-33.97l2.78 38.407z" fill="#FF7300"/><path d="M120.589 101.535l1.25-17.264.399-5.525.618-8.528h-1.634l-2.784 38.465c0 .943-.767 1.71-1.71 1.71H91.745c-.942 0-1.71-.777-1.712-1.769l-2.78-38.406h-1.635l.618 8.528.4 5.525 1.25 17.264.518 7.148c0 .767.286 1.503.774 2.098.104.127.206.256.33.368a3.328 3.328 0 0 0 2.237.875h24.985c.822 0 1.617-.31 2.239-.874.124-.113.227-.242.332-.369a3.277 3.277 0 0 0 .768-2.056l.52-7.19z" fill="#262626"/><path d="M110.881 86.929c.333.034.501.485.273.728l-3.17 3.378.985 4.526a.428.428 0 0 1-.153.43.426.426 0 0 1-.456.054l-4.19-1.97-4 2.335a.427.427 0 0 1-.456-.01.445.445 0 0 1-.195-.42l.581-4.594-3.459-3.081a.45.45 0 0 1-.129-.44.425.425 0 0 1 .338-.311l4.55-.87 1.862-4.238a.43.43 0 0 1 .377-.26.43.43 0 0 1 .401.225l2.232 4.057 4.61.46zm-19.703 2.84c0 7.19 5.83 13.018 13.02 13.018 7.19 0 13.017-5.828 13.017-13.018s-5.828-13.02-13.018-13.02-13.019 5.83-13.019 13.02z" fill="#FFF"/><path d="M89.988 73.371h17.404c.908 0 1.651-.743 1.651-1.65v-.91c0-.024-.003-.048-.004-.072H88.341c-.001.024-.004.048-.004.072v.91c0 .907.743 1.65 1.651 1.65" fill="#F90"/><path d="M85.005 68.587h38.462a1.284 1.284 0 0 0 0-2.566H85.005a1.284 1.284 0 0 0 0 2.566" fill="#CECECE"/><path d="M85.005 66.02h38.462a1.284 1.284 0 0 1 0 2.566H85.005a1.284 1.284 0 0 1 0-2.566m41.376 1.283a2.911 2.911 0 0 0-1.982-2.76 3.073 3.073 0 0 0-.405-.1 2.846 2.846 0 0 0-.527-.054H85.005c-.185 0-.374.034-.562.072-.05.01-.101.007-.152.02a2.912 2.912 0 0 0-.835.357c-.187.12-.35.262-.503.414a2.884 2.884 0 0 0-.862 2.051 2.919 2.919 0 0 0 2.914 2.915h38.461a2.919 2.919 0 0 0 2.915-2.915" fill="#262626"/><path d="M103.639 82.186a.43.43 0 0 0-.377.26l-1.863 4.239-4.55.869a.426.426 0 0 0-.337.312.451.451 0 0 0 .129.439l3.459 3.081-.581 4.595a.445.445 0 0 0 .195.42c.138.09.31.094.456.009l3.999-2.335 4.19 1.97a.426.426 0 0 0 .457-.054.425.425 0 0 0 .153-.43l-.985-4.527 3.17-3.377c.228-.243.06-.694-.273-.728l-4.608-.461-2.233-4.057a.43.43 0 0 0-.401-.225" fill="#CECECE"/></g></svg>