<?xml version="1.0" encoding="utf-8"?>
<!-- Generated by IcoMoon.io -->
<!DOCTYPE svg PUBLIC "-//W3C//DTD SVG 1.1//EN" "http://www.w3.org/Graphics/SVG/1.1/DTD/svg11.dtd">
<svg version="1.1" xmlns="http://www.w3.org/2000/svg" xmlns:xlink="http://www.w3.org/1999/xlink" width="27" height="32" viewBox="0 0 27 32">
<path fill="#ae5744" d="M18.627 1.024c6.989 2.862 10.334 10.848 7.472 17.837s-10.848 10.334-17.837 7.472c-6.989-2.862-10.334-10.848-7.472-17.837s10.848-10.334 17.837-7.472z"></path>
<path fill="#9c4336" d="M6.848 18.583l8.595 8.624c6.572-1.186 9.215-5.735 9.215-5.735 1.176-1.614 1.695-3.19 2.176-5.003l-3.543-3.684-5.616-5.686z"></path>
<path fill="#f1f0f0" opacity="0.00952000036120415" d="M23.134 30.633c0 0.731-4.338 1.324-9.69 1.324s-9.69-0.593-9.69-1.324c0-0.731 4.338-1.324 9.69-1.324s9.69 0.593 9.69 1.324z"></path>
<path fill="#eae9e9" opacity="0.0190400007224083" d="M22.819 30.633c0 0.708-4.197 1.281-9.375 1.281s-9.375-0.574-9.375-1.281c0-0.708 4.197-1.281 9.375-1.281s9.375 0.574 9.375 1.281z"></path>
<path fill="#e3e2e2" opacity="0.028580001422464862" d="M22.505 30.633c0 0.684-4.056 1.238-9.060 1.238s-9.060-0.554-9.060-1.238c0-0.684 4.056-1.238 9.060-1.238s9.060 0.554 9.060 1.238z"></path>
<path fill="#dcdbdc" opacity="0.03810000178366901" d="M22.19 30.633c0 0.66-3.915 1.195-8.745 1.195s-8.745-0.535-8.745-1.195c0-0.66 3.915-1.195 8.745-1.195s8.745 0.535 8.745 1.195z"></path>
<path fill="#d6d5d5" opacity="0.047620002144873164" d="M21.875 30.633c0 0.636-3.775 1.152-8.431 1.152s-8.431-0.516-8.431-1.152c0-0.636 3.775-1.152 8.431-1.152s8.431 0.516 8.431 1.152z"></path>
<path fill="#d0cfcf" opacity="0.05713999952584503" d="M21.56 30.633c0 0.613-3.634 1.109-8.116 1.109s-8.116-0.497-8.116-1.109c0-0.613 3.634-1.109 8.116-1.109s8.116 0.497 8.116 1.109z"></path>
<path fill="#cac9c9" opacity="0.06665999988704918" d="M21.246 30.633c0 0.589-3.493 1.066-7.801 1.066s-7.801-0.477-7.801-1.066c0-0.589 3.493-1.066 7.801-1.066s7.801 0.477 7.801 1.066z"></path>
<path fill="#c5c3c3" opacity="0.07620000356733803" d="M20.931 30.633c0 0.565-3.352 1.023-7.486 1.023s-7.486-0.458-7.486-1.023c0-0.565 3.352-1.023 7.486-1.023s7.486 0.458 7.486 1.023z"></path>
<path fill="#bfbebe" opacity="0.08572000392854218" d="M20.616 30.633c0 0.541-3.211 0.98-7.171 0.98s-7.171-0.439-7.171-0.98c0-0.541 3.211-0.98 7.171-0.98s7.171 0.439 7.171 0.98z"></path>
<path fill="#bab8b8" opacity="0.09524000428974633" d="M20.301 30.633c0 0.518-3.070 0.937-6.857 0.937s-6.857-0.42-6.857-0.937c0-0.518 3.070-0.937 6.857-0.937s6.857 0.42 6.857 0.937z"></path>
<path fill="#b4b3b3" opacity="0.10476000465095048" d="M19.986 30.633c0 0.494-2.929 0.894-6.542 0.894s-6.542-0.4-6.542-0.894c0-0.494 2.929-0.894 6.542-0.894s6.542 0.4 6.542 0.894z"></path>
<path fill="#afaeae" opacity="0.11427999905169006" d="M19.672 30.633c0 0.47-2.788 0.851-6.227 0.851s-6.227-0.381-6.227-0.851c0-0.47 2.788-0.851 6.227-0.851s6.227 0.381 6.227 0.851z"></path>
<path fill="#aaa8a9" opacity="0.12380000537335878" d="M19.357 30.633c0 0.446-2.647 0.808-5.912 0.808s-5.912-0.362-5.912-0.808c0-0.446 2.647-0.808 5.912-0.808s5.912 0.362 5.912 0.808z"></path>
<path fill="#a5a3a4" opacity="0.13334000309318306" d="M19.042 30.633c0 0.422-2.506 0.765-5.598 0.765s-5.598-0.343-5.598-0.765c0-0.422 2.506-0.765 5.598-0.765s5.598 0.343 5.598 0.765z"></path>
<path fill="#a09f9f" opacity="0.14285999749392264" d="M18.727 30.633c0 0.399-2.365 0.722-5.283 0.722s-5.283-0.323-5.283-0.722c0-0.399 2.365-0.722 5.283-0.722s5.283 0.323 5.283 0.722z"></path>
<path fill="#9b9a9a" opacity="0.15238000381559136" d="M18.412 30.633c0 0.375-2.224 0.679-4.968 0.679s-4.968-0.304-4.968-0.679c0-0.375 2.224-0.679 4.968-0.679s4.968 0.304 4.968 0.679z"></path>
<path fill="#969595" opacity="0.16189999821633094" d="M18.098 30.633c0 0.351-2.083 0.636-4.653 0.636s-4.653-0.285-4.653-0.636c0-0.351 2.083-0.636 4.653-0.636s4.653 0.285 4.653 0.636z"></path>
<path fill="#919191" opacity="0.17142000453799966" d="M17.783 30.633c0 0.327-1.942 0.593-4.338 0.593s-4.338-0.265-4.338-0.593c0-0.327 1.942-0.593 4.338-0.593s4.338 0.265 4.338 0.593z"></path>
<path fill="#8d8c8c" opacity="0.18096000225782394" d="M17.468 30.633c0 0.304-1.801 0.55-4.024 0.55s-4.024-0.246-4.024-0.55c0-0.304 1.801-0.55 4.024-0.55s4.024 0.246 4.024 0.55z"></path>
<path fill="#888" opacity="0.19048000857949265" d="M17.153 30.633c0 0.28-1.661 0.507-3.709 0.507s-3.709-0.227-3.709-0.507c0-0.28 1.661-0.507 3.709-0.507s3.709 0.227 3.709 0.507z"></path>
<path fill="#848484" opacity="0.20000000298023224" d="M16.838 30.633c0 0.256-1.52 0.464-3.394 0.464s-3.394-0.208-3.394-0.464c0-0.256 1.52-0.464 3.394-0.464s3.394 0.208 3.394 0.464z"></path>
<path fill="#339b91" d="M9.724 20.919c-0.149 0.149-0.391 0.149-0.54 0l-2.336-2.336c-0.149-0.149-0.149-0.391 0-0.54l10.261-10.261c0.149-0.149 0.391-0.149 0.54 0l2.336 2.336c0.149 0.149 0.149 0.391 0 0.54l-10.261 10.262z"></path>
<path fill="#7d2720" d="M17.207 20.918c0.149 0.149 0.391 0.149 0.54 0l2.336-2.336c0.149-0.149 0.149-0.391 0-0.54l-10.261-10.261c-0.149-0.149-0.391-0.149-0.54 0l-2.336 2.336c-0.149 0.149-0.149 0.391 0 0.54l10.261 10.262z"></path>
<path fill="#7d2720" d="M9.749 20.236c-0.149 0.149-0.391 0.149-0.54 0l-2.336-2.336c-0.149-0.149-0.149-0.391 0-0.54l10.262-10.261c0.149-0.149 0.391-0.149 0.54 0l2.336 2.336c0.149 0.149 0.149 0.391 0 0.54l-10.261 10.261z"></path>
<path fill="#fff" d="M17.182 20.234c0.149 0.149 0.391 0.149 0.54 0l2.336-2.336c0.149-0.149 0.149-0.391 0-0.54l-10.262-10.261c-0.149-0.149-0.391-0.149-0.54 0l-2.336 2.336c-0.149 0.149-0.149 0.391 0 0.54l10.261 10.261z"></path>
</svg>
