<?xml version="1.0" encoding="utf-8"?>
<!-- Generated by IcoMoon.io -->
<!DOCTYPE svg PUBLIC "-//W3C//DTD SVG 1.1//EN" "http://www.w3.org/Graphics/SVG/1.1/DTD/svg11.dtd">
<svg version="1.1" xmlns="http://www.w3.org/2000/svg" xmlns:xlink="http://www.w3.org/1999/xlink" width="28" height="32" viewBox="0 0 28 32">
<path fill="#ae5744" d="M19.189 1.042c7.11 2.912 10.514 11.037 7.602 18.147s-11.037 10.514-18.147 7.602c-7.11-2.912-10.514-11.037-7.602-18.147s11.037-10.514 18.147-7.602z"></path>
<path fill="#9c4336" d="M13.214 17.395l-5.081 5.365 2.73 2.786 2.28 2.285c10.661 0.010 14.689-8.743 14.601-13.209l-3.254-3.757-4.791-5.917z"></path>
<path fill="#7d2720" d="M8.826 23.426c-0.171 0-0.31-0.169-0.31-0.376v-17.719c0-0.207 0.14-0.376 0.31-0.376h10.945c0.171 0 0.31 0.169 0.31 0.376v17.719c0 0.207-0.14 0.376-0.31 0.376h-10.945z"></path>
<path fill="#f1f0f0" opacity="0.00952000036120415" d="M23.774 30.609c0 0.744-4.414 1.347-9.858 1.347s-9.858-0.603-9.858-1.347c0-0.744 4.414-1.347 9.858-1.347s9.858 0.603 9.858 1.347z"></path>
<path fill="#eae9e9" opacity="0.0190400007224083" d="M23.454 30.609c0 0.72-4.27 1.304-9.538 1.304s-9.538-0.584-9.538-1.304c0-0.72 4.27-1.304 9.538-1.304s9.538 0.584 9.538 1.304z"></path>
<path fill="#e3e2e2" opacity="0.028580001422464862" d="M23.133 30.609c0 0.696-4.127 1.26-9.218 1.26s-9.218-0.564-9.218-1.26c0-0.696 4.127-1.26 9.218-1.26s9.218 0.564 9.218 1.26z"></path>
<path fill="#dcdbdc" opacity="0.03810000178366901" d="M22.813 30.609c0 0.672-3.984 1.216-8.898 1.216s-8.898-0.544-8.898-1.216c0-0.672 3.984-1.216 8.898-1.216s8.898 0.544 8.898 1.216z"></path>
<path fill="#d6d5d5" opacity="0.047620002144873164" d="M22.493 30.609c0 0.647-3.84 1.172-8.577 1.172s-8.577-0.525-8.577-1.172c0-0.647 3.84-1.172 8.577-1.172s8.577 0.525 8.577 1.172z"></path>
<path fill="#d0cfcf" opacity="0.05713999952584503" d="M22.173 30.609c0 0.623-3.697 1.129-8.257 1.129s-8.257-0.505-8.257-1.129c0-0.623 3.697-1.129 8.257-1.129s8.257 0.505 8.257 1.129z"></path>
<path fill="#cac9c9" opacity="0.06665999988704918" d="M21.852 30.609c0 0.599-3.553 1.085-7.937 1.085s-7.937-0.486-7.937-1.085c0-0.599 3.553-1.085 7.937-1.085s7.937 0.486 7.937 1.085z"></path>
<path fill="#c5c3c3" opacity="0.07620000356733803" d="M21.532 30.609c0 0.575-3.41 1.041-7.617 1.041s-7.617-0.466-7.617-1.041c0-0.575 3.41-1.041 7.617-1.041s7.617 0.466 7.617 1.041z"></path>
<path fill="#bfbebe" opacity="0.08572000392854218" d="M21.212 30.609c0 0.551-3.267 0.997-7.296 0.997s-7.296-0.446-7.296-0.997c0-0.551 3.267-0.997 7.296-0.997s7.296 0.446 7.296 0.997z"></path>
<path fill="#bab8b8" opacity="0.09524000428974633" d="M20.892 30.609c0 0.527-3.123 0.953-6.976 0.953s-6.976-0.427-6.976-0.953c0-0.527 3.123-0.953 6.976-0.953s6.976 0.427 6.976 0.953z"></path>
<path fill="#b4b3b3" opacity="0.10476000465095048" d="M20.571 30.609c0 0.502-2.98 0.91-6.656 0.91s-6.656-0.407-6.656-0.91c0-0.502 2.98-0.91 6.656-0.91s6.656 0.407 6.656 0.91z"></path>
<path fill="#afaeae" opacity="0.11427999905169006" d="M20.251 30.609c0 0.478-2.836 0.866-6.335 0.866s-6.335-0.388-6.335-0.866c0-0.478 2.836-0.866 6.335-0.866s6.335 0.388 6.335 0.866z"></path>
<path fill="#aaa8a9" opacity="0.12380000537335878" d="M19.931 30.609c0 0.454-2.693 0.822-6.015 0.822s-6.015-0.368-6.015-0.822c0-0.454 2.693-0.822 6.015-0.822s6.015 0.368 6.015 0.822z"></path>
<path fill="#a5a3a4" opacity="0.13334000309318306" d="M19.611 30.609c0 0.43-2.55 0.778-5.695 0.778s-5.695-0.348-5.695-0.778c0-0.43 2.55-0.778 5.695-0.778s5.695 0.348 5.695 0.778z"></path>
<path fill="#a09f9f" opacity="0.14285999749392264" d="M19.29 30.609c0 0.406-2.406 0.735-5.375 0.735s-5.375-0.329-5.375-0.735c0-0.406 2.406-0.735 5.375-0.735s5.375 0.329 5.375 0.735z"></path>
<path fill="#9b9a9a" opacity="0.15238000381559136" d="M18.97 30.609c0 0.382-2.263 0.691-5.054 0.691s-5.054-0.309-5.054-0.691c0-0.382 2.263-0.691 5.054-0.691s5.054 0.309 5.054 0.691z"></path>
<path fill="#969595" opacity="0.16189999821633094" d="M18.65 30.609c0 0.357-2.12 0.647-4.734 0.647s-4.734-0.29-4.734-0.647c0-0.357 2.12-0.647 4.734-0.647s4.734 0.29 4.734 0.647z"></path>
<path fill="#919191" opacity="0.17142000453799966" d="M18.33 30.609c0 0.333-1.976 0.603-4.414 0.603s-4.414-0.27-4.414-0.603c0-0.333 1.976-0.603 4.414-0.603s4.414 0.27 4.414 0.603z"></path>
<path fill="#8d8c8c" opacity="0.18096000225782394" d="M18.009 30.609c0 0.309-1.833 0.559-4.094 0.559s-4.094-0.25-4.094-0.559c0-0.309 1.833-0.559 4.094-0.559s4.094 0.25 4.094 0.559z"></path>
<path fill="#888" opacity="0.19048000857949265" d="M17.689 30.609c0 0.285-1.689 0.516-3.773 0.516s-3.773-0.231-3.773-0.516c0-0.285 1.689-0.516 3.773-0.516s3.773 0.231 3.773 0.516z"></path>
<path fill="#848484" opacity="0.20000000298023224" d="M17.369 30.609c0 0.261-1.546 0.472-3.453 0.472s-3.453-0.211-3.453-0.472c0-0.261 1.546-0.472 3.453-0.472s3.453 0.211 3.453 0.472z"></path>
<path fill="#339b91" d="M8.443 23.043c-0.171 0-0.31-0.169-0.31-0.376v-17.719c0-0.207 0.14-0.376 0.31-0.376h10.945c0.171 0 0.31 0.169 0.31 0.376v17.719c0 0.207-0.14 0.376-0.31 0.376h-10.945z"></path>
<path fill="#5d6162" d="M9.683 6.866c0-0.329 0.213-0.596 0.475-0.596h7.515c0.262 0 0.475 0.267 0.475 0.596v11.627c0 0.329-0.213 0.596-0.475 0.596h-7.515c-0.262 0-0.475-0.267-0.475-0.596v-11.627z"></path>
<path fill="#fff" d="M17.993 18.493c0 0.221-0.143 0.401-0.319 0.401h-7.515c-0.177 0-0.32-0.18-0.32-0.401v-11.627c0-0.222 0.143-0.401 0.32-0.401l7.515 0c0.176 0 0.319 0.18 0.319 0.401v11.627zM18.303 18.493v-11.627c0-0.435-0.283-0.791-0.63-0.791h-7.515c-0.347 0-0.63 0.356-0.63 0.791v11.627c0 0.435 0.284 0.791 0.63 0.791h7.515c0.346-0 0.63-0.356 0.63-0.791v0z"></path>
<path fill="#909394" d="M14.689 21.191c0 0.426-0.346 0.773-0.773 0.773s-0.774-0.347-0.774-0.773c0-0.427 0.347-0.773 0.774-0.773s0.773 0.346 0.773 0.773z"></path>
<path fill="#d8dad8" d="M16.848 14.679c0 0.054-0.043 0.097-0.095 0.097h-5.796c-0.052 0-0.095-0.043-0.095-0.097v-4.117c0-0.054 0.043-0.097 0.095-0.097h5.796c0.052 0 0.095 0.043 0.095 0.097v4.117z"></path>
<path fill="#919191" d="M16.694 14.532c0 0.050-0.040 0.090-0.090 0.090h-5.507c-0.050 0-0.090-0.040-0.090-0.090v-3.836c0-0.050 0.040-0.090 0.090-0.090h5.507c0.050 0 0.090 0.040 0.090 0.090v3.837z"></path>
<path fill="#d8dad8" d="M16.644 14.622h-5.528l2.764-2.387z"></path>
<path fill="#fff" d="M11.458 10.865h4.892l-2.446 2.387z"></path>
<path fill="#919191" d="M11.126 10.605h5.529l-2.764 2.386z"></path>
</svg>
