<?xml version="1.0" encoding="utf-8"?>
<!-- Generated by IcoMoon.io -->
<!DOCTYPE svg PUBLIC "-//W3C//DTD SVG 1.1//EN" "http://www.w3.org/Graphics/SVG/1.1/DTD/svg11.dtd">
<svg version="1.1" xmlns="http://www.w3.org/2000/svg" xmlns:xlink="http://www.w3.org/1999/xlink" width="27" height="32" viewBox="0 0 27 32">
<path fill="#18b2b2" d="M26.701 13.35c0 7.373-5.977 13.35-13.35 13.35s-13.35-5.977-13.35-13.35c0-7.373 5.977-13.35 13.35-13.35s13.35 5.977 13.35 13.35z"></path>
<path fill="#1aaaa6" d="M25.873 17.985l-14.184-14.183-0.111 0.111c-0.463 0.463-1.069 0.729-1.661 0.729-0.458 0-0.875-0.164-1.173-0.462l-0.111-0.111-0.581 0.581 0.112 0.111c0.082 0.081 0.127 0.193 0.127 0.314 0 0.137-0.058 0.273-0.16 0.375-0.191 0.191-0.515 0.207-0.689 0.033l-0.111-0.111-0.617 0.617 0.111 0.112c0.181 0.181 0.166 0.49-0.033 0.689-0.191 0.191-0.515 0.207-0.689 0.033l-0.112-0.111-0.613 0.612 0.112 0.112c0.086 0.086 0.131 0.204 0.126 0.332-0.005 0.132-0.061 0.259-0.159 0.357-0.191 0.191-0.515 0.207-0.689 0.033l-0.111-0.111-0.586 0.586 0.111 0.111c0.708 0.708 0.588 1.979-0.267 2.835l-0.112 0.111 14.183 14.183c3.644-1.349 6.539-4.244 7.888-7.888z"></path>
<path fill="#18b2b2" opacity="0.8999999761581421" d="M23.106 15.441l0.111-0.112-11.208-11.207-0.111 0.111c-0.463 0.463-1.069 0.729-1.661 0.729-0.458 0-0.875-0.164-1.173-0.462l-0.111-0.111-0.581 0.581 0.112 0.111c0.082 0.081 0.127 0.193 0.127 0.314 0 0.137-0.058 0.273-0.16 0.375-0.191 0.191-0.515 0.207-0.689 0.033l-0.112-0.111-0.617 0.617 0.111 0.112c0.181 0.181 0.166 0.49-0.033 0.689-0.191 0.191-0.515 0.207-0.689 0.033l-0.112-0.111-0.613 0.612 0.112 0.112c0.086 0.086 0.131 0.204 0.126 0.332-0.005 0.132-0.061 0.259-0.159 0.357-0.191 0.191-0.515 0.207-0.689 0.033l-0.111-0.111-0.586 0.586 0.112 0.111c0.708 0.708 0.588 1.98-0.268 2.835l-0.111 0.111 11.208 11.208 0.111-0.112c0.463-0.464 1.069-0.73 1.661-0.73 0.459 0 0.875 0.164 1.174 0.462l0.111 0.111 0.586-0.586-0.112-0.111c-0.086-0.086-0.131-0.204-0.126-0.332 0.005-0.132 0.062-0.259 0.159-0.357 0.191-0.191 0.515-0.206 0.689-0.033l0.111 0.111 0.613-0.613-0.111-0.112c-0.181-0.181-0.166-0.49 0.033-0.689 0.191-0.191 0.515-0.206 0.689-0.032l0.111 0.111 0.617-0.618-0.111-0.111c-0.086-0.086-0.131-0.204-0.126-0.332 0.005-0.132 0.061-0.259 0.159-0.357 0.191-0.191 0.515-0.207 0.689-0.033l0.112 0.112 0.581-0.581-0.112-0.111c-0.339-0.339-0.501-0.818-0.455-1.348 0.048-0.541 0.304-1.069 0.722-1.487z"></path>
<path fill="#fff5d4" d="M18.431 22.044c-0.243-0.242-0.228-0.651 0.033-0.912s0.669-0.276 0.911-0.033v0l0.39-0.39c-0.242-0.243-0.228-0.651 0.033-0.912s0.669-0.275 0.912-0.033c0 0 0 0 0 0l0.394-0.394c-0-0-0-0-0-0-0.243-0.243-0.228-0.651 0.033-0.912s0.669-0.276 0.912-0.033v0l0.358-0.358c-0.772-0.77-0.652-2.139 0.266-3.058l-10.985-10.984c-0.918 0.918-2.287 1.037-3.057 0.267l-0.358 0.358c0.243 0.242 0.228 0.651-0.033 0.912s-0.669 0.276-0.912 0.033l-0.394 0.394c0.242 0.243 0.227 0.651-0.033 0.912s-0.669 0.275-0.912 0.033l-0.39 0.39c0.243 0.243 0.228 0.651-0.033 0.912s-0.669 0.276-0.912 0.033l-0.363 0.363c0.771 0.771 0.65 2.14-0.267 3.058l10.985 10.985c0.918-0.919 2.286-1.039 3.058-0.268l0.363-0.363z"></path>
<path fill="#fff" d="M15.011 22.898l-11.208-11.209 0.112-0.111c0.855-0.856 0.975-2.128 0.267-2.835l-0.111-0.111 0.586-0.586 0.111 0.111c0.174 0.174 0.498 0.158 0.689-0.033 0.098-0.098 0.154-0.225 0.159-0.357 0.005-0.128-0.040-0.246-0.126-0.332l-0.112-0.112 0.613-0.612 0.112 0.111c0.174 0.174 0.498 0.158 0.689-0.033 0.199-0.199 0.214-0.508 0.033-0.689l-0.111-0.112 0.617-0.617 0.111 0.111c0.174 0.174 0.498 0.158 0.689-0.033 0.102-0.102 0.16-0.238 0.16-0.375 0-0.121-0.045-0.232-0.127-0.314l-0.112-0.111 0.581-0.581 0.111 0.111c0.298 0.298 0.714 0.462 1.173 0.462 0.593 0 1.198-0.265 1.661-0.729l0.111-0.111 11.208 11.207-0.111 0.111c-0.418 0.418-0.674 0.946-0.721 1.487-0.046 0.53 0.116 1.009 0.455 1.348l0.112 0.111-0.581 0.581-0.112-0.112c-0.174-0.174-0.498-0.158-0.689 0.033-0.098 0.098-0.154 0.225-0.159 0.357-0.005 0.128 0.040 0.246 0.126 0.332l0.111 0.111-0.617 0.617-0.111-0.111c-0.174-0.174-0.498-0.159-0.689 0.032-0.199 0.199-0.213 0.508-0.033 0.689l0.111 0.112-0.613 0.613-0.111-0.111c-0.174-0.173-0.498-0.158-0.689 0.033-0.098 0.098-0.155 0.225-0.159 0.357-0.005 0.128 0.040 0.246 0.126 0.332l0.112 0.111-0.586 0.586-0.111-0.111c-0.298-0.298-0.715-0.462-1.174-0.462-0.592 0-1.198 0.266-1.661 0.73l-0.111 0.112zM4.245 11.687l10.768 10.769c0.506-0.455 1.143-0.714 1.77-0.714 0.486 0 0.935 0.158 1.28 0.448l0.157-0.157c-0.083-0.129-0.125-0.282-0.119-0.443 0.008-0.212 0.097-0.414 0.252-0.569 0.269-0.269 0.713-0.323 1.011-0.132l0.191-0.191c-0.195-0.305-0.149-0.729 0.132-1.011 0.27-0.269 0.715-0.324 1.011-0.132l0.195-0.195c-0.083-0.129-0.125-0.282-0.119-0.443 0.008-0.212 0.097-0.414 0.251-0.569 0.269-0.27 0.713-0.325 1.011-0.132l0.152-0.152c-0.333-0.395-0.489-0.915-0.439-1.483 0.049-0.565 0.298-1.117 0.704-1.568l-10.768-10.767c-0.506 0.454-1.142 0.712-1.77 0.712-0.486 0-0.934-0.158-1.279-0.448l-0.152 0.152c0.078 0.121 0.119 0.263 0.12 0.413 0 0.22-0.092 0.438-0.252 0.598-0.27 0.27-0.712 0.324-1.011 0.132l-0.195 0.196c0.196 0.305 0.149 0.73-0.132 1.011-0.27 0.27-0.713 0.324-1.011 0.133l-0.191 0.191c0.083 0.129 0.125 0.282 0.119 0.443-0.008 0.212-0.097 0.414-0.251 0.568-0.27 0.27-0.713 0.324-1.011 0.133l-0.157 0.157c0.683 0.812 0.571 2.12-0.266 3.050z"></path>
<path fill="#676767" d="M15.368 21.607l-10.275-10.275 6.239-6.239 10.276 10.275-6.24 6.24zM5.604 11.332l9.764 9.765 5.73-5.73-9.766-9.765-5.728 5.729z"></path>
<path fill="#676767" d="M6.68 12.919l-1.586-1.588 6.239-6.239 1.588 1.587-6.24 6.24zM5.604 11.332l1.076 1.077 5.73-5.73-1.078-1.077-5.729 5.729z"></path>
<path fill="#676767" d="M6.37 11.28l4.91-4.91 0.363 0.363-4.91 4.91-0.363-0.363z"></path>
<path fill="#676767" d="M15.368 21.607l-1.588-1.587 6.24-6.24 1.588 1.587-6.24 6.24zM14.291 20.020l1.077 1.077 5.73-5.73-1.078-1.077-5.729 5.729z"></path>
<path fill="#676767" d="M15.058 19.967l4.91-4.91 0.363 0.363-4.91 4.91-0.363-0.363z"></path>
<path fill="#18b2b2" d="M14.078 12.623l-0.373 0.732 0.581 0.581-0.812-0.128-0.374 0.732-0.129-0.812-0.812-0.128 0.732-0.373-0.128-0.812 0.581 0.582z"></path>
<path fill="#18b2b2" d="M15.994 14.538l-0.373 0.733 0.581 0.581-0.811-0.128-0.373 0.732-0.129-0.812-0.812-0.129 0.733-0.373-0.129-0.812 0.582 0.582z"></path>
<path fill="#18b2b2" d="M12.162 10.706l-0.373 0.733 0.581 0.581-0.812-0.128-0.373 0.733-0.129-0.812-0.812-0.129 0.732-0.374-0.129-0.811 0.582 0.581z"></path>
<path fill="#f6f6f6" opacity="0.00952000036120415" d="M22.917 30.665c0 0.714-4.235 1.293-9.46 1.293s-9.46-0.579-9.46-1.293c0-0.714 4.236-1.293 9.46-1.293s9.46 0.579 9.46 1.293z"></path>
<path fill="#f0f0f1" opacity="0.0190400007224083" d="M22.61 30.665c0 0.691-4.098 1.251-9.153 1.251s-9.153-0.56-9.153-1.251c0-0.691 4.098-1.251 9.153-1.251s9.153 0.56 9.153 1.251z"></path>
<path fill="#ebebeb" opacity="0.028580001422464862" d="M22.303 30.665c0 0.668-3.96 1.209-8.846 1.209s-8.846-0.541-8.846-1.209c0-0.668 3.96-1.209 8.846-1.209s8.846 0.541 8.846 1.209z"></path>
<path fill="#e6e5e6" opacity="0.03810000178366901" d="M21.995 30.665c0 0.645-3.823 1.167-8.538 1.167s-8.538-0.523-8.538-1.167c0-0.645 3.823-1.167 8.538-1.167s8.538 0.523 8.538 1.167z"></path>
<path fill="#e0e0e0" opacity="0.047620002144873164" d="M21.688 30.665c0 0.621-3.685 1.125-8.231 1.125s-8.231-0.504-8.231-1.125c0-0.621 3.685-1.125 8.231-1.125s8.231 0.504 8.231 1.125z"></path>
<path fill="#dbdadb" opacity="0.05713999952584503" d="M21.381 30.665c0 0.598-3.547 1.083-7.924 1.083s-7.924-0.485-7.924-1.083c0-0.598 3.547-1.083 7.924-1.083s7.924 0.485 7.924 1.083z"></path>
<path fill="#d6d5d5" opacity="0.06665999988704918" d="M21.073 30.665c0 0.575-3.41 1.041-7.616 1.041s-7.616-0.466-7.616-1.041c0-0.575 3.41-1.041 7.616-1.041s7.616 0.466 7.616 1.041z"></path>
<path fill="#d0cfcf" opacity="0.07620000356733803" d="M20.766 30.665c0 0.552-3.272 0.999-7.309 0.999s-7.309-0.447-7.309-0.999c0-0.552 3.272-0.999 7.309-0.999s7.309 0.447 7.309 0.999z"></path>
<path fill="#cbcaca" opacity="0.08572000392854218" d="M20.459 30.665c0 0.529-3.135 0.957-7.002 0.957s-7.002-0.428-7.002-0.957c0-0.529 3.135-0.957 7.002-0.957s7.002 0.428 7.002 0.957z"></path>
<path fill="#c6c4c4" opacity="0.09524000428974633" d="M20.151 30.665c0 0.505-2.997 0.915-6.694 0.915s-6.694-0.41-6.694-0.915c0-0.505 2.997-0.915 6.694-0.915s6.694 0.41 6.694 0.915z"></path>
<path fill="#c0bfbf" opacity="0.10476000465095048" d="M19.844 30.665c0 0.482-2.86 0.873-6.387 0.873s-6.387-0.391-6.387-0.873c0-0.482 2.86-0.873 6.387-0.873s6.387 0.391 6.387 0.873z"></path>
<path fill="#bbb9b9" opacity="0.11427999905169006" d="M19.537 30.665c0 0.459-2.722 0.831-6.080 0.831s-6.080-0.372-6.080-0.831c0-0.459 2.722-0.831 6.080-0.831s6.080 0.372 6.080 0.831z"></path>
<path fill="#b6b4b4" opacity="0.12380000537335878" d="M19.229 30.665c0 0.436-2.584 0.789-5.772 0.789s-5.772-0.353-5.772-0.789c0-0.436 2.584-0.789 5.772-0.789s5.772 0.353 5.772 0.789z"></path>
<path fill="#b0aeae" opacity="0.13334000309318306" d="M18.922 30.665c0 0.413-2.447 0.747-5.465 0.747s-5.465-0.334-5.465-0.747c0-0.413 2.447-0.747 5.465-0.747s5.465 0.334 5.465 0.747z"></path>
<path fill="#aba9a8" opacity="0.14285999749392264" d="M18.615 30.665c0 0.389-2.309 0.705-5.158 0.705s-5.158-0.316-5.158-0.705c0-0.389 2.309-0.705 5.158-0.705s5.158 0.316 5.158 0.705z"></path>
<path fill="#a6a3a3" opacity="0.15238000381559136" d="M18.307 30.665c0 0.366-2.172 0.663-4.85 0.663s-4.85-0.297-4.85-0.663c0-0.366 2.172-0.663 4.85-0.663s4.85 0.297 4.85 0.663z"></path>
<path fill="#a09e9d" opacity="0.16189999821633094" d="M18 30.665c0 0.343-2.034 0.621-4.543 0.621s-4.543-0.278-4.543-0.621c0-0.343 2.034-0.621 4.543-0.621s4.543 0.278 4.543 0.621z"></path>
<path fill="#9b9898" opacity="0.17142000453799966" d="M17.693 30.665c0 0.32-1.896 0.579-4.236 0.579s-4.236-0.259-4.236-0.579c0-0.32 1.896-0.579 4.236-0.579s4.236 0.259 4.236 0.579z"></path>
<path fill="#969392" opacity="0.18096000225782394" d="M17.385 30.665c0 0.297-1.759 0.537-3.928 0.537s-3.928-0.24-3.928-0.537c0-0.297 1.759-0.537 3.928-0.537s3.928 0.24 3.928 0.537z"></path>
<path fill="#908d8d" opacity="0.19048000857949265" d="M17.078 30.665c0 0.273-1.621 0.495-3.621 0.495s-3.621-0.222-3.621-0.495c0-0.273 1.621-0.495 3.621-0.495s3.621 0.222 3.621 0.495z"></path>
<path fill="#8b8887" opacity="0.20000000298023224" d="M16.771 30.665c0 0.25-1.484 0.453-3.314 0.453s-3.314-0.203-3.314-0.453c0-0.25 1.484-0.453 3.314-0.453s3.314 0.203 3.314 0.453z"></path>
</svg>
