<svg width="32" height="32" viewBox="0 0 32 32" xmlns="http://www.w3.org/2000/svg"><title>B8D65D47-71D8-48BB-B1DF-4D630627BAC8</title><path d="M28.733 15.864c0 7.107-5.762 12.869-12.87 12.869-7.106 0-12.868-5.762-12.868-12.87 0-7.106 5.762-12.868 12.869-12.868s12.869 5.762 12.869 12.869zm-1.839 0c0-6.092-4.938-11.03-11.03-11.03s-11.03 4.938-11.03 11.03 4.938 11.03 11.03 11.03 11.03-4.938 11.03-11.03zm-9.888 3.133h-1.95L14.66 9.19c-.023-.638.58-1.165 1.338-1.165h.053c.763 0 1.26.521 1.236 1.165l-.28 9.808zm-.985 5.015c-.712 0-1.314-.618-1.314-1.332 0-.729.596-1.333 1.314-1.333.719 0 1.315.604 1.315 1.333 0 .714-.603 1.332-1.315 1.332z" fill-rule="nonzero" fill="#26B8FF"/></svg>