<svg width="32" height="32" viewBox="0 0 32 32" xmlns="http://www.w3.org/2000/svg"><title>E49DB335-86E4-4A60-84CA-ED09ECA92889</title><path d="M10.274 25.785c0 .57.461 1.03 1.035 1.03h.069c.057-.14.121-.28.192-.423.822-1.648 2.342-2.72 4.444-2.72 2.038 0 3.576.997 4.544 2.547.123.197.232.392.327.583.492-.08.87-.506.87-1.017V10.222H10.273v15.563zM8.2 8.148h15.628v17.637a3.11 3.11 0 0 1-3.11 3.105H19.42s-.52-3.145-3.406-3.145c-2.885 0-3.011 3.145-3.011 3.145h-1.694c-1.72 0-3.11-1.39-3.11-3.105V8.148zm-2.083 4.149l-1.214-.02C3.383 12.27 2 10.87 2 9.15V7.112A3.118 3.118 0 0 1 5.114 4h21.743a3.109 3.109 0 0 1 3.114 3.112v2.04c0 1.71-1.294 3.117-2.891 3.125l-1.267.02-.033-2.074 1.29-.02c.417-.002.827-.447.827-1.052V7.112c0-.576-.461-1.038-1.04-1.038H5.114c-.57 0-1.04.47-1.04 1.038v2.04c0 .568.455 1.049.863 1.05l1.214.02-.034 2.075z" fill-rule="nonzero" fill="#26B8FF"/></svg>