<svg width="32" height="32" viewBox="0 0 32 32" xmlns="http://www.w3.org/2000/svg"><title>81CF6103-788C-494E-9DED-271ADEAA7E96</title><path d="M6 8.507v16.986c0 .563.37 1.007.83 1.007h18.34c.453 0 .83-.453.83-1.007V8.507c0-.563-.37-1.007-.83-1.007H6.83c-.453 0-.83.453-.83 1.007zm-2 0C4 6.847 5.158 5.5 6.568 5.5h18.864C26.85 5.5 28 6.836 28 8.507v16.986c0 1.66-1.158 3.007-2.568 3.007H6.568C5.15 28.5 4 27.164 4 25.493V8.507zm1.79 4.616c-.489 0-.885-.448-.885-1s.396-1 .885-1h21.333c.489 0 .885.448.885 1s-.396 1-.885 1H5.79zM8 5a1 1 0 1 1 2 0v4.123a1 1 0 0 1-2 0V5zm14 0a1 1 0 0 1 2 0v4.123a1 1 0 0 1-2 0V5zm-4 0a1 1 0 0 1 2 0v4.123a1 1 0 0 1-2 0V5zm-6 0a1 1 0 0 1 2 0v4.123a1 1 0 0 1-2 0V5zm4.184 12.648v3.696c0 1.2-.636 2.148-2.592 2.148S11 22.544 11 21.344v-3.696c0-1.2.636-2.148 2.592-2.148s2.592.948 2.592 2.148zm-3.72.144V21.2c0 .696.204 1.008 1.128 1.008.924 0 1.128-.312 1.128-1.008v-3.408c0-.696-.204-1.008-1.128-1.008-.924 0-1.128.312-1.128 1.008zm7.009-.62V23.5h1.51v-8h-1.361l-2.279 1.313.632 1.189 1.498-.83z" fill-rule="nonzero" fill="#26B8FF"/></svg>