<svg width="32" height="32" viewBox="0 0 32 32" xmlns="http://www.w3.org/2000/svg"><title>B77A86A3-BB4C-418E-951B-188FF35EB4AF</title><path d="M6 9.828v12.325c0 .463.37.828.831.828h18.282c.46 0 .832-.368.832-.828V9.828A.824.824 0 0 0 25.113 9H6.831A.828.828 0 0 0 6 9.828zm-2-.254A2.57 2.57 0 0 1 6.57 7h18.867c1.42 0 2.57 1.143 2.57 2.574v12.87a2.57 2.57 0 0 1-2.57 2.573H6.571A2.566 2.566 0 0 1 4 22.443V9.574zM5 12h22v3.125H5V12zm3 6.01c0-.558.443-1.01 1.01-1.01h1.98c.558 0 1.01.443 1.01 1.01v1.98c0 .558-.443 1.01-1.01 1.01H9.01C8.451 21 8 20.557 8 19.99v-1.98z" fill-rule="nonzero" fill="#26B8FF"/></svg>