<svg width="32" height="32" viewBox="0 0 32 32" xmlns="http://www.w3.org/2000/svg"><title>3492609E-D55A-4678-955E-4CAC6E9BC8D8</title><path d="M12.035 12.783l2.617 4.352L25.727 7.028a1.104 1.104 0 0 1 1.489 1.63L15.144 19.676c-.515.47-1.33.35-1.69-.247l-3.311-5.508a1.104 1.104 0 1 1 1.892-1.137zm7.148-7.14a1.104 1.104 0 1 1-.755 2.075 8.407 8.407 0 1 0 5.024 10.776 1.104 1.104 0 1 1 2.075.755c-2.005 5.51-8.096 8.35-13.606 6.344-5.509-2.005-8.35-8.096-6.344-13.605 2.005-5.51 8.097-8.35 13.606-6.345z" fill-rule="nonzero" fill="#26B8FF"/></svg>