<?xml version="1.0" encoding="utf-8"?>
<!-- Generated by IcoMoon.io -->
<!DOCTYPE svg PUBLIC "-//W3C//DTD SVG 1.1//EN" "http://www.w3.org/Graphics/SVG/1.1/DTD/svg11.dtd">
<svg version="1.1" xmlns="http://www.w3.org/2000/svg" xmlns:xlink="http://www.w3.org/1999/xlink" width="32" height="32" viewBox="0 0 32 32">
<path  d="M16.047 3.909c-5.646 0-10.24 4.593-10.24 10.239 0 5.41 8.611 12.907 9.593 13.744 0.187 0.16 0.418 0.239 0.648 0.239s0.462-0.079 0.648-0.239c0.983-0.837 9.593-8.334 9.593-13.744 0-5.646-4.594-10.239-10.24-10.239zM16.047 25.803c-2.79-2.512-8.243-8.147-8.243-11.655 0-4.545 3.699-8.242 8.243-8.242 4.546 0 8.243 3.697 8.243 8.242 0 3.508-5.453 9.142-8.243 11.655z"></path>
<path  d="M16.047 9.154c-2.753 0-4.994 2.241-4.994 4.994s2.242 4.994 4.994 4.994c2.755 0 4.994-2.241 4.994-4.994s-2.24-4.994-4.994-4.994zM16.047 17.145c-1.652 0-2.996-1.344-2.996-2.996s1.344-2.996 2.996-2.996c1.652 0 2.996 1.344 2.996 2.996s-1.344 2.996-2.996 2.996z"></path>
</svg>
