<svg width="32" height="32" viewBox="0 0 32 32" xmlns="http://www.w3.org/2000/svg"><title>07D556D6-480D-47A6-8FC2-AAD19BC2D1E2</title><path d="M28.68 16.015c0 6.994-5.67 12.664-12.665 12.664-6.994 0-12.664-5.67-12.664-12.664S9.02 3.351 16.015 3.351s12.664 5.67 12.664 12.664zm-1.65 0c0-6.083-4.932-11.014-11.015-11.014S5.001 9.932 5.001 16.015c0 6.083 4.931 11.014 11.014 11.014 6.083 0 11.014-4.93 11.014-11.014zm-6.61-5.673L10.273 20.494a.798.798 0 0 0 1.127 1.128L21.55 11.47a.798.798 0 0 0-1.128-1.128zM10.31 11.44l10.286 10.32a.823.823 0 1 0 1.165-1.165l-10.286-10.32a.823.823 0 1 0-1.165 1.165z" fill-rule="nonzero" fill="#26B8FF"/></svg>