<svg width="32" height="32" viewBox="0 0 32 32" xmlns="http://www.w3.org/2000/svg"><title>20E2B905-7E6D-4CE4-B488-71FE5ECE5969</title><path d="M28.757 15.878c0 7.113-5.766 12.879-12.879 12.879C8.766 28.757 3 22.99 3 15.878 3 8.766 8.766 3 15.878 3c7.113 0 12.879 5.766 12.879 12.878zm-2 0C26.757 9.87 21.887 5 15.878 5 9.87 5 5 9.87 5 15.878s4.87 10.879 10.878 10.879 10.879-4.87 10.879-10.879zm-9.77 1.762c-.169.14-.27.242-.308.28-.002.557-.002.95 0 1.206v.125a1 1 0 1 1-2 .016v-.134c-.002-.278-.002-.71 0-1.33 0-.161.026-.32.075-.473.148-.461.452-.81.955-1.229.2-.165.983-.761 1.138-.886.982-.79 1.421-1.417 1.421-2.179a1.802 1.802 0 0 0-.263-.895c-.356-.594-1.044-.957-2.319-.947-1.296.01-2.081.398-2.547 1.027-.272.367-.384.735-.4.926a1 1 0 1 1-1.993-.175c.046-.526.262-1.233.785-1.94.845-1.142 2.223-1.824 4.14-1.838 1.965-.015 3.318.7 4.049 1.918a3.71 3.71 0 0 1 .548 1.958c-.004 1.492-.762 2.573-2.168 3.703-.188.152-.954.735-1.113.867zm-1.372 3.216a.951.951 0 1 1-.001 1.902.951.951 0 0 1 0-1.902z" fill-rule="nonzero" fill="#26B8FF"/></svg>