<svg width="32" height="32" viewBox="0 0 32 32" xmlns="http://www.w3.org/2000/svg"><title>71A66494-5D2B-4C6A-A91B-CAFE15DBCDC3</title><path d="M22.62 9.025c-4.244.031-8.81.036-13.324-.002l5.797 6.324a1 1 0 0 1 .263.676v7.287l1.757-.928v-6.36a1 1 0 0 1 .253-.664l5.632-6.336-.378.003zm-16.355-.35C5.673 8.03 6.138 6.99 7.014 7a826.987 826.987 0 0 0 18.218 0c.869-.01 1.337 1.015.76 1.664l-6.88 7.739v6.582a1 1 0 0 1-.532.884l-3.757 1.985a1 1 0 0 1-1.467-.884v-8.559L6.265 8.676z" fill-rule="nonzero" fill="#26B8FF"/></svg>