<svg width="32" height="32" viewBox="0 0 32 32" xmlns="http://www.w3.org/2000/svg"><title>E6A84B4F-D5E2-42A3-88F8-23E60C1CE2A5</title><path d="M8 26h17V6H8v20zM6 4.926C6 4.415 6.439 4 6.999 4H26c.552 0 .999.417.999.926v22.148c0 .511-.439.926-.999.926H7C6.447 28 6 27.583 6 27.074V4.926zm4 4.065c0-.547.444-.991 1-.991h3a1 1 0 0 1 1 .99v4.02c0 .546-.444.99-1 .99h-3a1 1 0 0 1-1-.99V8.99zM17 9a1 1 0 0 1 .99-1h4.02c.546 0 .99.444.99 1a1 1 0 0 1-.99 1h-4.02A.993.993 0 0 1 17 9zm0 4a1 1 0 0 1 .99-1h4.02c.546 0 .99.444.99 1a1 1 0 0 1-.99 1h-4.02a.993.993 0 0 1-.99-1zm-7 4a1 1 0 0 1 .999-1H22a1 1 0 1 1 0 2H11A.997.997 0 0 1 10 17zm0 4a1 1 0 0 1 .999-1H22a1 1 0 1 1 0 2H11A.997.997 0 0 1 10 21z" fill-rule="nonzero" fill="#26B8FF"/></svg>