<svg width="32" height="32" viewBox="0 0 32 32" xmlns="http://www.w3.org/2000/svg"><title>8654BE3D-EA82-4E0A-91B7-2F392EB55358</title><path d="M7.993 14h.005-.005zm0-2c.008 0 .007 0 .007.01v1.98c0 .007 0 .01-.002.01h16.009c-.008 0-.007 0-.007-.01v-1.98c0-.007 0-.01.002-.01H7.993zM6 12.01C6 10.902 6.889 10 7.993 10h16.014c1.106 0 1.993.896 1.993 2.01v1.98c0 1.107-.889 2.01-1.993 2.01H7.993A1.996 1.996 0 0 1 6 13.99v-1.98zm17 3.986V16v-.004zm0 9.008V25c.002 0 0 .003 0 .004zM9 15.996V16c-.002 0 0-.003 0-.004zM9 25h14v-9H9v9zm-2-9.004C7 14.892 7.894 14 9 14h14c1.103 0 2 .892 2 1.996v9.008A1.996 1.996 0 0 1 23 27H9c-1.103 0-2-.892-2-1.996v-9.008zm8-3.989c0-.556.444-1.007 1-1.007.552 0 1 .449 1 1.007v12.986c0 .556-.444 1.007-1 1.007-.552 0-1-.449-1-1.007V12.007zM10 8.5a3.5 3.5 0 0 1 7 0c0 1.96-.042 2.351-.588 2.925-.582.612-1.138.667-2.94.575A3.5 3.5 0 0 1 10 8.5zm3.5 1.5l.051.001c.696.036 1.052.042 1.3.018.143-.013.154-.017.112.027 0 .001.037-.35.037-1.546a1.5 1.5 0 1 0-1.5 1.5zm5 2c-3.052 0-3.5-.448-3.5-3.5a3.5 3.5 0 1 1 3.5 3.5zm0-2A1.5 1.5 0 1 0 17 8.5c0 1.948-.448 1.5 1.5 1.5z" fill-rule="nonzero" fill="#26B8FF"/></svg>