<svg width="32" height="32" viewBox="0 0 32 32" xmlns="http://www.w3.org/2000/svg"><title>0DA07934-8634-4452-93FA-91490ACDD573</title><path d="M7 12a2 2 0 1 1 0-4 2 2 0 0 1 0 4zm0 6a2 2 0 1 1 0-4 2 2 0 0 1 0 4zm0 6a2 2 0 1 1 0-4 2 2 0 0 1 0 4zm4-14c0-.552.445-1 1-1h14c.552 0 1 .444 1 1 0 .552-.445 1-1 1H12c-.552 0-1-.444-1-1zm0 6c0-.552.445-1 1-1h14c.552 0 1 .444 1 1 0 .552-.445 1-1 1H12c-.552 0-1-.444-1-1zm0 6c0-.552.445-1 1-1h14c.552 0 1 .444 1 1 0 .552-.445 1-1 1H12c-.552 0-1-.444-1-1z" fill="#26B8FF" fill-rule="evenodd"/></svg>