<svg width="32" height="32" viewBox="0 0 32 32" xmlns="http://www.w3.org/2000/svg"><title>6432CD5F-BE7E-4FF6-A5F1-15B542C896BC</title><path d="M9.006 13l.004-.6.003-.59c.004-.799.006-1.42.006-1.79C9.02 7.43 11.465 5 16.034 5c4.547 0 6.983 2.475 6.983 5.026v1.827l.001.519V13h.989A3.002 3.002 0 0 1 27 16.002v9.996A2.998 2.998 0 0 1 24.007 29H7.993A3.002 3.002 0 0 1 5 25.998v-9.996A2.998 2.998 0 0 1 7.993 13h1.013zm2 0H21.02v-.627l-.001-.518-.001-1.829c0-.426-.279-1.118-.829-1.677C19.361 7.509 18.02 7 16.034 7c-1.996 0-3.349.498-4.178 1.322-.558.553-.837 1.24-.837 1.699 0 .374-.002.997-.006 1.8l-.003.59-.004.589zM7 16.002v9.996c0 .546.445 1.002.993 1.002h16.014A.998.998 0 0 0 25 25.998v-9.996c0-.546-.445-1.002-.993-1.002H7.993A.998.998 0 0 0 7 16.002zm10.024 5.717V24a1 1 0 0 1-1 1H16c-.552 0-1-.444-1-1v-2.268a2 2 0 1 1 2.024-.013z" fill-rule="nonzero" fill="#26B8FF"/></svg>