<svg width="32" height="34" viewBox="0 0 32 34" xmlns="http://www.w3.org/2000/svg"><title>E1B8B11F-4B4B-470A-A625-5A5E6161DA9F</title><path d="M15.3 20.464l-2.498-2.438c-.024.027-.05.054-.076.08L6.422 24h19.156l-6.304-5.895a1.011 1.011 0 0 1-.076-.079l-2.497 2.438a.997.997 0 0 1-1.402 0zm.7-2.111L24.558 10H7.442L16 18.353zm10-6.965l-5.373 5.244.013.013L26 21.657v-10.27zM6 21.657l5.36-5.012a1.02 1.02 0 0 1 .013-.013L6 11.388v10.269zm-2-11.34C4 9.036 4.926 8 6.067 8h19.866C27.075 8 28 9.046 28 10.316v13.368C28 24.963 27.074 26 25.933 26H6.067C4.925 26 4 24.954 4 23.684V10.316z" fill-rule="nonzero" fill="#26B8FF"/></svg>