<svg width="32" height="32" viewBox="0 0 32 32" xmlns="http://www.w3.org/2000/svg"><title>19B2C7CB-7201-4A06-B3F6-A991AB430960</title><path d="M12.521 19.37h-1.97l-1.988-5.309-.157 6.513H6.741l.34-9.824h1.94l2.515 6.744 2.514-6.744h1.942l.339 9.824h-1.665l-.157-6.513-1.988 5.309zm13.463 1.204H23.99L21.667 17.2h-1.901v3.374h-1.704V10.75h3.806c2.02 0 2.952.867 2.952 2.546v1.344c0 1.148-.424 1.918-1.342 2.298l2.506 3.636zm-4.158-4.938c1.016 0 1.29-.22 1.29-.982V13.31c0-.77-.266-.982-1.29-.982h-2.06v3.308h2.06z" fill-rule="nonzero" fill="#26B8FF"/></svg>