<svg width="32" height="32" viewBox="0 0 32 32" xmlns="http://www.w3.org/2000/svg"><title>D392F913-E4F9-466C-BBF5-0D7CFAE20E51</title><g fill="none" fill-rule="evenodd"><path d="M7.906 15.316h.005-.005zm.006 9.559l15.3.002-.001-9.559-15.3-.002.001 9.559zM6 15.318a1.91 1.91 0 0 1 1.906-1.915h15.31c1.054 0 1.907.865 1.907 1.915v9.557a1.91 1.91 0 0 1-1.906 1.914H7.906A1.915 1.915 0 0 1 6 24.875v-9.557zm1.912 2.866h15.299v-2.868H7.912v2.868zM6 15.316a1.91 1.91 0 0 1 1.906-1.913h15.31c1.056 0 1.907.855 1.907 1.913v2.868a1.91 1.91 0 0 1-1.906 1.912H7.906A1.907 1.907 0 0 1 6 18.184v-2.868zm12.613-.956l1.719.838-2.096 4.297-1.718-.838 2.095-4.297zm-.69-5.294l-3.974-.99.604 3.106 3.974.991-.604-3.107zm2.047.51l.604 3.107 2.867.715.694-2.783-4.165-1.038zm-8.068-2.011l-2.611-.651-.694 2.783 3.909.975-.604-3.107zm.974 6.795l1.72.838-2.097 4.297-1.718-.838 2.095-4.297zM9.747 5.057L24.604 8.76a1.907 1.907 0 0 1 1.386 2.316l-.694 2.784a1.91 1.91 0 0 1-2.312 1.394L8.128 11.551a1.907 1.907 0 0 1-1.387-2.316l.695-2.784a1.91 1.91 0 0 1 2.311-1.394z" fill="#26B8FF" fill-rule="nonzero"/></g></svg>