<svg width="32" height="32" viewBox="0 0 32 32" xmlns="http://www.w3.org/2000/svg"><title>E4A50452-F236-4833-B713-6872CC6A1F6B</title><path d="M20.434 19.606zm-.06.198c-.12.349-.268.669-.467.964-.104.154-.22.297-.346.427-.66.677-1.488.901-2.243.789a2.96 2.96 0 0 1-1.453-.57 25.438 25.438 0 0 1-2.85-2.43 25.501 25.501 0 0 1-2.423-2.84c-1.044-1.423-.504-3.316 1.208-4.117l.587-.3c.012-.066.017-.112.033-.049-.364-1.375-.834-2.813-1.487-4.642a1.191 1.191 0 0 0-.147-.033A9.54 9.54 0 0 0 7.54 9.135a9.15 9.15 0 0 0-.54.592c.022 3.627 1.713 7.409 4.778 10.5 3.033 3.037 6.693 4.956 9.956 5.21l.275-.218c.302-.234.592-.49.858-.753a9.532 9.532 0 0 0 2.162-3.33c-.03.077-.033.014-.064-.077-1.433-.647-2.59-1.013-4.527-1.448-.02.063-.04.128-.063.193zm2.089 7.662c-4.218 0-8.683-2.405-12.069-5.791l-.068-.072c-3.511-3.54-5.425-7.988-5.322-12.276l.008-.317.196-.247c.303-.386.603-.726.916-1.04a11.549 11.549 0 0 1 4.016-2.615c.182-.071.392-.108.617-.108.51 0 1.658.26 1.952 1.064.516 1.436 1.169 3.31 1.644 5.101.132.503.002 1.718-.7 2.162l-.944.481c-.757.355-.723.855-.505 1.153.65.89 1.402 1.772 2.237 2.62a23.35 23.35 0 0 0 2.6 2.216c.173.126.367.199.524.199 0 0 .369.12.684-.346.315-.468.43-1.303.43-1.303.462-.72 1.626-.741 1.755-.741.138 0 .257.012.369.037 2.205.492 3.518.916 5.202 1.68.749.336 1.22 1.694.885 2.545a11.515 11.515 0 0 1-2.607 4.01c-.326.323-.676.632-1.046.92l-.246.194-.528.474z" fill-rule="nonzero" fill="#26B8FF"/></svg>