<svg width="32" height="32" viewBox="0 0 32 32" xmlns="http://www.w3.org/2000/svg"><title>C39DFE03-7BA4-4A27-AE11-5F9B4CB1B821</title><path d="M11.001 5c-3.28 0-6 1.53-6 2.832v8.233a9.132 9.132 0 0 0 .715 3.562C6.628 21.766 8.272 23 11.001 23c2.73 0 4.373-1.234 5.285-3.373A9.127 9.127 0 0 0 17 16.071V8.053C17 6.252 14.663 5 11 5zm0-2c4.62 0 8 1.81 8 5.053V16.012c.005.395-.021.913-.105 1.532a11.13 11.13 0 0 1-.77 2.867C16.916 23.248 14.583 25 11 25s-5.915-1.751-7.125-4.589a11.13 11.13 0 0 1-.77-2.867c-.084-.62-.11-1.137-.105-1.501V7.832C3 5.117 6.763 3 11 3zm-5 14.031c.008.49.218 1.116.79 1.702.83.85 2.197 1.321 4.16 1.321 1.958 0 3.332-.465 4.183-1.3.585-.574.817-1.19.843-1.675a1 1 0 0 0-1.997-.107c-.002.022-.056.167-.247.354-.441.433-1.312.728-2.782.728-1.464 0-2.313-.293-2.729-.718-.174-.179-.221-.318-.221-.337a1 1 0 0 0-2 .032zm21-.61v3.632a9.156 9.156 0 0 1-.715 3.59c-.911 2.138-2.555 3.372-5.284 3.372-1.805 0-3.13-.545-4.093-1.533a1 1 0 1 0-1.432 1.396c1.344 1.379 3.187 2.137 5.525 2.137 3.582 0 5.915-1.752 7.124-4.589.392-.918.638-1.89.77-2.867.084-.62.11-1.137.106-1.501v-7.99c0-3.244-3.38-5.053-8-5.053a1 1 0 0 0 0 2c3.662 0 6 1.251 6 3.053v1.95a1 1 0 0 0-.891.545s-.052.067-.16.15c-.216.169-.517.275-.95.275-.432 0-.733-.106-.95-.275a.96.96 0 0 1-.16-.152 1 1 0 0 0-1.781.908c.124.243.352.54.712.821.563.44 1.295.698 2.179.698.793 0 1.464-.208 2-.567zm-1.523 6.296a1 1 0 0 1-2 .032c0-.02-.047-.158-.221-.337-.416-.425-.765-.397-2.23-.397-.318 0-.612.015-.883.043a1 1 0 0 1-.208-1.99c.342-.035.705-.053 1.092-.053 1.963 0 2.83.15 3.66 1 .572.585.782 1.211.79 1.702zM17.892 11.56a1 1 0 1 1-1.782.908.96.96 0 0 0-.16-.152c-.217-.169-.517-.275-.95-.275-.432 0-.733.106-.95.274-.107.084-.16.15-.159.15a1 1 0 1 1-1.78-.91c.124-.243.352-.54.712-.82.564-.437 1.295-.694 2.178-.694.884 0 1.615.258 2.179.698.36.28.588.578.712.82zm-8 0a1 1 0 1 1-1.782.908.96.96 0 0 0-.16-.152c-.217-.169-.517-.275-.95-.275-.432 0-.733.106-.95.274-.107.084-.16.15-.159.15a1 1 0 1 1-1.78-.91c.124-.243.352-.54.712-.82.564-.437 1.295-.694 2.178-.694.884 0 1.615.258 2.179.698.36.28.588.578.712.82z" fill-rule="nonzero" fill="#26B8FF"/></svg>