<svg width="32" height="32" viewBox="0 0 32 32" xmlns="http://www.w3.org/2000/svg"><title>AAA306E4-BC4A-44A6-ACCB-3A961F81A9D0</title><path d="M17.99 13.19c-.157-.599-.916-1.017-2.007-1.017-1.025-.001-1.767.37-1.977.877l1.063 15.292 1.895-.014 1.027-15.139zm1.99.236l-1.01 14.886 2.174-.016 3.853-15.96c-.164-.097-1.158-.395-2.403-.303-1.578.117-2.573.711-2.573 1.393h-.042zm-7.958-.078h-.076c0-.613-.997-1.2-2.554-1.328-1.24-.102-2.212.179-2.37.265l3.739 16.09 2.305-.018-1.044-15.009zm10.425-3.31c2.41-.177 4.573.57 4.573 2.32a1 1 0 0 1-.028.234l-4.087 16.932a1 1 0 0 1-.965.766l-11.964.091a1 1 0 0 1-.982-.773L5.026 12.53A1 1 0 0 1 5 12.304c0-1.758 2.146-2.475 4.555-2.278 1.363.112 2.56.508 3.359 1.175.748-.665 1.858-1.03 3.07-1.028 1.22 0 2.328.371 3.073 1.05.804-.683 2.012-1.083 3.39-1.184zm-4.049-5.302a1.009 1.009 0 0 1-.042-.097c-.825-2.211-4.827-2.088-5.023-.244a1 1 0 0 1-1.445.787c-1.316-.664-2.151-.032-2.151 1.53a1 1 0 0 1-1 1c-1.147 0-1.672.502-1.732 1.3-.049.65.253 1.15.413 1.15a1 1 0 1 1 0 2c-1.548 0-2.532-1.629-2.407-3.3.116-1.56 1.14-2.749 2.804-3.066.362-2.018 1.923-3.225 3.88-2.796 1.392-2.678 6.315-2.703 8.14.147 3.247-.527 5.608 1.424 6.01 4.234.64.262 1.184.835 1.455 1.525.491 1.253-.029 2.554-1.464 3.199a1 1 0 0 1-.819-1.825c.456-.204.525-.378.42-.644-.098-.252-.32-.411-.307-.414a1 1 0 0 1-1.224-.974c0-2.07-1.437-3.494-3.736-3.129 1.245.676 1.737 2.133 1.138 3.971a1 1 0 0 1-1.902-.619c.347-1.065.151-1.5-.376-1.672-.455-.148-1.012-.004-1.021.016a1 1 0 1 1-1.838-.789c.34-.792 1.254-1.24 2.227-1.29zm-7.401 4.61a1 1 0 0 1-1.515 1.305c-.755-.876-.582-2.147.206-2.957.846-.87 2.144-.962 3.176-.068a1 1 0 1 1-1.309 1.512c-.212-.184-.31-.177-.433-.05-.12.124-.137.244-.125.257z" fill-rule="nonzero" fill="#26B8FF"/></svg>