<svg width="32" height="32" viewBox="0 0 32 32" xmlns="http://www.w3.org/2000/svg"><title>7F294FF7-78F7-47C3-87EA-853FF7204258</title><path d="M20.504 17.038a23.39 23.39 0 0 1 5.803 1.873c1.238.646 2.054 2.12 1.926 3.46l-.254 2.57c-.142 1.343-1.245 2.589-2.55 2.833a58.783 58.783 0 0 1-18.595.002c-1.323-.248-2.422-1.472-2.561-2.834a266.175 266.175 0 0 1-.259-2.576c-.132-1.309.675-2.8 1.87-3.43a23.64 23.64 0 0 1 6.33-1.98l.509-.083.136.84-.841.124-.14-.94.842-.124-.55.649-.15-.128a3.928 3.928 0 0 1-.275-.256c-.487-.501-.805-1.106-.86-1.696l-.047-.432a1.834 1.834 0 0 1-.92-1.41l-.253-2.427a1.815 1.815 0 0 1 .557-1.517l-.062-.567c-.18-1.885.047-3.188 1.328-4.329C12.559 3.605 14.285 3 16.124 3c1.868 0 3.57.607 4.663 1.681 1.272 1.133 1.484 2.425 1.301 4.321l-.06.552a1.818 1.818 0 0 1 .555 1.52l-.252 2.423a1.813 1.813 0 0 1-.924 1.417l-.053.442c-.045.581-.366 1.184-.85 1.682a3.87 3.87 0 0 1-.273.255l-.153.13-.55-.648.842.116-.13.939-.842-.116.138-.84.503.083a24.195 24.195 0 0 1 .465.081zm-.836 1.522l-.49-.08a.828.828 0 0 1-.686-.93l.126-.915a.828.828 0 0 1 .284-.518l.15-.127c.307-.261.5-.577.517-.786l.11-.93a.828.828 0 0 1 .5-.665l.272-.115a.114.114 0 0 0 .07-.1l.245-2.371a.124.124 0 0 0-.03-.1c-.005-.007-.24-.187-.24-.187a.828.828 0 0 1-.32-.749l.109-.979c.13-1.345-.005-2.161-.75-2.827-.764-.749-2.002-1.19-3.41-1.19-1.383 0-2.644.441-3.384 1.168-.762.68-.904 1.5-.777 2.84l.108.994a.828.828 0 0 1-.322.749l-.224.17c-.041.044-.05.072-.045.107l.246 2.37a.128.128 0 0 0 .073.105l.274.117a.828.828 0 0 1 .498.671l.099.905c.02.217.21.535.527.803l.147.124c.153.13.254.312.284.51l.135.916a.828.828 0 0 1-.686.939l-.493.08a21.36 21.36 0 0 0-5.69 1.775c-.539.283-.976 1.092-.915 1.699.068.729.141 1.448.25 2.5.062.604.593 1.196 1.131 1.297a55.54 55.54 0 0 0 17.54-.003c.517-.096 1.058-.707 1.12-1.294l.246-2.496c.06-.622-.374-1.41-.954-1.72a21.183 21.183 0 0 0-5.645-1.757z" fill-rule="nonzero" fill="#26B8FF"/></svg>