<svg width="32" height="32" viewBox="0 0 32 32" xmlns="http://www.w3.org/2000/svg"><title>2623E5C1-077F-4FFD-B6AC-EFE384DC8ED9</title><path d="M20.015 21.748c-.657.479-1.483.949-2.108 1.192l-.758-1.361a9.885 9.885 0 0 0 2.144-1.348c.716-.601.695-.841.303-1.308-.317-.378-.555-.5-1.803.139-1.885.958-2.388.735-3.382-.45-.9-1.072-.932-1.981.277-3.213l-.784-.934.912-.765.763.91c.569-.449 1.283-.924 1.868-1.21l.867 1.357c-.564.323-1.42.891-1.924 1.314-.703.59-.695.84-.378 1.219.413.492.484.496 1.539-.024 2.184-1.059 2.546-.976 3.604.285.901 1.073 1.174 2.04-.232 3.427l.732.872-.912.765-.728-.867zM14.453 7.021c-.012-.21-.029-.41-.05-.603-.202-1.867-.739-2.628-1.867-2.54-.489.038-.858.67-.661 1.598l-1.561.332c-.383-1.799.554-3.401 2.098-3.521 2.223-.173 3.295 1.346 3.578 3.96.015.14.028.283.04.429l1.572-.344c.573-.126 1.346.139 1.723.589l10.132 12.074c.378.451.323 1.12-.13 1.501l-11.41 9.573a1.066 1.066 0 0 1-1.5-.132L6.285 17.863c-.379-.451-.503-1.257-.278-1.802l3.266-7.905 5.18-1.135zm.026 2.173l-3.664.803-2.756 6.67 9.305 11.089 9.78-8.207-9.306-11.09-1.758.384c-.002.19-.005.39-.012.76-.033 1.87-.332 2.45-1.629 2.725a.798.798 0 1 1-.332-1.56c.4-.086.344.021.365-1.192l.007-.382z" fill-rule="nonzero" fill="#26B8FF"/></svg>