<svg width="32" height="32" viewBox="0 0 32 32" xmlns="http://www.w3.org/2000/svg"><title>AFEFCCB4-0F7D-4E59-8E85-3E8F23BCA006</title><path d="M22.705 21.182l5.05 5.266a.923.923 0 1 1-1.33 1.281l-4.935-5.147c-1.856 1.798-4.352 2.9-7.1 2.9C8.644 25.481 4 20.664 4 14.74 4 8.816 8.644 4 14.39 4s10.39 4.816 10.39 10.74c0 2.415-.772 4.646-2.075 6.442zm-8.315 2.453c4.711 0 8.544-3.975 8.544-8.894 0-4.92-3.833-8.895-8.544-8.895-4.71 0-8.544 3.975-8.544 8.895s3.833 8.894 8.544 8.894z" fill-rule="nonzero" fill="#26B8FF"/></svg>