<svg width="32" height="32" viewBox="0 0 32 32" xmlns="http://www.w3.org/2000/svg"><title>16B6E5DC-3231-4F7E-839D-FC19B44070AD</title><path d="M3.673 14.994l.283.21v9.034c0 .376.508.794 1.239.794.73 0 1.238-.418 1.238-.794l-.005-10.697C6.36 12.677 5.608 12 4.717 12 3.77 12 3 12.748 3 13.668c0 .523.245 1.006.673 1.326zM1 13.668C1 11.631 2.678 10 4.717 10c1.925 0 3.555 1.468 3.705 3.385l.006.155.005 10.698c0 1.702-1.574 2.794-3.238 2.794-1.665 0-3.24-1.092-3.24-2.794v-8.112A3.632 3.632 0 0 1 1 13.668zm8.001 5.544L9 23.224h13.651l-.003-4.061a3.13 3.13 0 0 0-.104-.648 2.23 2.23 0 0 0-.224-.476A2.207 2.207 0 0 0 20.438 17h-9.226a2.207 2.207 0 0 0-2.105 1.514c-.07.212-.098.587-.106.698zm-1.994-.144c.033-.464.075-.796.192-1.152a4.086 4.086 0 0 1 .435-.934A4.207 4.207 0 0 1 11.212 15h9.226a4.207 4.207 0 0 1 4.007 2.892c.104.317.164.691.197 1.114l.006.155.004 6.063H7l.002-6.013.006-.143zm15.432-3.498V8.43c0-1.34-1.121-2.43-2.499-2.43h-8.443C10.121 6 9 7.09 9 8.43v7.14l.524-.248a3.66 3.66 0 0 1 1.582-.354h9.226a3.72 3.72 0 0 1 1.583.354l.524.248zm-.857 1.807l-.523-.248a1.72 1.72 0 0 0-.727-.161h-9.226c-.26 0-.498.053-.724.16L7 18.734V8.43C7 5.973 9.028 4 11.497 4h8.443c2.47 0 4.499 1.973 4.499 4.43v10.303l-2.857-1.356zm6.85-3.707c0-.921-.769-1.67-1.715-1.67-.85 0-1.58.617-1.7 1.436L25 24.24c0 .375.509.793 1.24.793.73 0 1.238-.418 1.238-.794v-9.034l.285-.211c.427-.32.671-.803.67-1.324zm1.046 10.569c0 1.702-1.574 2.794-3.239 2.794-1.664 0-3.239-1.091-3.239-2.797l.017-10.946.021-.142C23.302 11.336 24.883 10 26.717 10c2.039 0 3.715 1.632 3.715 3.67a3.614 3.614 0 0 1-.954 2.456v8.113z" fill-rule="nonzero" fill="#26B8FF"/></svg>