<svg width="32" height="32" viewBox="0 0 32 32" xmlns="http://www.w3.org/2000/svg"><title>AFC62FBF-A03F-4423-8C1B-A28CFD7F6CDB</title><path d="M17.388 6.4v13.435a1 1 0 0 1-2 0V6.474l-2.454 2.488a1 1 0 0 1-1.424-1.405l4.203-4.26a1 1 0 0 1 1.423 0l4.203 4.26a1 1 0 1 1-1.423 1.405L17.388 6.4zm5.49 19.588l-.036-11.614-2.109.009a1 1 0 1 1-.008-2l3.11-.013a1 1 0 0 1 1.004.997l.043 13.617a1 1 0 0 1-1 1.003L9.012 28a1 1 0 0 1-1-1L8 13.419a1 1 0 0 1 .993-1l3.133-.024a1 1 0 0 1 .014 2L10 14.41 10.01 26l12.868-.012z" fill-rule="nonzero" fill="#26B8FF"/></svg>