<svg width="32" height="32" viewBox="0 0 32 32" xmlns="http://www.w3.org/2000/svg"><title>E5394C53-A4D3-4427-BA97-D84E06370556</title><path d="M19.296 16.868a280.41 280.41 0 0 1-4.149 4.053 89.98 89.98 0 0 1-2.746 2.529c-1.651 1.44-3.597 1.15-4.788-.384a4.17 4.17 0 0 1-.222-.316c-.364-.014-.78.115-1.14.394-.75.584-.809 1.466.175 2.525 1.524 1.642 1.777 3.526.806 4.834-.947 1.274-2.714 1.478-3.985.33a.75.75 0 0 1 1.006-1.112c1.467 1.325 3.09-.86 1.073-3.031-1.575-1.696-1.45-3.6.005-4.73a3.399 3.399 0 0 1 1.482-.665c-.19-1.015.029-2.061.737-2.818.6-.64 1.703-1.795 3.168-3.319l.034-.036a1792.611 1792.611 0 0 1 2.712-2.813 8 8 0 1 1 5.832 4.56zm-2.122-.71a8.032 8.032 0 0 1-2.62-2.098c-.806.834-1.608 1.667-2.36 2.448l-.034.036a415.403 415.403 0 0 0-3.15 3.3c-.399.426-.337 1.325.183 1.996.513.66 1.145.755 1.893.103a88.21 88.21 0 0 0 2.682-2.47l.344-.328a249.206 249.206 0 0 0 3.062-2.987zm-1.4-10.511a6 6 0 1 0 2.09-1.909.995.995 0 0 1-.019.585c-.477 1.4.627 4.374 2.647 6.025a1 1 0 0 1-1.266 1.549c-1.958-1.6-3.244-4.131-3.452-6.25z" fill-rule="nonzero" fill="#26B8FF"/></svg>