<svg width="32" height="32" viewBox="0 0 32 32" xmlns="http://www.w3.org/2000/svg"><title>4E6C09B5-63AB-4DC3-AC81-3CA8C78802E7</title><path d="M24.03 26.048a1.677 1.677 0 0 1-.665 1.633 1.666 1.666 0 0 1-1.759.126L16 24.858l-5.608 2.95a1.676 1.676 0 0 1-1.755-.127 1.663 1.663 0 0 1-.667-1.634L9.041 19.8l-4.537-4.425a1.676 1.676 0 0 1-.422-1.713 1.668 1.668 0 0 1 1.347-1.136l6.27-.912 2.803-5.683a1.67 1.67 0 0 1 2.996 0l2.803 5.683 6.27.912c.63.093 1.15.531 1.347 1.135.197.603.032 1.27-.422 1.714l-4.793 4.674-.698-.716.716-.698.224.23c.19.194.28.433.285.67a1.02 1.02 0 0 1-.207.637.984.984 0 0 1-.624.376l-.316.054-.17-.985.985-.17 1.133 6.601z" fill-rule="nonzero" fill="#26B8FF"/></svg>