<svg width="32" height="32" viewBox="0 0 32 32" xmlns="http://www.w3.org/2000/svg"><title>0244C2F6-A106-42F5-B657-7D3C02E8AC38</title><path d="M21.816 10H6v12h15.816c-.05 0-.07-.006-.08-.005-.016.013-.022.033-.05.077l3.931-6.058-3.934-6.086c.029.045.035.064.041.072.019.006.038 0 .092 0zm0-2c.554 0 1.245.376 1.547.843L28 16.016l-4.637 7.145c-.3.463-.995.839-1.547.839H5.002A1 1 0 0 1 4 23V9c0-.552.45-1 1.002-1h16.814zm-5.764 7.805a3 3 0 1 1 6 0 3 3 0 0 1-6 0zm2 0a1 1 0 1 0 2 0 1 1 0 0 0-2 0z" fill-rule="nonzero" fill="#26B8FF"/></svg>