<svg width="32" height="32" viewBox="0 0 32 32" xmlns="http://www.w3.org/2000/svg"><title>08AE6BDE-104E-4F1B-AE43-7673B424F555</title><path d="M8.55 27.233c.274.476.872.648 1.33.384l14.219-8.21 1 1.732-14.22 8.21c-1.38.797-3.174.283-4.002-1.15l-1.04-1.802s2.235-1.983.574-4.86c-1.662-2.879-4.27-1.54-4.27-1.54l-1.269-2.2C.045 16.367.497 14.56 1.879 13.76L16.1 5.55l1 1.733-14.22 8.21c-.46.265-.609.864-.335 1.339l.512.887c.19-.015.388-.02.594-.014 1.749.051 3.347.985 4.433 2.866 1.056 1.828 1.13 3.666.465 5.286-.11.27-.233.518-.363.745l.364.63zm14.9-22.466c-.274-.476-.872-.648-1.33-.384l-14.219 8.21-1-1.732 14.22-8.21c1.38-.797 3.174-.283 4.002 1.15l1.04 1.802s-2.235 1.983-.574 4.86c1.662 2.879 4.27 1.54 4.27 1.54l1.269 2.2c.827 1.431.375 3.238-1.007 4.037L15.9 26.45l-1-1.733 14.22-8.21c.46-.265.609-.864.335-1.339l-.512-.887c-.19.015-.388.02-.594.014-1.749-.051-3.347-.985-4.433-2.866-1.056-1.828-1.13-3.666-.465-5.286.11-.27.233-.518.363-.745l-.364-.63z" fill-rule="nonzero" fill="#26B8FF"/></svg>