<svg width="32" height="32" viewBox="0 0 32 32" xmlns="http://www.w3.org/2000/svg"><title>AB2453B8-8226-4C65-AC75-5425FE2A2CE5</title><path d="M15.916 25.273a8 8 0 1 0 0-16 8 8 0 0 0 0 16zm0 2c-5.523 0-10-4.478-10-10 0-5.523 4.477-10 10-10 5.522 0 10 4.477 10 10 0 5.522-4.478 10-10 10zm1-15v3.986l3.959 3.402a1 1 0 0 1-1.304 1.517l-4.307-3.701a1 1 0 0 1-.348-.759v-4.445a1 1 0 1 1 2 0zM4.83 6.32l4.04-2.936a1.99 1.99 0 0 1 2.796.45l.677.946c.684.952.356 2.206-.688 2.724l-.134.055c-.187.061-.758.374-1.771 1.11-.605.439-1.088.835-1.46 1.18a5.692 5.692 0 0 0-.428.432c-.821.838-2.12.737-2.807-.221l-.677-.945A2.003 2.003 0 0 1 4.83 6.32zm1.175 1.618c-.008.005-.007.004-.002.011l.563.785c.38-.4 1.032-.974 2.008-1.683.926-.673 1.588-1.07 2.025-1.272l-.556-.775-4.038 2.934zm21.736 1.524l-.726.908c-.744.93-2.054.944-2.81.031l-.068-.092c-.135-.207-.602-.707-1.553-1.477a13.943 13.943 0 0 0-1.49-1.07 5.416 5.416 0 0 0-.538-.294c-1.023-.569-1.275-1.837-.543-2.753l.726-.907a1.99 1.99 0 0 1 2.816-.304l3.881 3.143c.865.7.996 1.952.305 2.815zm-1.562-1.25c.006-.006.006-.005-.002-.011L22.3 5.06l-.595.744c.494.258 1.22.729 2.139 1.474.872.706 1.435 1.261 1.759 1.657l.577-.722zM8.957 23.69a1 1 0 1 1 1.626 1.165l-2.855 3.983a1 1 0 0 1-1.625-1.165l2.854-3.983zm12.146 1.165a1 1 0 1 1 1.625-1.165l2.855 3.983a1 1 0 1 1-1.626 1.165l-2.854-3.983z" fill-rule="nonzero" fill="#26B8FF"/></svg>