<svg width="32" height="32" viewBox="0 0 32 32" xmlns="http://www.w3.org/2000/svg"><title>D7D957FA-217B-449D-BC3A-2D236E102E2D</title><path d="M16.493 26.928v-2.52c2.88-.24 3.84-1.392 3.84-4.2 0-2.832-.48-3.432-4.416-4.704-2.52-.816-2.736-1.128-2.736-2.856 0-2.088.624-2.4 2.832-2.4 1.128 0 2.856.192 3.888.384l.192-1.704c-.912-.24-2.016-.36-3.096-.408V6h-1.776v2.496c-3.12.168-4.056 1.416-4.056 4.104 0 2.784.48 3.456 4.08 4.608 2.952.936 3.072 1.2 3.072 3.024 0 1.848-.312 2.448-2.856 2.448-1.224 0-2.88-.24-4.296-.672l-.264 1.632c1.176.432 2.592.72 3.816.792v2.496h1.776z" stroke-width=".5" stroke="#26B8FF" fill="#26B8FF" fill-rule="evenodd"/></svg>