<svg width="32" height="32" viewBox="0 0 32 32" xmlns="http://www.w3.org/2000/svg"><title>326F5394-3290-4789-A4F3-F70938FE45BC</title><path d="M20.888 8.503h4.047a1 1 0 0 1 0 2h-.11l-1.862 16.51a1 1 0 0 1-.994.888H9.941a1 1 0 0 1-.993-.886L7.046 10.503H7a1 1 0 1 1 0-2h3.98C11.316 6.186 12.968 5 15.936 5c2.923 0 4.613 1.253 4.952 3.503zm-2.038 0C18.576 7.467 17.711 7 15.936 7c-1.827 0-2.663.423-2.925 1.503h5.84zm3.963 2H9.06L10.833 25.9h10.243l1.737-15.398zM14.918 12.6a1 1 0 0 1 2 .002l-.007 10.553a1 1 0 0 1-2-.002l.007-10.553zm-3.996.095a1 1 0 0 1 1.991-.188l.994 10.553a1 1 0 0 1-1.991.188l-.994-10.553zm8-.189a1 1 0 0 1 1.991.19l-1.006 10.553a1 1 0 1 1-1.991-.19l1.006-10.553z" fill-rule="nonzero" fill="#26B8FF"/></svg>