<svg width="32" height="32" viewBox="0 0 32 32" xmlns="http://www.w3.org/2000/svg"><title>BE8E1A0D-7357-43C5-933A-60D168FDBBD4</title><path d="M15.6 13.394h3.3a1.1 1.1 0 0 1 0 2.202h-3.3v3.289a1.1 1.1 0 1 1-2.2 0v-3.29h-3.3a1.1 1.1 0 0 1 0-2.201h3.3v-3.25a1.1 1.1 0 1 1 2.2 0v3.25zm6.998 7.708l5.41 5.611a.905.905 0 1 1-1.302 1.256l-5.299-5.494c-1.82 1.762-4.267 2.842-6.96 2.842-5.633 0-10.185-4.72-10.185-10.528 0-5.807 4.552-10.528 10.184-10.528 5.633 0 10.185 4.721 10.185 10.528 0 2.367-.756 4.553-2.033 6.313zm-8.152 2.406c4.618 0 8.375-3.896 8.375-8.719 0-4.822-3.757-8.718-8.375-8.718-4.617 0-8.374 3.896-8.374 8.718 0 4.823 3.757 8.719 8.374 8.719z" fill-rule="nonzero" fill="#26B8FF"/></svg>