<svg width="32" height="32" viewBox="0 0 32 32" xmlns="http://www.w3.org/2000/svg"><title>70D68E02-F789-4EC0-8A37-C2CEB36FB7D5</title><path d="M22.598 21.102l5.41 5.611a.905.905 0 1 1-1.302 1.256l-5.299-5.494c-1.82 1.762-4.267 2.842-6.96 2.842-5.633 0-10.185-4.72-10.185-10.528 0-5.807 4.552-10.528 10.184-10.528 5.633 0 10.185 4.721 10.185 10.528 0 2.367-.756 4.553-2.033 6.313zm-8.152 2.406c4.618 0 8.375-3.896 8.375-8.719 0-4.822-3.757-8.718-8.375-8.718-4.617 0-8.374 3.896-8.374 8.718 0 4.823 3.757 8.719 8.374 8.719zM10.1 15.596a1.1 1.1 0 0 1 0-2.202h8.8a1.1 1.1 0 0 1 0 2.202h-8.8z" fill-rule="nonzero" fill="#26B8FF"/></svg>