<?xml version="1.0" encoding="utf-8"?>
<!-- Generated by IcoMoon.io -->
<!DOCTYPE svg PUBLIC "-//W3C//DTD SVG 1.1//EN" "http://www.w3.org/Graphics/SVG/1.1/DTD/svg11.dtd">
<svg version="1.1" xmlns="http://www.w3.org/2000/svg" xmlns:xlink="http://www.w3.org/1999/xlink" width="50" height="32" viewBox="0 0 50 32">
<path fill="#2a2b6d" d="M4.9 0.709h39.97c2.184 0 3.897 1.771 3.897 3.956v22.731c0 2.184-1.771 3.956-3.897 3.956h-39.97c-2.184 0-3.897-1.771-3.897-3.956v-22.731c0-2.184 1.771-3.956 3.897-3.956z"></path>
<path fill="#fff" d="M19.247 4.9l-4.9 11.867h-3.188l-2.421-9.447c-0.118-0.59-0.295-0.827-0.709-1.063-0.708-0.413-1.948-0.768-3.011-1.004l0.059-0.354h5.137c0.649 0 1.24 0.472 1.417 1.181l1.299 6.849 3.129-8.089 3.188 0.059zM31.823 12.871c0-3.129-4.251-3.306-4.251-4.723 0-0.413 0.413-0.886 1.299-1.004 0.413-0.059 1.653-0.118 3.011 0.531l0.531-2.539c-0.768-0.236-1.712-0.472-2.893-0.472-3.011 0-5.078 1.594-5.137 3.897 0 1.712 1.476 2.657 2.657 3.247s1.594 0.945 1.594 1.476c0 0.768-0.945 1.122-1.83 1.181-1.535 0-2.421-0.413-3.129-0.768l-0.531 2.598c0.709 0.354 2.007 0.59 3.365 0.649 3.188 0 5.314-1.594 5.314-4.074zM39.734 16.768h2.775l-2.421-11.867h-2.598c-0.59 0-1.063 0.354-1.299 0.886l-4.546 10.982h3.188l0.649-1.771h3.897l0.354 1.771zM36.31 12.517l1.594-4.428 0.886 4.428h-2.48zM23.616 4.9l-2.48 11.867h-3.011l2.48-11.867c0 0 3.011 0 3.011 0z"></path>
<path fill="#fff" d="M8.502 26.922c-0.413 0.118-0.768 0.236-1.181 0.354-0.354 0.059-0.708 0.118-1.063 0.118-0.886 0-1.594-0.236-2.066-0.709-0.531-0.472-0.768-1.122-0.768-1.948 0-0.531 0.059-1.004 0.236-1.476s0.413-0.886 0.709-1.299c0.354-0.472 0.827-0.827 1.358-1.063s1.122-0.354 1.712-0.354c0.354 0 0.649 0.059 1.004 0.118s0.649 0.177 1.004 0.354l-0.236 1.358c-0.295-0.236-0.59-0.354-0.827-0.472-0.295-0.118-0.59-0.177-0.886-0.177-0.649 0-1.24 0.236-1.653 0.768-0.472 0.531-0.708 1.181-0.708 1.948 0 0.531 0.118 0.886 0.413 1.181s0.649 0.413 1.181 0.413c0.295 0 0.59-0.059 0.945-0.177s0.709-0.295 1.122-0.531l-0.295 1.594z"></path>
<path fill="#fff" d="M14.819 24.207l-0.59 3.011h-1.535l0.472-2.598c0.059-0.177 0.059-0.295 0.059-0.413s0-0.236 0-0.295-0.059-0.354-0.177-0.413c-0.118-0.118-0.236-0.177-0.413-0.177-0.354 0-0.59 0.118-0.827 0.354s-0.413 0.59-0.472 1.063l-0.472 2.421h-1.535l1.299-6.79h1.594l-0.531 2.657c0.295-0.295 0.59-0.472 0.886-0.649 0.295-0.118 0.59-0.236 0.886-0.236 0.472 0 0.827 0.118 1.063 0.354s0.354 0.59 0.354 1.004c0 0.118 0 0.177 0 0.295 0 0.177-0.059 0.295-0.059 0.413z"></path>
<path fill="#fff" d="M20.546 24.915l-0.059 0.236h-3.661c0 0 0 0.059 0 0.059 0 0.059 0 0.059 0 0.059 0 0.354 0.118 0.59 0.295 0.709 0.177 0.177 0.472 0.236 0.827 0.236s0.649-0.059 1.063-0.177c0.354-0.118 0.768-0.236 1.122-0.413l-0.236 1.24c-0.354 0.118-0.768 0.236-1.122 0.295s-0.768 0.118-1.122 0.118c-0.768 0-1.358-0.177-1.771-0.531s-0.59-0.886-0.59-1.535c0-0.354 0.059-0.768 0.177-1.063 0.118-0.354 0.354-0.649 0.59-0.945 0.295-0.354 0.649-0.649 1.063-0.827s0.886-0.295 1.358-0.295c0.649 0 1.181 0.177 1.594 0.531 0.354 0.354 0.59 0.827 0.59 1.417 0 0.118 0 0.236 0 0.354-0.059 0.236-0.059 0.413-0.118 0.531zM19.070 24.207c0-0.059 0-0.059 0-0.118s0-0.059 0-0.118c0-0.236-0.059-0.413-0.177-0.59-0.118-0.118-0.354-0.236-0.59-0.236-0.295 0-0.59 0.118-0.768 0.236-0.236 0.177-0.354 0.413-0.472 0.768h2.007z"></path>
<path fill="#fff" d="M25.801 22.435l-0.236 1.299c-0.236-0.118-0.413-0.236-0.59-0.295s-0.413-0.118-0.59-0.118c-0.531 0-0.945 0.177-1.24 0.531s-0.472 0.768-0.472 1.299c0 0.354 0.118 0.59 0.295 0.768s0.472 0.295 0.827 0.295c0.236 0 0.472-0.059 0.709-0.118s0.472-0.177 0.649-0.354l-0.236 1.299c-0.236 0.118-0.531 0.177-0.768 0.177-0.236 0.059-0.531 0.059-0.768 0.059-0.768 0-1.358-0.177-1.771-0.531s-0.59-0.827-0.59-1.476c0-0.413 0.059-0.768 0.236-1.181 0.118-0.354 0.354-0.709 0.649-1.004 0.295-0.354 0.649-0.59 1.122-0.768 0.413-0.177 0.886-0.236 1.417-0.236 0.236 0 0.472 0 0.709 0.059 0.118 0.118 0.354 0.236 0.649 0.295z"></path>
<path fill="#fff" d="M27.041 20.369h1.535l-0.709 3.72 2.125-1.83h1.83l-2.834 2.303 2.066 2.657h-1.771l-1.594-2.125-0.413 2.125h-1.535z"></path>
<path fill="#fff" d="M34.244 22.14c0.709 0 1.299 0.177 1.712 0.531s0.649 0.886 0.649 1.535c0 0.354-0.059 0.709-0.177 1.063s-0.295 0.649-0.59 0.945c-0.295 0.354-0.649 0.59-1.063 0.768s-0.827 0.236-1.358 0.236c-0.709 0-1.299-0.177-1.712-0.531s-0.649-0.886-0.649-1.535c0-0.354 0.059-0.709 0.177-1.063s0.295-0.709 0.59-0.945c0.295-0.354 0.649-0.59 1.063-0.768 0.472-0.118 0.886-0.236 1.358-0.236zM34.125 23.262c-0.413 0-0.709 0.177-1.004 0.531-0.236 0.354-0.413 0.827-0.413 1.417 0 0.295 0.059 0.531 0.236 0.709 0.118 0.177 0.354 0.236 0.59 0.236 0.413 0 0.709-0.177 1.004-0.531 0.236-0.354 0.413-0.827 0.413-1.417 0-0.295-0.059-0.531-0.236-0.709-0.118-0.118-0.295-0.236-0.59-0.236z"></path>
<path fill="#fff" d="M37.078 25.269l0.59-3.011h1.535l-0.472 2.539c-0.059 0.177-0.059 0.295-0.059 0.413s-0.059 0.236-0.059 0.295c0 0.177 0.059 0.354 0.177 0.413 0.118 0.118 0.236 0.177 0.413 0.177 0.295 0 0.59-0.118 0.827-0.354s0.413-0.59 0.472-1.063l0.472-2.421h1.535l-0.945 4.959h-1.594l0.118-0.709c-0.295 0.295-0.531 0.472-0.827 0.649-0.295 0.118-0.59 0.236-0.945 0.236-0.472 0-0.768-0.118-1.004-0.354s-0.354-0.59-0.354-1.004c0-0.118 0-0.236 0-0.295 0.059-0.177 0.059-0.295 0.118-0.472z"></path>
<path fill="#fff" d="M45.048 20.9l-0.295 1.417h1.594l-0.236 1.122h-1.594l-0.413 2.066c0 0.059 0 0.059 0 0.118s0 0.059 0 0.118c0 0.118 0.059 0.236 0.118 0.295 0.118 0.059 0.236 0.059 0.472 0.059h0.827l-0.236 1.122h-1.299c-0.472 0-0.827-0.118-1.063-0.295s-0.354-0.472-0.354-0.886c0-0.059 0-0.177 0-0.236 0-0.118 0-0.177 0.059-0.295l0.886-4.605h1.535z"></path>
</svg>
