<?xml version="1.0" encoding="utf-8"?>
<!-- Generated by IcoMoon.io -->
<!DOCTYPE svg PUBLIC "-//W3C//DTD SVG 1.1//EN" "http://www.w3.org/Graphics/SVG/1.1/DTD/svg11.dtd">
<svg version="1.1" xmlns="http://www.w3.org/2000/svg" xmlns:xlink="http://www.w3.org/1999/xlink" width="46" height="32" viewBox="0 0 46 32">
<path fill="#25336c" d="M45.225 27.041c0 2.303-1.889 4.192-4.192 4.192h-35.897c-2.303 0-4.192-1.889-4.192-4.192v-22.199c0-2.362 1.889-4.251 4.192-4.251h35.838c2.303 0 4.192 1.889 4.192 4.192v22.258z"></path>
<path fill="#e9a422" d="M19.72 15.705c0-6.14 4.959-11.1 11.1-11.1s11.1 4.959 11.1 11.1-4.959 11.1-11.1 11.1c-6.14 0.059-11.1-4.959-11.1-11.1v0z"></path>
<path fill="#e01f26" d="M23.38 7.439c0 0-0.59 0.531-1.004 1.004h2.007c0 0 0.649 0.709 0.945 1.299h-3.897c0 0-0.354 0.59-0.649 1.063h5.137c0 0 0.472 0.886 0.59 1.358h-6.199c0 0-0.236 0.59-0.295 1.063h6.79c0.177 0.827 0.649 3.365-0.295 6.081h-6.199c0.118 0.354 0.295 0.768 0.413 1.122h5.314c-0.236 0.472-0.531 1.004-0.709 1.299h-3.897c0.177 0.295 0.531 0.827 0.768 1.004h2.421c-0.472 0.649-1.24 1.24-1.24 1.24v0 0c-1.948 1.771-4.605 2.834-7.439 2.834-6.14 0.059-11.1-4.959-11.1-11.1s4.959-11.1 11.1-11.1c2.893 0 5.491 1.063 7.439 2.834v0z"></path>
<path fill="#fff" d="M18.125 13.993l-0.177 1.004h-1.004c0 0-0.472 0.118-0.472 0.354 0 0.177 0.354 0.472 0.886 0.708s0.59 0.886 0.531 1.299c-0.059 0.413-0.118 1.358-1.712 1.358-0.886 0-1.358-0.177-1.358-0.177l0.177-1.004c0 0 1.181 0.295 1.417 0.118s0.59-0.472 0.059-0.709c-0.472-0.236-1.299-0.531-1.299-1.358s0.354-1.299 0.827-1.535c0.59-0.236 1.476-0.236 2.125-0.059v0z"></path>
<path fill="#fff" d="M10.391 18.539h-1.122l0.649-3.897-1.417 3.897h-0.768l-0.177-4.015-0.708 4.015h-1.063l1.004-5.963h1.299l0.472 3.424 1.535-3.424h1.299z"></path>
<path fill="#fff" d="M19.129 18.657c-0.354 0-0.649-0.059-0.768-0.236-0.177-0.177-0.236-0.413-0.236-0.768 0-0.059 0-0.177 0-0.236s0-0.177 0.059-0.295l0.709-3.838h1.063l-0.177 0.768h1.004l-0.177 0.945h-1.004l-0.295 1.653c0 0.118-0.059 0.236-0.059 0.354s0 0.236 0 0.295 0 0.295 0.118 0.354c0.059 0.059 0.177 0.118 0.295 0.118 0.059 0 0.118 0 0.236-0.059s0.177-0.059 0.236-0.118h0.059l-0.177 0.945c-0.118 0.059-0.236 0.059-0.354 0.118-0.177-0.059-0.354 0-0.531 0v0z"></path>
<path fill="#fff" d="M26.745 15.291c-0.236-0.177-0.768-0.118-0.886 0.236l-0.472 3.011h-1.063l0.768-4.487h1.063v0.354c0.177-0.177 0.413-0.354 1.004-0.354 0 0-0.354 0.709-0.413 1.24v0z"></path>
<path fill="#fff" d="M28.753 18.657c-0.59 0-1.063-0.177-1.358-0.59-0.354-0.413-0.472-0.945-0.472-1.712 0-0.59 0.059-1.122 0.236-1.594 0.118-0.472 0.354-0.886 0.59-1.24s0.531-0.59 0.886-0.768c0.354-0.177 0.709-0.295 1.063-0.295 0.295 0 0.59 0.059 0.827 0.118 0.118 0.059 0.354 0.177 0.354 0.177l-0.236 1.417c-0.118-0.177-0.236-0.295-0.354-0.354-0.177-0.118-0.413-0.177-0.649-0.177-0.413 0-0.827 0.236-1.063 0.709-0.295 0.472-0.413 1.063-0.413 1.83 0 0.472 0.059 0.827 0.236 1.063 0.177 0.177 0.413 0.295 0.709 0.295s0.531-0.059 0.768-0.236c0.118-0.059 0.236-0.177 0.354-0.236l-0.236 1.358c0 0-0.118 0.059-0.177 0.059-0.177 0.059-0.295 0.118-0.413 0.118-0.236 0.059-0.413 0.059-0.649 0.059v0z"></path>
<path fill="#fff" d="M13.048 18.421c-0.059 0.059-0.059 0.059-0.118 0.059-0.118 0.059-0.236 0.118-0.295 0.118-0.118 0-0.236 0.059-0.413 0.059-0.295 0-0.472-0.118-0.649-0.295-0.177-0.236-0.236-0.472-0.236-0.827s0.059-0.649 0.177-0.886c0.118-0.236 0.295-0.472 0.531-0.59s0.472-0.236 0.827-0.295l0.236-0.059c0.236-0.059 0.531-0.059 0.827-0.118 0 0 0-0.059 0-0.059 0-0.059 0-0.059 0-0.118 0-0.177-0.059-0.295-0.177-0.413-0.118-0.059-0.354-0.118-0.59-0.118h-0.059c-0.177 0-0.354 0.059-0.531 0.118-0.236 0.059-0.354 0.118-0.472 0.177h-0.118l0.177-1.063c0.118-0.059 0.295-0.118 0.59-0.118 0.118-0.059 0.236-0.059 0.354-0.059s0.295 0 0.413 0c0.531 0 0.886 0.118 1.122 0.295s0.354 0.472 0.354 0.886c0 0.059 0 0.118 0 0.177s0 0.177 0 0.236l-0.531 3.070h-1.063l0.059-0.472c-0.059 0.059-0.177 0.118-0.236 0.236-0.118-0.059-0.177 0-0.177 0.059v0zM13.048 16.531c-0.118 0-0.236 0.059-0.295 0.118-0.118 0.059-0.236 0.118-0.295 0.236s-0.118 0.236-0.118 0.413c0 0.177 0.059 0.236 0.118 0.295s0.177 0.118 0.354 0.118c0.059 0 0.118 0 0.177-0.059 0.059 0 0.118-0.059 0.177-0.059 0.118-0.059 0.236-0.177 0.354-0.236l0.177-0.945c-0.177 0-0.354 0.059-0.531 0.059-0.059 0.059-0.118 0.059-0.118 0.059v0z"></path>
<path fill="#fff" d="M22.199 14.819c-0.118 0-0.295 0.118-0.354 0.236-0.177 0.177-0.236 0.354-0.354 0.649h1.417c0-0.059 0-0.059 0-0.118s0-0.059 0-0.118c0-0.236-0.059-0.354-0.177-0.472s-0.236-0.177-0.413-0.177c0 0-0.059 0-0.118 0v0zM22.199 17.653h0.177c0.236 0 0.472-0.059 0.649-0.177s0.413-0.236 0.531-0.354h0.118l-0.177 1.181c-0.177 0.118-0.413 0.236-0.649 0.295-0.177 0.059-0.413 0.059-0.649 0.118h-0.118c-0.59 0-1.004-0.177-1.299-0.531s-0.472-0.827-0.472-1.417c0-0.413 0.059-0.768 0.177-1.122s0.236-0.649 0.413-0.886c0.177-0.236 0.413-0.413 0.649-0.59 0.177-0.118 0.413-0.177 0.59-0.177 0.118 0 0.177 0 0.295 0 0.472 0 0.886 0.118 1.122 0.413 0.236 0.236 0.354 0.649 0.354 1.181 0 0.177 0 0.354-0.059 0.531 0 0.177-0.059 0.354-0.118 0.531h-2.48v0.118c0 0.295 0.059 0.531 0.236 0.709 0.295 0.059 0.472 0.177 0.709 0.177v0z"></path>
<path fill="#fff" d="M32.177 18.421c-0.059 0.059-0.059 0.059-0.118 0.059-0.118 0.059-0.236 0.118-0.295 0.118-0.118 0-0.236 0.059-0.413 0.059-0.295 0-0.472-0.118-0.649-0.295-0.177-0.236-0.236-0.472-0.236-0.827s0.059-0.649 0.177-0.886c0.118-0.236 0.295-0.472 0.531-0.59s0.472-0.236 0.827-0.295c0.059 0 0.118 0 0.236-0.059 0.236-0.059 0.531-0.059 0.827-0.118 0 0 0-0.059 0-0.059 0-0.059 0-0.059 0-0.118 0-0.177-0.059-0.295-0.177-0.413-0.118-0.059-0.295-0.118-0.59-0.118h-0.059c-0.177 0-0.354 0.059-0.531 0.118-0.236 0.059-0.354 0.118-0.472 0.177h-0.118l0.177-1.063c0.118-0.059 0.295-0.118 0.59-0.118 0.118-0.059 0.236-0.059 0.354-0.059s0.236 0 0.413 0c0.531 0 0.886 0.118 1.122 0.295s0.354 0.472 0.354 0.886c0 0.059 0 0.118 0 0.177s0 0.177 0 0.236l-0.531 3.070h-1.122l0.059-0.472c-0.059 0.059-0.177 0.118-0.236 0.236l-0.118 0.059zM32.177 16.531c-0.118 0-0.236 0.059-0.295 0.118-0.118 0.059-0.236 0.118-0.295 0.236s-0.118 0.236-0.118 0.413c0 0.177 0.059 0.236 0.118 0.295 0.118 0.118 0.295 0.118 0.413 0.118 0.059 0 0.118 0 0.177-0.059 0.059 0 0.118-0.059 0.177-0.059 0.118-0.059 0.236-0.177 0.354-0.236l0.177-0.945c-0.177 0-0.354 0.059-0.531 0.059-0.059 0.059-0.118 0.059-0.177 0.059v0z"></path>
<path fill="#fff" d="M36.664 15.291c-0.236-0.177-0.768-0.118-0.886 0.236l-0.531 3.011h-1.004l0.768-4.487h1.063v0.354c0.177-0.177 0.413-0.354 1.004-0.354 0 0-0.354 0.709-0.413 1.24v0z"></path>
<path fill="#fff" d="M38.79 14.996c-0.059 0-0.118 0.059-0.177 0.118-0.118 0.118-0.236 0.236-0.354 0.413-0.059 0.177-0.177 0.354-0.177 0.59-0.059 0.236-0.059 0.472-0.059 0.709 0 0.295 0.059 0.472 0.118 0.59 0.118 0.118 0.236 0.177 0.413 0.177 0.059 0 0.118 0 0.236-0.059 0.059 0 0.059 0 0.118-0.059 0.118-0.059 0.177-0.118 0.295-0.177l0.354-2.184c-0.059-0.059-0.118-0.059-0.236-0.118s-0.177-0.059-0.236-0.059-0.236 0.059-0.295 0.059v0zM38.79 18.303c-0.059 0.059-0.177 0.118-0.236 0.177s-0.177 0.118-0.236 0.118c-0.118 0-0.177 0.059-0.295 0.059-0.354 0-0.59-0.118-0.768-0.413s-0.295-0.709-0.295-1.181c0-0.413 0.059-0.827 0.177-1.181s0.236-0.709 0.413-1.004c0.177-0.295 0.354-0.531 0.59-0.649 0.236-0.177 0.472-0.236 0.709-0.236h0.059c0.177 0 0.354 0 0.472 0.059s0.295 0.118 0.413 0.236l0.236-1.535h1.063l-1.004 5.845h-1.122l0.059-0.472c-0.118 0.059-0.177 0.118-0.236 0.177v0z"></path>
</svg>
