<svg width="45" height="45" viewBox="0 0 45 45" xmlns="http://www.w3.org/2000/svg"><title>F1C155B7-3AD7-430C-8B64-525DD915C0FD</title><g fill="none" fill-rule="evenodd"><path fill="#D34836" d="M0 0h45v45H0z"/><path d="M37.927 12.922H45v3.905h-7.073v9.385H33.94v-9.385h-9.302v-3.905h9.302V3.62h3.987v9.302zM6.735 26.703c-2.996 0-4.926-.64-6.735-2.144V7.424C3.763 4.31 7.895 3.79 11.358 3.725H25.31l-3.706 2.99H17.56c1.62 1.404 4.038 3.917 4.038 8.393 0 4.902-2.583 7.225-5.356 9.409-.86.86-1.848 1.79-1.848 3.249 0 1.455.989 2.25 1.714 2.847l2.38 1.852c2.904 2.452 6.698 4.708 6.696 9.28 0 1.226-.201 2.002-.588 3.253l-3.95.002c.014-.187.013-.31.013-.668 0-3.385-3.227-5.168-8.248-8.748-.526-.068-.856-.068-1.513-.068-.596 0-4.162.134-6.935 1.062-.953.348-2.599.57-3.962 2.421v-3.474c3.769-1.618 7.645-1.694 10.169-1.865-.926-1.194-1.98-2.452-1.98-4.504 0-1.126.33-1.789.66-2.586-.728.066-1.452.133-2.114.133zM2.054 13.057c0 4.436 2.33 11.001 8.01 11.001 1.648 0 3.34-.42 4.425-1.658 1.239-1.418 1.725-3.286 1.725-4.241 0-4.772-2.766-12.192-8.243-12.192-1.717 0-3.563.86-4.622 2.186-1.122 1.392-1.295 3.178-1.295 4.904z" fill="#FFF"/></g></svg>