<?xml version="1.0" encoding="utf-8"?>
<!-- Generated by IcoMoon.io -->
<!DOCTYPE svg PUBLIC "-//W3C//DTD SVG 1.1//EN" "http://www.w3.org/Graphics/SVG/1.1/DTD/svg11.dtd">
<svg version="1.1" xmlns="http://www.w3.org/2000/svg" xmlns:xlink="http://www.w3.org/1999/xlink" width="32" height="32" viewBox="0 0 32 32">
<path  d="M15.050 18.114l-0.2-3.003c-0.038-0.585-0.058-1.004-0.058-1.26 0-0.347 0.092-0.617 0.273-0.812 0.182-0.193 0.422-0.291 0.718-0.291 0.36 0 0.6 0.125 0.722 0.373 0.12 0.248 0.181 0.606 0.181 1.074 0 0.276-0.014 0.556-0.043 0.84l-0.27 3.090c-0.028 0.368-0.091 0.65-0.188 0.846-0.095 0.196-0.255 0.295-0.476 0.295-0.226 0-0.381-0.095-0.469-0.286s-0.15-0.479-0.188-0.868zM15.745 22.238c-0.254 0-0.476-0.083-0.668-0.248-0.19-0.165-0.285-0.395-0.285-0.692 0-0.259 0.092-0.479 0.273-0.661 0.182-0.18 0.405-0.272 0.668-0.272s0.489 0.091 0.673 0.272c0.186 0.182 0.279 0.403 0.279 0.661 0 0.293-0.093 0.522-0.281 0.689s-0.409 0.251-0.659 0.251z"></path>
<path  d="M27.116 26.506h-22.524c-0.328 0-0.63-0.175-0.793-0.459-0.165-0.285-0.165-0.634 0-0.917l11.26-19.507c0.328-0.567 1.26-0.567 1.588 0l11.262 19.507c0.165 0.283 0.165 0.633 0 0.917-0.163 0.283-0.466 0.459-0.794 0.459v0zM6.18 24.672h19.348l-9.674-16.757-9.674 16.757z"></path>
</svg>
