<?xml version="1.0" encoding="utf-8"?>
<!-- Generated by IcoMoon.io -->
<!DOCTYPE svg PUBLIC "-//W3C//DTD SVG 1.1//EN" "http://www.w3.org/Graphics/SVG/1.1/DTD/svg11.dtd">
<svg version="1.1" xmlns="http://www.w3.org/2000/svg" xmlns:xlink="http://www.w3.org/1999/xlink" width="32" height="32" viewBox="0 0 32 32">
<path  d="M25.233 15.983l-8.519-6.31v-4.938c0-0.354-0.196-0.672-0.513-0.829-0.306-0.153-0.697-0.116-0.972 0.090l-5.187 3.926c-0.343 0.26-0.462 0.717-0.289 1.111 0.169 0.387 0.588 0.617 1.014 0.538 1.185-0.217 2.489-0.351 3.404-0.351 0.28 0 0.515 0.013 0.69 0.037v0.378l-8.535 6.312-0.034 0.034c-0.119 0.161-0.181 0.351-0.181 0.55v9.365c0 0.511 0.416 0.926 0.927 0.926 0.022 0 0.043-0.005 0.065-0.007 0.020 0.001 0.039 0.006 0.059 0.006h5.242c0.002 0 0.004 0.001 0.006 0.001s0.004-0.001 0.006-0.001h6.433c0.002 0 0.004 0.001 0.006 0.001s0.004-0.001 0.006-0.001h5.4c0.037 0 0.073-0.007 0.109-0.011 0.038 0.005 0.075 0.012 0.115 0.012 0.247 0 0.48-0.096 0.655-0.271s0.272-0.407 0.271-0.655v-9.365c-0-0.199-0.063-0.389-0.181-0.55zM17.932 24.949h-4.594v-8.333l2.392-4.544 2.203 4.541v8.336zM23.562 24.949h-3.779v-8.479c0-0.084-0.012-0.169-0.045-0.28l-1.628-3.288 5.452 3.967v8.081zM11.533 16.185l-0.013 0.033c-0.023 0.084-0.035 0.168-0.035 0.252v8.479h-3.521v-8.083l5.315-3.967-1.747 3.285zM14.862 6.564v0.849c-0.261-0.028-0.554-0.043-0.872-0.043-0.099 0-0.292 0.038-0.588 0.103l1.46-0.91z"></path>
</svg>
