<?xml version="1.0" encoding="utf-8"?>
<!-- Generated by IcoMoon.io -->
<!DOCTYPE svg PUBLIC "-//W3C//DTD SVG 1.1//EN" "http://www.w3.org/Graphics/SVG/1.1/DTD/svg11.dtd">
<svg version="1.1" xmlns="http://www.w3.org/2000/svg" xmlns:xlink="http://www.w3.org/1999/xlink" width="32" height="32" viewBox="0 0 32 32">
<path  d="M19.579 12.59c-0.388-0.388-1.017-0.388-1.404 0l-2.062 2.062-2.063-2.062c-0.388-0.388-1.016-0.388-1.404 0s-0.388 1.016 0 1.404l2.062 2.062-2.062 2.062c-0.388 0.388-0.388 1.016 0 1.404 0.194 0.194 0.448 0.291 0.702 0.291s0.508-0.097 0.702-0.291l2.063-2.062 2.062 2.062c0.194 0.194 0.448 0.291 0.701 0.291 0.255 0 0.508-0.097 0.703-0.291 0.388-0.388 0.388-1.016 0-1.404l-2.063-2.062 2.063-2.062c0.388-0.388 0.388-1.016 0-1.404z"></path>
<path  d="M24.381 7.787c-2.209-2.208-5.145-3.424-8.27-3.424-3.123 0-6.059 1.216-8.268 3.424s-3.425 5.145-3.425 8.269c-0.002 3.124 1.214 6.062 3.423 8.269s5.145 3.424 8.268 3.424c3.124 0 6.062-1.217 8.272-3.427 4.559-4.558 4.557-11.977 0-16.536zM22.976 22.92c-1.834 1.833-4.272 2.844-6.867 2.844-2.593 0-5.031-1.009-6.863-2.842s-2.841-4.272-2.841-6.865c0-2.594 1.010-5.032 2.843-6.866 1.833-1.833 4.27-2.842 6.863-2.842s5.031 1.009 6.865 2.842c3.784 3.785 3.784 9.944 0 13.729z"></path>
</svg>
