<?xml version="1.0" encoding="utf-8"?>
<!-- Generated by IcoMoon.io -->
<!DOCTYPE svg PUBLIC "-//W3C//DTD SVG 1.1//EN" "http://www.w3.org/Graphics/SVG/1.1/DTD/svg11.dtd">
<svg version="1.1" xmlns="http://www.w3.org/2000/svg" xmlns:xlink="http://www.w3.org/1999/xlink" width="32" height="32" viewBox="0 0 32 32">
<path  d="M15.941 28.092c-0.229 0-0.459-0.078-0.645-0.238-0.977-0.834-9.555-8.302-9.555-13.691 0-5.624 4.577-10.2 10.2-10.2s10.2 4.575 10.2 10.2c0 5.389-8.576 12.857-9.556 13.691-0.185 0.159-0.415 0.238-0.645 0.238v0zM15.941 5.954c-4.525 0-8.21 3.683-8.21 8.21 0 3.494 5.431 9.107 8.21 11.61 2.779-2.503 8.21-8.116 8.21-11.61 0-4.527-3.682-8.21-8.21-8.21v0z"></path>
<path  d="M21.305 12.625c-0.078-0.241-0.283-0.413-0.533-0.449l-2.929-0.426-1.31-2.655c-0.112-0.226-0.339-0.367-0.592-0.367s-0.479 0.141-0.592 0.367l-1.31 2.655-2.929 0.426c-0.25 0.036-0.454 0.208-0.533 0.449s-0.014 0.5 0.167 0.677l2.119 2.066-0.501 2.918c-0.043 0.249 0.058 0.497 0.264 0.646 0.201 0.145 0.479 0.164 0.695 0.050l2.619-1.378 2.62 1.379c0.095 0.049 0.201 0.075 0.307 0.075 0.14 0 0.274-0.044 0.389-0.126 0.204-0.149 0.305-0.397 0.262-0.646l-0.5-2.918 2.12-2.066c0.182-0.177 0.245-0.436 0.168-0.677zM17.659 15.249l0.333 1.941-1.743-0.916c-0.189-0.1-0.428-0.099-0.614 0l-1.743 0.916 0.333-1.941c0.036-0.213-0.034-0.432-0.19-0.585l-1.41-1.374 1.949-0.283c0.214-0.032 0.4-0.167 0.496-0.361l0.871-1.766 0.872 1.767c0.096 0.194 0.282 0.329 0.497 0.361l1.949 0.283-1.411 1.375c-0.156 0.152-0.227 0.371-0.19 0.584z"></path>
</svg>
