<?xml version="1.0" encoding="utf-8"?>
<!-- Generated by IcoMoon.io -->
<!DOCTYPE svg PUBLIC "-//W3C//DTD SVG 1.1//EN" "http://www.w3.org/Graphics/SVG/1.1/DTD/svg11.dtd">
<svg version="1.1" xmlns="http://www.w3.org/2000/svg" xmlns:xlink="http://www.w3.org/1999/xlink" width="32" height="32" viewBox="0 0 32 32">
<path  d="M24.491 10.131h-2.589c0.492-0.61 0.761-1.364 0.761-2.158 0-0.921-0.358-1.786-1.008-2.436-1.301-1.301-3.569-1.301-4.871 0-0.428 0.427-0.681 1.095-0.831 1.81-0.15-0.714-0.403-1.382-0.83-1.809-1.3-1.303-3.568-1.303-4.872 0-1.253 1.255-1.334 3.244-0.246 4.594h-2.589c-0.919 0-1.668 0.749-1.668 1.669v1.467c0 0.756 0.509 1.39 1.2 1.594v10.013c0 0.92 0.748 1.67 1.669 1.67h14.675c0.92 0 1.669-0.749 1.669-1.67v-10.013c0.69-0.205 1.199-0.838 1.199-1.594v-1.467c-0-0.921-0.75-1.669-1.67-1.669zM24.423 13.199h-6.225v-1.331h6.225v1.331zM14.578 13.199v-1.331h2.752v1.331h-2.752zM17.33 14.937v9.87h-2.752v-9.87h2.752zM18.012 6.765c0.644-0.644 1.769-0.644 2.414 0 0.323 0.323 0.499 0.751 0.499 1.208s-0.176 0.884-0.499 1.207c-0.239 0.238-1.109 0.516-2.782 0.516-0.051 0-0.102-0-0.151-0.001-0.011-1.171 0.136-2.547 0.519-2.93zM11.479 6.765c0.324-0.323 0.753-0.5 1.21-0.5s0.884 0.177 1.206 0.5c0.356 0.357 0.533 1.671 0.519 2.929-0.049 0-0.1 0.001-0.151 0.001-1.673 0-2.545-0.278-2.782-0.516-0.665-0.665-0.665-1.747-0.002-2.413zM7.485 11.868h6.225v1.331h-6.225v-1.331zM8.684 14.937h5.025v9.87h-5.025v-9.87zM18.198 24.806v-9.87h5.026v9.87h-5.026z"></path>
</svg>
