<?xml version="1.0" encoding="utf-8"?>
<!-- Generated by IcoMoon.io -->
<!DOCTYPE svg PUBLIC "-//W3C//DTD SVG 1.1//EN" "http://www.w3.org/Graphics/SVG/1.1/DTD/svg11.dtd">
<svg version="1.1" xmlns="http://www.w3.org/2000/svg" xmlns:xlink="http://www.w3.org/1999/xlink" width="32" height="32" viewBox="0 0 32 32">
<path  d="M24.269 7.709c-4.583-4.583-12.039-4.583-16.622 0s-4.583 12.039 0 16.622c4.583 4.583 12.039 4.583 16.622 0s4.583-12.039 0-16.622zM22.912 22.973c-3.834 3.834-10.073 3.834-13.907 0s-3.834-10.072 0-13.907c3.834-3.834 10.072-3.834 13.906 0s3.834 10.073 0 13.907z"></path>
<path  d="M23.428 14.968h-14.85c-0.551 0-0.999 0.46-0.999 1.026s0.448 1.026 0.999 1.026h14.85c0.551 0 0.999-0.46 0.999-1.026s-0.448-1.026-0.999-1.026z"></path>
</svg>
