<?xml version="1.0" encoding="utf-8"?>
<!-- Generated by IcoMoon.io -->
<!DOCTYPE svg PUBLIC "-//W3C//DTD SVG 1.1//EN" "http://www.w3.org/Graphics/SVG/1.1/DTD/svg11.dtd">
<svg version="1.1" xmlns="http://www.w3.org/2000/svg" xmlns:xlink="http://www.w3.org/1999/xlink" width="32" height="32" viewBox="0 0 32 32">
<path  d="M17.173 20.844c0 0.055-0.016 0.104-0.045 0.147s-0.086 0.079-0.165 0.107c-0.079 0.027-0.184 0.049-0.314 0.065-0.132 0.017-0.297 0.024-0.499 0.024-0.196 0-0.361-0.007-0.492-0.024s-0.235-0.038-0.311-0.065c-0.077-0.028-0.132-0.063-0.164-0.107s-0.049-0.092-0.049-0.147v-8.621h-0.016l-3.070 8.612c-0.022 0.071-0.057 0.13-0.107 0.176s-0.116 0.084-0.2 0.111c-0.084 0.028-0.192 0.045-0.323 0.054s-0.291 0.012-0.475 0.012c-0.186 0-0.344-0.007-0.475-0.020s-0.238-0.036-0.323-0.066c-0.084-0.030-0.152-0.067-0.2-0.111-0.050-0.043-0.083-0.095-0.099-0.156l-2.963-8.612h-0.016v8.62c0 0.055-0.015 0.104-0.045 0.147s-0.087 0.079-0.167 0.107c-0.083 0.027-0.188 0.049-0.316 0.065s-0.294 0.024-0.496 0.024c-0.196 0-0.36-0.007-0.491-0.024s-0.237-0.038-0.316-0.065c-0.079-0.028-0.134-0.063-0.164-0.107s-0.045-0.092-0.045-0.147v-9.439c0-0.278 0.074-0.491 0.221-0.639s0.343-0.221 0.589-0.221h1.408c0.251 0 0.467 0.020 0.646 0.061s0.337 0.109 0.467 0.205c0.131 0.095 0.24 0.221 0.327 0.377s0.164 0.348 0.229 0.577l2.293 6.312h0.033l2.373-6.295c0.071-0.229 0.149-0.423 0.234-0.581s0.183-0.286 0.295-0.385c0.112-0.098 0.244-0.168 0.396-0.209s0.331-0.061 0.533-0.061h1.449c0.148 0 0.275 0.019 0.38 0.058s0.194 0.094 0.261 0.168c0.069 0.073 0.121 0.164 0.156 0.27s0.054 0.228 0.054 0.364v9.439z"></path>
<path  d="M27.34 20.86c0 0.060-0.011 0.111-0.033 0.151s-0.073 0.075-0.156 0.103c-0.082 0.027-0.202 0.046-0.36 0.057s-0.374 0.016-0.647 0.016c-0.229 0-0.413-0.005-0.548-0.016s-0.244-0.031-0.324-0.061c-0.079-0.030-0.135-0.068-0.167-0.115s-0.060-0.102-0.082-0.167l-0.949-2.366c-0.116-0.268-0.227-0.505-0.337-0.713s-0.23-0.38-0.364-0.52c-0.134-0.14-0.288-0.244-0.462-0.315s-0.376-0.107-0.606-0.107h-0.671v4.036c0 0.055-0.018 0.104-0.053 0.147-0.036 0.044-0.094 0.079-0.177 0.107-0.081 0.027-0.19 0.049-0.327 0.065s-0.312 0.024-0.523 0.024c-0.208 0-0.381-0.007-0.52-0.024s-0.25-0.038-0.332-0.065c-0.082-0.028-0.139-0.063-0.171-0.107s-0.050-0.092-0.050-0.147v-9.619c0-0.24 0.061-0.413 0.184-0.52s0.274-0.16 0.454-0.16h2.742c0.278 0 0.508 0.006 0.688 0.017s0.343 0.025 0.492 0.041c0.425 0.060 0.809 0.164 1.15 0.311 0.34 0.147 0.63 0.34 0.868 0.577 0.236 0.237 0.418 0.518 0.544 0.843s0.188 0.697 0.188 1.117c0 0.355-0.045 0.678-0.136 0.97s-0.222 0.553-0.397 0.782c-0.175 0.229-0.39 0.428-0.646 0.598-0.257 0.169-0.548 0.306-0.876 0.409 0.158 0.076 0.307 0.169 0.446 0.278s0.27 0.241 0.393 0.397c0.122 0.155 0.238 0.332 0.348 0.532 0.108 0.199 0.215 0.424 0.319 0.675l0.891 2.087c0.082 0.208 0.137 0.36 0.165 0.455s0.041 0.171 0.041 0.225zM24.565 13.673c0-0.349-0.079-0.644-0.236-0.884-0.159-0.24-0.418-0.409-0.778-0.507-0.11-0.027-0.233-0.050-0.372-0.066-0.14-0.016-0.333-0.025-0.577-0.025h-0.967v3.004h1.098c0.306 0 0.573-0.036 0.802-0.111s0.42-0.177 0.573-0.311c0.152-0.133 0.268-0.293 0.343-0.479s0.115-0.394 0.115-0.622z"></path>
</svg>
