<?xml version="1.0" encoding="utf-8"?>
<!-- Generated by IcoMoon.io -->
<!DOCTYPE svg PUBLIC "-//W3C//DTD SVG 1.1//EN" "http://www.w3.org/Graphics/SVG/1.1/DTD/svg11.dtd">
<svg version="1.1" xmlns="http://www.w3.org/2000/svg" xmlns:xlink="http://www.w3.org/1999/xlink" width="32" height="32" viewBox="0 0 32 32">
<path  d="M25.91 9.547c0.064-0.436-0.047-0.871-0.309-1.224s-0.648-0.582-1.084-0.645l-15.869-2.321c-0.912-0.143-1.741 0.51-1.868 1.391l-0.476 3.245c-0.063 0.435 0.046 0.869 0.309 1.221 0.264 0.354 0.649 0.583 1.084 0.646l9.38 1.372h-9.188c-0.909 0-1.649 0.739-1.649 1.647v9.157c0 0.909 0.74 1.648 1.649 1.648h16.037c0.91 0 1.648-0.74 1.649-1.648v-9.157c0-0.487-0.213-0.924-0.551-1.226 0.213-0.235 0.363-0.532 0.412-0.863l0.475-3.244zM11.395 10.505l-1.436-3.251 2.811 0.403 1.539 3.487-2.883-0.413c0.010-0.075 0.002-0.152-0.031-0.226zM15.196 11.061l-1.44-3.262 2.811 0.403 1.539 3.488-2.877-0.412c0.008-0.071-0.001-0.146-0.033-0.216zM18.998 11.618l-1.445-3.274 2.81 0.403 1.541 3.487-2.873-0.412c0.006-0.068-0.003-0.138-0.033-0.204zM22.8 12.172l-1.451-3.284 2.887 0.414-0.468 3.199-0.933-0.134c0.004-0.065-0.006-0.132-0.035-0.195zM8.402 7.031l0.57 0.083 1.541 3.487-2.536-0.364 0.425-3.206zM14.025 14.907l-1.753 2.788c-0.020 0.033-0.034 0.068-0.045 0.103h-2.864l1.813-2.884 2.849-0.007zM15.024 14.904l2.851-0.008-1.76 2.798c-0.021 0.033-0.035 0.068-0.046 0.103h-2.865l1.82-2.894zM18.874 14.893l2.849-0.007-1.766 2.809c-0.021 0.033-0.035 0.068-0.046 0.103h-2.864l1.827-2.905zM22.723 14.883l1.16-0.003v2.918h-2.992l1.832-2.915zM10.176 14.917l-1.747 2.778c-0.020 0.033-0.035 0.068-0.045 0.103h-0.483l-0.013-2.874 2.288-0.007zM7.931 24.037l-0.026-5.393h15.977v5.349l-15.951 0.044z"></path>
</svg>
