<?xml version="1.0" encoding="utf-8"?>
<!-- Generated by IcoMoon.io -->
<!DOCTYPE svg PUBLIC "-//W3C//DTD SVG 1.1//EN" "http://www.w3.org/Graphics/SVG/1.1/DTD/svg11.dtd">
<svg version="1.1" xmlns="http://www.w3.org/2000/svg" xmlns:xlink="http://www.w3.org/1999/xlink" width="32" height="32" viewBox="0 0 32 32">
<path  d="M7.906 14.372h0.999c0.002-3.088 2.513-5.6 5.601-5.6v-0.999c-3.638-0-6.598 2.96-6.6 6.599z"></path>
<path  d="M27.076 25.918l-5.040-5.040c1.511-1.746 2.428-4.019 2.428-6.504-0.002-5.491-4.469-9.958-9.957-9.958-5.49 0.001-9.956 4.469-9.958 9.961 0.002 5.488 4.468 9.953 9.956 9.953 2.288 0 4.397-0.777 6.080-2.079l5.079 5.078c0.195 0.195 0.451 0.293 0.706 0.293s0.511-0.098 0.706-0.293c0.39-0.39 0.39-1.023 0-1.412zM6.546 14.378c0.002-4.39 3.572-7.962 7.96-7.963s7.958 3.571 7.96 7.961c0 4.388-3.572 7.958-7.962 7.958-4.388 0-7.956-3.569-7.958-7.955z"></path>
</svg>
