<?xml version="1.0" encoding="utf-8"?>
<!-- Generated by IcoMoon.io -->
<!DOCTYPE svg PUBLIC "-//W3C//DTD SVG 1.1//EN" "http://www.w3.org/Graphics/SVG/1.1/DTD/svg11.dtd">
<svg version="1.1" xmlns="http://www.w3.org/2000/svg" xmlns:xlink="http://www.w3.org/1999/xlink" width="32" height="32" viewBox="0 0 32 32">
<path  d="M15.94 4.531c-6.348 0-11.513 5.165-11.513 11.513s5.165 11.513 11.513 11.513 11.513-5.165 11.513-11.513-5.165-11.513-11.513-11.513zM13.833 12.844h4.33l1.339 4.119-3.503 2.544-3.503-2.545 1.337-4.118zM11.388 16.73l-2.517 0.818-2.502-3.003c0.192-1.232 0.619-2.388 1.23-3.421l3.646-0.884 1.556 2.141-1.413 4.349zM19.194 12.382l1.556-2.141 3.53 0.879c0.644 1.086 1.081 2.308 1.259 3.612l-2.412 2.819-2.518-0.819-1.413-4.35zM23.888 18.388l1.733-2.036c-0.057 1.815-0.615 3.506-1.541 4.938l-0.192-2.901zM23.28 9.73l-2.405-0.617-1.212-2.013c1.404 0.586 2.639 1.494 3.618 2.63zM17.969 6.571l1.871 3.007-1.556 2.141h-4.573l-1.556-2.141 1.915-3.040c0.605-0.119 1.23-0.183 1.87-0.183 0.696-0 1.374 0.075 2.028 0.215zM12.449 7.009l-1.327 2.103-2.55 0.652c1.035-1.213 2.364-2.168 3.876-2.755zM6.255 16.152l1.853 2.236-0.167 3.114c-1.045-1.527-1.664-3.368-1.686-5.35zM8.885 22.673l0.333-4.056 2.518-0.819 3.7 2.689v2.646l-3.82 1.576c-1.028-0.515-1.951-1.208-2.731-2.037zM13.103 25.308l2.895-1.188 2.919 1.142c-0.939 0.304-1.938 0.47-2.977 0.47-0.987 0-1.94-0.149-2.837-0.425zM20.376 24.653l-3.817-1.518v-2.647l3.7-2.688 2.517 0.819 0.289 3.982c-0.765 0.832-1.676 1.528-2.69 2.052z"></path>
</svg>
