<?xml version="1.0" encoding="utf-8"?>
<!-- Generated by IcoMoon.io -->
<!DOCTYPE svg PUBLIC "-//W3C//DTD SVG 1.1//EN" "http://www.w3.org/Graphics/SVG/1.1/DTD/svg11.dtd">
<svg version="1.1" xmlns="http://www.w3.org/2000/svg" xmlns:xlink="http://www.w3.org/1999/xlink" width="32" height="32" viewBox="0 0 32 32">
<path  d="M9.652 26.077c-0.199 0-0.397-0.062-0.564-0.183-0.296-0.215-0.444-0.579-0.382-0.939l1.097-6.393-4.644-4.527c-0.261-0.255-0.356-0.636-0.243-0.984s0.413-0.601 0.775-0.653l6.419-0.933 2.87-5.816c0.162-0.328 0.495-0.535 0.861-0.535s0.699 0.207 0.861 0.535l2.87 5.816 6.419 0.933c0.362 0.052 0.662 0.306 0.775 0.653s0.019 0.729-0.243 0.984l-4.644 4.527 1.096 6.393c0.061 0.36-0.086 0.724-0.382 0.939s-0.687 0.243-1.011 0.073l-5.741-3.019-5.741 3.018c-0.14 0.074-0.294 0.11-0.447 0.11zM15.84 20.904c0.153 0 0.307 0.037 0.447 0.11l4.466 2.348-0.853-4.973c-0.053-0.311 0.050-0.629 0.276-0.85l3.613-3.522-4.993-0.726c-0.313-0.045-0.583-0.242-0.723-0.525l-2.232-4.524-2.233 4.524c-0.14 0.283-0.41 0.48-0.723 0.525l-4.993 0.725 3.613 3.522c0.226 0.22 0.329 0.539 0.276 0.85l-0.853 4.973 4.466-2.348c0.14-0.073 0.293-0.11 0.447-0.11z"></path>
</svg>
