<?xml version="1.0" encoding="utf-8"?>
<!-- Generated by IcoMoon.io -->
<!DOCTYPE svg PUBLIC "-//W3C//DTD SVG 1.1//EN" "http://www.w3.org/Graphics/SVG/1.1/DTD/svg11.dtd">
<svg version="1.1" xmlns="http://www.w3.org/2000/svg" xmlns:xlink="http://www.w3.org/1999/xlink" width="32" height="32" viewBox="0 0 32 32">
<path  d="M25.308 16.215c0-5.132-4.176-9.307-9.308-9.307s-9.307 4.175-9.307 9.307c0 2.624 1.115 5.127 3.065 6.895l-1.508 1.508c-0.189 0.189-0.293 0.44-0.293 0.707s0.104 0.518 0.293 0.708c0.378 0.378 1.036 0.378 1.414 0l1.732-1.734c1.4 0.801 2.989 1.223 4.603 1.223s3.204-0.422 4.604-1.223l1.733 1.734c0.189 0.189 0.44 0.292 0.707 0.292s0.518-0.104 0.707-0.292c0.189-0.189 0.293-0.44 0.293-0.708s-0.104-0.518-0.293-0.707l-1.508-1.508c1.95-1.768 3.065-4.271 3.065-6.895zM16 8.908c4.030 0 7.308 3.278 7.308 7.307s-3.278 7.308-7.308 7.308c-4.028 0-7.306-3.278-7.306-7.307s3.277-7.307 7.306-7.307z"></path>
<path  d="M13.66 19.515c0.266 0 0.517-0.104 0.707-0.292l2.164-2.164c0.294-0.185 0.468-0.499 0.468-0.844v-5.62c0-0.552-0.449-1-1-1s-1 0.448-1 1v5.167l-2.047 2.045c-0.189 0.189-0.293 0.44-0.293 0.708s0.104 0.518 0.293 0.708c0.189 0.189 0.44 0.292 0.707 0.292z"></path>
<path  d="M7.36 10.582c-0.138-0.788 0.107-1.564 0.673-2.13 0.56-0.562 1.344-0.812 2.129-0.673 0.552 0.093 1.063-0.279 1.158-0.814 0.093-0.544-0.272-1.063-0.814-1.157-1.395-0.247-2.883 0.225-3.887 1.229-1.018 1.018-1.477 2.472-1.229 3.888 0.082 0.48 0.496 0.829 0.984 0.829 0.056 0 0.112-0.005 0.172-0.015 0.543-0.094 0.908-0.613 0.814-1.157z"></path>
<path  d="M25.385 7.038c-1.004-1.003-2.495-1.474-3.889-1.229-0.263 0.046-0.493 0.192-0.647 0.411s-0.212 0.484-0.167 0.747c0.094 0.534 0.589 0.908 1.157 0.813 0.778-0.14 1.568 0.111 2.13 0.673 0.566 0.567 0.811 1.343 0.673 2.13-0.046 0.263 0.013 0.528 0.167 0.747s0.383 0.364 0.647 0.411c0.058 0.009 0.116 0.014 0.172 0.014 0.486 0 0.9-0.348 0.985-0.828 0.246-1.417-0.213-2.87-1.229-3.888z"></path>
</svg>
