<?xml version="1.0" encoding="utf-8"?>
<!-- Generated by IcoMoon.io -->
<!DOCTYPE svg PUBLIC "-//W3C//DTD SVG 1.1//EN" "http://www.w3.org/Graphics/SVG/1.1/DTD/svg11.dtd">
<svg version="1.1" xmlns="http://www.w3.org/2000/svg" xmlns:xlink="http://www.w3.org/1999/xlink" width="32" height="32" viewBox="0 0 32 32">
<path fill="#1bb3b3" d="M21.938 1.399c-8.058-3.299-17.265 0.557-20.565 8.615s0.557 17.265 8.615 20.564c1.662 0.681 3.373 1.057 5.073 1.153l-2.558-2.563-2.361-2.409c-0.131-0.025-0.238-0.137-0.278-0.284l-0.145-0.147c-0.138-0.021-0.252-0.14-0.293-0.298l-0.016-0.018 0.009-0.011c-0.005-0.030-0.009-0.062-0.009-0.096v-20.081c0-0.234 0.158-0.426 0.351-0.426h12.403c0.193 0 0.351 0.192 0.351 0.426l0.007 0.007h0.076c0.193 0 0.351 0.192 0.351 0.426v0.103l4.995 6.17 3.687 4.258c0.099 4.25-4.345 14.696-16.071 14.962 6.353 0.16 12.439-3.558 14.991-9.789 3.299-8.058-0.557-17.265-8.615-20.565l0.002 0.002z"></path>
<path fill="#29a9a6" opacity="0.8" d="M15.087 31.759c0.16 0 0.317-0.002 0.475-0.005-0.167-0.004-0.335-0.011-0.502-0.020l0.027 0.025z"></path>
<path fill="#1bb3b3" d="M9.409 26.012l0.016 0.018c-0.002-0.009-0.005-0.018-0.007-0.027l-0.009 0.009c0 0.002 0 0 0 0z"></path>
<path fill="#29a9a6" opacity="0.8" d="M9.409 26.012l0.016 0.018c-0.002-0.009-0.005-0.018-0.007-0.027l-0.009 0.009c0 0.002 0 0 0 0z"></path>
<path fill="#1bb3b3" d="M22.522 5.835l-0.007-0.007v0.007h0.007z"></path>
<path fill="#29a9a6" opacity="0.8" d="M22.522 5.835l-0.007-0.007v0.007h0.007z"></path>
<path fill="#29a9a6" d="M31.633 16.791l-3.687-4.258-4.995-6.17v19.978c0 0.234-0.158 0.426-0.351 0.426h-12.403c-0.018 0-0.035-0.004-0.053-0.007l2.361 2.409 2.558 2.563c0.167 0.009 0.335 0.016 0.502 0.020 11.726-0.266 16.169-10.713 16.071-14.962l-0.002 0.004z"></path>
<path fill="#1bb3b3" d="M9.844 26.333h-0.082c-0.014 0-0.028-0.004-0.043-0.005l0.145 0.147c-0.012-0.043-0.020-0.087-0.020-0.135l-0.002-0.007z"></path>
<path fill="#29a9a6" opacity="0.8" d="M9.844 26.333h-0.082c-0.014 0-0.028-0.004-0.043-0.005l0.145 0.147c-0.012-0.043-0.020-0.087-0.020-0.135l-0.002-0.007z"></path>
<path fill="#257f7c" d="M22.598 26.768c0.193 0 0.351-0.192 0.351-0.426v-20.079c0-0.234-0.158-0.426-0.351-0.426h-0.082v20.072c0 0.234-0.158 0.426-0.351 0.426l-12.321 0.007c0 0.048 0.007 0.092 0.020 0.135 0.041 0.149 0.149 0.261 0.278 0.284 0.018 0.004 0.035 0.007 0.053 0.007 0 0 12.403 0 12.403 0z"></path>
<path fill="#676767" d="M9.844 26.333h12.321c0.193 0 0.351-0.192 0.351-0.426v-20.079c0-0.234-0.158-0.426-0.351-0.426h-12.403c-0.193 0-0.351 0.192-0.351 0.426v20.079c0 0.032 0.004 0.064 0.009 0.096 0.002 0.009 0.005 0.018 0.007 0.027 0.039 0.158 0.153 0.277 0.293 0.298 0.014 0.002 0.028 0.005 0.043 0.005 0 0 0.082 0 0.082 0zM15.963 25.111c-0.484 0-0.876-0.394-0.876-0.876s0.394-0.876 0.876-0.876c0.484 0 0.876 0.392 0.876 0.876s-0.392 0.876-0.876 0.876zM10.991 8.001c0-0.493 0.321-0.896 0.715-0.896h8.517c0.392 0 0.713 0.403 0.713 0.896v13.176c0 0.493-0.321 0.896-0.713 0.896h-8.517c-0.392 0-0.715-0.403-0.715-0.896v-13.176z"></path>
<path fill="#e0e1e0" d="M15.963 23.359c-0.484 0-0.876 0.392-0.876 0.876s0.394 0.876 0.876 0.876c0.484 0 0.876-0.394 0.876-0.876s-0.392-0.876-0.876-0.876z"></path>
<path fill="#e0e1e0" d="M13.451 12.799l-0.649-0.56h-0.034c-0.057 0-0.103 0.046-0.103 0.103v4.347c0 0.057 0.046 0.103 0.103 0.103h0.021l2.52-2.176-1.859-1.816z"></path>
<path fill="#e0e1e0" d="M19.054 12.249l-0.355 0.307-2.135 2.084 2.483 2.144c0.037-0.014 0.066-0.051 0.066-0.096v-4.347c0-0.041-0.023-0.075-0.059-0.092z"></path>
<path fill="#9b9795" d="M20.221 7.103h-8.517c-0.392 0-0.715 0.403-0.715 0.896v13.176c0 0.493 0.321 0.896 0.715 0.896h8.517c0.392 0 0.713-0.403 0.713-0.896v-13.176c0-0.493-0.321-0.896-0.713-0.896zM20.583 21.177c0 0.25-0.163 0.454-0.362 0.454h-8.517c-0.2 0-0.362-0.204-0.362-0.454v-13.176c0-0.252 0.163-0.456 0.362-0.456h8.517c0.2 0 0.362 0.204 0.362 0.456v13.176z"></path>
<path fill="#9b9795" d="M19.178 12.080h-6.568c-0.060 0-0.108 0.050-0.108 0.11v4.665c0 0.060 0.048 0.11 0.108 0.11h6.568c0.059 0 0.108-0.050 0.108-0.11v-4.665c0-0.060-0.048-0.11-0.108-0.11zM19.111 16.688c0 0.044-0.027 0.080-0.066 0.096l0.009 0.007h-6.286c-0.057 0-0.103-0.046-0.103-0.103v-4.347c0-0.057 0.046-0.103 0.103-0.103h6.298l-0.012 0.011c0.034 0.016 0.059 0.051 0.059 0.092l-0.002 4.347z"></path>
<path fill="#9b9795" d="M13.451 12.799l2.499 2.439 2.749-2.682-2.765 2.387-2.483-2.144z"></path>
<path fill="#fff" d="M20.221 7.545h-8.517c-0.2 0-0.362 0.204-0.362 0.456v13.176c0 0.25 0.163 0.454 0.362 0.454h8.517c0.2 0 0.362-0.204 0.362-0.454v-13.176c0-0.252-0.163-0.456-0.362-0.456zM19.287 16.855c0 0.060-0.048 0.11-0.108 0.11h-6.568c-0.060 0-0.108-0.050-0.108-0.11v-4.665c0-0.060 0.048-0.11 0.108-0.11h6.568c0.059 0 0.108 0.050 0.108 0.11v4.665z"></path>
<path fill="#fff" d="M16.562 14.64l-0.614 0.598-0.639-0.624-2.522 2.176h6.264l-0.009-0.007-2.481-2.143z"></path>
<path fill="#fff" d="M12.802 12.238l3.132 2.705 3.132-2.705h-6.264z"></path>
</svg>
