<?xml version="1.0" encoding="utf-8"?>
<!-- Generated by IcoMoon.io -->
<!DOCTYPE svg PUBLIC "-//W3C//DTD SVG 1.1//EN" "http://www.w3.org/Graphics/SVG/1.1/DTD/svg11.dtd">
<svg version="1.1" xmlns="http://www.w3.org/2000/svg" xmlns:xlink="http://www.w3.org/1999/xlink" width="32" height="32" viewBox="0 0 32 32">
<path fill="#ae5744" d="M25.326 28.649c2.272-1.662 4.13-3.952 5.275-6.748 0.261-0.64 0.478-1.287 0.652-1.936-0.804 2.882-2.686 6.292-5.927 8.684z"></path>
<path fill="#ae5744" d="M14.596 31.636c3.031 0.272 6.037-0.347 8.674-1.714-2.332 1.195-5.202 1.886-8.674 1.714z"></path>
<path fill="#ae5744" d="M21.984 1.328c-8.060-3.301-17.271 0.556-20.572 8.617s0.556 17.271 8.617 20.572c1.461 0.597 2.96 0.96 4.455 1.106l-6.814-5.996c-0.181-0.105-0.329-0.233-0.428-0.377l-0.635-0.558 0.014-0.185c-0.020-0.068-0.032-0.137-0.032-0.208 0-0.025 0.004-0.048 0.005-0.071-0.002-0.018-0.005-0.034-0.005-0.052 0-0.012 0.002-0.025 0.005-0.037h-0.005v-9.956c0.002-0.791 0.791-1.433 1.764-1.433 0.375 0 0.722 0.096 1.008 0.258v-0.203c-0.016-0.181-0.028-0.363-0.028-0.548 0-3.54 1.909-6.308 5.655-6.411 0.016 0 0.594-0.043 1.154-0.043s1.108 0.043 1.124 0.043c1.609 0.073 2.868 0.629 3.778 1.524l10.674 9.246c0.012 0.332 0.002 0.695-0.034 1.081 0.779-6.837-3.015-13.634-9.698-16.37v0z"></path>
<path fill="#9c4336" d="M6.62 24.505l-0.014 0.185 0.635 0.558c-0.028-0.041-0.053-0.084-0.073-0.126-0.279-0.158-0.475-0.373-0.548-0.617v0z"></path>
<path fill="#9c4336" d="M31.716 16.617l-10.674-9.246c0.096 0.094 0.187 0.192 0.276 0.295 1.339 1.159 2.009 2.988 2.009 5.099 0 0.048-0.002 0.096-0.005 0.144 0.155-0.036 0.318-0.057 0.489-0.057 0.697 0 1.296 0.329 1.582 0.805 0.409 0.258 0.676 0.658 0.686 1.111h0.002v0.020c0 0.002 0 0.004 0 0.005s0 0.004 0 0.005v9.924h-0.004c0.002 0.012 0.005 0.025 0.004 0.037 0 0.018-0.004 0.034-0.005 0.050 0.002 0.023 0.005 0.048 0.005 0.071 0 0.617-0.789 1.116-1.765 1.116-0.798 0-1.47-0.336-1.689-0.795-0.356-0.204-0.58-0.498-0.58-0.827 0-0.023 0.004-0.046 0.005-0.071-0.002-0.018-0.005-0.034-0.005-0.052 0-0.012 0.002-0.025 0.005-0.037h-0.005v-1.273c-1.214 0.421-3.198 0.684-5.454 0.684-2.597 0-4.85-0.359-5.97-0.9v1.915h-0.002c0.002 0.012 0.005 0.025 0.005 0.037 0 0.018-0.004 0.034-0.005 0.052 0.002 0.023 0.005 0.048 0.005 0.073 0 0.617-0.789 1.116-1.765 1.116-0.459 0-0.875-0.112-1.188-0.293l6.823 6.004c0.036 0.002 0.068 0.002 0.103 0.005 3.472 0.172 6.341-0.519 8.674-1.714 0.74-0.379 1.424-0.805 2.059-1.275 3.241-2.393 5.122-5.803 5.927-8.684 0.226-0.809 0.366-1.575 0.428-2.265 0.034-0.386 0.046-0.748 0.034-1.081h-0.005z"></path>
<path fill="#7d2720" d="M22.793 12.807v0.309c0.158-0.092 0.338-0.164 0.528-0.208 0.002-0.048 0.005-0.096 0.005-0.144 0-2.11-0.67-3.94-2.009-5.099 1.003 1.154 1.504 2.768 1.504 4.594 0 0.183-0.014 0.366-0.028 0.548z"></path>
<path fill="#7d2720" d="M10.117 22.222v1.915h-0.004c0.002 0.012 0.005 0.025 0.005 0.037 0 0.018-0.004 0.034-0.005 0.050 0.002 0.025 0.005 0.048 0.005 0.073 0 0.617-0.789 1.116-1.765 1.116-0.457 0-0.871-0.11-1.184-0.292 0.020 0.043 0.044 0.085 0.073 0.126 0.1 0.144 0.247 0.272 0.428 0.377 0.313 0.181 0.729 0.293 1.188 0.293 0.976 0 1.765-0.5 1.765-1.116 0-0.025-0.004-0.048-0.005-0.073 0.002-0.018 0.005-0.034 0.005-0.052 0-0.012-0.002-0.025-0.005-0.037h0.004v-1.915c1.122 0.542 3.372 0.9 5.97 0.9 2.256 0 4.242-0.265 5.454-0.684v-0.709c-1.115 0.537-3.358 0.889-5.959 0.889-2.597 0.002-4.85-0.357-5.97-0.898v0z"></path>
<path fill="#7d2720" d="M26.076 24.72h0.004v-9.924c0-0.002 0-0.004 0-0.005s0-0.004 0-0.005v-0.020h-0.002c-0.009-0.452-0.276-0.852-0.686-1.111 0.11 0.183 0.176 0.388 0.181 0.604h0.002v0.020c0 0.002 0 0.004 0 0.005s0 0.004 0 0.005v9.924h-0.004c0.002 0.012 0.005 0.025 0.005 0.037 0 0.018-0.004 0.034-0.005 0.050 0.002 0.023 0.005 0.048 0.005 0.073 0 0.617-0.789 1.116-1.765 1.116-0.455 0-0.871-0.11-1.184-0.292 0.217 0.46 0.892 0.795 1.689 0.795 0.976 0 1.765-0.5 1.765-1.116 0-0.025-0.004-0.048-0.005-0.071 0.002-0.016 0.005-0.034 0.005-0.050 0-0.011-0.004-0.021-0.005-0.036v0z"></path>
<path fill="#676767" d="M7.168 25.124c0.313 0.18 0.729 0.292 1.184 0.292 0.976 0 1.765-0.5 1.765-1.116 0-0.025-0.004-0.050-0.005-0.073-0.059 0.416-0.823 0.743-1.758 0.743s-1.698-0.327-1.758-0.741c-0.002 0.023-0.005 0.046-0.005 0.071 0 0.071 0.012 0.14 0.032 0.208 0.071 0.244 0.267 0.459 0.546 0.617v0z"></path>
<path fill="#eeeeed" d="M22.046 18.297v-4.036h0.002c0.009-0.396 0.215-0.754 0.542-1.010-0.61-2.503-2.428-4.281-5.396-4.452-0.014-0.002-0.608-0.066-1.173-0.066-0.549 0-1.006 0.050-1.020 0.050-2.939 0.116-4.779 1.884-5.417 4.377 0.327 0.261 0.532 0.624 0.532 1.026 0 0.004 0 0.005 0 0.009v0 4.076c1.141-0.752 3.404-1.083 6.011-1.083 2.594 0.002 4.802 0.352 5.92 1.108v0z"></path>
<path fill="#676767" d="M25.575 24.375c0-0.025-0.004-0.048-0.005-0.073-0.057 0.414-0.821 0.745-1.758 0.745-0.935 0-1.7-0.329-1.758-0.743-0.002 0.023-0.005 0.046-0.005 0.071 0 0.327 0.224 0.622 0.58 0.827 0.313 0.18 0.727 0.292 1.184 0.292 0.974 0 1.764-0.5 1.764-1.118v0z"></path>
<path fill="#afb2b2" d="M9.355 20.372c0.002-0.004 0.002-0.007 0.004-0.011v-1.118c0.085-0.379 0.352-0.702 0.757-0.969v-4.078c0-0.004 0-0.005 0-0.009 0-0.402-0.204-0.766-0.532-1.026-0.069-0.055-0.146-0.107-0.226-0.151-0.284-0.162-0.633-0.258-1.008-0.258-0.972 0-1.762 0.642-1.764 1.433v0 9.954h0.005c-0.002 0.012-0.005 0.025-0.005 0.037 0 0.018 0.004 0.036 0.005 0.052 0.060 0.414 0.823 0.741 1.758 0.741 0.937 0 1.7-0.327 1.758-0.743 0.002-0.016 0.005-0.034 0.005-0.050 0-0.012-0.002-0.025-0.005-0.037h0.004v-1.915c-0.452-0.219-0.722-0.466-0.754-0.732v0-0.055l-0.007-0.857v-0.208h0.004z"></path>
<path fill="#afb2b2" d="M25.575 24.215v0-9.924c0-0.002 0-0.004 0-0.005s0-0.004 0-0.005v-0.020h-0.002c-0.005-0.217-0.071-0.421-0.181-0.604-0.286-0.476-0.885-0.805-1.582-0.805-0.169 0-0.334 0.020-0.489 0.057-0.192 0.044-0.37 0.116-0.528 0.208-0.071 0.041-0.139 0.085-0.203 0.135-0.327 0.256-0.535 0.613-0.542 1.010h-0.002v4.036c0.389 0.265 0.649 0.578 0.743 0.944v1.118c0.002 0.002 0.002 0.004 0.002 0.005v0 1.124c-0.023 0.272-0.29 0.523-0.747 0.743v1.982h0.005c-0.002 0.012-0.005 0.025-0.005 0.037 0 0.018 0.004 0.034 0.005 0.052 0.060 0.414 0.823 0.743 1.758 0.743 0.937 0 1.701-0.331 1.758-0.745 0.002-0.016 0.005-0.034 0.005-0.050 0-0.012-0.002-0.025-0.005-0.037l0.009 0.002z"></path>
<path fill="#dddedd" d="M21.317 7.666c-0.089-0.101-0.18-0.199-0.276-0.295-0.91-0.892-2.169-1.451-3.778-1.524-0.016 0-0.562-0.043-1.124-0.043s-1.138 0.043-1.154 0.043c-3.746 0.103-5.655 2.871-5.655 6.411 0 0.185 0.012 0.366 0.028 0.548v0.203c0.080 0.046 0.155 0.096 0.224 0.151 0.638-2.492 2.478-4.261 5.415-4.379 0.012 0 0.473-0.050 1.020-0.050 0.567 0 1.159 0.064 1.173 0.066 2.967 0.169 4.788 1.947 5.396 4.452 0.062-0.050 0.13-0.094 0.203-0.135v-0.309c0.016-0.181 0.028-0.363 0.028-0.548 0-1.826-0.501-3.44-1.504-4.594l0.002 0.004z"></path>
<path fill="#dddedd" d="M22.046 18.297c-1.118-0.757-3.326-1.108-5.92-1.108-2.606 0-4.871 0.331-6.011 1.083-0.407 0.268-0.674 0.59-0.757 0.969v1.118c0.341-1.076 3.248-1.534 6.772-1.534 3.492 0 6.286 0.475 6.661 1.534v-1.118c-0.096-0.366-0.356-0.681-0.745-0.944v0z"></path>
<path fill="#c4c5c5" d="M22.793 21.492v-1.124c-0.002-0.002-0.002-0.004-0.002-0.005-0.373-1.058-3.17-1.534-6.66-1.534-3.524 0-6.43 0.457-6.772 1.534-0.002 0.004-0.002 0.007-0.004 0.011v0.208l0.007 0.857v0.055h0.002c0.034 0.265 0.302 0.514 0.754 0.732 1.122 0.542 3.372 0.9 5.97 0.9 2.601 0 4.846-0.352 5.959-0.889 0.457-0.222 0.724-0.473 0.745-0.745v0z"></path>
</svg>
