<?xml version="1.0" encoding="utf-8"?>
<!-- Generated by IcoMoon.io -->
<!DOCTYPE svg PUBLIC "-//W3C//DTD SVG 1.1//EN" "http://www.w3.org/Graphics/SVG/1.1/DTD/svg11.dtd">
<svg version="1.1" xmlns="http://www.w3.org/2000/svg" xmlns:xlink="http://www.w3.org/1999/xlink" width="32" height="32" viewBox="0 0 32 32">
<path fill="#1bb4b3" d="M16 0.261c-8.727 0-15.803 7.076-15.803 15.803s7.076 15.804 15.803 15.804c1.929 0 3.778-0.347 5.486-0.98l-16.788-16.789 0.132-0.132c1.012-1.013 1.154-2.519 0.316-3.356l-0.132-0.13 0.693-0.693 0.132 0.132c0.206 0.206 0.59 0.187 0.816-0.039 0.116-0.116 0.183-0.267 0.188-0.423 0.005-0.151-0.048-0.292-0.149-0.393l-0.132-0.133 0.725-0.725 0.132 0.132c0.206 0.206 0.59 0.187 0.816-0.039 0.235-0.235 0.252-0.601 0.039-0.816l-0.132-0.132 0.731-0.731 0.132 0.132c0.206 0.206 0.588 0.187 0.816-0.039 0.121-0.121 0.188-0.283 0.188-0.444 0-0.144-0.053-0.276-0.149-0.372l-0.132-0.132 0.688-0.688 0.132 0.132c0.352 0.352 0.846 0.546 1.388 0.546 0.702 0 1.417-0.315 1.966-0.862l0.132-0.132 16.789 16.788c0.633-1.708 0.98-3.557 0.98-5.486 0-8.727-7.076-15.803-15.803-15.803l-0.002 0.002z"></path>
<path fill="#1daba7" d="M27.301 18.030l0.379 0.379-0.132 0.132c-0.494 0.494-0.798 1.12-0.853 1.76-0.053 0.628 0.137 1.195 0.539 1.596l0.132 0.132-0.688 0.688-0.132-0.132c-0.206-0.206-0.59-0.187-0.816 0.039-0.116 0.116-0.183 0.267-0.188 0.423-0.005 0.151 0.048 0.292 0.149 0.393l0.132 0.132-0.731 0.731-0.132-0.132c-0.206-0.206-0.59-0.188-0.816 0.039-0.235 0.236-0.252 0.603-0.039 0.816l0.132 0.132-0.725 0.725-0.132-0.132c-0.206-0.206-0.588-0.187-0.816 0.039-0.116 0.116-0.183 0.267-0.188 0.423-0.005 0.151 0.048 0.292 0.149 0.393l0.132 0.132-0.693 0.693-0.132-0.132c-0.352-0.352-0.846-0.548-1.388-0.548-0.702 0-1.419 0.315-1.966 0.864l-0.132 0.132 3.141 3.141c0.009-0.004 0.020-0.007 0.028-0.011 0.121-0.044 0.242-0.092 0.361-0.139 0.014-0.005 0.027-0.011 0.041-0.016 0.116-0.046 0.229-0.094 0.343-0.144 0.021-0.009 0.041-0.018 0.062-0.027 0.107-0.046 0.213-0.094 0.32-0.144 0.023-0.011 0.044-0.021 0.068-0.032 0.105-0.050 0.21-0.1 0.315-0.153 0.020-0.011 0.041-0.020 0.060-0.030 0.11-0.055 0.219-0.112 0.325-0.169 0.014-0.007 0.027-0.014 0.041-0.021 0.124-0.066 0.247-0.135 0.37-0.204 0.199-0.114 0.393-0.231 0.587-0.354 0.164-0.103 0.325-0.208 0.485-0.316 0.004-0.002 0.007-0.005 0.011-0.007 0.108-0.075 0.217-0.151 0.324-0.228 0.016-0.011 0.030-0.021 0.046-0.034 0.096-0.069 0.19-0.14 0.284-0.212 0.020-0.014 0.039-0.030 0.057-0.044 0.091-0.069 0.18-0.14 0.268-0.212 0.020-0.016 0.039-0.030 0.059-0.046 0.091-0.073 0.18-0.148 0.267-0.222 0.016-0.014 0.034-0.028 0.050-0.043 0.094-0.082 0.188-0.164 0.281-0.245 0.009-0.007 0.018-0.016 0.027-0.023 0.208-0.187 0.409-0.379 0.606-0.576s0.389-0.4 0.576-0.606c0.009-0.009 0.016-0.020 0.025-0.028 0.082-0.092 0.164-0.185 0.244-0.279 0.014-0.018 0.028-0.034 0.043-0.052 0.075-0.087 0.148-0.176 0.22-0.265 0.016-0.020 0.032-0.041 0.048-0.060 0.071-0.087 0.14-0.176 0.21-0.267 0.016-0.020 0.030-0.041 0.046-0.060 0.071-0.092 0.14-0.187 0.208-0.281 0.012-0.016 0.023-0.032 0.036-0.050 0.076-0.105 0.151-0.212 0.224-0.318 0.004-0.005 0.007-0.011 0.011-0.016 0.238-0.35 0.462-0.709 0.674-1.077 0 0 0-0.002 0.002-0.002 0.068-0.117 0.133-0.236 0.197-0.357 0.009-0.016 0.018-0.032 0.025-0.048 0.055-0.105 0.11-0.212 0.164-0.316 0.011-0.023 0.023-0.046 0.034-0.069 0.050-0.101 0.1-0.203 0.148-0.306 0.012-0.025 0.023-0.050 0.036-0.076 0.048-0.103 0.094-0.206 0.139-0.309 0.011-0.023 0.021-0.048 0.030-0.071 0.048-0.11 0.092-0.22 0.139-0.331 0.007-0.018 0.014-0.036 0.021-0.053 0.052-0.128 0.101-0.256 0.149-0.386v0l-3.524-3.524 0.007 0.002z"></path>
<path fill="#1daba7" d="M26.315 19.92c-0.053 0.628 0.137 1.195 0.539 1.596l0.132 0.132-0.688 0.688-0.132-0.132c-0.206-0.206-0.59-0.187-0.816 0.039-0.116 0.116-0.183 0.267-0.188 0.423-0.005 0.151 0.048 0.292 0.149 0.393l0.132 0.132-0.731 0.732-0.132-0.132c-0.206-0.206-0.59-0.188-0.816 0.039-0.235 0.236-0.252 0.603-0.039 0.816l0.132 0.132-0.725 0.725-0.132-0.132c-0.206-0.206-0.588-0.187-0.816 0.039-0.116 0.116-0.183 0.267-0.188 0.423-0.005 0.151 0.048 0.292 0.149 0.393l0.132 0.132-0.693 0.693-0.132-0.132c-0.352-0.352-0.846-0.548-1.388-0.548-0.702 0-1.419 0.315-1.966 0.864l-0.132 0.132 0.379 0.379 0.132-0.132c0.548-0.549 1.266-0.864 1.966-0.864 0.542 0 1.036 0.194 1.388 0.548l0.132 0.132 0.693-0.693-0.132-0.132c-0.101-0.101-0.155-0.242-0.149-0.393 0.005-0.156 0.073-0.308 0.188-0.423 0.226-0.226 0.61-0.244 0.816-0.039l0.132 0.132 0.725-0.725-0.132-0.132c-0.213-0.213-0.196-0.58 0.039-0.816 0.226-0.226 0.61-0.244 0.816-0.039l0.132 0.132 0.731-0.731-0.132-0.132c-0.101-0.101-0.155-0.242-0.149-0.393 0.005-0.156 0.073-0.308 0.188-0.423 0.226-0.226 0.61-0.245 0.816-0.039l0.132 0.132 0.688-0.688-0.132-0.132c-0.402-0.402-0.592-0.969-0.539-1.596 0.055-0.64 0.359-1.264 0.853-1.76l0.132-0.132-0.379-0.379-0.132 0.132c-0.494 0.492-0.798 1.118-0.853 1.758z"></path>
<path fill="#1bb4b3" opacity="0.9" d="M26.315 19.92c-0.053 0.628 0.137 1.195 0.539 1.596l0.132 0.132-0.688 0.688-0.132-0.132c-0.206-0.206-0.59-0.187-0.816 0.039-0.116 0.116-0.183 0.267-0.188 0.423-0.005 0.151 0.048 0.292 0.149 0.393l0.132 0.132-0.731 0.732-0.132-0.132c-0.206-0.206-0.59-0.188-0.816 0.039-0.235 0.236-0.252 0.603-0.039 0.816l0.132 0.132-0.725 0.725-0.132-0.132c-0.206-0.206-0.588-0.187-0.816 0.039-0.116 0.116-0.183 0.267-0.188 0.423-0.005 0.151 0.048 0.292 0.149 0.393l0.132 0.132-0.693 0.693-0.132-0.132c-0.352-0.352-0.846-0.548-1.388-0.548-0.702 0-1.419 0.315-1.966 0.864l-0.132 0.132 0.379 0.379 0.132-0.132c0.548-0.549 1.266-0.864 1.966-0.864 0.542 0 1.036 0.194 1.388 0.548l0.132 0.132 0.693-0.693-0.132-0.132c-0.101-0.101-0.155-0.242-0.149-0.393 0.005-0.156 0.073-0.308 0.188-0.423 0.226-0.226 0.61-0.244 0.816-0.039l0.132 0.132 0.725-0.725-0.132-0.132c-0.213-0.213-0.196-0.58 0.039-0.816 0.226-0.226 0.61-0.244 0.816-0.039l0.132 0.132 0.731-0.731-0.132-0.132c-0.101-0.101-0.155-0.242-0.149-0.393 0.005-0.156 0.073-0.308 0.188-0.423 0.226-0.226 0.61-0.245 0.816-0.039l0.132 0.132 0.688-0.688-0.132-0.132c-0.402-0.402-0.592-0.969-0.539-1.596 0.055-0.64 0.359-1.264 0.853-1.76l0.132-0.132-0.379-0.379-0.132 0.132c-0.494 0.492-0.798 1.118-0.853 1.758z"></path>
<path fill="#fff5d4" d="M20.064 25.996c0.576 0 1.106 0.187 1.515 0.53l0.187-0.187c-0.098-0.153-0.148-0.334-0.14-0.524 0.009-0.251 0.114-0.491 0.299-0.674 0.318-0.318 0.844-0.382 1.196-0.156l0.226-0.226c-0.231-0.361-0.176-0.864 0.156-1.196 0.32-0.318 0.846-0.382 1.198-0.156l0.231-0.231c-0.098-0.153-0.148-0.334-0.14-0.524 0.009-0.251 0.114-0.491 0.297-0.674 0.318-0.32 0.844-0.384 1.198-0.156l0.18-0.18c-0.395-0.468-0.578-1.083-0.521-1.755 0.059-0.67 0.352-1.323 0.834-1.856l-12.747-12.745c-0.599 0.539-1.353 0.843-2.094 0.843-0.576 0-1.106-0.187-1.515-0.53l-0.18 0.18c0.092 0.142 0.14 0.311 0.142 0.489 0 0.261-0.108 0.519-0.299 0.709-0.32 0.32-0.843 0.386-1.196 0.156l-0.231 0.231c0.231 0.361 0.176 0.864-0.156 1.196-0.32 0.32-0.844 0.384-1.196 0.158l-0.226 0.224c0.098 0.153 0.148 0.334 0.14 0.524-0.009 0.251-0.116 0.492-0.297 0.672-0.318 0.322-0.844 0.384-1.196 0.158l-0.187 0.187c0.809 0.962 0.676 2.51-0.315 3.611l12.745 12.747c0.599-0.539 1.353-0.844 2.096-0.844h-0.004zM8.105 15.556v0l-1.877-1.879 7.385-7.385 12.164 12.162-7.387 7.387-10.284-10.284z"></path>
<path fill="#fff5d4" d="M18.389 25.234l6.782-6.782-1.276-1.275-6.782 6.782 1.276 1.275zM24.263 18.516l-5.812 5.812-0.428-0.43 5.812-5.812 0.428 0.43z"></path>
<path fill="#fff5d4" d="M23.593 16.876l-8.405-8.404-6.782 6.78 8.404 8.405 6.784-6.782zM18.263 17.913l0.868-0.441-0.441 0.868 0.688 0.688-0.96-0.151-0.443 0.868-0.153-0.96-0.962-0.153 0.868-0.443-0.153-0.96 0.688 0.688v-0.004zM13.436 15.207l-0.153-0.964-0.96-0.153 0.868-0.443-0.153-0.96 0.688 0.688 0.868-0.443-0.441 0.869 0.688 0.688-0.96-0.151-0.444 0.868zM15.705 17.472l-0.153-0.96-0.96-0.151 0.866-0.443-0.151-0.962 0.688 0.688 0.868-0.443-0.443 0.869 0.688 0.688-0.962-0.155-0.441 0.868z"></path>
<path fill="#fff5d4" d="M13.611 6.894l-6.78 6.784 1.275 1.273 6.78-6.78-1.275-1.276zM7.739 13.616l5.812-5.812 0.43 0.43-5.812 5.81-0.43-0.428z"></path>
<path fill="#fff" d="M18.098 27.234c0.548-0.549 1.266-0.864 1.966-0.864 0.542 0 1.036 0.194 1.388 0.548l0.132 0.132 0.693-0.693-0.132-0.132c-0.101-0.101-0.155-0.242-0.149-0.393 0.005-0.156 0.073-0.308 0.188-0.423 0.226-0.226 0.61-0.244 0.816-0.039l0.132 0.132 0.725-0.725-0.132-0.132c-0.213-0.213-0.196-0.58 0.039-0.816 0.226-0.226 0.61-0.244 0.816-0.039l0.132 0.132 0.731-0.731-0.132-0.132c-0.101-0.101-0.155-0.242-0.149-0.393 0.005-0.156 0.073-0.308 0.188-0.423 0.226-0.226 0.61-0.245 0.816-0.039l0.132 0.132 0.688-0.688-0.132-0.132c-0.402-0.402-0.592-0.969-0.539-1.596 0.055-0.64 0.359-1.264 0.853-1.76l0.132-0.132-13.266-13.266-0.132 0.133c-0.548 0.546-1.264 0.86-1.966 0.86-0.542 0-1.036-0.194-1.388-0.546l-0.132-0.132-0.688 0.688 0.132 0.132c0.096 0.096 0.149 0.228 0.149 0.372 0 0.162-0.069 0.324-0.188 0.444-0.226 0.228-0.61 0.245-0.816 0.041l-0.132-0.133-0.731 0.731 0.132 0.132c0.213 0.213 0.197 0.58-0.039 0.816-0.226 0.226-0.61 0.245-0.816 0.039l-0.132-0.132-0.725 0.725 0.132 0.132c0.101 0.101 0.155 0.242 0.149 0.393-0.005 0.156-0.073 0.306-0.188 0.423-0.226 0.228-0.61 0.245-0.816 0.041l-0.132-0.133-0.693 0.693 0.132 0.132c0.837 0.837 0.695 2.343-0.316 3.358l-0.132 0.13 13.266 13.268 0.133-0.133zM5.223 14.098c0.99-1.1 1.122-2.649 0.315-3.611l0.187-0.188c0.352 0.226 0.878 0.164 1.196-0.155 0.183-0.185 0.288-0.421 0.297-0.674 0.007-0.19-0.043-0.372-0.14-0.524l0.226-0.226c0.352 0.226 0.878 0.162 1.196-0.156 0.332-0.332 0.388-0.836 0.156-1.196l0.231-0.231c0.354 0.228 0.878 0.164 1.196-0.156 0.19-0.19 0.299-0.448 0.299-0.709 0-0.178-0.050-0.347-0.142-0.489l0.18-0.18c0.409 0.343 0.939 0.53 1.515 0.53 0.743 0 1.497-0.306 2.094-0.843l12.747 12.745c-0.48 0.533-0.775 1.186-0.834 1.856-0.059 0.672 0.126 1.287 0.521 1.755l-0.18 0.18c-0.352-0.228-0.878-0.162-1.198 0.156-0.183 0.183-0.288 0.421-0.297 0.674-0.007 0.19 0.043 0.372 0.14 0.524l-0.231 0.231c-0.352-0.228-0.878-0.164-1.198 0.156-0.332 0.334-0.388 0.836-0.156 1.196l-0.226 0.226c-0.352-0.226-0.878-0.162-1.196 0.156-0.183 0.183-0.29 0.423-0.299 0.674-0.007 0.19 0.043 0.372 0.14 0.524l-0.187 0.187c-0.409-0.343-0.94-0.53-1.515-0.53-0.743 0-1.497 0.306-2.094 0.844l-12.743-12.747z"></path>
<path fill="#676767" d="M18.389 25.84l7.387-7.387-12.164-12.162-7.385 7.385 12.162 12.164zM25.17 18.453l-6.782 6.782-1.275-1.275 6.782-6.782 1.275 1.275zM6.83 13.676l6.78-6.782 1.275 1.275-6.78 6.779-1.275-1.271zM8.407 15.253l6.782-6.78 8.405 8.404-6.782 6.782-8.405-8.405z"></path>
<path fill="#676767" d="M7.737 13.616l5.812-5.812 0.43 0.43-5.812 5.81-0.43-0.428z"></path>
<path fill="#676767" d="M18.021 23.895l5.812-5.812 0.428 0.428-5.812 5.812-0.428-0.428z"></path>
<path fill="#1bb4b3" d="M16.42 16.071l0.443-0.868-0.868 0.441-0.688-0.688 0.151 0.962-0.866 0.443 0.96 0.151 0.153 0.96 0.443-0.868 0.962 0.151-0.69-0.684z"></path>
<path fill="#1bb4b3" d="M16.859 18.629l0.962 0.153 0.153 0.96 0.443-0.868 0.96 0.151-0.688-0.688 0.441-0.868-0.868 0.441-0.688-0.688 0.153 0.96-0.868 0.446z"></path>
<path fill="#1bb4b3" d="M14.151 13.804l0.441-0.868-0.868 0.441-0.688-0.686 0.153 0.96-0.868 0.441 0.96 0.153 0.153 0.962 0.443-0.868 0.96 0.151-0.686-0.686z"></path>
</svg>
