<?xml version="1.0" encoding="utf-8"?>
<!-- Generated by IcoMoon.io -->
<!DOCTYPE svg PUBLIC "-//W3C//DTD SVG 1.1//EN" "http://www.w3.org/Graphics/SVG/1.1/DTD/svg11.dtd">
<svg version="1.1" xmlns="http://www.w3.org/2000/svg" xmlns:xlink="http://www.w3.org/1999/xlink" width="32" height="32" viewBox="0 0 32 32">
<path fill="#1bb3b3" d="M25.616 28.532c2.151-1.646 3.908-3.867 5.008-6.553 0.26-0.633 0.475-1.273 0.647-1.918-0.786 2.8-2.585 6.094-5.655 8.471v0z"></path>
<path fill="#1bb3b3" d="M14.597 31.735c2.917 0.261 5.813-0.306 8.379-1.566-2.279 1.102-5.052 1.728-8.379 1.566z"></path>
<path fill="#1bb3b3" d="M7.218 25.337l-0.636-0.56 0.014-0.185c-0.020-0.068-0.032-0.137-0.032-0.208 0-0.025 0.004-0.048 0.005-0.073-0.002-0.018-0.005-0.034-0.005-0.052 0-0.012 0.004-0.025 0.004-0.037h-0.004v-9.973c0.002-0.793 0.793-1.436 1.767-1.436 0.375 0 0.724 0.096 1.010 0.26v-0.201c-0.016-0.183-0.028-0.363-0.028-0.549 0-3.548 1.913-6.32 5.666-6.425 0.016 0 0.594-0.044 1.156-0.044s1.109 0.043 1.125 0.044c1.612 0.073 2.873 0.631 3.785 1.525l10.695 9.264c0.012 0.329 0.002 0.688-0.032 1.068 0.772-6.844-3.029-13.648-9.719-16.388-8.076-3.305-17.305 0.56-20.613 8.636s0.558 17.305 8.635 20.612c1.463 0.599 2.965 0.962 4.462 1.108l-6.828-6.009c-0.181-0.105-0.329-0.233-0.428-0.377h0.004z"></path>
<path fill="#1bb3b3" d="M25.532 28.597c-0.053 0.041-0.107 0.080-0.16 0.119 0.053-0.039 0.107-0.080 0.16-0.119z"></path>
<path fill="#1bb3b3" d="M23.216 30.050c-0.055 0.027-0.108 0.055-0.164 0.084 0.055-0.028 0.108-0.055 0.164-0.084z"></path>
<path fill="#29a9a6" opacity="0.8" d="M25.372 28.716c-0.683 0.503-1.404 0.948-2.156 1.333 0.777-0.395 1.495-0.841 2.156-1.333z"></path>
<path fill="#29a9a6" opacity="0.8" d="M23.052 30.13c-0.025 0.012-0.052 0.025-0.076 0.037 0.025-0.012 0.052-0.025 0.076-0.037z"></path>
<path fill="#29a9a6" opacity="0.8" d="M31.708 17.753c-0.087 0.77-0.231 1.541-0.437 2.308 0.231-0.823 0.375-1.604 0.437-2.308z"></path>
<path fill="#29a9a6" opacity="0.8" d="M14.484 31.73c0.039 0.002 0.076 0.004 0.116 0.005-0.041-0.004-0.082-0.009-0.124-0.012l0.009 0.007z"></path>
<path fill="#29a9a6" opacity="0.8" d="M25.616 28.532c-0.028 0.021-0.057 0.043-0.084 0.064 0.028-0.021 0.057-0.041 0.084-0.064z"></path>
<path fill="#29a9a6" d="M31.271 20.062c0.204-0.766 0.35-1.536 0.437-2.308 0.034-0.38 0.044-0.74 0.032-1.068l-10.695-9.264c0.096 0.094 0.188 0.194 0.276 0.295 1.342 1.163 2.014 2.996 2.014 5.109 0 0.048-0.004 0.096-0.005 0.144 0.156-0.037 0.32-0.057 0.489-0.057 0.699 0 1.3 0.329 1.586 0.807 0.411 0.258 0.677 0.66 0.686 1.113h0.002v0.018c0 0.002 0 0.004 0 0.005s0 0.004 0 0.005v9.943h-0.004c0.002 0.012 0.004 0.025 0.004 0.037 0 0.018-0.004 0.034-0.005 0.052 0.002 0.025 0.005 0.048 0.005 0.073 0 0.619-0.791 1.118-1.769 1.118-0.8 0-1.474-0.336-1.692-0.798-0.356-0.204-0.581-0.5-0.581-0.828 0-0.025 0.004-0.048 0.005-0.073-0.002-0.018-0.005-0.034-0.005-0.052 0-0.012 0.004-0.025 0.004-0.037h-0.004v-1.275c-1.216 0.421-3.205 0.686-5.465 0.686-2.603 0-4.859-0.359-5.982-0.901v1.918h-0.004c0.002 0.012 0.004 0.025 0.004 0.037 0 0.018-0.004 0.034-0.005 0.052 0.002 0.023 0.005 0.048 0.005 0.073 0 0.617-0.791 1.118-1.769 1.118-0.459 0-0.876-0.112-1.191-0.293l6.828 6.009c0.041 0.004 0.082 0.009 0.124 0.012 3.326 0.164 6.1-0.464 8.379-1.566 0.025-0.012 0.052-0.025 0.076-0.037 0.055-0.027 0.108-0.055 0.164-0.084 0.752-0.386 1.472-0.83 2.156-1.333 0.053-0.039 0.107-0.080 0.16-0.119 0.028-0.021 0.057-0.043 0.084-0.064 3.068-2.379 4.868-5.671 5.653-8.471l0.004 0.004z"></path>
<path fill="#1bb3b3" d="M6.596 24.592l-0.014 0.185 0.636 0.56c-0.028-0.041-0.053-0.084-0.075-0.128-0.279-0.16-0.476-0.375-0.548-0.617v0z"></path>
<path fill="#29a9a6" opacity="0.8" d="M6.596 24.592l-0.014 0.185 0.636 0.56c-0.028-0.041-0.053-0.084-0.075-0.128-0.279-0.16-0.476-0.375-0.548-0.617v0z"></path>
<path fill="#257f7c" d="M25.588 14.327v0.018c0 0.002 0 0.004 0 0.005s0 0.004 0 0.005v9.943h-0.004c0.002 0.012 0.004 0.025 0.004 0.037 0 0.018-0.004 0.034-0.005 0.052 0.002 0.023 0.005 0.048 0.005 0.073 0 0.619-0.791 1.118-1.769 1.118-0.457 0-0.873-0.11-1.186-0.292 0.219 0.46 0.892 0.798 1.692 0.798 0.978 0 1.769-0.501 1.769-1.118 0-0.025-0.004-0.048-0.005-0.073 0.002-0.016 0.005-0.034 0.005-0.052 0-0.012-0.004-0.025-0.004-0.037h0.004v-9.945c0-0.002 0-0.004 0-0.005s0-0.004 0-0.005v-0.018h-0.002c-0.009-0.453-0.277-0.853-0.686-1.113 0.11 0.183 0.176 0.391 0.181 0.608v0 0z"></path>
<path fill="#257f7c" d="M22.8 12.869v0.309c0.16-0.092 0.338-0.164 0.53-0.208 0.002-0.048 0.005-0.096 0.005-0.144 0-2.116-0.672-3.947-2.014-5.109 1.004 1.156 1.508 2.773 1.508 4.604 0 0.185-0.012 0.366-0.028 0.548v0z"></path>
<path fill="#257f7c" d="M16.080 23.204c-2.603 0-4.859-0.359-5.982-0.901v1.918h-0.004c0.002 0.012 0.004 0.025 0.004 0.037 0 0.018-0.004 0.034-0.005 0.052 0.002 0.025 0.005 0.048 0.005 0.073 0 0.617-0.791 1.118-1.769 1.118-0.457 0-0.873-0.11-1.188-0.292 0.021 0.044 0.046 0.085 0.075 0.128 0.1 0.144 0.247 0.272 0.428 0.377 0.315 0.181 0.732 0.293 1.191 0.293 0.976 0 1.769-0.501 1.769-1.118 0-0.025-0.004-0.048-0.005-0.073 0.002-0.018 0.005-0.034 0.005-0.052 0-0.012-0.004-0.025-0.004-0.037h0.004v-1.918c1.124 0.542 3.38 0.901 5.982 0.901 2.261 0 4.249-0.265 5.465-0.686v-0.709c-1.116 0.539-3.365 0.891-5.972 0.891 0 0.002 0-0.002 0-0.002z"></path>
<path fill="#6e6a69" d="M7.145 25.211c0.315 0.18 0.729 0.292 1.188 0.292 0.976 0 1.769-0.501 1.769-1.118 0-0.025-0.004-0.048-0.005-0.073-0.059 0.416-0.825 0.745-1.762 0.745s-1.701-0.329-1.762-0.745c-0.002 0.025-0.005 0.048-0.005 0.073 0 0.071 0.012 0.14 0.032 0.208 0.073 0.244 0.27 0.459 0.549 0.619 0-0.002-0.004-0.002-0.004 0z"></path>
<path fill="#e5e5e4" d="M16.135 5.852c-0.562 0-1.14 0.043-1.156 0.044-3.753 0.103-5.666 2.876-5.666 6.425 0 0.185 0.012 0.366 0.028 0.548v0.203c0.080 0.044 0.155 0.094 0.224 0.151 0.64-2.496 2.482-4.268 5.426-4.386 0.012 0 0.473-0.050 1.022-0.050 0.567 0 1.163 0.064 1.177 0.066 2.972 0.169 4.796 1.95 5.406 4.459 0.062-0.050 0.13-0.094 0.203-0.135v-0.309c0.016-0.181 0.028-0.363 0.028-0.548 0-1.829-0.503-3.447-1.508-4.604-0.089-0.101-0.18-0.201-0.276-0.295-0.912-0.894-2.172-1.452-3.785-1.525-0.016 0-0.562-0.044-1.125-0.043v0z"></path>
<path fill="#f4f4f4" d="M10.1 14.251c0 0.004 0 0.005 0 0.009v4.085c1.143-0.754 3.412-1.084 6.023-1.084 2.597 0 4.811 0.35 5.931 1.109v-4.046h0.002c0.009-0.398 0.215-0.756 0.544-1.012-0.61-2.508-2.434-4.29-5.406-4.459-0.014-0.002-0.608-0.064-1.177-0.064-0.549 0-1.010 0.050-1.022 0.050-2.944 0.116-4.788 1.89-5.426 4.384 0.329 0.261 0.533 0.626 0.532 1.028v0z"></path>
<path fill="#6e6a69" d="M25.588 24.46c0-0.025-0.004-0.048-0.005-0.073-0.059 0.416-0.823 0.747-1.762 0.747s-1.703-0.331-1.762-0.747c-0.002 0.023-0.005 0.048-0.005 0.073 0 0.329 0.226 0.624 0.581 0.828 0.315 0.18 0.729 0.292 1.186 0.292 0.978-0.002 1.769-0.503 1.767-1.12v0z"></path>
<path fill="#bcbcbb" d="M8.331 25.056c0.939 0 1.703-0.329 1.762-0.745 0.002-0.018 0.005-0.034 0.005-0.052 0-0.012-0.004-0.025-0.004-0.037h0.004v-1.918c-0.453-0.219-0.722-0.468-0.756-0.732h-0.002v-0.055l-0.007-0.859v-0.208c0.002-0.004 0.004-0.007 0.004-0.011v-1.122c0.085-0.38 0.352-0.702 0.759-0.971v-4.087c0-0.004 0-0.005 0-0.009 0-0.404-0.204-0.766-0.533-1.028-0.069-0.055-0.144-0.105-0.224-0.151-0.286-0.162-0.635-0.26-1.010-0.26-0.974 0-1.765 0.644-1.767 1.436v0 9.973h0.004c-0.002 0.012-0.004 0.025-0.004 0.037 0 0.018 0.004 0.034 0.005 0.052 0.059 0.418 0.825 0.745 1.764 0.745v0z"></path>
<path fill="#bcbcbb" d="M22.597 13.314c-0.329 0.256-0.535 0.615-0.544 1.012h-0.002v4.044c0.391 0.265 0.651 0.58 0.745 0.946v1.122c0 0.002 0.002 0.004 0.002 0.005v1.127c-0.021 0.272-0.29 0.524-0.747 0.745v1.986h0.004c-0.002 0.012-0.004 0.025-0.004 0.037 0 0.018 0.004 0.034 0.005 0.052 0.059 0.416 0.825 0.747 1.762 0.747s1.703-0.331 1.762-0.747c0.002-0.018 0.005-0.034 0.005-0.052 0-0.012-0.004-0.025-0.004-0.037h0.004v-9.945c0-0.002 0-0.004 0-0.005s0-0.004 0-0.005v-0.018h-0.002c-0.005-0.217-0.069-0.423-0.181-0.606-0.288-0.476-0.887-0.807-1.586-0.807-0.171 0-0.334 0.021-0.489 0.057-0.192 0.044-0.372 0.117-0.53 0.208-0.071 0.041-0.139 0.085-0.201 0.135 0 0.002 0 0 0 0z"></path>
<path fill="#e5e5e4" d="M10.1 18.343c-0.409 0.268-0.674 0.59-0.759 0.971v1.122c0.341-1.077 3.253-1.536 6.784-1.536 3.497 0 6.299 0.476 6.674 1.536v-1.122c-0.094-0.366-0.354-0.681-0.745-0.946-1.12-0.759-3.333-1.109-5.931-1.109-2.612 0-4.88 0.334-6.023 1.084z"></path>
<path fill="#cecece" d="M16.124 18.901c-3.531 0-6.444 0.459-6.784 1.536-0.002 0.004-0.004 0.007-0.004 0.011v0.208l0.007 0.859v0.055h0.002c0.032 0.267 0.302 0.514 0.756 0.732 1.124 0.542 3.38 0.901 5.982 0.901 2.606 0 4.857-0.352 5.972-0.891 0.457-0.22 0.725-0.473 0.747-0.745v-1.127c0-0.002-0.002-0.004-0.002-0.005-0.375-1.061-3.177-1.536-6.674-1.536l-0.002 0.002z"></path>
</svg>
