<?xml version="1.0" encoding="utf-8"?>
<!-- Generated by IcoMoon.io -->
<!DOCTYPE svg PUBLIC "-//W3C//DTD SVG 1.1//EN" "http://www.w3.org/Graphics/SVG/1.1/DTD/svg11.dtd">
<svg version="1.1" xmlns="http://www.w3.org/2000/svg" xmlns:xlink="http://www.w3.org/1999/xlink" width="32" height="32" viewBox="0 0 32 32">
<path fill="#b3543d" d="M28.562 25.566c0.832-1.086 1.536-2.297 2.080-3.623 0.372-0.908 0.652-1.831 0.846-2.757-0.555 2.092-1.156 3.913-2.512 5.776 0 0-0.133 0.229-0.414 0.604z"></path>
<path fill="#b3543d" d="M18.334 31.586c3.627-0.54 7.003-2.336 9.479-5.113-1.499 1.662-4.521 4.217-9.479 5.113z"></path>
<path fill="#b3543d" d="M8.395 20.999l0.098-0.098-0.069-0.069c-0.172-0.172-0.172-0.452 0-0.624l3.915-3.915-3.831-3.831c-0.172-0.172-0.172-0.452 0-0.624l0.069-0.069-0.098-0.098c-0.172-0.172-0.172-0.452 0-0.624l2.7-2.7c0.172-0.172 0.452-0.172 0.624 0l4.24 4.24 4.238-4.238c0.172-0.172 0.452-0.172 0.624 0l2.699 2.7c0.036 0.036 0.060 0.075 0.082 0.116l3.708 3.756 4.094 4.258c1.534-7.317-2.316-14.914-9.483-17.849-8.076-3.307-17.305 0.558-20.613 8.635s0.558 17.305 8.635 20.612c2.725 1.116 5.58 1.413 8.297 1.010l-9.932-9.966c-0.172-0.172-0.172-0.452 0-0.624l0.004 0.004z"></path>
<path fill="#a13f2e" d="M27.396 14.923l-3.708-3.756c0.082 0.165 0.057 0.37-0.082 0.508l-0.098 0.098 0.069 0.069c0.172 0.172 0.172 0.452 0 0.624l-3.829 3.829 3.915 3.915c0.172 0.172 0.172 0.452 0 0.624l-0.069 0.069 0.098 0.098c0.172 0.172 0.172 0.452 0 0.624l-2.7 2.7c-0.172 0.172-0.452 0.172-0.624 0l-4.324-4.324-4.325 4.325c-0.172 0.172-0.452 0.172-0.624 0l-2.7-2.7 9.932 9.966c0.004 0 0.005-0.002 0.007-0.002 4.958-0.896 7.979-3.449 9.479-5.113 0.044-0.050 0.087-0.098 0.13-0.146 0.007-0.007 0.012-0.014 0.020-0.023 0.172-0.197 0.322-0.38 0.45-0.544 0.053-0.069 0.103-0.135 0.149-0.196 0.279-0.375 0.414-0.604 0.414-0.604 1.358-1.863 1.957-3.684 2.512-5.776 0-0.002 0.002-0.004 0.002-0.005v0l-4.092-4.261z"></path>
<path fill="#82281c" d="M8.576 11.771l-0.069 0.069c-0.172 0.172-0.172 0.452 0 0.624l3.831 3.831 0.38-0.38-4.142-4.144z"></path>
<path fill="#82281c" d="M20.338 23.531l-4.295-4.297-4.297 4.297c-0.172 0.172-0.452 0.172-0.624 0l-2.631-2.631-0.098 0.098c-0.172 0.172-0.172 0.452 0 0.624l2.7 2.7c0.172 0.172 0.452 0.172 0.624 0l4.325-4.325 4.324 4.324c0.172 0.172 0.452 0.172 0.624 0l2.7-2.7c0.172-0.172 0.172-0.452 0-0.624l-0.098-0.098-2.631 2.631c-0.172 0.172-0.452 0.172-0.624 0.002z"></path>
<path fill="#82281c" d="M19.748 16.293l3.829-3.829c0.172-0.172 0.172-0.452 0-0.624l-0.069-0.069-4.14 4.14 0.38 0.382z"></path>
<path fill="#fff" d="M20.905 8.348c-0.172-0.172-0.452-0.172-0.624 0l-4.238 4.238-4.24-4.24c-0.172-0.172-0.452-0.172-0.624 0l-2.7 2.7c-0.172 0.172-0.172 0.452 0 0.624l4.24 4.24-4.297 4.297c-0.172 0.172-0.172 0.452 0 0.624l2.7 2.7c0.172 0.172 0.452 0.172 0.624 0l4.297-4.297 4.295 4.295c0.172 0.172 0.452 0.172 0.624 0l2.7-2.699c0.172-0.172 0.172-0.452 0-0.624l-4.295-4.295 4.238-4.238c0.137-0.137 0.164-0.343 0.082-0.508-0.021-0.041-0.046-0.082-0.082-0.116l-2.7-2.702z"></path>
</svg>
