<?xml version="1.0" encoding="utf-8"?>
<!-- Generated by IcoMoon.io -->
<!DOCTYPE svg PUBLIC "-//W3C//DTD SVG 1.1//EN" "http://www.w3.org/Graphics/SVG/1.1/DTD/svg11.dtd">
<svg version="1.1" xmlns="http://www.w3.org/2000/svg" xmlns:xlink="http://www.w3.org/1999/xlink" width="32" height="32" viewBox="0 0 32 32">
<path fill="#ae5744" d="M21.996 1.369c-8.076-3.307-17.305 0.558-20.613 8.636s0.558 17.307 8.635 20.613c1.668 0.683 3.383 1.060 5.084 1.156l-2.565-2.571-2.366-2.414c-0.132-0.023-0.238-0.137-0.279-0.286l-0.144-0.148c-0.139-0.021-0.254-0.14-0.293-0.299l-0.018-0.018 0.009-0.011c-0.005-0.030-0.011-0.062-0.011-0.096v-20.126c0-0.235 0.158-0.427 0.352-0.427h12.434c0.194 0 0.352 0.192 0.352 0.427v0 0l0.007 0.007h0.076c0.194 0 0.352 0.192 0.352 0.427v0.103l5.008 6.185 3.696 4.268c0.1 5.008-4.357 14.757-16.116 14.999 6.372 0.164 12.475-3.563 15.035-9.812 3.308-8.080-0.556-17.31-8.635-20.615v0z"></path>
<path fill="#9c4336" d="M9.438 26.037l0.018 0.018c-0.002-0.009-0.005-0.018-0.007-0.027l-0.011 0.009z"></path>
<path fill="#9c4336" d="M22.581 5.813l-0.007-0.007v0.007h0.007z"></path>
<path fill="#9c4336" d="M9.874 26.361h-0.084c-0.014 0-0.028-0.004-0.043-0.005l0.144 0.148c-0.011-0.043-0.020-0.087-0.020-0.135v-0.007h0.002z"></path>
<path fill="#9c4336" d="M31.714 16.796l-3.696-4.268-5.008-6.185v20.025c0 0.235-0.158 0.427-0.352 0.427h-12.434c-0.018 0-0.036-0.004-0.052-0.007l2.366 2.414 2.59 2.596c0.158 0 0.315-0.002 0.469-0.005 11.758-0.242 16.213-9.989 16.116-14.996v0z"></path>
<path fill="#7d2720" d="M22.658 26.796c0.194 0 0.352-0.192 0.352-0.427v-20.13c0-0.235-0.158-0.427-0.352-0.427h-0.084v20.121c0 0.235-0.158 0.427-0.352 0.427l-12.35 0.007c0 0.048 0.007 0.092 0.020 0.135 0.043 0.149 0.149 0.261 0.279 0.286 0.018 0.004 0.034 0.007 0.052 0.007h12.436z"></path>
<path fill="#5d6162" d="M9.79 26.361h12.432c0.194 0 0.352-0.192 0.352-0.427v-20.128c0-0.235-0.158-0.427-0.352-0.427h-12.432c-0.194 0-0.352 0.192-0.352 0.427v20.128c0 0.034 0.004 0.064 0.011 0.096 0.002 0.009 0.005 0.018 0.007 0.027 0.039 0.16 0.153 0.279 0.293 0.299 0.012 0.002 0.027 0.005 0.041 0.005v0zM16.007 25.136c-0.485 0-0.878-0.395-0.878-0.878s0.393-0.878 0.878-0.878c0.485 0 0.878 0.393 0.878 0.878s-0.393 0.878-0.878 0.878zM11.022 7.982c0-0.494 0.322-0.9 0.716-0.9h8.537c0.393 0 0.716 0.404 0.716 0.9v13.207c0 0.494-0.322 0.9-0.716 0.9h-8.537c-0.393 0-0.716-0.404-0.716-0.9 0 0.002 0-13.207 0-13.207z"></path>
<path fill="#d8dad8" d="M16.007 23.38c-0.485 0-0.878 0.393-0.878 0.878s0.393 0.878 0.878 0.878c0.485 0 0.878-0.395 0.878-0.878s-0.393-0.878-0.878-0.878z"></path>
<path fill="#d8dad8" d="M19.106 12.242l-0.357 0.308-2.14 2.089 2.489 2.149c0.039-0.014 0.066-0.052 0.066-0.096v0-4.357c0-0.039-0.025-0.073-0.057-0.092v0z"></path>
<path fill="#d8dad8" d="M13.49 12.796l-0.652-0.565h-0.032c-0.057 0-0.103 0.046-0.103 0.103v4.357c0 0.057 0.046 0.103 0.103 0.103h0.021l2.526-2.183-1.863-1.815z"></path>
<path fill="#909394" d="M20.276 7.084h-8.537c-0.395 0-0.716 0.407-0.716 0.9v13.207c0 0.494 0.322 0.9 0.716 0.9h8.537c0.393 0 0.716-0.404 0.716-0.9v-13.207c-0.002-0.492-0.324-0.9-0.716-0.9zM20.638 21.191c0 0.251-0.164 0.457-0.363 0.457h-8.537c-0.201 0-0.363-0.204-0.363-0.457v-13.207c0-0.251 0.164-0.457 0.363-0.457h8.537c0.201 0 0.363 0.204 0.363 0.457 0 0 0 13.207 0 13.207z"></path>
<path fill="#909394" d="M19.23 12.075h-6.583c-0.059 0-0.108 0.050-0.108 0.11v4.677c0 0.062 0.048 0.11 0.108 0.11h6.583c0.059 0 0.108-0.050 0.108-0.11v0-4.679c0-0.060-0.048-0.108-0.108-0.108zM19.163 16.692v0c0 0.043-0.027 0.080-0.066 0.096l0.009 0.007h-6.302c-0.057 0-0.103-0.046-0.103-0.103v-4.356c0-0.057 0.046-0.103 0.103-0.103h6.313l-0.012 0.011c0.034 0.018 0.059 0.052 0.059 0.091v4.357z"></path>
<path fill="#909394" d="M13.49 12.796l2.505 2.444 2.756-2.688-2.773 2.391-2.487-2.148z"></path>
<path fill="#fff" d="M20.276 7.527h-8.537c-0.201 0-0.363 0.204-0.363 0.457v13.207c0 0.251 0.164 0.457 0.363 0.457h8.537c0.201 0 0.363-0.204 0.363-0.457v-13.207c0-0.249-0.164-0.457-0.363-0.457zM19.337 16.859v0c0 0.062-0.048 0.11-0.108 0.11h-6.583c-0.059 0-0.108-0.050-0.108-0.11v-4.677c0-0.060 0.048-0.11 0.108-0.11h6.583c0.059 0 0.108 0.050 0.108 0.11v4.677z"></path>
<path fill="#fff" d="M16.608 14.638l-0.615 0.599-0.64-0.624-2.528 2.183h6.279l-0.009-0.007-2.487-2.151z"></path>
<path fill="#fff" d="M12.837 12.231l3.14 2.711 3.14-2.711h-0.057c0 0-6.222 0-6.222 0z"></path>
</svg>
