<?xml version="1.0" encoding="utf-8"?>
<!-- Generated by IcoMoon.io -->
<!DOCTYPE svg PUBLIC "-//W3C//DTD SVG 1.1//EN" "http://www.w3.org/Graphics/SVG/1.1/DTD/svg11.dtd">
<svg version="1.1" xmlns="http://www.w3.org/2000/svg" xmlns:xlink="http://www.w3.org/1999/xlink" width="32" height="32" viewBox="0 0 32 32">
<path fill="#1bb3b3" d="M21.989 1.365c-8.076-3.307-17.305 0.558-20.613 8.636s0.558 17.305 8.635 20.612c8.076 3.307 17.305-0.558 20.612-8.635s-0.558-17.305-8.635-20.612l0.002-0.002zM18.116 31.604l-1.285-1.447-3.87-4.373c-0.633-0.453-1.049-1.202-1.049-2.048 0-0.892 0.462-1.675 1.154-2.117l-1.673-1.022c-0.076-0.046-0.139-0.107-0.188-0.174-0.121-0.092-0.212-0.228-0.244-0.386l-2.142-10.476h-0.283v0.004c0 0.345-0.187 0.624-0.418 0.624h-3.049c-0.231 0-0.42-0.279-0.42-0.624v-1.616c0-0.26 0.187-0.469 0.42-0.469h3.049c0.231 0 0.418 0.21 0.418 0.469v0.309h0.814c0.309 0 0.576 0.217 0.638 0.521l0.434 2.123h15.739c0.203 0 0.393 0.094 0.517 0.254 0.053 0.069 0.091 0.148 0.112 0.231l1.353 1.509 3.604 4.032c-0.964 10.663-10.283 14.48-13.625 14.677h-0.005z"></path>
<path fill="#1bb3b3" d="M16.555 14.859h2.599v2.121h-2.599v-2.121z"></path>
<path fill="#29a9a6" opacity="0.8" d="M16.555 14.859h2.599v2.121h-2.599v-2.121z"></path>
<path fill="#1bb3b3" d="M13.305 14.859h2.599v2.121h-2.599v-2.121z"></path>
<path fill="#29a9a6" opacity="0.8" d="M13.305 14.859h2.599v2.121h-2.599v-2.121z"></path>
<path fill="#1bb3b3" d="M16.555 12.203h2.599v2.007h-2.599v-2.007z"></path>
<path fill="#29a9a6" opacity="0.8" d="M16.555 12.203h2.599v2.007h-2.599v-2.007z"></path>
<path fill="#1bb3b3" d="M11.66 16.981h0.994v-2.123h-1.428l0.434 2.123z"></path>
<path fill="#29a9a6" opacity="0.8" d="M11.66 16.981h0.994v-2.123h-1.428l0.434 2.123z"></path>
<path fill="#1bb3b3" d="M19.804 12.203h2.599v2.007h-2.599v-2.007z"></path>
<path fill="#29a9a6" opacity="0.8" d="M19.804 12.203h2.599v2.007h-2.599v-2.007z"></path>
<path fill="#1bb3b3" d="M12.654 12.203h-1.972l0.411 2.007h1.561v-2.007z"></path>
<path fill="#29a9a6" opacity="0.8" d="M12.654 12.203h-1.972l0.411 2.007h1.561v-2.007z"></path>
<path fill="#1bb3b3" d="M23.056 16.981h0.962l0.572-2.121h-1.534v2.121z"></path>
<path fill="#29a9a6" opacity="0.8" d="M23.056 16.981h0.962l0.572-2.121h-1.534v2.121z"></path>
<path fill="#1bb3b3" d="M13.305 12.203h2.599v2.007h-2.599v-2.007z"></path>
<path fill="#29a9a6" opacity="0.8" d="M13.305 12.203h2.599v2.007h-2.599v-2.007z"></path>
<path fill="#1bb3b3" d="M11.794 17.63l0.331 1.62h0.528v-1.62h-0.859z"></path>
<path fill="#29a9a6" opacity="0.8" d="M11.794 17.63l0.331 1.62h0.528v-1.62h-0.859z"></path>
<path fill="#1bb3b3" d="M23.056 17.63v1.62h0.35l0.437-1.62h-0.788z"></path>
<path fill="#29a9a6" opacity="0.8" d="M23.056 17.63v1.62h0.35l0.437-1.62h-0.788z"></path>
<path fill="#29a9a6" d="M28.137 12.894l-1.353-1.509c0.028 0.108 0.030 0.224 0 0.334l-2.252 8.354c-0.076 0.284-0.334 0.482-0.629 0.482h-1.545l1.687 1.029c0.057 0.034 0.103 0.078 0.146 0.124 0.615 0.455 1.017 1.191 1.017 2.025 0 1.38-1.1 2.503-2.453 2.503s-2.453-1.122-2.453-2.503c0-0.923 0.494-1.728 1.225-2.162l-1.6-0.978c-0.020-0.012-0.036-0.027-0.053-0.039h-6.052l1.33 0.812c0.967 0.336 1.666 1.269 1.666 2.366 0 1.38-1.1 2.503-2.453 2.503-0.523 0-1.006-0.169-1.404-0.453l5.156 5.82c3.342-0.197 12.661-4.016 13.625-14.677l-3.602-4.032z"></path>
<path fill="#1bb3b3" d="M23.056 12.203v2.007h1.708l0.54-2.007c0 0-2.249 0-2.249 0z"></path>
<path fill="#29a9a6" opacity="0.8" d="M23.056 12.203v2.007h1.708l0.54-2.007c0 0-2.249 0-2.249 0z"></path>
<path fill="#1bb3b3" d="M19.804 17.63h2.599v1.62h-2.599v-1.62z"></path>
<path fill="#29a9a6" opacity="0.8" d="M19.804 17.63h2.599v1.62h-2.599v-1.62z"></path>
<path fill="#1bb3b3" d="M16.555 17.63h2.599v1.62h-2.599v-1.62z"></path>
<path fill="#29a9a6" opacity="0.8" d="M16.555 17.63h2.599v1.62h-2.599v-1.62z"></path>
<path fill="#1bb3b3" d="M13.305 17.63h2.599v1.62h-2.599v-1.62z"></path>
<path fill="#29a9a6" opacity="0.8" d="M13.305 17.63h2.599v1.62h-2.599v-1.62z"></path>
<path fill="#1bb3b3" d="M19.804 14.859h2.599v2.121h-2.599v-2.121z"></path>
<path fill="#29a9a6" opacity="0.8" d="M19.804 14.859h2.599v2.121h-2.599v-2.121z"></path>
<path fill="#b35046" d="M8.112 9.351h-3.049c-0.231 0-0.42-0.21-0.42-0.469v0.677c0 0.345 0.187 0.624 0.42 0.624h3.049c0.231 0 0.418-0.279 0.418-0.624v-0.676c0 0.258-0.187 0.468-0.418 0.468z"></path>
<path fill="#d27661" d="M5.063 9.351h3.049c0.231 0 0.418-0.21 0.418-0.469v-0.935c0-0.26-0.187-0.469-0.418-0.469h-3.049c-0.231 0-0.42 0.21-0.42 0.469v0.937c0 0.258 0.187 0.468 0.42 0.468v0z"></path>
<path fill="#ddd" d="M14.363 21.232c0.276 0 0.54 0.050 0.789 0.135l-1.33-0.812h6.052c0.018 0.012 0.034 0.028 0.053 0.039l1.6 0.978c0.363-0.215 0.78-0.34 1.228-0.34 0.537 0 1.033 0.178 1.436 0.478-0.043-0.046-0.089-0.091-0.146-0.124l-1.687-1.029h1.545c0.295 0 0.551-0.197 0.629-0.482l2.252-8.354c0.030-0.112 0.028-0.226 0-0.334-0.021-0.082-0.059-0.162-0.112-0.231-0.123-0.16-0.315-0.254-0.517-0.254h-15.739l-0.434-2.123c-0.062-0.302-0.329-0.521-0.638-0.521h-0.814v1.301h0.283l2.142 10.476c0.032 0.158 0.123 0.293 0.244 0.386 0.050 0.068 0.112 0.128 0.188 0.174l1.673 1.022c0.379-0.242 0.823-0.386 1.301-0.386v0zM10.683 12.203h1.972v2.007h-1.561l-0.411-2.007zM24.016 16.981h-0.962v-2.123h1.534l-0.572 2.123zM15.904 12.203v2.007h-2.599v-2.007h2.599zM22.404 12.203v2.007h-2.599v-2.007h2.599zM19.154 14.21h-2.599v-2.007h2.599v2.007zM19.154 14.859v2.121h-2.599v-2.121h2.599zM15.904 14.859v2.121h-2.599v-2.121h2.599zM12.654 16.981h-0.994l-0.434-2.123h1.428v2.123zM12.124 19.253l-0.331-1.621h0.86v1.62h-0.53v0.002zM13.305 17.63h2.599v1.62h-2.599v-1.62zM16.555 17.63h2.599v1.62h-2.599v-1.62zM19.804 19.253v-1.621h2.599v1.62h-2.599zM19.804 16.981v-2.123h2.599v2.121c0 0-2.599 0-2.599 0.002zM23.056 14.21v-2.007h2.251l-0.54 2.007h-1.71zM23.056 19.253v-1.621h0.786l-0.437 1.62h-0.348v0.002z"></path>
<path fill="#676767" d="M16.818 23.735c0-1.099-0.699-2.030-1.666-2.366-0.249-0.087-0.512-0.135-0.789-0.135-0.478 0-0.923 0.142-1.301 0.384-0.692 0.443-1.154 1.225-1.154 2.117 0 0.848 0.416 1.596 1.049 2.048 0.398 0.284 0.882 0.453 1.404 0.453 1.353 0 2.453-1.122 2.453-2.503l0.004 0.002zM13.355 23.735c0-0.571 0.452-1.033 1.010-1.033s1.010 0.462 1.010 1.033-0.452 1.035-1.010 1.035-1.010-0.464-1.010-1.035z"></path>
<path fill="#676767" d="M21.525 21.572c-0.731 0.434-1.225 1.239-1.225 2.162 0 1.38 1.1 2.503 2.453 2.503s2.453-1.122 2.453-2.503c0-0.832-0.402-1.57-1.017-2.025-0.404-0.299-0.9-0.478-1.436-0.478-0.448-0.002-0.868 0.124-1.228 0.341v0zM22.754 24.768c-0.556 0-1.010-0.462-1.010-1.035s0.452-1.033 1.010-1.033 1.010 0.462 1.010 1.033-0.452 1.035-1.010 1.035z"></path>
<path fill="#fff" d="M14.363 24.768c0.558 0 1.010-0.462 1.010-1.035s-0.452-1.033-1.010-1.033-1.010 0.462-1.010 1.033 0.452 1.035 1.010 1.035zM14.66 23.735c0 0.167-0.133 0.304-0.297 0.304s-0.297-0.135-0.297-0.304c0-0.167 0.133-0.304 0.297-0.304s0.297 0.137 0.297 0.304z"></path>
<path fill="#fff" d="M22.754 22.7c-0.556 0-1.010 0.462-1.010 1.033s0.452 1.035 1.010 1.035 1.010-0.462 1.010-1.035c0-0.572-0.452-1.033-1.010-1.033zM22.754 24.037c-0.164 0-0.297-0.135-0.297-0.304s0.133-0.304 0.297-0.304 0.297 0.137 0.297 0.304-0.133 0.304-0.297 0.304z"></path>
<path fill="#c7c6c6" d="M14.66 23.735c0 0.167-0.133 0.304-0.297 0.304s-0.297-0.135-0.297-0.304c0-0.167 0.133-0.304 0.297-0.304s0.297 0.133 0.297 0.304z"></path>
<path fill="#c7c6c6" d="M23.051 23.735c0 0.167-0.133 0.304-0.297 0.304s-0.297-0.135-0.297-0.304c0-0.167 0.133-0.304 0.297-0.304s0.297 0.133 0.297 0.304z"></path>
</svg>
