<?xml version="1.0" encoding="utf-8"?>
<!-- Generated by IcoMoon.io -->
<!DOCTYPE svg PUBLIC "-//W3C//DTD SVG 1.1//EN" "http://www.w3.org/Graphics/SVG/1.1/DTD/svg11.dtd">
<svg version="1.1" xmlns="http://www.w3.org/2000/svg" xmlns:xlink="http://www.w3.org/1999/xlink" width="32" height="32" viewBox="0 0 32 32">
<path fill="#1bb3b3" d="M31.797 15.46c0.036 2.316-0.363 4.414-1.076 6.276 0.805-2.062 1.147-4.192 1.076-6.276z"></path>
<path fill="#1bb3b3" d="M15.024 29.877l-4.425-4.82c-0.318-0.22-0.526-0.587-0.526-1.004 0-0.453 0.247-0.846 0.613-1.058-1.582-1.444-2.576-3.524-2.576-5.835 0-2.439 1.106-4.62 2.844-6.068l-0.251-0.251-2.622 1.945c-1.074-1.449-0.974-3.404 0.13-4.732-0.082-0.135-0.13-0.292-0.13-0.459 0-0.491 0.398-0.887 0.889-0.887 0.26 0 0.492 0.112 0.654 0.288 1.595-0.699 3.513-0.242 4.599 1.209 0.004 0.007 0.007 0.011 0.011 0.012l-2.791 2.071 0.252 0.252c0.981-0.64 2.112-1.067 3.33-1.218 0-0.007-0.002-0.012-0.002-0.018 0-0.53 0.43-0.96 0.96-0.96s0.96 0.43 0.96 0.96c0 0.004 0 0.009 0 0.012 1.195 0.142 2.308 0.549 3.276 1.163l0.24-0.242-2.692-1.829c1.031-1.516 2.958-2.057 4.594-1.399 0.164-0.188 0.404-0.308 0.672-0.308 0.27 0 0.512 0.121 0.676 0.313v0l4.352 4.498 3.735 3.932c-0.21-6.021-3.87-11.652-9.808-14.084-8.076-3.307-17.305 0.558-20.613 8.635s0.558 17.305 8.635 20.612c2.272 0.93 4.636 1.292 6.933 1.154v0l-1.92-1.893v0.007z"></path>
<path fill="#29a9a6" d="M31.797 15.46c0-0.002 0-0.005 0-0.007l-3.735-3.932-4.352-4.498c0.132 0.155 0.213 0.356 0.213 0.576 0 0.158-0.041 0.306-0.114 0.434 1.134 1.282 1.303 3.214 0.297 4.693l-2.878-1.957-0.258 0.258c1.787 1.447 2.93 3.659 2.93 6.137 0 2.295-0.981 4.361-2.546 5.804 0.396 0.203 0.668 0.613 0.668 1.088 0 0.676-0.548 1.221-1.221 1.221-0.628 0-1.141-0.471-1.212-1.079-1.076 0.549-2.293 0.862-3.586 0.862-1.259 0-2.448-0.297-3.504-0.82-0.089 0.588-0.594 1.038-1.207 1.038-0.258 0-0.498-0.080-0.695-0.219l4.425 4.82 1.92 1.893c5.824-0.352 11.125-4.212 13.623-9.66 0.018-0.043 0.037-0.085 0.055-0.13 0.034-0.082 0.066-0.164 0.098-0.247 0.715-1.861 1.113-3.959 1.076-6.276h0.004z"></path>
<path fill="#b35046" d="M16.942 9.321c0-0.004 0-0.009 0-0.012 0-0.53-0.43-0.96-0.96-0.96s-0.96 0.43-0.96 0.96c0 0.007 0 0.012 0.002 0.018 0.322-0.039 0.647-0.062 0.98-0.062 0.318 0.002 0.631 0.023 0.939 0.057z"></path>
<path fill="#b35046" d="M23.035 6.709c-0.268 0-0.508 0.119-0.672 0.308 0.096 0.039 0.192 0.082 0.286 0.128 1.513 1.239 1.86 3.445 0.75 5.097l0.708 0.482c1.006-1.479 0.837-3.412-0.297-4.693 0.071-0.128 0.114-0.276 0.114-0.434 0-0.22-0.080-0.42-0.213-0.576-0.164-0.19-0.405-0.313-0.676-0.311v0z"></path>
<path fill="#b35046" d="M10.073 24.052c0 0.416 0.208 0.784 0.526 1.004 0.197 0.137 0.437 0.219 0.695 0.219 0.612 0 1.118-0.45 1.207-1.038-0.663-0.329-1.273-0.747-1.815-1.241-0.366 0.212-0.613 0.606-0.613 1.056v0z"></path>
<path fill="#b35046" d="M20.802 25.273c0.674 0 1.221-0.548 1.221-1.221 0-0.475-0.272-0.885-0.668-1.088-0.528 0.485-1.122 0.9-1.765 1.23 0.071 0.608 0.585 1.079 1.212 1.079z"></path>
<path fill="#a44344" d="M11.444 10.293l-0.74 0.549 0.251 0.251c0.236-0.199 0.484-0.38 0.743-0.548l-0.254-0.252z"></path>
<path fill="#a44344" d="M20.22 10.485c0.261 0.165 0.512 0.345 0.75 0.539l0.258-0.258-0.768-0.521-0.24 0.24z"></path>
<path fill="#b35046" d="M14.235 8.222c-0.004-0.005-0.007-0.009-0.011-0.012l-5.278 3.916c-1.14-1.534-0.955-3.637 0.341-4.96 0.11-0.062 0.222-0.117 0.336-0.167-0.162-0.178-0.395-0.288-0.654-0.288-0.491 0-0.889 0.396-0.889 0.887 0 0.169 0.048 0.325 0.13 0.459-1.104 1.328-1.205 3.284-0.13 4.732l6.155-4.567z"></path>
<path fill="#d27661" d="M8.946 12.123l5.278-3.916c-1.086-1.451-3.004-1.909-4.599-1.209-0.114 0.050-0.226 0.105-0.336 0.167-1.298 1.323-1.481 3.426-0.343 4.958v0z"></path>
<path fill="#d27661" d="M22.649 7.145c-0.094-0.048-0.19-0.089-0.286-0.128-1.636-0.658-3.561-0.119-4.594 1.399l5.628 3.828c1.111-1.652 0.763-3.858-0.75-5.097l0.002-0.002z"></path>
<path fill="#d27661" d="M16.942 9.321c-0.308-0.036-0.62-0.057-0.939-0.057-0.332 0-0.658 0.023-0.98 0.062-1.218 0.153-2.348 0.578-3.33 1.22-0.258 0.169-0.507 0.348-0.743 0.548-1.739 1.449-2.844 3.628-2.844 6.068 0 2.311 0.994 4.391 2.576 5.835 0.54 0.494 1.152 0.912 1.815 1.241 1.056 0.524 2.245 0.82 3.504 0.82 1.291 0 2.508-0.311 3.586-0.862 0.645-0.329 1.239-0.743 1.765-1.23 1.564-1.444 2.546-3.509 2.546-5.804 0-2.478-1.143-4.69-2.93-6.137-0.238-0.194-0.491-0.373-0.75-0.539-0.971-0.613-2.082-1.022-3.276-1.163v0zM22.713 17.262c0 3.712-3.008 6.72-6.72 6.72s-6.72-3.008-6.72-6.72 3.008-6.72 6.72-6.72 6.72 3.010 6.72 6.72z"></path>
<path fill="#b35046" d="M9.273 17.262c0 3.712 3.008 6.72 6.72 6.72s6.72-3.008 6.72-6.72-3.008-6.72-6.72-6.72-6.72 3.010-6.72 6.72zM22.276 17.262c0 3.468-2.812 6.281-6.281 6.281s-6.281-2.812-6.281-6.281 2.812-6.281 6.281-6.281 6.281 2.812 6.281 6.281z"></path>
<path fill="#fff" d="M11.086 16.839c-0.016-0.021-0.037-0.037-0.060-0.050s-0.050-0.018-0.076-0.018c-0.048 0-0.089 0.020-0.123 0.062s-0.050 0.096-0.050 0.164 0.016 0.119 0.050 0.16 0.076 0.060 0.126 0.060c0.032 0 0.062-0.007 0.091-0.025s0.052-0.041 0.069-0.071c0.018-0.032 0.027-0.069 0.027-0.112 0-0.034-0.005-0.066-0.014-0.094s-0.023-0.055-0.039-0.076v0z"></path>
<path fill="#fff" d="M16.167 21.982c-0.028-0.018-0.057-0.027-0.091-0.027-0.030 0-0.062 0.007-0.091 0.025s-0.052 0.041-0.069 0.073c-0.018 0.030-0.027 0.069-0.027 0.112 0 0.069 0.018 0.126 0.053 0.171s0.080 0.069 0.133 0.069c0.052 0 0.094-0.021 0.126-0.062s0.050-0.096 0.050-0.165c0-0.046-0.009-0.085-0.025-0.119s-0.037-0.059-0.064-0.076h0.004z"></path>
<path fill="#fff" d="M9.712 17.262c0 3.468 2.812 6.281 6.281 6.281s6.281-2.812 6.281-6.281-2.812-6.281-6.281-6.281-6.281 2.812-6.281 6.281zM10.766 17.723c-0.048-0.025-0.085-0.055-0.11-0.092s-0.037-0.075-0.037-0.11c0-0.021 0.009-0.041 0.023-0.057s0.036-0.025 0.060-0.025c0.023 0 0.043 0.005 0.060 0.018s0.032 0.032 0.041 0.055c0.011 0.032 0.030 0.055 0.055 0.075s0.055 0.027 0.087 0.027c0.028 0 0.057-0.007 0.082-0.023s0.048-0.036 0.066-0.062c0.037-0.053 0.059-0.149 0.066-0.288-0.034 0.039-0.071 0.069-0.112 0.089s-0.087 0.030-0.137 0.030c-0.048 0-0.092-0.011-0.133-0.028s-0.076-0.044-0.107-0.078-0.053-0.073-0.069-0.117-0.025-0.089-0.025-0.137c0-0.053 0.009-0.101 0.027-0.149s0.044-0.087 0.078-0.123c0.034-0.034 0.075-0.062 0.121-0.082s0.1-0.028 0.155-0.028c0.066 0 0.124 0.012 0.174 0.036s0.094 0.059 0.13 0.103 0.062 0.103 0.080 0.171 0.028 0.148 0.028 0.235c0 0.098-0.009 0.183-0.030 0.258s-0.048 0.137-0.087 0.187c-0.037 0.052-0.084 0.089-0.137 0.114s-0.112 0.036-0.18 0.036c-0.066 0-0.123-0.012-0.172-0.037l0.004 0.007zM11.458 19.925c-0.151 0-0.272-0.123-0.272-0.274s0.123-0.274 0.272-0.274 0.274 0.123 0.274 0.274-0.123 0.274-0.274 0.274zM13.328 21.835c-0.151 0-0.272-0.121-0.272-0.272s0.123-0.272 0.272-0.272c0.151 0 0.272 0.123 0.272 0.272s-0.123 0.272-0.272 0.272zM16.409 22.37c-0.032 0.059-0.078 0.105-0.137 0.137s-0.124 0.050-0.199 0.050c-0.085 0-0.158-0.020-0.22-0.062s-0.108-0.103-0.142-0.185c-0.032-0.082-0.050-0.181-0.050-0.299 0-0.096 0.011-0.181 0.030-0.258s0.048-0.139 0.085-0.188 0.082-0.087 0.135-0.112 0.112-0.037 0.18-0.037c0.066 0 0.123 0.012 0.172 0.037s0.087 0.057 0.112 0.094 0.037 0.075 0.037 0.108c0 0.020-0.007 0.039-0.023 0.057s-0.036 0.025-0.060 0.025c-0.021 0-0.041-0.007-0.060-0.021s-0.032-0.032-0.041-0.055c-0.012-0.030-0.030-0.055-0.055-0.073s-0.055-0.027-0.089-0.027c-0.027 0-0.053 0.007-0.080 0.023s-0.050 0.036-0.068 0.062c-0.037 0.053-0.059 0.149-0.066 0.288 0.036-0.041 0.073-0.071 0.112-0.091s0.085-0.030 0.137-0.030c0.048 0 0.092 0.009 0.133 0.027s0.076 0.044 0.107 0.076c0.030 0.034 0.055 0.073 0.071 0.117s0.025 0.092 0.025 0.142c0 0.071-0.016 0.137-0.046 0.194v0zM18.532 21.835c-0.151 0-0.272-0.121-0.272-0.272s0.123-0.272 0.272-0.272c0.151 0 0.272 0.123 0.272 0.272s-0.123 0.272-0.272 0.272zM21.010 16.62c0.048 0 0.094 0.007 0.135 0.021s0.076 0.032 0.107 0.059c0.030 0.025 0.052 0.055 0.068 0.087s0.023 0.071 0.023 0.108c0 0.052-0.011 0.094-0.034 0.132s-0.053 0.071-0.094 0.107c0.039 0.021 0.073 0.046 0.1 0.073s0.046 0.059 0.060 0.091c0.014 0.034 0.021 0.069 0.021 0.108 0 0.046-0.011 0.091-0.028 0.135s-0.046 0.082-0.082 0.116c-0.036 0.034-0.078 0.060-0.128 0.078s-0.105 0.028-0.164 0.028c-0.060 0-0.116-0.011-0.164-0.034s-0.087-0.050-0.119-0.082c-0.032-0.034-0.055-0.068-0.071-0.101s-0.023-0.064-0.023-0.087c0-0.028 0.009-0.053 0.028-0.071s0.043-0.027 0.071-0.027c0.014 0 0.028 0.005 0.041 0.012s0.021 0.018 0.027 0.030c0.027 0.071 0.055 0.123 0.085 0.156s0.073 0.052 0.128 0.052c0.030 0 0.062-0.007 0.091-0.023s0.053-0.039 0.073-0.069 0.028-0.066 0.028-0.107c0-0.059-0.016-0.105-0.048-0.14s-0.078-0.052-0.135-0.052c-0.011 0-0.027 0-0.046 0.004s-0.036 0.004-0.041 0.004c-0.028 0-0.050-0.007-0.066-0.021s-0.023-0.034-0.023-0.059c0-0.023 0.009-0.044 0.027-0.059s0.044-0.021 0.082-0.021h0.030c0.046 0 0.087-0.012 0.121-0.041s0.050-0.068 0.050-0.117c0-0.039-0.012-0.073-0.041-0.1s-0.062-0.043-0.108-0.043c-0.030 0-0.057 0.004-0.076 0.014s-0.036 0.020-0.048 0.034c-0.011 0.014-0.021 0.032-0.034 0.055s-0.020 0.043-0.028 0.062c-0.005 0.011-0.014 0.020-0.028 0.025s-0.028 0.011-0.046 0.011c-0.020 0-0.039-0.007-0.057-0.025s-0.025-0.039-0.025-0.066c0-0.027 0.007-0.053 0.023-0.084s0.039-0.057 0.071-0.084c0.030-0.027 0.069-0.048 0.114-0.064s0.096-0.025 0.155-0.027v0zM20.539 14.391c0.151 0 0.274 0.123 0.274 0.274s-0.123 0.272-0.274 0.272-0.274-0.121-0.274-0.272 0.123-0.274 0.274-0.274zM20.539 19.381c0.151 0 0.274 0.123 0.274 0.274s-0.123 0.274-0.274 0.274-0.274-0.123-0.274-0.274 0.123-0.274 0.274-0.274zM19.335 13.79c0.037 0.037 0.044 0.092 0.014 0.123l-2.857 2.857c0.025 0.037 0.046 0.078 0.062 0.119h2.697c0.064 0 0.116 0.094 0.116 0.212s-0.052 0.212-0.116 0.212h-2.684c-0.082 0.249-0.313 0.432-0.59 0.432-0.212 0-0.396-0.105-0.51-0.267l-4.261 1.684c-0.044 0.018-0.094 0-0.11-0.039s0.009-0.085 0.053-0.103l4.245-1.676c-0.027-0.069-0.043-0.144-0.043-0.224 0-0.345 0.279-0.624 0.624-0.624 0.144 0 0.276 0.052 0.38 0.133l2.853-2.853c0.030-0.030 0.085-0.023 0.123 0.014l0.004 0.002zM18.532 12.562c0.151 0 0.272 0.123 0.272 0.272s-0.123 0.274-0.272 0.274c-0.151 0-0.272-0.123-0.272-0.274s0.121-0.272 0.272-0.272zM16.508 12.142c-0.016-0.028-0.037-0.046-0.064-0.062s-0.055-0.021-0.087-0.021c-0.068 0-0.119 0.030-0.156 0.087-0.005 0.007-0.012 0.028-0.025 0.062s-0.025 0.060-0.041 0.078-0.037 0.027-0.066 0.027c-0.025 0-0.046-0.009-0.062-0.025s-0.025-0.039-0.025-0.069c0-0.036 0.007-0.071 0.023-0.11s0.039-0.073 0.071-0.103 0.071-0.055 0.119-0.075 0.105-0.028 0.169-0.028c0.078 0 0.144 0.012 0.199 0.037 0.036 0.016 0.068 0.037 0.094 0.068s0.048 0.062 0.062 0.1 0.023 0.076 0.023 0.116c0 0.062-0.016 0.119-0.046 0.171s-0.064 0.092-0.096 0.119c-0.032 0.032-0.087 0.075-0.164 0.137s-0.128 0.11-0.156 0.146c-0.012 0.014-0.025 0.030-0.039 0.050h0.398c0.039 0 0.069 0.007 0.091 0.025s0.032 0.039 0.032 0.066c0 0.025-0.009 0.046-0.025 0.062s-0.041 0.027-0.075 0.027h-0.56c-0.037 0-0.068-0.011-0.089-0.032s-0.032-0.046-0.032-0.075c0-0.018 0.007-0.043 0.020-0.073s0.028-0.053 0.044-0.071c0.068-0.071 0.128-0.13 0.183-0.18s0.092-0.084 0.117-0.1c0.041-0.030 0.076-0.059 0.103-0.089s0.050-0.060 0.064-0.091c0.014-0.030 0.021-0.062 0.021-0.092 0-0.032-0.009-0.062-0.023-0.087l-0.004 0.007zM15.088 12.238c0.016-0.012 0.044-0.028 0.085-0.048 0.060-0.028 0.11-0.059 0.148-0.091s0.069-0.068 0.098-0.107c0.028-0.039 0.046-0.064 0.055-0.073s0.025-0.014 0.048-0.014c0.027 0 0.048 0.011 0.064 0.032s0.025 0.050 0.025 0.085v0.871c0 0.101-0.036 0.153-0.105 0.153-0.030 0-0.055-0.011-0.075-0.032s-0.028-0.052-0.028-0.092v-0.692c-0.13 0.1-0.215 0.149-0.26 0.149-0.021 0-0.041-0.009-0.057-0.027s-0.025-0.036-0.025-0.059c0-0.025 0.009-0.044 0.027-0.057v0zM13.328 12.562c0.151 0 0.272 0.123 0.272 0.272s-0.123 0.274-0.272 0.274c-0.151 0-0.272-0.123-0.272-0.274s0.123-0.272 0.272-0.272zM11.732 14.663c0 0.151-0.123 0.272-0.274 0.272s-0.272-0.121-0.272-0.272 0.123-0.274 0.272-0.274 0.274 0.123 0.274 0.274z"></path>
<path fill="#676767" d="M15.145 12.38c0.044 0 0.132-0.050 0.26-0.149v0.692c0 0.041 0.009 0.071 0.028 0.092s0.044 0.032 0.075 0.032c0.069 0 0.105-0.052 0.105-0.153v-0.871c0-0.036-0.007-0.066-0.025-0.085s-0.037-0.034-0.064-0.034c-0.023 0-0.041 0.005-0.048 0.014s-0.027 0.036-0.055 0.075-0.060 0.075-0.098 0.107-0.087 0.062-0.148 0.091c-0.041 0.020-0.069 0.036-0.085 0.048s-0.025 0.032-0.025 0.057c0 0.021 0.009 0.041 0.025 0.059s0.036 0.027 0.055 0.027v0z"></path>
<path fill="#676767" d="M16.446 12.411c-0.027 0.030-0.062 0.059-0.103 0.089-0.023 0.016-0.062 0.050-0.117 0.1s-0.116 0.11-0.183 0.18c-0.016 0.018-0.032 0.041-0.044 0.071s-0.020 0.055-0.020 0.073c0 0.028 0.011 0.053 0.032 0.075s0.052 0.032 0.089 0.032h0.56c0.034 0 0.059-0.009 0.075-0.027s0.025-0.039 0.025-0.062c0-0.028-0.011-0.050-0.032-0.066s-0.052-0.025-0.091-0.025h-0.398c0.012-0.020 0.025-0.036 0.039-0.050 0.028-0.036 0.080-0.084 0.156-0.146s0.132-0.108 0.164-0.137c0.032-0.030 0.064-0.068 0.096-0.119s0.046-0.108 0.046-0.171c0-0.041-0.007-0.078-0.023-0.116s-0.036-0.069-0.062-0.098c-0.027-0.028-0.059-0.052-0.094-0.068-0.055-0.025-0.121-0.037-0.199-0.037-0.064 0-0.121 0.009-0.169 0.028s-0.087 0.044-0.119 0.075c-0.030 0.030-0.055 0.064-0.071 0.101s-0.023 0.075-0.023 0.112c0 0.028 0.009 0.052 0.025 0.069s0.037 0.025 0.062 0.025c0.028 0 0.052-0.009 0.066-0.027s0.028-0.046 0.041-0.080 0.021-0.055 0.025-0.062c0.039-0.059 0.091-0.087 0.156-0.087 0.032 0 0.060 0.007 0.087 0.021s0.048 0.034 0.064 0.060c0.014 0.025 0.023 0.055 0.023 0.087 0 0.030-0.007 0.060-0.021 0.092s-0.036 0.060-0.064 0.091l0.004-0.005z"></path>
<path fill="#676767" d="M16.361 21.915c-0.030-0.034-0.066-0.059-0.107-0.076s-0.085-0.025-0.133-0.025c-0.050 0-0.096 0.011-0.137 0.030s-0.078 0.050-0.112 0.091c0.007-0.139 0.028-0.235 0.066-0.288 0.018-0.027 0.041-0.048 0.068-0.062s0.053-0.023 0.080-0.023c0.034 0 0.062 0.009 0.089 0.027s0.044 0.043 0.055 0.073c0.009 0.025 0.021 0.043 0.041 0.055s0.037 0.021 0.060 0.021c0.025 0 0.044-0.009 0.060-0.025s0.023-0.037 0.023-0.057c0-0.034-0.012-0.071-0.037-0.108s-0.062-0.069-0.112-0.094-0.107-0.037-0.172-0.037c-0.068 0-0.128 0.012-0.18 0.037s-0.098 0.064-0.135 0.112c-0.037 0.050-0.066 0.112-0.085 0.188s-0.030 0.16-0.030 0.258c0 0.117 0.016 0.217 0.050 0.299s0.080 0.142 0.142 0.185 0.135 0.062 0.22 0.062c0.075 0 0.14-0.016 0.199-0.050s0.105-0.078 0.137-0.137c0.034-0.057 0.050-0.123 0.050-0.194 0-0.048-0.009-0.096-0.025-0.142s-0.039-0.085-0.071-0.117l-0.004-0.002zM16.204 22.345c-0.034 0.041-0.076 0.062-0.126 0.062-0.053 0-0.098-0.023-0.133-0.069s-0.053-0.103-0.053-0.171c0-0.043 0.009-0.080 0.027-0.112s0.041-0.057 0.069-0.073c0.028-0.018 0.059-0.025 0.091-0.025 0.034 0 0.064 0.009 0.091 0.027s0.048 0.043 0.064 0.076 0.025 0.073 0.025 0.119c0 0.069-0.018 0.124-0.053 0.165v0z"></path>
<path fill="#676767" d="M20.67 16.793c-0.016 0.028-0.023 0.057-0.023 0.084s0.009 0.050 0.025 0.066c0.018 0.016 0.036 0.025 0.057 0.025 0.018 0 0.032-0.004 0.046-0.009s0.021-0.014 0.028-0.025c0.009-0.020 0.018-0.041 0.028-0.062s0.021-0.041 0.034-0.055 0.028-0.025 0.048-0.034 0.044-0.014 0.076-0.014c0.046 0 0.082 0.014 0.108 0.043s0.041 0.060 0.041 0.1c0 0.052-0.018 0.091-0.050 0.117s-0.075 0.041-0.121 0.041h-0.030c-0.036 0-0.064 0.007-0.082 0.021s-0.027 0.036-0.027 0.059c0 0.025 0.007 0.044 0.023 0.059s0.037 0.021 0.066 0.021c0.007 0 0.020-0.002 0.041-0.004s0.037-0.004 0.046-0.004c0.059 0 0.103 0.016 0.135 0.052s0.048 0.080 0.048 0.14c0 0.039-0.009 0.076-0.028 0.107s-0.044 0.053-0.073 0.069c-0.030 0.014-0.060 0.023-0.091 0.023-0.055 0-0.098-0.018-0.128-0.052s-0.059-0.085-0.085-0.156c-0.004-0.012-0.012-0.021-0.027-0.030s-0.027-0.012-0.041-0.012c-0.028 0-0.052 0.009-0.071 0.027s-0.028 0.043-0.028 0.071c0 0.023 0.007 0.052 0.023 0.087s0.039 0.069 0.071 0.101c0.030 0.032 0.071 0.060 0.119 0.082s0.103 0.034 0.164 0.034 0.114-0.011 0.164-0.028 0.092-0.044 0.128-0.078c0.036-0.034 0.062-0.073 0.082-0.116s0.028-0.087 0.028-0.135c0-0.039-0.007-0.075-0.021-0.108s-0.034-0.064-0.060-0.091c-0.027-0.027-0.060-0.052-0.1-0.073 0.041-0.034 0.073-0.069 0.094-0.107s0.034-0.080 0.034-0.132c0-0.037-0.007-0.075-0.023-0.108s-0.037-0.062-0.068-0.087c-0.030-0.027-0.066-0.044-0.107-0.059s-0.085-0.021-0.135-0.021c-0.057 0-0.107 0.009-0.153 0.025s-0.084 0.037-0.114 0.064c-0.030 0.027-0.053 0.053-0.073 0.084v0z"></path>
<path fill="#676767" d="M11.253 17.611c0.037-0.050 0.066-0.114 0.087-0.187s0.030-0.16 0.030-0.258c0-0.087-0.009-0.165-0.028-0.235s-0.046-0.126-0.080-0.169c-0.036-0.044-0.078-0.080-0.13-0.103s-0.11-0.036-0.174-0.036c-0.057 0-0.108 0.011-0.155 0.028s-0.087 0.044-0.121 0.080c-0.034 0.034-0.060 0.075-0.078 0.123s-0.027 0.096-0.027 0.149c0 0.048 0.007 0.094 0.025 0.139s0.039 0.084 0.069 0.117c0.030 0.034 0.066 0.059 0.107 0.078s0.085 0.028 0.133 0.028c0.050 0 0.096-0.011 0.137-0.030s0.078-0.050 0.112-0.089c-0.007 0.137-0.028 0.233-0.066 0.288-0.018 0.027-0.041 0.048-0.066 0.062s-0.053 0.023-0.082 0.023c-0.032 0-0.062-0.009-0.087-0.027s-0.044-0.043-0.055-0.075c-0.009-0.025-0.023-0.044-0.041-0.055s-0.037-0.018-0.060-0.018c-0.025 0-0.044 0.007-0.060 0.025s-0.023 0.036-0.023 0.057c0 0.036 0.012 0.071 0.037 0.108s0.062 0.069 0.11 0.094 0.107 0.037 0.172 0.037 0.126-0.012 0.18-0.036c0.053-0.025 0.098-0.062 0.137-0.114l-0.004-0.009zM11.115 17.124c-0.018 0.030-0.041 0.055-0.069 0.071s-0.059 0.025-0.091 0.025c-0.052 0-0.094-0.020-0.126-0.060s-0.050-0.096-0.050-0.162c0-0.068 0.016-0.123 0.050-0.164s0.075-0.062 0.123-0.062c0.028 0 0.053 0.005 0.076 0.018s0.044 0.028 0.060 0.050c0.018 0.021 0.030 0.048 0.039 0.076s0.014 0.060 0.014 0.094c0 0.043-0.009 0.080-0.027 0.114v0z"></path>
<path fill="#676767" d="M15.979 16.494c-0.345 0-0.624 0.279-0.624 0.624 0 0.078 0.016 0.155 0.043 0.224l-4.245 1.676c-0.044 0.018-0.069 0.064-0.053 0.103s0.064 0.055 0.11 0.039l4.261-1.684c0.112 0.16 0.299 0.267 0.51 0.267 0.277 0 0.508-0.181 0.59-0.432h2.684c0.064 0 0.116-0.096 0.116-0.212s-0.052-0.212-0.116-0.212h-2.697c-0.018-0.043-0.037-0.082-0.062-0.119l2.857-2.857c0.030-0.030 0.023-0.085-0.014-0.123s-0.092-0.044-0.123-0.014l-2.853 2.853c-0.105-0.082-0.236-0.133-0.38-0.133l-0.004-0.002z"></path>
<path fill="#676767" d="M13.602 12.834c0 0.151-0.123 0.272-0.272 0.272s-0.272-0.124-0.272-0.272c0-0.151 0.123-0.272 0.272-0.272s0.272 0.123 0.272 0.272z"></path>
<path fill="#676767" d="M11.732 14.663c0 0.151-0.123 0.272-0.272 0.272s-0.272-0.123-0.272-0.272c0-0.151 0.123-0.272 0.272-0.272s0.272 0.124 0.272 0.272z"></path>
<path fill="#676767" d="M11.732 19.653c0 0.151-0.123 0.274-0.274 0.274s-0.274-0.123-0.274-0.274 0.123-0.274 0.274-0.274 0.274 0.123 0.274 0.274z"></path>
<path fill="#676767" d="M13.602 21.561c0 0.151-0.123 0.272-0.272 0.272s-0.272-0.123-0.272-0.272c0-0.151 0.123-0.272 0.272-0.272s0.272 0.124 0.272 0.272z"></path>
<path fill="#676767" d="M18.804 21.561c0 0.151-0.123 0.272-0.272 0.272s-0.272-0.123-0.272-0.272c0-0.151 0.123-0.272 0.272-0.272s0.272 0.124 0.272 0.272z"></path>
<path fill="#676767" d="M20.811 19.653c0 0.151-0.123 0.274-0.274 0.274s-0.274-0.123-0.274-0.274 0.123-0.274 0.274-0.274 0.274 0.123 0.274 0.274z"></path>
<path fill="#676767" d="M20.811 14.663c0 0.151-0.123 0.274-0.274 0.274s-0.274-0.123-0.274-0.274 0.123-0.274 0.274-0.274 0.274 0.123 0.274 0.274z"></path>
<path fill="#676767" d="M18.804 12.834c0 0.151-0.123 0.272-0.272 0.272s-0.272-0.123-0.272-0.272c0-0.151 0.123-0.272 0.272-0.272s0.272 0.123 0.272 0.272z"></path>
</svg>
