<?xml version="1.0" encoding="utf-8"?>
<!-- Generated by IcoMoon.io -->
<!DOCTYPE svg PUBLIC "-//W3C//DTD SVG 1.1//EN" "http://www.w3.org/Graphics/SVG/1.1/DTD/svg11.dtd">
<svg version="1.1" xmlns="http://www.w3.org/2000/svg" xmlns:xlink="http://www.w3.org/1999/xlink" width="32" height="32" viewBox="0 0 32 32">
<path fill="#1bb3b3" d="M21.989 1.365c-8.076-3.307-17.305 0.558-20.613 8.635s0.558 17.305 8.635 20.612c2.048 0.839 4.171 1.216 6.251 1.18l-1.762-2.027-3.986-4.732c-0.128-0.105-0.236-0.233-0.318-0.379-0.407-0.231-0.681-0.667-0.681-1.168v-9.276c0-0.741 0.601-1.342 1.344-1.342h1.36v-5.132c0-0.741 0.601-1.342 1.344-1.342h5.052c0.501 0 0.937 0.276 1.168 0.681 0.213 0.121 0.389 0.297 0.508 0.51l2.876 2.597 8.537 7.584c0.779-6.848-3.024-13.657-9.717-16.398l0.002-0.002z"></path>
<path fill="#1bb3b3" d="M30.523 22.217c-0.686 1.515-1.684 3.141-3.022 4.615 1.239-1.314 2.272-2.862 3.022-4.615z"></path>
<path fill="#29a9a6" opacity="0.8" d="M30.523 22.217c0.805-1.78 1.184-3.406 1.184-4.453-0.16 1.415-0.517 2.83-1.083 4.213-0.032 0.080-0.068 0.16-0.101 0.24v0z"></path>
<path fill="#29a9a6" opacity="0.8" d="M16.263 31.796l0.004 0.004c5.067 0 8.743-2.219 11.236-4.964-2.923 3.099-6.994 4.889-11.239 4.96v0z"></path>
<path fill="#1bb3b3" d="M23.17 10.181l-2.876-2.597c0.108 0.194 0.172 0.418 0.172 0.656v4.628h0.855c0.501 0 0.937 0.276 1.168 0.681 0.407 0.231 0.681 0.667 0.681 1.168v9.278c0 0.741-0.601 1.342-1.342 1.342h-10.462c-0.322 0-0.619-0.114-0.85-0.302l3.986 4.732 1.762 2.027c4.244-0.073 8.316-1.863 11.237-4.96 1.339-1.474 2.336-3.1 3.022-4.615 0.034-0.080 0.069-0.158 0.101-0.238 0.567-1.383 0.923-2.798 1.083-4.213v0l-8.537-7.586z"></path>
<path fill="#29a9a6" opacity="0.8" d="M23.17 10.181l-2.876-2.597c0.108 0.194 0.172 0.418 0.172 0.656v4.628h0.855c0.501 0 0.937 0.276 1.168 0.681 0.407 0.231 0.681 0.667 0.681 1.168v9.278c0 0.741-0.601 1.342-1.342 1.342h-10.462c-0.322 0-0.619-0.114-0.85-0.302l3.986 4.732 1.762 2.027c4.244-0.073 8.316-1.863 11.237-4.96 1.339-1.474 2.336-3.1 3.022-4.615 0.034-0.080 0.069-0.158 0.101-0.238 0.567-1.383 0.923-2.798 1.083-4.213v0l-8.537-7.586z"></path>
<path fill="#1bb3b3" d="M18.889 8.089c-0.124-0.055-0.263-0.087-0.411-0.087h-3.765c-0.553 0-1.001 0.443-1.001 0.988v3.876h5.259v-4.379c0-0.14-0.030-0.274-0.084-0.396l0.002-0.002z"></path>
<path fill="#29a9a6" opacity="0.8" d="M18.889 8.089c-0.124-0.055-0.263-0.087-0.411-0.087h-3.765c-0.553 0-1.001 0.443-1.001 0.988v3.876h5.259v-4.379c0-0.14-0.030-0.274-0.084-0.396l0.002-0.002z"></path>
<path fill="#257f7c" d="M19.961 12.868h0.505v-4.628c0-0.238-0.062-0.462-0.172-0.656-0.119-0.213-0.297-0.389-0.508-0.51 0.11 0.196 0.176 0.421 0.176 0.661 0 0 0 5.132 0 5.132z"></path>
<path fill="#257f7c" d="M22.489 13.547c0.112 0.196 0.176 0.421 0.176 0.661v9.278c0 0.741-0.601 1.342-1.342 1.342h-10.462c-0.242 0-0.468-0.064-0.663-0.176 0.082 0.144 0.19 0.274 0.318 0.379 0.231 0.188 0.528 0.302 0.85 0.302h10.462c0.741 0 1.342-0.601 1.342-1.342v-9.278c0-0.5-0.276-0.937-0.681-1.166v0z"></path>
<path fill="#257f7c" d="M13.714 8.99c0-0.546 0.448-0.988 1.001-0.988h3.765c0.146 0 0.284 0.032 0.411 0.087-0.155-0.348-0.507-0.594-0.916-0.594h-3.765c-0.553 0-1.001 0.443-1.001 0.988v4.38h0.505v-3.874z"></path>
<path fill="#fff" d="M18.617 6.391h-5.052c-0.743 0-1.344 0.601-1.344 1.342v5.132h0.988v-4.379c0-0.546 0.448-0.988 1.001-0.988h3.765c0.409 0 0.761 0.244 0.916 0.594 0.053 0.121 0.084 0.254 0.084 0.396v4.38h0.988v-5.134c0-0.24-0.064-0.466-0.176-0.661-0.231-0.407-0.667-0.681-1.17-0.683v0z"></path>
<path fill="#fff" d="M9.516 14.21v9.278c0 0.5 0.274 0.937 0.681 1.168 0.196 0.112 0.421 0.176 0.663 0.176h1.36v-11.964h-1.36c-0.743 0-1.344 0.601-1.344 1.342z"></path>
<path fill="#fff" d="M22.489 13.547c-0.231-0.407-0.667-0.681-1.168-0.681h-1.292v11.964h1.292c0.741 0 1.342-0.601 1.342-1.342v-9.278c0-0.242-0.064-0.466-0.174-0.663v0z"></path>
<path fill="#e0e1e0" d="M20.028 24.832v-11.964h-7.81v11.964h7.81zM14.985 17.938c0-0.61 0.496-1.106 1.106-1.106s1.106 0.496 1.106 1.106c0 0.411-0.235 0.754-0.565 0.946l0.565 1.986h-2.212l0.565-1.986c-0.331-0.192-0.565-0.533-0.565-0.946z"></path>
<path fill="#6e6a69" d="M17.196 20.869l-0.565-1.986c0.331-0.19 0.565-0.533 0.565-0.946 0-0.61-0.496-1.106-1.106-1.106s-1.106 0.496-1.106 1.106c0 0.411 0.235 0.754 0.565 0.946l-0.565 1.986h2.212z"></path>
</svg>
