<?xml version="1.0" encoding="utf-8"?>
<!-- Generated by IcoMoon.io -->
<!DOCTYPE svg PUBLIC "-//W3C//DTD SVG 1.1//EN" "http://www.w3.org/Graphics/SVG/1.1/DTD/svg11.dtd">
<svg version="1.1" xmlns="http://www.w3.org/2000/svg" xmlns:xlink="http://www.w3.org/1999/xlink" width="32" height="32" viewBox="0 0 32 32">
<path fill="#1bb3b3" d="M29.159 24.818c-0.444 0.661-0.951 1.319-1.529 1.948 0.555-0.603 1.067-1.253 1.529-1.948z"></path>
<path fill="#1bb3b3" d="M27.495 26.914c-0.028 0.030-0.057 0.062-0.087 0.092 0.028-0.030 0.057-0.062 0.087-0.092z"></path>
<path fill="#1bb3b3" d="M22.597 30.425c-1.947 0.875-4.252 1.422-6.96 1.444 2.42 0.053 4.8-0.453 6.96-1.444z"></path>
<path fill="#1bb3b3" d="M7.39 22.357c-0.011-0.011-0.020-0.021-0.027-0.032v0c-0.034-0.046-0.055-0.103-0.055-0.164v-11.726c0-0.153 0.123-0.277 0.276-0.277h16.99l0.459 0.51c0.046 0.028 0.082 0.068 0.105 0.117l2.972 3.298 3.596 3.758c0.777-6.85-3.024-13.657-9.717-16.398-8.076-3.308-17.305 0.556-20.613 8.633s0.558 17.305 8.635 20.612c1.781 0.729 3.618 1.109 5.435 1.173l-1.758-2.023-6.297-7.481z"></path>
<path fill="#1bb3b3" d="M24.542 10.19l0.028-0.032-0.034 0.028c0.002-0.002 0.004 0.002 0.005 0.004v0z"></path>
<path fill="#29a9a6" opacity="0.8" d="M29.159 24.818c1.796-2.677 2.548-5.447 2.548-6.978-0.16 1.415-0.517 2.83-1.083 4.213-0.404 0.987-0.896 1.909-1.465 2.764z"></path>
<path fill="#29a9a6" opacity="0.8" d="M27.41 27.006c-1.385 1.444-3.024 2.597-4.812 3.419 1.95-0.876 3.54-2.084 4.812-3.419z"></path>
<path fill="#29a9a6" opacity="0.8" d="M15.452 31.87c0.062 0 0.123-0.002 0.185-0.002-0.064-0.002-0.128-0.004-0.192-0.005l0.007 0.007z"></path>
<path fill="#29a9a6" opacity="0.8" d="M27.632 26.768c-0.044 0.048-0.091 0.096-0.135 0.144 0.044-0.048 0.091-0.094 0.135-0.144z"></path>
<path fill="#1bb3b3" d="M27.41 27.006c0.028-0.030 0.059-0.062 0.087-0.092 0.046-0.048 0.091-0.096 0.135-0.144 0.576-0.631 1.084-1.287 1.529-1.948 0.567-0.855 1.061-1.778 1.465-2.764 0.567-1.383 0.923-2.798 1.083-4.213v0l-3.596-3.758-2.972-3.298c0.018 0.036 0.027 0.076 0.027 0.119v11.728c0 0.153-0.123 0.276-0.276 0.276h-16.836c-0.153 0-0.276-0.123-0.276-0.276v-0.192h-0.196c-0.075 0-0.144-0.030-0.192-0.080l6.299 7.481 1.758 2.023c0.064 0.002 0.128 0.004 0.192 0.005 2.708-0.021 5.013-0.569 6.96-1.444 1.788-0.821 3.426-1.975 4.812-3.419l-0.004-0.004z"></path>
<path fill="#29a9a6" opacity="0.8" d="M27.41 27.006c0.028-0.030 0.059-0.062 0.087-0.092 0.046-0.048 0.091-0.096 0.135-0.144 0.576-0.631 1.084-1.287 1.529-1.948 0.567-0.855 1.061-1.778 1.465-2.764 0.567-1.383 0.923-2.798 1.083-4.213v0l-3.596-3.758-2.972-3.298c0.018 0.036 0.027 0.076 0.027 0.119v11.728c0 0.153-0.123 0.276-0.276 0.276h-16.836c-0.153 0-0.276-0.123-0.276-0.276v-0.192h-0.196c-0.075 0-0.144-0.030-0.192-0.080l6.299 7.481 1.758 2.023c0.064 0.002 0.128 0.004 0.192 0.005 2.708-0.021 5.013-0.569 6.96-1.444 1.788-0.821 3.426-1.975 4.812-3.419l-0.004-0.004z"></path>
<path fill="#1bb3b3" d="M24.693 10.436v0.192h0.196c0.052 0 0.101 0.016 0.142 0.041l-0.459-0.51-0.028 0.032c0.089 0.046 0.151 0.135 0.149 0.245v0z"></path>
<path fill="#29a9a6" opacity="0.8" d="M24.693 10.436v0.192h0.196c0.052 0 0.101 0.016 0.142 0.041l-0.459-0.51-0.028 0.032c0.089 0.046 0.151 0.135 0.149 0.245v0z"></path>
<path fill="#257f7c" d="M25.031 10.668c-0.041-0.027-0.091-0.043-0.142-0.043h-0.196v11.534c0 0.117-0.073 0.217-0.176 0.258l0.023 0.020h-16.763v0.192c0 0.153 0.123 0.276 0.276 0.276h16.836c0.151 0 0.276-0.123 0.276-0.276v-11.726c0-0.043-0.011-0.082-0.027-0.119-0.023-0.048-0.060-0.089-0.107-0.116v0z"></path>
<path fill="#e0e1e0" d="M24.542 10.19c-0.002 0-0.004-0.002-0.005-0.002l-0.958 0.827-5.762 5.621 6.699 5.783c0.103-0.041 0.176-0.139 0.176-0.258v-11.728c0-0.107-0.062-0.199-0.151-0.245l0.002 0.002z"></path>
<path fill="#e0e1e0" d="M7.671 10.158h-0.089c-0.153 0-0.276 0.123-0.276 0.277v11.728c0 0.062 0.021 0.119 0.055 0.164v0c0.009 0.011 0.018 0.023 0.027 0.032 0.050 0.050 0.117 0.080 0.192 0.080h0.057l6.802-5.872-5.019-4.898-1.749-1.511z"></path>
<path fill="#9b9795" d="M16.121 17.454l-6.699-5.785 6.743 6.58 7.415-7.234-7.46 6.439z"></path>
<path fill="#fff" d="M17.819 16.636l-1.653 1.612-1.724-1.682-6.802 5.872h16.9l-0.023-0.020-6.697-5.783z"></path>
<path fill="#fff" d="M16.121 17.454l8.45-7.296h-16.9l1.751 1.509 6.699 5.787z"></path>
</svg>
