<?xml version="1.0" encoding="utf-8"?>
<!-- Generated by IcoMoon.io -->
<!DOCTYPE svg PUBLIC "-//W3C//DTD SVG 1.1//EN" "http://www.w3.org/Graphics/SVG/1.1/DTD/svg11.dtd">
<svg version="1.1" xmlns="http://www.w3.org/2000/svg" xmlns:xlink="http://www.w3.org/1999/xlink" width="32" height="32" viewBox="0 0 32 32">
<path fill="#1bb4b3" d="M31.486 19.573c-0.014 0.060-0.028 0.121-0.043 0.181 0.014-0.062 0.028-0.123 0.043-0.181z"></path>
<path fill="#1bb4b3" d="M31.307 20.284c-0.016 0.060-0.034 0.121-0.052 0.18 0.018-0.060 0.034-0.117 0.052-0.18z"></path>
<path fill="#1bb4b3" d="M19.497 31.495c-0.537 0.119-1.083 0.21-1.637 0.272 0.555-0.062 1.102-0.155 1.637-0.272z"></path>
<path fill="#1bb4b3" d="M31.204 20.638c-0.018 0.059-0.036 0.117-0.053 0.176 0.018-0.059 0.036-0.116 0.053-0.176z"></path>
<path fill="#1bb4b3" d="M31.093 20.994c-0.018 0.057-0.037 0.114-0.055 0.171 0.020-0.057 0.037-0.114 0.055-0.171z"></path>
<path fill="#1bb4b3" d="M29.605 24.231c-0.034 0.055-0.068 0.108-0.101 0.164 0.034-0.055 0.068-0.108 0.101-0.164z"></path>
<path fill="#1bb4b3" d="M31.564 19.211c-0.012 0.060-0.025 0.121-0.039 0.181 0.012-0.062 0.027-0.123 0.039-0.181z"></path>
<path fill="#1bb4b3" d="M17.801 31.772c-0.096 0.011-0.192 0.020-0.29 0.028 0.096-0.007 0.194-0.016 0.29-0.028z"></path>
<path fill="#1bb4b3" d="M17.072 31.835c-0.098 0.005-0.196 0.012-0.293 0.018 0.098-0.005 0.196-0.009 0.293-0.018z"></path>
<path fill="#1bb4b3" d="M31.401 19.931c-0.016 0.060-0.030 0.121-0.046 0.181 0.016-0.062 0.032-0.123 0.046-0.181z"></path>
<path fill="#1bb4b3" d="M30.204 23.147c-0.028 0.055-0.057 0.112-0.085 0.167 0.028-0.055 0.057-0.112 0.085-0.167z"></path>
<path fill="#1bb4b3" d="M30.039 23.465c-0.030 0.055-0.059 0.11-0.089 0.165 0.030-0.055 0.059-0.11 0.089-0.165z"></path>
<path fill="#1bb4b3" d="M30.363 22.821c-0.027 0.057-0.053 0.112-0.082 0.169 0.027-0.057 0.053-0.112 0.082-0.169z"></path>
<path fill="#1bb4b3" d="M29.867 23.785c-0.057 0.101-0.114 0.201-0.172 0.3 0.059-0.1 0.116-0.199 0.172-0.3z"></path>
<path fill="#1bb4b3" d="M30.658 22.162c-0.023 0.057-0.048 0.114-0.073 0.171 0.025-0.055 0.050-0.112 0.073-0.171z"></path>
<path fill="#1bb4b3" d="M30.793 21.828c-0.021 0.057-0.046 0.114-0.068 0.169 0.023-0.057 0.046-0.114 0.068-0.169z"></path>
<path fill="#1bb4b3" d="M30.967 21.364c-0.034 0.094-0.068 0.188-0.103 0.281 0.036-0.092 0.069-0.187 0.103-0.281z"></path>
<path fill="#1bb4b3" d="M30.514 22.494c-0.025 0.057-0.052 0.114-0.076 0.169 0.027-0.057 0.052-0.114 0.076-0.169z"></path>
<path fill="#1bb4b3" d="M17.435 31.81c-0.096 0.009-0.19 0.016-0.286 0.021 0.096-0.009 0.192-0.016 0.286-0.021z"></path>
<path fill="#1bb4b3" d="M27.321 27.166c-0.050 0.050-0.1 0.1-0.149 0.149 0.050-0.050 0.1-0.1 0.149-0.149z"></path>
<path fill="#1bb4b3" d="M25.024 29.092c-0.064 0.044-0.13 0.089-0.196 0.132 0.066-0.043 0.13-0.087 0.196-0.132z"></path>
<path fill="#1bb4b3" d="M24.738 29.284c-0.069 0.044-0.137 0.091-0.206 0.133 0.069-0.044 0.139-0.089 0.206-0.133z"></path>
<path fill="#1bb4b3" d="M24.464 29.458c-0.345 0.215-0.697 0.42-1.058 0.608 0.361-0.19 0.715-0.393 1.058-0.608z"></path>
<path fill="#1bb4b3" d="M25.593 28.679c-0.062 0.046-0.124 0.092-0.187 0.139 0.062-0.046 0.124-0.092 0.187-0.139z"></path>
<path fill="#1bb4b3" d="M26.821 27.65c-0.055 0.052-0.108 0.101-0.165 0.151 0.055-0.050 0.11-0.101 0.165-0.151z"></path>
<path fill="#1bb4b3" d="M27.072 27.413c-0.052 0.050-0.103 0.1-0.155 0.149 0.052-0.050 0.103-0.1 0.155-0.149z"></path>
<path fill="#1bb4b3" d="M26.576 27.872c-0.21 0.187-0.425 0.368-0.645 0.544 0.22-0.176 0.436-0.357 0.645-0.544z"></path>
<path fill="#1bb4b3" d="M25.874 28.464c-0.062 0.050-0.126 0.1-0.19 0.148 0.064-0.050 0.128-0.098 0.19-0.148z"></path>
<path fill="#1bb4b3" d="M22.708 30.412c-0.078 0.036-0.155 0.071-0.233 0.107 0.078-0.037 0.156-0.069 0.233-0.107z"></path>
<path fill="#1bb4b3" d="M20.508 31.236c-0.087 0.025-0.176 0.050-0.265 0.075 0.089-0.025 0.176-0.048 0.265-0.075z"></path>
<path fill="#1bb4b3" d="M20.852 31.131c-0.091 0.028-0.181 0.057-0.274 0.084 0.091-0.025 0.183-0.053 0.274-0.084z"></path>
<path fill="#1bb4b3" d="M20.165 31.333c-0.089 0.023-0.178 0.046-0.267 0.069 0.089-0.021 0.178-0.044 0.267-0.069z"></path>
<path fill="#1bb4b3" d="M22.092 30.679c-0.395 0.164-0.798 0.309-1.207 0.441 0.411-0.132 0.812-0.277 1.207-0.441z"></path>
<path fill="#1bb4b3" d="M23.342 30.1c-0.076 0.039-0.155 0.078-0.233 0.117 0.078-0.037 0.155-0.078 0.233-0.117z"></path>
<path fill="#1bb4b3" d="M23.026 30.26c-0.076 0.037-0.153 0.075-0.229 0.11 0.076-0.036 0.153-0.073 0.229-0.11z"></path>
<path fill="#1bb4b3" d="M19.824 31.42c-0.092 0.023-0.185 0.044-0.277 0.066 0.092-0.021 0.185-0.043 0.277-0.066z"></path>
<path fill="#1bb4b3" d="M22.393 30.551c-0.082 0.036-0.164 0.071-0.247 0.105 0.084-0.032 0.165-0.069 0.247-0.105z"></path>
<path fill="#1bb4b3" d="M25.31 28.889c-0.062 0.044-0.126 0.089-0.188 0.133 0.064-0.044 0.126-0.089 0.188-0.133z"></path>
<path fill="#1bb4b3" d="M7.991 24.484c-0.224-0.132-0.364-0.27-0.452-0.396l-0.078-0.069c-0.041-0.032-0.076-0.064-0.11-0.096v0 0c-0.032-0.030-0.059-0.060-0.084-0.091-0.004-0.004-0.007-0.007-0.009-0.011-0.023-0.028-0.043-0.055-0.060-0.084-0.004-0.005-0.005-0.009-0.009-0.014-0.016-0.027-0.032-0.052-0.044-0.076-0.002-0.004-0.004-0.007-0.005-0.011-0.012-0.025-0.023-0.050-0.032-0.073 0 0 0 0 0-0.002-0.009-0.023-0.014-0.044-0.020-0.064-0.002-0.004-0.002-0.007-0.002-0.009-0.005-0.018-0.007-0.036-0.011-0.050 0-0.004-0.002-0.007-0.002-0.009-0.002-0.014-0.004-0.027-0.004-0.037 0-0.002 0-0.004 0-0.005 0-0.011 0-0.020 0-0.025l0.005-0.043c0.016-0.057 0.030-0.117 0.044-0.183 0.201-0.987 0.137-2.953 0.137-2.974-0.055-0.848-0.4-2.348-0.53-2.892-0.011-0.043-0.020-0.078-0.027-0.108-0.014-0.060-0.023-0.094-0.023-0.096-0.37-0.923-0.533-2.276-0.54-2.334-0.011-0.126-0.021-0.249-0.030-0.373-0.002-0.030-0.005-0.064-0.007-0.098-0.007-0.101-0.014-0.206-0.020-0.308-0.002-0.020-0.002-0.039-0.004-0.059-0.007-0.119-0.012-0.236-0.018-0.354-0.002-0.027-0.002-0.053-0.004-0.080-0.004-0.094-0.007-0.188-0.009-0.281 0-0.027-0.002-0.053-0.002-0.080-0.004-0.112-0.005-0.222-0.007-0.331 0-0.018 0-0.034 0-0.052-0.002-0.092-0.002-0.185-0.002-0.276 0-0.027 0-0.055 0-0.082 0-0.101 0.002-0.203 0.002-0.3 0-0.002 0-0.004 0-0.005 0.002-0.101 0.004-0.199 0.007-0.297 0-0.025 0.002-0.048 0.002-0.073 0.002-0.080 0.005-0.16 0.007-0.238 0-0.016 0.002-0.030 0.002-0.046 0.004-0.092 0.007-0.181 0.012-0.268 0.002-0.018 0.002-0.034 0.004-0.050 0.004-0.073 0.007-0.146 0.012-0.215 0.002-0.016 0.002-0.032 0.004-0.048 0.005-0.082 0.011-0.164 0.016-0.24 0-0.004 0-0.007 0-0.009 0.005-0.075 0.011-0.148 0.016-0.217 0.002-0.011 0.002-0.021 0.004-0.032 0.012-0.148 0.025-0.283 0.037-0.405v-0.002c0.007-0.062 0.012-0.123 0.020-0.178v0c0-0.005 0.002-0.011 0.002-0.016 0.039-0.348 0.071-0.546 0.073-0.553l0.023-0.137h5.406l0.974-4.087h3.993l5.538 5.138c0.036-0.002 0.069-0.002 0.105 0 0.26-0.018 0.523 0.059 0.734 0.226 0.176-0.347 0.535-0.588 0.949-0.588h0.041c0.012 0 0.023 0.002 0.034 0.004 0.018 0 0.034-0.004 0.052-0.004h0.041c0.391 0 0.734 0.213 0.921 0.53 0.066 0.039 0.126 0.084 0.181 0.135 0.1 0.028 0.196 0.073 0.283 0.132 0.11-0.032 0.226-0.044 0.34-0.039 0.309-0.021 0.626 0.089 0.853 0.331l0.028 0.030c0.052 0.055 0.096 0.114 0.133 0.176 0.078 0.048 0.151 0.103 0.217 0.172l0.028 0.030c0.096 0.101 0.165 0.217 0.213 0.338l4.466 4.466c0 0.025 0.002 0.050 0.002 0.075 0 0.921-0.080 1.822-0.231 2.7l0.053 0.050c-0.011 0.057-0.021 0.114-0.032 0.171 0.181-0.956 0.277-1.943 0.277-2.953 0-8.727-7.076-15.803-15.803-15.803s-15.803 7.076-15.803 15.803 7.076 15.804 15.803 15.804c0.215 0 0.43-0.005 0.644-0.014-0.105 0.004-0.21 0.007-0.315 0.011l-8.412-7.378z"></path>
<path fill="#1bb4b3" d="M28.389 25.968c-0.16 0.197-0.324 0.393-0.492 0.583 0.169-0.192 0.332-0.384 0.492-0.583z"></path>
<path fill="#1bb4b3" d="M27.808 26.651c-0.048 0.052-0.094 0.103-0.142 0.155 0.048-0.052 0.096-0.103 0.142-0.155z"></path>
<path fill="#1bb4b3" d="M29.417 24.537c-0.034 0.053-0.069 0.108-0.105 0.162 0.036-0.055 0.071-0.107 0.105-0.162z"></path>
<path fill="#1bb4b3" d="M27.566 26.912c-0.048 0.052-0.096 0.101-0.144 0.151 0.048-0.050 0.098-0.1 0.144-0.151z"></path>
<path fill="#1bb4b3" d="M28.601 25.698c-0.041 0.053-0.082 0.107-0.123 0.16 0.041-0.053 0.082-0.105 0.123-0.16z"></path>
<path fill="#1bb4b3" d="M29.221 24.834c-0.036 0.053-0.073 0.107-0.108 0.16 0.037-0.053 0.073-0.105 0.108-0.16z"></path>
<path fill="#1bb4b3" d="M29.020 25.131c-0.037 0.053-0.075 0.107-0.112 0.158 0.037-0.053 0.075-0.105 0.112-0.158z"></path>
<path fill="#1bb4b3" d="M28.812 25.419c-0.039 0.053-0.078 0.107-0.117 0.158 0.039-0.053 0.078-0.105 0.117-0.158z"></path>
<path fill="#1ba39c" d="M27.422 27.063c0.048-0.050 0.098-0.1 0.144-0.151 0.032-0.036 0.066-0.069 0.098-0.105 0.048-0.052 0.096-0.103 0.142-0.155 0.030-0.034 0.060-0.068 0.089-0.101 0.169-0.19 0.332-0.384 0.492-0.583 0.030-0.036 0.059-0.073 0.087-0.108 0.041-0.053 0.082-0.107 0.123-0.16 0.032-0.041 0.064-0.082 0.094-0.123 0.039-0.052 0.078-0.105 0.117-0.158 0.032-0.043 0.062-0.085 0.094-0.13 0.037-0.053 0.075-0.105 0.112-0.158 0.030-0.044 0.062-0.089 0.092-0.133 0.037-0.053 0.073-0.107 0.108-0.16 0.030-0.046 0.060-0.091 0.091-0.137 0.036-0.053 0.071-0.107 0.105-0.162 0.030-0.046 0.059-0.094 0.087-0.14 0.034-0.053 0.068-0.108 0.101-0.164 0.030-0.050 0.059-0.1 0.089-0.149 0.059-0.1 0.116-0.199 0.172-0.3 0.028-0.052 0.057-0.101 0.085-0.153 0.030-0.055 0.059-0.11 0.089-0.165 0.027-0.052 0.053-0.101 0.080-0.153 0.028-0.055 0.057-0.112 0.085-0.167 0.027-0.052 0.052-0.103 0.076-0.155 0.027-0.055 0.053-0.112 0.082-0.169 0.025-0.053 0.050-0.105 0.075-0.158 0.027-0.057 0.052-0.112 0.076-0.169 0.023-0.053 0.048-0.107 0.071-0.162 0.025-0.057 0.050-0.114 0.073-0.171 0.023-0.055 0.046-0.11 0.068-0.167s0.046-0.112 0.068-0.169c0.023-0.060 0.046-0.123 0.069-0.185 0.036-0.092 0.069-0.187 0.103-0.281 0.023-0.066 0.048-0.133 0.069-0.199 0.020-0.057 0.037-0.114 0.055-0.171 0.020-0.059 0.039-0.117 0.057-0.176s0.036-0.117 0.053-0.176c0.018-0.057 0.036-0.116 0.052-0.174 0.018-0.060 0.034-0.119 0.052-0.18 0.016-0.059 0.032-0.116 0.046-0.174 0.016-0.060 0.032-0.121 0.046-0.181 0.014-0.059 0.028-0.117 0.043-0.176s0.028-0.121 0.043-0.181 0.027-0.121 0.039-0.181 0.027-0.121 0.039-0.181c0.012-0.064 0.025-0.128 0.037-0.192 0.011-0.057 0.021-0.114 0.032-0.171l-0.053-0.050c0.151-0.878 0.231-1.78 0.231-2.7 0-0.025 0-0.050-0.002-0.075l-4.466-4.466c0.020 0.052 0.036 0.103 0.048 0.156 0.124 0.055 0.242 0.135 0.341 0.24l0.028 0.030c0.052 0.053 0.096 0.112 0.133 0.174 0.078 0.048 0.151 0.105 0.217 0.174l0.028 0.030c0.322 0.341 0.373 0.843 0.164 1.237 0.082 0.149 0.13 0.322 0.13 0.503l-2.187 9.248v0.1h-4.926c0.007 0.048 0.011 0.096 0.011 0.146v0.041c0 0.587-0.48 1.067-1.068 1.067h-0.041c-0.379 0-0.711-0.199-0.901-0.498-0.19 0.299-0.523 0.498-0.901 0.498h-0.041c-0.389 0-0.732-0.213-0.917-0.526-0.176-0.103-0.32-0.256-0.412-0.439-0.1-0.080-0.181-0.178-0.247-0.286-0.316-0.185-0.532-0.53-0.532-0.921v-0.041c0-0.587 0.48-1.068 1.068-1.068h0.041c0.171 0 0.331 0.041 0.475 0.114 0.181-0.144 0.411-0.229 0.658-0.229h0.041c0.132 0 0.258 0.025 0.375 0.069l-1.81-7.652c0-0.35 0.174-0.66 0.441-0.853-0.233-0.416-0.165-0.956 0.196-1.298l0.030-0.028c0.196-0.185 0.446-0.281 0.697-0.29 0.037-0.22 0.142-0.43 0.316-0.594l0.030-0.028c0.322-0.304 0.786-0.368 1.168-0.199 0.052-0.096 0.119-0.187 0.204-0.267l0.028-0.027c0.427-0.404 1.106-0.384 1.511 0.043l0.028 0.030c0.011 0.011 0.020 0.023 0.030 0.036 0.153-0.096 0.324-0.151 0.496-0.162-0.036-0.002-0.069-0.002-0.105 0l-5.538-5.138v0.324h0.324v0.692h-3.433l-0.087 0.395-0.005-0.002-0.631 2.679h1.212l0.023 0.137c0 0.004 0.011 0.069 0.027 0.188h0.274l0.023 0.137c0.004 0.023 0.396 2.416 0.119 5.556-0.007 0.062-0.172 1.415-0.549 2.359 0.002 0-0.505 2.034-0.572 3.081 0 0.018-0.073 2.254 0.181 3.154l0.007 0.041c0.002 0.124-0.069 1.223-3.079 1.335h-0.012c-1.296-0.048-2.044-0.279-2.48-0.537l8.412 7.38c0.105-0.002 0.21-0.005 0.315-0.011 0.020 0 0.039-0.002 0.059-0.002 0.098-0.004 0.196-0.009 0.293-0.016 0.025-0.002 0.052-0.004 0.076-0.005 0.096-0.007 0.192-0.014 0.286-0.021 0.025-0.002 0.052-0.005 0.076-0.007 0.096-0.009 0.194-0.018 0.29-0.028 0.020-0.002 0.039-0.005 0.059-0.007 0.555-0.062 1.102-0.153 1.637-0.272 0.016-0.004 0.032-0.007 0.050-0.011 0.092-0.021 0.185-0.043 0.277-0.066 0.025-0.005 0.050-0.012 0.075-0.018 0.089-0.021 0.178-0.044 0.267-0.069 0.027-0.007 0.053-0.014 0.080-0.021 0.089-0.025 0.176-0.048 0.265-0.075 0.023-0.007 0.046-0.014 0.071-0.021 0.091-0.027 0.183-0.055 0.274-0.084 0.011-0.004 0.021-0.007 0.032-0.011 0.411-0.132 0.812-0.279 1.207-0.441 0.018-0.007 0.036-0.014 0.053-0.021 0.084-0.034 0.165-0.069 0.247-0.105 0.027-0.012 0.053-0.023 0.082-0.036 0.078-0.036 0.156-0.069 0.233-0.107 0.030-0.014 0.059-0.027 0.089-0.041 0.076-0.036 0.153-0.073 0.229-0.11 0.028-0.014 0.055-0.028 0.084-0.041 0.078-0.039 0.155-0.078 0.233-0.117 0.021-0.011 0.043-0.023 0.066-0.034 0.361-0.19 0.715-0.393 1.058-0.608 0.021-0.014 0.044-0.027 0.068-0.041 0.069-0.044 0.139-0.089 0.206-0.133 0.030-0.020 0.060-0.039 0.091-0.060 0.066-0.044 0.13-0.087 0.196-0.132 0.032-0.023 0.064-0.044 0.098-0.068 0.064-0.044 0.126-0.089 0.188-0.133 0.032-0.023 0.064-0.048 0.098-0.071 0.062-0.046 0.124-0.092 0.187-0.139 0.030-0.023 0.059-0.046 0.089-0.068 0.064-0.050 0.128-0.098 0.19-0.148 0.020-0.016 0.039-0.030 0.057-0.046 0.22-0.176 0.436-0.357 0.645-0.544 0.027-0.023 0.053-0.046 0.080-0.071 0.055-0.050 0.11-0.101 0.165-0.151 0.032-0.030 0.064-0.060 0.096-0.089 0.052-0.050 0.103-0.1 0.155-0.149 0.034-0.032 0.068-0.066 0.101-0.098 0.050-0.050 0.1-0.1 0.149-0.149 0.034-0.034 0.068-0.068 0.101-0.101l0.004-0.007z"></path>
<path fill="#1ba39c" d="M6.044 11.76c0-0.025 0.002-0.048 0.002-0.073 0 0.023-0.002 0.048-0.002 0.073z"></path>
<path fill="#1ba39c" d="M6.082 10.871c0.002-0.016 0.002-0.032 0.004-0.050-0.002 0.016-0.002 0.032-0.004 0.050z"></path>
<path fill="#1ba39c" d="M6.068 11.136c0.002-0.018 0.002-0.034 0.004-0.050-0.002 0.016-0.002 0.034-0.004 0.050z"></path>
<path fill="#1ba39c" d="M6.053 11.451c0-0.016 0.002-0.030 0.002-0.046 0 0.014-0.002 0.030-0.002 0.046z"></path>
<path fill="#1ba39c" d="M7.255 20.162c-0.055-0.848-0.4-2.348-0.53-2.892 0.13 0.544 0.475 2.044 0.53 2.892 0 0.021 0.066 1.988-0.137 2.974 0.203-0.987 0.137-2.953 0.137-2.974z"></path>
<path fill="#1ba39c" d="M6.119 10.356c0.002-0.011 0.002-0.021 0.004-0.032-0.002 0.011-0.002 0.023-0.004 0.032z"></path>
<path fill="#1ba39c" d="M6.276 9.035v0z"></path>
<path fill="#1ba39c" d="M7.46 24.020l0.078 0.069c-0.005-0.007-0.009-0.014-0.014-0.020-0.023-0.016-0.044-0.034-0.064-0.050v0z"></path>
<path fill="#1ba39c" d="M6.178 9.739v0c0-0.005 0.002-0.011 0.002-0.016 0 0.007-0.002 0.011-0.002 0.016z"></path>
<path fill="#1ba39c" d="M7.088 23.5c-0.002-0.004-0.002-0.007-0.002-0.009 0 0.004 0.002 0.007 0.002 0.009z"></path>
<path fill="#1ba39c" d="M7.076 23.438c0-0.004-0.002-0.007-0.002-0.009 0 0.005 0.002 0.009 0.002 0.009z"></path>
<path fill="#1ba39c" d="M7.145 23.644c-0.002-0.004-0.004-0.007-0.005-0.011 0.002 0.004 0.004 0.007 0.005 0.011z"></path>
<path fill="#1ba39c" d="M7.268 23.829c-0.004-0.004-0.007-0.007-0.009-0.011 0.004 0.004 0.007 0.007 0.009 0.011z"></path>
<path fill="#1ba39c" d="M6.046 13.182c0-0.027-0.002-0.053-0.002-0.080 0 0.027 0.002 0.053 0.002 0.080z"></path>
<path fill="#1ba39c" d="M6.725 17.269c-0.011-0.043-0.020-0.078-0.027-0.108 0.007 0.030 0.016 0.066 0.027 0.108z"></path>
<path fill="#1ba39c" d="M6.059 13.541c-0.002-0.028-0.002-0.053-0.004-0.080 0.002 0.027 0.002 0.052 0.004 0.080z"></path>
<path fill="#1ba39c" d="M6.105 14.359c-0.002-0.032-0.005-0.066-0.007-0.1 0.002 0.032 0.005 0.066 0.007 0.1z"></path>
<path fill="#1ba39c" d="M6.078 13.954c-0.002-0.020-0.002-0.039-0.004-0.059 0.002 0.020 0.002 0.039 0.004 0.059z"></path>
<path fill="#1ba39c" d="M7.196 23.735c-0.004-0.005-0.005-0.009-0.009-0.014 0.004 0.007 0.005 0.009 0.009 0.014z"></path>
<path fill="#1ba39c" d="M24.053 9.726c-0.012 0-0.023-0.004-0.034-0.004h-0.041c-0.414 0-0.773 0.242-0.949 0.588 0.030 0.023 0.060 0.050 0.087 0.078 0.153-0.373 0.514-0.642 0.937-0.663z"></path>
<path fill="#1ba39c" d="M25.868 10.482c-0.114-0.005-0.228 0.009-0.34 0.039 0.012 0.009 0.027 0.018 0.039 0.027 0.098-0.037 0.199-0.059 0.3-0.066z"></path>
<path fill="#108981" d="M27.102 11.189c-0.066-0.069-0.139-0.124-0.217-0.172 0.114 0.187 0.165 0.4 0.155 0.61 0.121 0.009 0.24 0.037 0.352 0.087-0.012-0.053-0.028-0.105-0.048-0.156-0.048-0.123-0.119-0.238-0.213-0.338 0 0-0.028-0.030-0.028-0.030z"></path>
<path fill="#108981" d="M25.246 10.389c-0.055-0.052-0.116-0.096-0.181-0.135 0.020 0.034 0.039 0.069 0.055 0.105 0.043 0.007 0.085 0.016 0.126 0.028v0.002z"></path>
<path fill="#108981" d="M25.863 13.618v0c-0.002 0.007-0.002 0.014 0 0.021 0-0.007 0-0.014 0-0.021v0z"></path>
<path fill="#108981" d="M23.689 13.531c-0.014-0.007-0.027-0.014-0.041-0.020 0.014 0.069 0.021 0.14 0.021 0.213 0-0.064 0.007-0.132 0.020-0.194z"></path>
<path fill="#108981" d="M19.307 13.609c0.004 0.039 0.007 0.076 0.007 0.117 0-0.039 0.002-0.076 0.007-0.116-0.005 0.002-0.009-0.002-0.014-0.002z"></path>
<path fill="#108981" d="M27.925 13.223c0.084 0.149 0.13 0.322 0.13 0.503l-2.187 9.248v0.1h-4.926c0.007 0.048 0.011 0.096 0.011 0.146v0.041c0 0.587-0.48 1.067-1.068 1.067h-0.041c-0.379 0-0.711-0.199-0.901-0.498-0.19 0.299-0.523 0.498-0.901 0.498h-0.041c-0.197 0-0.38-0.055-0.539-0.148 0.187 0.315 0.528 0.526 0.917 0.526h0.041c0.379 0 0.711-0.199 0.901-0.498 0.19 0.299 0.523 0.498 0.901 0.498h0.041c0.588 0 1.068-0.48 1.068-1.067v-0.041c0-0.050-0.004-0.098-0.011-0.146h4.926v-0.1l0.299-1.262 0.059-0.249 1.829-7.735c0-0.181-0.048-0.354-0.13-0.503 0.21-0.395 0.158-0.896-0.164-1.237l-0.028-0.030c-0.066-0.069-0.139-0.128-0.217-0.174 0.199 0.324 0.208 0.732 0.030 1.061v0z"></path>
<path fill="#108981" d="M16.802 23.452c0.066 0.108 0.149 0.206 0.247 0.286-0.034-0.066-0.060-0.135-0.078-0.206-0.059-0.020-0.116-0.048-0.169-0.080z"></path>
<path fill="#ffd702" d="M20.364 10.708c0.007 0.009 0.014 0.018 0.023 0.027 0.318-0.044 0.652 0.055 0.896 0.293 0.032-0.231 0.14-0.453 0.322-0.624l0.030-0.028c0.052-0.048 0.105-0.091 0.164-0.126-0.011-0.011-0.020-0.023-0.030-0.036l-0.028-0.030c-0.404-0.427-1.083-0.446-1.511-0.043l-0.028 0.027c-0.084 0.080-0.151 0.171-0.204 0.267 0.126 0.055 0.242 0.135 0.341 0.242l0.027 0.032z"></path>
<path fill="#fdf3cc" d="M21.634 10.373l-0.030 0.028c-0.181 0.172-0.29 0.393-0.322 0.624 0.011 0.009 0.020 0.018 0.030 0.028l0.028 0.030c0.101 0.107 0.176 0.231 0.224 0.361 0.137 0.021 0.272 0.069 0.393 0.144 0.194-0.247 0.492-0.405 0.828-0.409 0.036-0.050 0.076-0.096 0.123-0.139l0.030-0.028c0.032-0.032 0.068-0.059 0.103-0.085-0.004-0.032-0.005-0.062-0.005-0.094v-0.039c0-0.142 0.028-0.277 0.080-0.402-0.028-0.028-0.057-0.053-0.087-0.078-0.213-0.167-0.476-0.244-0.734-0.226-0.174 0.012-0.345 0.066-0.496 0.162-0.057 0.036-0.112 0.078-0.164 0.126l-0.002-0.004z"></path>
<path fill="#fdf3cc" d="M19.164 11.476c0.084-0.021 0.172-0.034 0.263-0.034h0.041c0.014 0 0.027 0.002 0.041 0.002 0.055-0.148 0.142-0.286 0.265-0.402l0.030-0.028c0.167-0.158 0.372-0.251 0.585-0.279-0.007-0.009-0.014-0.018-0.023-0.027l-0.027-0.030c-0.1-0.105-0.217-0.187-0.341-0.242-0.382-0.169-0.846-0.105-1.168 0.199l-0.030 0.028c-0.174 0.164-0.279 0.375-0.316 0.594 0.242-0.007 0.484 0.064 0.681 0.219v0z"></path>
<path fill="#ffed99" d="M23.115 10.389c-0.052 0.124-0.080 0.26-0.080 0.402v0.041c0 0.032 0.002 0.064 0.005 0.094 0.299-0.219 0.686-0.261 1.020-0.132 0.036-0.046 0.075-0.092 0.117-0.133l0.030-0.028c0.252-0.238 0.592-0.327 0.912-0.274-0.016-0.036-0.036-0.071-0.055-0.105-0.187-0.316-0.53-0.53-0.921-0.53h-0.041c-0.018 0-0.034 0.002-0.052 0.004-0.423 0.020-0.784 0.288-0.937 0.661v0z"></path>
<path fill="#fdf3cc" d="M26.885 12.13c0.044 0.117 0.071 0.245 0.071 0.377v0.041c0 0.037-0.002 0.073-0.005 0.11 0.002 0 0.005 0 0.007 0 0.42 0 0.782 0.228 0.969 0.564 0.176-0.332 0.169-0.74-0.030-1.063-0.037-0.060-0.082-0.119-0.133-0.174l-0.028-0.030c-0.1-0.105-0.215-0.185-0.341-0.24-0.112-0.050-0.231-0.078-0.352-0.087-0.009 0.178-0.060 0.35-0.156 0.503v0z"></path>
<path fill="#ffd702" d="M18.215 12.658c0.052 0 0.101 0.005 0.151 0.011-0.005-0.039-0.007-0.080-0.007-0.121v-0.041c0-0.496 0.345-0.916 0.805-1.033-0.199-0.155-0.441-0.226-0.683-0.217-0.252 0.009-0.501 0.103-0.697 0.29l-0.030 0.028c-0.361 0.341-0.428 0.882-0.196 1.298 0.183-0.135 0.411-0.215 0.656-0.215v0z"></path>
<path fill="#ffd702" d="M25.717 10.677l0.028 0.030c0.197 0.208 0.293 0.476 0.29 0.745 0.389 0.055 0.713 0.322 0.848 0.679 0.094-0.155 0.146-0.327 0.155-0.503 0.011-0.212-0.041-0.425-0.155-0.61-0.037-0.062-0.082-0.121-0.133-0.176l-0.028-0.030c-0.228-0.242-0.544-0.352-0.853-0.331-0.103 0.007-0.204 0.028-0.3 0.066 0.053 0.037 0.103 0.080 0.149 0.13v0z"></path>
<path fill="#ffe151" d="M22.837 11.18c0.32 0 0.608 0.144 0.804 0.368 0.066-0.034 0.135-0.060 0.206-0.078-0.007-0.238 0.066-0.476 0.213-0.672-0.334-0.13-0.722-0.087-1.020 0.132-0.036 0.027-0.071 0.053-0.103 0.085l-0.030 0.028c-0.046 0.043-0.085 0.091-0.123 0.139 0.004 0 0.007 0 0.011 0h0.041l0.002-0.002z"></path>
<path fill="#ffed99" d="M22.204 11.794c0.228 0.24 0.32 0.562 0.283 0.868 0.028-0.002 0.057-0.004 0.085-0.004 0.174 0 0.34 0.041 0.485 0.11-0.082-0.357 0.020-0.748 0.304-1.017l0.028-0.028c0.076-0.073 0.162-0.13 0.251-0.176-0.196-0.226-0.484-0.368-0.804-0.368h-0.041c-0.004 0-0.007 0-0.011 0-0.336 0.004-0.635 0.164-0.828 0.409 0.078 0.048 0.153 0.107 0.219 0.176l0.028 0.030z"></path>
<path fill="#fdf3cc" d="M24.208 10.633l-0.030 0.028c-0.044 0.041-0.082 0.087-0.117 0.133-0.149 0.197-0.22 0.436-0.213 0.672 0.368-0.098 0.777 0.002 1.054 0.297l0.028 0.030c0.023 0.025 0.044 0.050 0.064 0.075 0.196-0.26 0.505-0.43 0.853-0.43h0.041c0.050 0 0.1 0.005 0.149 0.012 0.004-0.267-0.092-0.537-0.29-0.745l-0.028-0.030c-0.046-0.050-0.098-0.092-0.149-0.132-0.012-0.009-0.025-0.018-0.039-0.027-0.089-0.059-0.185-0.101-0.283-0.132-0.041-0.012-0.084-0.021-0.126-0.028-0.32-0.053-0.66 0.036-0.912 0.274l-0.002 0.002z"></path>
<path fill="#ffe151" d="M20.425 12.037c0.053-0.105 0.124-0.201 0.213-0.286l0.030-0.028c0.249-0.235 0.581-0.325 0.898-0.277-0.048-0.132-0.123-0.254-0.224-0.361l-0.028-0.032c-0.009-0.011-0.020-0.020-0.030-0.028-0.244-0.238-0.578-0.338-0.896-0.293-0.212 0.030-0.418 0.123-0.585 0.279l-0.030 0.028c-0.123 0.116-0.21 0.254-0.265 0.402 0.402 0.016 0.747 0.254 0.916 0.596l0.002 0.002z"></path>
<path fill="#ffed99" d="M20.315 12.661c-0.027-0.213 0.011-0.432 0.11-0.626-0.169-0.341-0.514-0.58-0.916-0.596-0.014 0-0.027-0.002-0.041-0.002h-0.041c-0.091 0-0.178 0.012-0.263 0.034-0.46 0.117-0.805 0.537-0.805 1.033v0.041c0 0.041 0.004 0.082 0.007 0.121 0.496 0.066 0.885 0.453 0.94 0.94 0.005 0 0.009 0.002 0.014 0.002 0.055-0.505 0.473-0.903 0.994-0.948z"></path>
<path fill="#ffed99" d="M26.036 11.451c-0.048-0.007-0.098-0.012-0.149-0.012h-0.041c-0.348 0-0.658 0.171-0.853 0.43 0.197 0.252 0.265 0.574 0.204 0.873 0.361 0.149 0.622 0.48 0.663 0.875h0.002c0.057-0.537 0.521-0.955 1.086-0.958 0.004-0.036 0.005-0.073 0.005-0.11v-0.041c0-0.133-0.025-0.26-0.071-0.377-0.137-0.357-0.46-0.624-0.85-0.679h0.004z"></path>
<path fill="#ffd702" d="M20.667 11.723l-0.030 0.028c-0.089 0.085-0.16 0.181-0.213 0.286-0.1 0.194-0.137 0.412-0.11 0.626 0.032-0.004 0.064-0.005 0.098-0.005 0.54 0 0.988 0.379 1.081 0.878 0.087-0.473 0.494-0.836 0.996-0.873 0.037-0.306-0.055-0.628-0.283-0.868l-0.027-0.030c-0.066-0.069-0.14-0.128-0.219-0.176-0.123-0.075-0.256-0.123-0.393-0.144-0.315-0.048-0.649 0.043-0.9 0.277v0z"></path>
<path fill="#ffd702" d="M23.39 11.723l-0.028 0.028c-0.284 0.268-0.388 0.66-0.304 1.017 0.299 0.144 0.523 0.416 0.59 0.743 0.014 0.007 0.027 0.014 0.041 0.020 0.094-0.498 0.54-0.875 1.079-0.875 0.153 0 0.297 0.030 0.428 0.085 0.060-0.299-0.007-0.62-0.204-0.873-0.020-0.025-0.041-0.052-0.064-0.075l-0.028-0.030c-0.277-0.293-0.686-0.395-1.054-0.297-0.071 0.020-0.139 0.046-0.206 0.078-0.089 0.044-0.174 0.103-0.251 0.176l0.002 0.002z"></path>
<path fill="#e85449" d="M21.474 13.726c0-0.066 0.007-0.128 0.018-0.19-0.092-0.5-0.54-0.878-1.081-0.878-0.034 0-0.066 0.002-0.098 0.005-0.521 0.044-0.939 0.443-0.994 0.948-0.004 0.037-0.007 0.076-0.007 0.116l1.136 7.735h1.024l0.002-7.735z"></path>
<path fill="#f7f8f8" d="M20.45 21.46l-1.136-7.735c0-0.039-0.002-0.078-0.007-0.117-0.055-0.487-0.444-0.873-0.94-0.94-0.050-0.007-0.1-0.011-0.151-0.011-0.247 0-0.475 0.080-0.658 0.215-0.267 0.196-0.441 0.503-0.441 0.853l1.81 7.652c0.060 0.023 0.119 0.052 0.174 0.084h1.349z"></path>
<path fill="#f7f8f8" d="M23.648 13.513c-0.069-0.327-0.292-0.599-0.59-0.743-0.146-0.071-0.311-0.11-0.485-0.11-0.028 0-0.057 0.002-0.085 0.004-0.501 0.037-0.907 0.402-0.996 0.873-0.011 0.062-0.018 0.124-0.018 0.19v7.735h2.196v-7.737c0-0.073-0.007-0.146-0.021-0.212z"></path>
<path fill="#e85449" d="M24.77 12.658c-0.539 0-0.987 0.377-1.079 0.875-0.012 0.062-0.020 0.128-0.020 0.194v7.735h1.051l1.136-7.735c0-0.030 0.002-0.059 0.005-0.089 0-0.007 0-0.014-0.002-0.021-0.041-0.395-0.304-0.725-0.663-0.875-0.132-0.055-0.276-0.085-0.428-0.084v0z"></path>
<path fill="#f7f8f8" d="M25.863 13.618c0 0.007 0 0.014-0.002 0.021-0.002 0.028-0.005 0.059-0.005 0.089l-1.136 7.735h1.502l1.829-7.735c0-0.183-0.048-0.354-0.13-0.503-0.185-0.336-0.549-0.564-0.969-0.564-0.002 0-0.005 0-0.007 0-0.565 0.004-1.029 0.421-1.086 0.958l0.004-0.002z"></path>
<path fill="#676767" d="M19.385 21.71c0.107 0.133 0.183 0.295 0.217 0.469 0.078-0.018 0.158-0.028 0.242-0.028h0.041c0.539 0 0.985 0.404 1.058 0.923h4.926v-0.1l0.299-1.262-6.782-0.002z"></path>
<path fill="#ffd702" d="M16.933 23.26v-0.041c0-0.384 0.206-0.722 0.514-0.91 0.020-0.311 0.174-0.588 0.405-0.772-0.144-0.071-0.304-0.114-0.475-0.114h-0.041c-0.587 0-1.068 0.48-1.068 1.068v0.041c0 0.393 0.215 0.736 0.532 0.921 0.053 0.032 0.11 0.059 0.169 0.080-0.023-0.087-0.037-0.18-0.036-0.274v0z"></path>
<path fill="#fff" d="M24.722 21.46h-5.621c0.108 0.066 0.206 0.149 0.286 0.249h6.78l0.059-0.249c0 0-1.504 0-1.504 0z"></path>
<path fill="#fdf3cc" d="M17.447 22.309c0.162-0.1 0.352-0.156 0.555-0.156h0.041c0.379 0 0.711 0.199 0.901 0.498 0.148-0.233 0.384-0.405 0.66-0.469-0.032-0.174-0.108-0.336-0.217-0.469-0.080-0.1-0.176-0.183-0.286-0.249-0.055-0.034-0.114-0.062-0.174-0.084-0.117-0.044-0.242-0.069-0.375-0.069h-0.041c-0.249 0-0.476 0.087-0.658 0.229-0.233 0.183-0.386 0.459-0.405 0.77v0z"></path>
<path fill="#ffd702" d="M19.884 22.149h-0.041c-0.084 0-0.164 0.011-0.242 0.028-0.276 0.064-0.512 0.236-0.66 0.469 0.105 0.165 0.167 0.361 0.167 0.569v0.041c0 0.21-0.062 0.404-0.167 0.569 0.19 0.299 0.523 0.498 0.901 0.498h0.041c0.588 0 1.068-0.48 1.068-1.067v-0.041c0-0.050-0.005-0.098-0.011-0.146-0.071-0.519-0.519-0.921-1.058-0.921v0z"></path>
<path fill="#fce370" d="M18.041 24.327c0.379 0 0.711-0.199 0.901-0.498 0.105-0.165 0.167-0.361 0.167-0.569v-0.041c0-0.21-0.062-0.404-0.167-0.569-0.19-0.299-0.523-0.498-0.901-0.498h-0.041c-0.203 0-0.393 0.059-0.555 0.156-0.308 0.188-0.514 0.526-0.514 0.91v0.041c0 0.094 0.014 0.187 0.037 0.274 0.020 0.073 0.046 0.14 0.078 0.206 0.092 0.183 0.236 0.334 0.412 0.439 0.158 0.094 0.343 0.148 0.539 0.148h0.043z"></path>
<path fill="#108981" d="M13.666 5.639h-0.45l-0.087 0.395-0.005-0.002-0.708 3.003h0.4l0.631-2.679 0.005 0.002 0.087-0.395h3.433v-0.692h-0.324v0.368h-2.983z"></path>
<path fill="#108981" d="M14.171 14.725c-0.007 0.062-0.172 1.417-0.549 2.359 0 0-0.505 2.034-0.572 3.081 0 0.018-0.073 2.254 0.181 3.154l0.007 0.043c0.002 0.124-0.069 1.223-3.077 1.335h-0.012c-1.449-0.053-2.215-0.336-2.62-0.628 0.004 0.007 0.009 0.012 0.014 0.020 0.087 0.124 0.228 0.263 0.452 0.396 0.436 0.258 1.184 0.489 2.48 0.537h0.012c3.008-0.112 3.081-1.209 3.079-1.335l-0.007-0.041c-0.254-0.9-0.181-3.136-0.181-3.154 0.069-1.047 0.574-3.081 0.572-3.081 0.377-0.944 0.54-2.297 0.549-2.359 0.277-3.14-0.116-5.532-0.119-5.556l-0.023-0.137h-0.274c0.085 0.622 0.325 2.731 0.091 5.367l-0.002-0.002z"></path>
<path fill="#fff" d="M14.126 9.739h-1.877l-0.491 2.084h-0.74l0.496-2.084h-5.337c0.039-0.356 0.073-0.562 0.075-0.569-0.002 0.007-0.034 0.204-0.073 0.553 0 0.005-0.002 0.011-0.002 0.016-0.007 0.055-0.012 0.116-0.020 0.178v0.002c-0.012 0.123-0.025 0.26-0.037 0.407-0.002 0.009-0.002 0.021-0.004 0.030-0.005 0.069-0.011 0.142-0.016 0.217 0 0.004 0 0.007 0 0.009-0.005 0.076-0.011 0.158-0.016 0.24-0.002 0.016-0.002 0.032-0.004 0.050-0.004 0.069-0.009 0.142-0.012 0.215-0.002 0.016-0.002 0.034-0.004 0.050-0.004 0.087-0.009 0.176-0.012 0.268 0 0.016-0.002 0.030-0.002 0.046-0.004 0.078-0.005 0.156-0.007 0.238 0 0.025-0.002 0.048-0.002 0.073-0.002 0.098-0.005 0.196-0.007 0.297 0 0.002 0 0.004 0 0.005-0.002 0.098-0.002 0.199-0.002 0.3 0 0.027 0 0.055 0 0.082 0 0.091 0 0.181 0.002 0.276 0 0.018 0 0.034 0 0.052 0.002 0.108 0.004 0.219 0.007 0.331 0 0.027 0.002 0.053 0.002 0.080 0.002 0.091 0.005 0.183 0.009 0.279 0.002 0.027 0.002 0.053 0.004 0.080 0.005 0.116 0.011 0.235 0.018 0.354 0.002 0.020 0.002 0.039 0.004 0.059 0.005 0.103 0.012 0.206 0.020 0.309 0.002 0.032 0.005 0.064 0.007 0.098 0.009 0.123 0.020 0.247 0.030 0.373 0.007 0.057 0.171 1.412 0.54 2.334 0 0.002 0.009 0.037 0.023 0.096 0.007 0.030 0.016 0.066 0.027 0.108 0.13 0.544 0.475 2.044 0.53 2.892 0 0.021 0.066 1.988-0.137 2.974-0.014 0.066-0.028 0.128-0.044 0.183l-0.005 0.043c0 0.005 0 0.014 0 0.025 0 0.002 0 0.004 0 0.005 0 0.011 0.002 0.023 0.004 0.037 0 0.004 0.002 0.007 0.002 0.009 0.002 0.016 0.005 0.032 0.011 0.050 0 0.004 0.002 0.007 0.002 0.009 0.005 0.020 0.011 0.041 0.020 0.064 0 0 0 0 0 0.002 0.009 0.023 0.020 0.046 0.032 0.073 0.002 0.004 0.004 0.007 0.005 0.011 0.012 0.025 0.027 0.050 0.044 0.076 0.004 0.005 0.005 0.009 0.009 0.014 0.018 0.027 0.037 0.055 0.060 0.084 0.004 0.004 0.007 0.007 0.009 0.011 0.025 0.030 0.052 0.060 0.084 0.091v0c0.032 0.032 0.069 0.064 0.11 0.096 0.021 0.016 0.043 0.034 0.066 0.050 0.407 0.292 1.173 0.574 2.62 0.628h0.012c3.008-0.112 3.079-1.209 3.077-1.335l-0.007-0.043c-0.254-0.9-0.181-3.136-0.181-3.154 0.069-1.047 0.574-3.081 0.572-3.081 0.377-0.944 0.54-2.297 0.549-2.359 0.235-2.636-0.007-4.745-0.091-5.367-0.016-0.119-0.027-0.185-0.027-0.188 0 0.007 0.034 0.213 0.075 0.569v-0.004zM13.216 14.809c-0.014 0.123-0.171 1.316-0.485 2.101l-0.020 0.050-0.012 0.053c-0.021 0.087-0.532 2.139-0.606 3.271v0.025c-0.007 0.222-0.062 2.041 0.144 3.141-0.165 0.13-0.684 0.411-2.085 0.468-1.406-0.057-1.92-0.341-2.076-0.46-0.004-0.002-0.005-0.004-0.007-0.005 0.208-1.099 0.153-2.921 0.146-3.143v-0.012l-0.002-0.012c-0.075-1.132-0.583-3.184-0.606-3.271l-0.012-0.053-0.020-0.050c-0.315-0.784-0.469-1.979-0.485-2.101-0.092-1.044-0.107-2.002-0.087-2.805h6.304c0.020 0.804 0.005 1.762-0.089 2.805v0z"></path>
<path fill="#fff" d="M11.708 18.507c0.007-0.034 0.011-0.068 0.018-0.101h-0.018v0.101z"></path>
<path fill="#eae9ea" d="M6.178 9.739v0h5.337l0.169-0.706h-5.406l-0.023 0.137c-0.002 0.007-0.036 0.213-0.076 0.569v0z"></path>
<path fill="#eae9ea" d="M12.249 9.739h1.877c-0.039-0.356-0.073-0.562-0.075-0.569l-0.023-0.135h-1.612c0 0-0.167 0.706-0.167 0.704z"></path>
<path fill="#8d5957" d="M11.662 12.004h-4.661c-0.020 0.802-0.005 1.762 0.087 2.805 0.016 0.123 0.171 1.317 0.485 2.101l0.020 0.050 0.012 0.053c0.021 0.087 0.532 2.139 0.606 3.271l0.002 0.012v0.012c0.007 0.222 0.062 2.043-0.146 3.143 0.002 0.002 0.004 0.004 0.007 0.005 0.156 0.119 0.672 0.404 2.076 0.46 1.401-0.057 1.918-0.338 2.085-0.468-0.208-1.1-0.153-2.919-0.144-3.141v-0.025c0.075-1.132 0.585-3.184 0.606-3.271l0.012-0.053 0.020-0.050c0.315-0.786 0.469-1.979 0.485-2.101 0.092-1.044 0.107-2.002 0.087-2.805h-1.641zM9.934 14.247c-0.453 0-0.821-0.368-0.821-0.821s0.368-0.821 0.821-0.821 0.821 0.368 0.821 0.821-0.368 0.821-0.821 0.821zM10.939 23.049c-0.1-4.473 0.533-4.18 0.533-4.18-0.094 1.884 0.082 4.098 0.082 4.098l-0.615 0.082zM11.708 18.507v-0.101h0.018c-0.007 0.034-0.011 0.068-0.018 0.101zM11.243 16.044c-0.343 0-0.622-0.279-0.622-0.622s0.277-0.622 0.622-0.622c0.343 0 0.622 0.277 0.622 0.622s-0.279 0.622-0.622 0.622zM11.982 14.18c-0.332 0-0.603-0.27-0.603-0.601s0.27-0.601 0.603-0.601c0.331 0 0.601 0.27 0.601 0.601s-0.27 0.601-0.601 0.601z"></path>
<path fill="#ffd702" d="M13.666 5.639h2.983v-0.692h-2.983v0.692z"></path>
<path fill="#ffd702" d="M11.515 9.739l-0.496 2.084h0.74l1.365-5.79-0.66-0.201 0.194-0.884-0.974 4.087-0.169 0.704z"></path>
<path fill="#f59c1d" d="M13.124 6.032l0.005 0.002 0.087-0.395h0.45v-0.692h-1.008l-0.194 0.884 0.66 0.201z"></path>
<path fill="#c9b0af" d="M11.865 15.424c0 0.343-0.279 0.622-0.622 0.622s-0.622-0.279-0.622-0.622c0-0.343 0.279-0.622 0.622-0.622s0.622 0.277 0.622 0.622z"></path>
<path fill="#c9b0af" d="M10.756 13.424c0 0.453-0.368 0.821-0.821 0.821s-0.821-0.368-0.821-0.821 0.368-0.821 0.821-0.821 0.821 0.368 0.821 0.821z"></path>
<path fill="#c9b0af" d="M11.982 12.976c-0.332 0-0.603 0.27-0.603 0.601s0.27 0.601 0.603 0.601c0.331 0 0.601-0.27 0.601-0.601s-0.27-0.601-0.601-0.601z"></path>
<path fill="#c9b0af" d="M11.474 18.869c0 0-0.633-0.293-0.533 4.18l0.617-0.082c0 0-0.176-2.213-0.084-4.098v0z"></path>
</svg>
