<?xml version="1.0" encoding="utf-8"?>
<!-- Generated by IcoMoon.io -->
<!DOCTYPE svg PUBLIC "-//W3C//DTD SVG 1.1//EN" "http://www.w3.org/Graphics/SVG/1.1/DTD/svg11.dtd">
<svg version="1.1" xmlns="http://www.w3.org/2000/svg" xmlns:xlink="http://www.w3.org/1999/xlink" width="32" height="32" viewBox="0 0 32 32">
<path fill="#1bb3b3" d="M31.388 19.627c-0.164 0.613-0.324 1.173-0.505 1.707 0.203-0.565 0.37-1.134 0.505-1.707z"></path>
<path fill="#1bb3b3" d="M11.266 27.335v-2.894h2.935v-9.157h-1.911c-0.375 0-0.437-0.094-0.437-0.437v-0.060h-0.060c-0.375 0-0.437-0.094-0.437-0.437v-2.034c0-0.345 0.062-0.437 0.437-0.437h5.148l-2.085-2.268c-0.071-0.069-0.14-0.144-0.203-0.22l-0.092-0.1c-0.599-0.473-0.985-1.204-0.985-2.027 0-1.426 1.156-2.581 2.581-2.581 0.738 0 1.403 0.311 1.872 0.809l0.027-0.028 9.204 9.748 4.135 4.398c1.735-7.424-2.123-15.22-9.404-18.201-8.076-3.307-17.305 0.558-20.613 8.635s0.558 17.305 8.635 20.612c1.708 0.7 3.468 1.077 5.214 1.163l-1.362-1.566-2.597-2.914z"></path>
<path fill="#1bb3b3" d="M29.426 24.357v0c0.041-0.062 0.080-0.124 0.119-0.188-0.039 0.062-0.078 0.124-0.119 0.188z"></path>
<path fill="#1bb3b3" d="M16.588 31.822c-0.012 0-0.027 0.002-0.039 0.002 0.012 0 0.027-0.002 0.039-0.002z"></path>
<path fill="#19a29b" opacity="0.6" d="M16.588 31.822c8.123-0.306 11.95-5.929 12.839-7.461v0c-2.804 4.53-7.675 7.266-12.839 7.461z"></path>
<path fill="#19a29b" opacity="0.6" d="M15.225 31.813l0.009 0.011c0.45 0.016 0.889 0.014 1.316 0-0.439 0.016-0.882 0.012-1.324-0.011z"></path>
<path fill="#19a29b" opacity="0.6" d="M29.545 24.169c0.606-0.958 1.006-1.851 1.339-2.836-0.082 0.228-0.167 0.455-0.26 0.683-0.309 0.756-0.67 1.474-1.079 2.153v0z"></path>
<path fill="#19a29b" opacity="0.6" d="M31.394 19.605v0c-0.002 0.007-0.004 0.016-0.005 0.023 0.002-0.007 0.004-0.014 0.005-0.023v0z"></path>
<path fill="#19a29b" d="M29.545 24.169c0.407-0.679 0.768-1.399 1.077-2.155 0.092-0.226 0.18-0.453 0.26-0.683 0.18-0.533 0.341-1.093 0.505-1.707 0.002-0.007 0.004-0.016 0.005-0.023l-4.135-4.398-9.204-9.748-0.027 0.028c0.064 0.068 0.124 0.14 0.183 0.215 0.62 0.471 1.024 1.216 1.024 2.055 0 1.426-1.156 2.581-2.581 2.581-0.7 0-1.333-0.279-1.799-0.732l2.085 2.268h0.796c0.375 0 0.437 0.094 0.439 0.437v0.060h0.059c0.375 0 0.437 0.094 0.439 0.437v11.63h2.19v0.498h0.498v2.894h-9.596v-0.498h-0.498l2.597 2.912 1.362 1.566c0.443 0.021 0.885 0.025 1.324 0.011 0.012 0 0.027-0.002 0.039-0.002 5.164-0.196 10.036-2.932 12.839-7.461l-0.002-0.002c0.041-0.064 0.080-0.126 0.119-0.187v0z"></path>
<path fill="#1bb3b3" d="M14.56 9.287l0.092 0.1c-0.018-0.023-0.036-0.048-0.053-0.071-0.012-0.011-0.027-0.020-0.039-0.028z"></path>
<path fill="#19a29b" opacity="0.6" d="M14.56 9.287l0.092 0.1c-0.018-0.023-0.036-0.048-0.053-0.071-0.012-0.011-0.027-0.020-0.039-0.028z"></path>
<path fill="#257f7c" d="M11.851 14.786v0.060c0 0.345 0.062 0.437 0.437 0.437h1.911v-0.498h-2.348z"></path>
<path fill="#257f7c" d="M18.672 24.441v-11.63c0-0.345-0.064-0.437-0.439-0.437h-0.059v12.068c0 0 0.498 0 0.498 0z"></path>
<path fill="#257f7c" d="M11.764 27.335v0.498h9.596v-2.894h-0.498v2.396c0 0-9.099 0-9.099 0z"></path>
<path fill="#fff" d="M11.353 12.315v2.034c0 0.345 0.062 0.437 0.437 0.437h2.409v9.655h-2.935v2.894h9.596v-2.894h-2.688v-12.128c0-0.345-0.064-0.437-0.439-0.437h-5.945c-0.375 0-0.439 0.094-0.439 0.437l0.004 0.002z"></path>
<path fill="#257f7c" d="M16.155 9.842c-0.585 0-1.124-0.197-1.557-0.526 0.018 0.023 0.034 0.048 0.053 0.071 0.064 0.078 0.132 0.151 0.203 0.22 0.466 0.453 1.099 0.732 1.799 0.732 1.426 0 2.581-1.156 2.581-2.581 0-0.839-0.404-1.584-1.024-2.055 0.329 0.434 0.526 0.971 0.526 1.557 0 1.426-1.156 2.581-2.581 2.581z"></path>
<path fill="#fff" d="M16.155 4.679c-1.426 0-2.581 1.156-2.581 2.581 0 0.823 0.386 1.554 0.985 2.027 0.012 0.011 0.027 0.020 0.039 0.028 0.434 0.329 0.971 0.526 1.557 0.526 1.426 0 2.581-1.156 2.581-2.581 0-0.587-0.197-1.124-0.526-1.557-0.057-0.075-0.117-0.148-0.183-0.215-0.471-0.496-1.134-0.809-1.872-0.809z"></path>
</svg>
