<?xml version="1.0" encoding="utf-8"?>
<!-- Generated by IcoMoon.io -->
<!DOCTYPE svg PUBLIC "-//W3C//DTD SVG 1.1//EN" "http://www.w3.org/Graphics/SVG/1.1/DTD/svg11.dtd">
<svg version="1.1" xmlns="http://www.w3.org/2000/svg" xmlns:xlink="http://www.w3.org/1999/xlink" width="32" height="32" viewBox="0 0 32 32">
<path fill="#1bb3b3" d="M21.989 1.403c-8.076-3.307-17.305 0.558-20.613 8.635s0.558 17.305 8.635 20.612c6.859 2.809 14.548 0.443 18.736-5.282-3.122 4.228-8.085 6.24-11.989 6.396l-1.673-1.074-3.954-3.161-3.097-2.466 0.011-0.016c-0.53-0.315-0.94-0.887-1.065-1.595l-1.173-6.649c-0.212-1.198 0.471-2.318 1.524-2.505l0.181-0.032c0.135-0.064 0.279-0.112 0.432-0.139l1.271-0.224c0.62-0.11 1.228 0.132 1.669 0.592 1.154-0.788 3.168-2.354 3.854-4.069 1.024-2.558 0.597-3.924 1.109-4.777 0.423-0.704 1.6-0.884 2.238-0.492l0.002-0.004 0.54 0.379c0.043 0.025 0.082 0.053 0.119 0.084l9.264 6.491 3.73 2.78c0.132 3.428-0.583 6.288-1.82 8.622 0.258-0.48 0.494-0.98 0.704-1.495 3.307-8.076-0.558-17.305-8.635-20.613 0 0 0 0.002 0 0.002z"></path>
<path fill="#29a9a6" opacity="0.8" d="M29.918 23.511c-0.35 0.654-0.743 1.273-1.172 1.86 0.427-0.578 0.82-1.196 1.172-1.86z"></path>
<path fill="#1bb3b3" d="M18.357 5.413c0.096 0.032 0.187 0.071 0.268 0.121l-0.54-0.379-0.002 0.004c0.11 0.068 0.203 0.153 0.274 0.254z"></path>
<path fill="#29a9a6" opacity="0.8" d="M18.357 5.413c0.096 0.032 0.187 0.071 0.268 0.121l-0.54-0.379-0.002 0.004c0.11 0.068 0.203 0.153 0.274 0.254z"></path>
<path fill="#29a9a6" d="M31.739 14.889l-3.73-2.78-9.264-6.491c0.082 0.068 0.151 0.148 0.203 0.238 0.427 0.768 1.024 1.365 0.171 5.799 0 0 0.1 0.137 0.325 0.327 0.763 0.439 2.082 0.882 4.164 0.663 0.457-0.048 0.894 0.155 1.239 0.494 1.255 0.558 1.984 2.85 0.244 3.721 0 0 1.963 1.876-0.258 2.985 0 0 1.195 2.133-1.536 2.473 0 0 1.196 2.389-2.3 2.133 0 0-6.407-0.859-8.608-0.43-0.276 0.452-0.709 0.779-1.234 0.871l-0.181 0.032c-0.135 0.064-0.279 0.112-0.432 0.139l-1.271 0.224c-0.43 0.076-0.857-0.020-1.223-0.236l-0.011 0.016 3.097 2.466 3.954 3.161 1.673 1.074c3.904-0.156 8.868-2.171 11.989-6.396 0.428-0.585 0.821-1.205 1.172-1.86 1.237-2.334 1.952-5.195 1.819-8.622 0.002 0 0 0 0 0z"></path>
<path fill="#c2ac76" d="M24.548 16.484c0 0 1.963 1.877-0.258 2.985 0 0 1.196 2.133-1.534 2.473 0 0 1.196 2.389-2.302 2.133 0 0-5.874-0.916-7.883-0.437-0.050 0.135-0.11 0.263-0.183 0.382 2.201-0.428 8.608 0.43 8.608 0.43 3.497 0.256 2.3-2.133 2.3-2.133 2.731-0.341 1.536-2.473 1.536-2.473 2.219-1.108 0.258-2.985 0.258-2.985 1.742-0.871 1.012-3.161-0.244-3.721 0.88 0.864 1.17 2.61-0.299 3.346z"></path>
<path fill="#c2ac76" d="M18.405 5.481c0.427 0.768 1.024 1.365 0.171 5.799 0 0 0.254 0.348 0.868 0.702-0.226-0.188-0.325-0.327-0.325-0.327 0.853-4.436 0.256-5.033-0.171-5.801-0.052-0.092-0.121-0.171-0.203-0.238-0.037-0.030-0.078-0.059-0.119-0.084-0.082-0.050-0.172-0.089-0.268-0.121 0.016 0.023 0.034 0.044 0.048 0.069v0z"></path>
<path fill="#ffefbb" d="M12.676 22.386c0.078 0.443 0.034 0.873-0.105 1.252 2.009-0.478 7.883 0.437 7.883 0.437 3.497 0.256 2.302-2.133 2.302-2.133 2.731-0.34 1.534-2.473 1.534-2.473 2.219-1.108 0.258-2.985 0.258-2.985 1.47-0.734 1.18-2.482 0.3-3.344-0.345-0.34-0.782-0.542-1.239-0.494-2.082 0.219-3.401-0.224-4.164-0.663-0.613-0.352-0.868-0.702-0.868-0.702 0.853-4.436 0.256-5.033-0.171-5.799-0.014-0.025-0.032-0.046-0.048-0.068-0.071-0.101-0.164-0.187-0.274-0.254-0.638-0.391-1.815-0.212-2.238 0.492-0.512 0.853-0.085 2.219-1.109 4.777-0.686 1.716-2.702 3.28-3.854 4.069 0.308 0.322 0.533 0.748 0.62 1.241l1.172 6.647z"></path>
<path fill="#b35046" d="M9.269 25.287l1.271-0.224c0.153-0.027 0.295-0.075 0.432-0.139l-1.088 0.192c-1.052 0.185-2.078-0.635-2.288-1.831l-1.173-6.649c-0.18-1.024 0.293-1.991 1.092-2.366l-0.181 0.032c-1.052 0.185-1.735 1.307-1.524 2.505l1.173 6.649c0.124 0.708 0.535 1.28 1.065 1.595 0.368 0.219 0.793 0.313 1.221 0.236v0z"></path>
<path fill="#d27661" d="M6.42 16.635l1.173 6.649c0.212 1.198 1.236 2.018 2.288 1.831l1.271-0.224c0.526-0.092 0.958-0.418 1.234-0.871 0.073-0.119 0.133-0.247 0.183-0.382 0.139-0.379 0.183-0.809 0.105-1.252l-1.173-6.649c-0.087-0.492-0.313-0.919-0.62-1.241-0.441-0.46-1.049-0.7-1.669-0.592l-1.271 0.224c-0.153 0.027-0.297 0.075-0.432 0.139-0.798 0.375-1.273 1.342-1.092 2.366l0.004 0.002z"></path>
</svg>
