<?xml version="1.0" encoding="UTF-8"?>
<svg width="45px" height="45px" viewBox="0 0 45 45" version="1.1" xmlns="http://www.w3.org/2000/svg" xmlns:xlink="http://www.w3.org/1999/xlink">
    <!-- Generator: sketchtool 42 (36781) - http://www.bohemiancoding.com/sketch -->
    <title>A6C274DA-DBC7-4CF2-8888-C19FAD76AD41</title>
    <desc>Created with sketchtool.</desc>
    <defs></defs>
    <g id="Home" stroke="none" stroke-width="1" fill="none" fill-rule="evenodd">
        <g id="home---Desktop" transform="translate(-592.000000, -3198.000000)">
            <g id="footer" transform="translate(0.000000, 2949.000000)">
                <g id="app/social" transform="translate(136.000000, 215.000000)">
                    <g id="social" transform="translate(390.000000, 0.000000)">
                        <g id="Group-9" transform="translate(66.000000, 34.000000)">
                            <rect id="YouTube" fill="#CD332D" x="0" y="0" width="45" height="45"></rect>
                            <path d="M15.9463152,9 L17.0241825,12.9736699 L17.1284716,12.9736699 L18.1533412,9 L19.840628,9 L17.9096801,14.8164434 L17.9096801,18.9408955 L16.2502251,18.9408955 L16.2502251,15.0022925 L14.275237,9 L15.9463152,9 Z M20.5557761,11.9272998 C20.9522986,11.5906685 21.4867536,11.4220547 22.1549289,11.4220547 C22.764295,11.4220547 23.2651066,11.5996113 23.6557109,11.9549414 C24.0433294,12.3094585 24.2386848,12.7669541 24.2386848,13.326019 L24.2386848,17.1145444 C24.2386848,17.7414668 24.0478081,18.2326201 23.6674941,18.5901724 C23.2827014,18.9469116 22.7584834,19.1260942 22.0874289,19.1260942 C21.4442595,19.1260942 20.9273993,18.9409497 20.5396742,18.5738584 C20.1549348,18.2050869 19.959686,17.7087847 19.959686,17.0856021 L19.9595794,13.284936 C19.9595794,12.7154648 20.157814,12.2631724 20.5557761,11.9272998 Z M21.6350296,17.6906821 C21.7393187,17.8011401 21.889141,17.8556104 22.0843898,17.8556104 C22.2841706,17.8556104 22.4412441,17.7989722 22.5601955,17.6877012 C22.6777607,17.574208 22.7365166,17.4197944 22.7365166,17.2241895 L22.7365166,13.228894 C22.7365166,13.0685186 22.6762145,12.9393618 22.5558235,12.8400688 C22.4354325,12.7415889 22.2783057,12.6930264 22.0843898,12.6930264 C21.9038033,12.6930264 21.7584597,12.7415889 21.6453732,12.8400688 C21.5337796,12.9393618 21.4765166,13.0684102 21.4765166,13.228894 L21.4765166,17.2242437 C21.4764633,17.4249976 21.5307938,17.5794653 21.6350296,17.6906821 Z M29.6396445,18.9409497 L28.1653081,18.9409497 L28.1653081,18.1311592 C27.8965344,18.4289297 27.613205,18.6581382 27.3179325,18.8133105 C27.0242595,18.9692959 26.7393306,19.0470176 26.4631991,19.0470176 C26.1196742,19.0470176 25.8655628,18.9372642 25.6923874,18.7193291 C25.520545,18.5006353 25.433904,18.1737598 25.433904,17.7363179 L25.433904,11.6070908 L26.9052547,11.6070908 L26.9052547,17.2294468 C26.9052547,17.4033721 26.9391114,17.5287349 27.0007464,17.6063481 C27.0609419,17.6840698 27.1622453,17.7235269 27.3003377,17.7235269 C27.4075059,17.7235269 27.5455983,17.671333 27.7114692,17.5690591 C27.8759005,17.4660806 28.0286552,17.3345933 28.1652014,17.173459 L28.1652014,11.6070908 L29.6396445,11.6070908 L29.6396445,18.9409497 Z M22.4956813,21.7338354 C22.4956813,21.7330225 31.5559834,21.7473311 32.6308649,22.8212344 C33.7102251,23.8967637 33.7219017,29.2063901 33.7219017,29.2370669 C33.7219017,29.2370669 33.7131576,34.574335 32.6308649,35.653604 C31.5559834,36.7268569 22.4956813,36.75 22.4956813,36.75 C22.4956813,36.75 13.4366588,36.7268569 12.3589514,35.6536582 C11.2811374,34.5780747 11.2781517,29.2773369 11.2781517,29.2370669 C11.2781517,29.2064985 11.2810841,23.8967637 12.3589514,22.8212344 C13.4367654,21.7473311 22.4956813,21.7330225 22.4956813,21.7338354 Z M16.4367299,25.9492881 L17.9624645,25.9492881 L17.9624111,24.6386426 L13.4351659,24.6386426 L13.4351659,25.9492881 L14.9609005,25.9492881 L14.9609005,33.6629209 L16.4367299,33.6629209 L16.4367299,25.9492881 Z M20.9683472,33.6629751 L22.2767595,33.6629751 L22.2768128,27.0047095 L20.9684005,27.0047095 L20.9684005,32.0627432 C20.8436374,32.2067505 20.7100237,32.324688 20.5616943,32.4187778 C20.4148578,32.5120547 20.2915344,32.5590996 20.1960427,32.5590996 C20.0741588,32.5590996 19.9845853,32.5247373 19.9273223,32.4530859 C19.874378,32.3829521 19.8464929,32.2695132 19.8464929,32.1113057 L19.8464929,27.0046011 L18.5380273,27.0046011 L18.5380273,32.5710776 C18.5380273,32.9689541 18.6158709,33.2636353 18.7671327,33.4630342 C18.9227133,33.6629751 19.1473934,33.7599917 19.45141,33.7599917 C19.6981102,33.7599917 19.9507287,33.6914297 20.2121445,33.5480728 C20.4749467,33.4076968 20.7246327,33.2024443 20.9683472,32.9307979 L20.9683472,33.6629751 Z M26.7174171,33.3711665 C26.9228495,33.1195737 27.0257524,32.7582817 27.025859,32.2873989 L27.025859,28.5929092 C27.025859,28.0480444 26.9171445,27.6323364 26.6968898,27.3480073 C26.4795675,27.0658462 26.1638211,26.9240068 25.7482109,26.9240068 C25.5457109,26.9240068 25.3443839,26.9763091 25.144763,27.0822686 C24.947968,27.1866562 24.7614633,27.3426416 24.5838092,27.5442085 L24.5838092,24.6386426 L23.2607879,24.6386426 L23.2607879,33.6629751 L24.5838092,33.6629751 L24.5838092,33.1525269 C24.7540521,33.3569663 24.943596,33.5062852 25.1432168,33.6032476 C25.3429443,33.7003184 25.5706102,33.7472007 25.8276007,33.7472007 C26.2152725,33.7472007 26.5133175,33.6233555 26.7174171,33.3711665 Z M29.0609893,30.493188 L31.5646209,30.4931338 L31.5646209,28.7959395 C31.5646209,28.1644644 31.404455,27.6807905 31.0828969,27.3449722 C30.7613389,27.0083408 30.3001955,26.8397271 29.7011197,26.8397271 C29.1136671,26.8397271 28.6378614,27.0210776 28.267891,27.3845376 C27.897814,27.747293 27.7113092,28.2205063 27.7113092,28.7959395 L27.7113092,31.7858936 C27.7113092,32.4276665 27.8816588,32.9308521 28.2180391,33.2957212 C28.5543128,33.6629209 29.0168957,33.8443257 29.6028555,33.8443257 C30.254769,33.8443257 30.7453436,33.6734897 31.0712737,33.3301377 C31.4015758,32.9831001 31.5646742,32.4689121 31.5646742,31.7859478 L31.5646742,31.4440591 L30.2180865,31.4440591 L30.2180865,31.7477915 C30.2180865,32.1397061 30.1726066,32.3919492 30.0874052,32.5069058 C30.0007642,32.6218081 29.8494491,32.6793677 29.6322334,32.6793677 C29.4236552,32.6793677 29.2768187,32.612811 29.1887382,32.4777466 C29.1036967,32.3411646 29.0609893,32.098623 29.0609893,31.7477915 L29.0609893,30.493188 Z M25.1314336,27.9808374 C25.3075948,27.9808374 25.4442476,28.0390474 25.5397393,28.1540039 C25.6321386,28.2703696 25.6777251,28.4412598 25.6777251,28.6659697 L25.6777251,32.103772 C25.6777251,32.3179131 25.6380569,32.4686953 25.5633057,32.5620264 C25.4884479,32.6575796 25.3708827,32.7046245 25.2108235,32.7046245 C25.0992832,32.7046245 24.9950474,32.6791509 24.895077,32.6322144 C24.793827,32.585874 24.6894846,32.504521 24.5838092,32.3970981 L24.5838092,28.2488525 C24.6733294,28.1570391 24.7629028,28.0891274 24.8539159,28.0457681 C24.9450355,28.0009995 25.0374882,27.9808374 25.1314336,27.9808374 Z M29.6455095,28.0047393 C29.8437974,28.0047393 29.9920735,28.0636538 30.080154,28.1883662 C30.1712737,28.3048403 30.2182464,28.5062988 30.2182464,28.7847202 L30.2182464,29.4571699 L29.061096,29.4571699 L29.061096,28.7847202 C29.061096,28.5062446 29.1051363,28.3046777 29.1961493,28.1883662 C29.287269,28.0636538 29.4370379,28.0047393 29.6455095,28.0047393 Z" id="Combined-Shape" fill="#FFFFFF"></path>
                        </g>
                    </g>
                </g>
            </g>
        </g>
    </g>
</svg>