<svg width="45" height="45" viewBox="0 0 45 45" xmlns="http://www.w3.org/2000/svg"><title>7573326F-74A3-46D4-818C-DC535C66AF67</title><g fill="none" fill-rule="evenodd"><path fill="#4099FF" d="M0 0h45v45H0z"/><path d="M26.035 13.234c-2.168.79-3.538 2.823-3.382 5.05l.052.859-.867-.105c-3.156-.404-5.913-1.771-8.254-4.068l-1.145-1.14-.294.842c-.625 1.876-.226 3.857 1.075 5.19.693.736.537.841-.66.403-.415-.14-.78-.246-.814-.193-.122.123.294 1.718.624 2.35.45.876 1.37 1.735 2.376 2.243l.85.404-1.006.017c-.971 0-1.006.018-.902.386.347 1.14 1.717 2.35 3.243 2.875l1.075.368-.937.561a9.753 9.753 0 0 1-4.647 1.298c-.78.017-1.422.088-1.422.14 0 .175 2.116 1.157 3.347 1.543 3.694 1.14 8.08.649 11.376-1.297 2.34-1.385 4.682-4.138 5.774-6.803.59-1.42 1.18-4.015 1.18-5.26 0-.806.052-.911 1.023-1.876.572-.56 1.11-1.174 1.214-1.35.173-.333.156-.333-.729-.035-1.474.526-1.682.456-.953-.333.537-.56 1.179-1.578 1.179-1.876 0-.052-.26.035-.555.193-.312.175-1.006.438-1.526.596l-.937.298-.85-.578c-.468-.316-1.127-.667-1.473-.772-.885-.245-2.237-.21-3.035.07z" fill="#FFF"/></g></svg>